<?xml version="1.0" encoding="UTF-8"?>
<svg id="Layer_1" xmlns="http://www.w3.org/2000/svg" version="1.1" viewBox="0 0 20 20">
  <!-- Generator: Adobe Illustrator 30.1.0, SVG Export Plug-In . SVG Version: 2.1.1 Build 136)  -->
  <circle id="Outer" cx="10" cy="10" r="8.25" fill="none" stroke="#000" stroke-width="3.51"/>
  <g>
    <g>
      <rect x="9.36" y="12.63" width="1.27" height="1.27"/>
      <path d="M10.35,12.91v.7h-.7v-.7h.7M10.91,12.35h-1.83v1.83h1.83v-1.83h0Z"/>
    </g>
    <g>
      <path d="M9.37,11.4v-.55c0-.41.15-.79.42-1.09l.7-.77c.14-.16.22-.37.22-.58,0-.26-.21-.47-.48-.47h-.45c-.26,0-.48.21-.48.47v.28h-1.27v-.28c0-.96.79-1.74,1.75-1.74h.45c.97,0,1.75.78,1.75,1.74,0,.53-.2,1.03-.55,1.43l-.7.77c-.06.07-.1.15-.1.24v.55h-1.27Z"/>
      <path d="M10.22,6.94c.81,0,1.47.66,1.47,1.46,0,.46-.17.9-.48,1.24l-.7.77c-.11.12-.17.27-.17.43v.27h-.71v-.27c0-.33.12-.65.35-.9l.7-.77c.19-.21.3-.48.3-.77,0-.42-.34-.76-.76-.76h-.45c-.42,0-.76.34-.76.76h-.71c0-.81.66-1.46,1.47-1.46h.45M10.22,6.38h-.45c-1.12,0-2.03.91-2.03,2.02v.56h1.84v-.56c0-.11.09-.19.2-.19h.45c.11,0,.2.09.2.19,0,.14-.05.28-.15.39l-.7.77c-.32.35-.49.8-.49,1.28v.27s0,.56,0,.56h1.82v-.56s0-.27,0-.27c0-.02,0-.04.02-.06l.7-.77c.4-.44.62-1.02.62-1.62,0-1.12-.91-2.02-2.03-2.02h0Z"/>
    </g>
  </g>
</svg>