<?xml version="1.0" encoding="UTF-8"?>
<svg id="Layer_1" xmlns="http://www.w3.org/2000/svg" version="1.1" viewBox="0 0 20 20">
  <!-- Generator: Adobe Illustrator 30.1.0, SVG Export Plug-In . SVG Version: 2.1.1 Build 136)  -->
  <circle id="Outer" cx="10" cy="10" r="8.6" fill="none" stroke="#000" stroke-width="2.8"/>
  <g>
    <g>
      <rect x="9.37" y="12.9" width="1.26" height="1.26"/>
      <path d="M10.4,13.12v.82h-.82v-.82h.82M10.84,12.68h-1.69v1.69h1.69v-1.69h0Z"/>
    </g>
    <g>
      <path d="M9.37,11.59v-.53c0-.44.16-.87.46-1.2l.81-.9c.19-.21.29-.47.29-.75,0-.36-.3-.66-.67-.66h-.52c-.37,0-.67.3-.67.66v.22h-1.26v-.22c0-1.06.87-1.92,1.93-1.92h.52c1.06,0,1.93.86,1.93,1.92,0,.59-.22,1.15-.61,1.59l-.81.9c-.09.1-.14.22-.14.35v.53h-1.26Z"/>
      <path d="M10.26,6.53c.94,0,1.71.76,1.71,1.7,0,.53-.2,1.04-.56,1.44l-.81.9c-.13.14-.2.31-.2.5v.31h-.82v-.31c0-.39.14-.76.4-1.05l.81-.9c.22-.25.34-.56.34-.89,0-.48-.4-.88-.88-.88h-.52c-.49,0-.88.39-.88.88h-.83c0-.94.77-1.7,1.71-1.7h.52M10.26,6.09h-.52c-1.18,0-2.15.96-2.15,2.14v.44h1.7v-.44c0-.24.2-.44.45-.44h.52c.25,0,.45.2.45.44,0,.22-.08.43-.23.6l-.81.9c-.33.37-.52.84-.52,1.34v.32s0,.43,0,.43h1.69v-.43s0-.31,0-.31c0-.08.03-.15.08-.21l.81-.9c.43-.48.67-1.09.67-1.73,0-1.18-.96-2.14-2.15-2.14h0Z"/>
    </g>
  </g>
</svg>