<?xml version="1.0" encoding="UTF-8"?>
<svg id="Layer_1" xmlns="http://www.w3.org/2000/svg" version="1.1" viewBox="0 0 68 68">
  <!-- Generator: Adobe Illustrator 30.1.0, SVG Export Plug-In . SVG Version: 2.1.1 Build 136)  -->
  <path d="M34,7.12c.87,0,1.75.45,2.2,1.36l5.62,11.16c.97,1.92,2.77,3.27,4.87,3.67l12.17,2.28c1.9.36,2.67,2.67,1.37,4.1l-8.86,9.73c-1.37,1.5-2,3.53-1.74,5.55l1.73,13.12c.21,1.56-1.04,2.8-2.45,2.8-.37,0-.76-.09-1.13-.28l-10.64-5.48c-.99-.51-2.07-.76-3.14-.76-1.08,0-2.16.25-3.14.76l-10.64,5.48c-.37.19-.76.28-1.13.28-1.41,0-2.65-1.24-2.45-2.8l1.73-13.12c.27-2.01-.37-4.04-1.74-5.54l-8.86-9.73c-1.31-1.43-.53-3.75,1.37-4.1l12.17-2.28c2.1-.39,3.9-1.75,4.87-3.66l5.62-11.17c.46-.91,1.33-1.36,2.2-1.36M34,0C30.36,0,27.08,2.02,25.44,5.28l-5.57,11.06-12.04,2.26c-3.41.64-6.22,3.09-7.33,6.38-1.1,3.3-.34,6.94,2.01,9.51l8.79,9.65-1.72,13.01c-.36,2.74.47,5.5,2.29,7.57,1.83,2.08,4.46,3.28,7.22,3.28,1.51,0,3.03-.37,4.39-1.07l10.53-5.42,10.53,5.42c1.36.7,2.87,1.07,4.39,1.07,2.76,0,5.39-1.2,7.22-3.28,1.82-2.07,2.65-4.83,2.29-7.57l-1.72-13.01,8.79-9.65c2.34-2.57,3.11-6.21,2.01-9.51-1.1-3.3-3.91-5.74-7.32-6.38l-12.04-2.26-5.57-11.06C40.92,2.02,37.64,0,34,0h0Z"/>
</svg>