<?xml version="1.0" encoding="UTF-8"?>
<svg id="Layer_1" xmlns="http://www.w3.org/2000/svg" version="1.1" viewBox="0 0 110 110">
  <!-- Generator: Adobe Illustrator 30.1.0, SVG Export Plug-In . SVG Version: 2.1.1 Build 136)  -->
  <circle id="Outer" cx="55" cy="55" r="49.24" fill="none" stroke="#000" stroke-width="11.52"/>
  <g>
    <g>
      <rect x="51.53" y="72.43" width="6.88" height="6.88"/>
      <path d="M57.55,73.29v5.17h-5.17v-5.17h5.17M59.27,71.57h-8.6v8.6h8.6v-8.6h0Z"/>
    </g>
    <g>
      <path d="M51.54,64.94l-.03-2.81c.01-2.67,1-5.22,2.78-7.19l5.12-5.67c1.26-1.39,1.95-3.19,1.95-5.06,0-2.58-2.12-4.68-4.72-4.68h-3.29c-2.6,0-4.72,2.1-4.72,4.68v.86h-6.93v-.86c0-6.38,5.22-11.57,11.65-11.57h3.29c6.42,0,11.65,5.19,11.65,11.57,0,3.57-1.32,7-3.72,9.67l-5.12,5.67c-.66.73-1.01,1.62-1.01,2.57l-.03,2.81h-6.87Z"/>
      <path d="M56.64,33.51c5.95,0,10.79,4.81,10.79,10.71,0,3.36-1.24,6.59-3.5,9.09l-5.12,5.67c-.79.88-1.23,1.97-1.24,3.15l-.02,1.95h-5.17l-.02-1.95c0-2.45.91-4.78,2.56-6.6l5.12-5.67c1.4-1.55,2.17-3.55,2.17-5.63,0-3.05-2.5-5.54-5.58-5.54h-3.29c-3.07,0-5.58,2.48-5.58,5.54h-5.21c0-5.91,4.84-10.71,10.79-10.71h3.29M56.64,31.79h-3.29c-6.9,0-12.51,5.58-12.51,12.43v1.72h8.65v-1.72c0-2.11,1.73-3.82,3.86-3.82h3.29c2.13,0,3.86,1.71,3.86,3.82,0,1.66-.61,3.25-1.73,4.48l-5.12,5.67c-1.92,2.13-2.99,4.88-3,7.75l.02,1.98.02,1.7h8.57l.02-1.7.02-1.95c0-.75.28-1.44.79-2.01l5.12-5.67c2.54-2.82,3.95-6.46,3.95-10.24,0-6.85-5.61-12.43-12.51-12.43h0Z"/>
    </g>
  </g>
</svg>