<?xml version="1.0" encoding="UTF-8"?>
<svg id="Layer_1" xmlns="http://www.w3.org/2000/svg" version="1.1" viewBox="0 0 113 113">
  <!-- Generator: Adobe Illustrator 30.1.0, SVG Export Plug-In . SVG Version: 2.1.1 Build 136)  -->
  <path d="M56.5,15.82c1.32,0,2.65.69,3.34,2.06l8.51,16.89c1.46,2.9,4.19,4.95,7.37,5.55l18.41,3.45c2.88.54,4.05,4.04,2.07,6.21l-13.41,14.72c-2.07,2.27-3.03,5.34-2.63,8.39l2.62,19.85c.31,2.37-1.57,4.24-3.7,4.24-.56,0-1.15-.13-1.71-.42l-16.1-8.29c-1.49-.77-3.12-1.15-4.76-1.15s-3.26.38-4.76,1.15l-16.1,8.29c-.56.29-1.14.42-1.71.42-2.13,0-4.02-1.88-3.7-4.24l2.62-19.85c.4-3.05-.56-6.11-2.63-8.38l-13.42-14.72c-1.98-2.17-.81-5.67,2.07-6.21l18.41-3.45c3.18-.6,5.91-2.65,7.37-5.54l8.51-16.9c.69-1.37,2.01-2.06,3.34-2.06M56.5,0C49.07,0,42.38,4.12,39.03,10.76l-7.31,14.5-15.77,2.96c-6.97,1.31-12.69,6.29-14.94,13.01-2.25,6.73-.69,14.16,4.09,19.4l11.72,12.86-2.29,17.37c-.74,5.59.97,11.22,4.67,15.45,3.72,4.25,9.09,6.68,14.71,6.68,3.09,0,6.19-.75,8.95-2.18l13.62-7.01,13.62,7.01c2.77,1.42,5.86,2.18,8.95,2.18,5.63,0,10.99-2.44,14.71-6.68,3.71-4.23,5.41-9.86,4.67-15.45l-2.29-17.37,11.73-12.87c4.78-5.24,6.34-12.67,4.09-19.4-2.25-6.72-7.98-11.71-14.94-13.01l-15.77-2.96-7.31-14.5C70.62,4.12,63.93,0,56.5,0h0Z"/>
</svg>