<?xml version="1.0" encoding="UTF-8"?>
<svg id="Layer_1" xmlns="http://www.w3.org/2000/svg" version="1.1" viewBox="0 0 113 113">
  <!-- Generator: Adobe Illustrator 30.1.0, SVG Export Plug-In . SVG Version: 2.1.1 Build 136)  -->
  <path d="M56.5,19.81c1.19,0,2.39.62,3.01,1.86l7.68,15.24c1.32,2.61,3.77,4.46,6.65,5l16.61,3.11c2.6.49,3.65,3.64,1.87,5.6l-12.1,13.28c-1.87,2.05-2.74,4.82-2.37,7.57l2.36,17.9c.28,2.14-1.42,3.83-3.34,3.83-.51,0-1.03-.12-1.54-.38l-14.52-7.48c-1.35-.69-2.82-1.04-4.29-1.04s-2.94.35-4.29,1.04l-14.52,7.48c-.51.26-1.03.38-1.54.38-1.92,0-3.62-1.69-3.34-3.83l2.36-17.91c.36-2.75-.5-5.51-2.37-7.56l-12.1-13.28c-1.78-1.96-.73-5.11,1.87-5.6l16.6-3.11c2.87-.54,5.33-2.39,6.64-5l7.68-15.24c.62-1.24,1.82-1.86,3.01-1.86M56.5,0C47.69,0,39.76,4.89,35.8,12.75l-5.36,10.63-11.53,2.16c-8.26,1.55-15.04,7.46-17.71,15.42-2.67,7.97-.81,16.78,4.85,22.99l8.84,9.7-1.73,13.11c-.87,6.62,1.15,13.3,5.54,18.31,4.41,5.03,10.77,7.91,17.44,7.91,3.67,0,7.34-.89,10.61-2.58l9.74-5.02,9.74,5.02c3.28,1.69,6.94,2.58,10.61,2.58,6.67,0,13.03-2.88,17.44-7.92,4.4-5.01,6.42-11.69,5.54-18.31l-1.73-13.11,8.84-9.7c5.66-6.21,7.52-15.02,4.85-22.99-2.67-7.97-9.45-13.88-17.71-15.42l-11.53-2.16-5.36-10.63C73.24,4.89,65.3,0,56.5,0h0Z"/>
</svg>