<?xml version="1.0" encoding="UTF-8"?>
<svg id="Layer_1" xmlns="http://www.w3.org/2000/svg" version="1.1" viewBox="0 0 113 113">
  <!-- Generator: Adobe Illustrator 30.1.0, SVG Export Plug-In . SVG Version: 2.1.1 Build 136)  -->
  <path d="M56.5,11.83c1.45,0,2.9.75,3.66,2.26l9.35,18.55c1.6,3.18,4.6,5.44,8.09,6.09l20.22,3.79c3.16.59,4.44,4.43,2.27,6.81l-14.73,16.16c-2.27,2.49-3.33,5.87-2.89,9.22l2.87,21.8c.34,2.6-1.73,4.66-4.07,4.66-.62,0-1.26-.14-1.88-.46l-17.68-9.11c-1.64-.84-3.43-1.27-5.22-1.27-1.79,0-3.58.42-5.22,1.27l-17.68,9.11c-.62.32-1.26.46-1.88.46-2.34,0-4.41-2.06-4.07-4.66l2.88-21.8c.44-3.34-.61-6.71-2.88-9.2l-14.73-16.17c-2.17-2.38-.89-6.23,2.28-6.82l20.22-3.79c3.5-.66,6.49-2.91,8.09-6.09l9.35-18.55c.76-1.51,2.21-2.26,3.66-2.26M56.5,0C50.45,0,44.99,3.36,42.27,8.77l-9.26,18.37-20.01,3.75c-5.67,1.06-10.34,5.13-12.17,10.6-1.84,5.48-.56,11.54,3.33,15.81l14.61,16.03-2.85,21.63c-.6,4.56.79,9.14,3.8,12.59,3.04,3.46,7.41,5.45,11.99,5.45,2.52,0,5.04-.61,7.29-1.78l17.49-9.01,17.49,9.01c2.26,1.16,4.78,1.78,7.29,1.78,4.58,0,8.95-1.99,11.99-5.45,3.02-3.44,4.41-8.03,3.8-12.59l-2.85-21.63,14.61-16.03c3.89-4.27,5.17-10.33,3.33-15.81-1.83-5.48-6.5-9.54-12.17-10.6l-20.01-3.75-9.26-18.37C68,3.36,62.55,0,56.5,0h0Z"/>
</svg>