<?xml version="1.0" encoding="UTF-8"?>
<svg id="Layer_1" xmlns="http://www.w3.org/2000/svg" version="1.1" viewBox="0 0 117 117">
  <!-- Generator: Adobe Illustrator 30.1.0, SVG Export Plug-In . SVG Version: 2.1.1 Build 136)  -->
  <circle id="Outer" cx="58.5" cy="58.5" r="50.31" fill="none" stroke="#000" stroke-width="16.38"/>
  <g>
    <g>
      <rect x="54.79" y="75.47" width="7.35" height="7.35"/>
      <path d="M60.86,76.75v4.79h-4.79v-4.79h4.79M63.42,74.19h-9.91v9.91h9.91v-9.91h0Z"/>
    </g>
    <g>
      <path d="M54.81,67.82l-.03-3.08c0-2.6.97-5.08,2.7-6.99l4.74-5.26c1.09-1.2,1.69-2.75,1.69-4.37,0-2.13-1.75-3.85-3.89-3.85h-3.05c-2.15,0-3.89,1.73-3.89,3.85v1.28h-7.39v-1.28c0-6.18,5.06-11.21,11.29-11.21h3.05c6.22,0,11.28,5.03,11.28,11.21,0,3.43-1.27,6.73-3.58,9.29l-4.75,5.26c-.53.59-.81,1.3-.82,2.07l-.03,3.09h-7.33Z"/>
      <path d="M60.02,38.18c5.52,0,10.01,4.46,10.01,9.93,0,3.12-1.15,6.11-3.25,8.43l-4.75,5.26c-.74.81-1.14,1.82-1.15,2.92l-.02,1.81h-4.79l-.02-1.81c0-2.27.85-4.43,2.37-6.12l4.75-5.26c1.3-1.44,2.01-3.3,2.01-5.23,0-2.83-2.32-5.14-5.17-5.14h-3.05c-2.85,0-5.17,2.3-5.17,5.14h-4.83c0-5.48,4.49-9.93,10.01-9.93h3.05M60.02,35.62h-3.05c-6.93,0-12.56,5.6-12.56,12.49v2.56h9.95v-2.56c0-1.42,1.17-2.58,2.61-2.58h3.05c1.44,0,2.61,1.16,2.61,2.58,0,1.3-.48,2.54-1.35,3.51l-4.75,5.26c-1.94,2.15-3.02,4.93-3.03,7.83l.02,1.84.02,2.54h2.54s4.79,0,4.79,0h2.53l.03-2.53.02-1.81c0-.47.16-.87.49-1.23l4.75-5.26c2.52-2.79,3.91-6.39,3.91-10.14,0-6.89-5.64-12.49-12.56-12.49h0Z"/>
    </g>
  </g>
</svg>