<?xml version="1.0" encoding="UTF-8"?>
<svg id="Layer_1" xmlns="http://www.w3.org/2000/svg" version="1.1" viewBox="0 0 103 103">
  <!-- Generator: Adobe Illustrator 30.1.0, SVG Export Plug-In . SVG Version: 2.1.1 Build 136)  -->
  <g>
    <g>
      <rect x="47.79" y="28.7" width="7.42" height="7.42"/>
      <path d="M54.08,29.83v5.16h-5.16v-5.16h5.16M56.33,27.58h-9.67v9.67h9.67v-9.67h0Z"/>
    </g>
    <g>
      <polygon points="42.63 73.7 42.63 66.28 47.79 66.28 47.79 52.42 42.63 52.42 42.63 45 55.21 45 55.21 66.28 60.37 66.28 60.37 73.7 42.63 73.7"/>
      <path d="M54.08,46.13v21.28h5.16v5.16h-15.49v-5.16h5.16v-16.12h-5.16v-5.16h10.33M56.33,43.87h-14.83v9.67h5.16v11.61h-5.16v9.67h19.99v-9.67h-5.16v-21.28h0Z"/>
    </g>
  </g>
  <circle id="Outer" cx="51.5" cy="51.5" r="44.29" fill="none" stroke="#000" stroke-width="14.42"/>
</svg>