<?xml version="1.0" encoding="UTF-8"?>
<svg id="Layer_1" xmlns="http://www.w3.org/2000/svg" version="1.1" viewBox="0 0 103 103">
  <!-- Generator: Adobe Illustrator 30.1.0, SVG Export Plug-In . SVG Version: 2.1.1 Build 136)  -->
  <g>
    <g>
      <rect x="47.85" y="27.39" width="7.3" height="7.3"/>
      <path d="M54.35,28.2v5.69h-5.69v-5.69h5.69M55.96,26.59h-8.91v8.91h8.91v-8.91h0Z"/>
    </g>
    <g>
      <polygon points="42.15 75.3 42.15 67.99 47.85 67.99 47.85 51.83 42.15 51.83 42.15 44.52 55.15 44.52 55.15 67.99 60.85 67.99 60.85 75.3 42.15 75.3"/>
      <path d="M54.35,45.33v23.47h5.69v5.69h-17.08v-5.69h5.69v-17.78h-5.69v-5.69h11.39M55.96,43.72h-14.61v8.91h5.69v14.56h-5.69v8.91h20.3v-8.91h-5.69v-23.47h0Z"/>
    </g>
  </g>
  <circle id="Outer" cx="51.5" cy="51.5" r="46.11" fill="none" stroke="#000" stroke-width="10.78"/>
</svg>