<?xml version="1.0" encoding="UTF-8"?>
<svg id="Layer_1" xmlns="http://www.w3.org/2000/svg" version="1.1" viewBox="0 0 8 8">
  <!-- Generator: Adobe Illustrator 30.1.0, SVG Export Plug-In . SVG Version: 2.1.1 Build 136)  -->
  <g>
    <g>
      <rect x="3.71" y="2.23" width=".58" height=".58"/>
      <path d="M4.2,2.32v.4h-.4v-.4h.4M4.38,2.14h-.75v.75h.75v-.75h0Z"/>
    </g>
    <g>
      <polygon points="3.31 5.72 3.31 5.15 3.71 5.15 3.71 4.07 3.31 4.07 3.31 3.5 4.29 3.5 4.29 5.15 4.69 5.15 4.69 5.72 3.31 5.72"/>
      <path d="M4.2,3.58v1.65h.4v.4h-1.2v-.4h.4v-1.25h-.4v-.4h.8M4.38,3.41h-1.15v.75h.4v.9h-.4v.75h1.55v-.75h-.4v-1.65h0Z"/>
    </g>
  </g>
  <circle id="Outer" cx="4" cy="4" r="3.44" fill="none" stroke="#000" stroke-width="1.12"/>
</svg>