<?xml version="1.0" encoding="UTF-8"?>
<svg id="Layer_1" xmlns="http://www.w3.org/2000/svg" version="1.1" viewBox="0 0 60 60">
  <!-- Generator: Adobe Illustrator 30.1.0, SVG Export Plug-In . SVG Version: 2.1.1 Build 136)  -->
  <path d="M30,8.4c.7,0,1.4.36,1.77,1.09l4.52,8.97c.78,1.54,2.22,2.63,3.91,2.95l9.78,1.83c1.53.29,2.15,2.14,1.1,3.3l-7.12,7.82c-1.1,1.21-1.61,2.84-1.4,4.46l1.39,10.54c.17,1.26-.84,2.25-1.97,2.25-.3,0-.61-.07-.91-.22l-8.55-4.4c-.79-.41-1.66-.61-2.53-.61-.87,0-1.73.2-2.53.61l-8.55,4.4c-.3.15-.61.22-.91.22-1.13,0-2.13-1-1.97-2.25l1.39-10.54c.21-1.62-.3-3.25-1.39-4.45l-7.12-7.82c-1.05-1.15-.43-3.01,1.1-3.3l9.78-1.83c1.69-.32,3.14-1.41,3.91-2.94l4.52-8.97c.37-.73,1.07-1.09,1.77-1.09M30,0C26.05,0,22.5,2.19,20.73,5.71l-3.88,7.7-8.37,1.57c-3.7.69-6.74,3.34-7.93,6.91-1.2,3.57-.36,7.52,2.17,10.3l6.22,6.83-1.22,9.22c-.39,2.97.51,5.96,2.48,8.2,1.98,2.25,4.82,3.55,7.81,3.55,1.64,0,3.28-.4,4.75-1.16l7.23-3.72,7.23,3.72c1.47.76,3.11,1.16,4.75,1.16,2.99,0,5.84-1.29,7.81-3.55,1.97-2.25,2.87-5.24,2.48-8.2l-1.22-9.22,6.23-6.83c2.54-2.78,3.37-6.73,2.17-10.3-1.2-3.57-4.24-6.22-7.93-6.91l-8.37-1.57-3.88-7.7C37.5,2.19,33.94,0,30,0h0Z"/>
</svg>