<?xml version="1.0" encoding="UTF-8"?>
<svg id="Layer_1" xmlns="http://www.w3.org/2000/svg" version="1.1" viewBox="0 0 55 55">
  <!-- Generator: Adobe Illustrator 30.1.0, SVG Export Plug-In . SVG Version: 2.1.1 Build 136)  -->
  <g>
    <g>
      <rect x="25.55" y="14.63" width="3.9" height="3.9"/>
      <path d="M29.02,15.06v3.04h-3.04v-3.04h3.04M29.88,14.2h-4.76v4.76h4.76v-4.76h0Z"/>
    </g>
    <g>
      <polygon points="22.51 40.21 22.51 36.31 25.55 36.31 25.55 27.67 22.51 27.67 22.51 23.77 29.45 23.77 29.45 36.31 32.49 36.31 32.49 40.21 22.51 40.21"/>
      <path d="M29.02,24.2v12.53h3.04v3.04h-9.12v-3.04h3.04v-9.49h-3.04v-3.04h6.08M29.88,23.34h-7.8v4.76h3.04v7.77h-3.04v4.76h10.84v-4.76h-3.04v-12.53h0Z"/>
    </g>
  </g>
  <circle id="Outer" cx="27.5" cy="27.5" r="24.62" fill="none" stroke="#000" stroke-width="5.76"/>
</svg>