<?xml version="1.0" encoding="UTF-8"?>
<svg id="Layer_1" xmlns="http://www.w3.org/2000/svg" version="1.1" viewBox="0 0 55 55">
  <!-- Generator: Adobe Illustrator 30.1.0, SVG Export Plug-In . SVG Version: 2.1.1 Build 136)  -->
  <g>
    <g>
      <rect x="25.49" y="16.02" width="4.03" height="4.02"/>
      <path d="M28.74,16.8v2.48h-2.48v-2.48h2.48M30.29,15.25h-5.57v5.57h5.57v-5.57h0Z"/>
    </g>
    <g>
      <polygon points="23.01 38.51 23.01 34.49 25.49 34.49 25.49 28.3 23.01 28.3 23.01 24.27 29.51 24.27 29.51 34.49 31.99 34.49 31.99 38.51 23.01 38.51"/>
      <path d="M28.74,25.04v10.21h2.48v2.48h-7.43v-2.48h2.48v-7.74h-2.48v-2.48h4.96M30.29,23.5h-8.05v5.57h2.48v4.64h-2.48v5.57h10.53v-5.57h-2.48v-10.21h0Z"/>
    </g>
  </g>
  <circle id="Outer" cx="27.5" cy="27.5" r="22.68" fill="none" stroke="#000" stroke-width="9.64"/>
</svg>