<?xml version="1.0" encoding="UTF-8"?>
<svg id="Layer_1" xmlns="http://www.w3.org/2000/svg" version="1.1" viewBox="0 0 55 55">
  <!-- Generator: Adobe Illustrator 30.1.0, SVG Export Plug-In . SVG Version: 2.1.1 Build 136)  -->
  <g>
    <g>
      <rect x="25.52" y="15.33" width="3.96" height="3.96"/>
      <path d="M28.88,15.93v2.76h-2.76v-2.76h2.76M30.08,14.73h-5.16v5.16h5.16v-5.16h0Z"/>
    </g>
    <g>
      <polygon points="22.76 39.35 22.76 35.39 25.52 35.39 25.52 27.99 22.76 27.99 22.76 24.03 29.48 24.03 29.48 35.39 32.24 35.39 32.24 39.35 22.76 39.35"/>
      <path d="M28.88,24.63v11.36h2.76v2.76h-8.27v-2.76h2.76v-8.61h-2.76v-2.76h5.51M30.08,23.43h-7.92v5.16h2.76v6.2h-2.76v5.16h10.68v-5.16h-2.76v-11.36h0Z"/>
    </g>
  </g>
  <circle id="Outer" cx="27.5" cy="27.5" r="23.65" fill="none" stroke="#000" stroke-width="7.7"/>
</svg>