<?xml version="1.0" encoding="UTF-8"?>
<svg id="Layer_1" xmlns="http://www.w3.org/2000/svg" version="1.1" viewBox="0 0 15 15">
  <!-- Generator: Adobe Illustrator 30.1.0, SVG Export Plug-In . SVG Version: 2.1.1 Build 136)  -->
  <g>
    <g>
      <rect x="6.95" y="4.37" width="1.1" height="1.1"/>
      <path d="M7.84,4.58v.68h-.68v-.68h.68M8.26,4.16h-1.52v1.52h1.52v-1.52h0Z"/>
    </g>
    <g>
      <polygon points="6.28 10.5 6.28 9.41 6.95 9.41 6.95 7.72 6.28 7.72 6.28 6.62 8.05 6.62 8.05 9.41 8.72 9.41 8.72 10.5 6.28 10.5"/>
      <path d="M7.84,6.83v2.79h.68v.68h-2.03v-.68h.68v-2.11h-.68v-.68h1.35M8.26,6.41h-2.2v1.52h.68v1.27h-.68v1.52h2.87v-1.52h-.68v-2.79h0Z"/>
    </g>
  </g>
  <circle id="Outer" cx="7.5" cy="7.5" r="6.19" fill="none" stroke="#000" stroke-width="2.63"/>
</svg>