<?xml version="1.0" encoding="UTF-8"?>
<svg id="Layer_1" xmlns="http://www.w3.org/2000/svg" version="1.1" viewBox="0 0 103 103">
  <!-- Generator: Adobe Illustrator 30.1.0, SVG Export Plug-In . SVG Version: 2.1.1 Build 136)  -->
  <path d="M51.5,10.78c1.32,0,2.65.69,3.34,2.06l8.52,16.91c1.46,2.9,4.19,4.95,7.38,5.55l18.43,3.45c2.88.54,4.05,4.04,2.07,6.21l-13.43,14.73c-2.07,2.27-3.04,5.35-2.63,8.4l2.62,19.87c.31,2.37-1.58,4.25-3.71,4.25-.57,0-1.15-.13-1.71-.42l-16.12-8.3c-1.49-.77-3.13-1.15-4.76-1.15s-3.27.38-4.76,1.15l-16.12,8.3c-.56.29-1.14.42-1.71.42-2.13,0-4.02-1.88-3.71-4.25l2.62-19.87c.4-3.05-.56-6.12-2.63-8.39l-13.43-14.73c-1.98-2.17-.81-5.68,2.07-6.22l18.43-3.45c3.19-.6,5.91-2.65,7.37-5.55l8.52-16.91c.69-1.37,2.02-2.06,3.34-2.06M51.5,0c-5.52,0-10.49,3.06-12.97,7.99l-8.44,16.75-18.24,3.42c-5.17.97-9.42,4.67-11.1,9.67-1.67,5-.51,10.52,3.04,14.41l13.32,14.61-2.6,19.71c-.55,4.15.72,8.33,3.47,11.47,2.77,3.16,6.75,4.97,10.93,4.97,2.29,0,4.59-.56,6.65-1.62l15.94-8.21,15.94,8.21c2.06,1.06,4.35,1.62,6.65,1.62,4.18,0,8.16-1.81,10.93-4.97,2.75-3.14,4.02-7.32,3.47-11.47l-2.6-19.71,13.32-14.62c3.55-3.89,4.71-9.41,3.04-14.41-1.67-4.99-5.92-8.69-11.09-9.66l-18.24-3.42-8.44-16.75c-2.48-4.93-7.45-7.99-12.97-7.99h0Z"/>
</svg>