<?xml version="1.0" encoding="UTF-8"?>
<svg id="Layer_1" xmlns="http://www.w3.org/2000/svg" version="1.1" viewBox="0 0 103 103">
  <!-- Generator: Adobe Illustrator 30.1.0, SVG Export Plug-In . SVG Version: 2.1.1 Build 136)  -->
  <path d="M51.5,14.42c1.21,0,2.41.63,3.04,1.88l7.76,15.4c1.33,2.64,3.82,4.51,6.72,5.06l16.78,3.15c2.62.49,3.69,3.68,1.89,5.66l-12.23,13.42c-1.89,2.07-2.76,4.87-2.4,7.65l2.39,18.09c.28,2.16-1.44,3.87-3.38,3.87-.51,0-1.04-.12-1.56-.38l-14.68-7.56c-1.36-.7-2.85-1.05-4.34-1.05-1.49,0-2.98.35-4.34,1.05l-14.68,7.56c-.51.26-1.04.38-1.56.38-1.94,0-3.66-1.71-3.38-3.87l2.39-18.1c.37-2.78-.51-5.57-2.39-7.64l-12.23-13.42c-1.8-1.98-.74-5.17,1.89-5.66l16.78-3.15c2.9-.54,5.38-2.41,6.71-5.05l7.76-15.4c.63-1.25,1.84-1.88,3.04-1.88M51.5,0C44.73,0,38.63,3.76,35.58,9.81l-6.66,13.22-14.37,2.69c-6.35,1.19-11.57,5.74-13.62,11.86-2.05,6.13-.62,12.91,3.73,17.68l10.69,11.73-2.09,15.83c-.67,5.1.88,10.23,4.26,14.08,3.39,3.87,8.28,6.09,13.41,6.09,2.82,0,5.64-.69,8.16-1.98l12.41-6.39,12.41,6.39c2.52,1.3,5.34,1.98,8.16,1.98,5.13,0,10.02-2.22,13.41-6.09,3.38-3.85,4.93-8.99,4.26-14.08l-2.09-15.83,10.69-11.73c4.35-4.78,5.78-11.55,3.73-17.68-2.05-6.13-7.27-10.67-13.62-11.86l-14.38-2.69-6.66-13.22C64.37,3.76,58.27,0,51.5,0h0Z"/>
</svg>