<?xml version="1.0" encoding="UTF-8"?>
<svg id="Layer_1" xmlns="http://www.w3.org/2000/svg" version="1.1" viewBox="0 0 38 38">
  <!-- Generator: Adobe Illustrator 30.1.0, SVG Export Plug-In . SVG Version: 2.1.1 Build 136)  -->
  <path d="M19,5.32c.44,0,.89.23,1.12.69l2.86,5.68c.49.97,1.41,1.66,2.48,1.87l6.19,1.16c.97.18,1.36,1.36.7,2.09l-4.51,4.95c-.7.76-1.02,1.8-.88,2.82l.88,6.67c.11.8-.53,1.43-1.25,1.43-.19,0-.39-.04-.57-.14l-5.42-2.79c-.5-.26-1.05-.39-1.6-.39s-1.1.13-1.6.39l-5.42,2.79c-.19.1-.38.14-.57.14-.72,0-1.35-.63-1.25-1.43l.88-6.68c.14-1.02-.19-2.06-.88-2.82l-4.51-4.95c-.66-.73-.27-1.91.7-2.09l6.19-1.16c1.07-.2,1.99-.89,2.48-1.86l2.86-5.68c.23-.46.68-.69,1.12-.69M19,0c-2.5,0-4.75,1.39-5.87,3.62l-2.46,4.88-5.3.99c-2.34.44-4.27,2.12-5.02,4.38-.76,2.26-.23,4.76,1.38,6.52l3.94,4.33-.77,5.84c-.25,1.88.32,3.77,1.57,5.2,1.25,1.43,3.06,2.25,4.95,2.25,1.04,0,2.08-.25,3.01-.73l4.58-2.36,4.58,2.36c.93.48,1.97.73,3.01.73,1.89,0,3.7-.82,4.95-2.25,1.25-1.42,1.82-3.32,1.57-5.2l-.77-5.84,3.94-4.33c1.61-1.76,2.13-4.26,1.38-6.52-.76-2.26-2.68-3.94-5.02-4.38l-5.3-.99-2.46-4.88c-1.12-2.23-3.37-3.62-5.87-3.62h0Z"/>
</svg>