<?xml version="1.0" encoding="UTF-8"?>
<svg id="Layer_1" xmlns="http://www.w3.org/2000/svg" version="1.1" viewBox="0 0 38 38">
  <!-- Generator: Adobe Illustrator 30.1.0, SVG Export Plug-In . SVG Version: 2.1.1 Build 136)  -->
  <path d="M19,3.98c.49,0,.98.25,1.23.76l3.14,6.24c.54,1.07,1.55,1.83,2.72,2.05l6.8,1.27c1.06.2,1.49,1.49.76,2.29l-4.95,5.44c-.76.84-1.12,1.97-.97,3.1l.97,7.33c.12.87-.58,1.57-1.37,1.57-.21,0-.42-.05-.63-.16l-5.95-3.06c-.55-.28-1.15-.43-1.76-.43-.6,0-1.21.14-1.76.43l-5.95,3.06c-.21.11-.42.16-.63.16-.79,0-1.48-.69-1.37-1.57l.97-7.33c.15-1.12-.21-2.26-.97-3.1l-4.95-5.44c-.73-.8-.3-2.09.77-2.29l6.8-1.27c1.18-.22,2.18-.98,2.72-2.05l3.14-6.24c.26-.51.74-.76,1.23-.76M19,0C16.96,0,15.13,1.13,14.21,2.95l-3.11,6.18-6.73,1.26c-1.91.36-3.48,1.72-4.09,3.57-.62,1.84-.19,3.88,1.12,5.32l4.91,5.39-.96,7.27c-.2,1.53.26,3.07,1.28,4.23,1.02,1.16,2.49,1.83,4.03,1.83,0,0,0,0,0,0,.85,0,1.69-.21,2.45-.6l5.88-3.03,5.88,3.03c.76.39,1.61.6,2.45.6,1.54,0,3.01-.67,4.03-1.83,1.02-1.16,1.48-2.7,1.28-4.23l-.96-7.27,4.91-5.39c1.31-1.44,1.74-3.47,1.12-5.32-.62-1.84-2.19-3.21-4.09-3.57l-6.73-1.26-3.11-6.18C22.87,1.13,21.03,0,19,0h0Z"/>
</svg>