<?xml version="1.0" encoding="UTF-8"?>
<svg id="Layer_1" xmlns="http://www.w3.org/2000/svg" version="1.1" viewBox="0 0 106 106">
  <!-- Generator: Adobe Illustrator 30.1.0, SVG Export Plug-In . SVG Version: 2.1.1 Build 136)  -->
  <circle id="Outer" cx="53" cy="53" r="47.45" fill="none" stroke="#000" stroke-width="11.1"/>
  <g>
    <g>
      <rect x="49.65" y="69.79" width="6.63" height="6.63"/>
      <path d="M55.46,70.62v4.98h-4.98v-4.98h4.98M57.11,68.96h-8.29v8.29h8.29v-8.29h0Z"/>
    </g>
    <g>
      <path d="M49.66,62.58l-.02-2.7c0-2.57.96-5.03,2.68-6.93l4.93-5.46c1.21-1.34,1.88-3.07,1.88-4.88,0-2.49-2.04-4.51-4.54-4.51h-3.17c-2.51,0-4.54,2.02-4.54,4.51v.83h-6.68v-.83c0-6.15,5.03-11.15,11.22-11.15h3.17c6.19,0,11.22,5,11.22,11.15,0,3.44-1.27,6.75-3.59,9.31l-4.93,5.46c-.64.71-.98,1.56-.98,2.48l-.03,2.71h-6.62Z"/>
      <path d="M54.58,32.29c5.73,0,10.4,4.63,10.4,10.32,0,3.24-1.2,6.35-3.38,8.76l-4.93,5.46c-.76.84-1.19,1.89-1.19,3.03l-.02,1.88h-4.98l-.02-1.88c0-2.36.88-4.61,2.47-6.36l4.93-5.46c1.35-1.5,2.09-3.42,2.09-5.43,0-2.94-2.41-5.34-5.37-5.34h-3.17c-2.96,0-5.37,2.39-5.37,5.34h-5.02c0-5.69,4.66-10.32,10.4-10.32h3.17M54.58,30.63h-3.17c-6.65,0-12.05,5.37-12.05,11.98v1.66h8.33v-1.66c0-2.03,1.67-3.68,3.72-3.68h3.17c2.05,0,3.72,1.65,3.72,3.68,0,1.6-.59,3.13-1.67,4.32l-4.93,5.46c-1.85,2.05-2.88,4.7-2.89,7.47l.02,1.9v1.64h8.27l.02-1.64.02-1.88c0-.72.27-1.39.76-1.94l4.93-5.47c2.45-2.72,3.8-6.22,3.8-9.87,0-6.6-5.41-11.98-12.05-11.98h0Z"/>
    </g>
  </g>
</svg>