<?xml version="1.0" encoding="UTF-8"?>
<svg id="Layer_1" xmlns="http://www.w3.org/2000/svg" version="1.1" viewBox="0 0 72 72">
  <!-- Generator: Adobe Illustrator 30.1.0, SVG Export Plug-In . SVG Version: 2.1.1 Build 136)  -->
  <g>
    <g>
      <rect x="33.41" y="20.06" width="5.18" height="5.18"/>
      <path d="M37.8,20.85v3.61h-3.61v-3.61h3.61M39.38,19.28h-6.76v6.76h6.76v-6.76h0Z"/>
    </g>
    <g>
      <polygon points="29.8 51.52 29.8 46.33 33.41 46.33 33.41 36.64 29.8 36.64 29.8 31.46 38.59 31.46 38.59 46.33 42.2 46.33 42.2 51.52 29.8 51.52"/>
      <path d="M37.8,32.24v14.88h3.61v3.61h-10.83v-3.61h3.61v-11.27h-3.61v-3.61h7.22M39.38,30.67h-10.37v6.76h3.61v8.12h-3.61v6.76h13.98v-6.76h-3.61v-14.88h0Z"/>
    </g>
  </g>
  <circle id="Outer" cx="36" cy="36" r="30.96" fill="none" stroke="#000" stroke-width="10.08"/>
</svg>