<?xml version="1.0" encoding="UTF-8"?>
<svg id="Layer_1" xmlns="http://www.w3.org/2000/svg" version="1.1" viewBox="0 0 45 45">
  <!-- Generator: Adobe Illustrator 30.1.0, SVG Export Plug-In . SVG Version: 2.1.1 Build 136)  -->
  <path d="M22.5,7.89c.48,0,.95.25,1.2.74l3.06,6.07c.52,1.04,1.5,1.78,2.65,1.99l6.61,1.24c1.03.19,1.45,1.45.74,2.23l-4.82,5.29c-.74.82-1.09,1.92-.94,3.01l.94,7.13c.11.85-.57,1.52-1.33,1.52-.2,0-.41-.05-.61-.15l-5.78-2.98c-.54-.28-1.12-.41-1.71-.41-.59,0-1.17.14-1.71.41l-5.78,2.98c-.2.1-.41.15-.61.15-.76,0-1.44-.67-1.33-1.52l.94-7.13c.14-1.09-.2-2.2-.94-3.01l-4.82-5.29c-.71-.78-.29-2.04.74-2.23l6.61-1.24c1.14-.21,2.12-.95,2.65-1.99l3.06-6.07c.25-.49.72-.74,1.2-.74M22.5,0C18.99,0,15.83,1.95,14.26,5.08l-2.13,4.23-4.59.86c-3.29.62-5.99,2.97-7.05,6.14-1.06,3.17-.32,6.68,1.93,9.16l3.52,3.86-.69,5.22c-.35,2.64.46,5.3,2.21,7.29,1.76,2,4.29,3.15,6.94,3.15,1.46,0,2.92-.36,4.23-1.03l3.88-2,3.88,2c1.3.67,2.77,1.03,4.23,1.03,2.66,0,5.19-1.15,6.94-3.15,1.75-2,2.56-4.65,2.21-7.29l-.69-5.22,3.52-3.86c2.25-2.47,2.99-5.98,1.93-9.15-1.06-3.17-3.76-5.53-7.05-6.14l-4.59-.86-2.13-4.23C29.17,1.95,26.01,0,22.5,0h0Z"/>
</svg>