<?xml version="1.0" encoding="UTF-8"?>
<svg id="Layer_1" xmlns="http://www.w3.org/2000/svg" version="1.1" viewBox="0 0 114 114">
  <!-- Generator: Adobe Illustrator 30.1.0, SVG Export Plug-In . SVG Version: 2.1.1 Build 136)  -->
  <circle id="Outer" cx="57" cy="57" r="47.01" fill="none" stroke="#000" stroke-width="19.99"/>
  <g>
    <g>
      <rect x="53.36" y="71.99" width="7.22" height="7.22"/>
      <path d="M58.98,73.6v4.02h-4.02v-4.02h4.02M62.19,70.39h-10.43v10.43h10.43v-10.43h0Z"/>
    </g>
    <g>
      <path d="M53.38,64.95l-.03-3.11c0-2.32.86-4.52,2.4-6.22l3.98-4.41c.82-.91,1.27-2.08,1.27-3.31,0-1.49-1.22-2.7-2.73-2.7h-2.55c-1.51,0-2.73,1.21-2.73,2.7v1.6h-7.26v-1.6c0-5.48,4.48-9.93,9.99-9.93h2.55c5.51,0,9.99,4.45,9.99,9.93,0,3.01-1.11,5.9-3.14,8.14l-3.98,4.41c-.36.4-.55.86-.55,1.38l-.03,3.12h-7.19Z"/>
      <path d="M58.28,39.58c4.62,0,8.39,3.74,8.39,8.33,0,2.61-.97,5.12-2.72,7.07l-3.98,4.41c-.62.68-.96,1.53-.96,2.45l-.02,1.52h-4.02v-1.52c0-1.9.69-3.72,1.98-5.13l3.98-4.41c1.09-1.21,1.69-2.76,1.69-4.38,0-2.37-1.94-4.3-4.33-4.3h-2.55c-2.39,0-4.33,1.93-4.33,4.3h-4.05c0-4.59,3.76-8.33,8.39-8.33h2.55M58.28,36.38h-2.55c-6.39,0-11.59,5.17-11.59,11.53v3.21h10.46v-3.21c0-.61.51-1.1,1.13-1.1h2.55c.62,0,1.13.49,1.13,1.1,0,.82-.31,1.62-.86,2.23l-3.98,4.41c-1.81,2-2.81,4.58-2.82,7.27v1.56s.04,3.18.04,3.18h10.37l.03-3.17.02-1.52c0-.11.02-.2.13-.33l3.98-4.41c2.29-2.53,3.55-5.81,3.55-9.21,0-6.36-5.2-11.53-11.59-11.53h0Z"/>
    </g>
  </g>
</svg>