<?xml version="1.0" encoding="UTF-8"?>
<svg id="Layer_1" xmlns="http://www.w3.org/2000/svg" version="1.1" viewBox="0 0 23 23">
  <!-- Generator: Adobe Illustrator 30.1.0, SVG Export Plug-In . SVG Version: 2.1.1 Build 136)  -->
  <circle id="Outer" cx="11.5" cy="11.5" r="9.48" fill="none" stroke="#000" stroke-width="4.03"/>
  <g>
    <g>
      <rect x="10.77" y="14.52" width="1.46" height="1.46"/>
      <path d="M11.9,14.85v.81h-.81v-.81h.81M12.55,14.2h-2.1v2.1h2.1v-2.1h0Z"/>
    </g>
    <g>
      <path d="M10.77,13.1v-.63c0-.47.17-.91.48-1.26l.8-.89c.17-.18.26-.42.26-.67,0-.3-.25-.55-.55-.55h-.52c-.3,0-.55.24-.55.55v.32h-1.46v-.32c0-1.1.9-2,2.02-2h.52c1.11,0,2.01.9,2.01,2,0,.61-.22,1.19-.63,1.64l-.8.89c-.07.08-.11.17-.11.28v.63h-1.46Z"/>
      <path d="M11.76,7.99c.93,0,1.69.75,1.69,1.68,0,.53-.2,1.03-.55,1.43l-.8.89c-.12.14-.19.31-.19.49v.31h-.81v-.31c0-.38.14-.75.4-1.04l.8-.89c.22-.24.34-.56.34-.88,0-.48-.39-.87-.87-.87h-.52c-.48,0-.87.39-.87.87h-.82c0-.93.76-1.68,1.69-1.68h.52M11.76,7.34h-.52c-1.29,0-2.34,1.04-2.34,2.33v.65h2.11v-.65c0-.12.1-.22.23-.22h.52c.13,0,.23.1.23.22,0,.17-.06.33-.17.45l-.8.89c-.36.4-.57.92-.57,1.47v.31s0,.64,0,.64h2.09v-.64s0-.31,0-.31c0-.02,0-.04.03-.07l.8-.89c.46-.51.72-1.17.72-1.86,0-1.28-1.05-2.33-2.34-2.33h0Z"/>
    </g>
  </g>
</svg>