<?xml version="1.0" encoding="UTF-8"?>
<svg id="Layer_1" xmlns="http://www.w3.org/2000/svg" version="1.1" viewBox="0 0 23 23">
  <!-- Generator: Adobe Illustrator 30.1.0, SVG Export Plug-In . SVG Version: 2.1.1 Build 136)  -->
  <circle id="Outer" cx="11.5" cy="11.5" r="10.3" fill="none" stroke="#000" stroke-width="2.41"/>
  <g>
    <g>
      <rect x="10.77" y="15.14" width="1.44" height="1.44"/>
      <path d="M12.03,15.32v1.08h-1.08v-1.08h1.08M12.39,14.96h-1.8v1.8h1.8v-1.8h0Z"/>
    </g>
    <g>
      <path d="M10.78,13.58v-.59c0-.56.2-1.09.58-1.5l1.07-1.19c.26-.29.41-.67.41-1.06,0-.54-.44-.98-.99-.98h-.69c-.54,0-.99.44-.99.98v.18h-1.45v-.18c0-1.33,1.09-2.42,2.44-2.42h.69c1.34,0,2.43,1.08,2.43,2.42,0,.75-.28,1.46-.78,2.02l-1.07,1.19c-.14.15-.21.34-.21.54v.59h-1.44Z"/>
      <path d="M11.84,7.01c1.24,0,2.26,1,2.26,2.24,0,.7-.26,1.38-.73,1.9l-1.07,1.19c-.17.18-.26.41-.26.66v.41h-1.08v-.41c0-.51.19-1,.53-1.38l1.07-1.19c.29-.32.45-.74.45-1.18,0-.64-.52-1.16-1.17-1.16h-.69c-.64,0-1.17.52-1.17,1.16h-1.09c0-1.23,1.01-2.24,2.26-2.24h.69M11.84,6.65h-.69c-1.44,0-2.61,1.17-2.61,2.6v.36h1.81v-.36c0-.44.36-.8.81-.8h.69c.44,0,.81.36.81.8,0,.35-.13.68-.36.94l-1.07,1.19c-.4.45-.63,1.02-.63,1.62v.41s0,.36,0,.36h1.79v-.36s0-.41,0-.41c0-.16.06-.3.17-.42l1.07-1.19c.53-.59.83-1.35.83-2.14,0-1.43-1.17-2.6-2.61-2.6h0Z"/>
    </g>
  </g>
</svg>