<?xml version="1.0" encoding="UTF-8"?>
<svg id="Layer_1" xmlns="http://www.w3.org/2000/svg" version="1.1" viewBox="0 0 21 21">
  <!-- Generator: Adobe Illustrator 30.1.0, SVG Export Plug-In . SVG Version: 2.1.1 Build 136)  -->
  <path d="M10.5,3.68c.22,0,.44.11.56.34l1.43,2.83c.24.49.7.83,1.24.93l3.09.58c.48.09.68.68.35,1.04l-2.25,2.47c-.35.38-.51.9-.44,1.41l.44,3.33c.05.4-.26.71-.62.71-.09,0-.19-.02-.29-.07l-2.7-1.39c-.25-.13-.52-.19-.8-.19s-.55.06-.8.19l-2.7,1.39c-.09.05-.19.07-.29.07-.36,0-.67-.31-.62-.71l.44-3.33c.07-.51-.09-1.02-.44-1.4l-2.25-2.47c-.33-.36-.14-.95.35-1.04l3.09-.58c.53-.1.99-.44,1.23-.93l1.43-2.83c.12-.23.34-.34.56-.34M10.5,0C8.86,0,7.39.91,6.65,2.37l-1,1.98-2.14.4c-1.53.29-2.8,1.39-3.29,2.87-.5,1.48-.15,3.12.9,4.27l1.64,1.8-.32,2.44c-.16,1.23.21,2.47,1.03,3.4.82.93,2,1.47,3.24,1.47.68,0,1.36-.17,1.97-.48l1.81-.93,1.81.93c.61.31,1.29.48,1.97.48,1.24,0,2.42-.54,3.24-1.47.82-.93,1.19-2.17,1.03-3.4l-.32-2.44,1.64-1.8c1.05-1.15,1.4-2.79.9-4.27-.5-1.48-1.76-2.58-3.29-2.87l-2.14-.4-1-1.98C13.61.91,12.14,0,10.5,0h0Z"/>
</svg>