<?xml version="1.0" encoding="UTF-8"?>
<svg id="Layer_1" xmlns="http://www.w3.org/2000/svg" version="1.1" viewBox="0 0 21 21">
  <!-- Generator: Adobe Illustrator 30.1.0, SVG Export Plug-In . SVG Version: 2.1.1 Build 136)  -->
  <path d="M10.5,2.2c.27,0,.54.14.68.42l1.74,3.45c.3.59.85,1.01,1.5,1.13l3.76.7c.59.11.83.82.42,1.27l-2.74,3c-.42.46-.62,1.09-.54,1.71l.53,4.05c.06.48-.32.87-.76.87-.12,0-.23-.03-.35-.09l-3.29-1.69c-.3-.16-.64-.24-.97-.24-.33,0-.67.08-.97.24l-3.29,1.69c-.11.06-.23.09-.35.09-.43,0-.82-.38-.76-.87l.53-4.05c.08-.62-.11-1.25-.54-1.71l-2.74-3c-.4-.44-.16-1.16.42-1.27l3.76-.7c.65-.12,1.21-.54,1.5-1.13l1.74-3.45c.14-.28.41-.42.68-.42M10.5,0C9.38,0,8.36.62,7.86,1.63l-1.72,3.41-3.72.7c-1.05.2-1.92.95-2.26,1.97-.34,1.02-.1,2.14.62,2.94l2.71,2.98-.53,4.02c-.11.85.15,1.7.71,2.34.56.64,1.38,1.01,2.23,1.01.47,0,.94-.11,1.36-.33l3.25-1.67,3.25,1.67c.42.22.89.33,1.36.33.85,0,1.66-.37,2.23-1.01.56-.64.82-1.49.71-2.34l-.53-4.02,2.72-2.98c.72-.79.96-1.92.62-2.94-.34-1.02-1.21-1.77-2.26-1.97l-3.72-.7-1.72-3.41C12.64.62,11.62,0,10.5,0h0Z"/>
</svg>