<?xml version="1.0" encoding="UTF-8"?>
<svg id="Layer_1" xmlns="http://www.w3.org/2000/svg" version="1.1" viewBox="0 0 21 21">
  <!-- Generator: Adobe Illustrator 30.1.0, SVG Export Plug-In . SVG Version: 2.1.1 Build 136)  -->
  <path d="M10.5,2.94c.25,0,.49.13.62.38l1.58,3.14c.27.54.78.92,1.37,1.03l3.42.64c.53.1.75.75.38,1.15l-2.49,2.74c-.38.42-.56.99-.49,1.56l.49,3.69c.06.44-.29.79-.69.79-.1,0-.21-.02-.32-.08l-2.99-1.54c-.28-.14-.58-.21-.88-.21s-.61.07-.88.21l-2.99,1.54c-.1.05-.21.08-.32.08-.4,0-.75-.35-.69-.79l.49-3.69c.07-.57-.1-1.14-.49-1.56l-2.49-2.74c-.37-.4-.15-1.05.39-1.15l3.42-.64c.59-.11,1.1-.49,1.37-1.03l1.58-3.14c.13-.25.37-.38.62-.38M10.5,0C9.12,0,7.88.77,7.25,2l-1.36,2.7-2.93.55c-1.29.24-2.36,1.17-2.78,2.42-.42,1.25-.13,2.63.76,3.61l2.18,2.39-.43,3.23c-.14,1.04.18,2.09.87,2.87.69.79,1.69,1.24,2.73,1.24.57,0,1.15-.14,1.66-.4l2.53-1.3,2.53,1.3c.51.26,1.09.4,1.66.4,1.05,0,2.04-.45,2.73-1.24.69-.79,1.01-1.83.87-2.87l-.43-3.23,2.18-2.39c.89-.97,1.18-2.36.76-3.6-.42-1.25-1.48-2.18-2.78-2.42l-2.93-.55-1.36-2.7C13.12.77,11.88,0,10.5,0h0Z"/>
</svg>