<?xml version="1.0" encoding="UTF-8"?>
<svg id="Layer_1" xmlns="http://www.w3.org/2000/svg" version="1.1" viewBox="0 0 117 117">
  <!-- Generator: Adobe Illustrator 30.1.0, SVG Export Plug-In . SVG Version: 2.1.1 Build 136)  -->
  <path d="M58.5,12.25c1.5,0,3.01.78,3.79,2.34l9.68,19.21c1.66,3.3,4.76,5.63,8.38,6.31l20.93,3.92c3.27.61,4.6,4.59,2.36,7.06l-15.25,16.74c-2.35,2.58-3.45,6.07-2.99,9.54l2.98,22.57c.36,2.69-1.79,4.82-4.21,4.82-.64,0-1.3-.15-1.94-.48l-18.31-9.43c-1.7-.87-3.55-1.31-5.41-1.31-1.86,0-3.71.44-5.41,1.31l-18.31,9.43c-.64.33-1.3.48-1.94.48-2.42,0-4.57-2.13-4.21-4.82l2.98-22.57c.46-3.46-.64-6.95-2.99-9.53l-15.25-16.74c-2.25-2.47-.92-6.45,2.36-7.06l20.93-3.92c3.62-.68,6.72-3.01,8.37-6.3l9.68-19.21c.79-1.56,2.29-2.34,3.79-2.34M58.5,0c-6.27,0-11.91,3.48-14.73,9.08l-9.58,19.03-20.72,3.88c-5.88,1.1-10.71,5.31-12.61,10.98-1.9,5.67-.58,11.95,3.45,16.37l15.13,16.6-2.95,22.39c-.62,4.72.81,9.47,3.94,13.03,3.14,3.59,7.67,5.64,12.42,5.64,2.6,0,5.22-.64,7.55-1.84l18.11-9.33,18.11,9.33c2.34,1.2,4.95,1.84,7.55,1.84,4.75,0,9.27-2.06,12.41-5.64,3.13-3.56,4.56-8.32,3.94-13.03l-2.95-22.39,15.13-16.6c4.03-4.42,5.35-10.69,3.45-16.37-1.9-5.67-6.73-9.88-12.6-10.98l-20.72-3.88-9.58-19.03c-2.82-5.6-8.47-9.08-14.73-9.08h0Z"/>
</svg>