<?xml version="1.0" encoding="UTF-8"?>
<svg id="Layer_1" xmlns="http://www.w3.org/2000/svg" version="1.1" viewBox="0 0 117 117">
  <!-- Generator: Adobe Illustrator 30.1.0, SVG Export Plug-In . SVG Version: 2.1.1 Build 136)  -->
  <path d="M58.5,20.51c1.24,0,2.47.64,3.12,1.92l7.95,15.78c1.36,2.71,3.91,4.62,6.88,5.18l17.19,3.22c2.69.5,3.78,3.77,1.93,5.8l-12.53,13.75c-1.93,2.12-2.83,4.99-2.46,7.84l2.44,18.53c.29,2.21-1.47,3.96-3.46,3.96-.53,0-1.07-.12-1.59-.39l-15.04-7.75c-1.39-.72-2.92-1.08-4.44-1.08s-3.05.36-4.44,1.08l-15.04,7.75c-.52.27-1.07.39-1.59.39-1.99,0-3.75-1.75-3.46-3.96l2.45-18.54c.38-2.84-.52-5.71-2.45-7.83l-12.53-13.75c-1.85-2.03-.75-5.29,1.94-5.8l17.19-3.22c2.97-.56,5.52-2.47,6.88-5.18l7.95-15.78c.65-1.28,1.88-1.92,3.12-1.92M58.5,0C49.38,0,41.17,5.06,37.06,13.2l-5.55,11.01-11.93,2.24c-8.55,1.6-15.57,7.72-18.34,15.97-2.76,8.25-.84,17.37,5.02,23.8l9.15,10.04-1.79,13.58c-.9,6.86,1.19,13.77,5.74,18.96,4.57,5.21,11.15,8.2,18.06,8.2,3.8,0,7.6-.92,10.99-2.67l10.09-5.2,10.09,5.2c3.39,1.75,7.19,2.67,10.99,2.67,6.91,0,13.49-2.99,18.06-8.2,4.55-5.19,6.64-12.1,5.74-18.96l-1.79-13.58,9.15-10.05c5.86-6.43,7.78-15.55,5.02-23.8-2.76-8.25-9.79-14.37-18.34-15.97l-11.94-2.24-5.55-11.01C75.83,5.06,67.62,0,58.5,0h0Z"/>
</svg>