<?xml version="1.0" encoding="UTF-8"?>
<svg id="Layer_1" xmlns="http://www.w3.org/2000/svg" version="1.1" viewBox="0 0 99 99">
  <!-- Generator: Adobe Illustrator 30.1.0, SVG Export Plug-In . SVG Version: 2.1.1 Build 136)  -->
  <circle id="Outer" cx="49.5" cy="49.5" r="44.32" fill="none" stroke="#000" stroke-width="10.36"/>
  <g>
    <g>
      <rect x="46.37" y="65.18" width="6.2" height="6.2"/>
      <path d="M51.8,65.96v4.65h-4.65v-4.65h4.65M53.34,64.41h-7.74v7.74h7.74v-7.74h0Z"/>
    </g>
    <g>
      <path d="M46.38,58.44l-.02-2.52c0-2.4.9-4.69,2.5-6.47l4.6-5.1c1.13-1.25,1.76-2.87,1.76-4.55,0-2.32-1.9-4.21-4.25-4.21h-2.96c-2.34,0-4.24,1.89-4.24,4.21v.77h-6.24v-.77c0-5.74,4.7-10.41,10.48-10.41h2.96c5.78,0,10.48,4.67,10.48,10.41,0,3.21-1.19,6.3-3.35,8.7l-4.61,5.1c-.59.66-.91,1.46-.91,2.32l-.03,2.53h-6.18Z"/>
      <path d="M50.98,30.16c5.35,0,9.71,4.33,9.71,9.64,0,3.02-1.12,5.93-3.15,8.18l-4.61,5.1c-.71.79-1.11,1.77-1.11,2.83l-.02,1.76h-4.65l-.02-1.76c0-2.2.82-4.3,2.3-5.94l4.6-5.1c1.26-1.4,1.95-3.2,1.95-5.07,0-2.75-2.25-4.98-5.02-4.98h-2.96c-2.77,0-5.02,2.24-5.02,4.98h-4.69c0-5.31,4.35-9.64,9.71-9.64h2.96M50.98,28.61h-2.96c-6.21,0-11.26,5.02-11.26,11.19v1.55h7.78v-1.55c0-1.89,1.56-3.44,3.47-3.44h2.96c1.91,0,3.47,1.54,3.47,3.44,0,1.49-.55,2.92-1.56,4.03l-4.6,5.1c-1.73,1.92-2.69,4.39-2.7,6.97l.02,1.78v1.53h7.73l.02-1.53.02-1.76c0-.67.25-1.3.71-1.81l4.61-5.1c2.29-2.54,3.55-5.81,3.55-9.22,0-6.17-5.05-11.19-11.26-11.19h0Z"/>
    </g>
  </g>
</svg>