<?xml version="1.0" encoding="UTF-8"?>
<svg id="Layer_1" xmlns="http://www.w3.org/2000/svg" version="1.1" viewBox="0 0 99 99">
  <!-- Generator: Adobe Illustrator 30.1.0, SVG Export Plug-In . SVG Version: 2.1.1 Build 136)  -->
  <circle id="Outer" cx="49.5" cy="49.5" r="40.82" fill="none" stroke="#000" stroke-width="17.36"/>
  <g>
    <g>
      <rect x="46.34" y="62.52" width="6.27" height="6.27"/>
      <path d="M51.22,63.91v3.49h-3.49v-3.49h3.49M54,61.13h-9.06v9.06h9.06v-9.06h0Z"/>
    </g>
    <g>
      <path d="M46.36,56.41l-.02-2.7c0-2.01.75-3.92,2.09-5.4l3.45-3.83c.71-.79,1.11-1.81,1.11-2.87,0-1.29-1.06-2.35-2.37-2.35h-2.22c-1.31,0-2.37,1.05-2.37,2.35v1.39h-6.3v-1.39c0-4.75,3.89-8.62,8.67-8.62h2.22c4.78,0,8.67,3.87,8.67,8.62,0,2.61-.97,5.12-2.72,7.07l-3.46,3.83c-.31.35-.47.75-.47,1.19l-.03,2.71h-6.25Z"/>
      <path d="M50.61,34.38c4.02,0,7.28,3.24,7.28,7.23,0,2.27-.84,4.45-2.36,6.14l-3.45,3.83c-.54.59-.83,1.33-.83,2.12v1.32h-3.5v-1.32c0-1.65.6-3.23,1.72-4.46l3.45-3.83c.95-1.05,1.47-2.4,1.47-3.8,0-2.06-1.69-3.74-3.76-3.74h-2.22c-2.08,0-3.76,1.68-3.76,3.74h-3.52c0-3.99,3.27-7.23,7.28-7.23h2.22M50.61,31.59h-2.22c-5.55,0-10.07,4.49-10.07,10.02v2.78h9.09v-2.78c0-.53.44-.95.98-.95h2.22c.54,0,.98.43.98.95,0,.72-.27,1.4-.75,1.94l-3.45,3.83c-1.57,1.73-2.44,3.98-2.45,6.31v1.35s.04,2.76.04,2.76h9l.03-2.76v-1.32c.01-.09.03-.17.13-.29l3.46-3.83c1.99-2.2,3.08-5.04,3.08-8,0-5.52-4.52-10.02-10.07-10.02h0Z"/>
    </g>
  </g>
</svg>