<?xml version="1.0" encoding="UTF-8"?>
<svg id="Layer_1" xmlns="http://www.w3.org/2000/svg" version="1.1" viewBox="0 0 99 99">
  <!-- Generator: Adobe Illustrator 30.1.0, SVG Export Plug-In . SVG Version: 2.1.1 Build 136)  -->
  <circle id="Outer" cx="49.5" cy="49.5" r="42.57" fill="none" stroke="#000" stroke-width="13.86"/>
  <g>
    <g>
      <rect x="46.36" y="63.86" width="6.22" height="6.22"/>
      <path d="M51.5,64.94v4.05h-4.05v-4.05h4.05M53.67,62.78h-8.39v8.39h8.39v-8.39h0Z"/>
    </g>
    <g>
      <path d="M46.38,57.38l-.02-2.61c0-2.2.82-4.3,2.29-5.92l4.01-4.45c.92-1.02,1.42-2.33,1.42-3.7,0-1.8-1.48-3.26-3.29-3.26h-2.58c-1.82,0-3.29,1.46-3.29,3.26v1.08h-6.26v-1.08c0-5.23,4.28-9.49,9.55-9.49h2.58c5.26,0,9.55,4.26,9.55,9.49,0,2.9-1.08,5.7-3.03,7.86l-4.02,4.45c-.45.5-.69,1.1-.69,1.75l-.03,2.61h-6.2Z"/>
      <path d="M50.79,32.31c4.67,0,8.47,3.77,8.47,8.41,0,2.64-.98,5.17-2.75,7.13l-4.02,4.45c-.62.69-.97,1.54-.97,2.47l-.02,1.53h-4.05v-1.53c0-1.92.7-3.75,1.99-5.18l4.02-4.45c1.1-1.22,1.7-2.79,1.7-4.42,0-2.4-1.96-4.35-4.38-4.35h-2.58c-2.41,0-4.38,1.95-4.38,4.35h-4.09c0-4.63,3.8-8.41,8.47-8.41h2.58M50.79,30.14h-2.58c-5.86,0-10.63,4.74-10.63,10.57v2.17h8.42v-2.17c0-1.2.99-2.18,2.21-2.18h2.58c1.22,0,2.21.98,2.21,2.18,0,1.1-.41,2.15-1.15,2.97l-4.02,4.45c-1.65,1.82-2.56,4.17-2.57,6.63v1.56s.03,2.15.03,2.15h8.34l.02-2.14.02-1.53c0-.39.14-.74.41-1.04l4.02-4.45c2.13-2.36,3.31-5.41,3.31-8.58,0-5.83-4.77-10.57-10.63-10.57h0Z"/>
    </g>
  </g>
</svg>