<?xml version="1.0" encoding="UTF-8"?>
<svg id="Layer_1" xmlns="http://www.w3.org/2000/svg" version="1.1" viewBox="0 0 102 102">
  <!-- Generator: Adobe Illustrator 30.1.0, SVG Export Plug-In . SVG Version: 2.1.1 Build 136)  -->
  <g>
    <g>
      <rect x="47.33" y="28.42" width="7.34" height="7.34"/>
      <path d="M53.56,29.54v5.11h-5.11v-5.11h5.11M55.79,27.31h-9.58v9.58h9.58v-9.58h0Z"/>
    </g>
    <g>
      <polygon points="42.22 72.98 42.22 65.64 47.33 65.64 47.33 51.91 42.22 51.91 42.22 44.56 54.67 44.56 54.67 65.64 59.78 65.64 59.78 72.98 42.22 72.98"/>
      <path d="M53.56,45.68v21.07h5.11v5.11h-15.34v-5.11h5.11v-15.96h-5.11v-5.11h10.23M55.79,43.45h-14.69v9.58h5.11v11.5h-5.11v9.58h19.8v-9.58h-5.11v-21.07h0Z"/>
    </g>
  </g>
  <circle id="Outer" cx="51" cy="51" r="43.86" fill="none" stroke="#000" stroke-width="14.28"/>
</svg>