<?xml version="1.0" encoding="UTF-8"?>
<svg id="Layer_1" xmlns="http://www.w3.org/2000/svg" version="1.1" viewBox="0 0 25 25">
  <!-- Generator: Adobe Illustrator 30.1.0, SVG Export Plug-In . SVG Version: 2.1.1 Build 136)  -->
  <circle id="Outer" cx="12.5" cy="12.5" r="10.31" fill="none" stroke="#000" stroke-width="4.38"/>
  <g>
    <g>
      <rect x="11.7" y="15.79" width="1.58" height="1.58"/>
      <path d="M12.93,16.14v.88h-.88v-.88h.88M13.64,15.44h-2.29v2.29h2.29v-2.29h0Z"/>
    </g>
    <g>
      <path d="M11.71,14.24v-.68c0-.51.18-.99.52-1.36l.87-.97c.18-.2.28-.46.28-.73,0-.33-.27-.59-.6-.59h-.56c-.33,0-.6.27-.6.59v.35h-1.59v-.35c0-1.2.98-2.18,2.19-2.18h.56c1.21,0,2.19.98,2.19,2.18,0,.66-.24,1.29-.69,1.79l-.87.97c-.08.09-.12.19-.12.3v.68h-1.58Z"/>
      <path d="M12.78,8.68c1.01,0,1.84.82,1.84,1.83,0,.57-.21,1.12-.6,1.55l-.87.97c-.14.15-.21.34-.21.54v.33h-.88v-.33c0-.42.15-.82.43-1.13l.87-.97c.24-.26.37-.61.37-.96,0-.52-.43-.94-.95-.94h-.56c-.52,0-.95.42-.95.94h-.89c0-1.01.82-1.83,1.84-1.83h.56M12.78,7.98h-.56c-1.4,0-2.54,1.13-2.54,2.53v.7h2.29v-.7c0-.13.11-.24.25-.24h.56c.14,0,.25.11.25.24,0,.18-.07.35-.19.49l-.87.97c-.4.44-.62,1-.62,1.59v.34s0,.7,0,.7h2.27v-.7s.01-.33.01-.33c0-.02,0-.04.03-.07l.87-.97c.5-.56.78-1.27.78-2.02,0-1.39-1.14-2.53-2.54-2.53h0Z"/>
    </g>
  </g>
</svg>