<?xml version="1.0" encoding="UTF-8"?>
<svg id="Layer_1" xmlns="http://www.w3.org/2000/svg" version="1.1" viewBox="0 0 25 25">
  <!-- Generator: Adobe Illustrator 30.1.0, SVG Export Plug-In . SVG Version: 2.1.1 Build 136)  -->
  <circle id="Outer" cx="12.5" cy="12.5" r="10.75" fill="none" stroke="#000" stroke-width="3.5"/>
  <g>
    <g>
      <rect x="11.71" y="16.13" width="1.57" height="1.57"/>
      <path d="M13.01,16.4v1.02h-1.02v-1.02h1.02M13.55,15.85h-2.12v2.12h2.12v-2.12h0Z"/>
    </g>
    <g>
      <path d="M11.71,14.49v-.66c0-.55.2-1.08.57-1.49l1.01-1.12c.23-.26.36-.59.36-.93,0-.45-.37-.82-.83-.82h-.65c-.46,0-.83.37-.83.82v.27h-1.58v-.27c0-1.32,1.08-2.4,2.41-2.4h.65c1.33,0,2.41,1.07,2.41,2.4,0,.73-.27,1.44-.76,1.98l-1.01,1.12c-.11.12-.17.28-.17.44v.66h-1.57Z"/>
      <path d="M12.83,8.16c1.18,0,2.14.95,2.14,2.12,0,.67-.25,1.31-.69,1.8l-1.01,1.12c-.16.17-.24.39-.24.62v.39h-1.03v-.39c0-.49.18-.95.5-1.31l1.01-1.12c.28-.31.43-.7.43-1.12,0-.6-.5-1.1-1.1-1.1h-.65c-.61,0-1.1.49-1.1,1.1h-1.03c0-1.17.96-2.12,2.14-2.12h.65M12.83,7.61h-.65c-1.48,0-2.68,1.2-2.68,2.67v.55h2.13v-.55c0-.3.25-.55.56-.55h.65c.31,0,.56.25.56.55,0,.28-.1.54-.29.75l-1.01,1.12c-.42.46-.65,1.05-.65,1.67v.39s0,.54,0,.54h2.11v-.54s0-.39,0-.39c0-.1.04-.19.1-.26l1.01-1.12c.54-.6.84-1.37.84-2.17,0-1.47-1.2-2.67-2.68-2.67h0Z"/>
    </g>
  </g>
</svg>