<?xml version="1.0" encoding="UTF-8"?>
<svg id="Layer_1" xmlns="http://www.w3.org/2000/svg" version="1.1" viewBox="0 0 97 97">
  <!-- Generator: Adobe Illustrator 30.1.0, SVG Export Plug-In . SVG Version: 2.1.1 Build 136)  -->
  <circle id="Outer" cx="48.5" cy="48.5" r="40" fill="none" stroke="#000" stroke-width="17.01"/>
  <g>
    <g>
      <rect x="45.4" y="61.26" width="6.15" height="6.15"/>
      <path d="M50.18,62.62v3.42h-3.42v-3.42h3.42M52.91,59.89h-8.87v8.87h8.87v-8.87h0Z"/>
    </g>
    <g>
      <path d="M45.42,55.27l-.02-2.65c0-1.97.73-3.84,2.04-5.29l3.38-3.75c.7-.78,1.09-1.77,1.09-2.81,0-1.27-1.04-2.3-2.32-2.3h-2.17c-1.28,0-2.32,1.03-2.32,2.3v1.36h-6.18v-1.36c0-4.66,3.81-8.45,8.5-8.45h2.17c4.69,0,8.5,3.79,8.5,8.45,0,2.56-.95,5.02-2.67,6.93l-3.38,3.75c-.31.34-.46.73-.47,1.17l-.03,2.65h-6.12Z"/>
      <path d="M49.59,33.68c3.93,0,7.14,3.18,7.14,7.09,0,2.22-.82,4.36-2.32,6.01l-3.39,3.75c-.52.58-.81,1.3-.82,2.08v1.29h-3.43v-1.29c0-1.62.59-3.16,1.68-4.37l3.38-3.75c.93-1.03,1.44-2.35,1.44-3.73,0-2.02-1.65-3.66-3.69-3.66h-2.17c-2.03,0-3.69,1.64-3.69,3.66h-3.45c0-3.91,3.2-7.09,7.14-7.09h2.17M49.59,30.95h-2.17c-5.44,0-9.86,4.4-9.86,9.81v2.73h8.9v-2.73c0-.51.43-.93.96-.93h2.17c.53,0,.96.42.96.93,0,.7-.26,1.38-.73,1.9l-3.38,3.75c-1.54,1.7-2.39,3.9-2.4,6.19v1.33s.04,2.7.04,2.7h8.82l.03-2.7v-1.29c.01-.09.03-.17.13-.28l3.39-3.75c1.95-2.16,3.02-4.94,3.02-7.84,0-5.41-4.42-9.81-9.86-9.81h0Z"/>
    </g>
  </g>
</svg>