<?xml version="1.0" encoding="UTF-8"?>
<svg id="Layer_1" xmlns="http://www.w3.org/2000/svg" version="1.1" viewBox="0 0 53 53">
  <!-- Generator: Adobe Illustrator 30.1.0, SVG Export Plug-In . SVG Version: 2.1.1 Build 136)  -->
  <path d="M26.5,9.29c.56,0,1.12.29,1.41.87l3.6,7.15c.62,1.23,1.77,2.09,3.12,2.35l7.79,1.46c1.22.23,1.71,1.71.88,2.63l-5.67,6.23c-.88.96-1.28,2.26-1.11,3.55l1.11,8.4c.13,1-.67,1.79-1.57,1.79-.24,0-.48-.06-.72-.18l-6.81-3.51c-.63-.33-1.32-.49-2.01-.49-.69,0-1.38.16-2.01.49l-6.81,3.51c-.24.12-.48.18-.72.18-.9,0-1.7-.79-1.57-1.8l1.11-8.4c.17-1.29-.24-2.59-1.11-3.55l-5.68-6.23c-.84-.92-.34-2.4.88-2.63l7.79-1.46c1.35-.25,2.5-1.12,3.12-2.35l3.6-7.15c.29-.58.85-.87,1.41-.87M26.5,0C22.37,0,18.65,2.29,16.79,5.98l-2.51,4.99-5.41,1.01c-3.87.73-7.06,3.5-8.31,7.23-1.25,3.74-.38,7.87,2.27,10.78l4.15,4.55-.81,6.15c-.41,3.11.54,6.24,2.6,8.59,2.07,2.36,5.05,3.71,8.18,3.71,1.72,0,3.44-.42,4.98-1.21l4.57-2.35,4.57,2.35c1.54.79,3.26,1.21,4.98,1.21,3.13,0,6.11-1.35,8.18-3.71,2.06-2.35,3.01-5.48,2.6-8.59l-.81-6.15,4.15-4.55c2.65-2.91,3.53-7.04,2.27-10.78-1.25-3.74-4.43-6.51-8.31-7.23l-5.41-1.01-2.51-4.99C34.35,2.29,30.63,0,26.5,0h0Z"/>
</svg>