<?xml version="1.0" encoding="UTF-8"?>
<svg id="Layer_1" xmlns="http://www.w3.org/2000/svg" version="1.1" viewBox="0 0 53 53">
  <!-- Generator: Adobe Illustrator 30.1.0, SVG Export Plug-In . SVG Version: 2.1.1 Build 136)  -->
  <path d="M26.5,7.42c.62,0,1.24.32,1.56.97l3.99,7.92c.68,1.36,1.96,2.32,3.46,2.6l8.64,1.62c1.35.25,1.9,1.89.97,2.91l-6.29,6.9c-.97,1.07-1.42,2.51-1.23,3.94l1.23,9.31c.15,1.11-.74,1.99-1.74,1.99-.26,0-.54-.06-.8-.2l-7.55-3.89c-.7-.36-1.47-.54-2.23-.54s-1.53.18-2.23.54l-7.55,3.89c-.26.14-.54.2-.8.2-1,0-1.88-.88-1.74-1.99l1.23-9.31c.19-1.43-.26-2.87-1.23-3.93l-6.29-6.9c-.93-1.02-.38-2.66.97-2.91l8.63-1.62c1.49-.28,2.77-1.24,3.45-2.6l3.99-7.92c.32-.64.94-.97,1.56-.97M26.5,0C23.02,0,19.88,1.93,18.31,5.05l-3.43,6.8-7.4,1.39c-3.27.61-5.95,2.95-7.01,6.1-1.06,3.15-.32,6.64,1.92,9.1l5.5,6.03-1.07,8.15c-.35,2.62.45,5.26,2.19,7.25,1.75,1.99,4.26,3.13,6.9,3.13,1.45,0,2.9-.35,4.2-1.02l6.39-3.29,6.39,3.29c1.3.67,2.75,1.02,4.2,1.02,2.64,0,5.16-1.14,6.9-3.13,1.74-1.98,2.54-4.62,2.19-7.25l-1.07-8.15,5.5-6.04c2.24-2.46,2.98-5.94,1.92-9.1-1.06-3.15-3.74-5.49-7.01-6.1l-7.4-1.39-3.43-6.8C33.12,1.93,29.98,0,26.5,0h0Z"/>
</svg>