<?xml version="1.0" encoding="UTF-8"?>
<svg id="Layer_1" xmlns="http://www.w3.org/2000/svg" version="1.1" viewBox="0 0 109 109">
  <!-- Generator: Adobe Illustrator 30.1.0, SVG Export Plug-In . SVG Version: 2.1.1 Build 136)  -->
  <g>
    <g>
      <rect x="50.51" y="31.76" width="7.98" height="7.98"/>
      <path d="M56.96,33.29v4.91h-4.91v-4.91h4.91M60.02,30.22h-11.04v11.04h11.04v-11.04h0Z"/>
    </g>
    <g>
      <polygon points="45.6 76.32 45.6 68.34 50.51 68.34 50.51 56.08 45.6 56.08 45.6 48.1 58.49 48.1 58.49 68.34 63.4 68.34 63.4 76.32 45.6 76.32"/>
      <path d="M56.96,49.63v20.24h4.91v4.91h-14.73v-4.91h4.91v-15.33h-4.91v-4.91h9.82M60.02,46.57h-15.95v11.04h4.91v9.2h-4.91v11.04h20.86v-11.04h-4.91v-20.24h0Z"/>
    </g>
  </g>
  <circle id="Outer" cx="54.5" cy="54.5" r="44.95" fill="none" stroke="#000" stroke-width="19.11"/>
</svg>