<?xml version="1.0" encoding="UTF-8"?>
<svg id="Layer_1" xmlns="http://www.w3.org/2000/svg" version="1.1" viewBox="0 0 109 109">
  <!-- Generator: Adobe Illustrator 30.1.0, SVG Export Plug-In . SVG Version: 2.1.1 Build 136)  -->
  <g>
    <g>
      <rect x="50.58" y="30.38" width="7.85" height="7.85"/>
      <path d="M57.23,31.57v5.46h-5.46v-5.46h5.46M59.62,29.18h-10.23v10.23h10.23v-10.23h0Z"/>
    </g>
    <g>
      <polygon points="45.11 77.99 45.11 70.14 50.58 70.14 50.58 55.47 45.11 55.47 45.11 47.62 58.42 47.62 58.42 70.14 63.89 70.14 63.89 77.99 45.11 77.99"/>
      <path d="M57.23,48.81v22.52h5.46v5.46h-16.39v-5.46h5.46v-17.06h-5.46v-5.46h10.93M59.62,46.43h-15.7v10.23h5.46v12.29h-5.46v10.23h21.16v-10.23h-5.46v-22.52h0Z"/>
    </g>
  </g>
  <circle id="Outer" cx="54.5" cy="54.5" r="46.87" fill="none" stroke="#000" stroke-width="15.26"/>
</svg>