<?xml version="1.0" encoding="UTF-8"?>
<svg id="Layer_1" xmlns="http://www.w3.org/2000/svg" version="1.1" viewBox="0 0 109 109">
  <!-- Generator: Adobe Illustrator 30.1.0, SVG Export Plug-In . SVG Version: 2.1.1 Build 136)  -->
  <g>
    <g>
      <rect x="50.64" y="28.99" width="7.73" height="7.73"/>
      <path d="M57.51,29.84v6.03h-6.03v-6.03h6.03M59.22,28.14h-9.43v9.43h9.43v-9.43h0Z"/>
    </g>
    <g>
      <polygon points="44.61 79.68 44.61 71.96 50.64 71.96 50.64 54.84 44.61 54.84 44.61 47.12 58.36 47.12 58.36 71.96 64.39 71.96 64.39 79.68 44.61 79.68"/>
      <path d="M57.51,47.97v24.84h6.03v6.03h-18.08v-6.03h6.03v-18.81h-6.03v-6.03h12.05M59.22,46.26h-15.46v9.43h6.03v15.41h-6.03v9.43h21.48v-9.43h-6.03v-24.84h0Z"/>
    </g>
  </g>
  <circle id="Outer" cx="54.5" cy="54.5" r="48.79" fill="none" stroke="#000" stroke-width="11.41"/>
</svg>