<?xml version="1.0" encoding="UTF-8"?>
<svg id="Layer_1" xmlns="http://www.w3.org/2000/svg" version="1.1" viewBox="0 0 35 35">
  <!-- Generator: Adobe Illustrator 30.1.0, SVG Export Plug-In . SVG Version: 2.1.1 Build 136)  -->
  <path d="M17.5,6.14c.37,0,.74.19.93.57l2.38,4.72c.41.81,1.17,1.38,2.06,1.55l5.14.96c.8.15,1.13,1.13.58,1.73l-3.75,4.11c-.58.63-.85,1.49-.73,2.34l.73,5.54c.09.66-.44,1.19-1.03,1.19-.16,0-.32-.04-.48-.12l-4.5-2.32c-.42-.21-.87-.32-1.33-.32s-.91.11-1.33.32l-4.5,2.32c-.16.08-.32.12-.48.12-.59,0-1.12-.52-1.03-1.19l.73-5.55c.11-.85-.16-1.71-.73-2.34l-3.75-4.11c-.55-.61-.23-1.58.58-1.73l5.14-.96c.89-.17,1.65-.74,2.06-1.55l2.38-4.72c.19-.38.56-.57.93-.57M17.5,0C14.77,0,12.32,1.51,11.09,3.95l-1.66,3.29-3.57.67c-2.56.48-4.66,2.31-5.49,4.78-.83,2.47-.25,5.2,1.5,7.12l2.74,3-.54,4.06c-.27,2.05.36,4.12,1.72,5.67,1.37,1.56,3.33,2.45,5.4,2.45,1.14,0,2.27-.28,3.29-.8l3.02-1.55,3.02,1.55c1.01.52,2.15.8,3.29.8,2.07,0,4.04-.89,5.4-2.45,1.36-1.55,1.99-3.62,1.72-5.67l-.54-4.06,2.74-3.01c1.75-1.92,2.33-4.65,1.5-7.12-.83-2.47-2.93-4.3-5.49-4.78l-3.57-.67-1.66-3.29C22.68,1.51,20.23,0,17.5,0h0Z"/>
</svg>