<?xml version="1.0" encoding="UTF-8"?>
<svg id="Layer_1" xmlns="http://www.w3.org/2000/svg" version="1.1" viewBox="0 0 99 99">
  <!-- Generator: Adobe Illustrator 30.1.0, SVG Export Plug-In . SVG Version: 2.1.1 Build 136)  -->
  <path d="M49.5,13.86c1.16,0,2.32.6,2.92,1.8l7.46,14.8c1.28,2.54,3.67,4.34,6.46,4.86l16.13,3.02c2.52.47,3.55,3.54,1.81,5.44l-11.75,12.9c-1.81,1.99-2.66,4.68-2.3,7.35l2.29,17.39c.27,2.07-1.38,3.72-3.24,3.72-.49,0-1-.12-1.5-.37l-14.11-7.27c-1.31-.67-2.74-1.01-4.17-1.01s-2.86.34-4.17,1.01l-14.11,7.27c-.49.25-1,.37-1.5.37-1.87,0-3.52-1.64-3.24-3.72l2.29-17.39c.35-2.67-.49-5.36-2.3-7.34l-11.75-12.9c-1.73-1.9-.71-4.97,1.82-5.44l16.13-3.02c2.79-.52,5.17-2.32,6.45-4.86l7.46-14.8c.61-1.2,1.76-1.8,2.92-1.8M49.5,0C42.99,0,37.13,3.61,34.2,9.43l-6.4,12.71-13.81,2.59c-6.1,1.14-11.12,5.51-13.09,11.4-1.97,5.89-.6,12.4,3.58,17l10.27,11.27-2.01,15.22c-.65,4.9.85,9.83,4.09,13.54,3.26,3.72,7.96,5.85,12.89,5.85,2.71,0,5.42-.66,7.84-1.91l11.93-6.14,11.93,6.14c2.42,1.25,5.13,1.91,7.84,1.91,4.93,0,9.63-2.13,12.89-5.85,3.25-3.7,4.74-8.64,4.09-13.54l-2.01-15.22,10.27-11.27c4.18-4.59,5.56-11.1,3.58-16.99-1.97-5.89-6.99-10.26-13.09-11.4l-13.82-2.59-6.4-12.71C61.87,3.61,56.01,0,49.5,0h0Z"/>
</svg>