<?xml version="1.0" encoding="UTF-8"?>
<svg id="Layer_1" xmlns="http://www.w3.org/2000/svg" version="1.1" viewBox="0 0 99 99">
  <!-- Generator: Adobe Illustrator 30.1.0, SVG Export Plug-In . SVG Version: 2.1.1 Build 136)  -->
  <path d="M49.5,17.36c1.05,0,2.09.54,2.64,1.63l6.72,13.35c1.15,2.29,3.31,3.91,5.82,4.38l14.55,2.73c2.27.43,3.2,3.19,1.64,4.9l-10.6,11.63c-1.64,1.79-2.4,4.22-2.08,6.63l2.07,15.68c.25,1.87-1.24,3.35-2.93,3.35-.45,0-.91-.1-1.35-.33l-12.73-6.55c-1.18-.61-2.47-.91-3.76-.91s-2.58.3-3.76.91l-12.73,6.55c-.44.23-.9.33-1.35.33-1.68,0-3.17-1.48-2.93-3.35l2.07-15.69c.32-2.41-.44-4.83-2.08-6.62l-10.6-11.63c-1.56-1.71-.64-4.48,1.64-4.91l14.55-2.73c2.52-.47,4.67-2.09,5.82-4.38l6.73-13.35c.55-1.08,1.59-1.63,2.64-1.63M49.5,0C41.78,0,34.83,4.28,31.36,11.17l-4.69,9.31-10.1,1.89c-7.23,1.36-13.18,6.53-15.52,13.51-2.34,6.98-.71,14.7,4.25,20.14l7.74,8.5-1.52,11.49c-.77,5.8,1,11.65,4.86,16.04,3.86,4.41,9.43,6.93,15.28,6.93,3.21,0,6.43-.78,9.3-2.26l8.54-4.4,8.54,4.4c2.87,1.48,6.08,2.26,9.3,2.26,5.85,0,11.41-2.53,15.28-6.93,3.85-4.39,5.62-10.24,4.86-16.04l-1.52-11.49,7.75-8.5c4.96-5.44,6.59-13.16,4.25-20.14-2.34-6.98-8.28-12.16-15.52-13.51l-10.1-1.89-4.69-9.32C64.16,4.28,57.21,0,49.5,0h0Z"/>
</svg>