<?xml version="1.0" encoding="UTF-8"?>
<svg id="Layer_1" xmlns="http://www.w3.org/2000/svg" version="1.1" viewBox="0 0 82 82">
  <!-- Generator: Adobe Illustrator 30.1.0, SVG Export Plug-In . SVG Version: 2.1.1 Build 136)  -->
  <circle id="Outer" cx="41" cy="41" r="33.81" fill="none" stroke="#000" stroke-width="14.38"/>
  <g>
    <g>
      <rect x="38.38" y="51.78" width="5.2" height="5.2"/>
      <path d="M42.42,52.94v2.89h-2.89v-2.89h2.89M44.73,50.63h-7.5v7.5h7.5v-7.5h0Z"/>
    </g>
    <g>
      <path d="M38.4,46.72l-.02-2.24c0-1.67.62-3.25,1.73-4.48l2.86-3.17c.59-.66.92-1.5.92-2.38,0-1.07-.88-1.94-1.96-1.94h-1.84c-1.08,0-1.96.87-1.96,1.94v1.15h-5.22v-1.15c0-3.94,3.22-7.14,7.19-7.14h1.84c3.96,0,7.19,3.2,7.19,7.14,0,2.16-.8,4.24-2.26,5.85l-2.86,3.17c-.26.29-.39.62-.39.99l-.02,2.24h-5.17Z"/>
      <path d="M41.92,28.47c3.33,0,6.03,2.69,6.03,5.99,0,1.88-.7,3.68-1.96,5.08l-2.86,3.17c-.44.49-.69,1.1-.69,1.76v1.09h-2.9v-1.09c0-1.37.5-2.67,1.42-3.69l2.86-3.17c.78-.87,1.21-1.99,1.21-3.15,0-1.71-1.4-3.1-3.12-3.1h-1.84c-1.72,0-3.12,1.39-3.12,3.1h-2.91c0-3.3,2.71-5.99,6.03-5.99h1.84M41.92,26.17h-1.84c-4.6,0-8.34,3.72-8.34,8.3v2.31h7.53v-2.31c0-.44.36-.79.81-.79h1.84c.45,0,.81.35.81.79,0,.59-.22,1.16-.62,1.61l-2.86,3.17c-1.3,1.44-2.02,3.29-2.03,5.23v1.12s.03,2.29.03,2.29h7.46l.02-2.28v-1.09c.01-.08.02-.14.11-.24l2.86-3.17c1.65-1.82,2.55-4.18,2.55-6.63,0-4.57-3.74-8.3-8.34-8.3h0Z"/>
    </g>
  </g>
</svg>