<?xml version="1.0" encoding="UTF-8"?>
<svg id="Layer_1" xmlns="http://www.w3.org/2000/svg" version="1.1" viewBox="0 0 82 82">
  <!-- Generator: Adobe Illustrator 30.1.0, SVG Export Plug-In . SVG Version: 2.1.1 Build 136)  -->
  <circle id="Outer" cx="41" cy="41" r="36.71" fill="none" stroke="#000" stroke-width="8.58"/>
  <g>
    <g>
      <rect x="38.41" y="53.99" width="5.13" height="5.13"/>
      <path d="M42.9,54.63v3.85h-3.85v-3.85h3.85M44.18,53.35h-6.41v6.41h6.41v-6.41h0Z"/>
    </g>
    <g>
      <path d="M38.42,48.41l-.02-2.09c0-1.99.74-3.89,2.07-5.36l3.81-4.22c.94-1.04,1.45-2.38,1.45-3.77,0-1.92-1.58-3.49-3.52-3.49h-2.45c-1.94,0-3.52,1.56-3.52,3.49v.64h-5.17v-.64c0-4.76,3.9-8.63,8.68-8.63h2.45c4.79,0,8.68,3.87,8.68,8.63,0,2.66-.99,5.22-2.78,7.2l-3.82,4.23c-.49.54-.75,1.21-.76,1.92l-.02,2.09h-5.12Z"/>
      <path d="M42.22,24.98c4.43,0,8.04,3.58,8.04,7.98,0,2.51-.93,4.91-2.61,6.78l-3.81,4.23c-.59.65-.92,1.47-.92,2.35v1.46h-3.87v-1.46c0-1.83.67-3.56,1.89-4.92l3.81-4.23c1.04-1.16,1.62-2.65,1.62-4.2,0-2.28-1.86-4.13-4.16-4.13h-2.45c-2.29,0-4.16,1.85-4.16,4.13h-3.89c0-4.4,3.61-7.98,8.04-7.98h2.45M42.22,23.7h-2.45c-5.14,0-9.32,4.16-9.32,9.27v1.28h6.45v-1.28c0-1.57,1.29-2.85,2.88-2.85h2.45c1.59,0,2.88,1.28,2.88,2.85,0,1.23-.46,2.42-1.29,3.34l-3.81,4.23c-1.43,1.59-2.23,3.64-2.24,5.78v1.47s.02,1.27.02,1.27h6.39v-1.27s.03-1.46.03-1.46c0-.56.21-1.07.59-1.5l3.82-4.23c1.9-2.1,2.94-4.81,2.94-7.63,0-5.11-4.18-9.27-9.32-9.27h0Z"/>
    </g>
  </g>
</svg>