<?xml version="1.0" encoding="UTF-8"?>
<svg id="Layer_1" xmlns="http://www.w3.org/2000/svg" version="1.1" viewBox="0 0 82 82">
  <!-- Generator: Adobe Illustrator 30.1.0, SVG Export Plug-In . SVG Version: 2.1.1 Build 136)  -->
  <circle id="Outer" cx="41" cy="41" r="35.26" fill="none" stroke="#000" stroke-width="11.48"/>
  <g>
    <g>
      <rect x="38.4" y="52.89" width="5.15" height="5.15"/>
      <path d="M42.66,53.79v3.36h-3.36v-3.36h3.36M44.45,52h-6.95v6.95h6.95v-6.95h0Z"/>
    </g>
    <g>
      <path d="M38.41,47.53l-.02-2.16c0-1.82.68-3.56,1.9-4.9l3.32-3.68c.76-.84,1.18-1.93,1.18-3.06,0-1.49-1.22-2.7-2.73-2.7h-2.14c-1.5,0-2.73,1.21-2.73,2.7v.9h-5.18v-.9c0-4.33,3.55-7.86,7.91-7.86h2.14c4.36,0,7.91,3.53,7.91,7.86,0,2.41-.89,4.72-2.51,6.51l-3.33,3.69c-.37.41-.57.91-.57,1.45l-.02,2.16h-5.14Z"/>
      <path d="M42.07,26.76c3.87,0,7.01,3.12,7.01,6.96,0,2.18-.81,4.28-2.28,5.91l-3.33,3.69c-.52.57-.8,1.28-.8,2.05v1.27h-3.37v-1.27c0-1.59.58-3.11,1.65-4.29l3.33-3.68c.91-1.01,1.41-2.31,1.41-3.66,0-1.98-1.63-3.6-3.62-3.6h-2.14c-2,0-3.62,1.61-3.62,3.6h-3.39c0-3.84,3.15-6.96,7.01-6.96h2.14M42.07,24.97h-2.14c-4.86,0-8.81,3.93-8.81,8.76v1.79h6.98v-1.79c0-1,.82-1.81,1.83-1.81h2.14c1.01,0,1.83.81,1.83,1.81,0,.91-.34,1.78-.95,2.46l-3.33,3.68c-1.36,1.51-2.12,3.46-2.13,5.49v1.29s.03,1.78.03,1.78h6.91l.02-1.78v-1.27c.01-.33.13-.61.35-.86l3.33-3.69c1.77-1.96,2.74-4.48,2.74-7.11,0-4.83-3.95-8.76-8.81-8.76h0Z"/>
    </g>
  </g>
</svg>