<?xml version="1.0" encoding="UTF-8"?>
<svg id="Layer_1" xmlns="http://www.w3.org/2000/svg" version="1.1" viewBox="0 0 69 69">
  <!-- Generator: Adobe Illustrator 30.1.0, SVG Export Plug-In . SVG Version: 2.1.1 Build 136)  -->
  <circle id="Outer" cx="34.5" cy="34.5" r="28.45" fill="none" stroke="#000" stroke-width="12.1"/>
  <g>
    <g>
      <rect x="32.3" y="43.57" width="4.37" height="4.37"/>
      <path d="M35.7,44.54v2.43h-2.43v-2.43h2.43M37.64,42.6h-6.31v6.31h6.31v-6.31h0Z"/>
    </g>
    <g>
      <path d="M32.31,39.31l-.02-1.88c0-1.4.52-2.74,1.45-3.77l2.41-2.67c.5-.55.77-1.26.77-2,0-.9-.74-1.63-1.65-1.63h-1.55c-.91,0-1.65.73-1.65,1.63v.97h-4.39v-.97c0-3.31,2.71-6.01,6.05-6.01h1.55c3.33,0,6.05,2.7,6.05,6.01,0,1.82-.67,3.57-1.9,4.93l-2.41,2.67c-.22.24-.33.52-.33.83l-.02,1.89h-4.35Z"/>
      <path d="M35.27,23.96c2.8,0,5.08,2.26,5.08,5.04,0,1.58-.59,3.1-1.65,4.28l-2.41,2.67c-.37.41-.58.93-.58,1.48v.92h-2.44v-.92c0-1.15.42-2.25,1.2-3.11l2.41-2.67c.66-.73,1.02-1.67,1.02-2.65,0-1.44-1.18-2.6-2.62-2.6h-1.55c-1.45,0-2.62,1.17-2.62,2.6h-2.45c0-2.78,2.28-5.04,5.08-5.04h1.55M35.27,22.02h-1.55c-3.87,0-7.02,3.13-7.02,6.98v1.94h6.33v-1.94c0-.37.31-.66.68-.66h1.55c.38,0,.68.3.68.66,0,.5-.19.98-.52,1.35l-2.41,2.67c-1.09,1.21-1.7,2.77-1.7,4.4v.94s.03,1.92.03,1.92h6.28l.02-1.92v-.92c0-.06.02-.12.09-.2l2.41-2.67c1.39-1.53,2.15-3.51,2.15-5.58,0-3.85-3.15-6.98-7.02-6.98h0Z"/>
    </g>
  </g>
</svg>