<?xml version="1.0" encoding="UTF-8"?>
<svg id="Layer_1" xmlns="http://www.w3.org/2000/svg" version="1.1" viewBox="0 0 69 69">
  <!-- Generator: Adobe Illustrator 30.1.0, SVG Export Plug-In . SVG Version: 2.1.1 Build 136)  -->
  <circle id="Outer" cx="34.5" cy="34.5" r="29.67" fill="none" stroke="#000" stroke-width="9.66"/>
  <g>
    <g>
      <rect x="32.31" y="44.51" width="4.33" height="4.34"/>
      <path d="M35.89,45.26v2.83h-2.83v-2.83h2.83M37.4,43.75h-5.84v5.84h5.84v-5.84h0Z"/>
    </g>
    <g>
      <path d="M32.32,40l-.02-1.82c0-1.53.57-2.99,1.59-4.12l2.8-3.1c.64-.71.99-1.62.99-2.58,0-1.25-1.03-2.27-2.29-2.27h-1.8c-1.27,0-2.29,1.02-2.29,2.27v.75h-4.36v-.75c0-3.65,2.99-6.61,6.66-6.61h1.8c3.67,0,6.66,2.97,6.66,6.61,0,2.02-.75,3.97-2.11,5.48l-2.8,3.1c-.31.35-.48.77-.48,1.22l-.02,1.82h-4.32Z"/>
      <path d="M35.4,22.52c3.25,0,5.9,2.63,5.9,5.86,0,1.84-.68,3.6-1.92,4.97l-2.8,3.1c-.43.48-.67,1.08-.68,1.72v1.07h-2.84v-1.07c0-1.34.49-2.62,1.39-3.61l2.8-3.1c.77-.85,1.19-1.94,1.19-3.08,0-1.67-1.37-3.03-3.05-3.03h-1.8c-1.68,0-3.05,1.36-3.05,3.03h-2.85c0-3.23,2.65-5.86,5.9-5.86h1.8M35.4,21.01h-1.8c-4.09,0-7.41,3.31-7.41,7.37v1.51h5.87v-1.51c0-.84.69-1.52,1.54-1.52h1.8c.85,0,1.54.68,1.54,1.52,0,.76-.28,1.5-.8,2.07l-2.8,3.1c-1.15,1.27-1.78,2.91-1.79,4.62v1.09s.02,1.5.02,1.5h5.82l.02-1.49v-1.07c.01-.27.11-.52.3-.72l2.8-3.1c1.49-1.65,2.3-3.77,2.3-5.98,0-4.06-3.32-7.37-7.41-7.37h0Z"/>
    </g>
  </g>
</svg>