<?xml version="1.0" encoding="UTF-8"?>
<svg id="Layer_1" xmlns="http://www.w3.org/2000/svg" version="1.1" viewBox="0 0 69 69">
  <!-- Generator: Adobe Illustrator 30.1.0, SVG Export Plug-In . SVG Version: 2.1.1 Build 136)  -->
  <circle id="Outer" cx="34.5" cy="34.5" r="30.89" fill="none" stroke="#000" stroke-width="7.22"/>
  <g>
    <g>
      <rect x="32.32" y="45.43" width="4.32" height="4.32"/>
      <path d="M36.1,45.97v3.24h-3.24v-3.24h3.24M37.18,44.89h-5.4v5.4h5.4v-5.4h0Z"/>
    </g>
    <g>
      <path d="M32.33,40.73l-.02-1.76c0-1.67.63-3.27,1.74-4.51l3.21-3.55c.79-.87,1.22-2,1.22-3.17,0-1.62-1.33-2.93-2.96-2.93h-2.06c-1.63,0-2.96,1.32-2.96,2.93v.54h-4.35v-.54c0-4,3.28-7.26,7.31-7.26h2.06c4.03,0,7.3,3.26,7.3,7.26,0,2.24-.83,4.39-2.33,6.06l-3.21,3.56c-.41.46-.63,1.02-.64,1.61l-.02,1.76h-4.31Z"/>
      <path d="M35.53,21.02c3.73,0,6.77,3.01,6.77,6.72,0,2.11-.78,4.13-2.2,5.7l-3.21,3.56c-.5.55-.77,1.23-.77,1.97v1.23h-3.25v-1.23c0-1.54.56-3,1.59-4.14l3.21-3.56c.88-.97,1.36-2.23,1.36-3.53,0-1.91-1.57-3.47-3.5-3.47h-2.06c-1.93,0-3.5,1.56-3.5,3.47h-3.27c0-3.7,3.04-6.72,6.77-6.72h2.06M35.53,19.94h-2.06c-4.33,0-7.84,3.5-7.84,7.8v1.08h5.43v-1.08c0-1.32,1.09-2.39,2.42-2.39h2.06c1.33,0,2.42,1.07,2.42,2.39,0,1.04-.39,2.04-1.08,2.81l-3.21,3.56c-1.21,1.34-1.88,3.06-1.88,4.86v1.24s.02,1.07.02,1.07h5.38v-1.07s.02-1.23.02-1.23c0-.47.17-.9.5-1.26l3.21-3.56c1.6-1.77,2.48-4.05,2.48-6.42,0-4.3-3.52-7.8-7.84-7.8h0Z"/>
    </g>
  </g>
</svg>