<?xml version="1.0" encoding="UTF-8"?>
<svg id="Layer_1" xmlns="http://www.w3.org/2000/svg" version="1.1" viewBox="0 0 62 62">
  <!-- Generator: Adobe Illustrator 30.1.0, SVG Export Plug-In . SVG Version: 2.1.1 Build 136)  -->
  <path d="M31,6.49c.8,0,1.59.41,2.01,1.24l5.13,10.18c.88,1.75,2.52,2.98,4.44,3.34l11.09,2.08c1.73.33,2.44,2.43,1.25,3.74l-8.08,8.87c-1.25,1.37-1.83,3.22-1.58,5.06l1.58,11.96c.19,1.43-.95,2.56-2.23,2.56-.34,0-.69-.08-1.03-.25l-9.7-5c-.9-.46-1.88-.69-2.87-.69-.98,0-1.97.23-2.87.69l-9.7,5c-.34.17-.69.25-1.03.25-1.28,0-2.42-1.13-2.23-2.56l1.58-11.96c.24-1.84-.34-3.68-1.58-5.05l-8.08-8.87c-1.19-1.31-.49-3.42,1.25-3.74l11.09-2.08c1.92-.36,3.56-1.59,4.44-3.34l5.13-10.18c.42-.83,1.21-1.24,2.01-1.24M31,0C27.68,0,24.69,1.84,23.19,4.81l-5.08,10.08-10.98,2.06c-3.11.58-5.67,2.81-6.68,5.82-1.01,3.01-.31,6.33,1.83,8.67l8.02,8.8-1.56,11.87c-.33,2.5.43,5.02,2.09,6.91,1.67,1.9,4.06,2.99,6.58,2.99,1.38,0,2.76-.34,4-.97l9.6-4.94,9.6,4.94c1.24.64,2.62.97,4,.97,2.52,0,4.91-1.09,6.58-2.99,1.66-1.89,2.42-4.41,2.09-6.91l-1.56-11.87,8.02-8.8c2.14-2.34,2.84-5.67,1.83-8.67-1.01-3-3.57-5.23-6.68-5.82l-10.98-2.06-5.08-10.08C37.31,1.84,34.32,0,31,0h0Z"/>
</svg>