<?xml version="1.0" encoding="UTF-8"?>
<svg id="Layer_1" xmlns="http://www.w3.org/2000/svg" version="1.1" viewBox="0 0 34 34">
  <!-- Generator: Adobe Illustrator 30.1.0, SVG Export Plug-In . SVG Version: 2.1.1 Build 136)  -->
  <circle id="Outer" cx="17" cy="17" r="15.22" fill="none" stroke="#000" stroke-width="3.56"/>
  <g>
    <g>
      <rect x="15.93" y="22.39" width="2.13" height="2.13"/>
      <path d="M17.79,22.65v1.6h-1.6v-1.6h1.6M18.32,22.12h-2.66v2.66h2.66v-2.66h0Z"/>
    </g>
    <g>
      <path d="M15.93,20.07v-.87c0-.82.3-1.61.85-2.22l1.58-1.75c.39-.43.6-.99.6-1.56,0-.8-.65-1.45-1.46-1.45h-1.02c-.8,0-1.46.65-1.46,1.45v.27h-2.14v-.27c0-1.97,1.62-3.58,3.6-3.58h1.02c1.98,0,3.6,1.6,3.6,3.58,0,1.11-.41,2.17-1.15,2.99l-1.58,1.75c-.2.23-.31.5-.31.8v.87h-2.13Z"/>
      <path d="M17.51,10.36c1.84,0,3.33,1.49,3.33,3.31,0,1.04-.38,2.04-1.08,2.81l-1.58,1.75c-.25.27-.38.61-.38.97v.6h-1.6v-.6c0-.76.28-1.48.79-2.04l1.58-1.75c.43-.48.67-1.1.67-1.74,0-.94-.77-1.71-1.72-1.71h-1.02c-.95,0-1.72.77-1.72,1.71h-1.61c0-1.83,1.5-3.31,3.33-3.31h1.02M17.51,9.83h-1.02c-2.13,0-3.87,1.72-3.87,3.84v.53h2.67v-.53c0-.65.53-1.18,1.19-1.18h1.02c.66,0,1.19.53,1.19,1.18,0,.51-.19,1-.53,1.39l-1.58,1.75c-.59.66-.92,1.51-.93,2.4v.61s.01.53.01.53h2.65v-.53s.01-.6.01-.6c0-.23.09-.45.24-.62l1.58-1.75c.79-.87,1.22-2,1.22-3.17,0-2.12-1.73-3.84-3.87-3.84h0Z"/>
    </g>
  </g>
</svg>