<?xml version="1.0" encoding="UTF-8"?>
<svg id="Layer_1" xmlns="http://www.w3.org/2000/svg" version="1.1" viewBox="0 0 34 34">
  <!-- Generator: Adobe Illustrator 30.1.0, SVG Export Plug-In . SVG Version: 2.1.1 Build 136)  -->
  <circle id="Outer" cx="17" cy="17" r="14.02" fill="none" stroke="#000" stroke-width="5.96"/>
  <g>
    <g>
      <rect x="15.91" y="21.47" width="2.15" height="2.16"/>
      <path d="M17.59,21.95v1.2h-1.2v-1.2h1.2M18.55,20.99h-3.11v3.11h3.11v-3.11h0Z"/>
    </g>
    <g>
      <path d="M15.92,19.37v-.93c0-.69.25-1.35.71-1.86l1.19-1.31c.25-.27.38-.62.38-.99,0-.44-.37-.81-.81-.81h-.76c-.45,0-.81.36-.81.81v.48h-2.16v-.48c0-1.63,1.34-2.96,2.98-2.96h.76c1.64,0,2.98,1.33,2.98,2.96,0,.9-.33,1.76-.94,2.43l-1.19,1.32c-.11.12-.16.26-.16.41v.93h-2.15Z"/>
      <path d="M17.38,11.81c1.38,0,2.5,1.11,2.5,2.48,0,.78-.29,1.53-.81,2.11l-1.19,1.31c-.18.2-.29.46-.29.73v.45h-1.2v-.45c0-.57.21-1.11.59-1.53l1.19-1.31c.32-.36.5-.82.5-1.31,0-.71-.58-1.28-1.29-1.28h-.76c-.71,0-1.29.58-1.29,1.28h-1.21c0-1.37,1.12-2.48,2.5-2.48h.76M17.38,10.85h-.76c-1.91,0-3.46,1.54-3.46,3.44v.96h3.12v-.96c0-.18.15-.33.34-.33h.76c.19,0,.34.15.34.33,0,.25-.09.48-.26.67l-1.19,1.31c-.54.6-.84,1.37-.84,2.17v.46s.01.95.01.95h3.09v-.95s.01-.45.01-.45c0-.03,0-.06.04-.1l1.19-1.32c.68-.76,1.06-1.73,1.06-2.75,0-1.9-1.55-3.44-3.46-3.44h0Z"/>
    </g>
  </g>
</svg>