<?xml version="1.0" encoding="UTF-8"?>
<svg id="Layer_1" xmlns="http://www.w3.org/2000/svg" version="1.1" viewBox="0 0 73 73">
  <!-- Generator: Adobe Illustrator 30.1.0, SVG Export Plug-In . SVG Version: 2.1.1 Build 136)  -->
  <g>
    <g>
      <rect x="33.87" y="20.34" width="5.26" height="5.26"/>
      <path d="M38.33,21.14v3.66h-3.66v-3.66h3.66M39.93,19.54h-6.85v6.85h6.85v-6.85h0Z"/>
    </g>
    <g>
      <polygon points="30.21 52.23 30.21 46.98 33.87 46.98 33.87 37.15 30.21 37.15 30.21 31.89 39.13 31.89 39.13 46.98 42.79 46.98 42.79 52.23 30.21 52.23"/>
      <path d="M38.33,32.69v15.08h3.66v3.66h-10.98v-3.66h3.66v-11.42h-3.66v-3.66h7.32M39.93,31.09h-10.51v6.85h3.66v8.23h-3.66v6.85h14.17v-6.85h-3.66v-15.08h0Z"/>
    </g>
  </g>
  <circle id="Outer" cx="36.5" cy="36.5" r="31.39" fill="none" stroke="#000" stroke-width="10.22"/>
</svg>