<?xml version="1.0" encoding="UTF-8"?>
<svg id="Layer_1" xmlns="http://www.w3.org/2000/svg" version="1.1" viewBox="0 0 53 53">
  <!-- Generator: Adobe Illustrator 30.1.0, SVG Export Plug-In . SVG Version: 2.1.1 Build 136)  -->
  <g>
    <g>
      <rect x="24.56" y="15.44" width="3.88" height="3.88"/>
      <path d="M27.69,16.19v2.39h-2.39v-2.39h2.39M29.18,14.7h-5.37v5.37h5.37v-5.37h0Z"/>
    </g>
    <g>
      <polygon points="22.17 37.11 22.17 33.23 24.56 33.23 24.56 27.27 22.17 27.27 22.17 23.39 28.44 23.39 28.44 33.23 30.83 33.23 30.83 37.11 22.17 37.11"/>
      <path d="M27.69,24.13v9.84h2.39v2.39h-7.16v-2.39h2.39v-7.46h-2.39v-2.39h4.78M29.18,22.64h-7.76v5.37h2.39v4.47h-2.39v5.37h10.15v-5.37h-2.39v-9.84h0Z"/>
    </g>
  </g>
  <circle id="Outer" cx="26.5" cy="26.5" r="21.85" fill="none" stroke="#000" stroke-width="9.29"/>
</svg>