<?xml version="1.0" encoding="UTF-8"?>
<svg id="Layer_1" xmlns="http://www.w3.org/2000/svg" version="1.1" viewBox="0 0 53 53">
  <!-- Generator: Adobe Illustrator 30.1.0, SVG Export Plug-In . SVG Version: 2.1.1 Build 136)  -->
  <g>
    <g>
      <rect x="24.62" y="14.1" width="3.76" height="3.76"/>
      <path d="M27.97,14.51v2.93h-2.93v-2.93h2.93M28.79,13.68h-4.59v4.59h4.59v-4.59h0Z"/>
    </g>
    <g>
      <polygon points="21.69 38.75 21.69 34.99 24.62 34.99 24.62 26.67 21.69 26.67 21.69 22.91 28.38 22.91 28.38 34.99 31.31 34.99 31.31 38.75 21.69 38.75"/>
      <path d="M27.97,23.32v12.08h2.93v2.93h-8.79v-2.93h2.93v-9.15h-2.93v-2.93h5.86M28.79,22.5h-7.52v4.59h2.93v7.49h-2.93v4.59h10.45v-4.59h-2.93v-12.08h0Z"/>
    </g>
  </g>
  <circle id="Outer" cx="26.5" cy="26.5" r="23.73" fill="none" stroke="#000" stroke-width="5.55"/>
</svg>