<?xml version="1.0" encoding="UTF-8"?>
<svg id="Layer_1" xmlns="http://www.w3.org/2000/svg" version="1.1" viewBox="0 0 121 121">
  <!-- Generator: Adobe Illustrator 30.1.0, SVG Export Plug-In . SVG Version: 2.1.1 Build 136)  -->
  <circle id="Outer" cx="60.5" cy="60.5" r="54.17" fill="none" stroke="#000" stroke-width="12.67"/>
  <g>
    <g>
      <rect x="56.68" y="79.67" width="7.57" height="7.57"/>
      <path d="M63.31,80.61v5.68h-5.68v-5.68h5.68M65.2,78.72h-9.46v9.46h9.46v-9.46h0Z"/>
    </g>
    <g>
      <path d="M56.69,71.43l-.03-3.08c.01-2.93,1.1-5.74,3.06-7.91l5.63-6.23c1.38-1.53,2.15-3.51,2.15-5.56,0-2.84-2.33-5.15-5.19-5.15h-3.62c-2.86,0-5.19,2.31-5.19,5.15v.95h-7.62v-.95c0-7.02,5.75-12.73,12.81-12.73h3.62c7.06,0,12.81,5.71,12.81,12.73,0,3.93-1.46,7.71-4.1,10.63l-5.63,6.24c-.73.8-1.11,1.78-1.12,2.83l-.03,3.09h-7.56Z"/>
      <path d="M62.31,36.86c6.54,0,11.87,5.29,11.87,11.78,0,3.7-1.37,7.25-3.85,10l-5.63,6.24c-.87.96-1.35,2.16-1.36,3.46l-.02,2.15h-5.68l-.02-2.15c0-2.69,1-5.26,2.81-7.26l5.63-6.23c1.54-1.71,2.39-3.91,2.39-6.2,0-3.36-2.75-6.09-6.13-6.09h-3.62c-3.38,0-6.13,2.73-6.13,6.09h-5.73c0-6.5,5.32-11.78,11.87-11.78h3.62M62.31,34.97h-3.62c-7.59,0-13.76,6.13-13.76,13.67v1.89h9.51v-1.89c0-2.32,1.9-4.2,4.24-4.2h3.62c2.34,0,4.24,1.88,4.24,4.2,0,1.82-.68,3.57-1.9,4.93l-5.63,6.23c-2.12,2.34-3.29,5.37-3.3,8.52l.02,2.17.02,1.87h9.43l.02-1.87.02-2.15c0-.82.3-1.59.87-2.21l5.63-6.24c2.8-3.1,4.34-7.1,4.34-11.26,0-7.54-6.17-13.67-13.76-13.67h0Z"/>
    </g>
  </g>
</svg>