<?xml version="1.0" encoding="UTF-8"?>
<svg id="Layer_1" xmlns="http://www.w3.org/2000/svg" version="1.1" viewBox="0 0 43 43">
  <!-- Generator: Adobe Illustrator 30.1.0, SVG Export Plug-In . SVG Version: 2.1.1 Build 136)  -->
  <circle id="Outer" cx="21.5" cy="21.5" r="19.25" fill="none" stroke="#000" stroke-width="4.5"/>
  <g>
    <g>
      <rect x="20.14" y="28.31" width="2.69" height="2.69"/>
      <path d="M22.5,28.65v2.02h-2.02v-2.02h2.02M23.17,27.98h-3.36v3.36h3.36v-3.36h0Z"/>
    </g>
    <g>
      <path d="M20.15,25.38v-1.1c0-1.04.38-2.04,1.08-2.81l2-2.22c.49-.54.76-1.25.76-1.98,0-1.01-.83-1.83-1.84-1.83h-1.29c-1.02,0-1.84.82-1.84,1.83v.34h-2.71v-.34c0-2.49,2.04-4.52,4.55-4.52h1.29c2.51,0,4.55,2.03,4.55,4.52,0,1.4-.52,2.74-1.46,3.78l-2,2.22c-.26.29-.39.63-.4,1.01v1.1h-2.7Z"/>
      <path d="M22.14,13.1c2.33,0,4.22,1.88,4.22,4.19,0,1.31-.49,2.58-1.37,3.55l-2,2.22c-.31.34-.48.77-.48,1.23v.76h-2.03v-.76c0-.96.35-1.87.99-2.58l2-2.22c.55-.61.85-1.39.85-2.2,0-1.19-.98-2.16-2.18-2.16h-1.28c-1.2,0-2.18.97-2.18,2.16h-2.04c0-2.31,1.89-4.19,4.22-4.19h1.28M22.14,12.43h-1.28c-2.7,0-4.89,2.18-4.89,4.86v.67h3.38v-.67c0-.82.68-1.49,1.51-1.49h1.28c.83,0,1.51.67,1.51,1.49,0,.65-.24,1.27-.68,1.75l-2,2.22c-.75.83-1.17,1.91-1.17,3.03v.77s.01.67.01.67h3.35v-.67s.01-.76.01-.76c0-.29.11-.56.31-.79l2-2.22c.99-1.1,1.54-2.52,1.54-4,0-2.68-2.19-4.86-4.89-4.86h0Z"/>
    </g>
  </g>
</svg>