<?xml version="1.0" encoding="UTF-8"?>
<svg id="Layer_1" xmlns="http://www.w3.org/2000/svg" version="1.1" viewBox="0 0 118 118">
  <!-- Generator: Adobe Illustrator 30.1.0, SVG Export Plug-In . SVG Version: 2.1.1 Build 136)  -->
  <circle id="Outer" cx="59" cy="59" r="52.82" fill="none" stroke="#000" stroke-width="12.35"/>
  <g>
    <g>
      <rect x="55.27" y="77.69" width="7.39" height="7.39"/>
      <path d="M61.74,78.62v5.54h-5.54v-5.54h5.54M63.58,76.77h-9.23v9.23h9.23v-9.23h0Z"/>
    </g>
    <g>
      <path d="M55.29,69.66l-.03-3.01c.01-2.86,1.07-5.59,2.98-7.71l5.49-6.08c1.35-1.49,2.09-3.42,2.09-5.43,0-2.77-2.27-5.02-5.06-5.02h-3.53c-2.79,0-5.06,2.25-5.06,5.02v.92h-7.43v-.92c0-6.84,5.6-12.41,12.49-12.41h3.53c6.89,0,12.49,5.57,12.49,12.41,0,3.83-1.42,7.51-4,10.37l-5.49,6.08c-.71.78-1.08,1.74-1.09,2.76l-.03,3.01h-7.37Z"/>
      <path d="M60.76,35.94c6.38,0,11.57,5.16,11.57,11.49,0,3.61-1.33,7.07-3.76,9.75l-5.49,6.08c-.85.94-1.32,2.11-1.33,3.38l-.02,2.1h-5.54l-.02-2.1c0-2.63.98-5.13,2.75-7.08l5.49-6.08c1.5-1.66,2.33-3.81,2.33-6.04,0-3.27-2.68-5.94-5.98-5.94h-3.53c-3.3,0-5.98,2.66-5.98,5.94h-5.59c0-6.33,5.19-11.49,11.57-11.49h3.53M60.76,34.1h-3.53c-7.4,0-13.42,5.98-13.42,13.33v1.84h9.28v-1.84c0-2.26,1.86-4.1,4.14-4.1h3.53c2.28,0,4.14,1.84,4.14,4.1,0,1.78-.66,3.48-1.85,4.81l-5.49,6.08c-2.06,2.28-3.21,5.24-3.22,8.31l.02,2.12.02,1.83h9.19l.02-1.83.02-2.1c0-.8.3-1.55.85-2.16l5.49-6.08c2.73-3.02,4.23-6.92,4.23-10.99,0-7.35-6.02-13.33-13.42-13.33h0Z"/>
    </g>
  </g>
</svg>