<?xml version="1.0" encoding="UTF-8"?>
<svg id="Layer_1" xmlns="http://www.w3.org/2000/svg" version="1.1" viewBox="0 0 118 118">
  <!-- Generator: Adobe Illustrator 30.1.0, SVG Export Plug-In . SVG Version: 2.1.1 Build 136)  -->
  <circle id="Outer" cx="59" cy="59" r="50.74" fill="none" stroke="#000" stroke-width="16.52"/>
  <g>
    <g>
      <rect x="55.26" y="76.11" width="7.41" height="7.42"/>
      <path d="M61.38,77.4v4.83h-4.83v-4.83h4.83M63.97,74.82h-9.99v9.99h9.99v-9.99h0Z"/>
    </g>
    <g>
      <path d="M55.28,68.4l-.03-3.11c0-2.62.98-5.12,2.73-7.05l4.78-5.3c1.1-1.21,1.7-2.78,1.7-4.41,0-2.14-1.76-3.89-3.92-3.89h-3.07c-2.16,0-3.93,1.74-3.93,3.89v1.29h-7.46v-1.29c0-6.24,5.11-11.31,11.38-11.31h3.07c6.28,0,11.38,5.07,11.38,11.31,0,3.46-1.28,6.79-3.61,9.37l-4.79,5.3c-.54.59-.82,1.31-.82,2.08l-.03,3.11h-7.39Z"/>
      <path d="M60.54,38.51c5.56,0,10.09,4.5,10.09,10.02,0,3.14-1.16,6.16-3.28,8.5l-4.79,5.3c-.74.82-1.15,1.84-1.16,2.94l-.02,1.83h-4.83l-.02-1.83c0-2.29.85-4.47,2.39-6.18l4.79-5.3c1.31-1.45,2.03-3.32,2.03-5.27,0-2.86-2.34-5.18-5.22-5.18h-3.07c-2.88,0-5.22,2.32-5.22,5.18h-4.88c0-5.52,4.53-10.02,10.09-10.02h3.07M60.54,35.93h-3.07c-6.99,0-12.67,5.65-12.67,12.6v2.58h10.04v-2.58c0-1.43,1.18-2.6,2.63-2.6h3.07c1.45,0,2.63,1.17,2.63,2.6,0,1.31-.49,2.57-1.37,3.54l-4.79,5.3c-1.96,2.17-3.05,4.97-3.06,7.9l.02,1.86.02,2.56h9.95l.03-2.56.02-1.83c0-.47.17-.88.49-1.24l4.79-5.31c2.54-2.82,3.94-6.45,3.94-10.23,0-6.95-5.68-12.6-12.67-12.6h0Z"/>
    </g>
  </g>
</svg>