<?xml version="1.0" encoding="UTF-8"?>
<svg id="Layer_1" xmlns="http://www.w3.org/2000/svg" version="1.1" viewBox="0 0 118 118">
  <!-- Generator: Adobe Illustrator 30.1.0, SVG Export Plug-In . SVG Version: 2.1.1 Build 136)  -->
  <circle id="Outer" cx="59" cy="59" r="48.66" fill="none" stroke="#000" stroke-width="20.69"/>
  <g>
    <g>
      <rect x="55.23" y="74.52" width="7.48" height="7.47"/>
      <path d="M61.05,76.18v4.16h-4.16v-4.16h4.16M64.37,72.86h-10.79v10.79h10.79v-10.79h0Z"/>
    </g>
    <g>
      <path d="M55.25,67.23l-.03-3.22c0-2.4.89-4.68,2.49-6.44l4.12-4.56c.85-.94,1.32-2.16,1.32-3.42,0-1.54-1.27-2.8-2.83-2.8h-2.64c-1.56,0-2.83,1.25-2.83,2.8v1.66h-7.51v-1.66c0-5.67,4.64-10.28,10.34-10.28h2.64c5.7,0,10.34,4.61,10.34,10.28,0,3.12-1.15,6.11-3.25,8.43l-4.12,4.56c-.37.41-.56.89-.57,1.43l-.03,3.22h-7.44Z"/>
      <path d="M60.32,40.97c4.79,0,8.68,3.87,8.68,8.62,0,2.7-1,5.3-2.82,7.31l-4.12,4.56c-.64.71-.99,1.58-.99,2.53l-.02,1.57h-4.16v-1.57c0-1.97.72-3.85,2.05-5.31l4.12-4.56c1.13-1.25,1.75-2.86,1.75-4.53,0-2.46-2.01-4.45-4.49-4.45h-2.64c-2.47,0-4.49,2-4.49,4.45h-4.19c0-4.75,3.89-8.62,8.68-8.62h2.64M60.32,37.65h-2.64c-6.62,0-12,5.36-12,11.94v3.32h10.83v-3.32c0-.63.52-1.14,1.17-1.14h2.64c.64,0,1.17.51,1.17,1.14,0,.85-.32,1.67-.89,2.31l-4.12,4.56c-1.87,2.07-2.9,4.74-2.91,7.53v1.61s.04,3.29.04,3.29h10.73l.03-3.29.02-1.57c0-.11.02-.21.14-.34l4.12-4.56c2.37-2.62,3.67-6.01,3.67-9.54,0-6.58-5.38-11.94-12-11.94h0Z"/>
    </g>
  </g>
</svg>