<?xml version="1.0" encoding="UTF-8"?>
<svg id="Layer_1" xmlns="http://www.w3.org/2000/svg" version="1.1" viewBox="0 0 122 122">
  <!-- Generator: Adobe Illustrator 30.1.0, SVG Export Plug-In . SVG Version: 2.1.1 Build 136)  -->
  <path d="M61,21.39c1.29,0,2.58.67,3.25,2l8.29,16.45c1.42,2.82,4.08,4.82,7.18,5.4l17.93,3.36c2.8.53,3.94,3.93,2.02,6.04l-13.06,14.33c-2.02,2.21-2.95,5.2-2.56,8.17l2.55,19.33c.3,2.31-1.53,4.13-3.61,4.13-.55,0-1.12-.13-1.66-.41l-15.68-8.08c-1.45-.75-3.04-1.12-4.63-1.12s-3.18.37-4.63,1.12l-15.68,8.08c-.55.28-1.11.41-1.66.41-2.07,0-3.91-1.83-3.61-4.13l2.55-19.33c.39-2.97-.55-5.95-2.56-8.16l-13.06-14.33c-1.92-2.11-.79-5.52,2.02-6.05l17.93-3.36c3.1-.58,5.75-2.58,7.17-5.4l8.29-16.45c.67-1.34,1.96-2,3.25-2M61,0c-9.51,0-18.07,5.28-22.35,13.77l-5.78,11.48-12.44,2.33c-8.91,1.67-16.24,8.05-19.12,16.65-2.88,8.6-.88,18.12,5.23,24.82l9.54,10.47-1.87,14.16c-.94,7.15,1.24,14.36,5.98,19.77,4.76,5.43,11.62,8.55,18.83,8.55,3.96,0,7.92-.96,11.46-2.78l10.52-5.42,10.52,5.42c3.54,1.82,7.5,2.78,11.46,2.78,7.2,0,14.07-3.11,18.83-8.55,4.75-5.41,6.93-12.62,5.98-19.77l-1.87-14.16,9.55-10.47c6.11-6.71,8.12-16.22,5.23-24.82-2.88-8.6-10.21-14.98-19.12-16.65l-12.45-2.33-5.78-11.48C79.07,5.28,70.51,0,61,0h0Z"/>
</svg>