<?xml version="1.0" encoding="UTF-8"?>
<svg id="Layer_1" xmlns="http://www.w3.org/2000/svg" version="1.1" viewBox="0 0 15 15">
  <!-- Generator: Adobe Illustrator 30.1.0, SVG Export Plug-In . SVG Version: 2.1.1 Build 136)  -->
  <circle id="Outer" cx="7.5" cy="7.5" r="6.45" fill="none" stroke="#000" stroke-width="2.1"/>
  <g>
    <g>
      <rect x="7.02" y="9.68" width=".94" height=".94"/>
      <path d="M7.8,9.84v.61h-.61v-.61h.61M8.13,9.51h-1.27v1.27h1.27v-1.27h0Z"/>
    </g>
    <g>
      <path d="M7.03,8.69v-.4c0-.33.12-.65.34-.9l.61-.67c.14-.15.22-.35.22-.56,0-.27-.22-.49-.5-.49h-.39c-.28,0-.5.22-.5.49v.16h-.95v-.16c0-.79.65-1.44,1.45-1.44h.39c.8,0,1.45.65,1.45,1.44,0,.44-.16.86-.46,1.19l-.61.67c-.07.08-.1.17-.1.26v.4h-.94Z"/>
      <path d="M7.7,4.9c.71,0,1.28.57,1.28,1.27,0,.4-.15.78-.42,1.08l-.61.67c-.09.1-.15.23-.15.37v.23h-.62v-.23c0-.29.11-.57.3-.79l.61-.67c.17-.18.26-.42.26-.67,0-.36-.3-.66-.66-.66h-.39c-.37,0-.66.3-.66.66h-.62c0-.7.58-1.27,1.28-1.27h.39M7.7,4.57h-.39c-.89,0-1.61.72-1.61,1.6v.33h1.28v-.33c0-.18.15-.33.33-.33h.39c.18,0,.33.15.33.33,0,.17-.06.33-.17.45l-.61.67c-.25.28-.39.63-.39,1v.24s0,.33,0,.33h1.26v-.32s0-.23,0-.23c0-.06.02-.11.06-.16l.61-.67c.32-.36.5-.82.5-1.3,0-.88-.72-1.6-1.61-1.6h0Z"/>
    </g>
  </g>
</svg>