<?xml version="1.0" encoding="UTF-8"?>
<svg id="Layer_1" xmlns="http://www.w3.org/2000/svg" version="1.1" viewBox="0 0 15 15">
  <!-- Generator: Adobe Illustrator 30.1.0, SVG Export Plug-In . SVG Version: 2.1.1 Build 136)  -->
  <circle id="Outer" cx="7.5" cy="7.5" r="6.71" fill="none" stroke="#000" stroke-width="1.57"/>
  <g>
    <g>
      <rect x="7.03" y="9.88" width=".94" height=".94"/>
      <path d="M7.85,9.99v.7h-.7v-.7h.7M8.08,9.76h-1.17v1.17h1.17v-1.17h0Z"/>
    </g>
    <g>
      <path d="M7.03,8.86v-.38c0-.36.13-.71.38-.98l.7-.77c.17-.19.27-.44.27-.69,0-.35-.29-.64-.64-.64h-.45c-.35,0-.64.29-.64.64v.12h-.95v-.12c0-.87.71-1.58,1.59-1.58h.45c.88,0,1.59.71,1.59,1.58,0,.49-.18.96-.51,1.32l-.7.77c-.09.1-.14.22-.14.35v.38h-.94Z"/>
      <path d="M7.72,4.57c.81,0,1.47.66,1.47,1.46,0,.46-.17.9-.48,1.24l-.7.77c-.11.12-.17.27-.17.43v.27h-.71v-.27c0-.33.12-.65.35-.9l.7-.77c.19-.21.3-.48.3-.77,0-.42-.34-.75-.76-.75h-.45c-.42,0-.76.34-.76.75h-.71c0-.81.66-1.46,1.47-1.46h.45M7.72,4.33h-.45c-.94,0-1.71.76-1.71,1.7v.23h1.18v-.23c0-.29.24-.52.53-.52h.45c.29,0,.53.23.53.52,0,.23-.08.44-.24.61l-.7.77c-.26.29-.41.67-.41,1.06v.27s0,.23,0,.23h1.17v-.23s0-.27,0-.27c0-.1.04-.2.11-.27l.7-.77c.35-.38.54-.88.54-1.4,0-.93-.77-1.7-1.71-1.7h0Z"/>
    </g>
  </g>
</svg>