<?xml version="1.0" encoding="UTF-8"?>
<svg id="Layer_1" xmlns="http://www.w3.org/2000/svg" version="1.1" viewBox="0 0 15 15">
  <!-- Generator: Adobe Illustrator 30.1.0, SVG Export Plug-In . SVG Version: 2.1.1 Build 136)  -->
  <circle id="Outer" cx="7.5" cy="7.5" r="6.19" fill="none" stroke="#000" stroke-width="2.63"/>
  <g>
    <g>
      <rect x="7.02" y="9.47" width=".95" height=".95"/>
      <path d="M7.76,9.68v.53h-.53v-.53h.53M8.18,9.26h-1.37v1.37h1.37v-1.37h0Z"/>
    </g>
    <g>
      <path d="M7.02,8.55v-.41c0-.31.11-.59.31-.82l.52-.58c.11-.12.17-.27.17-.43,0-.2-.16-.36-.36-.36h-.34c-.2,0-.36.16-.36.36v.21h-.96v-.21c0-.72.59-1.31,1.31-1.31h.34c.72,0,1.31.59,1.31,1.31,0,.4-.15.78-.41,1.07l-.52.58c-.05.05-.07.11-.07.18v.41h-.95Z"/>
      <path d="M7.67,5.21c.61,0,1.1.49,1.1,1.1,0,.34-.13.67-.36.93l-.52.58c-.08.09-.13.2-.13.32v.2h-.53v-.2c0-.25.09-.49.26-.68l.52-.58c.14-.16.22-.36.22-.58,0-.31-.26-.57-.57-.57h-.34c-.31,0-.57.25-.57.57h-.53c0-.6.49-1.1,1.1-1.1h.34M7.67,4.79h-.34c-.84,0-1.53.68-1.53,1.52v.42h1.38v-.42c0-.08.07-.14.15-.14h.34c.08,0,.15.06.15.14,0,.11-.04.21-.11.29l-.52.58c-.24.26-.37.6-.37.96v.21s0,.42,0,.42h1.36v-.42s0-.2,0-.2l.54-.62c.3-.33.47-.76.47-1.21,0-.84-.68-1.52-1.53-1.52h0Z"/>
    </g>
  </g>
</svg>