<?xml version="1.0" encoding="UTF-8"?>
<svg id="Layer_1" xmlns="http://www.w3.org/2000/svg" version="1.1" viewBox="0 0 13 13">
  <!-- Generator: Adobe Illustrator 30.1.0, SVG Export Plug-In . SVG Version: 2.1.1 Build 136)  -->
  <path d="M6.5,2.28c.14,0,.27.07.35.21l.88,1.75c.15.3.43.51.76.58l1.91.36c.3.06.42.42.21.64l-1.39,1.53c-.21.24-.31.55-.27.87l.27,2.06c.03.25-.16.44-.38.44-.06,0-.12-.01-.18-.04l-1.67-.86c-.15-.08-.32-.12-.49-.12s-.34.04-.49.12l-1.67.86c-.06.03-.12.04-.18.04-.22,0-.42-.19-.38-.44l.27-2.06c.04-.32-.06-.63-.27-.87l-1.39-1.53c-.21-.23-.08-.59.22-.64l1.91-.36c.33-.06.61-.27.76-.58l.88-1.75c.07-.14.21-.21.35-.21M6.5,0C5.49,0,4.57.56,4.12,1.47l-.62,1.22-1.33.25c-.95.18-1.73.86-2.04,1.77-.31.92-.09,1.93.56,2.64l1.02,1.12-.2,1.51c-.1.76.13,1.53.64,2.11.51.58,1.24.91,2.01.91.42,0,.84-.1,1.22-.3l1.12-.58,1.12.58c.38.19.8.3,1.22.3.77,0,1.5-.33,2.01-.91.51-.58.74-1.34.64-2.11l-.2-1.51,1.02-1.12c.65-.71.86-1.73.56-2.64-.31-.92-1.09-1.6-2.04-1.77l-1.33-.25-.62-1.22C8.43.56,7.51,0,6.5,0h0Z"/>
</svg>