<?xml version="1.0" encoding="UTF-8"?>
<svg id="Layer_1" xmlns="http://www.w3.org/2000/svg" version="1.1" viewBox="0 0 58 58">
  <!-- Generator: Adobe Illustrator 30.1.0, SVG Export Plug-In . SVG Version: 2.1.1 Build 136)  -->
  <circle id="Outer" cx="29" cy="29" r="24.94" fill="none" stroke="#000" stroke-width="8.12"/>
  <g>
    <g>
      <rect x="27.16" y="37.41" width="3.64" height="3.64"/>
      <path d="M30.17,38.05v2.38h-2.38v-2.38h2.38M31.44,36.78h-4.91v4.91h4.91v-4.91h0Z"/>
    </g>
    <g>
      <path d="M27.17,33.62v-1.53c0-1.29.47-2.52,1.33-3.47l2.35-2.61c.54-.6.83-1.37.83-2.17,0-1.05-.87-1.91-1.93-1.91h-1.51c-1.06,0-1.93.86-1.93,1.91v.63h-3.66v-.63c0-3.07,2.51-5.56,5.59-5.56h1.51c3.09,0,5.6,2.49,5.6,5.56,0,1.7-.63,3.34-1.78,4.6l-2.35,2.61c-.26.29-.4.65-.4,1.02l-.02,1.53h-3.63Z"/>
      <path d="M29.76,18.93c2.73,0,4.96,2.21,4.96,4.92,0,1.55-.57,3.03-1.61,4.18l-2.35,2.61c-.36.4-.57.9-.57,1.45v.9h-2.38v-.9c0-1.13.41-2.2,1.17-3.04l2.35-2.61c.64-.71,1-1.63,1-2.59,0-1.4-1.15-2.55-2.56-2.55h-1.51c-1.41,0-2.56,1.14-2.56,2.55h-2.4c0-2.72,2.22-4.92,4.96-4.92h1.51M29.76,17.66h-1.51c-3.43,0-6.23,2.78-6.23,6.19v1.27h4.93v-1.27c0-.7.58-1.28,1.29-1.28h1.51c.71,0,1.29.57,1.29,1.28,0,.64-.24,1.26-.67,1.74l-2.35,2.61c-.96,1.07-1.5,2.44-1.5,3.88v.91s.02,1.26.02,1.26h4.89v-1.26s.02-.9.02-.9c0-.23.08-.43.24-.61l2.35-2.61c1.25-1.38,1.94-3.17,1.94-5.03,0-3.42-2.79-6.19-6.23-6.19h0Z"/>
    </g>
  </g>
</svg>