<?xml version="1.0" encoding="UTF-8"?>
<svg id="Layer_1" xmlns="http://www.w3.org/2000/svg" version="1.1" viewBox="0 0 58 58">
  <!-- Generator: Adobe Illustrator 30.1.0, SVG Export Plug-In . SVG Version: 2.1.1 Build 136)  -->
  <circle id="Outer" cx="29" cy="29" r="25.96" fill="none" stroke="#000" stroke-width="6.07"/>
  <g>
    <g>
      <rect x="27.17" y="38.19" width="3.63" height="3.63"/>
      <path d="M30.34,38.64v2.72h-2.72v-2.72h2.72M31.25,37.74h-4.54v4.54h4.54v-4.54h0Z"/>
    </g>
    <g>
      <path d="M27.17,34.24v-1.48c0-1.41.51-2.75,1.45-3.79l2.7-2.99c.66-.73,1.03-1.68,1.03-2.67,0-1.36-1.12-2.47-2.49-2.47h-1.73c-1.37,0-2.49,1.11-2.49,2.47v.45h-3.65v-.45c0-3.36,2.75-6.1,6.14-6.1h1.73c3.39,0,6.14,2.74,6.14,6.1,0,1.88-.7,3.69-1.96,5.1l-2.7,2.99c-.35.39-.53.85-.53,1.36l-.02,1.48h-3.62Z"/>
      <path d="M29.87,17.67c3.14,0,5.69,2.53,5.69,5.65,0,1.77-.66,3.47-1.85,4.79l-2.7,2.99c-.42.46-.65,1.04-.65,1.66v1.03h-2.73v-1.03c0-1.29.47-2.52,1.34-3.48l2.7-2.99c.74-.82,1.15-1.87,1.15-2.97,0-1.61-1.32-2.92-2.94-2.92h-1.73c-1.62,0-2.94,1.31-2.94,2.92h-2.75c0-3.11,2.55-5.65,5.69-5.65h1.73M29.87,16.76h-1.73c-3.64,0-6.59,2.94-6.59,6.55v.91h4.56v-.91c0-1.11.91-2.01,2.03-2.01h1.73c1.12,0,2.03.9,2.03,2.01,0,.87-.32,1.71-.91,2.36l-2.7,2.99c-1.01,1.12-1.58,2.57-1.58,4.09v1.04s.02.9.02.9h4.52v-.9s.02-1.03.02-1.03c0-.4.15-.76.42-1.06l2.7-2.99c1.34-1.49,2.08-3.4,2.08-5.4,0-3.61-2.96-6.55-6.59-6.55h0Z"/>
    </g>
  </g>
</svg>