<?xml version="1.0" encoding="UTF-8"?>
<svg id="Layer_1" xmlns="http://www.w3.org/2000/svg" version="1.1" viewBox="0 0 10 10">
  <!-- Generator: Adobe Illustrator 30.1.0, SVG Export Plug-In . SVG Version: 2.1.1 Build 136)  -->
  <g>
    <g>
      <rect x="4.64" y="2.79" width=".72" height=".72"/>
      <path d="M5.25,2.9v.5h-.5v-.5h.5M5.47,2.68h-.94v.94h.94v-.94h0Z"/>
    </g>
    <g>
      <polygon points="4.14 7.16 4.14 6.43 4.64 6.43 4.64 5.09 4.14 5.09 4.14 4.37 5.36 4.37 5.36 6.43 5.86 6.43 5.86 7.16 4.14 7.16"/>
      <path d="M5.25,4.48v2.07h.5v.5h-1.5v-.5h.5v-1.56h-.5v-.5h1M5.47,4.26h-1.44v.94h.5v1.13h-.5v.94h1.94v-.94h-.5v-2.07h0Z"/>
    </g>
  </g>
  <circle id="Outer" cx="5" cy="5" r="4.3" fill="none" stroke="#000" stroke-width="1.4"/>
</svg>