<?xml version="1.0" encoding="UTF-8"?>
<svg id="Layer_1" xmlns="http://www.w3.org/2000/svg" version="1.1" viewBox="0 0 18 18">
  <!-- Generator: Adobe Illustrator 30.1.0, SVG Export Plug-In . SVG Version: 2.1.1 Build 136)  -->
  <path d="M9,2.52c.21,0,.42.11.53.33l1.36,2.69c.23.46.67.79,1.17.88l2.93.55c.46.09.64.64.33.99l-2.14,2.34c-.33.36-.48.85-.42,1.34l.42,3.16c.05.38-.25.68-.59.68-.09,0-.18-.02-.27-.07l-2.57-1.32c-.24-.12-.5-.18-.76-.18s-.52.06-.76.18l-2.57,1.32c-.09.05-.18.07-.27.07-.34,0-.64-.3-.59-.68l.42-3.16c.06-.49-.09-.97-.42-1.34l-2.14-2.34c-.31-.35-.13-.9.33-.99l2.93-.55c.51-.1.94-.42,1.17-.88l1.36-2.69c.11-.22.32-.33.53-.33M9,0C7.82,0,6.75.66,6.22,1.71l-1.16,2.31-2.51.47c-1.11.21-2.02,1-2.38,2.07-.36,1.07-.11,2.26.65,3.09l1.87,2.05-.36,2.77c-.12.89.15,1.79.74,2.46.59.68,1.45,1.06,2.34,1.06.49,0,.99-.12,1.43-.35l2.17-1.12,2.17,1.12c.44.23.93.35,1.43.35.9,0,1.75-.39,2.34-1.06.59-.67.86-1.57.74-2.46l-.36-2.77,1.87-2.05c.76-.83,1.01-2.02.65-3.09-.36-1.07-1.27-1.86-2.38-2.07l-2.51-.47-1.16-2.31C11.25.66,10.18,0,9,0h0Z"/>
</svg>