<?xml version="1.0" encoding="UTF-8"?>
<svg id="Layer_1" xmlns="http://www.w3.org/2000/svg" version="1.1" viewBox="0 0 18 18">
  <!-- Generator: Adobe Illustrator 30.1.0, SVG Export Plug-In . SVG Version: 2.1.1 Build 136)  -->
  <path d="M9,1.88c.23,0,.46.12.58.36l1.49,2.96c.26.51.73.87,1.29.97l3.22.6c.5.09.71.71.36,1.09l-2.35,2.57c-.36.4-.53.93-.46,1.47l.46,3.47c.05.41-.28.74-.65.74-.1,0-.2-.02-.3-.07l-2.82-1.45c-.26-.13-.55-.2-.83-.2-.29,0-.57.07-.83.2l-2.82,1.45c-.1.05-.2.07-.3.07-.37,0-.7-.33-.65-.74l.46-3.47c.07-.53-.1-1.07-.46-1.47l-2.35-2.58c-.35-.38-.14-.99.36-1.09l3.22-.6c.56-.1,1.03-.46,1.29-.97l1.49-2.96c.12-.24.35-.36.58-.36M9,0C8.04,0,7.17.54,6.73,1.4l-1.47,2.93-3.19.6c-.9.17-1.65.82-1.94,1.69-.29.87-.09,1.84.53,2.52l2.33,2.55-.45,3.44c-.1.73.13,1.46.61,2.01.48.55,1.18.87,1.91.87.4,0,.8-.1,1.16-.28l2.79-1.43,2.79,1.43c.36.19.76.28,1.16.28.73,0,1.43-.32,1.91-.87.48-.55.7-1.28.61-2l-.45-3.44,2.33-2.55c.62-.68.82-1.65.53-2.52-.29-.87-1.04-1.52-1.94-1.69l-3.19-.6-1.47-2.93C10.83.54,9.96,0,9,0h0Z"/>
</svg>