<?xml version="1.0" encoding="UTF-8"?>
<svg id="Layer_1" xmlns="http://www.w3.org/2000/svg" version="1.1" viewBox="0 0 30 30">
  <!-- Generator: Adobe Illustrator 30.1.0, SVG Export Plug-In . SVG Version: 2.1.1 Build 136)  -->
  <path d="M15,4.2c.35,0,.7.18.89.55l2.26,4.49c.39.77,1.11,1.31,1.96,1.47l4.89.92c.76.14,1.07,1.07.55,1.65l-3.56,3.91c-.55.6-.81,1.42-.7,2.23l.69,5.27c.08.63-.42,1.13-.98,1.13-.15,0-.3-.03-.45-.11l-4.28-2.2c-.4-.2-.83-.31-1.26-.31s-.87.1-1.26.31l-4.28,2.2c-.15.08-.3.11-.45.11-.57,0-1.07-.5-.98-1.13l.7-5.27c.11-.81-.15-1.62-.7-2.23l-3.56-3.91c-.52-.58-.21-1.51.55-1.65l4.89-.92c.85-.16,1.57-.7,1.96-1.47l2.26-4.49c.18-.36.53-.55.89-.55M15,0C13.03,0,11.25,1.09,10.36,2.86l-1.94,3.85-4.19.78c-1.85.35-3.37,1.67-3.97,3.46-.6,1.79-.18,3.76,1.09,5.15l3.11,3.42-.61,4.61c-.2,1.48.26,2.98,1.24,4.1.99,1.13,2.41,1.77,3.91,1.77.82,0,1.64-.2,2.38-.58l3.62-1.86,3.62,1.86c.73.38,1.56.58,2.38.58,1.49,0,2.92-.65,3.91-1.77.98-1.12,1.44-2.62,1.24-4.1l-.61-4.61,3.11-3.42c1.27-1.39,1.68-3.36,1.09-5.15-.6-1.78-2.12-3.11-3.97-3.45l-4.19-.78-1.94-3.85C18.75,1.09,16.97,0,15,0h0Z"/>
</svg>