<?xml version="1.0" encoding="UTF-8"?>
<svg id="Layer_1" xmlns="http://www.w3.org/2000/svg" version="1.1" viewBox="0 0 99 99">
  <!-- Generator: Adobe Illustrator 30.1.0, SVG Export Plug-In . SVG Version: 2.1.1 Build 136)  -->
  <path d="M49.5,10.36c1.27,0,2.54.66,3.21,1.98l8.19,16.25c1.4,2.79,4.03,4.76,7.09,5.34l17.71,3.32c2.77.52,3.89,3.89,1.99,5.97l-12.91,14.16c-1.99,2.19-2.92,5.14-2.53,8.07l2.52,19.09c.3,2.28-1.51,4.08-3.56,4.08-.54,0-1.1-.13-1.64-.41l-15.49-7.98c-1.44-.74-3.01-1.11-4.58-1.11-1.57,0-3.14.37-4.58,1.11l-15.49,7.98c-.54.28-1.1.41-1.64.41-2.05,0-3.86-1.8-3.56-4.08l2.52-19.1c.39-2.93-.54-5.88-2.53-8.06l-12.91-14.16c-1.9-2.09-.78-5.45,1.99-5.97l17.71-3.32c3.06-.57,5.68-2.55,7.09-5.33l8.19-16.26c.66-1.32,1.94-1.98,3.21-1.98M49.5,0c-5.3,0-10.08,2.94-12.47,7.68l-8.11,16.1-17.53,3.29c-4.97.93-9.06,4.49-10.67,9.29-1.61,4.8-.49,10.11,2.92,13.85l12.8,14.04-2.5,18.95c-.53,3.99.69,8.01,3.33,11.03,2.66,3.03,6.49,4.77,10.51,4.77,2.2,0,4.41-.54,6.39-1.56l15.32-7.89,15.32,7.89c1.98,1.02,4.18,1.56,6.39,1.56,4.02,0,7.84-1.74,10.5-4.77,2.64-3.02,3.86-7.04,3.33-11.03l-2.5-18.95,12.8-14.05c3.41-3.74,4.53-9.05,2.92-13.85-1.61-4.8-5.69-8.36-10.66-9.29l-17.53-3.29-8.11-16.1c-2.39-4.74-7.16-7.68-12.47-7.68h0Z"/>
</svg>