<?xml version="1.0" encoding="UTF-8"?>
<svg id="Layer_1" xmlns="http://www.w3.org/2000/svg" version="1.1" viewBox="0 0 87 87">
  <!-- Generator: Adobe Illustrator 30.1.0, SVG Export Plug-In . SVG Version: 2.1.1 Build 136)  -->
  <g>
    <g>
      <rect x="40.32" y="25.35" width="6.37" height="6.37"/>
      <path d="M45.46,26.57v3.92h-3.92v-3.92h3.92M47.91,24.12h-8.81v8.81h8.81v-8.81h0Z"/>
    </g>
    <g>
      <polygon points="36.4 60.92 36.4 54.55 40.32 54.55 40.32 44.76 36.4 44.76 36.4 38.39 46.68 38.39 46.68 54.55 50.6 54.55 50.6 60.92 36.4 60.92"/>
      <path d="M45.46,39.62v16.16h3.92v3.92h-11.76v-3.92h3.92v-12.24h-3.92v-3.92h7.84M47.91,37.17h-12.73v8.81h3.92v7.34h-3.92v8.81h16.65v-8.81h-3.92v-16.16h0Z"/>
    </g>
  </g>
  <circle id="Outer" cx="43.5" cy="43.5" r="35.87" fill="none" stroke="#000" stroke-width="15.25"/>
</svg>