<?xml version="1.0" encoding="UTF-8"?>
<svg id="Layer_1" xmlns="http://www.w3.org/2000/svg" version="1.1" viewBox="0 0 54 54">
  <!-- Generator: Adobe Illustrator 30.1.0, SVG Export Plug-In . SVG Version: 2.1.1 Build 136)  -->
  <path d="M27,5.65c.69,0,1.39.36,1.75,1.08l4.47,8.87c.77,1.52,2.2,2.6,3.87,2.91l9.66,1.81c1.51.28,2.12,2.12,1.09,3.26l-7.04,7.72c-1.09,1.19-1.59,2.8-1.38,4.4l1.37,10.42c.16,1.24-.83,2.23-1.94,2.23-.3,0-.6-.07-.9-.22l-8.45-4.35c-.78-.4-1.64-.61-2.5-.61-.86,0-1.71.2-2.5.61l-8.45,4.35c-.29.15-.6.22-.9.22-1.12,0-2.11-.98-1.94-2.23l1.37-10.42c.21-1.6-.29-3.21-1.38-4.4l-7.04-7.73c-1.04-1.14-.42-2.98,1.09-3.26l9.66-1.81c1.67-.31,3.1-1.39,3.87-2.91l4.47-8.87c.36-.72,1.06-1.08,1.75-1.08M27,0C24.11,0,21.5,1.61,20.2,4.19l-4.42,8.78-9.56,1.79c-2.71.51-4.94,2.45-5.82,5.07-.88,2.62-.27,5.51,1.59,7.56l6.98,7.66-1.36,10.33c-.29,2.18.38,4.37,1.82,6.02,1.45,1.65,3.54,2.6,5.73,2.6,1.2,0,2.41-.29,3.48-.85l8.36-4.3,8.36,4.3c1.08.56,2.28.85,3.48.85,2.19,0,4.28-.95,5.73-2.6,1.44-1.65,2.11-3.84,1.82-6.02l-1.36-10.33,6.98-7.66c1.86-2.04,2.47-4.94,1.59-7.55-.88-2.62-3.11-4.56-5.82-5.07l-9.56-1.79-4.42-8.78C32.5,1.61,29.89,0,27,0h0Z"/>
</svg>