<?xml version="1.0" encoding="UTF-8"?>
<svg id="Layer_1" xmlns="http://www.w3.org/2000/svg" version="1.1" viewBox="0 0 54 54">
  <!-- Generator: Adobe Illustrator 30.1.0, SVG Export Plug-In . SVG Version: 2.1.1 Build 136)  -->
  <path d="M27,9.47c.57,0,1.14.3,1.44.89l3.67,7.28c.63,1.25,1.8,2.13,3.18,2.39l7.94,1.49c1.24.23,1.74,1.74.89,2.67l-5.78,6.34c-.89.98-1.31,2.3-1.13,3.62l1.13,8.55c.13,1.02-.68,1.83-1.6,1.83-.24,0-.49-.06-.74-.18l-6.94-3.57c-.64-.33-1.35-.5-2.05-.5s-1.41.17-2.05.5l-6.94,3.57c-.24.12-.49.18-.74.18-.92,0-1.73-.81-1.6-1.83l1.13-8.56c.17-1.31-.24-2.64-1.13-3.61l-5.78-6.34c-.85-.93-.35-2.44.89-2.68l7.93-1.49c1.37-.26,2.55-1.14,3.17-2.39l3.67-7.28c.3-.59.87-.89,1.44-.89M27,0C22.79,0,19,2.34,17.11,6.09l-2.56,5.08-5.51,1.03c-3.95.74-7.19,3.56-8.46,7.37-1.28,3.81-.39,8.02,2.32,10.99l4.22,4.63-.83,6.27c-.42,3.17.55,6.36,2.65,8.75,2.11,2.4,5.14,3.78,8.33,3.78,1.75,0,3.51-.43,5.07-1.23l4.66-2.4,4.66,2.4c1.57.81,3.32,1.23,5.07,1.23,3.19,0,6.23-1.38,8.33-3.78,2.1-2.4,3.07-5.59,2.65-8.75l-.83-6.27,4.23-4.64c2.7-2.97,3.59-7.18,2.32-10.99-1.28-3.81-4.52-6.63-8.46-7.37l-5.51-1.03-2.56-5.08C35,2.34,31.21,0,27,0h0Z"/>
</svg>