<?xml version="1.0" encoding="UTF-8"?>
<svg id="Layer_1" xmlns="http://www.w3.org/2000/svg" version="1.1" viewBox="0 0 54 54">
  <!-- Generator: Adobe Illustrator 30.1.0, SVG Export Plug-In . SVG Version: 2.1.1 Build 136)  -->
  <path d="M27,7.56c.63,0,1.26.33,1.59.98l4.07,8.07c.7,1.39,2,2.37,3.52,2.65l8.8,1.65c1.38.26,1.93,1.93.99,2.97l-6.41,7.03c-.99,1.09-1.45,2.55-1.26,4.01l1.25,9.48c.15,1.13-.75,2.03-1.77,2.03-.27,0-.55-.06-.82-.2l-7.7-3.96c-.71-.37-1.49-.55-2.27-.55s-1.56.18-2.27.55l-7.7,3.96c-.27.14-.55.2-.82.2-1.02,0-1.92-.9-1.77-2.03l1.25-9.49c.19-1.46-.27-2.92-1.26-4.01l-6.41-7.03c-.94-1.04-.39-2.71.99-2.97l8.8-1.65c1.52-.29,2.82-1.26,3.52-2.65l4.07-8.07c.33-.66.96-.98,1.59-.98M27,0C23.45,0,20.25,1.97,18.65,5.14l-3.49,6.93-7.53,1.41c-3.33.62-6.06,3.01-7.14,6.22-1.08,3.21-.33,6.77,1.96,9.27l5.6,6.15-1.09,8.3c-.35,2.67.46,5.36,2.23,7.38,1.78,2.03,4.34,3.19,7.03,3.19,1.48,0,2.96-.36,4.28-1.04l6.51-3.35,6.51,3.35c1.32.68,2.8,1.04,4.28,1.04,2.69,0,5.25-1.16,7.03-3.19,1.77-2.02,2.59-4.71,2.23-7.38l-1.09-8.3,5.6-6.15c2.28-2.5,3.03-6.06,1.95-9.27-1.08-3.21-3.81-5.59-7.14-6.22l-7.54-1.41-3.49-6.93C33.75,1.97,30.55,0,27,0h0Z"/>
</svg>