<?xml version="1.0" encoding="UTF-8"?>
<svg id="Layer_1" xmlns="http://www.w3.org/2000/svg" version="1.1" viewBox="0 0 79 79">
  <!-- Generator: Adobe Illustrator 30.1.0, SVG Export Plug-In . SVG Version: 2.1.1 Build 136)  -->
  <path d="M39.5,13.85c.83,0,1.67.43,2.1,1.3l5.37,10.65c.92,1.83,2.64,3.12,4.65,3.5l11.61,2.18c1.82.34,2.55,2.55,1.31,3.91l-8.46,9.28c-1.31,1.43-1.91,3.37-1.66,5.29l1.65,12.52c.2,1.49-.99,2.68-2.34,2.68-.36,0-.72-.08-1.08-.27l-10.15-5.23c-.94-.48-1.97-.73-3-.73s-2.06.24-3,.73l-10.15,5.23c-.35.18-.72.27-1.08.27-1.34,0-2.53-1.18-2.34-2.68l1.65-12.52c.25-1.92-.35-3.86-1.66-5.29l-8.46-9.28c-1.25-1.37-.51-3.58,1.31-3.92l11.61-2.18c2.01-.38,3.72-1.67,4.64-3.5l5.37-10.65c.44-.86,1.27-1.3,2.1-1.3M39.5,0c-6.16,0-11.7,3.42-14.47,8.92l-3.74,7.43-8.06,1.51c-5.77,1.08-10.52,5.21-12.38,10.78-1.87,5.57-.57,11.73,3.39,16.07l6.18,6.78-1.21,9.17c-.61,4.63.8,9.3,3.87,12.8,3.08,3.52,7.53,5.53,12.19,5.53,2.56,0,5.13-.62,7.42-1.8l6.81-3.51,6.81,3.51c2.29,1.18,4.85,1.8,7.42,1.8,4.66,0,9.11-2.02,12.19-5.53,3.07-3.51,4.49-8.17,3.87-12.8l-1.21-9.17,6.18-6.78c3.96-4.34,5.26-10.5,3.39-16.07-1.87-5.57-6.61-9.7-12.38-10.78l-8.06-1.51-3.74-7.43C51.2,3.42,45.66,0,39.5,0h0Z"/>
</svg>