<?xml version="1.0" encoding="UTF-8"?>
<svg id="Layer_1" xmlns="http://www.w3.org/2000/svg" version="1.1" viewBox="0 0 79 79">
  <!-- Generator: Adobe Illustrator 30.1.0, SVG Export Plug-In . SVG Version: 2.1.1 Build 136)  -->
  <path d="M39.5,11.06c.92,0,1.85.48,2.33,1.44l5.95,11.81c1.02,2.03,2.93,3.46,5.15,3.88l12.87,2.41c2.01.38,2.83,2.82,1.45,4.34l-9.38,10.29c-1.45,1.59-2.12,3.74-1.84,5.87l1.83,13.88c.22,1.66-1.1,2.97-2.59,2.97-.39,0-.8-.09-1.19-.29l-11.26-5.8c-1.04-.54-2.18-.81-3.33-.81s-2.28.27-3.33.81l-11.26,5.8c-.39.2-.8.29-1.19.29-1.49,0-2.81-1.31-2.59-2.97l1.83-13.88c.28-2.13-.39-4.27-1.84-5.86l-9.38-10.29c-1.38-1.52-.56-3.96,1.45-4.34l12.87-2.41c2.23-.42,4.13-1.85,5.15-3.88l5.95-11.81c.48-.96,1.41-1.44,2.33-1.44M39.5,0C34.31,0,29.63,2.88,27.29,7.52l-5.11,10.14-11.02,2.07c-4.87.91-8.87,4.4-10.45,9.1-1.58,4.7-.48,9.9,2.86,13.56l8.2,8.99-1.6,12.14c-.52,3.91.68,7.85,3.27,10.8,2.6,2.97,6.35,4.67,10.29,4.67,2.16,0,4.32-.53,6.26-1.52l9.52-4.9,9.52,4.9c1.93,1,4.1,1.52,6.26,1.52,3.93,0,7.68-1.7,10.29-4.67,2.59-2.96,3.78-6.89,3.27-10.8l-1.6-12.14,8.2-9c3.34-3.66,4.43-8.86,2.86-13.56-1.57-4.7-5.58-8.18-10.45-9.1l-11.03-2.07-5.11-10.14C49.37,2.88,44.69,0,39.5,0h0Z"/>
</svg>