<?xml version="1.0" encoding="UTF-8"?>
<svg id="Layer_1" xmlns="http://www.w3.org/2000/svg" version="1.1" viewBox="0 0 54 54">
  <!-- Generator: Adobe Illustrator 30.1.0, SVG Export Plug-In . SVG Version: 2.1.1 Build 136)  -->
  <circle id="Outer" cx="27" cy="27" r="24.17" fill="none" stroke="#000" stroke-width="5.65"/>
  <g>
    <g>
      <rect x="25.29" y="35.55" width="3.38" height="3.38"/>
      <path d="M28.25,35.98v2.54h-2.54v-2.54h2.54M29.1,35.13h-4.22v4.22h4.22v-4.22h0Z"/>
    </g>
    <g>
      <path d="M25.3,31.88v-1.38c0-1.31.48-2.56,1.35-3.53l2.51-2.78c.62-.68.96-1.57.96-2.48,0-1.27-1.04-2.3-2.32-2.3h-1.61c-1.28,0-2.32,1.03-2.32,2.3v.42h-3.4v-.42c0-3.13,2.56-5.68,5.72-5.68h1.61c3.15,0,5.72,2.55,5.72,5.68,0,1.75-.65,3.44-1.83,4.74l-2.51,2.78c-.32.36-.5.8-.5,1.26v1.38h-3.39Z"/>
      <path d="M27.81,16.45c2.92,0,5.3,2.36,5.3,5.26,0,1.65-.61,3.23-1.72,4.46l-2.51,2.78c-.39.43-.6.97-.61,1.54v.96h-2.55v-.96c0-1.2.44-2.35,1.25-3.24l2.51-2.78c.69-.76,1.07-1.74,1.07-2.77,0-1.5-1.23-2.72-2.74-2.72h-1.61c-1.51,0-2.74,1.22-2.74,2.72h-2.56c0-2.9,2.38-5.26,5.3-5.26h1.61M27.81,15.61h-1.61c-3.39,0-6.14,2.74-6.14,6.1v.84h4.25v-.84c0-1.03.85-1.87,1.89-1.87h1.61c1.04,0,1.89.84,1.89,1.87,0,.81-.3,1.59-.85,2.2l-2.51,2.78c-.94,1.04-1.47,2.4-1.47,3.8v.97s.02.84.02.84h4.21v-.84s.02-.96.02-.96c0-.37.14-.71.39-.99l2.51-2.78c1.25-1.38,1.94-3.17,1.94-5.03,0-3.36-2.75-6.1-6.14-6.1h0Z"/>
    </g>
  </g>
</svg>