<?xml version="1.0" encoding="UTF-8"?>
<svg id="Layer_1" xmlns="http://www.w3.org/2000/svg" version="1.1" viewBox="0 0 54 54">
  <!-- Generator: Adobe Illustrator 30.1.0, SVG Export Plug-In . SVG Version: 2.1.1 Build 136)  -->
  <circle id="Outer" cx="27" cy="27" r="23.22" fill="none" stroke="#000" stroke-width="7.56"/>
  <g>
    <g>
      <rect x="25.29" y="34.83" width="3.39" height="3.39"/>
      <path d="M28.09,35.42v2.21h-2.21v-2.21h2.21M29.27,34.24h-4.57v4.57h4.57v-4.57h0Z"/>
    </g>
    <g>
      <path d="M25.3,31.3v-1.42c0-1.2.44-2.34,1.24-3.23l2.19-2.43c.5-.56.78-1.27.78-2.02,0-.98-.81-1.78-1.8-1.78h-1.41c-.99,0-1.8.8-1.8,1.78v.59h-3.41v-.59c0-2.85,2.34-5.18,5.21-5.18h1.41c2.87,0,5.21,2.32,5.21,5.18,0,1.58-.59,3.11-1.65,4.29l-2.19,2.43c-.25.27-.38.6-.38.95l-.02,1.43h-3.38Z"/>
      <path d="M27.7,17.62c2.55,0,4.62,2.06,4.62,4.59,0,1.44-.53,2.82-1.5,3.89l-2.19,2.43c-.34.38-.53.84-.53,1.35v.84h-2.22v-.84c0-1.05.38-2.05,1.09-2.83l2.19-2.43c.6-.66.93-1.52.93-2.41,0-1.31-1.07-2.37-2.39-2.37h-1.41c-1.32,0-2.39,1.06-2.39,2.37h-2.23c0-2.53,2.07-4.59,4.62-4.59h1.41M27.7,16.44h-1.41c-3.2,0-5.8,2.59-5.8,5.77v1.18h4.59v-1.18c0-.66.54-1.19,1.21-1.19h1.41c.66,0,1.21.53,1.21,1.19,0,.6-.22,1.17-.63,1.62l-2.19,2.43c-.9.99-1.39,2.28-1.4,3.61v.85s.02,1.17.02,1.17h4.55v-1.17s.02-.84.02-.84c0-.22.08-.4.22-.57l2.19-2.43c1.16-1.29,1.8-2.95,1.8-4.68,0-3.18-2.6-5.77-5.8-5.77h0Z"/>
    </g>
  </g>
</svg>