<?xml version="1.0" encoding="UTF-8"?>
<svg id="Layer_1" xmlns="http://www.w3.org/2000/svg" version="1.1" viewBox="0 0 39 39">
  <!-- Generator: Adobe Illustrator 30.1.0, SVG Export Plug-In . SVG Version: 2.1.1 Build 136)  -->
  <path d="M19.5,5.46c.46,0,.91.24,1.15.71l2.94,5.83c.5,1,1.44,1.71,2.54,1.91l6.35,1.19c.99.19,1.4,1.39.71,2.14l-4.63,5.08c-.71.78-1.05,1.84-.91,2.9l.9,6.85c.11.82-.54,1.46-1.28,1.46-.19,0-.4-.05-.59-.15l-5.56-2.86c-.52-.27-1.08-.4-1.64-.4s-1.13.13-1.64.4l-5.56,2.86c-.19.1-.39.15-.59.15-.73,0-1.39-.65-1.28-1.46l.9-6.85c.14-1.05-.19-2.11-.91-2.89l-4.63-5.08c-.68-.75-.28-1.96.72-2.14l6.35-1.19c1.1-.21,2.04-.91,2.54-1.91l2.94-5.83c.24-.47.7-.71,1.15-.71M19.5,0C16.94,0,14.63,1.42,13.47,3.71l-2.52,5.01-5.44,1.02c-2.4.45-4.38,2.17-5.16,4.49-.78,2.32-.24,4.89,1.41,6.7l4.05,4.44-.79,5.99c-.25,1.93.33,3.87,1.61,5.33,1.28,1.47,3.14,2.31,5.08,2.31,1.07,0,2.13-.26,3.09-.75l4.7-2.42,4.7,2.42c.95.49,2.02.75,3.09.75,1.94,0,3.79-.84,5.08-2.31,1.28-1.46,1.87-3.4,1.61-5.33l-.79-5.99,4.05-4.44c1.65-1.81,2.19-4.37,1.41-6.69-.78-2.32-2.75-4.04-5.16-4.49l-5.44-1.02-2.52-5.01C24.37,1.42,22.06,0,19.5,0h0Z"/>
</svg>