<?xml version="1.0" encoding="UTF-8"?>
<svg id="Layer_1" xmlns="http://www.w3.org/2000/svg" version="1.1" viewBox="0 0 39 39">
  <!-- Generator: Adobe Illustrator 30.1.0, SVG Export Plug-In . SVG Version: 2.1.1 Build 136)  -->
  <path d="M19.5,4.08c.5,0,1,.26,1.26.78l3.23,6.4c.55,1.1,1.59,1.88,2.79,2.1l6.98,1.31c1.09.2,1.53,1.53.79,2.35l-5.08,5.58c-.78.86-1.15,2.02-1,3.18l.99,7.52c.12.9-.6,1.61-1.4,1.61-.21,0-.43-.05-.65-.16l-6.1-3.14c-.57-.29-1.18-.44-1.8-.44-.62,0-1.24.15-1.8.44l-6.1,3.14c-.21.11-.43.16-.65.16-.81,0-1.52-.71-1.4-1.61l.99-7.52c.15-1.15-.21-2.32-1-3.18l-5.08-5.58c-.75-.82-.31-2.15.79-2.35l6.98-1.31c1.21-.23,2.24-1,2.79-2.1l3.23-6.4c.26-.52.76-.78,1.26-.78M19.5,0C17.41,0,15.53,1.16,14.59,3.03l-3.19,6.34-6.91,1.29c-1.96.37-3.57,1.77-4.2,3.66-.63,1.89-.19,3.98,1.15,5.46l5.04,5.53-.98,7.46c-.21,1.57.27,3.16,1.31,4.34,1.05,1.2,2.56,1.88,4.14,1.88.87,0,1.74-.21,2.52-.61l6.04-3.11,6.04,3.11c.78.4,1.65.61,2.52.61,1.58,0,3.09-.69,4.14-1.88,1.04-1.19,1.52-2.77,1.31-4.34l-.98-7.46,5.04-5.53c1.34-1.47,1.78-3.56,1.15-5.46-.63-1.89-2.24-3.29-4.2-3.66l-6.91-1.29-3.19-6.34C23.47,1.16,21.59,0,19.5,0h0Z"/>
</svg>