<?xml version="1.0" encoding="UTF-8"?>
<svg id="Layer_1" xmlns="http://www.w3.org/2000/svg" version="1.1" viewBox="0 0 108 108">
  <!-- Generator: Adobe Illustrator 30.1.0, SVG Export Plug-In . SVG Version: 2.1.1 Build 136)  -->
  <circle id="Outer" cx="54" cy="54" r="46.44" fill="none" stroke="#000" stroke-width="15.12"/>
  <g>
    <g>
      <rect x="50.58" y="69.66" width="6.79" height="6.79"/>
      <path d="M56.18,70.85v4.42h-4.42v-4.42h4.42M58.54,68.48h-9.15v9.15h9.15v-9.15h0Z"/>
    </g>
    <g>
      <path d="M50.59,62.6l-.02-2.84c0-2.4.89-4.69,2.5-6.46l4.38-4.85c1-1.11,1.55-2.54,1.55-4.03,0-1.96-1.61-3.56-3.59-3.56h-2.81c-1.98,0-3.59,1.6-3.59,3.56v1.18h-6.82v-1.18c0-5.71,4.67-10.35,10.42-10.35h2.81c5.74,0,10.42,4.64,10.42,10.35,0,3.17-1.17,6.21-3.3,8.57l-4.38,4.85c-.49.54-.75,1.2-.75,1.91l-.03,2.85h-6.76Z"/>
      <path d="M55.41,35.25c5.09,0,9.24,4.11,9.24,9.17,0,2.88-1.07,5.64-3,7.78l-4.38,4.85c-.68.75-1.05,1.68-1.06,2.69l-.02,1.67h-4.42v-1.67c0-2.1.77-4.09,2.18-5.65l4.38-4.85c1.2-1.33,1.86-3.04,1.86-4.82,0-2.61-2.14-4.74-4.77-4.74h-2.81c-2.63,0-4.77,2.13-4.77,4.74h-4.46c0-5.06,4.14-9.17,9.24-9.17h2.81M55.41,32.88h-2.81c-6.4,0-11.6,5.17-11.6,11.53v2.36h9.19v-2.36c0-1.31,1.08-2.38,2.41-2.38h2.81c1.33,0,2.41,1.07,2.41,2.38,0,1.2-.44,2.35-1.25,3.24l-4.38,4.85c-1.8,1.98-2.79,4.55-2.8,7.23v1.7s.04,2.34.04,2.34h9.1l.02-2.34.02-1.67c0-.43.15-.81.45-1.13l4.38-4.86c2.33-2.58,3.61-5.9,3.61-9.36,0-6.36-5.2-11.53-11.6-11.53h0Z"/>
    </g>
  </g>
</svg>