<?xml version="1.0" encoding="UTF-8"?>
<svg id="Layer_1" xmlns="http://www.w3.org/2000/svg" version="1.1" viewBox="0 0 108 108">
  <!-- Generator: Adobe Illustrator 30.1.0, SVG Export Plug-In . SVG Version: 2.1.1 Build 136)  -->
  <circle id="Outer" cx="54" cy="54" r="44.53" fill="none" stroke="#000" stroke-width="18.93"/>
  <g>
    <g>
      <rect x="50.55" y="68.2" width="6.84" height="6.84"/>
      <path d="M55.87,69.72v3.8h-3.8v-3.8h3.8M58.91,66.68h-9.88v9.88h9.88v-9.88h0Z"/>
    </g>
    <g>
      <path d="M50.57,61.53l-.03-2.94c0-2.19.82-4.28,2.28-5.9l3.77-4.17c.78-.86,1.21-1.98,1.21-3.13,0-1.41-1.16-2.56-2.59-2.56h-2.42c-1.43,0-2.59,1.15-2.59,2.56v1.52h-6.88v-1.52c0-5.19,4.25-9.41,9.46-9.41h2.42c5.22,0,9.46,4.22,9.46,9.41,0,2.85-1.05,5.59-2.97,7.71l-3.77,4.18c-.34.38-.52.82-.52,1.3l-.03,2.95h-6.81Z"/>
      <path d="M55.21,37.5c4.38,0,7.94,3.54,7.94,7.89,0,2.48-.92,4.85-2.58,6.69l-3.77,4.18c-.58.65-.91,1.45-.91,2.32v1.44h-3.82v-1.44c0-1.8.66-3.52,1.87-4.86l3.77-4.17c1.03-1.14,1.6-2.62,1.6-4.15,0-2.25-1.84-4.08-4.11-4.08h-2.42c-2.26,0-4.11,1.83-4.11,4.08h-3.84c0-4.35,3.56-7.89,7.94-7.89h2.42M55.21,34.46h-2.42c-6.06,0-10.98,4.9-10.98,10.93v3.04h9.91v-3.04c0-.57.48-1.04,1.07-1.04h2.42c.59,0,1.07.47,1.07,1.04,0,.78-.29,1.53-.82,2.11l-3.77,4.17c-1.71,1.89-2.66,4.34-2.67,6.89v1.48s.04,3.01.04,3.01h9.82l.03-3.01v-1.44c.01-.1.03-.19.14-.31l3.77-4.18c2.17-2.4,3.36-5.5,3.36-8.73,0-6.02-4.93-10.93-10.98-10.93h0Z"/>
    </g>
  </g>
</svg>