<?xml version="1.0" encoding="UTF-8"?>
<svg id="Layer_1" xmlns="http://www.w3.org/2000/svg" version="1.1" viewBox="0 0 108 108">
  <!-- Generator: Adobe Illustrator 30.1.0, SVG Export Plug-In . SVG Version: 2.1.1 Build 136)  -->
  <circle id="Outer" cx="54" cy="54" r="48.35" fill="none" stroke="#000" stroke-width="11.31"/>
  <g>
    <g>
      <rect x="50.59" y="71.11" width="6.76" height="6.76"/>
      <path d="M56.5,71.95v5.07h-5.07v-5.07h5.07M58.19,70.27h-8.45v8.45h8.45v-8.45h0Z"/>
    </g>
    <g>
      <path d="M50.6,63.76l-.02-2.75c0-2.62.98-5.12,2.73-7.06l5.02-5.56c1.24-1.37,1.92-3.13,1.92-4.97,0-2.53-2.08-4.59-4.63-4.59h-3.23c-2.55,0-4.63,2.06-4.63,4.59v.84h-6.8v-.84c0-6.26,5.13-11.36,11.44-11.36h3.23c6.3,0,11.43,5.1,11.43,11.36,0,3.51-1.3,6.88-3.66,9.49l-5.02,5.57c-.65.72-.99,1.59-1,2.53l-.03,2.76h-6.74Z"/>
      <path d="M55.61,32.9c5.84,0,10.59,4.72,10.59,10.52,0,3.3-1.22,6.47-3.44,8.92l-5.02,5.57c-.78.86-1.21,1.93-1.21,3.09l-.02,1.92h-5.07l-.02-1.92c0-2.4.89-4.69,2.51-6.48l5.02-5.56c1.38-1.52,2.13-3.49,2.13-5.53,0-3-2.46-5.44-5.47-5.44h-3.23c-3.02,0-5.47,2.44-5.47,5.44h-5.12c0-5.8,4.75-10.52,10.59-10.52h3.23M55.61,31.21h-3.23c-6.77,0-12.28,5.47-12.28,12.2v1.69h8.49v-1.69c0-2.07,1.7-3.75,3.79-3.75h3.23c2.09,0,3.79,1.68,3.79,3.75,0,1.63-.6,3.19-1.7,4.4l-5.02,5.56c-1.89,2.09-2.94,4.79-2.95,7.61l.02,1.94v1.67h8.43l.02-1.67.02-1.92c0-.74.27-1.41.78-1.97l5.03-5.57c2.5-2.77,3.87-6.34,3.87-10.05,0-6.73-5.51-12.2-12.28-12.2h0Z"/>
    </g>
  </g>
</svg>