<?xml version="1.0" encoding="UTF-8"?>
<svg id="Layer_1" xmlns="http://www.w3.org/2000/svg" version="1.1" viewBox="0 0 88 88">
  <!-- Generator: Adobe Illustrator 30.1.0, SVG Export Plug-In . SVG Version: 2.1.1 Build 136)  -->
  <g>
    <g>
      <rect x="40.78" y="25.64" width="6.44" height="6.44"/>
      <path d="M45.98,26.88v3.97h-3.97v-3.97h3.97M48.46,24.4h-8.92v8.92h8.92v-8.92h0Z"/>
    </g>
    <g>
      <polygon points="36.82 61.62 36.82 55.18 40.78 55.18 40.78 45.27 36.82 45.27 36.82 38.83 47.22 38.83 47.22 55.18 51.18 55.18 51.18 61.62 36.82 61.62"/>
      <path d="M45.98,40.07v16.34h3.96v3.96h-11.89v-3.96h3.96v-12.38h-3.96v-3.96h7.93M48.46,37.6h-12.88v8.91h3.96v7.43h-3.96v8.91h16.84v-8.91h-3.96v-16.34h0Z"/>
    </g>
  </g>
  <circle id="Outer" cx="44" cy="44" r="36.29" fill="none" stroke="#000" stroke-width="15.43"/>
</svg>