<?xml version="1.0" encoding="UTF-8"?>
<svg id="Layer_1" xmlns="http://www.w3.org/2000/svg" version="1.1" viewBox="0 0 88 88">
  <!-- Generator: Adobe Illustrator 30.1.0, SVG Export Plug-In . SVG Version: 2.1.1 Build 136)  -->
  <g>
    <g>
      <rect x="40.88" y="23.4" width="6.24" height="6.24"/>
      <path d="M46.43,24.09v4.87h-4.87v-4.87h4.87M47.81,22.72h-7.62v7.62h7.62v-7.62h0Z"/>
    </g>
    <g>
      <polygon points="36.01 64.33 36.01 58.09 40.88 58.09 40.88 44.28 36.01 44.28 36.01 38.04 47.12 38.04 47.12 58.09 51.99 58.09 51.99 64.33 36.01 64.33"/>
      <path d="M46.43,38.73v20.05h4.87v4.87h-14.6v-4.87h4.87v-15.19h-4.87v-4.87h9.73M47.81,37.35h-12.48v7.62h4.87v12.44h-4.87v7.62h17.35v-7.62h-4.87v-20.05h0Z"/>
    </g>
  </g>
  <circle id="Outer" cx="44" cy="44" r="39.39" fill="none" stroke="#000" stroke-width="9.21"/>
</svg>