<?xml version="1.0" encoding="UTF-8"?>
<svg id="Layer_1" xmlns="http://www.w3.org/2000/svg" version="1.1" viewBox="0 0 88 88">
  <!-- Generator: Adobe Illustrator 30.1.0, SVG Export Plug-In . SVG Version: 2.1.1 Build 136)  -->
  <g>
    <g>
      <rect x="40.83" y="24.52" width="6.34" height="6.34"/>
      <path d="M46.21,25.49v4.41h-4.41v-4.41h4.41M48.13,23.56h-8.26v8.26h8.26v-8.26h0Z"/>
    </g>
    <g>
      <polygon points="36.42 62.96 36.42 56.63 40.83 56.63 40.83 44.78 36.42 44.78 36.42 38.45 47.17 38.45 47.17 56.63 51.58 56.63 51.58 62.96 36.42 62.96"/>
      <path d="M46.21,39.41v18.18h4.41v4.41h-13.23v-4.41h4.41v-13.77h-4.41v-4.41h8.82M48.13,37.48h-12.67v8.26h4.41v9.92h-4.41v8.26h17.08v-8.26h-4.41v-18.18h0Z"/>
    </g>
  </g>
  <circle id="Outer" cx="44" cy="44" r="37.84" fill="none" stroke="#000" stroke-width="12.32"/>
</svg>