<?xml version="1.0" encoding="UTF-8"?>
<svg id="Layer_1" xmlns="http://www.w3.org/2000/svg" version="1.1" viewBox="0 0 57 57">
  <!-- Generator: Adobe Illustrator 30.1.0, SVG Export Plug-In . SVG Version: 2.1.1 Build 136)  -->
  <path d="M28.5,7.98c.67,0,1.33.35,1.68,1.04l4.29,8.52c.74,1.46,2.11,2.5,3.72,2.8l9.29,1.74c1.45.27,2.04,2.04,1.04,3.13l-6.77,7.43c-1.04,1.15-1.53,2.7-1.33,4.23l1.32,10.01c.16,1.19-.79,2.14-1.87,2.14-.28,0-.58-.07-.86-.21l-8.12-4.18c-.75-.39-1.58-.58-2.4-.58s-1.65.19-2.4.58l-8.12,4.18c-.28.15-.58.21-.86.21-1.07,0-2.03-.95-1.87-2.14l1.32-10.02c.2-1.54-.28-3.08-1.33-4.23l-6.77-7.43c-1-1.09-.41-2.86,1.05-3.13l9.29-1.74c1.61-.3,2.98-1.33,3.72-2.8l4.29-8.52c.35-.69,1.02-1.04,1.68-1.04M28.5,0C24.75,0,21.38,2.08,19.69,5.43l-3.69,7.32-7.95,1.49c-3.51.66-6.4,3.17-7.54,6.56-1.14,3.39-.35,7.14,2.06,9.79l5.91,6.49-1.16,8.76c-.37,2.82.49,5.66,2.36,7.79,1.88,2.14,4.58,3.37,7.42,3.37,1.56,0,3.12-.38,4.52-1.1l6.87-3.54,6.87,3.54c1.39.72,2.96,1.1,4.52,1.1,2.84,0,5.54-1.23,7.42-3.37,1.87-2.13,2.73-4.97,2.36-7.79l-1.16-8.76,5.92-6.49c2.41-2.64,3.2-6.39,2.06-9.78-1.14-3.39-4.02-5.91-7.54-6.56l-7.96-1.49-3.69-7.32C35.62,2.08,32.25,0,28.5,0h0Z"/>
</svg>