<?xml version="1.0" encoding="UTF-8"?>
<svg id="Layer_1" xmlns="http://www.w3.org/2000/svg" version="1.1" viewBox="0 0 79 79">
  <!-- Generator: Adobe Illustrator 30.1.0, SVG Export Plug-In . SVG Version: 2.1.1 Build 136)  -->
  <g>
    <g>
      <rect x="36.66" y="22.01" width="5.69" height="5.69"/>
      <path d="M41.48,22.88v3.96h-3.96v-3.96h3.96M43.21,21.15h-7.42v7.42h7.42v-7.42h0Z"/>
    </g>
    <g>
      <polygon points="32.7 56.52 32.7 50.84 36.66 50.84 36.66 40.2 32.7 40.2 32.7 34.51 42.34 34.51 42.34 50.84 46.3 50.84 46.3 56.52 32.7 56.52"/>
      <path d="M41.48,35.38v16.32h3.96v3.96h-11.88v-3.96h3.96v-12.36h-3.96v-3.96h7.92M43.21,33.65h-11.38v7.42h3.96v8.91h-3.96v7.42h15.34v-7.42h-3.96v-16.32h0Z"/>
    </g>
  </g>
  <circle id="Outer" cx="39.5" cy="39.5" r="33.97" fill="none" stroke="#000" stroke-width="11.06"/>
</svg>