<?xml version="1.0" encoding="UTF-8"?>
<svg id="Layer_1" xmlns="http://www.w3.org/2000/svg" version="1.1" viewBox="0 0 72 72">
  <!-- Generator: Adobe Illustrator 30.1.0, SVG Export Plug-In . SVG Version: 2.1.1 Build 136)  -->
  <path d="M36,10.08c.84,0,1.69.44,2.13,1.31l5.42,10.76c.93,1.85,2.67,3.15,4.7,3.53l11.73,2.2c1.83.34,2.58,2.57,1.32,3.95l-8.55,9.38c-1.32,1.45-1.93,3.4-1.68,5.35l1.67,12.65c.2,1.51-1,2.7-2.36,2.7-.36,0-.73-.08-1.09-.27l-10.26-5.28c-.95-.49-1.99-.73-3.03-.73s-2.08.24-3.03.73l-10.26,5.28c-.36.18-.73.27-1.09.27-1.36,0-2.56-1.19-2.36-2.7l1.67-12.65c.26-1.94-.36-3.9-1.67-5.34l-8.55-9.38c-1.26-1.38-.51-3.61,1.32-3.96l11.73-2.2c2.03-.38,3.76-1.69,4.69-3.53l5.42-10.77c.44-.87,1.28-1.31,2.13-1.31M36,0C31.27,0,27,2.63,24.87,6.86l-4.66,9.24-10.05,1.88c-4.44.83-8.09,4.01-9.52,8.29-1.44,4.29-.44,9.02,2.61,12.36l7.47,8.2-1.46,11.07c-.47,3.56.62,7.15,2.98,9.84,2.37,2.71,5.79,4.26,9.38,4.26,1.97,0,3.94-.48,5.7-1.39l8.68-4.47,8.68,4.47c1.76.91,3.73,1.39,5.7,1.39,3.59,0,7-1.55,9.38-4.26,2.36-2.69,3.45-6.28,2.98-9.84l-1.46-11.07,7.47-8.2c3.04-3.34,4.04-8.08,2.61-12.36-1.43-4.28-5.08-7.46-9.52-8.29l-10.05-1.88-4.66-9.24C45,2.63,40.73,0,36,0h0Z"/>
</svg>