<?xml version="1.0" encoding="UTF-8"?>
<svg id="Layer_1" xmlns="http://www.w3.org/2000/svg" version="1.1" viewBox="0 0 38 38">
  <!-- Generator: Adobe Illustrator 30.1.0, SVG Export Plug-In . SVG Version: 2.1.1 Build 136)  -->
  <circle id="Outer" cx="19" cy="19" r="16.34" fill="none" stroke="#000" stroke-width="5.32"/>
  <g>
    <g>
      <rect x="17.8" y="24.51" width="2.39" height="2.39"/>
      <path d="M19.77,24.93v1.56h-1.56v-1.56h1.56M20.6,24.1h-3.22v3.22h3.22v-3.22h0Z"/>
    </g>
    <g>
      <path d="M17.8,22.03v-1c0-.84.31-1.65.87-2.27l1.54-1.71c.35-.39.55-.9.55-1.42,0-.69-.57-1.25-1.26-1.25h-.99c-.7,0-1.26.56-1.26,1.25v.42h-2.4v-.42c0-2.01,1.64-3.64,3.67-3.64h.99c2.02,0,3.67,1.63,3.67,3.64,0,1.12-.41,2.19-1.16,3.02l-1.54,1.71c-.17.19-.26.42-.26.67v1h-2.39Z"/>
      <path d="M19.5,12.4c1.79,0,3.25,1.45,3.25,3.23,0,1.01-.37,1.98-1.06,2.74l-1.54,1.71c-.24.26-.37.59-.37.95v.59h-1.56v-.59c0-.74.27-1.44.77-1.99l1.54-1.71c.42-.47.65-1.07.65-1.7,0-.92-.75-1.67-1.68-1.67h-.99c-.93,0-1.68.75-1.68,1.67h-1.57c0-1.78,1.46-3.23,3.25-3.23h.99M19.5,11.57h-.99c-2.25,0-4.08,1.82-4.08,4.06v.83h3.23v-.83c0-.46.38-.84.85-.84h.99c.47,0,.85.38.85.84,0,.42-.16.83-.44,1.14l-1.54,1.71c-.63.7-.98,1.6-.99,2.54v.6s.01.82.01.82h3.2v-.82s.01-.59.01-.59c0-.15.05-.28.16-.4l1.54-1.71c.82-.91,1.27-2.08,1.27-3.29,0-2.24-1.83-4.06-4.08-4.06h0Z"/>
    </g>
  </g>
</svg>