<?xml version="1.0" encoding="UTF-8"?>
<svg id="Layer_1" xmlns="http://www.w3.org/2000/svg" version="1.1" viewBox="0 0 38 38">
  <!-- Generator: Adobe Illustrator 30.1.0, SVG Export Plug-In . SVG Version: 2.1.1 Build 136)  -->
  <circle id="Outer" cx="19" cy="19" r="15.67" fill="none" stroke="#000" stroke-width="6.66"/>
  <g>
    <g>
      <rect x="17.79" y="24" width="2.41" height="2.41"/>
      <path d="M19.66,24.53v1.34h-1.34v-1.34h1.34M20.73,23.46h-3.48v3.48h3.48v-3.48h0Z"/>
    </g>
    <g>
      <path d="M17.79,21.65v-1.04c0-.77.28-1.51.79-2.07l1.33-1.47c.27-.3.42-.69.42-1.1,0-.5-.41-.9-.91-.9h-.85c-.5,0-.91.4-.91.9v.53h-2.42v-.53c0-1.83,1.49-3.31,3.33-3.31h.85c1.84,0,3.33,1.48,3.33,3.31,0,1-.37,1.97-1.04,2.71l-1.33,1.47c-.12.13-.18.29-.18.46v1.04h-2.41Z"/>
      <path d="M19.43,13.19c1.54,0,2.8,1.25,2.8,2.78,0,.87-.32,1.71-.91,2.36l-1.33,1.47c-.21.23-.32.51-.32.82v.51h-1.34v-.51c0-.63.23-1.24.66-1.71l1.33-1.47c.36-.4.56-.92.56-1.46,0-.79-.65-1.43-1.44-1.43h-.85c-.8,0-1.44.64-1.44,1.43h-1.35c0-1.53,1.25-2.78,2.8-2.78h.85M19.43,12.13h-.85c-2.13,0-3.86,1.72-3.86,3.84v1.07h3.49v-1.07c0-.2.17-.37.38-.37h.85c.21,0,.38.16.38.37,0,.27-.1.54-.29.74l-1.33,1.47c-.6.67-.94,1.53-.94,2.42v.52s.01,1.06.01,1.06h3.46v-1.06s.02-.51.02-.51c0-.04,0-.07.04-.11l1.33-1.47c.76-.84,1.18-1.94,1.18-3.07,0-2.12-1.73-3.84-3.86-3.84h0Z"/>
    </g>
  </g>
</svg>