<?xml version="1.0" encoding="UTF-8"?>
<svg id="Layer_1" xmlns="http://www.w3.org/2000/svg" version="1.1" viewBox="0 0 20 20">
  <!-- Generator: Adobe Illustrator 30.1.0, SVG Export Plug-In . SVG Version: 2.1.1 Build 136)  -->
  <circle id="Outer" cx="10" cy="10" r="8.95" fill="none" stroke="#000" stroke-width="2.09"/>
  <g>
    <g>
      <rect x="9.37" y="13.17" width="1.25" height="1.25"/>
      <path d="M10.46,13.32v.94h-.94v-.94h.94M10.78,13.01h-1.56v1.56h1.56v-1.56h0Z"/>
    </g>
    <g>
      <path d="M9.37,11.81v-.51c0-.49.18-.95.5-1.31l.93-1.03c.23-.25.35-.58.35-.92,0-.47-.38-.85-.86-.85h-.6c-.47,0-.86.38-.86.85v.16h-1.26v-.16c0-1.16.95-2.1,2.12-2.1h.6c1.17,0,2.12.94,2.12,2.1,0,.65-.24,1.27-.68,1.76l-.93,1.03c-.12.13-.18.29-.18.47v.51h-1.25Z"/>
      <path d="M10.3,6.09c1.08,0,1.96.87,1.96,1.95,0,.61-.23,1.2-.64,1.65l-.93,1.03c-.14.16-.22.36-.22.57v.36h-.94v-.36c0-.45.16-.87.46-1.2l.93-1.03c.25-.28.39-.65.39-1.02,0-.55-.45-1.01-1.01-1.01h-.6c-.56,0-1.01.45-1.01,1.01h-.95c0-1.07.88-1.95,1.96-1.95h.6M10.3,5.78h-.6c-1.25,0-2.27,1.01-2.27,2.26v.31h1.57v-.31c0-.38.31-.69.7-.69h.6c.39,0,.7.31.7.69,0,.3-.11.59-.31.82l-.93,1.03c-.35.39-.54.89-.55,1.41v.36s0,.31,0,.31h1.56v-.31s0-.36,0-.36c0-.14.05-.26.14-.37l.93-1.03c.46-.51.72-1.17.72-1.86,0-1.25-1.02-2.26-2.27-2.26h0Z"/>
    </g>
  </g>
</svg>