<?xml version="1.0" encoding="UTF-8"?>
<svg id="Layer_1" xmlns="http://www.w3.org/2000/svg" version="1.1" viewBox="0 0 75 75">
  <!-- Generator: Adobe Illustrator 30.1.0, SVG Export Plug-In . SVG Version: 2.1.1 Build 136)  -->
  <circle id="Outer" cx="37.5" cy="37.5" r="30.93" fill="none" stroke="#000" stroke-width="13.15"/>
  <g>
    <g>
      <rect x="35.11" y="47.36" width="4.75" height="4.75"/>
      <path d="M38.8,48.42v2.64h-2.64v-2.64h2.64M40.91,46.31h-6.86v6.86h6.86v-6.86h0Z"/>
    </g>
    <g>
      <path d="M35.12,42.73l-.02-2.04c0-1.52.57-2.97,1.58-4.09l2.62-2.9c.54-.6.84-1.37.84-2.18,0-.98-.81-1.78-1.8-1.78h-1.68c-.99,0-1.8.8-1.8,1.78v1.05h-4.77v-1.05c0-3.6,2.95-6.53,6.57-6.53h1.68c3.62,0,6.57,2.93,6.57,6.53,0,1.98-.73,3.88-2.06,5.36l-2.62,2.9c-.24.26-.36.57-.36.91l-.02,2.05h-4.73Z"/>
      <path d="M38.34,26.04c3.04,0,5.52,2.46,5.52,5.48,0,1.72-.64,3.37-1.79,4.65l-2.62,2.9c-.41.45-.63,1.01-.63,1.61v1h-2.65v-1c0-1.25.46-2.45,1.3-3.38l2.62-2.9c.72-.79,1.11-1.82,1.11-2.88,0-1.56-1.28-2.83-2.85-2.83h-1.68c-1.57,0-2.85,1.27-2.85,2.83h-2.67c0-3.02,2.47-5.48,5.52-5.48h1.68M38.34,23.93h-1.68c-4.21,0-7.63,3.4-7.63,7.59v2.11h6.88v-2.11c0-.4.33-.72.74-.72h1.68c.41,0,.74.32.74.72,0,.54-.2,1.06-.57,1.47l-2.62,2.9c-1.19,1.31-1.85,3.01-1.85,4.78v1.03s.03,2.09.03,2.09h6.82l.02-2.09v-1c.01-.07.02-.13.1-.22l2.62-2.9c1.51-1.67,2.33-3.82,2.33-6.06,0-4.18-3.42-7.59-7.63-7.59h0Z"/>
    </g>
  </g>
</svg>