<?xml version="1.0" encoding="UTF-8"?>
<svg id="Layer_1" xmlns="http://www.w3.org/2000/svg" version="1.1" viewBox="0 0 75 75">
  <!-- Generator: Adobe Illustrator 30.1.0, SVG Export Plug-In . SVG Version: 2.1.1 Build 136)  -->
  <circle id="Outer" cx="37.5" cy="37.5" r="33.57" fill="none" stroke="#000" stroke-width="7.85"/>
  <g>
    <g>
      <rect x="35.13" y="49.38" width="4.69" height="4.69"/>
      <path d="M39.24,49.97v3.52h-3.52v-3.52h3.52M40.41,48.8h-5.87v5.87h5.87v-5.87h0Z"/>
    </g>
    <g>
      <path d="M35.14,44.28l-.02-1.91c0-1.82.68-3.56,1.9-4.9l3.49-3.86c.86-.95,1.33-2.17,1.33-3.45,0-1.76-1.44-3.19-3.22-3.19h-2.24c-1.77,0-3.22,1.43-3.22,3.19v.59h-4.73v-.59c0-4.35,3.56-7.89,7.94-7.89h2.24c4.38,0,7.94,3.54,7.94,7.89,0,2.44-.9,4.78-2.54,6.59l-3.49,3.87c-.45.5-.69,1.11-.69,1.75l-.02,1.92h-4.68Z"/>
      <path d="M38.62,22.85c4.06,0,7.35,3.28,7.35,7.3,0,2.29-.85,4.49-2.39,6.2l-3.49,3.87c-.54.6-.84,1.34-.84,2.15v1.33h-3.54v-1.33c0-1.67.61-3.26,1.73-4.5l3.49-3.86c.96-1.06,1.48-2.42,1.48-3.84,0-2.08-1.71-3.77-3.8-3.77h-2.24c-2.1,0-3.8,1.69-3.8,3.77h-3.55c0-4.03,3.3-7.3,7.35-7.3h2.24M38.62,21.67h-2.24c-4.7,0-8.53,3.8-8.53,8.48v1.17h5.9v-1.17c0-1.44,1.18-2.6,2.63-2.6h2.24c1.45,0,2.63,1.17,2.63,2.6,0,1.13-.42,2.21-1.18,3.06l-3.49,3.86c-1.31,1.45-2.04,3.33-2.05,5.28v1.35s.02,1.16.02,1.16h5.84v-1.16s.03-1.33.03-1.33c0-.51.19-.98.54-1.37l3.49-3.87c1.73-1.92,2.69-4.4,2.69-6.98,0-4.67-3.83-8.48-8.53-8.48h0Z"/>
    </g>
  </g>
</svg>