<?xml version="1.0" encoding="UTF-8"?>
<svg id="Layer_1" xmlns="http://www.w3.org/2000/svg" version="1.1" viewBox="0 0 98 98">
  <!-- Generator: Adobe Illustrator 30.1.0, SVG Export Plug-In . SVG Version: 2.1.1 Build 136)  -->
  <circle id="Outer" cx="49" cy="49" r="42.14" fill="none" stroke="#000" stroke-width="13.72"/>
  <g>
    <g>
      <rect x="45.89" y="63.21" width="6.16" height="6.16"/>
      <path d="M50.98,64.29v4.01h-4.01v-4.01h4.01M53.12,62.14h-8.3v8.3h8.3v-8.3h0Z"/>
    </g>
    <g>
      <path d="M45.91,56.8l-.02-2.58c0-2.18.81-4.25,2.27-5.86l3.97-4.4c.91-1.01,1.41-2.31,1.41-3.66,0-1.78-1.46-3.23-3.26-3.23h-2.55c-1.8,0-3.26,1.45-3.26,3.23v1.07h-6.19v-1.07c0-5.18,4.24-9.39,9.45-9.39h2.55c5.21,0,9.45,4.21,9.45,9.39,0,2.88-1.07,5.64-3,7.78l-3.98,4.4c-.45.49-.68,1.09-.68,1.73l-.03,2.59h-6.14Z"/>
      <path d="M50.28,31.98c4.62,0,8.38,3.73,8.38,8.32,0,2.61-.97,5.12-2.72,7.06l-3.98,4.41c-.62.68-.96,1.53-.96,2.44l-.02,1.52h-4.01v-1.52c0-1.9.69-3.71,1.97-5.13l3.97-4.4c1.09-1.21,1.69-2.76,1.69-4.38,0-2.37-1.94-4.3-4.33-4.3h-2.55c-2.39,0-4.33,1.93-4.33,4.3h-4.05c0-4.59,3.76-8.32,8.38-8.32h2.55M50.28,29.84h-2.55c-5.8,0-10.52,4.69-10.52,10.47v2.14h8.34v-2.14c0-1.19.98-2.16,2.19-2.16h2.55c1.21,0,2.19.97,2.19,2.16,0,1.09-.4,2.13-1.13,2.94l-3.97,4.4c-1.63,1.8-2.53,4.13-2.54,6.56v1.54s.03,2.12.03,2.12h8.26l.02-2.12.02-1.52c0-.39.14-.73.41-1.03l3.98-4.41c2.11-2.34,3.27-5.36,3.27-8.5,0-5.77-4.72-10.47-10.52-10.47h0Z"/>
    </g>
  </g>
</svg>