<?xml version="1.0" encoding="UTF-8"?>
<svg id="Layer_1" xmlns="http://www.w3.org/2000/svg" version="1.1" viewBox="0 0 98 98">
  <!-- Generator: Adobe Illustrator 30.1.0, SVG Export Plug-In . SVG Version: 2.1.1 Build 136)  -->
  <circle id="Outer" cx="49" cy="49" r="43.87" fill="none" stroke="#000" stroke-width="10.26"/>
  <g>
    <g>
      <rect x="45.9" y="64.53" width="6.13" height="6.13"/>
      <path d="M51.27,65.29v4.6h-4.6v-4.6h4.6M52.8,63.76h-7.66v7.66h7.66v-7.66h0Z"/>
    </g>
    <g>
      <path d="M45.92,57.85l-.02-2.5c0-2.38.89-4.65,2.48-6.4l4.56-5.05c1.12-1.24,1.74-2.84,1.74-4.51,0-2.3-1.88-4.17-4.2-4.17h-2.93c-2.32,0-4.2,1.87-4.2,4.17v.77h-6.17v-.77c0-5.68,4.65-10.31,10.38-10.31h2.93c5.72,0,10.38,4.62,10.38,10.31,0,3.18-1.18,6.24-3.32,8.61l-4.56,5.05c-.59.65-.9,1.44-.9,2.29l-.03,2.5h-6.12Z"/>
      <path d="M50.46,29.85c5.3,0,9.61,4.28,9.61,9.54,0,2.99-1.11,5.87-3.12,8.1l-4.56,5.05c-.71.78-1.1,1.75-1.1,2.8l-.02,1.74h-4.6l-.02-1.74c0-2.18.81-4.26,2.28-5.88l4.56-5.05c1.25-1.38,1.94-3.17,1.94-5.02,0-2.72-2.23-4.93-4.97-4.93h-2.93c-2.74,0-4.97,2.21-4.97,4.93h-4.64c0-5.26,4.31-9.54,9.61-9.54h2.93M50.46,28.32h-2.93c-6.14,0-11.14,4.97-11.14,11.07v1.53h7.71v-1.53c0-1.88,1.54-3.4,3.44-3.4h2.93c1.89,0,3.44,1.53,3.44,3.4,0,1.48-.55,2.89-1.54,3.99l-4.56,5.05c-1.71,1.9-2.67,4.35-2.67,6.9l.02,1.76v1.52h7.65l.02-1.52.02-1.74c0-.67.25-1.28.71-1.79l4.56-5.05c2.27-2.51,3.52-5.75,3.52-9.12,0-6.11-5-11.07-11.14-11.07h0Z"/>
    </g>
  </g>
</svg>