<?xml version="1.0" encoding="UTF-8"?>
<svg id="Layer_1" xmlns="http://www.w3.org/2000/svg" version="1.1" viewBox="0 0 98 98">
  <!-- Generator: Adobe Illustrator 30.1.0, SVG Export Plug-In . SVG Version: 2.1.1 Build 136)  -->
  <circle id="Outer" cx="49" cy="49" r="40.41" fill="none" stroke="#000" stroke-width="17.18"/>
  <g>
    <g>
      <rect x="45.87" y="61.89" width="6.21" height="6.21"/>
      <path d="M50.7,63.27v3.45h-3.45v-3.45h3.45M53.46,60.51h-8.96v8.96h8.96v-8.96h0Z"/>
    </g>
    <g>
      <path d="M45.89,55.84l-.02-2.67c0-1.99.74-3.89,2.07-5.35l3.42-3.79c.71-.78,1.1-1.79,1.1-2.84,0-1.28-1.05-2.32-2.35-2.32h-2.2c-1.29,0-2.35,1.04-2.35,2.32v1.38h-6.24v-1.38c0-4.71,3.85-8.54,8.59-8.54h2.2c4.73,0,8.59,3.83,8.59,8.54,0,2.59-.96,5.07-2.7,7l-3.42,3.79c-.31.34-.47.74-.47,1.18l-.03,2.68h-6.18Z"/>
      <path d="M50.1,34.03c3.98,0,7.21,3.21,7.21,7.16,0,2.25-.83,4.4-2.34,6.07l-3.42,3.79c-.53.59-.82,1.31-.83,2.1v1.31h-3.47v-1.31c0-1.64.6-3.2,1.7-4.41l3.42-3.79c.94-1.04,1.45-2.37,1.45-3.77,0-2.04-1.67-3.7-3.73-3.7h-2.2c-2.05,0-3.73,1.66-3.73,3.7h-3.48c0-3.95,3.23-7.16,7.21-7.16h2.2M50.1,31.27h-2.2c-5.49,0-9.97,4.45-9.97,9.91v2.76h9v-2.76c0-.52.44-.94.97-.94h2.2c.53,0,.97.42.97.94,0,.71-.26,1.39-.74,1.92l-3.42,3.79c-1.55,1.72-2.41,3.94-2.42,6.25v1.34s.04,2.73.04,2.73h8.91l.03-2.73v-1.31c.01-.09.03-.17.13-.28l3.42-3.79c1.97-2.18,3.05-4.99,3.05-7.92,0-5.47-4.47-9.91-9.97-9.91h0Z"/>
    </g>
  </g>
</svg>