<?xml version="1.0" encoding="UTF-8"?>
<svg id="Layer_1" xmlns="http://www.w3.org/2000/svg" version="1.1" viewBox="0 0 51 51">
  <!-- Generator: Adobe Illustrator 30.1.0, SVG Export Plug-In . SVG Version: 2.1.1 Build 136)  -->
  <path d="M25.5,5.34c.66,0,1.31.34,1.65,1.02l4.22,8.37c.72,1.44,2.07,2.45,3.65,2.75l9.12,1.71c1.43.27,2.01,2,1.03,3.08l-6.65,7.3c-1.03,1.13-1.5,2.65-1.3,4.16l1.3,9.84c.15,1.17-.78,2.1-1.84,2.1-.28,0-.57-.07-.85-.21l-7.98-4.11c-.74-.38-1.55-.57-2.36-.57-.81,0-1.62.19-2.36.57l-7.98,4.11c-.28.14-.57.21-.85.21-1.06,0-1.99-.93-1.84-2.1l1.3-9.84c.2-1.51-.28-3.03-1.3-4.15l-6.65-7.3c-.98-1.07-.4-2.81,1.03-3.08l9.12-1.71c1.58-.3,2.93-1.31,3.65-2.75l4.22-8.37c.34-.68,1-1.02,1.65-1.02M25.5,0C22.77,0,20.31,1.52,19.08,3.96l-4.18,8.29-9.03,1.69c-2.56.48-4.67,2.31-5.49,4.79-.83,2.47-.25,5.21,1.5,7.14l6.59,7.23-1.29,9.76c-.27,2.06.35,4.13,1.72,5.68,1.37,1.56,3.34,2.46,5.41,2.46,1.14,0,2.27-.28,3.29-.8l7.89-4.07,7.89,4.07c1.02.52,2.16.8,3.29.8,2.07,0,4.04-.9,5.41-2.46,1.36-1.55,1.99-3.62,1.72-5.68l-1.29-9.76,6.59-7.24c1.76-1.93,2.33-4.66,1.5-7.13-.83-2.47-2.93-4.31-5.49-4.79l-9.03-1.69-4.18-8.29C30.69,1.52,28.23,0,25.5,0h0Z"/>
</svg>