<?xml version="1.0" encoding="UTF-8"?>
<svg id="Layer_1" xmlns="http://www.w3.org/2000/svg" version="1.1" viewBox="0 0 51 51">
  <!-- Generator: Adobe Illustrator 30.1.0, SVG Export Plug-In . SVG Version: 2.1.1 Build 136)  -->
  <path d="M25.5,7.14c.6,0,1.19.31,1.51.93l3.84,7.62c.66,1.31,1.89,2.23,3.33,2.5l8.31,1.56c1.3.24,1.83,1.82.93,2.8l-6.05,6.64c-.93,1.03-1.37,2.41-1.19,3.79l1.18,8.96c.14,1.07-.71,1.92-1.67,1.92-.25,0-.52-.06-.77-.19l-7.27-3.74c-.67-.35-1.41-.52-2.15-.52s-1.47.17-2.15.52l-7.27,3.74c-.25.13-.52.19-.77.19-.96,0-1.81-.85-1.67-1.92l1.18-8.96c.18-1.37-.25-2.76-1.19-3.78l-6.05-6.64c-.89-.98-.36-2.56.94-2.8l8.31-1.56c1.44-.27,2.67-1.19,3.32-2.5l3.84-7.63c.31-.62.91-.93,1.51-.93M25.5,0C22.15,0,19.13,1.86,17.62,4.86l-3.3,6.55-7.12,1.33c-3.14.59-5.73,2.84-6.74,5.87-1.02,3.04-.31,6.39,1.85,8.76l5.29,5.81-1.03,7.84c-.33,2.52.44,5.06,2.11,6.97,1.68,1.92,4.1,3.02,6.64,3.02,1.39,0,2.79-.34,4.04-.98l6.15-3.17,6.15,3.17c1.25.64,2.65.98,4.04.98,2.54,0,4.96-1.1,6.64-3.02,1.67-1.91,2.44-4.45,2.11-6.97l-1.03-7.84,5.29-5.81c2.16-2.37,2.86-5.72,1.85-8.75-1.02-3.03-3.6-5.28-6.74-5.87l-7.12-1.33-3.3-6.55C31.87,1.86,28.85,0,25.5,0h0Z"/>
</svg>