<?xml version="1.0" encoding="UTF-8"?>
<svg id="Layer_1" xmlns="http://www.w3.org/2000/svg" version="1.1" viewBox="0 0 115 115">
  <!-- Generator: Adobe Illustrator 30.1.0, SVG Export Plug-In . SVG Version: 2.1.1 Build 136)  -->
  <g>
    <g>
      <rect x="53.42" y="30.58" width="8.15" height="8.15"/>
      <path d="M60.68,31.48v6.36h-6.36v-6.36h6.36M62.48,29.69h-9.95v9.95h9.95v-9.95h0Z"/>
    </g>
    <g>
      <polygon points="47.06 84.07 47.06 75.92 53.42 75.92 53.42 57.86 47.06 57.86 47.06 49.71 61.58 49.71 61.58 75.92 67.94 75.92 67.94 84.07 47.06 84.07"/>
      <path d="M60.68,50.61v26.21h6.36v6.36h-19.07v-6.36h6.36v-19.85h-6.36v-6.36h12.72M62.48,48.81h-16.31v9.95h6.36v16.26h-6.36v9.95h22.67v-9.95h-6.36v-26.21h0Z"/>
    </g>
  </g>
  <circle id="Outer" cx="57.5" cy="57.5" r="51.48" fill="none" stroke="#000" stroke-width="12.04"/>
</svg>