<?xml version="1.0" encoding="UTF-8"?>
<svg id="Layer_1" xmlns="http://www.w3.org/2000/svg" version="1.1" viewBox="0 0 12 12">
  <!-- Generator: Adobe Illustrator 30.1.0, SVG Export Plug-In . SVG Version: 2.1.1 Build 136)  -->
  <circle id="Outer" cx="6" cy="6" r="5.37" fill="none" stroke="#000" stroke-width="1.26"/>
  <g>
    <g>
      <rect x="5.62" y="7.9" width=".75" height=".75"/>
      <path d="M6.28,7.99v.56h-.56v-.56h.56M6.47,7.81h-.94v.94h.94v-.94h0Z"/>
    </g>
    <g>
      <path d="M5.62,7.08v-.31c0-.29.11-.57.3-.78l.56-.62c.14-.15.21-.35.21-.55,0-.28-.23-.51-.51-.51h-.36c-.28,0-.51.23-.51.51v.09h-.76v-.09c0-.7.57-1.26,1.27-1.26h.36c.7,0,1.27.57,1.27,1.26,0,.39-.14.76-.41,1.05l-.56.62c-.07.08-.11.18-.11.28v.31h-.75Z"/>
      <path d="M6.18,3.66c.65,0,1.18.52,1.18,1.17,0,.37-.14.72-.38.99l-.56.62c-.09.1-.13.21-.13.34v.21h-.57v-.21c0-.27.1-.52.28-.72l.56-.62c.15-.17.24-.39.24-.61,0-.33-.27-.6-.61-.6h-.36c-.34,0-.61.27-.61.6h-.57c0-.64.53-1.17,1.18-1.17h.36M6.18,3.47h-.36c-.75,0-1.36.61-1.36,1.36v.19h.94v-.19c0-.23.19-.42.42-.42h.36c.23,0,.42.19.42.42,0,.18-.07.35-.19.49l-.56.62c-.21.23-.33.53-.33.85v.22s0,.19,0,.19h.94v-.19s0-.21,0-.21c0-.08.03-.16.09-.22l.56-.62c.28-.31.43-.7.43-1.12,0-.75-.61-1.36-1.36-1.36h0Z"/>
    </g>
  </g>
</svg>