<?xml version="1.0" encoding="UTF-8"?>
<svg id="Layer_1" xmlns="http://www.w3.org/2000/svg" version="1.1" viewBox="0 0 70 70">
  <!-- Generator: Adobe Illustrator 30.1.0, SVG Export Plug-In . SVG Version: 2.1.1 Build 136)  -->
  <path d="M35,12.27c.74,0,1.48.38,1.86,1.15l4.75,9.44c.82,1.62,2.34,2.77,4.12,3.1l10.29,1.93c1.61.3,2.26,2.26,1.16,3.47l-7.49,8.22c-1.16,1.27-1.69,2.99-1.47,4.69l1.46,11.09c.17,1.32-.88,2.37-2.07,2.37-.32,0-.64-.07-.95-.24l-9-4.63c-.83-.43-1.75-.64-2.66-.64-.91,0-1.82.21-2.66.64l-9,4.63c-.31.16-.64.24-.95.24-1.19,0-2.24-1.05-2.07-2.37l1.46-11.09c.22-1.7-.31-3.42-1.47-4.68l-7.5-8.22c-1.1-1.21-.45-3.17,1.16-3.47l10.29-1.93c1.78-.33,3.3-1.48,4.12-3.1l4.76-9.44c.39-.77,1.13-1.15,1.86-1.15M35,0c-5.46,0-10.37,3.03-12.82,7.9l-3.32,6.59-7.14,1.34c-5.11.96-9.32,4.62-10.97,9.55-1.65,4.94-.5,10.39,3,14.24l5.48,6.01-1.07,8.12c-.54,4.1.71,8.24,3.43,11.34,2.73,3.12,6.67,4.9,10.8,4.9,2.27,0,4.54-.55,6.57-1.6l6.04-3.11,6.04,3.11c2.03,1.04,4.3,1.6,6.57,1.6,4.13,0,8.07-1.79,10.8-4.9,2.72-3.11,3.97-7.24,3.43-11.34l-1.07-8.12,5.48-6.01c3.51-3.85,4.66-9.3,3-14.24-1.65-4.93-5.86-8.6-10.97-9.55l-7.14-1.34-3.32-6.59c-2.45-4.87-7.37-7.9-12.82-7.9h0Z"/>
</svg>