<?xml version="1.0" encoding="UTF-8"?>
<svg id="Layer_1" xmlns="http://www.w3.org/2000/svg" version="1.1" viewBox="0 0 70 70">
  <!-- Generator: Adobe Illustrator 30.1.0, SVG Export Plug-In . SVG Version: 2.1.1 Build 136)  -->
  <path d="M35,7.33c.9,0,1.8.47,2.27,1.4l5.79,11.49c.99,1.97,2.85,3.37,5.01,3.77l12.52,2.35c1.96.37,2.75,2.75,1.41,4.22l-9.13,10.01c-1.41,1.54-2.06,3.63-1.79,5.71l1.78,13.5c.21,1.61-1.07,2.89-2.52,2.89-.38,0-.78-.09-1.16-.29l-10.95-5.64c-1.02-.52-2.13-.78-3.24-.78-1.11,0-2.22.26-3.24.78l-10.95,5.64c-.38.2-.78.29-1.16.29-1.45,0-2.73-1.28-2.52-2.89l1.78-13.51c.27-2.07-.38-4.16-1.79-5.7l-9.13-10.01c-1.34-1.48-.55-3.86,1.41-4.22l12.52-2.35c2.17-.41,4.02-1.8,5.01-3.77l5.79-11.49c.47-.93,1.37-1.4,2.27-1.4M35,0C31.25,0,27.87,2.08,26.19,5.43l-5.73,11.38-12.4,2.32c-3.52.66-6.4,3.18-7.54,6.57-1.14,3.4-.35,7.15,2.07,9.79l9.05,9.93-1.77,13.4c-.37,2.82.49,5.66,2.36,7.8,1.88,2.15,4.59,3.38,7.43,3.38,1.56,0,3.12-.38,4.52-1.1l10.84-5.58,10.84,5.58c1.4.72,2.96,1.1,4.52,1.1,2.84,0,5.55-1.23,7.43-3.38,1.87-2.13,2.73-4.97,2.36-7.8l-1.77-13.4,9.05-9.93c2.41-2.65,3.2-6.4,2.06-9.79-1.14-3.39-4.03-5.91-7.54-6.57l-12.4-2.32-5.73-11.38C42.13,2.08,38.75,0,35,0h0Z"/>
</svg>