<?xml version="1.0" encoding="UTF-8"?>
<svg id="Layer_1" xmlns="http://www.w3.org/2000/svg" version="1.1" viewBox="0 0 70 70">
  <!-- Generator: Adobe Illustrator 30.1.0, SVG Export Plug-In . SVG Version: 2.1.1 Build 136)  -->
  <path d="M35,9.8c.82,0,1.64.42,2.07,1.27l5.27,10.47c.9,1.8,2.59,3.07,4.57,3.44l11.41,2.14c1.78.33,2.51,2.5,1.28,3.84l-8.31,9.12c-1.28,1.41-1.88,3.31-1.63,5.2l1.62,12.3c.19,1.47-.98,2.63-2.29,2.63-.35,0-.71-.08-1.06-.26l-9.98-5.14c-.92-.48-1.94-.71-2.95-.71-1.01,0-2.02.24-2.95.71l-9.98,5.14c-.35.18-.71.26-1.06.26-1.32,0-2.49-1.16-2.29-2.63l1.62-12.3c.25-1.89-.35-3.79-1.63-5.19l-8.31-9.12c-1.22-1.34-.5-3.51,1.28-3.85l11.4-2.14c1.97-.37,3.66-1.64,4.56-3.43l5.27-10.47c.43-.85,1.25-1.27,2.07-1.27M35,0c-4.6,0-8.75,2.55-10.82,6.67l-4.53,8.98-9.77,1.83c-4.31.81-7.86,3.9-9.26,8.06-1.4,4.17-.42,8.77,2.53,12.02l7.26,7.97-1.42,10.76c-.46,3.46.6,6.95,2.9,9.57,2.31,2.63,5.63,4.14,9.12,4.14,1.91,0,3.83-.47,5.55-1.35l8.44-4.34,8.44,4.34c1.71.88,3.63,1.35,5.55,1.35,3.49,0,6.81-1.51,9.12-4.14,2.3-2.62,3.35-6.11,2.9-9.57l-1.42-10.76,7.26-7.97c2.96-3.25,3.93-7.85,2.53-12.02-1.39-4.16-4.94-7.25-9.26-8.06l-9.77-1.83-4.53-8.98c-2.07-4.11-6.22-6.67-10.82-6.67h0Z"/>
</svg>