<?xml version="1.0" encoding="UTF-8"?>
<svg id="Layer_1" xmlns="http://www.w3.org/2000/svg" version="1.1" viewBox="0 0 125 125">
  <!-- Generator: Adobe Illustrator 30.1.0, SVG Export Plug-In . SVG Version: 2.1.1 Build 136)  -->
  <path d="M62.5,13.09c1.61,0,3.21.83,4.05,2.5l10.34,20.52c1.77,3.52,5.08,6.01,8.95,6.74l22.36,4.19c3.5.66,4.92,4.91,2.52,7.54l-16.3,17.88c-2.51,2.76-3.68,6.49-3.19,10.19l3.18,24.11c.38,2.88-1.91,5.15-4.5,5.15-.69,0-1.39-.16-2.07-.51l-19.56-10.07c-1.81-.93-3.8-1.4-5.78-1.4-1.98,0-3.96.47-5.78,1.4l-19.56,10.07c-.68.35-1.39.51-2.07.51-2.59,0-4.88-2.28-4.5-5.15l3.18-24.12c.49-3.7-.68-7.43-3.19-10.18l-16.3-17.88c-2.4-2.63-.98-6.89,2.52-7.54l22.36-4.19c3.87-.72,7.17-3.21,8.95-6.73l10.34-20.52c.84-1.67,2.45-2.5,4.05-2.5M62.5,0C55.8,0,49.77,3.72,46.76,9.7l-10.24,20.33-22.13,4.15c-6.28,1.18-11.44,5.67-13.47,11.73-2.03,6.06-.62,12.76,3.69,17.49l16.16,17.73-3.16,23.92c-.66,5.04.87,10.12,4.21,13.92,3.36,3.83,8.19,6.03,13.26,6.03,2.78,0,5.57-.68,8.07-1.96l19.35-9.97,19.35,9.96c2.49,1.28,5.28,1.96,8.07,1.96,5.07,0,9.91-2.2,13.26-6.03,3.34-3.81,4.87-8.88,4.21-13.92l-3.16-23.92,16.16-17.74c4.31-4.72,5.72-11.42,3.69-17.49-2.03-6.06-7.19-10.55-13.46-11.73l-22.14-4.15-10.24-20.33C75.22,3.72,69.19,0,62.5,0h0Z"/>
</svg>