<?xml version="1.0" encoding="UTF-8"?>
<svg id="Layer_1" xmlns="http://www.w3.org/2000/svg" version="1.1" viewBox="0 0 14 14">
  <!-- Generator: Adobe Illustrator 30.1.0, SVG Export Plug-In . SVG Version: 2.1.1 Build 136)  -->
  <path d="M7,1.96c.16,0,.33.08.41.25l1.05,2.09c.18.36.52.61.91.69l2.28.43c.36.07.5.5.26.77l-1.66,1.82c-.26.28-.38.66-.33,1.04l.32,2.46c.04.29-.2.53-.46.53-.07,0-.14-.02-.21-.05l-2-1.03c-.18-.1-.39-.14-.59-.14s-.4.05-.59.14l-2,1.03c-.07.04-.14.05-.21.05-.26,0-.5-.23-.46-.53l.32-2.46c.05-.38-.07-.76-.33-1.04l-1.66-1.82c-.24-.27-.1-.7.26-.77l2.28-.43c.39-.07.73-.33.91-.69l1.05-2.09c.09-.17.25-.25.41-.25M7,0C6.08,0,5.25.51,4.84,1.33l-.91,1.8-1.95.37c-.86.16-1.57.78-1.85,1.61-.28.83-.08,1.75.51,2.4l1.45,1.59-.28,2.15c-.09.69.12,1.39.58,1.91.46.53,1.13.83,1.82.83.38,0,.77-.09,1.11-.27l1.69-.87,1.69.87c.34.18.73.27,1.11.27.7,0,1.36-.3,1.82-.83.46-.52.67-1.22.58-1.91l-.28-2.15,1.45-1.59c.59-.65.79-1.57.51-2.4-.28-.83-.99-1.45-1.85-1.61l-1.95-.37-.91-1.8C8.75.51,7.92,0,7,0h0Z"/>
</svg>