<?xml version="1.0" encoding="UTF-8"?>
<svg id="Layer_1" xmlns="http://www.w3.org/2000/svg" version="1.1" viewBox="0 0 14 14">
  <!-- Generator: Adobe Illustrator 30.1.0, SVG Export Plug-In . SVG Version: 2.1.1 Build 136)  -->
  <path d="M7,1.47c.18,0,.36.09.45.28l1.16,2.3c.2.39.57.67,1,.75l2.5.47c.39.07.55.55.28.84l-1.83,2c-.28.31-.41.73-.36,1.14l.36,2.7c.04.32-.21.58-.5.58-.08,0-.16-.02-.23-.06l-2.19-1.13c-.2-.1-.43-.16-.65-.16s-.44.05-.65.16l-2.19,1.13c-.08.04-.16.06-.23.06-.29,0-.55-.26-.5-.58l.36-2.7c.05-.41-.08-.83-.36-1.14l-1.83-2c-.27-.3-.11-.77.28-.84l2.5-.47c.43-.08.8-.36,1-.75l1.16-2.3c.09-.19.27-.28.45-.28M7,0C6.25,0,5.57.42,5.24,1.09l-1.16,2.3-2.47.44c-.7.13-1.28.64-1.51,1.31-.23.68-.07,1.43.41,1.96l1.83,2-.37,2.66c-.07.56.1,1.13.47,1.56.38.43.92.68,1.49.68.31,0,.62-.08.9-.22l2.19-1.13,2.14,1.13c.28.14.59.22.9.22.57,0,1.11-.25,1.49-.68.37-.43.55-.99.47-1.56l-.36-2.7,1.81-1.97c.48-.53.64-1.28.41-1.96-.23-.68-.81-1.18-1.51-1.31l-2.5-.47-1.12-2.27C8.43.42,7.75,0,7,0h0Z"/>
</svg>