<?xml version="1.0" encoding="UTF-8"?>
<svg id="Layer_1" xmlns="http://www.w3.org/2000/svg" version="1.1" viewBox="0 0 69 69">
  <!-- Generator: Adobe Illustrator 30.1.0, SVG Export Plug-In . SVG Version: 2.1.1 Build 136)  -->
  <g>
    <g>
      <rect x="32.02" y="19.23" width="4.97" height="4.97"/>
      <path d="M36.23,19.98v3.46h-3.46v-3.46h3.46M37.74,18.47h-6.48v6.48h6.48v-6.48h0Z"/>
    </g>
    <g>
      <polygon points="28.56 49.37 28.56 44.4 32.02 44.4 32.02 35.11 28.56 35.11 28.56 30.15 36.98 30.15 36.98 44.4 40.44 44.4 40.44 49.37 28.56 49.37"/>
      <path d="M36.23,30.9v14.26h3.46v3.46h-10.38v-3.46h3.46v-10.8h-3.46v-3.46h6.92M37.74,29.39h-9.94v6.48h3.46v7.78h-3.46v6.48h13.39v-6.48h-3.46v-14.26h0Z"/>
    </g>
  </g>
  <circle id="Outer" cx="34.5" cy="34.5" r="29.67" fill="none" stroke="#000" stroke-width="9.66"/>
</svg>