<?xml version="1.0" encoding="UTF-8"?>
<svg id="Layer_1" xmlns="http://www.w3.org/2000/svg" version="1.1" viewBox="0 0 69 69">
  <!-- Generator: Adobe Illustrator 30.1.0, SVG Export Plug-In . SVG Version: 2.1.1 Build 136)  -->
  <g>
    <g>
      <rect x="31.98" y="20.1" width="5.05" height="5.05"/>
      <path d="M36.05,21.07v3.11h-3.11v-3.11h3.11M38,19.13h-6.99v6.99h6.99v-6.99h0Z"/>
    </g>
    <g>
      <polygon points="28.87 48.31 28.87 43.26 31.98 43.26 31.98 35.5 28.87 35.5 28.87 30.45 37.03 30.45 37.03 43.26 40.13 43.26 40.13 48.31 28.87 48.31"/>
      <path d="M36.05,31.42v12.81h3.11v3.11h-9.33v-3.11h3.11v-9.71h-3.11v-3.11h6.22M38,29.48h-10.1v6.99h3.11v5.82h-3.11v6.99h13.21v-6.99h-3.11v-12.81h0Z"/>
    </g>
  </g>
  <circle id="Outer" cx="34.5" cy="34.5" r="28.45" fill="none" stroke="#000" stroke-width="12.1"/>
</svg>