<?xml version="1.0" encoding="UTF-8"?>
<svg id="Layer_1" xmlns="http://www.w3.org/2000/svg" version="1.1" viewBox="0 0 30 30">
  <!-- Generator: Adobe Illustrator 30.1.0, SVG Export Plug-In . SVG Version: 2.1.1 Build 136)  -->
  <g>
    <g>
      <rect x="13.9" y="8.74" width="2.2" height="2.2"/>
      <path d="M15.68,9.16v1.35h-1.35v-1.35h1.35M16.52,8.32h-3.04v3.04h3.04v-3.04h0Z"/>
    </g>
    <g>
      <polygon points="12.55 21.01 12.55 18.81 13.9 18.81 13.9 15.43 12.55 15.43 12.55 13.24 16.1 13.24 16.1 18.81 17.45 18.81 17.45 21.01 12.55 21.01"/>
      <path d="M15.68,13.66v5.57h1.35v1.35h-4.06v-1.35h1.35v-4.22h-1.35v-1.35h2.7M16.52,12.82h-4.39v3.04h1.35v2.53h-1.35v3.04h5.74v-3.04h-1.35v-5.57h0Z"/>
    </g>
  </g>
  <circle id="Outer" cx="15" cy="15" r="12.37" fill="none" stroke="#000" stroke-width="5.26"/>
</svg>