<?xml version="1.0" encoding="UTF-8"?>
<svg id="Layer_1" xmlns="http://www.w3.org/2000/svg" version="1.1" viewBox="0 0 30 30">
  <!-- Generator: Adobe Illustrator 30.1.0, SVG Export Plug-In . SVG Version: 2.1.1 Build 136)  -->
  <g>
    <g>
      <rect x="13.94" y="7.98" width="2.13" height="2.13"/>
      <path d="M15.83,8.21v1.66h-1.66v-1.66h1.66M16.3,7.74h-2.6v2.6h2.6v-2.6h0Z"/>
    </g>
    <g>
      <polygon points="12.28 21.93 12.28 19.8 13.94 19.8 13.94 15.09 12.28 15.09 12.28 12.97 16.06 12.97 16.06 19.8 17.72 19.8 17.72 21.93 12.28 21.93"/>
      <path d="M15.83,13.2v6.84h1.66v1.66h-4.98v-1.66h1.66v-5.18h-1.66v-1.66h3.32M16.3,12.73h-4.25v2.6h1.66v4.24h-1.66v2.6h5.91v-2.6h-1.66v-6.84h0Z"/>
    </g>
  </g>
  <circle id="Outer" cx="15" cy="15" r="13.43" fill="none" stroke="#000" stroke-width="3.14"/>
</svg>