<?xml version="1.0" encoding="UTF-8"?>
<svg id="Layer_1" xmlns="http://www.w3.org/2000/svg" version="1.1" viewBox="0 0 64 64">
  <!-- Generator: Adobe Illustrator 30.1.0, SVG Export Plug-In . SVG Version: 2.1.1 Build 136)  -->
  <g>
    <g>
      <rect x="29.66" y="18.65" width="4.68" height="4.68"/>
      <path d="M33.44,19.55v2.88h-2.88v-2.88h2.88M35.24,17.75h-6.48v6.48h6.48v-6.48h0Z"/>
    </g>
    <g>
      <polygon points="26.77 44.81 26.77 40.13 29.66 40.13 29.66 32.93 26.77 32.93 26.77 28.24 34.34 28.24 34.34 40.13 37.23 40.13 37.23 44.81 26.77 44.81"/>
      <path d="M33.44,29.14v11.89h2.88v2.88h-8.65v-2.88h2.88v-9h-2.88v-2.88h5.77M35.24,27.34h-9.37v6.48h2.88v5.4h-2.88v6.48h12.25v-6.48h-2.88v-11.89h0Z"/>
    </g>
  </g>
  <circle id="Outer" cx="32" cy="32" r="26.39" fill="none" stroke="#000" stroke-width="11.22"/>
</svg>