<?xml version="1.0" encoding="UTF-8"?>
<svg id="Layer_1" xmlns="http://www.w3.org/2000/svg" version="1.1" viewBox="0 0 33 33">
  <!-- Generator: Adobe Illustrator 30.1.0, SVG Export Plug-In . SVG Version: 2.1.1 Build 136)  -->
  <circle id="Outer" cx="16.5" cy="16.5" r="14.19" fill="none" stroke="#000" stroke-width="4.62"/>
  <g>
    <g>
      <rect x="15.45" y="21.29" width="2.07" height="2.07"/>
      <path d="M17.17,21.65v1.35h-1.35v-1.35h1.35M17.89,20.93h-2.8v2.8h2.8v-2.8h0Z"/>
    </g>
    <g>
      <path d="M15.46,19.13v-.87c0-.73.27-1.43.76-1.97l1.34-1.48c.31-.34.47-.78.47-1.23,0-.6-.49-1.09-1.1-1.09h-.86c-.61,0-1.1.49-1.1,1.09v.36h-2.08v-.36c0-1.74,1.43-3.16,3.18-3.16h.86c1.75,0,3.18,1.42,3.18,3.16,0,.97-.36,1.9-1.01,2.62l-1.34,1.48c-.15.17-.23.37-.23.58v.87h-2.08Z"/>
      <path d="M16.93,10.77c1.56,0,2.82,1.26,2.82,2.8,0,.88-.33,1.72-.92,2.38l-1.34,1.48c-.21.23-.32.51-.32.82v.51h-1.36v-.51c0-.64.23-1.25.66-1.73l1.34-1.48c.37-.41.57-.93.57-1.47,0-.8-.65-1.45-1.46-1.45h-.86c-.8,0-1.46.65-1.46,1.45h-1.36c0-1.54,1.27-2.8,2.82-2.8h.86M16.93,10.05h-.86c-1.95,0-3.54,1.58-3.54,3.52v.72h2.81v-.72c0-.4.33-.73.74-.73h.86c.41,0,.74.33.74.73,0,.37-.14.72-.38.99l-1.34,1.48c-.55.61-.85,1.39-.86,2.21v.52s.01.72.01.72h2.78v-.71s.01-.51.01-.51c0-.13.05-.25.14-.35l1.34-1.48c.71-.79,1.1-1.8,1.1-2.86,0-1.94-1.59-3.52-3.54-3.52h0Z"/>
    </g>
  </g>
</svg>