<?xml version="1.0" encoding="UTF-8"?>
<svg id="Layer_1" xmlns="http://www.w3.org/2000/svg" version="1.1" viewBox="0 0 105 105">
  <!-- Generator: Adobe Illustrator 30.1.0, SVG Export Plug-In . SVG Version: 2.1.1 Build 136)  -->
  <path d="M52.5,14.7c1.23,0,2.46.64,3.1,1.91l7.91,15.7c1.36,2.69,3.89,4.6,6.85,5.15l17.11,3.21c2.67.5,3.76,3.75,1.92,5.77l-12.47,13.68c-1.92,2.11-2.82,4.96-2.44,7.8l2.43,18.44c.29,2.2-1.46,3.94-3.44,3.94-.52,0-1.06-.12-1.59-.39l-14.96-7.71c-1.39-.71-2.9-1.07-4.42-1.07-1.52,0-3.03.36-4.42,1.07l-14.96,7.71c-.52.27-1.06.39-1.59.39-1.98,0-3.73-1.74-3.44-3.94l2.43-18.45c.37-2.83-.52-5.68-2.44-7.79l-12.47-13.68c-1.84-2.02-.75-5.27,1.93-5.77l17.11-3.21c2.96-.55,5.49-2.46,6.84-5.15l7.91-15.7c.64-1.27,1.87-1.91,3.1-1.91M52.5,0C45.6,0,39.38,3.83,36.27,10l-6.79,13.48-14.65,2.75c-6.47,1.21-11.79,5.85-13.88,12.09-2.09,6.25-.64,13.16,3.8,18.03l10.89,11.95-2.13,16.14c-.69,5.19.9,10.43,4.34,14.36,3.46,3.95,8.44,6.21,13.67,6.21,2.87,0,5.75-.7,8.32-2.02l12.65-6.52,12.65,6.52c2.57,1.32,5.45,2.02,8.32,2.02,5.23,0,10.21-2.26,13.67-6.21,3.44-3.93,5.03-9.16,4.34-14.36l-2.13-16.14,10.9-11.96c4.44-4.87,5.89-11.78,3.8-18.02-2.09-6.25-7.41-10.88-13.88-12.09l-14.66-2.75-6.79-13.48C65.62,3.83,59.4,0,52.5,0h0Z"/>
</svg>