<?xml version="1.0" encoding="UTF-8"?>
<svg id="Layer_1" xmlns="http://www.w3.org/2000/svg" version="1.1" viewBox="0 0 105 105">
  <!-- Generator: Adobe Illustrator 30.1.0, SVG Export Plug-In . SVG Version: 2.1.1 Build 136)  -->
  <path d="M52.5,10.99c1.35,0,2.7.7,3.4,2.1l8.68,17.24c1.49,2.96,4.27,5.05,7.52,5.66l18.79,3.52c2.94.55,4.13,4.12,2.11,6.33l-13.69,15.02c-2.11,2.32-3.09,5.45-2.68,8.56l2.67,20.25c.32,2.42-1.61,4.33-3.78,4.33-.58,0-1.17-.13-1.74-.43l-16.43-8.46c-1.52-.78-3.19-1.18-4.85-1.18s-3.33.39-4.85,1.18l-16.43,8.46c-.57.3-1.17.43-1.74.43-2.17,0-4.1-1.91-3.78-4.33l2.67-20.26c.41-3.11-.57-6.24-2.68-8.55l-13.69-15.02c-2.02-2.21-.82-5.79,2.11-6.34l18.78-3.52c3.25-.61,6.03-2.7,7.52-5.66l8.69-17.24c.71-1.4,2.05-2.1,3.4-2.1M52.5,0C46.88,0,41.81,3.12,39.28,8.15l-8.6,17.07-18.59,3.49c-5.27.99-9.61,4.76-11.31,9.85-1.71,5.09-.52,10.72,3.1,14.69l13.57,14.9-2.65,20.1c-.56,4.23.73,8.5,3.54,11.7,2.82,3.22,6.88,5.06,11.14,5.06,2.34,0,4.68-.57,6.78-1.65l16.25-8.37,16.25,8.37c2.1,1.08,4.44,1.65,6.78,1.65,4.26,0,8.32-1.85,11.14-5.06,2.81-3.2,4.09-7.46,3.54-11.7l-2.65-20.1,13.58-14.9c3.62-3.97,4.8-9.6,3.1-14.69-1.7-5.09-6.04-8.86-11.31-9.85l-18.6-3.49-8.6-17.07C63.19,3.12,58.12,0,52.5,0h0Z"/>
</svg>