<?xml version="1.0" encoding="UTF-8"?>
<svg id="Layer_1" xmlns="http://www.w3.org/2000/svg" version="1.1" viewBox="0 0 34 34">
  <!-- Generator: Adobe Illustrator 30.1.0, SVG Export Plug-In . SVG Version: 2.1.1 Build 136)  -->
  <g>
    <g>
      <rect x="15.78" y="9.47" width="2.45" height="2.45"/>
      <path d="M17.85,9.85v1.7h-1.7v-1.7h1.7M18.6,9.1h-3.19v3.19h3.19v-3.19h0Z"/>
    </g>
    <g>
      <polygon points="14.07 24.33 14.07 21.88 15.78 21.88 15.78 17.3 14.07 17.3 14.07 14.85 18.22 14.85 18.22 21.88 19.93 21.88 19.93 24.33 14.07 24.33"/>
      <path d="M17.85,15.23v7.02h1.7v1.7h-5.11v-1.7h1.7v-5.32h-1.7v-1.7h3.41M18.6,14.48h-4.9v3.19h1.7v3.83h-1.7v3.19h6.6v-3.19h-1.7v-7.02h0Z"/>
    </g>
  </g>
  <circle id="Outer" cx="17" cy="17" r="14.62" fill="none" stroke="#000" stroke-width="4.76"/>
</svg>