<?xml version="1.0" encoding="UTF-8"?>
<svg id="Layer_1" xmlns="http://www.w3.org/2000/svg" version="1.1" viewBox="0 0 34 34">
  <!-- Generator: Adobe Illustrator 30.1.0, SVG Export Plug-In . SVG Version: 2.1.1 Build 136)  -->
  <g>
    <g>
      <rect x="15.76" y="9.91" width="2.49" height="2.49"/>
      <path d="M17.77,10.38v1.53h-1.53v-1.53h1.53M18.72,9.43h-3.44v3.44h3.44v-3.44h0Z"/>
    </g>
    <g>
      <polygon points="14.22 23.81 14.22 21.32 15.76 21.32 15.76 17.49 14.22 17.49 14.22 15 18.24 15 18.24 21.32 19.78 21.32 19.78 23.81 14.22 23.81"/>
      <path d="M17.77,15.48v6.31h1.53v1.53h-4.6v-1.53h1.53v-4.78h-1.53v-1.53h3.06M18.72,14.53h-4.98v3.44h1.53v2.87h-1.53v3.44h6.51v-3.44h-1.53v-6.31h0Z"/>
    </g>
  </g>
  <circle id="Outer" cx="17" cy="17" r="14.02" fill="none" stroke="#000" stroke-width="5.96"/>
</svg>