<?xml version="1.0" encoding="UTF-8"?>
<svg id="Layer_1" xmlns="http://www.w3.org/2000/svg" version="1.1" viewBox="0 0 34 34">
  <!-- Generator: Adobe Illustrator 30.1.0, SVG Export Plug-In . SVG Version: 2.1.1 Build 136)  -->
  <g>
    <g>
      <rect x="15.79" y="9.04" width="2.41" height="2.41"/>
      <path d="M17.94,9.31v1.88h-1.88v-1.88h1.88M18.47,8.78h-2.94v2.94h2.94v-2.94h0Z"/>
    </g>
    <g>
      <polygon points="13.91 24.86 13.91 22.44 15.79 22.44 15.79 17.11 13.91 17.11 13.91 14.7 18.21 14.7 18.21 22.44 20.08 22.44 20.08 24.86 13.91 24.86"/>
      <path d="M17.94,14.96v7.75h1.88v1.88h-5.64v-1.88h1.88v-5.87h-1.88v-1.88h3.76M18.47,14.43h-4.82v2.94h1.88v4.81h-1.88v2.94h6.7v-2.94h-1.88v-7.75h0Z"/>
    </g>
  </g>
  <circle id="Outer" cx="17" cy="17" r="15.22" fill="none" stroke="#000" stroke-width="3.56"/>
</svg>