<?xml version="1.0" encoding="UTF-8"?>
<svg id="Layer_1" xmlns="http://www.w3.org/2000/svg" version="1.1" viewBox="0 0 121 121">
  <!-- Generator: Adobe Illustrator 30.1.0, SVG Export Plug-In . SVG Version: 2.1.1 Build 136)  -->
  <g>
    <g>
      <rect x="56.21" y="32.18" width="8.58" height="8.58"/>
      <path d="M63.84,33.13v6.69h-6.69v-6.69h6.69M65.74,31.23h-10.47v10.47h10.47v-10.47h0Z"/>
    </g>
    <g>
      <polygon points="49.52 88.46 49.52 79.88 56.21 79.88 56.21 60.88 49.52 60.88 49.52 52.3 64.79 52.3 64.79 79.88 71.48 79.88 71.48 88.46 49.52 88.46"/>
      <path d="M63.84,53.25v27.57h6.69v6.69h-20.07v-6.69h6.69v-20.88h-6.69v-6.69h13.38M65.74,51.36h-17.16v10.47h6.69v17.1h-6.69v10.47h23.85v-10.47h-6.69v-27.57h0Z"/>
    </g>
  </g>
  <circle id="Outer" cx="60.5" cy="60.5" r="54.17" fill="none" stroke="#000" stroke-width="12.67"/>
</svg>