<?xml version="1.0" encoding="UTF-8"?>
<svg id="Layer_1" xmlns="http://www.w3.org/2000/svg" version="1.1" viewBox="0 0 121 121">
  <!-- Generator: Adobe Illustrator 30.1.0, SVG Export Plug-In . SVG Version: 2.1.1 Build 136)  -->
  <g>
    <g>
      <rect x="56.07" y="35.25" width="8.85" height="8.86"/>
      <path d="M63.23,36.95v5.45h-5.45v-5.45h5.45M66.63,33.55h-12.26v12.26h12.26v-12.26h0Z"/>
    </g>
    <g>
      <polygon points="50.62 84.72 50.62 75.87 56.07 75.87 56.07 62.25 50.62 62.25 50.62 53.4 64.93 53.4 64.93 75.87 70.38 75.87 70.38 84.72 50.62 84.72"/>
      <path d="M63.23,55.1v22.47h5.45v5.45h-16.36v-5.45h5.45v-17.02h-5.45v-5.45h10.9M66.63,51.7h-17.71v12.26h5.45v10.21h-5.45v12.26h23.16v-12.26h-5.45v-22.47h0Z"/>
    </g>
  </g>
  <circle id="Outer" cx="60.5" cy="60.5" r="49.89" fill="none" stroke="#000" stroke-width="21.21"/>
</svg>