<?xml version="1.0" encoding="UTF-8"?>
<svg id="Layer_1" xmlns="http://www.w3.org/2000/svg" version="1.1" viewBox="0 0 18 18">
  <!-- Generator: Adobe Illustrator 30.1.0, SVG Export Plug-In . SVG Version: 2.1.1 Build 136)  -->
  <circle id="Outer" cx="9" cy="9" r="7.42" fill="none" stroke="#000" stroke-width="3.16"/>
  <g>
    <g>
      <rect x="8.43" y="11.37" width="1.14" height="1.14"/>
      <path d="M9.31,11.62v.63h-.63v-.63h.63M9.82,11.11h-1.65v1.65h1.65v-1.65h0Z"/>
    </g>
    <g>
      <path d="M8.43,10.26v-.49c0-.37.13-.71.38-.98l.63-.7c.13-.14.2-.33.2-.52,0-.24-.19-.43-.43-.43h-.4c-.24,0-.43.19-.43.43v.25h-1.15v-.25c0-.86.71-1.57,1.58-1.57h.4c.87,0,1.58.7,1.58,1.57,0,.48-.18.93-.5,1.29l-.63.7c-.06.06-.09.14-.09.22v.49h-1.14Z"/>
      <path d="M9.2,6.25c.73,0,1.32.59,1.32,1.31,0,.41-.15.81-.43,1.12l-.63.7c-.1.11-.15.24-.15.39v.24h-.64v-.24c0-.3.11-.59.31-.81l.63-.7c.17-.19.27-.44.27-.69,0-.37-.31-.68-.68-.68h-.4c-.38,0-.68.3-.68.68h-.64c0-.72.59-1.31,1.32-1.31h.4M9.2,5.74h-.4c-1.01,0-1.83.82-1.83,1.82v.51h1.65v-.51c0-.1.08-.17.18-.17h.4c.1,0,.18.08.18.17,0,.13-.05.26-.14.35l-.63.7c-.29.32-.44.72-.44,1.15v.25s0,.5,0,.5h1.64v-.5s0-.24,0-.24c0-.02,0-.03.02-.05l.63-.7c.36-.4.56-.92.56-1.45,0-1-.82-1.82-1.83-1.82h0Z"/>
    </g>
  </g>
</svg>