<?xml version="1.0" encoding="UTF-8"?>
<svg id="Layer_1" xmlns="http://www.w3.org/2000/svg" version="1.1" viewBox="0 0 18 18">
  <!-- Generator: Adobe Illustrator 30.1.0, SVG Export Plug-In . SVG Version: 2.1.1 Build 136)  -->
  <circle id="Outer" cx="9" cy="9" r="8.06" fill="none" stroke="#000" stroke-width="1.88"/>
  <g>
    <g>
      <rect x="8.43" y="11.85" width="1.13" height="1.13"/>
      <path d="M9.42,11.99v.85h-.85v-.85h.85M9.7,11.71h-1.41v1.41h1.41v-1.41h0Z"/>
    </g>
    <g>
      <path d="M8.43,10.63v-.46c0-.44.16-.85.45-1.18l.84-.93c.21-.23.32-.52.32-.83,0-.42-.35-.77-.77-.77h-.54c-.43,0-.77.34-.77.77v.14h-1.13v-.14c0-1.04.85-1.89,1.91-1.89h.54c1.05,0,1.91.85,1.91,1.89,0,.58-.22,1.15-.61,1.58l-.84.93c-.11.12-.17.27-.17.42v.46h-1.13Z"/>
      <path d="M9.27,5.48c.97,0,1.77.79,1.77,1.75,0,.55-.2,1.08-.57,1.49l-.84.93c-.13.14-.2.32-.2.51v.32h-.85v-.32c0-.4.15-.78.42-1.08l.84-.93c.23-.25.36-.58.36-.92,0-.5-.41-.91-.91-.91h-.54c-.5,0-.91.41-.91.91h-.85c0-.97.79-1.75,1.77-1.75h.54M9.27,5.2h-.54c-1.13,0-2.05.91-2.05,2.03v.28h1.42v-.28c0-.34.28-.62.63-.62h.54c.35,0,.63.28.63.62,0,.27-.1.53-.28.73l-.84.93c-.31.35-.49.8-.49,1.27v.32s0,.28,0,.28h1.4v-.28s0-.32,0-.32c0-.12.05-.24.13-.33l.84-.93c.42-.46.65-1.06.65-1.68,0-1.12-.92-2.03-2.05-2.03h0Z"/>
    </g>
  </g>
</svg>