<?xml version="1.0" encoding="UTF-8"?>
<svg id="Layer_1" xmlns="http://www.w3.org/2000/svg" version="1.1" viewBox="0 0 18 18">
  <!-- Generator: Adobe Illustrator 30.1.0, SVG Export Plug-In . SVG Version: 2.1.1 Build 136)  -->
  <circle id="Outer" cx="9" cy="9" r="7.74" fill="none" stroke="#000" stroke-width="2.52"/>
  <g>
    <g>
      <rect x="8.43" y="11.61" width="1.13" height="1.13"/>
      <path d="M9.36,11.81v.74h-.74v-.74h.74M9.76,11.41h-1.52v1.52h1.52v-1.52h0Z"/>
    </g>
    <g>
      <path d="M8.43,10.43v-.47c0-.4.15-.78.41-1.08l.73-.81c.17-.19.26-.42.26-.67,0-.33-.27-.59-.6-.59h-.47c-.33,0-.6.27-.6.59v.2h-1.14v-.2c0-.95.78-1.73,1.74-1.73h.47c.96,0,1.74.77,1.74,1.73,0,.53-.2,1.04-.55,1.43l-.73.81c-.08.09-.12.2-.13.32v.48h-1.13Z"/>
      <path d="M9.23,5.87c.85,0,1.54.69,1.54,1.53,0,.48-.18.94-.5,1.3l-.73.81c-.11.13-.18.28-.18.45v.28h-.74v-.28c0-.35.13-.68.36-.94l.73-.81c.2-.22.31-.51.31-.8,0-.44-.36-.79-.8-.79h-.47c-.44,0-.8.35-.8.79h-.74c0-.84.69-1.53,1.54-1.53h.47M9.23,5.48h-.47c-1.07,0-1.93.86-1.93,1.92v.39h1.53v-.39c0-.22.18-.4.4-.4h.47c.22,0,.4.18.4.4,0,.2-.07.39-.21.54l-.73.81c-.3.33-.46.76-.47,1.2v.28s0,.39,0,.39h1.52v-.39s0-.28,0-.28c0-.07.03-.13.07-.19l.73-.81c.39-.43.6-.98.6-1.56,0-1.06-.87-1.92-1.93-1.92h0Z"/>
    </g>
  </g>
</svg>