<?xml version="1.0" encoding="UTF-8"?>
<svg id="Layer_1" xmlns="http://www.w3.org/2000/svg" version="1.1" viewBox="0 0 64 64">
  <!-- Generator: Adobe Illustrator 30.1.0, SVG Export Plug-In . SVG Version: 2.1.1 Build 136)  -->
  <g>
    <g>
      <rect x="29.73" y="17.02" width="4.54" height="4.54"/>
      <path d="M33.77,17.52v3.54h-3.54v-3.54h3.54M34.77,16.52h-5.54v5.54h5.54v-5.54h0Z"/>
    </g>
    <g>
      <polygon points="26.19 46.79 26.19 42.25 29.73 42.25 29.73 32.2 26.19 32.2 26.19 27.66 34.27 27.66 34.27 42.25 37.81 42.25 37.81 46.79 26.19 46.79"/>
      <path d="M33.77,28.16v14.58h3.54v3.54h-10.61v-3.54h3.54v-11.05h-3.54v-3.54h7.08M34.77,27.16h-9.08v5.54h3.54v9.05h-3.54v5.54h12.61v-5.54h-3.54v-14.58h0Z"/>
    </g>
  </g>
  <circle id="Outer" cx="32" cy="32" r="28.65" fill="none" stroke="#000" stroke-width="6.7"/>
</svg>