<?xml version="1.0" encoding="UTF-8"?>
<svg id="Layer_1" xmlns="http://www.w3.org/2000/svg" version="1.1" viewBox="0 0 64 64">
  <!-- Generator: Adobe Illustrator 30.1.0, SVG Export Plug-In . SVG Version: 2.1.1 Build 136)  -->
  <g>
    <g>
      <rect x="29.7" y="17.83" width="4.61" height="4.61"/>
      <path d="M33.6,18.53v3.21h-3.21v-3.21h3.21M35,17.13h-6.01v6.01h6.01v-6.01h0Z"/>
    </g>
    <g>
      <polygon points="26.49 45.79 26.49 41.18 29.7 41.18 29.7 32.57 26.49 32.57 26.49 27.96 34.3 27.96 34.3 41.18 37.51 41.18 37.51 45.79 26.49 45.79"/>
      <path d="M33.6,28.66v13.22h3.21v3.21h-9.62v-3.21h3.21v-10.01h-3.21v-3.21h6.42M35,27.26h-9.22v6.01h3.21v7.22h-3.21v6.01h12.42v-6.01h-3.21v-13.22h0Z"/>
    </g>
  </g>
  <circle id="Outer" cx="32" cy="32" r="27.52" fill="none" stroke="#000" stroke-width="8.96"/>
</svg>