<?xml version="1.0" encoding="UTF-8"?>
<svg id="Layer_1" xmlns="http://www.w3.org/2000/svg" version="1.1" viewBox="0 0 50 50">
  <!-- Generator: Adobe Illustrator 30.1.0, SVG Export Plug-In . SVG Version: 2.1.1 Build 136)  -->
  <path d="M25,5.23c.64,0,1.29.33,1.62,1l4.14,8.21c.71,1.41,2.03,2.4,3.58,2.7l8.95,1.68c1.4.26,1.97,1.96,1.01,3.02l-6.52,7.15c-1.01,1.1-1.47,2.6-1.28,4.08l1.27,9.64c.15,1.15-.77,2.06-1.8,2.06-.27,0-.56-.06-.83-.2l-7.82-4.03c-.73-.37-1.52-.56-2.31-.56-.79,0-1.59.19-2.31.56l-7.82,4.03c-.27.14-.56.2-.83.2-1.03,0-1.95-.91-1.8-2.06l1.27-9.65c.2-1.48-.27-2.97-1.28-4.07l-6.52-7.15c-.96-1.05-.39-2.75,1.01-3.02l8.95-1.68c1.55-.29,2.87-1.29,3.58-2.69l4.14-8.21c.34-.67.98-1,1.62-1M25,0C22.32,0,19.91,1.49,18.7,3.88l-4.1,8.13-8.85,1.66c-2.51.47-4.57,2.27-5.39,4.69-.81,2.43-.25,5.11,1.48,7l6.46,7.09-1.26,9.57c-.27,2.02.35,4.05,1.68,5.57,1.34,1.53,3.28,2.41,5.31,2.41,1.11,0,2.23-.27,3.23-.79l7.74-3.99,7.74,3.99c1,.51,2.11.79,3.23.79,2.03,0,3.96-.88,5.31-2.41,1.34-1.52,1.95-3.55,1.68-5.57l-1.26-9.57,6.47-7.09c1.72-1.89,2.29-4.57,1.47-6.99-.81-2.42-2.88-4.22-5.39-4.69l-8.86-1.66-4.1-8.13C30.09,1.49,27.68,0,25,0h0Z"/>
</svg>