<?xml version="1.0" encoding="UTF-8"?>
<svg id="Layer_1" xmlns="http://www.w3.org/2000/svg" version="1.1" viewBox="0 0 50 50">
  <!-- Generator: Adobe Illustrator 30.1.0, SVG Export Plug-In . SVG Version: 2.1.1 Build 136)  -->
  <path d="M25,8.77c.53,0,1.06.27,1.33.82l3.4,6.74c.58,1.16,1.67,1.98,2.94,2.21l7.35,1.38c1.15.22,1.61,1.61.83,2.48l-5.35,5.87c-.83.91-1.21,2.13-1.05,3.35l1.04,7.92c.12.94-.63,1.69-1.48,1.69-.23,0-.46-.05-.68-.17l-6.43-3.31c-.6-.31-1.25-.46-1.9-.46s-1.3.15-1.9.46l-6.43,3.31c-.22.12-.46.17-.68.17-.85,0-1.6-.75-1.48-1.69l1.05-7.92c.16-1.22-.22-2.44-1.05-3.35l-5.35-5.87c-.79-.87-.32-2.26.83-2.48l7.35-1.38c1.27-.24,2.36-1.06,2.94-2.21l3.4-6.74c.28-.55.8-.82,1.33-.82M25,0c-3.9,0-7.41,2.16-9.16,5.64l-2.37,4.7-5.1.96c-3.65.68-6.66,3.3-7.84,6.83-1.18,3.53-.36,7.42,2.15,10.17l3.91,4.29-.77,5.8c-.39,2.93.51,5.88,2.45,8.1,1.95,2.23,4.76,3.5,7.72,3.5,1.62,0,3.25-.39,4.7-1.14l4.31-2.22,4.31,2.22c1.45.75,3.07,1.14,4.69,1.14,2.95,0,5.76-1.28,7.72-3.5,1.95-2.22,2.84-5.17,2.45-8.1l-.77-5.8,3.91-4.29c2.5-2.75,3.33-6.65,2.15-10.17-1.18-3.52-4.18-6.14-7.84-6.82l-5.1-.96-2.37-4.7c-1.75-3.48-5.26-5.64-9.16-5.64h0Z"/>
</svg>