<?xml version="1.0" encoding="UTF-8"?>
<svg id="Layer_1" xmlns="http://www.w3.org/2000/svg" version="1.1" viewBox="0 0 50 50">
  <!-- Generator: Adobe Illustrator 30.1.0, SVG Export Plug-In . SVG Version: 2.1.1 Build 136)  -->
  <path d="M25,7c.59,0,1.17.3,1.48.91l3.77,7.48c.65,1.28,1.85,2.19,3.26,2.45l8.15,1.53c1.27.24,1.79,1.79.92,2.75l-5.94,6.51c-.92,1-1.34,2.36-1.16,3.71l1.16,8.78c.14,1.05-.7,1.88-1.64,1.88-.25,0-.51-.06-.76-.19l-7.13-3.67c-.66-.34-1.38-.51-2.1-.51s-1.44.17-2.1.51l-7.13,3.67c-.25.13-.51.19-.76.19-.94,0-1.78-.83-1.64-1.88l1.16-8.79c.18-1.35-.25-2.71-1.16-3.71l-5.94-6.51c-.87-.96-.36-2.51.92-2.75l8.15-1.53c1.41-.26,2.61-1.17,3.26-2.45l3.77-7.48c.31-.61.89-.91,1.48-.91M25,0C21.71,0,18.75,1.82,17.27,4.76l-3.23,6.42-6.98,1.31c-3.08.58-5.62,2.78-6.61,5.76-1,2.98-.3,6.27,1.81,8.58l5.19,5.69-1.01,7.69c-.33,2.47.43,4.97,2.07,6.84,1.65,1.88,4.02,2.96,6.51,2.96,1.37,0,2.74-.33,3.96-.96l6.03-3.1,6.03,3.1c1.22.63,2.59.96,3.96.96,2.49,0,4.86-1.08,6.51-2.96,1.64-1.87,2.39-4.36,2.07-6.84l-1.01-7.69,5.19-5.69c2.11-2.32,2.81-5.61,1.81-8.58-1-2.97-3.53-5.18-6.61-5.76l-6.98-1.31-3.23-6.42C31.25,1.82,28.29,0,25,0h0Z"/>
</svg>