<?xml version="1.0" encoding="UTF-8"?>
<svg id="Layer_1" xmlns="http://www.w3.org/2000/svg" version="1.1" viewBox="0 0 45 45">
  <!-- Generator: Adobe Illustrator 30.1.0, SVG Export Plug-In . SVG Version: 2.1.1 Build 136)  -->
  <circle id="Outer" cx="22.5" cy="22.5" r="18.56" fill="none" stroke="#000" stroke-width="7.89"/>
  <g>
    <g>
      <rect x="21.06" y="28.42" width="2.85" height="2.85"/>
      <path d="M23.28,29.05v1.59h-1.59v-1.59h1.59M24.55,27.79h-4.12v4.12h4.12v-4.12h0Z"/>
    </g>
    <g>
      <path d="M21.07,25.64v-1.23c0-.91.33-1.78.94-2.46l1.57-1.74c.32-.36.5-.82.5-1.31,0-.59-.48-1.07-1.08-1.07h-1.01c-.59,0-1.08.48-1.08,1.07v.63h-2.86v-.63c0-2.16,1.77-3.92,3.94-3.92h1.01c2.17,0,3.94,1.76,3.94,3.92,0,1.19-.44,2.33-1.24,3.21l-1.57,1.74c-.14.16-.21.34-.22.54v1.23h-2.85Z"/>
      <path d="M23,15.63c1.83,0,3.31,1.47,3.31,3.29,0,1.03-.38,2.02-1.07,2.79l-1.57,1.74c-.24.27-.38.6-.38.97v.6h-1.59v-.6c0-.75.27-1.47.78-2.03l1.57-1.74c.43-.48.67-1.09.67-1.73,0-.94-.77-1.7-1.71-1.7h-1.01c-.94,0-1.71.76-1.71,1.7h-1.6c0-1.81,1.48-3.29,3.31-3.29h1.01M23,14.36h-1.01c-2.52,0-4.58,2.04-4.58,4.55v1.27h4.13v-1.27c0-.24.2-.43.45-.43h1.01c.25,0,.45.19.45.43,0,.33-.12.64-.34.88l-1.57,1.74c-.71.79-1.11,1.81-1.11,2.87v.62s.02,1.25.02,1.25h4.09v-1.25s.02-.6.02-.6c0-.04,0-.08.05-.13l1.57-1.74c.9-1,1.4-2.29,1.4-3.64,0-2.51-2.05-4.55-4.58-4.55h0Z"/>
    </g>
  </g>
</svg>