<?xml version="1.0" encoding="UTF-8"?>
<svg id="Layer_1" xmlns="http://www.w3.org/2000/svg" version="1.1" viewBox="0 0 45 45">
  <!-- Generator: Adobe Illustrator 30.1.0, SVG Export Plug-In . SVG Version: 2.1.1 Build 136)  -->
  <circle id="Outer" cx="22.5" cy="22.5" r="20.14" fill="none" stroke="#000" stroke-width="4.71"/>
  <g>
    <g>
      <rect x="21.08" y="29.63" width="2.82" height="2.82"/>
      <path d="M23.54,29.98v2.11h-2.11v-2.11h2.11M24.25,29.28h-3.52v3.52h3.52v-3.52h0Z"/>
    </g>
    <g>
      <path d="M21.08,26.57v-1.15c0-1.09.4-2.13,1.13-2.94l2.09-2.32c.51-.57.8-1.31.8-2.07,0-1.06-.87-1.91-1.93-1.91h-1.34c-1.06,0-1.93.86-1.93,1.91v.35h-2.84v-.35c0-2.61,2.14-4.73,4.76-4.73h1.34c2.63,0,4.76,2.12,4.76,4.73,0,1.46-.54,2.87-1.52,3.95l-2.09,2.32c-.27.3-.41.66-.41,1.05v1.15h-2.82Z"/>
      <path d="M23.17,13.71c2.43,0,4.41,1.97,4.41,4.38,0,1.37-.51,2.69-1.43,3.72l-2.09,2.32c-.32.36-.5.8-.51,1.29v.8h-2.12v-.8c0-1,.37-1.96,1.04-2.7l2.09-2.32c.57-.63.89-1.45.89-2.31,0-1.25-1.02-2.26-2.28-2.26h-1.34c-1.26,0-2.28,1.02-2.28,2.26h-2.13c0-2.42,1.98-4.38,4.41-4.38h1.34M23.17,13h-1.34c-2.82,0-5.12,2.28-5.12,5.09v.7h3.54v-.7c0-.86.71-1.56,1.58-1.56h1.34c.87,0,1.58.7,1.58,1.56,0,.68-.25,1.33-.71,1.83l-2.09,2.32c-.79.87-1.22,2-1.23,3.17v.81s.01.7.01.7h.7s2.11,0,2.11,0h.7v-.7s.02-.8.02-.8c0-.31.11-.59.32-.82l2.09-2.32c1.04-1.15,1.61-2.64,1.61-4.19,0-2.8-2.3-5.09-5.12-5.09h0Z"/>
    </g>
  </g>
</svg>