<?xml version="1.0" encoding="UTF-8"?>
<svg id="Layer_1" xmlns="http://www.w3.org/2000/svg" version="1.1" viewBox="0 0 45 45">
  <!-- Generator: Adobe Illustrator 30.1.0, SVG Export Plug-In . SVG Version: 2.1.1 Build 136)  -->
  <circle id="Outer" cx="22.5" cy="22.5" r="19.35" fill="none" stroke="#000" stroke-width="6.3"/>
  <g>
    <g>
      <rect x="21.07" y="29.03" width="2.83" height="2.83"/>
      <path d="M23.41,29.52v1.84h-1.84v-1.84h1.84M24.39,28.53h-3.81v3.81h3.81v-3.81h0Z"/>
    </g>
    <g>
      <path d="M21.08,26.08v-1.18c0-1,.36-1.95,1.03-2.69l1.83-2.02c.42-.46.65-1.06.65-1.68,0-.82-.67-1.48-1.5-1.48h-1.17c-.83,0-1.5.67-1.5,1.48v.49h-2.84v-.49c0-2.38,1.95-4.31,4.34-4.31h1.17c2.39,0,4.34,1.94,4.34,4.31,0,1.32-.49,2.59-1.38,3.57l-1.83,2.02c-.2.23-.31.5-.31.79v1.19h-2.83Z"/>
      <path d="M23.09,14.69c2.12,0,3.85,1.71,3.85,3.82,0,1.2-.44,2.35-1.25,3.24l-1.83,2.02c-.28.31-.44.7-.44,1.12v.7h-1.85v-.7c0-.87.32-1.71.91-2.36l1.83-2.02c.5-.55.77-1.27.77-2.01,0-1.09-.89-1.98-1.99-1.98h-1.17c-1.1,0-1.99.89-1.99,1.98h-1.86c0-2.11,1.73-3.82,3.85-3.82h1.17M23.09,13.7h-1.17c-2.66,0-4.83,2.16-4.83,4.81v.98h.98s1.86,0,1.86,0h.98v-.98c0-.55.45-.99,1-.99h1.17c.55,0,1,.44,1,.99,0,.5-.19.98-.52,1.35l-1.83,2.02c-.75.83-1.16,1.9-1.17,3.01v.71s.01.98.01.98h3.79v-.97s.02-.7.02-.7c0-.18.06-.34.19-.47l1.83-2.02c.97-1.07,1.5-2.46,1.5-3.9,0-2.65-2.17-4.81-4.83-4.81h0Z"/>
    </g>
  </g>
</svg>