<?xml version="1.0" encoding="UTF-8"?>
<svg id="Layer_1" xmlns="http://www.w3.org/2000/svg" version="1.1" viewBox="0 0 46 46">
  <!-- Generator: Adobe Illustrator 30.1.0, SVG Export Plug-In . SVG Version: 2.1.1 Build 136)  -->
  <g>
    <g>
      <rect x="21.34" y="12.82" width="3.31" height="3.31"/>
      <path d="M24.15,13.32v2.31h-2.31v-2.31h2.31M25.16,12.32h-4.32v4.32h4.32v-4.32h0Z"/>
    </g>
    <g>
      <polygon points="19.04 32.91 19.04 29.6 21.34 29.6 21.34 23.41 19.04 23.41 19.04 20.1 24.66 20.1 24.66 29.6 26.96 29.6 26.96 32.91 19.04 32.91"/>
      <path d="M24.15,20.6v9.5h2.31v2.31h-6.92v-2.31h2.31v-7.2h-2.31v-2.31h4.61M25.16,19.59h-6.62v4.32h2.31v5.19h-2.31v4.32h8.93v-4.32h-2.31v-9.5h0Z"/>
    </g>
  </g>
  <circle id="Outer" cx="23" cy="23" r="19.78" fill="none" stroke="#000" stroke-width="6.44"/>
</svg>