<?xml version="1.0" encoding="UTF-8"?>
<svg id="Layer_1" xmlns="http://www.w3.org/2000/svg" version="1.1" viewBox="0 0 46 46">
  <!-- Generator: Adobe Illustrator 30.1.0, SVG Export Plug-In . SVG Version: 2.1.1 Build 136)  -->
  <g>
    <g>
      <rect x="21.32" y="13.4" width="3.37" height="3.37"/>
      <path d="M24.04,14.05v2.07h-2.07v-2.07h2.07M25.33,12.76h-4.66v4.66h4.66v-4.66h0Z"/>
    </g>
    <g>
      <polygon points="19.24 32.21 19.24 28.84 21.32 28.84 21.32 23.67 19.24 23.67 19.24 20.3 24.68 20.3 24.68 28.84 26.75 28.84 26.75 32.21 19.24 32.21"/>
      <path d="M24.04,20.95v8.54h2.07v2.07h-6.22v-2.07h2.07v-6.47h-2.07v-2.07h4.15M25.33,19.65h-6.73v4.66h2.07v3.88h-2.07v4.66h8.81v-4.66h-2.07v-8.54h0Z"/>
    </g>
  </g>
  <circle id="Outer" cx="23" cy="23" r="18.97" fill="none" stroke="#000" stroke-width="8.06"/>
</svg>