<?xml version="1.0" encoding="UTF-8"?>
<svg id="Layer_1" xmlns="http://www.w3.org/2000/svg" version="1.1" viewBox="0 0 64 64">
  <!-- Generator: Adobe Illustrator 30.1.0, SVG Export Plug-In . SVG Version: 2.1.1 Build 136)  -->
  <circle id="Outer" cx="32" cy="32" r="27.52" fill="none" stroke="#000" stroke-width="8.96"/>
  <g>
    <g>
      <rect x="29.97" y="41.28" width="4.02" height="4.02"/>
      <path d="M33.29,41.98v2.62h-2.62v-2.62h2.62M34.69,40.58h-5.42v5.42h5.42v-5.42h0Z"/>
    </g>
    <g>
      <path d="M29.98,37.1l-.02-1.69c0-1.42.53-2.78,1.48-3.83l2.6-2.88c.59-.66.92-1.51.92-2.39,0-1.16-.96-2.11-2.13-2.11h-1.67c-1.17,0-2.13.95-2.13,2.11v.7h-4.04v-.7c0-3.38,2.77-6.13,6.17-6.13h1.67c3.4,0,6.17,2.75,6.17,6.13,0,1.88-.7,3.68-1.96,5.08l-2.6,2.88c-.29.32-.44.71-.45,1.13l-.02,1.69h-4.01Z"/>
      <path d="M32.83,20.89c3.02,0,5.47,2.44,5.47,5.43,0,1.71-.63,3.34-1.78,4.61l-2.6,2.88c-.4.44-.62,1-.63,1.6v.99h-2.63v-.99c0-1.24.45-2.43,1.29-3.35l2.6-2.88c.71-.79,1.1-1.8,1.1-2.86,0-1.55-1.27-2.81-2.83-2.81h-1.67c-1.56,0-2.83,1.26-2.83,2.81h-2.64c0-3,2.45-5.43,5.47-5.43h1.67M32.83,19.49h-1.67c-3.79,0-6.87,3.07-6.87,6.83v1.4h5.44v-1.4c0-.78.64-1.41,1.43-1.41h1.67c.79,0,1.43.63,1.43,1.41,0,.71-.26,1.39-.74,1.92l-2.6,2.88c-1.06,1.18-1.65,2.7-1.66,4.28v1.01s.02,1.39.02,1.39h5.39v-1.39s.02-.99.02-.99c0-.26.09-.48.27-.67l2.6-2.88c1.38-1.53,2.14-3.5,2.14-5.55,0-3.77-3.08-6.83-6.87-6.83h0Z"/>
    </g>
  </g>
</svg>