<?xml version="1.0" encoding="UTF-8"?>
<svg id="Layer_1" xmlns="http://www.w3.org/2000/svg" version="1.1" viewBox="0 0 57 57">
  <!-- Generator: Adobe Illustrator 30.1.0, SVG Export Plug-In . SVG Version: 2.1.1 Build 136)  -->
  <path d="M28.5,5.97c.73,0,1.47.38,1.85,1.14l4.71,9.36c.81,1.61,2.32,2.74,4.08,3.07l10.2,1.91c1.59.3,2.24,2.24,1.15,3.44l-7.43,8.15c-1.15,1.26-1.68,2.96-1.46,4.65l1.45,10.99c.17,1.31-.87,2.35-2.05,2.35-.31,0-.63-.07-.95-.23l-8.92-4.59c-.83-.43-1.73-.64-2.63-.64-.9,0-1.81.21-2.63.64l-8.92,4.59c-.31.16-.63.23-.95.23-1.18,0-2.22-1.04-2.05-2.35l1.45-11c.22-1.69-.31-3.39-1.46-4.64l-7.43-8.15c-1.09-1.2-.45-3.14,1.15-3.44l10.2-1.91c1.76-.33,3.27-1.47,4.08-3.07l4.71-9.36c.38-.76,1.12-1.14,1.85-1.14M28.5,0C25.45,0,22.7,1.69,21.32,4.42l-4.67,9.27-10.09,1.89c-2.86.54-5.22,2.59-6.14,5.35-.93,2.76-.28,5.82,1.68,7.98l7.37,8.09-1.44,10.91c-.3,2.3.4,4.61,1.92,6.35,1.53,1.75,3.74,2.75,6.05,2.75,1.27,0,2.54-.31,3.68-.9l8.82-4.54,8.82,4.54c1.14.59,2.41.9,3.68.9,2.31,0,4.52-1,6.05-2.75,1.52-1.74,2.22-4.05,1.92-6.35l-1.44-10.91,7.37-8.09c1.96-2.15,2.61-5.21,1.68-7.97-.93-2.76-3.28-4.81-6.14-5.35l-10.1-1.89-4.67-9.27C34.3,1.69,31.55,0,28.5,0h0Z"/>
</svg>