<?xml version="1.0" encoding="UTF-8"?>
<svg id="Layer_1" xmlns="http://www.w3.org/2000/svg" version="1.1" viewBox="0 0 57 57">
  <!-- Generator: Adobe Illustrator 30.1.0, SVG Export Plug-In . SVG Version: 2.1.1 Build 136)  -->
  <path d="M28.5,9.99c.6,0,1.2.31,1.52.94l3.87,7.69c.66,1.32,1.9,2.25,3.35,2.52l8.38,1.57c1.31.25,1.84,1.84.94,2.82l-6.1,6.7c-.94,1.03-1.38,2.43-1.2,3.82l1.19,9.03c.14,1.08-.72,1.93-1.68,1.93-.26,0-.52-.06-.78-.19l-7.33-3.77c-.68-.35-1.42-.52-2.16-.52s-1.48.17-2.16.52l-7.33,3.77c-.26.13-.52.19-.78.19-.97,0-1.83-.85-1.68-1.93l1.19-9.03c.18-1.39-.25-2.78-1.2-3.81l-6.1-6.7c-.9-.99-.37-2.58.94-2.83l8.38-1.57c1.45-.27,2.69-1.2,3.35-2.52l3.87-7.69c.31-.62.92-.94,1.52-.94M28.5,0c-4.44,0-8.44,2.47-10.44,6.43l-2.7,5.36-5.81,1.09c-4.16.78-7.59,3.76-8.93,7.78-1.35,4.02-.41,8.46,2.45,11.6l4.46,4.89-.87,6.61c-.44,3.34.58,6.71,2.8,9.24,2.22,2.54,5.43,3.99,8.8,3.99,1.85,0,3.7-.45,5.35-1.3l4.92-2.53,4.92,2.53c1.65.85,3.5,1.3,5.35,1.3,3.37,0,6.57-1.46,8.8-3.99,2.22-2.53,3.24-5.9,2.8-9.24l-.87-6.61,4.46-4.89c2.86-3.13,3.79-7.58,2.45-11.6-1.35-4.02-4.77-7-8.93-7.78l-5.82-1.09-2.7-5.36c-2-3.97-6-6.43-10.44-6.43h0Z"/>
</svg>