<?xml version="1.0" encoding="UTF-8"?>
<svg id="Layer_1" xmlns="http://www.w3.org/2000/svg" version="1.1" viewBox="0 0 59 59">
  <!-- Generator: Adobe Illustrator 30.1.0, SVG Export Plug-In . SVG Version: 2.1.1 Build 136)  -->
  <path d="M29.5,6.18c.76,0,1.52.39,1.91,1.18l4.88,9.69c.84,1.66,2.4,2.84,4.23,3.18l10.56,1.98c1.65.31,2.32,2.32,1.19,3.56l-7.69,8.44c-1.19,1.3-1.74,3.06-1.51,4.81l1.5,11.38c.18,1.36-.9,2.43-2.12,2.43-.32,0-.66-.08-.98-.24l-9.23-4.76c-.86-.44-1.79-.66-2.73-.66-.94,0-1.87.22-2.73.66l-9.23,4.76c-.32.17-.66.24-.98.24-1.22,0-2.3-1.08-2.12-2.43l1.5-11.38c.23-1.75-.32-3.51-1.51-4.81l-7.69-8.44c-1.13-1.24-.46-3.25,1.19-3.56l10.56-1.98c1.82-.34,3.39-1.52,4.22-3.18l4.88-9.69c.4-.79,1.15-1.18,1.91-1.18M29.5,0C26.34,0,23.49,1.75,22.07,4.58l-4.83,9.59-10.45,1.96c-2.96.56-5.4,2.68-6.36,5.54-.96,2.86-.29,6.02,1.74,8.25l7.63,8.37-1.49,11.29c-.31,2.38.41,4.77,1.99,6.57,1.59,1.81,3.87,2.85,6.26,2.85,1.31,0,2.63-.32,3.81-.93l9.13-4.7,9.13,4.7c1.18.61,2.49.93,3.81.93,2.39,0,4.68-1.04,6.26-2.85,1.58-1.8,2.3-4.19,1.99-6.57l-1.49-11.29,7.63-8.37c2.03-2.23,2.7-5.39,1.74-8.25-.96-2.86-3.39-4.98-6.36-5.54l-10.45-1.96-4.83-9.59C35.51,1.75,32.66,0,29.5,0h0Z"/>
</svg>