<?xml version="1.0" encoding="UTF-8"?>
<svg id="Layer_1" xmlns="http://www.w3.org/2000/svg" version="1.1" viewBox="0 0 59 59">
  <!-- Generator: Adobe Illustrator 30.1.0, SVG Export Plug-In . SVG Version: 2.1.1 Build 136)  -->
  <path d="M29.5,8.26c.69,0,1.38.36,1.74,1.07l4.44,8.82c.76,1.51,2.19,2.58,3.85,2.9l9.61,1.8c1.5.28,2.11,2.11,1.08,3.24l-7,7.69c-1.08,1.19-1.58,2.79-1.37,4.38l1.37,10.36c.16,1.24-.82,2.22-1.93,2.22-.29,0-.6-.07-.89-.22l-8.41-4.33c-.78-.4-1.63-.6-2.48-.6-.85,0-1.7.2-2.48.6l-8.41,4.33c-.29.15-.6.22-.89.22-1.11,0-2.1-.98-1.93-2.22l1.37-10.37c.21-1.59-.29-3.19-1.37-4.38l-7-7.69c-1.03-1.13-.42-2.96,1.08-3.24l9.61-1.8c1.66-.31,3.08-1.38,3.85-2.89l4.44-8.82c.36-.72,1.05-1.07,1.74-1.07M29.5,0C25.62,0,22.13,2.15,20.38,5.62l-3.81,7.57-8.23,1.54c-3.64.68-6.63,3.29-7.8,6.8-1.18,3.51-.36,7.39,2.14,10.13l6.12,6.72-1.2,9.07c-.38,2.92.5,5.86,2.44,8.07,1.94,2.22,4.74,3.49,7.68,3.49,1.61,0,3.23-.39,4.67-1.14l7.11-3.66,7.11,3.66c1.44.74,3.06,1.14,4.67,1.14,2.94,0,5.74-1.27,7.68-3.49,1.94-2.21,2.83-5.15,2.44-8.07l-1.2-9.07,6.12-6.72c2.49-2.74,3.31-6.62,2.14-10.13-1.18-3.51-4.16-6.11-7.8-6.79l-8.23-1.54-3.81-7.57C36.87,2.15,33.38,0,29.5,0h0Z"/>
</svg>