<?xml version="1.0" encoding="UTF-8"?>
<svg id="Layer_1" xmlns="http://www.w3.org/2000/svg" version="1.1" viewBox="0 0 59 59">
  <!-- Generator: Adobe Illustrator 30.1.0, SVG Export Plug-In . SVG Version: 2.1.1 Build 136)  -->
  <path d="M29.5,10.34c.62,0,1.25.32,1.57.97l4.01,7.96c.69,1.37,1.97,2.33,3.47,2.61l8.67,1.63c1.36.25,1.91,1.9.98,2.92l-6.32,6.93c-.97,1.07-1.43,2.52-1.24,3.95l1.23,9.35c.15,1.12-.74,2-1.74,2-.27,0-.54-.06-.8-.2l-7.58-3.91c-.7-.36-1.47-.54-2.24-.54s-1.54.18-2.24.54l-7.58,3.91c-.26.14-.54.2-.8.2-1,0-1.89-.88-1.74-2l1.23-9.35c.19-1.43-.26-2.88-1.24-3.95l-6.32-6.93c-.93-1.02-.38-2.67.98-2.92l8.67-1.63c1.5-.28,2.78-1.25,3.47-2.61l4.01-7.96c.33-.65.95-.97,1.57-.97M29.5,0C24.9,0,20.76,2.55,18.69,6.66l-2.8,5.55-6.02,1.13c-4.31.81-7.85,3.89-9.25,8.05-1.39,4.16-.42,8.76,2.53,12l4.61,5.06-.9,6.85c-.46,3.46.6,6.94,2.89,9.56,2.3,2.63,5.62,4.13,9.1,4.13,1.91,0,3.83-.47,5.54-1.35l5.09-2.62,5.09,2.62c1.71.88,3.63,1.35,5.54,1.35,3.48,0,6.8-1.51,9.1-4.13,2.3-2.62,3.35-6.1,2.89-9.56l-.9-6.85,4.62-5.07c2.96-3.24,3.93-7.84,2.53-12-1.39-4.16-4.94-7.24-9.25-8.05l-6.02-1.13-2.8-5.55C38.24,2.55,34.1,0,29.5,0h0Z"/>
</svg>