<?xml version="1.0" encoding="UTF-8"?>
<svg id="Layer_1" xmlns="http://www.w3.org/2000/svg" version="1.1" viewBox="0 0 86 86">
  <!-- Generator: Adobe Illustrator 30.1.0, SVG Export Plug-In . SVG Version: 2.1.1 Build 136)  -->
  <circle id="Outer" cx="43" cy="43" r="36.98" fill="none" stroke="#000" stroke-width="12.04"/>
  <g>
    <g>
      <rect x="40.27" y="55.47" width="5.4" height="5.4"/>
      <path d="M44.74,56.41v3.52h-3.52v-3.52h3.52M46.62,54.53h-7.28v7.28h7.28v-7.28h0Z"/>
    </g>
    <g>
      <path d="M40.29,49.85l-.02-2.26c0-1.91.71-3.73,1.99-5.14l3.49-3.86c.8-.88,1.24-2.03,1.24-3.21,0-1.56-1.28-2.83-2.86-2.83h-2.24c-1.58,0-2.86,1.27-2.86,2.83v.94h-5.43v-.94c0-4.54,3.72-8.24,8.29-8.24h2.24c4.57,0,8.29,3.7,8.29,8.24,0,2.52-.93,4.95-2.63,6.83l-3.49,3.87c-.39.43-.6.96-.6,1.52l-.02,2.27h-5.39Z"/>
      <path d="M44.12,28.07c4.06,0,7.35,3.28,7.35,7.3,0,2.29-.85,4.49-2.39,6.2l-3.49,3.87c-.54.6-.84,1.34-.84,2.15v1.33h-3.54v-1.33c0-1.67.61-3.26,1.73-4.5l3.49-3.86c.96-1.06,1.48-2.42,1.48-3.84,0-2.08-1.71-3.77-3.8-3.77h-2.24c-2.1,0-3.8,1.69-3.8,3.77h-3.55c0-4.03,3.3-7.3,7.35-7.3h2.24M44.12,26.18h-2.24c-5.09,0-9.24,4.12-9.24,9.18v1.88h7.32v-1.88c0-1.04.86-1.89,1.92-1.89h2.24c1.06,0,1.92.85,1.92,1.89,0,.95-.35,1.87-1,2.58l-3.49,3.86c-1.43,1.58-2.22,3.62-2.23,5.76v1.36s.03,1.86.03,1.86h7.25l.02-1.86v-1.33c.01-.34.13-.64.37-.9l3.49-3.87c1.85-2.05,2.87-4.7,2.87-7.46,0-5.06-4.14-9.18-9.24-9.18h0Z"/>
    </g>
  </g>
</svg>