<?xml version="1.0" encoding="UTF-8"?>
<svg id="Layer_1" xmlns="http://www.w3.org/2000/svg" version="1.1" viewBox="0 0 86 86">
  <!-- Generator: Adobe Illustrator 30.1.0, SVG Export Plug-In . SVG Version: 2.1.1 Build 136)  -->
  <circle id="Outer" cx="43" cy="43" r="35.46" fill="none" stroke="#000" stroke-width="15.08"/>
  <g>
    <g>
      <rect x="40.25" y="54.31" width="5.45" height="5.45"/>
      <path d="M44.49,55.52v3.03h-3.03v-3.03h3.03M46.91,53.1h-7.87v7.87h7.87v-7.87h0Z"/>
    </g>
    <g>
      <path d="M40.27,49l-.02-2.34c0-1.75.65-3.41,1.81-4.69l3-3.32c.62-.69.96-1.57.96-2.49,0-1.12-.92-2.04-2.06-2.04h-1.93c-1.14,0-2.06.91-2.06,2.04v1.21h-5.48v-1.21c0-4.13,3.38-7.49,7.54-7.49h1.93c4.16,0,7.54,3.36,7.54,7.49,0,2.27-.84,4.45-2.37,6.14l-3,3.33c-.27.3-.41.65-.41,1.04l-.02,2.35h-5.43Z"/>
      <path d="M43.96,29.86c3.49,0,6.33,2.82,6.33,6.28,0,1.97-.73,3.86-2.05,5.33l-3,3.33c-.46.51-.72,1.15-.72,1.85v1.15h-3.04v-1.15c0-1.44.52-2.8,1.49-3.87l3-3.32c.82-.91,1.27-2.08,1.27-3.3,0-1.79-1.47-3.25-3.27-3.25h-1.93c-1.8,0-3.27,1.46-3.27,3.25h-3.06c0-3.46,2.84-6.28,6.33-6.28h1.93M43.96,27.44h-1.93c-4.82,0-8.74,3.9-8.74,8.7v2.42h7.89v-2.42c0-.46.38-.83.85-.83h1.93c.47,0,.85.37.85.83,0,.62-.23,1.22-.65,1.68l-3,3.32c-1.36,1.51-2.12,3.45-2.12,5.48v1.18s.03,2.4.03,2.4h7.82l.02-2.39v-1.15c.01-.08.02-.15.11-.25l3-3.33c1.73-1.91,2.68-4.38,2.68-6.95,0-4.8-3.92-8.7-8.74-8.7h0Z"/>
    </g>
  </g>
</svg>