<?xml version="1.0" encoding="UTF-8"?>
<svg id="Layer_1" xmlns="http://www.w3.org/2000/svg" version="1.1" viewBox="0 0 124 124">
  <!-- Generator: Adobe Illustrator 30.1.0, SVG Export Plug-In . SVG Version: 2.1.1 Build 136)  -->
  <g>
    <g>
      <rect x="57.6" y="32.98" width="8.79" height="8.79"/>
      <path d="M65.43,33.95v6.86h-6.86v-6.86h6.86M67.37,32.01h-10.73v10.73h10.73v-10.73h0Z"/>
    </g>
    <g>
      <polygon points="50.75 90.65 50.75 81.86 57.6 81.86 57.6 62.39 50.75 62.39 50.75 53.6 66.4 53.6 66.4 81.86 73.25 81.86 73.25 90.65 50.75 90.65"/>
      <path d="M65.43,54.57v28.26h6.86v6.86h-20.57v-6.86h6.86v-21.4h-6.86v-6.86h13.71M67.37,52.63h-17.59v10.73h6.86v17.53h-6.86v10.73h24.44v-10.73h-6.86v-28.26h0Z"/>
    </g>
  </g>
  <circle id="Outer" cx="62" cy="62" r="55.51" fill="none" stroke="#000" stroke-width="12.98"/>
</svg>