<?xml version="1.0" encoding="UTF-8"?>
<svg id="Layer_1" xmlns="http://www.w3.org/2000/svg" version="1.1" viewBox="0 0 124 124">
  <!-- Generator: Adobe Illustrator 30.1.0, SVG Export Plug-In . SVG Version: 2.1.1 Build 136)  -->
  <g>
    <g>
      <rect x="57.54" y="34.56" width="8.93" height="8.93"/>
      <path d="M65.11,35.91v6.22h-6.22v-6.22h6.22M67.82,33.2h-11.64v11.64h11.64v-11.64h0Z"/>
    </g>
    <g>
      <polygon points="51.32 88.72 51.32 79.79 57.54 79.79 57.54 63.1 51.32 63.1 51.32 54.17 66.46 54.17 66.46 79.79 72.68 79.79 72.68 88.72 51.32 88.72"/>
      <path d="M65.11,55.53v25.62h6.22v6.22h-18.65v-6.22h6.22v-19.4h-6.22v-6.22h12.43M67.82,52.82h-17.86v11.64h6.22v13.98h-6.22v11.64h24.07v-11.64h-6.22v-25.62h0Z"/>
    </g>
  </g>
  <circle id="Outer" cx="62" cy="62" r="53.32" fill="none" stroke="#000" stroke-width="17.36"/>
</svg>