<?xml version="1.0" encoding="UTF-8"?>
<svg id="Layer_1" xmlns="http://www.w3.org/2000/svg" version="1.1" viewBox="0 0 23 23">
  <!-- Generator: Adobe Illustrator 30.1.0, SVG Export Plug-In . SVG Version: 2.1.1 Build 136)  -->
  <g>
    <g>
      <rect x="10.68" y="6.12" width="1.63" height="1.63"/>
      <path d="M12.14,6.3v1.27h-1.27v-1.27h1.27M12.5,5.94h-1.99v1.99h1.99v-1.99h0Z"/>
    </g>
    <g>
      <polygon points="9.41 16.81 9.41 15.18 10.68 15.18 10.68 11.57 9.41 11.57 9.41 9.94 12.32 9.94 12.32 15.18 13.59 15.18 13.59 16.81 9.41 16.81"/>
      <path d="M12.14,10.12v5.24h1.27v1.27h-3.81v-1.27h1.27v-3.97h-1.27v-1.27h2.54M12.5,9.76h-3.26v1.99h1.27v3.25h-1.27v1.99h4.53v-1.99h-1.27v-5.24h0Z"/>
    </g>
  </g>
  <circle id="Outer" cx="11.5" cy="11.5" r="10.3" fill="none" stroke="#000" stroke-width="2.41"/>
</svg>