<?xml version="1.0" encoding="UTF-8"?>
<svg id="Layer_1" xmlns="http://www.w3.org/2000/svg" version="1.1" viewBox="0 0 23 23">
  <!-- Generator: Adobe Illustrator 30.1.0, SVG Export Plug-In . SVG Version: 2.1.1 Build 136)  -->
  <g>
    <g>
      <rect x="10.66" y="6.7" width="1.68" height="1.68"/>
      <path d="M12.02,7.02v1.04h-1.04v-1.04h1.04M12.67,6.38h-2.33v2.33h2.33v-2.33h0Z"/>
    </g>
    <g>
      <polygon points="9.62 16.1 9.62 14.42 10.66 14.42 10.66 11.83 9.62 11.83 9.62 10.15 12.34 10.15 12.34 14.42 13.38 14.42 13.38 16.1 9.62 16.1"/>
      <path d="M12.02,10.47v4.27h1.04v1.04h-3.11v-1.04h1.04v-3.24h-1.04v-1.04h2.07M12.67,9.83h-3.37v2.33h1.04v1.94h-1.04v2.33h4.4v-2.33h-1.04v-4.27h0Z"/>
    </g>
  </g>
  <circle id="Outer" cx="11.5" cy="11.5" r="9.48" fill="none" stroke="#000" stroke-width="4.03"/>
</svg>