<?xml version="1.0" encoding="UTF-8"?>
<svg id="Layer_1" xmlns="http://www.w3.org/2000/svg" version="1.1" viewBox="0 0 107 107">
  <!-- Generator: Adobe Illustrator 30.1.0, SVG Export Plug-In . SVG Version: 2.1.1 Build 136)  -->
  <circle id="Outer" cx="53.5" cy="53.5" r="44.12" fill="none" stroke="#000" stroke-width="18.76"/>
  <g>
    <g>
      <rect x="50.08" y="67.57" width="6.78" height="6.78"/>
      <path d="M55.36,69.08v3.77h-3.77v-3.77h3.77M58.37,66.07h-9.79v9.79h9.79v-9.79h0Z"/>
    </g>
    <g>
      <path d="M50.1,60.96l-.02-2.92c0-2.17.81-4.24,2.25-5.84l3.73-4.13c.77-.85,1.2-1.96,1.2-3.1,0-1.4-1.15-2.53-2.56-2.53h-2.4c-1.41,0-2.56,1.14-2.56,2.53v1.5h-6.81v-1.5c0-5.14,4.21-9.32,9.38-9.32h2.4c5.17,0,9.38,4.18,9.38,9.32,0,2.82-1.05,5.54-2.95,7.64l-3.73,4.14c-.34.38-.51.81-.51,1.29l-.03,2.93h-6.75Z"/>
      <path d="M54.7,37.15c4.34,0,7.87,3.51,7.87,7.82,0,2.45-.91,4.81-2.56,6.63l-3.73,4.14c-.58.64-.9,1.43-.9,2.3v1.43h-3.78v-1.43c0-1.79.65-3.49,1.85-4.82l3.73-4.14c1.02-1.13,1.58-2.59,1.58-4.11,0-2.23-1.83-4.04-4.07-4.04h-2.4c-2.24,0-4.07,1.81-4.07,4.04h-3.8c0-4.31,3.53-7.82,7.87-7.82h2.4M54.7,34.14h-2.4c-6,0-10.88,4.86-10.88,10.82v3.01h9.82v-3.01c0-.57.47-1.03,1.06-1.03h2.4c.58,0,1.06.46,1.06,1.03,0,.77-.29,1.52-.81,2.09l-3.73,4.14c-1.69,1.87-2.63,4.3-2.64,6.82v1.46s.04,2.98.04,2.98h9.73l.03-2.98v-1.43c.01-.1.03-.19.14-.31l3.74-4.14c2.15-2.38,3.33-5.45,3.33-8.65,0-5.97-4.88-10.82-10.88-10.82h0Z"/>
    </g>
  </g>
</svg>