<?xml version="1.0" encoding="UTF-8"?>
<svg id="Layer_1" xmlns="http://www.w3.org/2000/svg" version="1.1" viewBox="0 0 107 107">
  <!-- Generator: Adobe Illustrator 30.1.0, SVG Export Plug-In . SVG Version: 2.1.1 Build 136)  -->
  <circle id="Outer" cx="53.5" cy="53.5" r="46.01" fill="none" stroke="#000" stroke-width="14.98"/>
  <g>
    <g>
      <rect x="50.11" y="69.02" width="6.72" height="6.72"/>
      <path d="M55.66,70.19v4.38h-4.38v-4.38h4.38M58,67.85h-9.06v9.06h9.06v-9.06h0Z"/>
    </g>
    <g>
      <path d="M50.12,62.02l-.02-2.82c0-2.38.89-4.64,2.47-6.4l4.34-4.81c.99-1.1,1.54-2.52,1.54-4,0-1.94-1.6-3.53-3.56-3.53h-2.79c-1.96,0-3.56,1.58-3.56,3.53v1.17h-6.76v-1.17c0-5.66,4.63-10.26,10.32-10.26h2.79c5.69,0,10.32,4.6,10.32,10.26,0,3.14-1.16,6.16-3.27,8.49l-4.34,4.81c-.49.54-.74,1.19-.75,1.89l-.03,2.82h-6.7Z"/>
      <path d="M54.89,34.92c5.05,0,9.15,4.08,9.15,9.09,0,2.85-1.06,5.59-2.97,7.71l-4.34,4.81c-.67.74-1.04,1.67-1.05,2.67l-.02,1.66h-4.38v-1.66c0-2.08.76-4.06,2.16-5.6l4.34-4.81c1.19-1.32,1.84-3.01,1.84-4.78,0-2.59-2.12-4.7-4.73-4.7h-2.79c-2.61,0-4.73,2.11-4.73,4.7h-4.42c0-5.01,4.1-9.09,9.15-9.09h2.79M54.89,32.58h-2.79c-6.34,0-11.49,5.13-11.49,11.43v2.34h9.1v-2.34c0-1.3,1.07-2.36,2.39-2.36h2.79c1.32,0,2.39,1.06,2.39,2.36,0,1.19-.44,2.33-1.24,3.21l-4.34,4.81c-1.78,1.97-2.76,4.51-2.77,7.16v1.69s.04,2.32.04,2.32h9.02l.02-2.32.02-1.66c0-.43.15-.8.44-1.12l4.34-4.81c2.3-2.55,3.57-5.85,3.57-9.28,0-6.3-5.15-11.43-11.49-11.43h0Z"/>
    </g>
  </g>
</svg>