<?xml version="1.0" encoding="UTF-8"?>
<svg id="Layer_1" xmlns="http://www.w3.org/2000/svg" version="1.1" viewBox="0 0 107 107">
  <!-- Generator: Adobe Illustrator 30.1.0, SVG Export Plug-In . SVG Version: 2.1.1 Build 136)  -->
  <circle id="Outer" cx="53.5" cy="53.5" r="47.9" fill="none" stroke="#000" stroke-width="11.2"/>
  <g>
    <g>
      <rect x="50.12" y="70.45" width="6.7" height="6.7"/>
      <path d="M55.98,71.29v5.03h-5.03v-5.03h5.03M57.65,69.61h-8.37v8.37h8.37v-8.37h0Z"/>
    </g>
    <g>
      <path d="M50.13,63.17l-.02-2.73c0-2.59.97-5.07,2.71-6.99l4.98-5.51c1.22-1.36,1.9-3.1,1.9-4.92,0-2.51-2.06-4.55-4.59-4.55h-3.2c-2.53,0-4.59,2.04-4.59,4.55v.84h-6.74v-.84c0-6.21,5.08-11.26,11.33-11.26h3.2c6.25,0,11.33,5.05,11.33,11.26,0,3.47-1.29,6.81-3.62,9.4l-4.98,5.52c-.64.71-.98,1.58-.99,2.5l-.03,2.73h-6.68Z"/>
      <path d="M55.1,32.59c5.79,0,10.49,4.68,10.49,10.42,0,3.27-1.21,6.41-3.41,8.84l-4.98,5.52c-.77.85-1.2,1.91-1.2,3.06l-.02,1.9h-5.03l-.02-1.9c0-2.38.89-4.65,2.49-6.42l4.98-5.51c1.36-1.51,2.11-3.46,2.11-5.48,0-2.97-2.43-5.39-5.42-5.39h-3.2c-2.99,0-5.42,2.42-5.42,5.39h-5.07c0-5.74,4.71-10.42,10.49-10.42h3.2M55.1,30.92h-3.2c-6.71,0-12.16,5.42-12.16,12.09v1.67h8.41v-1.67c0-2.05,1.68-3.71,3.75-3.71h3.2c2.07,0,3.75,1.67,3.75,3.71,0,1.61-.6,3.16-1.68,4.36l-4.98,5.51c-1.87,2.07-2.91,4.75-2.92,7.54l.02,1.92v1.66h8.35l.02-1.65.02-1.9c0-.73.27-1.4.77-1.96l4.98-5.52c2.47-2.74,3.84-6.28,3.84-9.96,0-6.67-5.46-12.09-12.16-12.09h0Z"/>
    </g>
  </g>
</svg>