<?xml version="1.0" encoding="UTF-8"?>
<svg id="Layer_1" xmlns="http://www.w3.org/2000/svg" version="1.1" viewBox="0 0 33 33">
  <!-- Generator: Adobe Illustrator 30.1.0, SVG Export Plug-In . SVG Version: 2.1.1 Build 136)  -->
  <circle id="Outer" cx="16.5" cy="16.5" r="13.61" fill="none" stroke="#000" stroke-width="5.79"/>
  <g>
    <g>
      <rect x="15.45" y="20.84" width="2.09" height="2.09"/>
      <path d="M17.07,21.3v1.16h-1.16v-1.16h1.16M18,20.38h-3.02v3.02h3.02v-3.02h0Z"/>
    </g>
    <g>
      <path d="M15.45,18.8v-.9c0-.67.24-1.31.69-1.8l1.15-1.27c.24-.26.37-.6.37-.96,0-.43-.35-.78-.79-.78h-.74c-.44,0-.79.35-.79.78v.46h-2.1v-.46c0-1.58,1.3-2.87,2.89-2.87h.74c1.59,0,2.89,1.29,2.89,2.87,0,.87-.32,1.71-.91,2.36l-1.15,1.28c-.11.12-.16.25-.16.4v.9h-2.09Z"/>
      <path d="M16.87,11.46c1.34,0,2.43,1.08,2.43,2.41,0,.76-.28,1.48-.79,2.05l-1.15,1.28c-.18.2-.28.44-.28.71v.44h-1.17v-.44c0-.55.2-1.08.57-1.49l1.15-1.28c.32-.35.49-.8.49-1.27,0-.69-.56-1.25-1.25-1.25h-.74c-.69,0-1.25.56-1.25,1.25h-1.17c0-1.33,1.09-2.41,2.43-2.41h.74M16.87,10.53h-.74c-1.85,0-3.36,1.5-3.36,3.34v.93h3.03v-.93c0-.18.15-.32.33-.32h.74c.18,0,.33.14.33.32,0,.24-.09.47-.25.65l-1.15,1.28c-.52.58-.81,1.33-.82,2.1v.45s.01.92.01.92h.92s1.16,0,1.16,0h.92v-.92s.01-.44.01-.44c0-.03,0-.06.04-.1l1.15-1.28c.66-.73,1.03-1.68,1.03-2.67,0-1.84-1.51-3.34-3.36-3.34h0Z"/>
    </g>
  </g>
</svg>