<?xml version="1.0" encoding="UTF-8"?>
<svg id="Layer_1" xmlns="http://www.w3.org/2000/svg" version="1.1" viewBox="0 0 33 33">
  <!-- Generator: Adobe Illustrator 30.1.0, SVG Export Plug-In . SVG Version: 2.1.1 Build 136)  -->
  <circle id="Outer" cx="16.5" cy="16.5" r="14.77" fill="none" stroke="#000" stroke-width="3.45"/>
  <g>
    <g>
      <rect x="15.46" y="21.73" width="2.07" height="2.07"/>
      <path d="M17.27,21.99v1.55h-1.55v-1.55h1.55M17.78,21.47h-2.58v2.58h2.58v-2.58h0Z"/>
    </g>
    <g>
      <path d="M15.46,19.48v-.84c0-.8.29-1.56.83-2.16l1.53-1.7c.38-.42.59-.96.59-1.52,0-.77-.63-1.4-1.42-1.4h-.99c-.78,0-1.41.63-1.41,1.4v.26h-2.08v-.26c0-1.91,1.57-3.47,3.49-3.47h.99c1.93,0,3.49,1.56,3.49,3.47,0,1.07-.4,2.1-1.12,2.9l-1.54,1.7c-.2.22-.3.49-.3.77v.84h-2.07Z"/>
      <path d="M16.99,10.05c1.78,0,3.24,1.44,3.24,3.21,0,1.01-.37,1.98-1.05,2.73l-1.54,1.7c-.24.26-.37.59-.37.94v.59h-1.56v-.59c0-.73.27-1.43.76-1.98l1.53-1.7c.42-.47.65-1.07.65-1.69,0-.92-.75-1.66-1.67-1.66h-.99c-.92,0-1.67.75-1.67,1.66h-1.56c0-1.77,1.45-3.21,3.24-3.21h.99M16.99,9.54h-.99c-2.07,0-3.75,1.67-3.75,3.73v.52h2.59v-.52c0-.63.52-1.15,1.16-1.15h.99c.64,0,1.16.51,1.16,1.15,0,.5-.18.97-.52,1.34l-1.53,1.7c-.58.64-.9,1.46-.9,2.32v.59s0,.51,0,.51h2.57v-.51s.01-.59.01-.59c0-.22.08-.43.24-.6l1.54-1.7c.76-.85,1.18-1.94,1.18-3.07,0-2.06-1.68-3.73-3.75-3.73h0Z"/>
    </g>
  </g>
</svg>