<?xml version="1.0" encoding="UTF-8"?>
<svg id="Layer_1" xmlns="http://www.w3.org/2000/svg" version="1.1" viewBox="0 0 119 119">
  <!-- Generator: Adobe Illustrator 30.1.0, SVG Export Plug-In . SVG Version: 2.1.1 Build 136)  -->
  <circle id="Outer" cx="59.5" cy="59.5" r="51.17" fill="none" stroke="#000" stroke-width="16.66"/>
  <g>
    <g>
      <rect x="55.73" y="76.76" width="7.48" height="7.48"/>
      <path d="M61.9,78.06v4.87h-4.87v-4.87h4.87M64.51,75.46h-10.08v10.08h10.08v-10.08h0Z"/>
    </g>
    <g>
      <path d="M55.75,68.98l-.03-3.13c0-2.64.99-5.16,2.75-7.11l4.83-5.35c1.1-1.22,1.71-2.8,1.71-4.44,0-2.16-1.78-3.92-3.96-3.92h-3.1c-2.18,0-3.96,1.76-3.96,3.92v1.3h-7.52v-1.3c0-6.29,5.15-11.41,11.48-11.41h3.1c6.33,0,11.48,5.12,11.48,11.41,0,3.49-1.29,6.85-3.64,9.45l-4.83,5.35c-.54.6-.83,1.32-.83,2.1l-.03,3.14h-7.45Z"/>
      <path d="M61.05,38.84c5.61,0,10.18,4.53,10.18,10.1,0,3.17-1.17,6.21-3.3,8.57l-4.83,5.35c-.75.83-1.16,1.86-1.17,2.97l-.02,1.84h-4.87l-.02-1.84c0-2.31.86-4.51,2.41-6.23l4.83-5.35c1.32-1.46,2.05-3.35,2.05-5.32,0-2.88-2.36-5.22-5.26-5.22h-3.1c-2.9,0-5.26,2.34-5.26,5.22h-4.92c0-5.57,4.56-10.1,10.18-10.1h3.1M61.05,36.23h-3.1c-7.05,0-12.78,5.7-12.78,12.71v2.6h10.12v-2.6c0-1.44,1.19-2.62,2.66-2.62h3.1c1.46,0,2.66,1.18,2.66,2.62,0,1.32-.49,2.59-1.38,3.57l-4.83,5.35c-1.98,2.19-3.07,5.02-3.08,7.96l.02,1.88.02,2.58h10.03l.03-2.58.02-1.84c0-.47.17-.89.49-1.25l4.83-5.35c2.56-2.84,3.98-6.5,3.98-10.32,0-7.01-5.73-12.71-12.78-12.71h0Z"/>
    </g>
  </g>
</svg>