<?xml version="1.0" encoding="UTF-8"?>
<svg id="Layer_1" xmlns="http://www.w3.org/2000/svg" version="1.1" viewBox="0 0 12 12">
  <!-- Generator: Adobe Illustrator 30.1.0, SVG Export Plug-In . SVG Version: 2.1.1 Build 136)  -->
  <g>
    <g>
      <rect x="5.56" y="3.5" width=".88" height=".88"/>
      <path d="M6.27,3.66v.54h-.54v-.54h.54M6.61,3.33h-1.22v1.22h1.22v-1.22h0Z"/>
    </g>
    <g>
      <polygon points="5.02 8.4 5.02 7.52 5.56 7.52 5.56 6.17 5.02 6.17 5.02 5.3 6.44 5.3 6.44 7.52 6.98 7.52 6.98 8.4 5.02 8.4"/>
      <path d="M6.27,5.46v2.23h.54v.54h-1.62v-.54h.54v-1.69h-.54v-.54h1.08M6.61,5.13h-1.76v1.22h.54v1.01h-.54v1.22h2.3v-1.22h-.54v-2.23h0Z"/>
    </g>
  </g>
  <circle id="Outer" cx="6" cy="6" r="4.95" fill="none" stroke="#000" stroke-width="2.1"/>
</svg>