<?xml version="1.0" encoding="UTF-8"?>
<svg id="Layer_1" xmlns="http://www.w3.org/2000/svg" version="1.1" viewBox="0 0 12 12">
  <!-- Generator: Adobe Illustrator 30.1.0, SVG Export Plug-In . SVG Version: 2.1.1 Build 136)  -->
  <g>
    <g>
      <rect x="5.57" y="3.34" width=".86" height=".86"/>
      <path d="M6.3,3.48v.6h-.6v-.6h.6M6.56,3.21h-1.13v1.13h1.13v-1.13h0Z"/>
    </g>
    <g>
      <polygon points="4.97 8.59 4.97 7.72 5.57 7.72 5.57 6.11 4.97 6.11 4.97 5.24 6.43 5.24 6.43 7.72 7.03 7.72 7.03 8.59 4.97 8.59"/>
      <path d="M6.3,5.37v2.48h.6v.6h-1.8v-.6h.6v-1.88h-.6v-.6h1.2M6.56,5.11h-1.73v1.13h.6v1.35h-.6v1.13h2.33v-1.13h-.6v-2.48h0Z"/>
    </g>
  </g>
  <circle id="Outer" cx="6" cy="6" r="5.16" fill="none" stroke="#000" stroke-width="1.68"/>
</svg>