<?xml version="1.0" encoding="UTF-8"?>
<svg id="Layer_1" xmlns="http://www.w3.org/2000/svg" version="1.1" viewBox="0 0 128 128">
  <!-- Generator: Adobe Illustrator 30.1.0, SVG Export Plug-In . SVG Version: 2.1.1 Build 136)  -->
  <path d="M64,22.44c1.35,0,2.7.7,3.41,2.1l8.69,17.26c1.49,2.96,4.28,5.06,7.53,5.67l18.81,3.53c2.94.55,4.13,4.13,2.12,6.34l-13.71,15.04c-2.11,2.32-3.1,5.46-2.69,8.57l2.67,20.28c.32,2.42-1.61,4.34-3.78,4.34-.58,0-1.17-.13-1.74-.43l-16.45-8.47c-1.53-.79-3.19-1.18-4.86-1.18s-3.33.39-4.86,1.18l-16.45,8.47c-.57.3-1.17.43-1.74.43-2.18,0-4.1-1.92-3.78-4.34l2.68-20.28c.41-3.11-.57-6.25-2.68-8.56l-13.71-15.04c-2.02-2.22-.83-5.79,2.12-6.34l18.81-3.53c3.25-.61,6.03-2.7,7.53-5.66l8.7-17.26c.71-1.4,2.06-2.1,3.41-2.1M64,0C54.02,0,45.04,5.54,40.55,14.45l-6.07,12.04-13.06,2.45c-9.35,1.75-17.04,8.45-20.06,17.47-3.02,9.03-.92,19.01,5.49,26.04l10.01,10.99-1.96,14.85c-.99,7.5,1.3,15.06,6.28,20.74,5,5.7,12.2,8.97,19.75,8.97,4.15,0,8.31-1.01,12.02-2.92l11.04-5.68,11.04,5.68c3.71,1.91,7.87,2.92,12.02,2.92,7.56,0,14.76-3.27,19.75-8.97,4.98-5.68,7.27-13.24,6.28-20.74l-1.96-14.85,10.02-10.99c6.41-7.04,8.52-17.01,5.49-26.04-3.02-9.02-10.71-15.72-20.06-17.47l-13.06-2.45-6.07-12.04C82.96,5.54,73.97,0,64,0h0Z"/>
</svg>