<?xml version="1.0" encoding="UTF-8"?>
<svg id="Layer_1" xmlns="http://www.w3.org/2000/svg" version="1.1" viewBox="0 0 12 12">
  <!-- Generator: Adobe Illustrator 30.1.0, SVG Export Plug-In . SVG Version: 2.1.1 Build 136)  -->
  <path d="M6,2.1c.13,0,.25.07.32.2l.82,1.62c.14.28.4.47.71.53l1.76.33c.28.05.39.39.2.59l-1.28,1.41c-.2.22-.29.51-.25.8l.25,1.9c.03.23-.15.41-.35.41-.05,0-.11-.01-.16-.04l-1.54-.79c-.14-.07-.3-.11-.46-.11s-.31.04-.46.11l-1.54.79c-.05.03-.11.04-.16.04-.2,0-.38-.18-.35-.41l.25-1.9c.04-.29-.05-.59-.25-.8l-1.28-1.41c-.19-.21-.08-.54.2-.59l1.76-.33c.3-.06.57-.25.71-.53l.82-1.62c.07-.13.19-.2.32-.2M6,0C5.06,0,4.22.52,3.8,1.35l-.57,1.13-1.22.23c-.88.16-1.6.79-1.88,1.64-.28.85-.09,1.78.51,2.44l.94,1.03-.18,1.39c-.09.7.12,1.41.59,1.94.47.53,1.14.84,1.85.84.39,0,.78-.09,1.13-.27l1.03-.53,1.03.53c.35.18.74.27,1.13.27.71,0,1.38-.31,1.85-.84.47-.53.68-1.24.59-1.94l-.18-1.39.94-1.03c.6-.66.8-1.6.51-2.44-.28-.85-1-1.47-1.88-1.64l-1.22-.23-.57-1.13C7.78.52,6.94,0,6,0h0Z"/>
</svg>