<?xml version="1.0" encoding="UTF-8"?>
<svg id="Layer_1" xmlns="http://www.w3.org/2000/svg" version="1.1" viewBox="0 0 12 12">
  <!-- Generator: Adobe Illustrator 30.1.0, SVG Export Plug-In . SVG Version: 2.1.1 Build 136)  -->
  <path d="M6,1.26c.15,0,.31.08.39.24l.99,1.97c.17.34.49.58.86.65l2.15.4c.34.06.47.47.24.72l-1.56,1.72c-.24.26-.35.62-.31.98l.31,2.31c.04.28-.18.49-.43.49-.07,0-.13-.02-.2-.05l-1.88-.97c-.17-.09-.36-.13-.55-.13s-.38.04-.55.13l-1.88.97c-.07.03-.13.05-.2.05-.25,0-.47-.22-.43-.49l.31-2.32c.05-.36-.07-.71-.31-.98l-1.56-1.72c-.23-.25-.09-.66.24-.72l2.15-.4c.37-.07.69-.31.86-.65l.99-1.97c.08-.16.23-.24.39-.24M6,0C5.36,0,4.78.36,4.49.93l-.99,1.97-2.12.38c-.6.11-1.1.54-1.29,1.13-.19.58-.06,1.23.35,1.68l1.56,1.72-.32,2.28c-.06.48.08.97.4,1.34.32.37.79.58,1.27.58.27,0,.53-.07.77-.19l1.88-.97,1.84.97c.24.12.51.19.77.19.49,0,.95-.21,1.27-.58.32-.37.47-.85.4-1.34l-.31-2.31,1.55-1.68c.41-.45.55-1.1.35-1.68-.19-.58-.69-1.01-1.29-1.13l-2.15-.4-.96-1.95C7.22.36,6.64,0,6,0h0Z"/>
</svg>