<?xml version="1.0" encoding="UTF-8"?>
<svg id="Layer_1" xmlns="http://www.w3.org/2000/svg" version="1.1" viewBox="0 0 108 108">
  <!-- Generator: Adobe Illustrator 30.1.0, SVG Export Plug-In . SVG Version: 2.1.1 Build 136)  -->
  <path d="M54,15.12c1.26,0,2.53.66,3.19,1.97l8.13,16.15c1.4,2.77,4,4.73,7.04,5.3l17.6,3.3c2.75.52,3.87,3.86,1.98,5.93l-12.82,14.07c-1.98,2.17-2.9,5.11-2.51,8.02l2.5,18.97c.3,2.26-1.51,4.06-3.54,4.06-.54,0-1.1-.13-1.63-.4l-15.39-7.93c-1.43-.73-2.99-1.1-4.55-1.1s-3.12.37-4.55,1.1l-15.39,7.93c-.54.28-1.09.4-1.63.4-2.03,0-3.84-1.79-3.54-4.06l2.5-18.98c.38-2.91-.54-5.84-2.51-8.01l-12.82-14.07c-1.89-2.07-.77-5.42,1.98-5.94l17.6-3.3c3.04-.57,5.65-2.53,7.04-5.3l8.14-16.15c.66-1.31,1.92-1.97,3.19-1.97M54,0C46.9,0,40.5,3.94,37.31,10.28l-6.98,13.86-15.07,2.82c-6.66,1.25-12.13,6.01-14.28,12.44-2.15,6.43-.65,13.53,3.91,18.54l11.2,12.3-2.19,16.6c-.7,5.34.92,10.72,4.47,14.77,3.56,4.06,8.68,6.39,14.06,6.39,2.95,0,5.91-.72,8.56-2.08l13.02-6.7,13.02,6.7c2.64,1.36,5.6,2.08,8.56,2.08,5.38,0,10.5-2.33,14.06-6.39,3.54-4.04,5.17-9.42,4.47-14.77l-2.19-16.6,11.21-12.3c4.56-5.01,6.06-12.11,3.91-18.54-2.15-6.42-7.62-11.19-14.28-12.44l-15.07-2.83-6.98-13.86C67.5,3.94,61.1,0,54,0h0Z"/>
</svg>