<?xml version="1.0" encoding="UTF-8"?>
<svg id="Layer_1" xmlns="http://www.w3.org/2000/svg" version="1.1" viewBox="0 0 10 10">
  <!-- Generator: Adobe Illustrator 30.1.0, SVG Export Plug-In . SVG Version: 2.1.1 Build 136)  -->
  <g>
    <g>
      <rect x="4.65" y="2.66" width=".71" height=".71"/>
      <path d="M5.28,2.74v.55h-.55v-.55h.55M5.43,2.58h-.87v.87h.87v-.87h0Z"/>
    </g>
    <g>
      <polygon points="4.09 7.31 4.09 6.6 4.65 6.6 4.65 5.03 4.09 5.03 4.09 4.32 5.35 4.32 5.35 6.6 5.91 6.6 5.91 7.31 4.09 7.31"/>
      <path d="M5.28,4.4v2.28h.55v.55h-1.66v-.55h.55v-1.73h-.55v-.55h1.11M5.43,4.24h-1.42v.87h.55v1.41h-.55v.87h1.97v-.87h-.55v-2.28h0Z"/>
    </g>
  </g>
  <circle id="Outer" cx="5" cy="5" r="4.48" fill="none" stroke="#000" stroke-width="1.05"/>
</svg>