<?xml version="1.0" encoding="UTF-8"?>
<svg id="Layer_1" xmlns="http://www.w3.org/2000/svg" version="1.1" viewBox="0 0 10 10">
  <!-- Generator: Adobe Illustrator 30.1.0, SVG Export Plug-In . SVG Version: 2.1.1 Build 136)  -->
  <g>
    <g>
      <rect x="4.63" y="2.91" width=".73" height=".73"/>
      <path d="M5.23,3.05v.45h-.45v-.45h.45M5.51,2.77h-1.01v1.01h1.01v-1.01h0Z"/>
    </g>
    <g>
      <polygon points="4.18 7 4.18 6.27 4.63 6.27 4.63 5.14 4.18 5.14 4.18 4.41 5.37 4.41 5.37 6.27 5.82 6.27 5.82 7 4.18 7"/>
      <path d="M5.23,4.55v1.86h.45v.45h-1.35v-.45h.45v-1.41h-.45v-.45h.9M5.51,4.27h-1.46v1.01h.45v.84h-.45v1.01h1.91v-1.01h-.45v-1.86h0Z"/>
    </g>
  </g>
  <circle id="Outer" cx="5" cy="5" r="4.12" fill="none" stroke="#000" stroke-width="1.75"/>
</svg>