<?xml version="1.0" encoding="UTF-8"?>
<svg id="Layer_1" xmlns="http://www.w3.org/2000/svg" version="1.1" viewBox="0 0 58 58">
  <!-- Generator: Adobe Illustrator 30.1.0, SVG Export Plug-In . SVG Version: 2.1.1 Build 136)  -->
  <circle id="Outer" cx="29" cy="29" r="23.92" fill="none" stroke="#000" stroke-width="10.17"/>
  <g>
    <g>
      <rect x="27.15" y="36.63" width="3.67" height="3.67"/>
      <path d="M30.01,37.44v2.04h-2.04v-2.04h2.04M31.64,35.81h-5.31v5.31h5.31v-5.31h0Z"/>
    </g>
    <g>
      <path d="M27.16,33.05v-1.58c0-1.18.42-2.3,1.21-3.17l2.02-2.24c.42-.46.65-1.06.65-1.68,0-.76-.62-1.37-1.39-1.37h-1.3c-.77,0-1.39.62-1.39,1.37v.82h-3.69v-.82c0-2.79,2.28-5.05,5.08-5.05h1.3c2.8,0,5.08,2.27,5.08,5.05,0,1.53-.57,3-1.59,4.14l-2.02,2.24c-.18.2-.28.44-.28.7l-.02,1.59h-3.66Z"/>
      <path d="M29.65,20.14c2.35,0,4.27,1.9,4.27,4.24,0,1.33-.49,2.61-1.39,3.59l-2.02,2.24c-.31.35-.49.78-.49,1.24v.77h-2.05v-.77c0-.97.35-1.89,1.01-2.61l2.02-2.24c.55-.61.86-1.41.86-2.23,0-1.21-.99-2.19-2.21-2.19h-1.3c-1.22,0-2.21.98-2.21,2.19h-2.06c0-2.34,1.91-4.24,4.27-4.24h1.3M29.65,18.51h-1.3c-3.25,0-5.9,2.63-5.9,5.87v1.63h5.32v-1.63c0-.31.26-.56.57-.56h1.3c.32,0,.57.25.57.56,0,.42-.16.82-.44,1.14l-2.02,2.24c-.92,1.02-1.43,2.33-1.43,3.7v.79s.02,1.62.02,1.62h5.27l.02-1.61v-.77c0-.05.02-.1.08-.17l2.02-2.24c1.16-1.29,1.81-2.95,1.81-4.69,0-3.24-2.65-5.87-5.9-5.87h0Z"/>
    </g>
  </g>
</svg>