<?xml version="1.0" encoding="UTF-8"?>
<svg id="Layer_1" xmlns="http://www.w3.org/2000/svg" version="1.1" viewBox="0 0 72 72">
  <!-- Generator: Adobe Illustrator 30.1.0, SVG Export Plug-In . SVG Version: 2.1.1 Build 136)  -->
  <circle id="Outer" cx="36" cy="36" r="30.96" fill="none" stroke="#000" stroke-width="10.08"/>
  <g>
    <g>
      <rect x="33.72" y="46.44" width="4.52" height="4.52"/>
      <path d="M37.45,47.23v2.95h-2.95v-2.95h2.95M39.03,45.66h-6.1v6.1h6.1v-6.1h0Z"/>
    </g>
    <g>
      <path d="M33.73,41.73l-.02-1.9c0-1.6.6-3.12,1.66-4.3l2.92-3.23c.67-.74,1.04-1.69,1.04-2.69,0-1.31-1.07-2.37-2.4-2.37h-1.88c-1.32,0-2.39,1.06-2.39,2.37v.79h-4.55v-.79c0-3.81,3.12-6.9,6.94-6.9h1.88c3.83,0,6.94,3.1,6.94,6.9,0,2.11-.78,4.14-2.2,5.72l-2.92,3.24c-.33.36-.5.8-.5,1.27l-.02,1.9h-4.51Z"/>
      <path d="M36.94,23.5c3.4,0,6.16,2.74,6.16,6.11,0,1.92-.71,3.76-2,5.19l-2.92,3.24c-.45.5-.7,1.12-.71,1.8v1.12h-2.96v-1.12c0-1.4.51-2.73,1.45-3.77l2.92-3.24c.8-.89,1.24-2.03,1.24-3.22,0-1.74-1.43-3.16-3.18-3.16h-1.88c-1.75,0-3.18,1.42-3.18,3.16h-2.97c0-3.37,2.76-6.11,6.16-6.11h1.88M36.94,21.92h-1.88c-4.26,0-7.73,3.45-7.73,7.69v1.58h6.12v-1.58c0-.87.72-1.59,1.61-1.59h1.88c.89,0,1.61.71,1.61,1.59,0,.8-.3,1.57-.83,2.16l-2.92,3.24c-1.2,1.32-1.86,3.03-1.87,4.82v1.13s.02,1.56.02,1.56h6.07l.02-1.56v-1.12c.01-.29.11-.54.31-.76l2.92-3.24c1.55-1.72,2.41-3.94,2.41-6.24,0-4.24-3.47-7.69-7.73-7.69h0Z"/>
    </g>
  </g>
</svg>