<?xml version="1.0" encoding="UTF-8"?>
<svg id="Layer_1" xmlns="http://www.w3.org/2000/svg" version="1.1" viewBox="0 0 19 19">
  <!-- Generator: Adobe Illustrator 30.1.0, SVG Export Plug-In . SVG Version: 2.1.1 Build 136)  -->
  <path d="M9.5,3.33c.2,0,.4.1.51.31l1.29,2.56c.22.44.63.75,1.12.84l2.79.52c.44.08.61.61.31.94l-2.03,2.23c-.31.34-.46.81-.4,1.27l.4,3.01c.05.36-.24.64-.56.64-.09,0-.17-.02-.26-.06l-2.44-1.26c-.23-.12-.47-.17-.72-.17s-.49.06-.72.17l-2.44,1.26c-.09.04-.17.06-.26.06-.32,0-.61-.28-.56-.64l.4-3.01c.06-.46-.08-.93-.4-1.27l-2.03-2.23c-.3-.33-.12-.86.31-.94l2.79-.52c.48-.09.9-.4,1.12-.84l1.29-2.56c.1-.21.31-.31.51-.31M9.5,0C8.02,0,6.69.82,6.02,2.14l-.9,1.79-1.94.36c-1.39.26-2.53,1.25-2.98,2.59-.45,1.34-.14,2.82.82,3.87l1.49,1.63-.29,2.2c-.15,1.11.19,2.24.93,3.08.74.85,1.81,1.33,2.93,1.33.62,0,1.23-.15,1.78-.43l1.64-.84,1.64.84c.55.28,1.17.43,1.78.43,1.12,0,2.19-.49,2.93-1.33.74-.84,1.08-1.97.93-3.08l-.29-2.2,1.49-1.63c.95-1.04,1.26-2.53.82-3.87-.45-1.34-1.59-2.33-2.98-2.59l-1.94-.36-.9-1.79C12.31.82,10.98,0,9.5,0h0Z"/>
</svg>