<?xml version="1.0" encoding="UTF-8"?>
<svg id="Layer_1" xmlns="http://www.w3.org/2000/svg" version="1.1" viewBox="0 0 19 19">
  <!-- Generator: Adobe Illustrator 30.1.0, SVG Export Plug-In . SVG Version: 2.1.1 Build 136)  -->
  <path d="M9.5,1.99c.24,0,.49.13.62.38l1.57,3.12c.27.54.77.91,1.36,1.02l3.4.64c.53.1.75.75.38,1.15l-2.48,2.72c-.38.42-.56.99-.49,1.55l.48,3.66c.06.44-.29.78-.68.78-.1,0-.21-.02-.32-.08l-2.97-1.53c-.28-.14-.58-.21-.88-.21s-.6.07-.88.21l-2.97,1.53c-.1.05-.21.08-.32.08-.39,0-.74-.35-.68-.78l.48-3.67c.07-.56-.1-1.13-.49-1.55l-2.48-2.72c-.36-.4-.15-1.05.38-1.15l3.4-.64c.59-.11,1.09-.49,1.36-1.02l1.57-3.12c.13-.25.37-.38.62-.38M9.5,0C8.48,0,7.57.56,7.11,1.47l-1.56,3.09-3.36.63c-.95.18-1.74.86-2.05,1.78-.31.92-.09,1.94.56,2.66l2.46,2.7-.48,3.64c-.1.77.13,1.54.64,2.12.51.58,1.25.92,2.02.92.42,0,.85-.1,1.23-.3l2.94-1.51,2.94,1.51c.38.2.8.3,1.23.3.77,0,1.51-.33,2.02-.92.51-.58.74-1.35.64-2.12l-.48-3.64,2.46-2.7c.65-.72.87-1.74.56-2.66-.31-.92-1.09-1.6-2.05-1.78l-3.37-.63-1.56-3.09C11.43.56,10.52,0,9.5,0h0Z"/>
</svg>