<?xml version="1.0" encoding="UTF-8"?>
<svg id="Layer_1" xmlns="http://www.w3.org/2000/svg" version="1.1" viewBox="0 0 14 14">
  <!-- Generator: Adobe Illustrator 30.1.0, SVG Export Plug-In . SVG Version: 2.1.1 Build 136)  -->
  <g>
    <g>
      <rect x="6.49" y="4.08" width="1.02" height="1.02"/>
      <path d="M7.32,4.28v.63h-.63v-.63h.63M7.71,3.88h-1.42v1.42h1.42v-1.42h0Z"/>
    </g>
    <g>
      <polygon points="5.86 9.8 5.86 8.78 6.49 8.78 6.49 7.2 5.86 7.2 5.86 6.18 7.51 6.18 7.51 8.78 8.14 8.78 8.14 9.8 5.86 9.8"/>
      <path d="M7.32,6.37v2.6h.63v.63h-1.89v-.63h.63v-1.97h-.63v-.63h1.26M7.71,5.98h-2.05v1.42h.63v1.18h-.63v1.42h2.68v-1.42h-.63v-2.6h0Z"/>
    </g>
  </g>
  <circle id="Outer" cx="7" cy="7" r="5.77" fill="none" stroke="#000" stroke-width="2.45"/>
</svg>