<?xml version="1.0" encoding="UTF-8"?>
<svg id="Layer_1" xmlns="http://www.w3.org/2000/svg" version="1.1" viewBox="0 0 23 23">
  <!-- Generator: Adobe Illustrator 30.1.0, SVG Export Plug-In . SVG Version: 2.1.1 Build 136)  -->
  <path d="M11.5,2.41c.3,0,.59.15.75.46l1.9,3.78c.33.65.94,1.11,1.65,1.24l4.12.77c.64.12.9.9.46,1.39l-3,3.29c-.46.51-.68,1.19-.59,1.88l.59,4.44c.07.53-.35.95-.83.95-.13,0-.26-.03-.38-.09l-3.6-1.85c-.33-.17-.7-.26-1.06-.26s-.73.09-1.06.26l-3.6,1.85c-.13.06-.26.09-.38.09-.48,0-.9-.42-.83-.95l.59-4.44c.09-.68-.13-1.37-.59-1.87l-3-3.29c-.44-.48-.18-1.27.46-1.39l4.11-.77c.71-.13,1.32-.59,1.65-1.24l1.9-3.78c.15-.31.45-.46.75-.46M11.5,0C10.27,0,9.16.68,8.6,1.78l-1.88,3.74-4.07.76c-1.15.22-2.1,1.04-2.48,2.16-.37,1.12-.11,2.35.68,3.22l2.97,3.26-.58,4.4c-.12.93.16,1.86.77,2.56.62.7,1.51,1.11,2.44,1.11.51,0,1.03-.12,1.48-.36l3.56-1.83,3.56,1.83c.46.24.97.36,1.48.36.93,0,1.82-.4,2.44-1.11.61-.7.9-1.63.77-2.56l-.58-4.4,2.97-3.26c.79-.87,1.05-2.1.68-3.22-.37-1.11-1.32-1.94-2.48-2.16l-4.07-.76-1.88-3.74C13.84.68,12.73,0,11.5,0h0Z"/>
</svg>