<?xml version="1.0" encoding="UTF-8"?>
<svg id="Layer_1" xmlns="http://www.w3.org/2000/svg" version="1.1" viewBox="0 0 89 89">
  <!-- Generator: Adobe Illustrator 30.1.0, SVG Export Plug-In . SVG Version: 2.1.1 Build 136)  -->
  <g>
    <g>
      <rect x="41.3" y="24.8" width="6.41" height="6.41"/>
      <path d="M46.73,25.78v4.46h-4.46v-4.46h4.46M48.68,23.83h-8.35v8.35h8.35v-8.35h0Z"/>
    </g>
    <g>
      <polygon points="36.83 63.68 36.83 57.27 41.3 57.27 41.3 45.29 36.83 45.29 36.83 38.88 47.7 38.88 47.7 57.27 52.17 57.27 52.17 63.68 36.83 63.68"/>
      <path d="M46.73,39.86v18.39h4.46v4.46h-13.38v-4.46h4.46v-13.93h-4.46v-4.46h8.92M48.68,37.91h-12.82v8.35h4.46v10.03h-4.46v8.35h17.28v-8.35h-4.46v-18.39h0Z"/>
    </g>
  </g>
  <circle id="Outer" cx="44.5" cy="44.5" r="38.27" fill="none" stroke="#000" stroke-width="12.46"/>
</svg>