<?xml version="1.0" encoding="UTF-8"?>
<svg id="Layer_1" xmlns="http://www.w3.org/2000/svg" version="1.1" viewBox="0 0 76 76">
  <!-- Generator: Adobe Illustrator 30.1.0, SVG Export Plug-In . SVG Version: 2.1.1 Build 136)  -->
  <circle id="Outer" cx="38" cy="38" r="32.68" fill="none" stroke="#000" stroke-width="10.64"/>
  <g>
    <g>
      <rect x="35.59" y="49.02" width="4.77" height="4.77"/>
      <path d="M39.54,49.85v3.11h-3.11v-3.11h3.11M41.2,48.19h-6.44v6.44h6.44v-6.44h0Z"/>
    </g>
    <g>
      <path d="M35.6,44.05l-.02-2c0-1.69.63-3.3,1.76-4.54l3.08-3.41c.71-.78,1.09-1.79,1.09-2.84,0-1.38-1.13-2.5-2.53-2.5h-1.98c-1.39,0-2.53,1.12-2.53,2.5v.83h-4.8v-.83c0-4.02,3.29-7.28,7.33-7.28h1.98c4.04,0,7.33,3.27,7.33,7.28,0,2.23-.83,4.37-2.32,6.03l-3.08,3.42c-.35.38-.53.85-.53,1.34l-.02,2h-4.76Z"/>
      <path d="M38.99,24.8c3.58,0,6.5,2.9,6.5,6.45,0,2.02-.75,3.97-2.11,5.48l-3.08,3.42c-.48.53-.74,1.18-.74,1.9v1.18h-3.12v-1.18c0-1.48.54-2.88,1.53-3.98l3.08-3.41c.84-.93,1.31-2.14,1.31-3.39,0-1.84-1.51-3.34-3.36-3.34h-1.98c-1.85,0-3.36,1.5-3.36,3.34h-3.14c0-3.56,2.92-6.45,6.5-6.45h1.98M38.99,23.14h-1.98c-4.5,0-8.16,3.64-8.16,8.12v1.66h6.46v-1.66c0-.92.76-1.67,1.7-1.67h1.98c.94,0,1.7.75,1.7,1.67,0,.84-.31,1.65-.88,2.28l-3.08,3.41c-1.26,1.4-1.96,3.2-1.97,5.09v1.2s.03,1.65.03,1.65h6.41l.02-1.65v-1.18c.01-.3.12-.57.33-.8l3.08-3.42c1.64-1.81,2.54-4.15,2.54-6.59,0-4.48-3.66-8.12-8.16-8.12h0Z"/>
    </g>
  </g>
</svg>