<?xml version="1.0" encoding="UTF-8"?>
<svg id="Layer_1" xmlns="http://www.w3.org/2000/svg" version="1.1" viewBox="0 0 76 76">
  <!-- Generator: Adobe Illustrator 30.1.0, SVG Export Plug-In . SVG Version: 2.1.1 Build 136)  -->
  <circle id="Outer" cx="38" cy="38" r="34.02" fill="none" stroke="#000" stroke-width="7.96"/>
  <g>
    <g>
      <rect x="35.6" y="50.04" width="4.76" height="4.76"/>
      <path d="M39.76,50.63v3.57h-3.57v-3.57h3.57M40.95,49.45h-5.94v5.94h5.94v-5.94h0Z"/>
    </g>
    <g>
      <path d="M35.61,44.87l-.02-1.94c0-1.84.69-3.6,1.92-4.97l3.54-3.92c.87-.96,1.35-2.2,1.35-3.5,0-1.78-1.46-3.23-3.26-3.23h-2.27c-1.8,0-3.26,1.45-3.26,3.23v.59h-4.79v-.59c0-4.41,3.61-7.99,8.05-7.99h2.27c4.44,0,8.05,3.59,8.05,7.99,0,2.47-.91,4.84-2.57,6.68l-3.54,3.92c-.46.5-.7,1.12-.7,1.78l-.02,1.94h-4.75Z"/>
      <path d="M39.14,23.15c4.11,0,7.45,3.32,7.45,7.4,0,2.32-.86,4.55-2.42,6.28l-3.54,3.92c-.55.61-.85,1.36-.85,2.17v1.35h-3.58v-1.35c0-1.69.62-3.3,1.76-4.56l3.53-3.92c.97-1.07,1.5-2.45,1.5-3.89,0-2.11-1.73-3.83-3.85-3.83h-2.27c-2.12,0-3.85,1.72-3.85,3.83h-3.6c0-4.08,3.34-7.4,7.45-7.4h2.27M39.14,21.96h-2.27c-4.76,0-8.64,3.85-8.64,8.59v1.19h5.98v-1.19c0-1.45,1.2-2.64,2.66-2.64h2.27c1.47,0,2.66,1.18,2.66,2.64,0,1.14-.42,2.24-1.19,3.1l-3.53,3.92c-1.33,1.47-2.07,3.37-2.07,5.35v1.36s.02,1.18.02,1.18h5.92v-1.18s.03-1.35.03-1.35c0-.52.19-1,.55-1.39l3.54-3.92c1.76-1.95,2.73-4.46,2.73-7.08,0-4.74-3.88-8.59-8.64-8.59h0Z"/>
    </g>
  </g>
</svg>