<?xml version="1.0" encoding="UTF-8"?>
<svg id="Layer_1" xmlns="http://www.w3.org/2000/svg" version="1.1" viewBox="0 0 76 76">
  <!-- Generator: Adobe Illustrator 30.1.0, SVG Export Plug-In . SVG Version: 2.1.1 Build 136)  -->
  <g>
    <g>
      <rect x="35.31" y="20.21" width="5.39" height="5.39"/>
      <path d="M40.1,20.81v4.2h-4.2v-4.2h4.2M41.29,19.62h-6.58v6.58h6.58v-6.58h0Z"/>
    </g>
    <g>
      <polygon points="31.1 55.56 31.1 50.17 35.31 50.17 35.31 38.24 31.1 38.24 31.1 32.85 40.69 32.85 40.69 50.17 44.9 50.17 44.9 55.56 31.1 55.56"/>
      <path d="M40.1,33.45v17.32h4.2v4.2h-12.61v-4.2h4.2v-13.12h-4.2v-4.2h8.4M41.29,32.26h-10.78v6.58h4.2v10.74h-4.2v6.58h14.98v-6.58h-4.2v-17.32h0Z"/>
    </g>
  </g>
  <circle id="Outer" cx="38" cy="38" r="34.02" fill="none" stroke="#000" stroke-width="7.96"/>
</svg>