<?xml version="1.0" encoding="UTF-8"?>
<svg id="Layer_1" xmlns="http://www.w3.org/2000/svg" version="1.1" viewBox="0 0 69 69">
  <!-- Generator: Adobe Illustrator 30.1.0, SVG Export Plug-In . SVG Version: 2.1.1 Build 136)  -->
  <path d="M34.5,12.1c.73,0,1.46.38,1.84,1.13l4.69,9.3c.8,1.6,2.31,2.73,4.06,3.05l10.14,1.9c1.59.3,2.23,2.22,1.14,3.42l-7.39,8.11c-1.14,1.25-1.67,2.94-1.45,4.62l1.44,10.93c.17,1.3-.87,2.34-2.04,2.34-.31,0-.63-.07-.94-.23l-8.87-4.57c-.82-.42-1.72-.64-2.62-.64-.9,0-1.8.21-2.62.64l-8.87,4.57c-.31.16-.63.23-.94.23-1.17,0-2.21-1.03-2.04-2.34l1.44-10.93c.22-1.68-.31-3.37-1.45-4.62l-7.39-8.11c-1.09-1.19-.44-3.12,1.14-3.42l10.14-1.9c1.75-.33,3.25-1.46,4.06-3.05l4.69-9.31c.38-.76,1.11-1.13,1.84-1.13M34.5,0c-5.38,0-10.22,2.98-12.64,7.79l-3.27,6.49-7.04,1.32c-5.04.94-9.19,4.55-10.81,9.42-1.63,4.87-.5,10.25,2.96,14.04l5.4,5.92-1.06,8.01c-.53,4.04.7,8.12,3.38,11.18,2.69,3.07,6.57,4.83,10.65,4.83,2.24,0,4.48-.54,6.48-1.57l5.95-3.06,5.95,3.06c2,1.03,4.24,1.57,6.48,1.57,4.07,0,7.96-1.76,10.65-4.83,2.68-3.06,3.92-7.14,3.38-11.18l-1.06-8.01,5.4-5.92c3.46-3.79,4.59-9.17,2.96-14.04-1.63-4.86-5.77-8.47-10.81-9.42l-7.04-1.32-3.27-6.49c-2.42-4.8-7.26-7.79-12.64-7.79h0Z"/>
</svg>