<?xml version="1.0" encoding="UTF-8"?>
<svg id="Layer_1" xmlns="http://www.w3.org/2000/svg" version="1.1" viewBox="0 0 69 69">
  <!-- Generator: Adobe Illustrator 30.1.0, SVG Export Plug-In . SVG Version: 2.1.1 Build 136)  -->
  <path d="M34.5,7.22c.89,0,1.77.46,2.24,1.38l5.71,11.33c.98,1.94,2.81,3.32,4.94,3.72l12.35,2.31c1.93.36,2.71,2.71,1.39,4.16l-8.99,9.87c-1.39,1.52-2.03,3.58-1.76,5.63l1.76,13.31c.21,1.59-1.06,2.85-2.48,2.85-.38,0-.77-.09-1.15-.28l-10.8-5.56c-1-.52-2.1-.77-3.19-.77s-2.19.26-3.19.77l-10.8,5.56c-.38.19-.77.28-1.15.28-1.43,0-2.69-1.26-2.48-2.85l1.76-13.31c.27-2.04-.38-4.1-1.76-5.62l-9-9.87c-1.33-1.45-.54-3.8,1.39-4.16l12.34-2.31c2.13-.4,3.96-1.77,4.94-3.72l5.71-11.33c.46-.92,1.35-1.38,2.24-1.38M34.5,0C30.8,0,27.47,2.05,25.81,5.35l-5.65,11.22-12.22,2.29c-3.46.65-6.31,3.13-7.43,6.48-1.12,3.35-.34,7.05,2.04,9.65l8.92,9.79-1.74,13.21c-.37,2.78.48,5.58,2.32,7.69,1.85,2.11,4.52,3.33,7.32,3.33,1.54,0,3.08-.37,4.45-1.08l10.68-5.5,10.68,5.5c1.38.71,2.92,1.08,4.45,1.08,2.8,0,5.47-1.21,7.32-3.33,1.84-2.1,2.69-4.9,2.32-7.69l-1.74-13.21,8.92-9.79c2.38-2.61,3.16-6.31,2.04-9.65-1.12-3.34-3.97-5.82-7.43-6.47l-12.22-2.29-5.65-11.22C41.52,2.05,38.19,0,34.5,0h0Z"/>
</svg>