<?xml version="1.0" encoding="UTF-8"?>
<svg id="Layer_1" xmlns="http://www.w3.org/2000/svg" version="1.1" viewBox="0 0 69 69">
  <!-- Generator: Adobe Illustrator 30.1.0, SVG Export Plug-In . SVG Version: 2.1.1 Build 136)  -->
  <path d="M34.5,9.66c.81,0,1.62.42,2.04,1.26l5.2,10.32c.89,1.77,2.56,3.02,4.5,3.39l11.24,2.11c1.76.33,2.47,2.47,1.26,3.79l-8.19,8.99c-1.26,1.39-1.85,3.26-1.61,5.12l1.6,12.12c.19,1.45-.96,2.59-2.26,2.59-.34,0-.7-.08-1.04-.26l-9.83-5.06c-.91-.47-1.91-.7-2.9-.7-1,0-1.99.23-2.9.7l-9.83,5.06c-.34.18-.7.26-1.04.26-1.3,0-2.45-1.15-2.26-2.59l1.6-12.12c.25-1.86-.34-3.73-1.6-5.12l-8.19-8.99c-1.21-1.32-.49-3.46,1.27-3.79l11.24-2.11c1.94-.36,3.61-1.62,4.5-3.39l5.2-10.32c.42-.84,1.23-1.26,2.04-1.26M34.5,0c-4.54,0-8.62,2.52-10.66,6.57l-4.46,8.86-9.63,1.8c-4.25.8-7.75,3.84-9.12,7.95-1.38,4.11-.42,8.65,2.5,11.85l7.16,7.86-1.4,10.61c-.45,3.41.59,6.85,2.85,9.43,2.27,2.59,5.55,4.08,8.98,4.08,1.89,0,3.78-.46,5.47-1.33l8.32-4.28,8.32,4.28c1.69.87,3.58,1.33,5.47,1.33,3.44,0,6.71-1.49,8.98-4.08,2.26-2.58,3.3-6.02,2.85-9.43l-1.4-10.61,7.16-7.86c2.92-3.2,3.87-7.74,2.5-11.84-1.37-4.1-4.87-7.15-9.12-7.95l-9.63-1.81-4.46-8.86c-2.04-4.05-6.13-6.57-10.66-6.57h0Z"/>
</svg>