<?xml version="1.0" encoding="UTF-8"?>
<svg id="Layer_1" xmlns="http://www.w3.org/2000/svg" version="1.1" viewBox="0 0 27 27">
  <!-- Generator: Adobe Illustrator 30.1.0, SVG Export Plug-In . SVG Version: 2.1.1 Build 136)  -->
  <path d="M13.5,2.83c.35,0,.69.18.88.54l2.23,4.43c.38.76,1.1,1.3,1.93,1.46l4.83.91c.76.14,1.06,1.06.54,1.63l-3.52,3.86c-.54.6-.8,1.4-.69,2.2l.69,5.21c.08.62-.41,1.11-.97,1.11-.15,0-.3-.03-.45-.11l-4.23-2.18c-.39-.2-.82-.3-1.25-.3-.43,0-.86.1-1.25.3l-4.23,2.18c-.15.08-.3.11-.45.11-.56,0-1.05-.49-.97-1.11l.69-5.21c.11-.8-.15-1.6-.69-2.2l-3.52-3.86c-.52-.57-.21-1.49.54-1.63l4.83-.91c.84-.16,1.55-.69,1.93-1.45l2.23-4.43c.18-.36.53-.54.88-.54M13.5,0c-1.45,0-2.75.8-3.4,2.09l-2.21,4.39-4.78.9c-1.36.25-2.47,1.23-2.91,2.53-.44,1.31-.13,2.76.8,3.78l3.49,3.83-.68,5.17c-.14,1.09.19,2.18.91,3.01.73.83,1.77,1.3,2.87,1.3.6,0,1.2-.15,1.74-.42l4.18-2.15,4.18,2.15c.54.28,1.14.42,1.74.42,1.1,0,2.14-.47,2.86-1.3.72-.82,1.05-1.92.91-3.01l-.68-5.17,3.49-3.83c.93-1.02,1.24-2.47.8-3.78-.44-1.31-1.55-2.28-2.91-2.53l-4.78-.9-2.21-4.39c-.65-1.29-1.95-2.09-3.4-2.09h0Z"/>
</svg>