<?xml version="1.0" encoding="UTF-8"?>
<svg id="Layer_1" xmlns="http://www.w3.org/2000/svg" version="1.1" viewBox="0 0 68 68">
  <!-- Generator: Adobe Illustrator 30.1.0, SVG Export Plug-In . SVG Version: 2.1.1 Build 136)  -->
  <circle id="Outer" cx="34" cy="34" r="29.24" fill="none" stroke="#000" stroke-width="9.52"/>
  <g>
    <g>
      <rect x="31.85" y="43.86" width="4.27" height="4.27"/>
      <path d="M35.37,44.61v2.78h-2.78v-2.78h2.78M36.86,43.12h-5.76v5.76h5.76v-5.76h0Z"/>
    </g>
    <g>
      <path d="M31.85,39.42l-.02-1.79c0-1.51.56-2.95,1.57-4.07l2.76-3.05c.63-.7.98-1.6.98-2.54,0-1.24-1.01-2.24-2.26-2.24h-1.77c-1.25,0-2.26,1.01-2.26,2.24v.74h-4.3v-.74c0-3.59,2.94-6.52,6.56-6.52h1.77c3.62,0,6.56,2.92,6.56,6.52,0,2-.74,3.91-2.08,5.4l-2.76,3.06c-.31.34-.47.76-.47,1.2l-.02,1.79h-4.26Z"/>
      <path d="M34.89,22.19c3.21,0,5.81,2.59,5.81,5.77,0,1.81-.67,3.55-1.89,4.9l-2.76,3.06c-.43.47-.66,1.06-.67,1.7v1.05h-2.8v-1.05c0-1.32.48-2.58,1.37-3.56l2.76-3.06c.76-.84,1.17-1.92,1.17-3.04,0-1.65-1.35-2.98-3.01-2.98h-1.77c-1.66,0-3.01,1.34-3.01,2.98h-2.81c0-3.18,2.61-5.77,5.81-5.77h1.77M34.89,20.7h-1.77c-4.03,0-7.3,3.26-7.3,7.26v1.49h5.78v-1.49c0-.83.68-1.5,1.52-1.5h1.77c.84,0,1.52.67,1.52,1.5,0,.75-.28,1.48-.79,2.04l-2.76,3.06c-1.13,1.25-1.76,2.87-1.76,4.55v1.07s.02,1.47.02,1.47h5.73v-1.47s.03-1.05.03-1.05c0-.27.1-.51.28-.71l2.76-3.06c1.46-1.62,2.27-3.72,2.27-5.9,0-4-3.28-7.26-7.3-7.26h0Z"/>
    </g>
  </g>
</svg>