<?xml version="1.0" encoding="UTF-8"?>
<svg id="Layer_1" xmlns="http://www.w3.org/2000/svg" version="1.1" viewBox="0 0 47 47">
  <!-- Generator: Adobe Illustrator 30.1.0, SVG Export Plug-In . SVG Version: 2.1.1 Build 136)  -->
  <path d="M23.5,6.58c.55,0,1.1.29,1.39.86l3.54,7.03c.61,1.21,1.74,2.06,3.07,2.31l7.66,1.44c1.2.22,1.68,1.68.86,2.58l-5.58,6.12c-.86.94-1.26,2.22-1.09,3.49l1.09,8.26c.13.98-.66,1.76-1.54,1.76-.23,0-.48-.05-.71-.18l-6.7-3.45c-.62-.32-1.3-.48-1.98-.48-.68,0-1.36.16-1.98.48l-6.7,3.45c-.23.12-.48.18-.71.18-.89,0-1.67-.78-1.54-1.76l1.09-8.26c.17-1.27-.23-2.54-1.09-3.49l-5.58-6.12c-.82-.9-.34-2.36.86-2.58l7.66-1.44c1.32-.25,2.46-1.1,3.06-2.31l3.54-7.03c.29-.57.84-.86,1.39-.86M23.5,0c-3.09,0-5.87,1.71-7.26,4.48l-3.04,6.03-6.56,1.23c-2.9.54-5.28,2.62-6.22,5.41-.94,2.8-.28,5.89,1.7,8.07l4.88,5.35-.95,7.22c-.31,2.33.4,4.67,1.94,6.43,1.55,1.77,3.78,2.78,6.12,2.78,1.29,0,2.57-.31,3.72-.91l5.66-2.92,5.66,2.92c1.15.59,2.44.91,3.72.91,2.34,0,4.57-1.01,6.12-2.78,1.54-1.76,2.25-4.1,1.94-6.43l-.95-7.22,4.88-5.35c1.99-2.18,2.64-5.27,1.7-8.07-.94-2.8-3.32-4.87-6.21-5.41l-6.56-1.23-3.04-6.03c-1.39-2.76-4.17-4.48-7.26-4.48h0Z"/>
</svg>