<?xml version="1.0" encoding="UTF-8"?>
<svg id="Layer_1" xmlns="http://www.w3.org/2000/svg" version="1.1" viewBox="0 0 77 77">
  <!-- Generator: Adobe Illustrator 30.1.0, SVG Export Plug-In . SVG Version: 2.1.1 Build 136)  -->
  <g>
    <g>
      <rect x="35.73" y="21.46" width="5.54" height="5.54"/>
      <path d="M40.43,22.3v3.86h-3.86v-3.86h3.86M42.11,20.62h-7.23v7.23h7.23v-7.23h0Z"/>
    </g>
    <g>
      <polygon points="31.87 55.09 31.87 49.55 35.73 49.55 35.73 39.18 31.87 39.18 31.87 33.64 41.27 33.64 41.27 49.55 45.13 49.55 45.13 55.09 31.87 55.09"/>
      <path d="M40.43,34.48v15.91h3.86v3.86h-11.58v-3.86h3.86v-12.05h-3.86v-3.86h7.72M42.11,32.8h-11.09v7.23h3.86v8.68h-3.86v7.23h14.95v-7.23h-3.86v-15.91h0Z"/>
    </g>
  </g>
  <circle id="Outer" cx="38.5" cy="38.5" r="33.11" fill="none" stroke="#000" stroke-width="10.78"/>
</svg>