<?xml version="1.0" encoding="UTF-8"?>
<svg id="Layer_1" xmlns="http://www.w3.org/2000/svg" version="1.1" viewBox="0 0 79 79">
  <!-- Generator: Adobe Illustrator 30.1.0, SVG Export Plug-In . SVG Version: 2.1.1 Build 136)  -->
  <circle id="Outer" cx="39.5" cy="39.5" r="33.97" fill="none" stroke="#000" stroke-width="11.06"/>
  <g>
    <g>
      <rect x="37" y="50.96" width="4.96" height="4.96"/>
      <path d="M41.1,51.82v3.24h-3.24v-3.24h3.24M42.82,50.09h-6.69v6.69h6.69v-6.69h0Z"/>
    </g>
    <g>
      <path d="M37.01,45.79l-.02-2.08c0-1.75.65-3.43,1.83-4.72l3.2-3.55c.73-.81,1.14-1.86,1.14-2.95,0-1.44-1.18-2.6-2.63-2.6h-2.06c-1.45,0-2.63,1.17-2.63,2.6v.86h-4.99v-.86c0-4.18,3.42-7.57,7.62-7.57h2.06c4.2,0,7.62,3.4,7.62,7.57,0,2.32-.86,4.55-2.42,6.27l-3.21,3.55c-.36.4-.55.88-.55,1.4l-.02,2.08h-4.95Z"/>
      <path d="M40.53,25.78c3.73,0,6.76,3.01,6.76,6.71,0,2.1-.78,4.13-2.19,5.69l-3.2,3.55c-.5.55-.77,1.23-.77,1.97v1.22h-3.25v-1.22c0-1.53.56-2.99,1.59-4.14l3.2-3.55c.88-.97,1.36-2.22,1.36-3.53,0-1.91-1.57-3.47-3.49-3.47h-2.06c-1.93,0-3.49,1.56-3.49,3.47h-3.26c0-3.7,3.03-6.71,6.76-6.71h2.06M40.53,24.05h-2.06c-4.68,0-8.48,3.78-8.48,8.44v1.73h6.72v-1.73c0-.96.79-1.74,1.76-1.74h2.06c.97,0,1.76.78,1.76,1.74,0,.88-.32,1.72-.91,2.37l-3.2,3.55c-1.31,1.45-2.04,3.33-2.05,5.29v1.25s.03,1.71.03,1.71h6.66l.02-1.71v-1.22c.01-.31.12-.59.34-.83l3.21-3.55c1.7-1.88,2.64-4.32,2.64-6.85,0-4.65-3.81-8.44-8.48-8.44h0Z"/>
    </g>
  </g>
</svg>