<?xml version="1.0" encoding="UTF-8"?>
<svg id="Layer_1" xmlns="http://www.w3.org/2000/svg" version="1.1" viewBox="0 0 79 79">
  <!-- Generator: Adobe Illustrator 30.1.0, SVG Export Plug-In . SVG Version: 2.1.1 Build 136)  -->
  <circle id="Outer" cx="39.5" cy="39.5" r="32.58" fill="none" stroke="#000" stroke-width="13.85"/>
  <g>
    <g>
      <rect x="36.98" y="49.89" width="5" height="5.01"/>
      <path d="M40.87,51v2.78h-2.78v-2.78h2.78M43.09,48.78h-7.23v7.23h7.23v-7.23h0Z"/>
    </g>
    <g>
      <path d="M36.99,45.01l-.02-2.15c0-1.6.6-3.13,1.67-4.31l2.76-3.05c.57-.63.88-1.44.88-2.29,0-1.03-.85-1.87-1.89-1.87h-1.77c-1.04,0-1.89.84-1.89,1.87v1.11h-5.03v-1.11c0-3.79,3.1-6.88,6.92-6.88h1.77c3.82,0,6.92,3.09,6.92,6.88,0,2.09-.77,4.09-2.17,5.64l-2.76,3.05c-.25.28-.38.6-.38.95l-.02,2.16h-4.98Z"/>
      <path d="M40.39,27.43c3.2,0,5.81,2.59,5.81,5.77,0,1.81-.67,3.55-1.89,4.9l-2.76,3.05c-.43.47-.66,1.06-.67,1.7v1.05h-2.79v-1.05c0-1.32.48-2.58,1.37-3.56l2.76-3.05c.75-.84,1.17-1.91,1.17-3.04,0-1.64-1.35-2.98-3-2.98h-1.77c-1.66,0-3,1.34-3,2.98h-2.81c0-3.18,2.61-5.77,5.81-5.77h1.77M40.39,25.21h-1.77c-4.43,0-8.03,3.59-8.03,7.99v2.22h7.25v-2.22c0-.42.35-.76.78-.76h1.77c.43,0,.78.34.78.76,0,.57-.21,1.12-.6,1.55l-2.76,3.05c-1.25,1.38-1.94,3.17-1.95,5.04v1.08s.03,2.2.03,2.2h7.18l.02-2.2v-1.05c.01-.07.02-.14.1-.23l2.76-3.06c1.59-1.76,2.46-4.02,2.46-6.39,0-4.41-3.6-7.99-8.03-7.99h0Z"/>
    </g>
  </g>
</svg>