<?xml version="1.0" encoding="UTF-8"?>
<svg id="Layer_1" xmlns="http://www.w3.org/2000/svg" version="1.1" viewBox="0 0 83 83">
  <!-- Generator: Adobe Illustrator 30.1.0, SVG Export Plug-In . SVG Version: 2.1.1 Build 136)  -->
  <path d="M41.5,14.55c.88,0,1.75.45,2.21,1.36l5.64,11.19c.97,1.92,2.77,3.28,4.88,3.67l12.2,2.29c1.91.36,2.68,2.68,1.37,4.11l-8.89,9.75c-1.37,1.5-2.01,3.54-1.74,5.56l1.73,13.15c.21,1.57-1.04,2.81-2.45,2.81-.37,0-.76-.09-1.13-.28l-10.67-5.49c-.99-.51-2.07-.76-3.15-.76s-2.16.25-3.15.76l-10.67,5.49c-.37.19-.76.28-1.13.28-1.41,0-2.66-1.24-2.45-2.81l1.73-13.15c.27-2.02-.37-4.05-1.74-5.55l-8.89-9.75c-1.31-1.44-.54-3.76,1.37-4.11l12.2-2.29c2.11-.4,3.91-1.75,4.88-3.67l5.64-11.19c.46-.91,1.33-1.36,2.21-1.36M41.5,0C35.03,0,29.2,3.59,26.29,9.37l-3.93,7.81-8.47,1.59c-6.06,1.14-11.05,5.48-13.01,11.33-1.96,5.85-.6,12.32,3.56,16.89l6.49,7.12-1.27,9.63c-.64,4.87.84,9.77,4.07,13.45,3.24,3.69,7.91,5.81,12.81,5.81,2.69,0,5.39-.65,7.79-1.89l7.16-3.69,7.16,3.69c2.41,1.24,5.1,1.89,7.79,1.89,4.9,0,9.57-2.12,12.81-5.81,3.23-3.68,4.71-8.59,4.07-13.45l-1.27-9.63,6.49-7.13c4.16-4.56,5.52-11.03,3.56-16.89-1.96-5.85-6.94-10.19-13.01-11.33l-8.47-1.59-3.93-7.81C53.79,3.59,47.97,0,41.5,0h0Z"/>
</svg>