<?xml version="1.0" encoding="UTF-8"?>
<svg id="Layer_1" xmlns="http://www.w3.org/2000/svg" version="1.1" viewBox="0 0 83 83">
  <!-- Generator: Adobe Illustrator 30.1.0, SVG Export Plug-In . SVG Version: 2.1.1 Build 136)  -->
  <path d="M41.5,8.69c1.07,0,2.13.55,2.69,1.66l6.86,13.63c1.18,2.34,3.38,3.99,5.94,4.47l14.85,2.78c2.32.44,3.26,3.26,1.67,5.01l-10.82,11.87c-1.67,1.83-2.45,4.31-2.12,6.77l2.11,16.01c.25,1.91-1.27,3.42-2.99,3.42-.46,0-.92-.11-1.38-.34l-12.99-6.69c-1.2-.62-2.52-.93-3.84-.93-1.32,0-2.63.31-3.84.93l-12.99,6.69c-.45.23-.92.34-1.38.34-1.72,0-3.24-1.51-2.99-3.42l2.11-16.01c.32-2.46-.45-4.93-2.12-6.76l-10.82-11.87c-1.59-1.75-.65-4.57,1.67-5.01l14.85-2.78c2.57-.48,4.76-2.13,5.94-4.47l6.87-13.63c.56-1.11,1.62-1.66,2.69-1.66M41.5,0c-4.45,0-8.45,2.47-10.45,6.44l-6.8,13.5-14.7,2.75c-4.17.78-7.59,3.77-8.94,7.79-1.35,4.03-.41,8.48,2.45,11.61l10.73,11.77-2.1,15.89c-.44,3.35.58,6.72,2.79,9.25,2.23,2.54,5.44,4,8.81,4,1.85,0,3.7-.45,5.36-1.3l12.85-6.62,12.85,6.62c1.66.85,3.51,1.3,5.36,1.3,3.37,0,6.58-1.46,8.81-4,2.22-2.53,3.24-5.9,2.79-9.25l-2.1-15.88,10.73-11.78c2.86-3.14,3.8-7.59,2.45-11.61-1.35-4.02-4.77-7.01-8.94-7.79l-14.7-2.76-6.8-13.5c-2-3.97-6.01-6.44-10.45-6.44h0Z"/>
</svg>