<?xml version="1.0" encoding="UTF-8"?>
<svg id="Layer_1" xmlns="http://www.w3.org/2000/svg" version="1.1" viewBox="0 0 102 102">
  <!-- Generator: Adobe Illustrator 30.1.0, SVG Export Plug-In . SVG Version: 2.1.1 Build 136)  -->
  <path d="M51,10.68c1.31,0,2.62.68,3.31,2.04l8.44,16.75c1.45,2.87,4.15,4.91,7.31,5.5l18.25,3.42c2.85.53,4.01,4,2.05,6.15l-13.3,14.59c-2.05,2.25-3.01,5.3-2.61,8.32l2.59,19.67c.31,2.35-1.56,4.21-3.67,4.21-.56,0-1.14-.13-1.69-.42l-15.96-8.22c-1.48-.76-3.1-1.14-4.72-1.14-1.62,0-3.24.38-4.72,1.14l-15.96,8.22c-.56.29-1.13.42-1.69.42-2.11,0-3.98-1.86-3.67-4.21l2.6-19.68c.4-3.02-.55-6.06-2.6-8.31l-13.3-14.59c-1.96-2.15-.8-5.62,2.05-6.16l18.25-3.42c3.15-.59,5.85-2.62,7.3-5.49l8.44-16.75c.69-1.36,2-2.04,3.31-2.04M51,0C45.54,0,40.61,3.03,38.16,7.91l-8.36,16.59-18.06,3.39c-5.12.96-9.33,4.63-10.99,9.57-1.66,4.95-.5,10.42,3.01,14.27l13.19,14.47-2.57,19.52c-.54,4.11.71,8.25,3.43,11.36,2.74,3.13,6.69,4.92,10.82,4.92,2.27,0,4.55-.55,6.58-1.6l15.79-8.13,15.79,8.13c2.04,1.05,4.31,1.6,6.58,1.6,4.14,0,8.08-1.79,10.82-4.92,2.72-3.11,3.98-7.25,3.43-11.36l-2.57-19.52,13.19-14.47c3.51-3.85,4.67-9.32,3.01-14.27-1.66-4.94-5.87-8.61-10.99-9.57l-18.07-3.39-8.36-16.59C61.38,3.03,56.46,0,51,0h0Z"/>
</svg>