<?xml version="1.0" encoding="UTF-8"?>
<svg id="Layer_1" xmlns="http://www.w3.org/2000/svg" version="1.1" viewBox="0 0 102 102">
  <!-- Generator: Adobe Illustrator 30.1.0, SVG Export Plug-In . SVG Version: 2.1.1 Build 136)  -->
  <path d="M51,14.28c1.19,0,2.39.62,3.01,1.86l7.68,15.25c1.32,2.62,3.78,4.47,6.65,5.01l16.62,3.12c2.6.49,3.65,3.65,1.87,5.6l-12.11,13.29c-1.87,2.05-2.74,4.82-2.37,7.58l2.36,17.92c.28,2.14-1.42,3.83-3.34,3.83-.51,0-1.03-.12-1.54-.38l-14.54-7.49c-1.35-.69-2.82-1.04-4.29-1.04-1.47,0-2.95.35-4.29,1.04l-14.54,7.49c-.51.26-1.03.38-1.54.38-1.92,0-3.63-1.69-3.34-3.83l2.36-17.92c.36-2.75-.51-5.52-2.37-7.57l-12.11-13.29c-1.78-1.96-.73-5.12,1.87-5.61l16.62-3.11c2.87-.54,5.33-2.39,6.65-5l7.68-15.25c.62-1.24,1.82-1.86,3.01-1.86M51,0C44.29,0,38.25,3.72,35.23,9.71l-6.6,13.09-14.23,2.67c-6.29,1.18-11.46,5.68-13.49,11.75-2.03,6.07-.62,12.78,3.69,17.51l10.58,11.61-2.07,15.68c-.67,5.05.87,10.13,4.22,13.95,3.36,3.83,8.2,6.03,13.28,6.03,2.79,0,5.58-.68,8.08-1.97l12.29-6.33,12.29,6.33c2.5,1.29,5.29,1.96,8.08,1.96,5.08,0,9.92-2.2,13.28-6.03,3.35-3.82,4.88-8.9,4.22-13.95l-2.07-15.68,10.59-11.62c4.31-4.73,5.73-11.44,3.69-17.51-2.03-6.07-7.2-10.57-13.49-11.75l-14.24-2.67-6.6-13.09C63.75,3.72,57.7,0,51,0h0Z"/>
</svg>