<?xml version="1.0" encoding="UTF-8"?>
<svg id="Layer_1" xmlns="http://www.w3.org/2000/svg" version="1.1" viewBox="0 0 96 96">
  <!-- Generator: Adobe Illustrator 30.1.0, SVG Export Plug-In . SVG Version: 2.1.1 Build 136)  -->
  <path d="M48,13.44c1.12,0,2.25.58,2.83,1.75l7.23,14.35c1.24,2.46,3.56,4.21,6.26,4.71l15.64,2.93c2.45.46,3.44,3.43,1.76,5.27l-11.4,12.51c-1.76,1.93-2.58,4.54-2.23,7.13l2.22,16.86c.27,2.01-1.34,3.6-3.15,3.6-.48,0-.97-.11-1.45-.36l-13.68-7.05c-1.27-.65-2.65-.98-4.04-.98-1.39,0-2.77.33-4.04.98l-13.68,7.05c-.48.25-.97.36-1.45.36-1.81,0-3.41-1.59-3.15-3.6l2.22-16.87c.34-2.59-.48-5.19-2.23-7.12l-11.4-12.51c-1.68-1.84-.69-4.82,1.76-5.28l15.64-2.93c2.7-.51,5.02-2.25,6.26-4.71l7.23-14.35c.59-1.17,1.71-1.75,2.83-1.75M48,0C41.69,0,36,3.5,33.16,9.14l-6.21,12.32-13.4,2.51c-5.92,1.11-10.78,5.35-12.69,11.06-1.91,5.71-.58,12.03,3.48,16.48l9.96,10.93-1.95,14.76c-.63,4.75.82,9.53,3.97,13.13,3.16,3.61,7.72,5.68,12.5,5.68,2.63,0,5.26-.64,7.6-1.85l11.57-5.96,11.57,5.96c2.35,1.21,4.98,1.85,7.6,1.85,4.78,0,9.34-2.07,12.5-5.68,3.15-3.59,4.6-8.38,3.97-13.13l-1.95-14.76,9.96-10.93c4.06-4.45,5.39-10.77,3.48-16.48-1.91-5.71-6.78-9.95-12.69-11.06l-13.4-2.51-6.21-12.32C60,3.5,54.31,0,48,0h0Z"/>
</svg>