<?xml version="1.0" encoding="UTF-8"?>
<svg id="Layer_1" xmlns="http://www.w3.org/2000/svg" version="1.1" viewBox="0 0 58 58">
  <!-- Generator: Adobe Illustrator 30.1.0, SVG Export Plug-In . SVG Version: 2.1.1 Build 136)  -->
  <g>
    <g>
      <rect x="26.94" y="15.43" width="4.11" height="4.11"/>
      <path d="M30.6,15.88v3.21h-3.21v-3.21h3.21M31.51,14.97h-5.02v5.02h5.02v-5.02h0Z"/>
    </g>
    <g>
      <polygon points="23.74 42.4 23.74 38.29 26.94 38.29 26.94 29.18 23.74 29.18 23.74 25.07 31.06 25.07 31.06 38.29 34.26 38.29 34.26 42.4 23.74 42.4"/>
      <path d="M30.6,25.52v13.22h3.21v3.21h-9.62v-3.21h3.21v-10.01h-3.21v-3.21h6.41M31.51,24.62h-8.23v5.02h3.21v8.2h-3.21v5.02h11.43v-5.02h-3.21v-13.22h0Z"/>
    </g>
  </g>
  <circle id="Outer" cx="29" cy="29" r="25.96" fill="none" stroke="#000" stroke-width="6.07"/>
</svg>