<?xml version="1.0" encoding="UTF-8"?>
<svg id="Layer_1" xmlns="http://www.w3.org/2000/svg" version="1.1" viewBox="0 0 58 58">
  <!-- Generator: Adobe Illustrator 30.1.0, SVG Export Plug-In . SVG Version: 2.1.1 Build 136)  -->
  <g>
    <g>
      <rect x="26.88" y="16.9" width="4.24" height="4.24"/>
      <path d="M30.31,17.71v2.61h-2.61v-2.61h2.61M31.94,16.08h-5.88v5.88h5.88v-5.88h0Z"/>
    </g>
    <g>
      <polygon points="24.26 40.61 24.26 36.37 26.88 36.37 26.88 29.84 24.26 29.84 24.26 25.6 31.12 25.6 31.12 36.37 33.74 36.37 33.74 40.61 24.26 40.61"/>
      <path d="M30.31,26.41v10.77h2.61v2.61h-7.84v-2.61h2.61v-8.16h-2.61v-2.61h5.23M31.94,24.78h-8.49v5.88h2.61v4.9h-2.61v5.88h11.1v-5.88h-2.61v-10.77h0Z"/>
    </g>
  </g>
  <circle id="Outer" cx="29" cy="29" r="23.92" fill="none" stroke="#000" stroke-width="10.17"/>
</svg>