<?xml version="1.0" encoding="UTF-8"?>
<svg id="Layer_1" xmlns="http://www.w3.org/2000/svg" version="1.1" viewBox="0 0 93 93">
  <!-- Generator: Adobe Illustrator 30.1.0, SVG Export Plug-In . SVG Version: 2.1.1 Build 136)  -->
  <circle id="Outer" cx="46.5" cy="46.5" r="41.63" fill="none" stroke="#000" stroke-width="9.74"/>
  <g>
    <g>
      <rect x="43.56" y="61.23" width="5.82" height="5.82"/>
      <path d="M48.66,61.96v4.37h-4.37v-4.37h4.37M50.11,60.51h-7.27v7.27h7.27v-7.27h0Z"/>
    </g>
    <g>
      <path d="M43.57,54.9l-.02-2.37c0-2.26.84-4.41,2.35-6.08l4.32-4.79c1.06-1.18,1.65-2.7,1.65-4.28,0-2.18-1.79-3.95-3.99-3.95h-2.78c-2.2,0-3.99,1.77-3.99,3.95v.73h-5.86v-.73c0-5.39,4.42-9.78,9.85-9.78h2.78c5.43,0,9.85,4.39,9.85,9.78,0,3.02-1.12,5.92-3.15,8.17l-4.33,4.79c-.56.62-.86,1.37-.86,2.18l-.02,2.38h-5.81Z"/>
      <path d="M47.89,28.33c5.03,0,9.12,4.06,9.12,9.06,0,2.84-1.05,5.57-2.96,7.68l-4.33,4.79c-.67.74-1.04,1.66-1.04,2.66l-.02,1.65h-4.37v-1.65c0-2.07.76-4.04,2.15-5.58l4.33-4.79c1.18-1.31,1.84-3,1.84-4.76,0-2.58-2.11-4.68-4.71-4.68h-2.78c-2.6,0-4.71,2.1-4.71,4.68h-4.41c0-4.99,4.09-9.06,9.12-9.06h2.78M47.89,26.88h-2.78c-5.83,0-10.57,4.71-10.57,10.51v1.45h7.31v-1.45c0-1.78,1.46-3.23,3.26-3.23h2.78c1.8,0,3.26,1.45,3.26,3.23,0,1.4-.52,2.75-1.46,3.79l-4.33,4.79c-1.63,1.8-2.53,4.13-2.54,6.55v1.67s.03,1.44.03,1.44h7.25v-1.44s.03-1.65.03-1.65c0-.63.23-1.22.67-1.7l4.33-4.79c2.15-2.38,3.34-5.46,3.34-8.66,0-5.79-4.74-10.51-10.57-10.51h0Z"/>
    </g>
  </g>
</svg>