<?xml version="1.0" encoding="UTF-8"?>
<svg id="Layer_1" xmlns="http://www.w3.org/2000/svg" version="1.1" viewBox="0 0 93 93">
  <!-- Generator: Adobe Illustrator 30.1.0, SVG Export Plug-In . SVG Version: 2.1.1 Build 136)  -->
  <circle id="Outer" cx="46.5" cy="46.5" r="38.35" fill="none" stroke="#000" stroke-width="16.3"/>
  <g>
    <g>
      <rect x="43.53" y="58.73" width="5.89" height="5.89"/>
      <path d="M48.11,60.04v3.28h-3.28v-3.28h3.28M50.73,57.42h-8.51v8.51h8.51v-8.51h0Z"/>
    </g>
    <g>
      <path d="M43.55,52.99l-.02-2.53c0-1.89.7-3.69,1.96-5.08l3.24-3.59c.67-.74,1.04-1.7,1.04-2.7,0-1.21-1-2.2-2.23-2.2h-2.08c-1.23,0-2.23.99-2.23,2.2v1.31h-5.92v-1.31c0-4.47,3.66-8.1,8.15-8.1h2.08c4.49,0,8.15,3.63,8.15,8.1,0,2.45-.91,4.81-2.56,6.64l-3.25,3.6c-.29.33-.45.71-.45,1.12l-.03,2.54h-5.87Z"/>
      <path d="M47.54,32.29c3.77,0,6.84,3.05,6.84,6.79,0,2.13-.79,4.18-2.22,5.76l-3.25,3.6c-.5.56-.78,1.25-.78,2v1.24h-3.29v-1.24c0-1.55.57-3.03,1.61-4.19l3.24-3.59c.89-.98,1.38-2.25,1.38-3.57,0-1.94-1.59-3.51-3.54-3.51h-2.08c-1.95,0-3.54,1.58-3.54,3.51h-3.31c0-3.75,3.07-6.79,6.84-6.79h2.08M47.54,29.68h-2.08c-5.21,0-9.46,4.22-9.46,9.41v2.62h8.54v-2.62c0-.49.41-.9.92-.9h2.08c.51,0,.92.4.92.9,0,.67-.25,1.32-.7,1.82l-3.24,3.59c-1.47,1.63-2.29,3.74-2.3,5.93v1.27s.03,2.59.03,2.59h8.46l.03-2.59v-1.24c.01-.09.03-.16.12-.27l3.25-3.6c1.87-2.07,2.9-4.74,2.9-7.52,0-5.19-4.24-9.41-9.46-9.41h0Z"/>
    </g>
  </g>
</svg>