<?xml version="1.0" encoding="UTF-8"?>
<svg id="Layer_1" xmlns="http://www.w3.org/2000/svg" version="1.1" viewBox="0 0 56 56">
  <!-- Generator: Adobe Illustrator 30.1.0, SVG Export Plug-In . SVG Version: 2.1.1 Build 136)  -->
  <circle id="Outer" cx="28" cy="28" r="25.07" fill="none" stroke="#000" stroke-width="5.86"/>
  <g>
    <g>
      <rect x="26.23" y="36.87" width="3.51" height="3.5"/>
      <path d="M29.3,37.31v2.63h-2.63v-2.63h2.63M30.17,36.43h-4.38v4.38h4.38v-4.38h0Z"/>
    </g>
    <g>
      <path d="M26.24,33.06v-1.43c0-1.36.49-2.65,1.4-3.66l2.6-2.88c.64-.71.99-1.62.99-2.58,0-1.31-1.08-2.38-2.4-2.38h-1.67c-1.32,0-2.4,1.07-2.4,2.38v.44h-3.53v-.44c0-3.25,2.66-5.89,5.93-5.89h1.67c3.27,0,5.93,2.64,5.93,5.89,0,1.82-.67,3.57-1.9,4.92l-2.61,2.89c-.34.37-.51.83-.52,1.31v1.43h-3.51Z"/>
      <path d="M28.84,17.06c3.03,0,5.49,2.45,5.49,5.45,0,1.71-.63,3.35-1.78,4.63l-2.61,2.89c-.4.45-.63,1-.63,1.6v.99h-2.64v-.99c0-1.25.46-2.43,1.29-3.36l2.6-2.89c.71-.79,1.11-1.81,1.11-2.87,0-1.55-1.27-2.82-2.84-2.82h-1.67c-1.56,0-2.84,1.26-2.84,2.82h-2.65c0-3.01,2.46-5.45,5.49-5.45h1.67M28.84,16.18h-1.67c-3.51,0-6.37,2.84-6.37,6.33v.88h4.4v-.88c0-1.07.88-1.94,1.96-1.94h1.67c1.08,0,1.96.87,1.96,1.94,0,.84-.31,1.65-.88,2.28l-2.6,2.89c-.98,1.08-1.52,2.48-1.53,3.94v1.01s.02.87.02.87h4.36v-.87s.02-.99.02-.99c0-.38.14-.73.4-1.02l2.61-2.89c1.3-1.43,2.01-3.29,2.01-5.21,0-3.49-2.86-6.33-6.37-6.33h0Z"/>
    </g>
  </g>
</svg>