<?xml version="1.0" encoding="UTF-8"?>
<svg id="Layer_1" xmlns="http://www.w3.org/2000/svg" version="1.1" viewBox="0 0 56 56">
  <!-- Generator: Adobe Illustrator 30.1.0, SVG Export Plug-In . SVG Version: 2.1.1 Build 136)  -->
  <circle id="Outer" cx="28" cy="28" r="23.09" fill="none" stroke="#000" stroke-width="9.82"/>
  <g>
    <g>
      <rect x="26.21" y="35.37" width="3.55" height="3.55"/>
      <path d="M28.97,36.15v1.97h-1.97v-1.97h1.97M30.55,34.58h-5.12v5.12h5.12v-5.12h0Z"/>
    </g>
    <g>
      <path d="M26.22,31.91v-1.53c0-1.14.41-2.22,1.17-3.06l1.95-2.16c.4-.45.63-1.02.63-1.62,0-.73-.6-1.33-1.34-1.33h-1.25c-.74,0-1.34.6-1.34,1.33v.79h-3.57v-.79c0-2.69,2.2-4.88,4.91-4.88h1.25c2.71,0,4.91,2.19,4.91,4.88,0,1.48-.55,2.9-1.54,4l-1.95,2.17c-.18.2-.27.42-.27.68l-.02,1.53h-3.53Z"/>
      <path d="M28.63,19.44c2.27,0,4.12,1.84,4.12,4.09,0,1.28-.48,2.52-1.34,3.47l-1.95,2.17c-.3.33-.47.75-.47,1.2v.75h-1.98v-.75c0-.94.34-1.83.97-2.52l1.95-2.16c.53-.59.83-1.36.83-2.15,0-1.17-.96-2.11-2.13-2.11h-1.26c-1.17,0-2.13.95-2.13,2.11h-1.99c0-2.26,1.85-4.09,4.12-4.09h1.26M28.63,17.87h-1.26c-3.14,0-5.69,2.54-5.69,5.67v1.58h5.14v-1.58c0-.3.25-.54.55-.54h1.26c.31,0,.55.24.55.54,0,.4-.15.79-.42,1.1l-1.95,2.16c-.89.98-1.38,2.25-1.38,3.57v.77s.02,1.56.02,1.56h5.09l.02-1.56v-.75c0-.05.02-.1.07-.16l1.96-2.17c1.12-1.25,1.74-2.85,1.74-4.53,0-3.12-2.55-5.67-5.69-5.67h0Z"/>
    </g>
  </g>
</svg>