<?xml version="1.0" encoding="UTF-8"?>
<svg id="Layer_1" xmlns="http://www.w3.org/2000/svg" version="1.1" viewBox="0 0 89 89">
  <!-- Generator: Adobe Illustrator 30.1.0, SVG Export Plug-In . SVG Version: 2.1.1 Build 136)  -->
  <circle id="Outer" cx="44.5" cy="44.5" r="36.7" fill="none" stroke="#000" stroke-width="15.6"/>
  <g>
    <g>
      <rect x="41.66" y="56.2" width="5.64" height="5.64"/>
      <path d="M46.05,57.46v3.14h-3.14v-3.14h3.14M48.55,54.95h-8.14v8.14h8.14v-8.14h0Z"/>
    </g>
    <g>
      <path d="M41.68,50.71l-.02-2.43c0-1.81.67-3.53,1.88-4.86l3.1-3.44c.64-.71,1-1.63,1-2.58,0-1.16-.96-2.11-2.13-2.11h-1.99c-1.18,0-2.13.95-2.13,2.11v1.25h-5.67v-1.25c0-4.27,3.5-7.75,7.8-7.75h1.99c4.3,0,7.8,3.48,7.8,7.75,0,2.35-.87,4.61-2.45,6.35l-3.1,3.44c-.28.31-.43.67-.43,1.07l-.02,2.43h-5.61Z"/>
      <path d="M45.5,30.9c3.61,0,6.55,2.92,6.55,6.5,0,2.04-.76,4-2.13,5.52l-3.11,3.44c-.48.53-.75,1.19-.75,1.91v1.19h-3.15v-1.19c0-1.49.54-2.9,1.54-4.01l3.11-3.44c.85-.94,1.32-2.16,1.32-3.42,0-1.85-1.52-3.36-3.38-3.36h-1.99c-1.87,0-3.38,1.51-3.38,3.36h-3.16c0-3.58,2.94-6.5,6.55-6.5h1.99M45.5,28.4h-1.99c-4.99,0-9.05,4.04-9.05,9v2.5h8.17v-2.5c0-.47.4-.86.88-.86h1.99c.49,0,.88.38.88.86,0,.64-.24,1.26-.67,1.74l-3.11,3.44c-1.41,1.56-2.19,3.57-2.2,5.68v1.22s.03,2.48.03,2.48h8.09l.03-2.48v-1.19c.01-.08.03-.16.12-.26l3.11-3.44c1.79-1.98,2.77-4.53,2.77-7.19,0-4.96-4.06-9-9.05-9h0Z"/>
    </g>
  </g>
</svg>