<?xml version="1.0" encoding="UTF-8"?>
<svg id="Layer_1" xmlns="http://www.w3.org/2000/svg" version="1.1" viewBox="0 0 89 89">
  <!-- Generator: Adobe Illustrator 30.1.0, SVG Export Plug-In . SVG Version: 2.1.1 Build 136)  -->
  <circle id="Outer" cx="44.5" cy="44.5" r="39.84" fill="none" stroke="#000" stroke-width="9.32"/>
  <g>
    <g>
      <rect x="41.69" y="58.6" width="5.57" height="5.57"/>
      <path d="M46.56,59.29v4.18h-4.18v-4.18h4.18M47.95,57.9h-6.96v6.96h6.96v-6.96h0Z"/>
    </g>
    <g>
      <path d="M41.7,52.54l-.02-2.27c0-2.16.81-4.22,2.25-5.81l4.14-4.59c1.02-1.13,1.58-2.58,1.58-4.09,0-2.09-1.71-3.78-3.82-3.78h-2.66c-2.1,0-3.82,1.7-3.82,3.78v.7h-5.61v-.7c0-5.16,4.23-9.36,9.42-9.36h2.66c5.2,0,9.42,4.2,9.42,9.36,0,2.89-1.07,5.67-3.01,7.82l-4.14,4.59c-.54.59-.82,1.31-.82,2.08l-.02,2.27h-5.56Z"/>
      <path d="M45.83,27.11c4.81,0,8.73,3.89,8.73,8.67,0,2.72-1.01,5.33-2.83,7.35l-4.14,4.59c-.64.71-1,1.59-1,2.55l-.02,1.58h-4.18v-1.58c0-1.98.72-3.87,2.06-5.34l4.14-4.59c1.13-1.26,1.76-2.87,1.76-4.56,0-2.47-2.02-4.48-4.51-4.48h-2.66c-2.49,0-4.51,2.01-4.51,4.48h-4.22c0-4.78,3.92-8.67,8.73-8.67h2.66M45.83,25.72h-2.66c-5.58,0-10.12,4.51-10.12,10.06v1.39h7v-1.39c0-1.7,1.4-3.09,3.12-3.09h2.66c1.72,0,3.12,1.39,3.12,3.09,0,1.34-.5,2.63-1.4,3.63l-4.14,4.59c-1.56,1.72-2.42,3.95-2.43,6.27v1.6s.03,1.38.03,1.38h6.93v-1.38s.03-1.58.03-1.58c0-.61.22-1.17.64-1.63l4.14-4.59c2.06-2.28,3.19-5.22,3.19-8.29,0-5.55-4.54-10.06-10.12-10.06h0Z"/>
    </g>
  </g>
</svg>