<?xml version="1.0" encoding="UTF-8"?>
<svg id="Layer_1" xmlns="http://www.w3.org/2000/svg" version="1.1" viewBox="0 0 95 95">
  <!-- Generator: Adobe Illustrator 30.1.0, SVG Export Plug-In . SVG Version: 2.1.1 Build 136)  -->
  <circle id="Outer" cx="47.5" cy="47.5" r="42.53" fill="none" stroke="#000" stroke-width="9.95"/>
  <g>
    <g>
      <rect x="44.5" y="62.55" width="5.95" height="5.95"/>
      <path d="M49.7,63.29v4.46h-4.46v-4.46h4.46M51.19,61.81h-7.43v7.43h7.43v-7.43h0Z"/>
    </g>
    <g>
      <path d="M44.51,56.08l-.02-2.42c0-2.3.86-4.5,2.4-6.21l4.42-4.89c1.09-1.2,1.68-2.75,1.68-4.37,0-2.23-1.83-4.04-4.07-4.04h-2.84c-2.25,0-4.07,1.81-4.07,4.04v.74h-5.99v-.74c0-5.51,4.51-9.99,10.06-9.99h2.84c5.55,0,10.06,4.48,10.06,9.99,0,3.09-1.14,6.05-3.22,8.35l-4.42,4.9c-.57.63-.87,1.4-.88,2.22l-.03,2.43h-5.93Z"/>
      <path d="M48.92,28.94c5.14,0,9.32,4.15,9.32,9.25,0,2.9-1.07,5.69-3.03,7.85l-4.42,4.9c-.68.76-1.06,1.7-1.07,2.72l-.02,1.69h-4.46v-1.69c0-2.11.77-4.13,2.2-5.7l4.42-4.89c1.21-1.34,1.88-3.07,1.88-4.87,0-2.64-2.16-4.78-4.82-4.78h-2.84c-2.65,0-4.82,2.15-4.82,4.78h-4.5c0-5.1,4.18-9.25,9.32-9.25h2.84M48.92,27.45h-2.84c-5.96,0-10.8,4.82-10.8,10.74v1.48h7.47v-1.48c0-1.82,1.49-3.3,3.33-3.3h2.84c1.84,0,3.33,1.48,3.33,3.3,0,1.43-.53,2.81-1.49,3.87l-4.42,4.9c-1.66,1.84-2.58,4.22-2.59,6.69v1.71s.03,1.47.03,1.47h7.4v-1.47s.03-1.69.03-1.69c0-.65.24-1.24.68-1.74l4.42-4.9c2.2-2.43,3.41-5.58,3.41-8.84,0-5.92-4.85-10.74-10.8-10.74h0Z"/>
    </g>
  </g>
</svg>