<?xml version="1.0" encoding="UTF-8"?>
<svg id="Layer_1" xmlns="http://www.w3.org/2000/svg" version="1.1" viewBox="0 0 95 95">
  <!-- Generator: Adobe Illustrator 30.1.0, SVG Export Plug-In . SVG Version: 2.1.1 Build 136)  -->
  <circle id="Outer" cx="47.5" cy="47.5" r="40.85" fill="none" stroke="#000" stroke-width="13.3"/>
  <g>
    <g>
      <rect x="44.49" y="61.28" width="5.97" height="5.97"/>
      <path d="M49.42,62.32v3.89h-3.89v-3.89h3.89M51.5,60.24h-8.05v8.05h8.05v-8.05h0Z"/>
    </g>
    <g>
      <path d="M44.5,55.07l-.02-2.5c0-2.11.79-4.12,2.2-5.68l3.85-4.27c.88-.98,1.37-2.24,1.37-3.55,0-1.73-1.42-3.13-3.16-3.13h-2.47c-1.74,0-3.16,1.4-3.16,3.13v1.04h-6v-1.04c0-5.02,4.11-9.11,9.16-9.11h2.47c5.05,0,9.16,4.08,9.16,9.11,0,2.79-1.03,5.46-2.91,7.54l-3.85,4.27c-.43.48-.66,1.06-.66,1.68l-.03,2.51h-5.95Z"/>
      <path d="M48.74,31c4.48,0,8.12,3.62,8.12,8.07,0,2.53-.94,4.96-2.64,6.85l-3.85,4.27c-.6.66-.93,1.48-.93,2.37v1.47h-3.91v-1.47c0-1.84.67-3.6,1.91-4.97l3.85-4.27c1.06-1.17,1.64-2.68,1.64-4.24,0-2.3-1.88-4.17-4.2-4.17h-2.48c-2.32,0-4.2,1.87-4.2,4.17h-3.92c0-4.45,3.64-8.07,8.12-8.07h2.48M48.74,28.92h-2.48c-5.63,0-10.2,4.55-10.2,10.14v2.08h8.08v-2.08c0-1.15.95-2.09,2.12-2.09h2.48c1.17,0,2.12.94,2.12,2.09,0,1.05-.39,2.07-1.1,2.85l-3.85,4.27c-1.58,1.75-2.45,4-2.46,6.36v1.5s.03,2.06.03,2.06h8.01l.02-2.06v-1.47c.02-.38.15-.71.41-1l3.86-4.27c2.05-2.27,3.17-5.19,3.17-8.24,0-5.59-4.58-10.14-10.2-10.14h0Z"/>
    </g>
  </g>
</svg>