<?xml version="1.0" encoding="UTF-8"?>
<svg id="Layer_1" xmlns="http://www.w3.org/2000/svg" version="1.1" viewBox="0 0 68 68">
  <!-- Generator: Adobe Illustrator 30.1.0, SVG Export Plug-In . SVG Version: 2.1.1 Build 136)  -->
  <circle id="Outer" cx="34" cy="34" r="28.04" fill="none" stroke="#000" stroke-width="11.92"/>
  <g>
    <g>
      <rect x="31.83" y="42.94" width="4.31" height="4.31"/>
      <path d="M35.18,43.9v2.4h-2.4v-2.4h2.4M37.09,41.99h-6.22v6.22h6.22v-6.22h0Z"/>
    </g>
    <g>
      <path d="M31.84,38.74l-.02-1.85c0-1.38.51-2.7,1.43-3.71l2.37-2.63c.49-.54.76-1.24.76-1.97,0-.89-.73-1.61-1.63-1.61h-1.52c-.9,0-1.63.72-1.63,1.61v.96h-4.33v-.96c0-3.27,2.67-5.92,5.96-5.92h1.52c3.28,0,5.96,2.66,5.96,5.92,0,1.79-.66,3.52-1.87,4.86l-2.37,2.63c-.22.24-.33.51-.33.82l-.02,1.86h-4.29Z"/>
      <path d="M34.76,23.61c2.76,0,5,2.23,5,4.97,0,1.56-.58,3.05-1.62,4.21l-2.37,2.63c-.37.41-.57.91-.57,1.46v.91h-2.4v-.91c0-1.14.41-2.22,1.18-3.06l2.37-2.63c.65-.72,1.01-1.65,1.01-2.61,0-1.42-1.16-2.57-2.59-2.57h-1.52c-1.43,0-2.59,1.15-2.59,2.57h-2.42c0-2.74,2.24-4.97,5-4.97h1.52M34.76,21.7h-1.52c-3.81,0-6.91,3.09-6.91,6.88v1.91h6.24v-1.91c0-.36.3-.65.67-.65h1.52c.37,0,.67.29.67.65,0,.49-.18.96-.51,1.33l-2.37,2.63c-1.08,1.19-1.67,2.73-1.68,4.34v.93s.02,1.9.02,1.9h6.18l.02-1.89v-.91c0-.06.02-.12.09-.2l2.37-2.63c1.37-1.51,2.12-3.46,2.12-5.5,0-3.79-3.1-6.88-6.91-6.88h0Z"/>
    </g>
  </g>
</svg>