<?xml version="1.0" encoding="UTF-8"?>
<svg id="Layer_1" xmlns="http://www.w3.org/2000/svg" version="1.1" viewBox="0 0 68 68">
  <!-- Generator: Adobe Illustrator 30.1.0, SVG Export Plug-In . SVG Version: 2.1.1 Build 136)  -->
  <circle id="Outer" cx="34" cy="34" r="30.44" fill="none" stroke="#000" stroke-width="7.12"/>
  <g>
    <g>
      <rect x="31.85" y="44.77" width="4.26" height="4.26"/>
      <path d="M35.58,45.3v3.19h-3.19v-3.19h3.19M36.64,44.24h-5.32v5.32h5.32v-5.32h0Z"/>
    </g>
    <g>
      <path d="M31.86,40.14v-1.73c0-1.65.6-3.22,1.7-4.44l3.16-3.5c.78-.86,1.21-1.97,1.21-3.13,0-1.59-1.31-2.89-2.92-2.89h-2.03c-1.61,0-2.92,1.3-2.92,2.89v.53h-4.28v-.53c0-3.94,3.23-7.15,7.2-7.15h2.03c3.97,0,7.2,3.21,7.2,7.15,0,2.21-.82,4.33-2.3,5.97l-3.16,3.51c-.41.45-.62,1-.63,1.59l-.02,1.74h-4.25Z"/>
      <path d="M35.02,20.71c3.68,0,6.67,2.97,6.67,6.62,0,2.08-.77,4.07-2.17,5.62l-3.16,3.51c-.49.54-.76,1.22-.76,1.95v1.21h-3.21v-1.21c0-1.51.55-2.96,1.57-4.08l3.16-3.5c.87-.96,1.34-2.2,1.34-3.48,0-1.89-1.55-3.42-3.45-3.42h-2.03c-1.9,0-3.45,1.54-3.45,3.42h-3.22c0-3.65,2.99-6.62,6.67-6.62h2.03M35.02,19.65h-2.03c-4.26,0-7.73,3.45-7.73,7.68v1.06h5.35v-1.06c0-1.3,1.07-2.36,2.38-2.36h2.03c1.31,0,2.38,1.06,2.38,2.36,0,1.02-.38,2.01-1.07,2.77l-3.16,3.5c-1.19,1.32-1.85,3.02-1.86,4.79v1.22s.02,1.05.02,1.05h5.3v-1.05s.02-1.21.02-1.21c0-.46.17-.89.49-1.24l3.16-3.51c1.57-1.74,2.44-3.99,2.44-6.33,0-4.24-3.47-7.68-7.73-7.68h0Z"/>
    </g>
  </g>
</svg>