<?xml version="1.0" encoding="UTF-8"?>
<svg id="Layer_1" xmlns="http://www.w3.org/2000/svg" version="1.1" viewBox="0 0 108 108">
  <!-- Generator: Adobe Illustrator 30.1.0, SVG Export Plug-In . SVG Version: 2.1.1 Build 136)  -->
  <path d="M54,18.93c1.14,0,2.28.59,2.88,1.77l7.34,14.56c1.26,2.5,3.61,4.27,6.35,4.78l15.87,2.97c2.48.47,3.49,3.48,1.79,5.35l-11.56,12.69c-1.78,1.96-2.61,4.61-2.27,7.23l2.26,17.11c.27,2.04-1.36,3.66-3.19,3.66-.49,0-.99-.11-1.47-.36l-13.88-7.15c-1.29-.66-2.69-.99-4.1-.99-1.41,0-2.81.33-4.1.99l-13.88,7.15c-.48.25-.99.36-1.47.36-1.84,0-3.46-1.62-3.19-3.66l2.26-17.11c.35-2.63-.48-5.27-2.26-7.23l-11.56-12.69c-1.7-1.87-.7-4.89,1.79-5.35l15.87-2.97c2.74-.51,5.09-2.28,6.35-4.78l7.34-14.56c.6-1.18,1.74-1.77,2.88-1.77M54,0C45.58,0,38,4.67,34.21,12.19l-5.12,10.16-11.02,2.06c-7.89,1.48-14.38,7.13-16.93,14.74-2.55,7.62-.78,16.04,4.63,21.97l8.45,9.27-1.65,12.53c-.84,6.33,1.1,12.71,5.3,17.5,4.22,4.81,10.29,7.56,16.67,7.56,3.5,0,7.01-.85,10.14-2.46l9.31-4.8,9.31,4.8c3.13,1.61,6.64,2.46,10.14,2.46,6.38,0,12.45-2.76,16.67-7.56,4.2-4.79,6.13-11.17,5.3-17.5l-1.65-12.53,8.45-9.27c5.41-5.94,7.19-14.36,4.63-21.97-2.55-7.61-9.04-13.26-16.93-14.74l-11.02-2.07-5.12-10.16C70,4.67,62.42,0,54,0h0Z"/>
</svg>