<?xml version="1.0" encoding="UTF-8"?>
<svg id="Layer_1" xmlns="http://www.w3.org/2000/svg" version="1.1" viewBox="0 0 108 108">
  <!-- Generator: Adobe Illustrator 30.1.0, SVG Export Plug-In . SVG Version: 2.1.1 Build 136)  -->
  <path d="M54,11.31c1.39,0,2.78.72,3.5,2.16l8.93,17.73c1.53,3.04,4.39,5.19,7.73,5.82l19.32,3.62c3.02.57,4.25,4.24,2.17,6.51l-14.08,15.45c-2.17,2.38-3.18,5.61-2.76,8.81l2.75,20.83c.33,2.49-1.65,4.45-3.89,4.45-.59,0-1.2-.14-1.79-.44l-16.9-8.7c-1.57-.81-3.28-1.21-4.99-1.21-1.71,0-3.43.4-4.99,1.21l-16.9,8.7c-.59.3-1.2.44-1.79.44-2.23,0-4.21-1.97-3.89-4.45l2.75-20.84c.42-3.2-.59-6.42-2.76-8.8l-14.08-15.45c-2.07-2.28-.85-5.95,2.18-6.52l19.32-3.62c3.34-.63,6.2-2.78,7.73-5.82l8.93-17.73c.73-1.44,2.11-2.16,3.5-2.16M54,0C48.21,0,43,3.21,40.4,8.38l-8.85,17.56-19.12,3.58c-5.42,1.02-9.88,4.9-11.64,10.13-1.75,5.24-.53,11.03,3.19,15.11l13.96,15.32-2.73,20.67c-.57,4.35.75,8.74,3.64,12.03,2.9,3.31,7.08,5.21,11.46,5.21,2.4,0,4.81-.59,6.97-1.7l16.72-8.61,16.72,8.61c2.16,1.11,4.57,1.7,6.97,1.7,4.38,0,8.56-1.9,11.46-5.21,2.89-3.29,4.21-7.68,3.64-12.03l-2.73-20.67,13.97-15.33c3.72-4.08,4.94-9.87,3.19-15.11-1.75-5.23-6.21-9.12-11.63-10.13l-19.13-3.59-8.85-17.56C64.99,3.21,59.78,0,54,0h0Z"/>
</svg>