<?xml version="1.0" encoding="UTF-8"?>
<svg id="Layer_1" xmlns="http://www.w3.org/2000/svg" version="1.1" viewBox="0 0 78 78">
  <!-- Generator: Adobe Illustrator 30.1.0, SVG Export Plug-In . SVG Version: 2.1.1 Build 136)  -->
  <g>
    <g>
      <rect x="36.15" y="22.73" width="5.71" height="5.71"/>
      <path d="M40.76,23.82v3.51h-3.51v-3.51h3.51M42.95,21.63h-7.9v7.9h7.9v-7.9h0Z"/>
    </g>
    <g>
      <polygon points="32.63 54.62 32.63 48.91 36.15 48.91 36.15 40.13 32.63 40.13 32.63 34.42 41.85 34.42 41.85 48.91 45.37 48.91 45.37 54.62 32.63 54.62"/>
      <path d="M40.76,35.52v14.49h3.51v3.51h-10.54v-3.51h3.51v-10.97h-3.51v-3.51h7.03M42.95,33.32h-11.42v7.9h3.51v6.58h-3.51v7.9h14.93v-7.9h-3.51v-14.49h0Z"/>
    </g>
  </g>
  <circle id="Outer" cx="39" cy="39" r="32.16" fill="none" stroke="#000" stroke-width="13.67"/>
</svg>