<?xml version="1.0" encoding="UTF-8"?>
<svg id="Layer_1" xmlns="http://www.w3.org/2000/svg" version="1.1" viewBox="0 0 78 78">
  <!-- Generator: Adobe Illustrator 30.1.0, SVG Export Plug-In . SVG Version: 2.1.1 Build 136)  -->
  <g>
    <g>
      <rect x="36.23" y="20.74" width="5.53" height="5.53"/>
      <path d="M41.16,21.35v4.31h-4.31v-4.31h4.31M42.37,20.13h-6.75v6.75h6.75v-6.75h0Z"/>
    </g>
    <g>
      <polygon points="31.92 57.02 31.92 51.49 36.23 51.49 36.23 39.25 31.92 39.25 31.92 33.72 41.77 33.72 41.77 51.49 46.08 51.49 46.08 57.02 31.92 57.02"/>
      <path d="M41.16,34.33v17.77h4.31v4.31h-12.94v-4.31h4.31v-13.46h-4.31v-4.31h8.62M42.37,33.11h-11.06v6.75h4.31v11.03h-4.31v6.75h15.37v-6.75h-4.31v-17.77h0Z"/>
    </g>
  </g>
  <circle id="Outer" cx="39" cy="39" r="34.92" fill="none" stroke="#000" stroke-width="8.17"/>
</svg>