<?xml version="1.0" encoding="UTF-8"?>
<svg id="Layer_1" xmlns="http://www.w3.org/2000/svg" version="1.1" viewBox="0 0 56 56">
  <!-- Generator: Adobe Illustrator 30.1.0, SVG Export Plug-In . SVG Version: 2.1.1 Build 136)  -->
  <g>
    <g>
      <rect x="26.01" y="14.89" width="3.97" height="3.97"/>
      <path d="M29.55,15.33v3.1h-3.1v-3.1h3.1M30.42,14.46h-4.85v4.85h4.85v-4.85h0Z"/>
    </g>
    <g>
      <polygon points="22.92 40.94 22.92 36.97 26.01 36.97 26.01 28.18 22.92 28.18 22.92 24.21 29.99 24.21 29.99 36.97 33.08 36.97 33.08 40.94 22.92 40.94"/>
      <path d="M29.55,24.64v12.76h3.1v3.1h-9.29v-3.1h3.1v-9.67h-3.1v-3.1h6.19M30.42,23.77h-7.94v4.85h3.1v7.92h-3.1v4.85h11.04v-4.85h-3.1v-12.76h0Z"/>
    </g>
  </g>
  <circle id="Outer" cx="28" cy="28" r="25.07" fill="none" stroke="#000" stroke-width="5.86"/>
</svg>