<?xml version="1.0" encoding="UTF-8"?>
<svg id="Layer_1" xmlns="http://www.w3.org/2000/svg" version="1.1" viewBox="0 0 48 48">
  <!-- Generator: Adobe Illustrator 30.1.0, SVG Export Plug-In . SVG Version: 2.1.1 Build 136)  -->
  <circle id="Outer" cx="24" cy="24" r="20.64" fill="none" stroke="#000" stroke-width="6.72"/>
  <g>
    <g>
      <rect x="22.48" y="30.96" width="3.02" height="3.02"/>
      <path d="M24.97,31.49v1.97h-1.97v-1.97h1.97M26.02,30.44h-4.07v4.07h4.07v-4.07h0Z"/>
    </g>
    <g>
      <path d="M22.49,27.82v-1.26c0-1.07.39-2.08,1.1-2.87l1.95-2.16c.45-.49.69-1.13.69-1.79,0-.87-.72-1.58-1.6-1.58h-1.25c-.88,0-1.6.71-1.6,1.58v.52h-3.03v-.52c0-2.54,2.08-4.6,4.63-4.6h1.25c2.55,0,4.63,2.06,4.63,4.6,0,1.41-.52,2.76-1.47,3.81l-1.95,2.16c-.22.24-.33.54-.33.85v1.27h-3.02Z"/>
      <path d="M24.63,15.66c2.26,0,4.1,1.83,4.1,4.08,0,1.28-.47,2.51-1.33,3.46l-1.95,2.16c-.3.33-.47.75-.47,1.2v.74h-1.97v-.74c0-.93.34-1.82.97-2.51l1.95-2.16c.53-.59.83-1.35.83-2.14,0-1.16-.95-2.11-2.12-2.11h-1.25c-1.17,0-2.12.95-2.12,2.11h-1.98c0-2.25,1.84-4.08,4.1-4.08h1.25M24.63,14.61h-1.25c-2.84,0-5.15,2.3-5.15,5.13v1.05h4.08v-1.05c0-.58.48-1.06,1.07-1.06h1.25c.59,0,1.07.47,1.07,1.06,0,.53-.2,1.04-.56,1.44l-1.95,2.16c-.8.88-1.24,2.02-1.24,3.21v.76s.02,1.04.02,1.04h4.05v-1.04s.02-.74.02-.74c0-.19.07-.36.2-.5l1.95-2.16c1.03-1.15,1.6-2.62,1.6-4.16,0-2.83-2.31-5.13-5.15-5.13h0Z"/>
    </g>
  </g>
</svg>