<?xml version="1.0" encoding="UTF-8"?>
<svg id="Layer_1" xmlns="http://www.w3.org/2000/svg" version="1.1" viewBox="0 0 96 96">
  <!-- Generator: Adobe Illustrator 30.1.0, SVG Export Plug-In . SVG Version: 2.1.1 Build 136)  -->
  <path d="M48,10.05c1.23,0,2.47.64,3.11,1.92l7.94,15.76c1.36,2.7,3.9,4.62,6.88,5.17l17.18,3.22c2.69.5,3.77,3.77,1.93,5.79l-12.51,13.73c-1.93,2.12-2.83,4.98-2.45,7.83l2.44,18.52c.29,2.21-1.47,3.96-3.46,3.96-.53,0-1.07-.12-1.59-.39l-15.02-7.74c-1.39-.72-2.92-1.08-4.44-1.08-1.52,0-3.04.36-4.44,1.08l-15.02,7.74c-.52.27-1.07.39-1.59.39-1.99,0-3.75-1.75-3.46-3.96l2.44-18.52c.37-2.84-.52-5.7-2.45-7.82l-12.52-13.73c-1.84-2.02-.75-5.29,1.93-5.79l17.17-3.22c2.97-.56,5.51-2.47,6.87-5.17l7.94-15.76c.64-1.28,1.88-1.92,3.11-1.92M48,0C42.86,0,38.23,2.85,35.91,7.45l-7.86,15.61-17,3.19c-4.82.9-8.78,4.36-10.34,9.01-1.56,4.66-.47,9.8,2.83,13.43l12.41,13.62-2.42,18.37c-.51,3.87.67,7.77,3.23,10.69,2.58,2.94,6.29,4.63,10.19,4.63,2.14,0,4.28-.52,6.19-1.51l14.86-7.65,14.86,7.65c1.92.99,4.06,1.51,6.19,1.51,3.89,0,7.61-1.69,10.19-4.63,2.56-2.93,3.74-6.82,3.23-10.69l-2.42-18.37,12.41-13.62c3.31-3.63,4.39-8.77,2.83-13.43-1.56-4.65-5.52-8.1-10.34-9.01l-17-3.19-7.86-15.61C57.77,2.85,53.14,0,48,0h0Z"/>
</svg>