<?xml version="1.0" encoding="UTF-8"?>
<svg id="Layer_1" xmlns="http://www.w3.org/2000/svg" version="1.1" viewBox="0 0 96 96">
  <!-- Generator: Adobe Illustrator 30.1.0, SVG Export Plug-In . SVG Version: 2.1.1 Build 136)  -->
  <path d="M48,16.83c1.01,0,2.03.53,2.56,1.58l6.52,12.94c1.12,2.22,3.21,3.79,5.65,4.25l14.11,2.64c2.21.41,3.1,3.09,1.59,4.76l-10.28,11.28c-1.59,1.74-2.32,4.09-2.02,6.43l2.01,15.21c.24,1.81-1.21,3.25-2.84,3.25-.43,0-.88-.1-1.31-.32l-12.34-6.36c-1.14-.59-2.39-.88-3.64-.88s-2.5.29-3.64.88l-12.34,6.36c-.43.22-.88.32-1.31.32-1.63,0-3.08-1.44-2.84-3.25l2.01-15.21c.31-2.33-.43-4.68-2.01-6.42l-10.28-11.28c-1.51-1.66-.62-4.34,1.59-4.76l14.11-2.64c2.44-.46,4.53-2.03,5.64-4.25l6.52-12.95c.53-1.05,1.54-1.58,2.56-1.58M48,0C40.52,0,33.78,4.15,30.41,10.83l-4.55,9.03-9.79,1.84c-7.01,1.31-12.78,6.34-15.05,13.1-2.27,6.77-.69,14.26,4.12,19.53l7.51,8.24-1.47,11.14c-.74,5.63.97,11.3,4.71,15.56,3.75,4.27,9.15,6.72,14.81,6.72,3.11,0,6.23-.76,9.01-2.19l8.28-4.26,8.28,4.26c2.78,1.43,5.9,2.19,9.01,2.19,5.67,0,11.07-2.45,14.81-6.72,3.73-4.26,5.45-9.93,4.71-15.56l-1.47-11.14,7.51-8.24c4.81-5.28,6.39-12.76,4.12-19.53-2.27-6.77-8.03-11.79-15.04-13.1l-9.8-1.84-4.55-9.03C62.22,4.15,55.48,0,48,0h0Z"/>
</svg>