<?xml version="1.0" encoding="UTF-8"?>
<svg id="Layer_1" xmlns="http://www.w3.org/2000/svg" version="1.1" viewBox="0 0 26 26">
  <!-- Generator: Adobe Illustrator 30.1.0, SVG Export Plug-In . SVG Version: 2.1.1 Build 136)  -->
  <circle id="Outer" cx="13" cy="13" r="11.18" fill="none" stroke="#000" stroke-width="3.64"/>
  <g>
    <g>
      <rect x="12.18" y="16.77" width="1.63" height="1.63"/>
      <path d="M13.53,17.06v1.06h-1.06v-1.06h1.06M14.09,16.49h-2.2v2.2h2.2v-2.2h0Z"/>
    </g>
    <g>
      <path d="M12.18,15.07v-.68c0-.58.21-1.13.6-1.55l1.05-1.17c.24-.27.38-.61.38-.97,0-.47-.39-.86-.87-.86h-.68c-.48,0-.86.38-.86.86v.28h-1.64v-.28c0-1.37,1.12-2.49,2.51-2.49h.68c1.38,0,2.51,1.12,2.51,2.49,0,.76-.28,1.5-.8,2.06l-1.05,1.17c-.12.13-.18.29-.18.46v.69h-1.64Z"/>
      <path d="M13.34,8.48c1.23,0,2.22.99,2.22,2.21,0,.69-.26,1.36-.72,1.87l-1.05,1.17c-.16.18-.25.41-.25.65v.4h-1.07v-.4c0-.5.18-.99.52-1.36l1.05-1.17c.29-.32.45-.73.45-1.16,0-.63-.52-1.14-1.15-1.14h-.68c-.63,0-1.15.51-1.15,1.14h-1.07c0-1.22,1-2.21,2.22-2.21h.68M13.34,7.92h-.68c-1.54,0-2.79,1.25-2.79,2.78v.57h2.21v-.57c0-.32.26-.57.58-.57h.68c.32,0,.58.26.58.57,0,.29-.11.57-.3.78l-1.05,1.17c-.43.48-.67,1.1-.67,1.74v.41s0,.56,0,.56h2.19v-.56s0-.4,0-.4c0-.1.04-.19.11-.27l1.06-1.17c.56-.62.87-1.42.87-2.25,0-1.53-1.25-2.78-2.79-2.78h0Z"/>
    </g>
  </g>
</svg>