<?xml version="1.0" encoding="UTF-8"?>
<svg id="Layer_1" xmlns="http://www.w3.org/2000/svg" version="1.1" viewBox="0 0 26 26">
  <!-- Generator: Adobe Illustrator 30.1.0, SVG Export Plug-In . SVG Version: 2.1.1 Build 136)  -->
  <circle id="Outer" cx="13" cy="13" r="11.64" fill="none" stroke="#000" stroke-width="2.72"/>
  <g>
    <g>
      <rect x="12.18" y="17.12" width="1.63" height="1.63"/>
      <path d="M13.6,17.32v1.22h-1.22v-1.22h1.22M14.01,16.92h-2.03v2.03h2.03v-2.03h0Z"/>
    </g>
    <g>
      <path d="M12.18,15.35v-.66c0-.63.23-1.23.65-1.7l1.21-1.34c.3-.33.46-.75.46-1.2,0-.61-.5-1.11-1.11-1.11h-.78c-.61,0-1.11.5-1.11,1.11v.2h-1.64v-.2c0-1.51,1.23-2.73,2.75-2.73h.78c1.52,0,2.75,1.23,2.75,2.73,0,.84-.31,1.65-.88,2.28l-1.21,1.34c-.16.17-.24.38-.24.61v.66h-1.63Z"/>
      <path d="M13.39,7.92c1.41,0,2.55,1.14,2.55,2.53,0,.79-.29,1.56-.83,2.15l-1.21,1.34c-.19.21-.29.46-.29.74v.46h-1.23v-.46c0-.58.21-1.13.6-1.56l1.21-1.34c.33-.37.51-.84.51-1.33,0-.72-.59-1.31-1.32-1.31h-.78c-.73,0-1.32.59-1.32,1.31h-1.23c0-1.4,1.14-2.53,2.55-2.53h.78M13.39,7.51h-.78c-1.63,0-2.96,1.32-2.96,2.94v.41h2.04v-.41c0-.5.41-.9.91-.9h.78c.5,0,.91.4.91.9,0,.39-.15.77-.41,1.06l-1.21,1.34c-.45.5-.71,1.15-.71,1.83v.47s0,.4,0,.4h2.03v-.4s0-.46,0-.46c0-.18.07-.34.19-.48l1.21-1.34c.6-.67.93-1.53.93-2.42,0-1.62-1.33-2.94-2.96-2.94h0Z"/>
    </g>
  </g>
</svg>