<?xml version="1.0" encoding="UTF-8"?>
<svg id="Layer_1" xmlns="http://www.w3.org/2000/svg" version="1.1" viewBox="0 0 126 126">
  <!-- Generator: Adobe Illustrator 30.1.0, SVG Export Plug-In . SVG Version: 2.1.1 Build 136)  -->
  <path d="M63,13.19c1.62,0,3.24.84,4.09,2.52l10.42,20.69c1.79,3.55,5.12,6.06,9.02,6.79l22.54,4.23c3.52.66,4.95,4.94,2.54,7.6l-16.43,18.02c-2.53,2.78-3.71,6.54-3.22,10.28l3.21,24.3c.38,2.9-1.93,5.2-4.53,5.2-.69,0-1.4-.16-2.09-.52l-19.72-10.16c-1.83-.94-3.83-1.41-5.82-1.41s-4,.47-5.82,1.41l-19.72,10.16c-.69.35-1.4.52-2.09.52-2.61,0-4.92-2.3-4.53-5.2l3.21-24.31c.49-3.73-.69-7.49-3.22-10.26l-16.43-18.03c-2.42-2.66-.99-6.94,2.54-7.6l22.54-4.23c3.9-.73,7.23-3.24,9.02-6.79l10.42-20.69c.85-1.68,2.47-2.52,4.09-2.52M63,0C56.25,0,50.17,3.75,47.13,9.78l-10.32,20.49-22.31,4.18c-6.33,1.19-11.53,5.72-13.57,11.82-2.05,6.11-.62,12.87,3.72,17.63l16.29,17.87-3.18,24.11c-.67,5.08.88,10.2,4.24,14.04,3.39,3.86,8.26,6.08,13.37,6.08,2.8,0,5.62-.68,8.13-1.98l19.5-10.04,19.5,10.04c2.51,1.3,5.33,1.98,8.13,1.98,5.11,0,9.98-2.21,13.37-6.08,3.37-3.84,4.91-8.95,4.24-14.04l-3.18-24.11,16.29-17.88c4.34-4.76,5.76-11.52,3.72-17.63-2.05-6.11-7.25-10.64-13.57-11.82l-22.32-4.18-10.32-20.49C75.83,3.75,69.75,0,63,0h0Z"/>
</svg>