<?xml version="1.0" encoding="UTF-8"?>
<svg id="Layer_1" xmlns="http://www.w3.org/2000/svg" version="1.1" viewBox="0 0 126 126">
  <!-- Generator: Adobe Illustrator 30.1.0, SVG Export Plug-In . SVG Version: 2.1.1 Build 136)  -->
  <path d="M63,22.09c1.33,0,2.66.69,3.36,2.07l8.56,16.99c1.47,2.92,4.21,4.98,7.41,5.58l18.52,3.47c2.89.54,4.07,4.06,2.08,6.24l-13.49,14.8c-2.08,2.28-3.05,5.37-2.65,8.44l2.63,19.96c.31,2.38-1.58,4.27-3.72,4.27-.57,0-1.15-.13-1.72-.42l-16.2-8.34c-1.5-.77-3.14-1.16-4.78-1.16s-3.28.39-4.78,1.16l-16.2,8.34c-.57.29-1.15.42-1.72.42-2.14,0-4.04-1.89-3.72-4.27l2.63-19.97c.4-3.06-.56-6.15-2.64-8.43l-13.49-14.8c-1.99-2.18-.81-5.7,2.08-6.25l18.51-3.47c3.2-.6,5.94-2.66,7.41-5.58l8.56-16.99c.7-1.38,2.03-2.07,3.36-2.07M63,0C53.18,0,44.34,5.45,39.92,14.22l-5.97,11.86-12.85,2.41c-9.21,1.73-16.77,8.32-19.75,17.2-2.98,8.89-.91,18.71,5.41,25.64l9.86,10.81-1.93,14.62c-.97,7.39,1.28,14.83,6.18,20.42,4.92,5.61,12,8.83,19.44,8.83,4.09,0,8.18-.99,11.83-2.87l10.87-5.6,10.87,5.6c3.65,1.88,7.74,2.87,11.83,2.87,7.44,0,14.53-3.22,19.44-8.83,4.9-5.59,7.15-13.03,6.18-20.42l-1.93-14.62,9.86-10.82c6.31-6.93,8.38-16.75,5.41-25.63-2.98-8.88-10.54-15.47-19.75-17.2l-12.86-2.41-5.97-11.86C81.66,5.45,72.82,0,63,0h0Z"/>
</svg>