<?xml version="1.0" encoding="UTF-8"?>
<svg id="Layer_1" xmlns="http://www.w3.org/2000/svg" version="1.1" viewBox="0 0 36 36">
  <!-- Generator: Adobe Illustrator 30.1.0, SVG Export Plug-In . SVG Version: 2.1.1 Build 136)  -->
  <path d="M18,3.77c.46,0,.93.24,1.17.72l2.98,5.91c.51,1.01,1.46,1.73,2.58,1.94l6.44,1.21c1.01.19,1.42,1.41.72,2.17l-4.69,5.15c-.72.79-1.06,1.87-.92,2.94l.92,6.94c.11.83-.55,1.48-1.3,1.48-.2,0-.4-.05-.6-.15l-5.63-2.9c-.52-.27-1.09-.4-1.66-.4-.57,0-1.14.13-1.66.4l-5.63,2.9c-.2.1-.4.15-.6.15-.74,0-1.4-.66-1.3-1.48l.92-6.95c.14-1.07-.2-2.14-.92-2.93l-4.69-5.15c-.69-.76-.28-1.98.73-2.17l6.44-1.21c1.11-.21,2.07-.93,2.58-1.94l2.98-5.91c.24-.48.7-.72,1.17-.72M18,0C16.07,0,14.33,1.07,13.47,2.79l-2.95,5.85-6.37,1.19c-1.81.34-3.29,1.63-3.88,3.38-.58,1.75-.18,3.68,1.06,5.04l4.65,5.11-.91,6.89c-.19,1.45.25,2.91,1.21,4.01.97,1.1,2.36,1.74,3.82,1.74.8,0,1.6-.2,2.32-.57l5.57-2.87,5.57,2.87c.72.37,1.52.57,2.32.57,1.46,0,2.85-.63,3.82-1.74.96-1.1,1.4-2.56,1.21-4.01l-.91-6.89,4.66-5.11c1.24-1.36,1.65-3.29,1.06-5.04-.58-1.74-2.07-3.04-3.88-3.38l-6.38-1.2-2.95-5.85C21.66,1.07,19.93,0,18,0h0Z"/>
</svg>