<?xml version="1.0" encoding="UTF-8"?>
<svg id="Layer_1" xmlns="http://www.w3.org/2000/svg" version="1.1" viewBox="0 0 36 36">
  <!-- Generator: Adobe Illustrator 30.1.0, SVG Export Plug-In . SVG Version: 2.1.1 Build 136)  -->
  <path d="M18,6.31c.38,0,.76.2.96.59l2.45,4.85c.42.83,1.2,1.42,2.12,1.59l5.29.99c.83.16,1.16,1.16.6,1.78l-3.85,4.23c-.59.65-.87,1.54-.76,2.41l.75,5.7c.09.68-.45,1.22-1.06,1.22-.16,0-.33-.04-.49-.12l-4.63-2.38c-.43-.22-.9-.33-1.37-.33s-.94.11-1.37.33l-4.63,2.38c-.16.08-.33.12-.49.12-.61,0-1.15-.54-1.06-1.22l.75-5.7c.12-.88-.16-1.76-.75-2.41l-3.85-4.23c-.57-.62-.23-1.63.6-1.78l5.29-.99c.91-.17,1.7-.76,2.12-1.59l2.45-4.85c.2-.39.58-.59.96-.59M18,0C15.19,0,12.67,1.56,11.4,4.06l-1.71,3.39-3.67.69c-2.63.49-4.79,2.38-5.64,4.91-.85,2.54-.26,5.35,1.54,7.32l2.82,3.09-.55,4.18c-.28,2.11.37,4.24,1.77,5.83,1.41,1.6,3.43,2.52,5.56,2.52,1.17,0,2.34-.28,3.38-.82l3.1-1.6,3.1,1.6c1.04.54,2.21.82,3.38.82,2.13,0,4.15-.92,5.56-2.52,1.4-1.6,2.04-3.72,1.77-5.83l-.55-4.18,2.82-3.09c1.8-1.98,2.4-4.79,1.54-7.32-.85-2.54-3.01-4.42-5.64-4.91l-3.67-.69-1.71-3.39C23.33,1.56,20.81,0,18,0h0Z"/>
</svg>