<?xml version="1.0" encoding="UTF-8"?>
<svg id="Layer_1" xmlns="http://www.w3.org/2000/svg" version="1.1" viewBox="0 0 32 32">
  <!-- Generator: Adobe Illustrator 30.1.0, SVG Export Plug-In . SVG Version: 2.1.1 Build 136)  -->
  <path d="M16,4.48c.37,0,.75.19.94.58l2.41,4.78c.41.82,1.19,1.4,2.09,1.57l5.21.98c.82.15,1.15,1.14.59,1.76l-3.8,4.17c-.59.64-.86,1.51-.74,2.38l.74,5.62c.09.67-.45,1.2-1.05,1.2-.16,0-.32-.04-.48-.12l-4.56-2.35c-.42-.22-.88-.33-1.35-.33s-.92.11-1.35.33l-4.56,2.35c-.16.08-.32.12-.48.12-.6,0-1.14-.53-1.05-1.2l.74-5.62c.11-.86-.16-1.73-.74-2.37l-3.8-4.17c-.56-.61-.23-1.61.59-1.76l5.21-.98c.9-.17,1.67-.75,2.09-1.57l2.41-4.78c.2-.39.57-.58.94-.58M16,0c-2.1,0-4,1.17-4.95,3.05l-2.07,4.11-4.47.84c-1.97.37-3.59,1.78-4.23,3.69-.64,1.9-.19,4.01,1.16,5.49l3.32,3.64-.65,4.92c-.21,1.58.27,3.18,1.32,4.38,1.05,1.2,2.57,1.89,4.17,1.89.88,0,1.75-.21,2.53-.62l3.86-1.99,3.86,1.99c.78.4,1.66.62,2.53.62,1.59,0,3.11-.69,4.17-1.89,1.05-1.2,1.53-2.79,1.32-4.38l-.65-4.92,3.32-3.64c1.35-1.48,1.8-3.59,1.16-5.49-.64-1.9-2.26-3.32-4.23-3.69l-4.47-.84-2.07-4.11c-.95-1.88-2.84-3.05-4.95-3.05h0Z"/>
</svg>