<?xml version="1.0" encoding="UTF-8"?>
<svg id="Layer_1" xmlns="http://www.w3.org/2000/svg" version="1.1" viewBox="0 0 32 32">
  <!-- Generator: Adobe Illustrator 30.1.0, SVG Export Plug-In . SVG Version: 2.1.1 Build 136)  -->
  <path d="M16,3.35c.41,0,.82.21,1.04.64l2.65,5.25c.45.9,1.3,1.54,2.29,1.72l5.73,1.07c.9.17,1.26,1.26.64,1.93l-4.17,4.58c-.64.71-.94,1.66-.82,2.61l.81,6.17c.1.74-.49,1.32-1.15,1.32-.18,0-.36-.04-.53-.13l-5.01-2.58c-.46-.24-.97-.36-1.48-.36-.51,0-1.01.12-1.48.36l-5.01,2.58c-.17.09-.36.13-.53.13-.66,0-1.25-.58-1.15-1.32l.81-6.17c.12-.95-.17-1.9-.82-2.61l-4.17-4.58c-.61-.67-.25-1.76.64-1.93l5.72-1.07c.99-.19,1.84-.82,2.29-1.72l2.65-5.25c.21-.43.63-.64,1.04-.64M16,0C14.29,0,12.74.95,11.97,2.48l-2.62,5.2-5.67,1.06c-1.61.3-2.93,1.45-3.45,3-.52,1.55-.16,3.27.94,4.48l4.14,4.54-.81,6.12c-.17,1.29.22,2.59,1.08,3.56.86.98,2.1,1.54,3.4,1.54.71,0,1.43-.17,2.06-.5l4.95-2.55,4.95,2.55c.64.33,1.35.5,2.06.5,1.3,0,2.54-.56,3.4-1.54.85-.98,1.25-2.27,1.08-3.56l-.81-6.12,4.14-4.54c1.1-1.21,1.46-2.92.94-4.48-.52-1.55-1.84-2.7-3.45-3l-5.67-1.06-2.62-5.2C19.26.95,17.71,0,16,0h0Z"/>
</svg>