<?xml version="1.0" encoding="UTF-8"?>
<svg id="Layer_1" xmlns="http://www.w3.org/2000/svg" version="1.1" viewBox="0 0 122 122">
  <!-- Generator: Adobe Illustrator 30.1.0, SVG Export Plug-In . SVG Version: 2.1.1 Build 136)  -->
  <path d="M61,12.77c1.57,0,3.14.81,3.96,2.44l10.09,20.03c1.73,3.44,4.96,5.87,8.74,6.58l21.83,4.09c3.41.64,4.8,4.79,2.46,7.36l-15.9,17.45c-2.45,2.69-3.6,6.33-3.12,9.95l3.1,23.53c.37,2.81-1.87,5.03-4.39,5.03-.67,0-1.36-.16-2.02-.5l-19.09-9.83c-1.77-.91-3.7-1.37-5.64-1.37-1.94,0-3.87.46-5.64,1.37l-19.09,9.83c-.67.34-1.36.5-2.02.5-2.52,0-4.76-2.22-4.39-5.03l3.1-23.54c.48-3.61-.66-7.25-3.11-9.94l-15.9-17.45c-2.34-2.57-.96-6.72,2.46-7.36l21.83-4.09c3.77-.71,7-3.14,8.73-6.57l10.09-20.03c.82-1.63,2.39-2.44,3.96-2.44M61,0C54.46,0,48.58,3.63,45.64,9.47l-9.99,19.84-21.6,4.05c-6.13,1.15-11.16,5.54-13.14,11.45-1.98,5.92-.6,12.46,3.6,17.07l15.77,17.31-3.08,23.35c-.65,4.92.85,9.87,4.11,13.59,3.28,3.74,8,5.88,12.95,5.88,2.72,0,5.44-.66,7.87-1.92l18.88-9.73,18.88,9.73c2.43,1.25,5.16,1.92,7.87,1.92,4.95,0,9.67-2.14,12.95-5.88,3.26-3.72,4.76-8.67,4.11-13.59l-3.08-23.35,15.78-17.31c4.2-4.61,5.58-11.15,3.6-17.07-1.98-5.91-7.02-10.3-13.14-11.45l-21.61-4.05-9.99-19.84C73.42,3.63,67.53,0,61,0h0Z"/>
</svg>