<?xml version="1.0" encoding="UTF-8"?>
<svg id="Layer_1" xmlns="http://www.w3.org/2000/svg" version="1.1" viewBox="0 0 122 122">
  <!-- Generator: Adobe Illustrator 30.1.0, SVG Export Plug-In . SVG Version: 2.1.1 Build 136)  -->
  <path d="M61,17.08c1.43,0,2.86.74,3.6,2.22l9.19,18.24c1.58,3.13,4.52,5.34,7.96,5.99l19.88,3.73c3.11.58,4.37,4.36,2.24,6.7l-14.48,15.89c-2.23,2.45-3.27,5.77-2.84,9.06l2.83,21.43c.34,2.56-1.7,4.58-4,4.58-.61,0-1.24-.14-1.84-.45l-17.39-8.95c-1.61-.83-3.37-1.25-5.14-1.25-1.76,0-3.52.41-5.14,1.25l-17.39,8.95c-.61.31-1.23.45-1.84.45-2.3,0-4.34-2.02-4-4.58l2.83-21.44c.43-3.29-.6-6.6-2.84-9.05l-14.48-15.89c-2.13-2.34-.87-6.12,2.24-6.7l19.88-3.73c3.44-.64,6.38-2.86,7.95-5.99l9.19-18.24c.75-1.48,2.17-2.22,3.6-2.22M61,0C52.98,0,45.75,4.45,42.14,11.62l-7.89,15.66-17.02,3.19c-7.52,1.41-13.7,6.79-16.13,14.05-2.43,7.26-.74,15.29,4.42,20.95l12.66,13.89-2.47,18.75c-.8,6.04,1.04,12.12,5.05,16.68,4.02,4.58,9.81,7.21,15.89,7.21,3.34,0,6.68-.81,9.66-2.35l14.7-7.57,14.7,7.57c2.99,1.54,6.33,2.35,9.66,2.35,6.08,0,11.87-2.63,15.89-7.21,4-4.57,5.84-10.64,5.05-16.68l-2.47-18.75,12.66-13.89c5.16-5.66,6.85-13.68,4.42-20.94-2.43-7.26-8.61-12.64-16.13-14.05l-17.03-3.19-7.89-15.66C76.24,4.45,69.02,0,61,0h0Z"/>
</svg>