<?xml version="1.0" encoding="UTF-8"?>
<svg id="Layer_1" xmlns="http://www.w3.org/2000/svg" version="1.1" viewBox="0 0 116 116">
  <!-- Generator: Adobe Illustrator 30.1.0, SVG Export Plug-In . SVG Version: 2.1.1 Build 136)  -->
  <circle id="Outer" cx="58" cy="58" r="47.83" fill="none" stroke="#000" stroke-width="20.34"/>
  <g>
    <g>
      <rect x="54.3" y="73.25" width="7.35" height="7.35"/>
      <path d="M60.01,74.89v4.09h-4.09v-4.09h4.09M63.28,71.62h-10.61v10.61h10.61v-10.61h0Z"/>
    </g>
    <g>
      <path d="M54.32,66.09l-.03-3.16c0-2.36.88-4.6,2.45-6.33l4.05-4.48c.84-.93,1.3-2.12,1.3-3.36,0-1.52-1.25-2.75-2.78-2.75h-2.6c-1.53,0-2.78,1.23-2.78,2.75v1.63h-7.38v-1.63c0-5.57,4.56-10.1,10.16-10.1h2.6c5.6,0,10.16,4.53,10.16,10.1,0,3.06-1.13,6-3.19,8.28l-4.05,4.48c-.37.41-.55.88-.56,1.4l-.03,3.17h-7.32Z"/>
      <path d="M59.3,40.28c4.71,0,8.53,3.8,8.53,8.47,0,2.66-.98,5.21-2.77,7.19l-4.05,4.49c-.63.69-.97,1.56-.98,2.49l-.02,1.55h-4.09v-1.55c0-1.94.71-3.78,2.01-5.22l4.05-4.48c1.11-1.23,1.72-2.81,1.72-4.46,0-2.41-1.98-4.38-4.41-4.38h-2.6c-2.43,0-4.41,1.96-4.41,4.38h-4.12c0-4.67,3.83-8.47,8.53-8.47h2.6M59.3,37.02h-2.6c-6.5,0-11.8,5.26-11.8,11.74v3.26h10.65v-3.26c0-.62.51-1.12,1.15-1.12h2.6c.63,0,1.15.5,1.15,1.12,0,.84-.31,1.64-.88,2.27l-4.05,4.48c-1.84,2.03-2.85,4.66-2.86,7.4v1.59s.04,3.23.04,3.23h10.55l.03-3.23.02-1.55c0-.11.02-.2.14-.33l4.05-4.49c2.33-2.58,3.61-5.91,3.61-9.38,0-6.47-5.29-11.74-11.8-11.74h0Z"/>
    </g>
  </g>
</svg>