<?xml version="1.0" encoding="UTF-8"?>
<svg id="Layer_1" xmlns="http://www.w3.org/2000/svg" version="1.1" viewBox="0 0 116 116">
  <!-- Generator: Adobe Illustrator 30.1.0, SVG Export Plug-In . SVG Version: 2.1.1 Build 136)  -->
  <circle id="Outer" cx="58" cy="58" r="51.93" fill="none" stroke="#000" stroke-width="12.14"/>
  <g>
    <g>
      <rect x="54.34" y="76.38" width="7.26" height="7.26"/>
      <path d="M60.69,77.28v5.45h-5.45v-5.45h5.45M62.5,75.47h-9.07v9.07h9.07v-9.07h0Z"/>
    </g>
    <g>
      <path d="M54.35,68.48l-.03-2.96c.01-2.81,1.05-5.5,2.93-7.58l5.4-5.98c1.33-1.47,2.06-3.36,2.06-5.33,0-2.72-2.23-4.93-4.97-4.93h-3.47c-2.74,0-4.97,2.21-4.97,4.93v.91h-7.31v-.91c0-6.73,5.51-12.2,12.28-12.2h3.47c6.77,0,12.28,5.47,12.28,12.2,0,3.77-1.39,7.39-3.93,10.19l-5.4,5.98c-.7.77-1.07,1.71-1.07,2.71l-.03,2.96h-7.24Z"/>
      <path d="M59.73,35.34c6.27,0,11.38,5.07,11.38,11.3,0,3.54-1.31,6.95-3.69,9.59l-5.4,5.98c-.84.92-1.3,2.07-1.3,3.32l-.02,2.06h-5.45l-.02-2.06c0-2.58.96-5.04,2.7-6.96l5.4-5.98c1.48-1.64,2.29-3.75,2.29-5.94,0-3.22-2.64-5.84-5.88-5.84h-3.47c-3.24,0-5.88,2.62-5.88,5.84h-5.5c0-6.23,5.1-11.3,11.38-11.3h3.47M59.73,33.52h-3.47c-7.27,0-13.19,5.88-13.19,13.11v1.81h9.12v-1.81c0-2.22,1.82-4.03,4.07-4.03h3.47c2.24,0,4.07,1.81,4.07,4.03,0,1.75-.65,3.43-1.82,4.73l-5.4,5.98c-2.03,2.24-3.15,5.15-3.17,8.17l.02,2.08.02,1.8h9.04l.02-1.79.02-2.06c0-.79.29-1.52.83-2.12l5.4-5.98c2.68-2.97,4.16-6.81,4.16-10.8,0-7.23-5.92-13.11-13.19-13.11h0Z"/>
    </g>
  </g>
</svg>