<?xml version="1.0" encoding="UTF-8"?>
<svg id="Layer_1" xmlns="http://www.w3.org/2000/svg" version="1.1" viewBox="0 0 74 74">
  <!-- Generator: Adobe Illustrator 30.1.0, SVG Export Plug-In . SVG Version: 2.1.1 Build 136)  -->
  <circle id="Outer" cx="37" cy="37" r="31.82" fill="none" stroke="#000" stroke-width="10.36"/>
  <g>
    <g>
      <rect x="34.65" y="47.73" width="4.65" height="4.65"/>
      <path d="M38.49,48.54v3.03h-3.03v-3.03h3.03M40.11,46.92h-6.27v6.27h6.27v-6.27h0Z"/>
    </g>
    <g>
      <path d="M34.67,42.89l-.02-1.95c0-1.64.61-3.21,1.71-4.42l3-3.32c.69-.76,1.06-1.74,1.06-2.76,0-1.34-1.1-2.44-2.46-2.44h-1.93c-1.36,0-2.46,1.09-2.46,2.44v.81h-4.68v-.81c0-3.91,3.2-7.09,7.14-7.09h1.93c3.94,0,7.14,3.18,7.14,7.09,0,2.17-.8,4.26-2.26,5.87l-3,3.33c-.34.37-.51.82-.52,1.31l-.02,1.95h-4.63Z"/>
      <path d="M37.96,24.15c3.49,0,6.33,2.82,6.33,6.28,0,1.97-.73,3.86-2.05,5.33l-3,3.33c-.47.51-.72,1.15-.72,1.85v1.15h-3.04v-1.15c0-1.44.52-2.8,1.49-3.87l3-3.32c.82-.91,1.27-2.08,1.27-3.31,0-1.79-1.47-3.25-3.27-3.25h-1.93c-1.8,0-3.27,1.46-3.27,3.25h-3.06c0-3.46,2.84-6.28,6.33-6.28h1.93M37.96,22.53h-1.93c-4.38,0-7.95,3.54-7.95,7.9v1.62h6.29v-1.62c0-.9.74-1.63,1.65-1.63h1.93c.91,0,1.65.73,1.65,1.63,0,.82-.3,1.61-.86,2.22l-3,3.33c-1.23,1.36-1.91,3.12-1.92,4.95v1.17s.02,1.6.02,1.6h6.24l.02-1.6v-1.15c.01-.29.12-.55.32-.78l3-3.33c1.59-1.77,2.47-4.04,2.47-6.42,0-4.36-3.56-7.9-7.95-7.9h0Z"/>
    </g>
  </g>
</svg>