<?xml version="1.0" encoding="UTF-8"?>
<svg id="Layer_1" xmlns="http://www.w3.org/2000/svg" version="1.1" viewBox="0 0 32 32">
  <!-- Generator: Adobe Illustrator 30.1.0, SVG Export Plug-In . SVG Version: 2.1.1 Build 136)  -->
  <circle id="Outer" cx="16" cy="16" r="13.2" fill="none" stroke="#000" stroke-width="5.61"/>
  <g>
    <g>
      <rect x="14.98" y="20.21" width="2.03" height="2.03"/>
      <path d="M16.56,20.66v1.13h-1.13v-1.13h1.13M17.46,19.76h-2.93v2.93h2.93v-2.93h0Z"/>
    </g>
    <g>
      <path d="M14.98,18.23v-.87c0-.65.23-1.27.67-1.75l1.12-1.24c.23-.26.36-.58.36-.93,0-.42-.34-.76-.77-.76h-.72c-.42,0-.77.34-.77.76v.45h-2.04v-.45c0-1.54,1.26-2.79,2.8-2.79h.72c1.55,0,2.8,1.25,2.8,2.79,0,.84-.31,1.66-.88,2.29l-1.12,1.24c-.1.11-.15.24-.15.39v.88h-2.03Z"/>
      <path d="M16.36,11.11c1.3,0,2.35,1.05,2.35,2.34,0,.73-.27,1.44-.76,1.98l-1.12,1.24c-.17.19-.27.43-.27.69v.43h-1.13v-.43c0-.53.2-1.04.55-1.44l1.12-1.24c.31-.34.47-.78.47-1.23,0-.67-.55-1.21-1.22-1.21h-.72c-.67,0-1.22.54-1.22,1.21h-1.14c0-1.29,1.06-2.34,2.35-2.34h.72M16.36,10.21h-.72c-1.79,0-3.25,1.45-3.25,3.24v.9h2.94v-.9c0-.17.14-.31.32-.31h.72c.17,0,.32.14.32.31,0,.23-.09.45-.24.63l-1.12,1.24c-.51.56-.79,1.29-.79,2.04v.44s.01.89.01.89h2.91v-.89s.01-.43.01-.43c0-.03,0-.06.04-.09l1.12-1.24c.64-.71,1-1.63,1-2.59,0-1.79-1.46-3.24-3.25-3.24h0Z"/>
    </g>
  </g>
</svg>