<?xml version="1.0" encoding="UTF-8"?>
<svg id="Layer_1" xmlns="http://www.w3.org/2000/svg" version="1.1" viewBox="0 0 32 32">
  <!-- Generator: Adobe Illustrator 30.1.0, SVG Export Plug-In . SVG Version: 2.1.1 Build 136)  -->
  <circle id="Outer" cx="16" cy="16" r="13.76" fill="none" stroke="#000" stroke-width="4.48"/>
  <g>
    <g>
      <rect x="14.99" y="20.64" width="2.01" height="2.01"/>
      <path d="M16.65,20.99v1.31h-1.31v-1.31h1.31M17.35,20.29h-2.71v2.71h2.71v-2.71h0Z"/>
    </g>
    <g>
      <path d="M14.99,18.55v-.84c0-.71.26-1.39.73-1.91l1.3-1.44c.3-.33.46-.75.46-1.2,0-.58-.48-1.05-1.06-1.05h-.83c-.59,0-1.06.47-1.06,1.05v.35h-2.02v-.35c0-1.69,1.38-3.07,3.09-3.07h.83c1.7,0,3.09,1.38,3.09,3.07,0,.94-.35,1.84-.98,2.54l-1.3,1.44c-.15.16-.22.36-.22.56v.84h-2.01Z"/>
      <path d="M16.42,10.44c1.51,0,2.74,1.22,2.74,2.72,0,.85-.32,1.67-.89,2.31l-1.3,1.44c-.2.22-.31.5-.31.8v.5h-1.32v-.5c0-.62.23-1.21.64-1.68l1.3-1.44c.36-.39.55-.9.55-1.43,0-.77-.63-1.4-1.41-1.4h-.83c-.78,0-1.41.63-1.41,1.4h-1.32c0-1.5,1.23-2.72,2.74-2.72h.83M16.42,9.74h-.83c-1.89,0-3.44,1.53-3.44,3.42v.7h2.72v-.7c0-.39.32-.7.71-.7h.83c.39,0,.71.32.71.7,0,.35-.13.7-.37.96l-1.3,1.44c-.53.59-.83,1.35-.83,2.14v.5s.01.69.01.69h2.7v-.69s.01-.5.01-.5c0-.13.05-.24.13-.34l1.3-1.44c.69-.76,1.07-1.75,1.07-2.77,0-1.88-1.54-3.42-3.44-3.42h0Z"/>
    </g>
  </g>
</svg>