<?xml version="1.0" encoding="UTF-8"?>
<svg id="Layer_1" xmlns="http://www.w3.org/2000/svg" version="1.1" viewBox="0 0 112 112">
  <!-- Generator: Adobe Illustrator 30.1.0, SVG Export Plug-In . SVG Version: 2.1.1 Build 136)  -->
  <circle id="Outer" cx="56" cy="56" r="48.16" fill="none" stroke="#000" stroke-width="15.68"/>
  <g>
    <g>
      <rect x="52.45" y="72.24" width="7.04" height="7.04"/>
      <path d="M58.26,73.47v4.59h-4.59v-4.59h4.59M60.71,71.02h-9.49v9.49h9.49v-9.49h0Z"/>
    </g>
    <g>
      <path d="M52.47,64.92l-.03-2.95c0-2.49.93-4.86,2.59-6.7l4.54-5.03c1.04-1.15,1.61-2.64,1.61-4.18,0-2.04-1.67-3.69-3.73-3.69h-2.92c-2.05,0-3.73,1.66-3.73,3.69v1.23h-7.08v-1.23c0-5.92,4.85-10.74,10.8-10.74h2.92c5.96,0,10.8,4.82,10.8,10.74,0,3.29-1.22,6.44-3.42,8.89l-4.54,5.03c-.51.56-.78,1.25-.78,1.98l-.03,2.96h-7.01Z"/>
      <path d="M57.46,36.55c5.28,0,9.58,4.27,9.58,9.51,0,2.98-1.1,5.85-3.11,8.07l-4.54,5.03c-.7.78-1.09,1.75-1.1,2.79l-.02,1.73h-4.59l-.02-1.73c0-2.17.81-4.25,2.27-5.86l4.54-5.03c1.24-1.38,1.93-3.15,1.93-5,0-2.71-2.22-4.92-4.95-4.92h-2.92c-2.73,0-4.95,2.21-4.95,4.92h-4.63c0-5.24,4.3-9.51,9.58-9.51h2.92M57.46,34.1h-2.92c-6.63,0-12.03,5.37-12.03,11.96v2.45h9.53v-2.45c0-1.36,1.12-2.47,2.5-2.47h2.92c1.38,0,2.5,1.11,2.5,2.47,0,1.24-.46,2.43-1.3,3.36l-4.54,5.03c-1.86,2.06-2.89,4.72-2.9,7.5l.02,1.77.02,2.43h9.44l.02-2.43.02-1.73c0-.45.16-.84.46-1.18l4.55-5.04c2.41-2.67,3.74-6.12,3.74-9.71,0-6.59-5.4-11.96-12.03-11.96h0Z"/>
    </g>
  </g>
</svg>