<?xml version="1.0" encoding="UTF-8"?>
<svg id="Layer_1" xmlns="http://www.w3.org/2000/svg" version="1.1" viewBox="0 0 78 78">
  <!-- Generator: Adobe Illustrator 30.1.0, SVG Export Plug-In . SVG Version: 2.1.1 Build 136)  -->
  <path d="M39,10.92c.91,0,1.83.47,2.3,1.42l5.87,11.66c1.01,2,2.89,3.42,5.09,3.83l12.71,2.38c1.99.37,2.79,2.79,1.43,4.28l-9.26,10.16c-1.43,1.57-2.09,3.69-1.82,5.79l1.81,13.7c.22,1.63-1.09,2.93-2.56,2.93-.39,0-.79-.09-1.18-.29l-11.12-5.73c-1.03-.53-2.16-.8-3.28-.8-1.13,0-2.25.27-3.28.8l-11.12,5.73c-.39.2-.79.29-1.18.29-1.47,0-2.77-1.29-2.56-2.93l1.81-13.7c.28-2.1-.39-4.22-1.81-5.79l-9.26-10.16c-1.36-1.5-.56-3.91,1.43-4.29l12.71-2.38c2.2-.41,4.08-1.83,5.08-3.83l5.88-11.66c.48-.95,1.39-1.42,2.3-1.42M39,0c-5.13,0-9.75,2.85-12.06,7.43l-5.04,10.01-10.88,2.04c-4.81.9-8.76,4.34-10.31,8.98-1.56,4.64-.47,9.77,2.82,13.39l8.09,8.88-1.58,11.99c-.51,3.86.67,7.75,3.23,10.66,2.57,2.93,6.27,4.61,10.16,4.61,2.13,0,4.27-.52,6.18-1.5l9.4-4.84,9.4,4.84c1.91.98,4.05,1.5,6.18,1.5,3.88,0,7.59-1.68,10.16-4.61,2.56-2.92,3.73-6.81,3.23-10.66l-1.58-11.99,8.09-8.88c3.3-3.62,4.38-8.75,2.82-13.39-1.55-4.64-5.51-8.08-10.31-8.98l-10.89-2.04-5.04-10.01c-2.31-4.58-6.93-7.43-12.06-7.43h0Z"/>
</svg>