<?xml version="1.0" encoding="UTF-8"?>
<svg id="Layer_1" xmlns="http://www.w3.org/2000/svg" version="1.1" viewBox="0 0 78 78">
  <!-- Generator: Adobe Illustrator 30.1.0, SVG Export Plug-In . SVG Version: 2.1.1 Build 136)  -->
  <path d="M39,8.17c1,0,2.01.52,2.53,1.56l6.45,12.81c1.11,2.2,3.17,3.75,5.59,4.2l13.96,2.62c2.18.41,3.07,3.06,1.57,4.7l-10.17,11.16c-1.57,1.72-2.3,4.05-1.99,6.36l1.98,15.04c.24,1.79-1.19,3.22-2.81,3.22-.43,0-.87-.1-1.29-.32l-12.21-6.29c-1.13-.58-2.37-.87-3.61-.87-1.24,0-2.47.29-3.61.87l-12.21,6.29c-.43.22-.87.32-1.29.32-1.61,0-3.04-1.42-2.81-3.22l1.98-15.05c.3-2.31-.42-4.63-1.99-6.35l-10.17-11.16c-1.5-1.64-.61-4.3,1.57-4.71l13.95-2.62c2.41-.45,4.48-2.01,5.58-4.2l6.45-12.81c.52-1.04,1.53-1.56,2.53-1.56M39,0C34.82,0,31.06,2.32,29.18,6.05l-6.39,12.68-13.81,2.59c-3.92.73-7.14,3.54-8.4,7.32-1.27,3.78-.39,7.96,2.3,10.91l10.08,11.07-1.97,14.93c-.41,3.15.54,6.31,2.63,8.69,2.1,2.39,5.11,3.76,8.28,3.76,1.74,0,3.48-.42,5.03-1.23l12.07-6.22,12.07,6.22c1.56.8,3.3,1.23,5.03,1.23,3.16,0,6.18-1.37,8.28-3.76,2.08-2.38,3.04-5.54,2.63-8.69l-1.97-14.93,10.09-11.07c2.69-2.95,3.57-7.13,2.3-10.91-1.27-3.78-4.49-6.58-8.4-7.32l-13.82-2.59-6.39-12.68C46.94,2.32,43.18,0,39,0h0Z"/>
</svg>