<?xml version="1.0" encoding="UTF-8"?>
<svg id="Layer_1" xmlns="http://www.w3.org/2000/svg" version="1.1" viewBox="0 0 78 78">
  <!-- Generator: Adobe Illustrator 30.1.0, SVG Export Plug-In . SVG Version: 2.1.1 Build 136)  -->
  <path d="M39,13.67c.82,0,1.65.43,2.08,1.28l5.3,10.52c.91,1.8,2.61,3.08,4.59,3.45l11.46,2.15c1.79.34,2.52,2.51,1.29,3.86l-8.35,9.16c-1.29,1.41-1.89,3.33-1.64,5.22l1.63,12.36c.19,1.47-.98,2.64-2.31,2.64-.35,0-.71-.08-1.06-.26l-10.03-5.16c-.93-.48-1.95-.72-2.96-.72s-2.03.24-2.96.72l-10.03,5.16c-.35.18-.71.26-1.06.26-1.33,0-2.5-1.17-2.31-2.64l1.63-12.36c.25-1.9-.35-3.81-1.64-5.22l-8.35-9.16c-1.23-1.35-.5-3.53,1.29-3.87l11.46-2.15c1.98-.37,3.68-1.65,4.59-3.45l5.3-10.52c.43-.85,1.25-1.28,2.08-1.28M39,0C32.92,0,27.45,3.37,24.71,8.8l-3.7,7.34-7.96,1.49c-5.7,1.07-10.38,5.15-12.23,10.65-1.84,5.5-.56,11.58,3.35,15.87l6.1,6.69-1.19,9.05c-.6,4.57.79,9.18,3.83,12.64,3.04,3.47,7.43,5.46,12.04,5.46,2.53,0,5.06-.62,7.32-1.78l6.73-3.46,6.73,3.46c2.26,1.16,4.79,1.78,7.32,1.78,4.61,0,8.99-1.99,12.04-5.46,3.03-3.46,4.43-8.07,3.83-12.64l-1.19-9.05,6.1-6.7c3.91-4.29,5.19-10.37,3.35-15.87-1.84-5.5-6.53-9.58-12.22-10.65l-7.96-1.49-3.7-7.34C50.55,3.37,45.08,0,39,0h0Z"/>
</svg>