<?xml version="1.0" encoding="UTF-8"?>
<svg id="Layer_1" xmlns="http://www.w3.org/2000/svg" version="1.1" viewBox="0 0 42 42">
  <!-- Generator: Adobe Illustrator 30.1.0, SVG Export Plug-In . SVG Version: 2.1.1 Build 136)  -->
  <path d="M21,5.88c.49,0,.98.25,1.24.76l3.16,6.28c.54,1.08,1.56,1.84,2.74,2.06l6.84,1.28c1.07.2,1.5,1.5.77,2.31l-4.99,5.47c-.77.84-1.13,1.99-.98,3.12l.97,7.38c.12.88-.59,1.58-1.38,1.58-.21,0-.43-.05-.63-.16l-5.99-3.08c-.55-.29-1.16-.43-1.77-.43-.61,0-1.21.14-1.77.43l-5.99,3.08c-.21.11-.43.16-.63.16-.79,0-1.49-.7-1.38-1.58l.97-7.38c.15-1.13-.21-2.27-.98-3.12l-4.99-5.47c-.73-.81-.3-2.11.77-2.31l6.84-1.28c1.18-.22,2.2-.98,2.74-2.06l3.16-6.28c.26-.51.75-.76,1.24-.76M21,0C18.24,0,15.75,1.53,14.51,4l-2.72,5.39-5.86,1.1c-2.59.49-4.72,2.34-5.55,4.84-.84,2.5-.25,5.26,1.52,7.21l4.36,4.78-.85,6.46c-.27,2.08.36,4.17,1.74,5.74,1.38,1.58,3.38,2.48,5.47,2.48,1.15,0,2.3-.28,3.33-.81l5.06-2.61,5.06,2.61c1.03.53,2.18.81,3.33.81,2.09,0,4.09-.91,5.47-2.48,1.38-1.57,2.01-3.66,1.74-5.74l-.85-6.46,4.36-4.78c1.78-1.95,2.36-4.71,1.52-7.21-.84-2.5-2.96-4.35-5.55-4.84l-5.86-1.1-2.72-5.39C26.25,1.53,23.76,0,21,0h0Z"/>
</svg>