<?xml version="1.0" encoding="UTF-8"?>
<svg id="Layer_1" xmlns="http://www.w3.org/2000/svg" version="1.1" viewBox="0 0 48 48">
  <!-- Generator: Adobe Illustrator 30.1.0, SVG Export Plug-In . SVG Version: 2.1.1 Build 136)  -->
  <g>
    <g>
      <rect x="22.24" y="13.98" width="3.51" height="3.51"/>
      <path d="M25.08,14.66v2.16h-2.16v-2.16h2.16M26.43,13.31h-4.86v4.86h4.86v-4.86h0Z"/>
    </g>
    <g>
      <polygon points="20.08 33.61 20.08 30.1 22.24 30.1 22.24 24.69 20.08 24.69 20.08 21.18 25.76 21.18 25.76 30.1 27.92 30.1 27.92 33.61 20.08 33.61"/>
      <path d="M25.08,21.86v8.91h2.16v2.16h-6.49v-2.16h2.16v-6.75h-2.16v-2.16h4.33M26.43,20.51h-7.03v4.86h2.16v4.05h-2.16v4.86h9.19v-4.86h-2.16v-8.91h0Z"/>
    </g>
  </g>
  <circle id="Outer" cx="24" cy="24" r="19.79" fill="none" stroke="#000" stroke-width="8.41"/>
</svg>