<?xml version="1.0" encoding="UTF-8"?>
<svg id="Layer_1" xmlns="http://www.w3.org/2000/svg" version="1.1" viewBox="0 0 48 48">
  <!-- Generator: Adobe Illustrator 30.1.0, SVG Export Plug-In . SVG Version: 2.1.1 Build 136)  -->
  <g>
    <g>
      <rect x="22.27" y="13.38" width="3.46" height="3.46"/>
      <path d="M25.2,13.9v2.41h-2.41v-2.41h2.41M26.25,12.85h-4.51v4.51h4.51v-4.51h0Z"/>
    </g>
    <g>
      <polygon points="19.87 34.34 19.87 30.89 22.27 30.89 22.27 24.43 19.87 24.43 19.87 20.97 25.73 20.97 25.73 30.89 28.13 30.89 28.13 34.34 19.87 34.34"/>
      <path d="M25.2,21.5v9.92h2.41v2.41h-7.22v-2.41h2.41v-7.51h-2.41v-2.41h4.81M26.25,20.45h-6.91v4.51h2.41v5.41h-2.41v4.51h9.32v-4.51h-2.41v-9.92h0Z"/>
    </g>
  </g>
  <circle id="Outer" cx="24" cy="24" r="20.64" fill="none" stroke="#000" stroke-width="6.72"/>
</svg>