<?xml version="1.0" encoding="UTF-8"?>
<svg id="Layer_1" xmlns="http://www.w3.org/2000/svg" version="1.1" viewBox="0 0 128 128">
  <!-- Generator: Adobe Illustrator 30.1.0, SVG Export Plug-In . SVG Version: 2.1.1 Build 136)  -->
  <g>
    <g>
      <rect x="59.46" y="34.04" width="9.08" height="9.08"/>
      <path d="M67.54,35.04v7.08h-7.08v-7.08h7.08M69.54,33.04h-11.08v11.08h11.08v-11.08h0Z"/>
    </g>
    <g>
      <polygon points="52.39 93.57 52.39 84.5 59.46 84.5 59.46 64.4 52.39 64.4 52.39 55.33 68.54 55.33 68.54 84.5 75.62 84.5 75.62 93.57 52.39 93.57"/>
      <path d="M67.54,56.33v29.17h7.08v7.08h-21.23v-7.08h7.08v-22.09h-7.08v-7.08h14.15M69.54,54.33h-18.15v11.08h7.08v18.09h-7.08v11.08h25.23v-11.08h-7.08v-29.17h0Z"/>
    </g>
  </g>
  <circle id="Outer" cx="64" cy="64" r="57.3" fill="none" stroke="#000" stroke-width="13.4"/>
</svg>