<?xml version="1.0" encoding="UTF-8"?>
<svg id="Layer_1" xmlns="http://www.w3.org/2000/svg" version="1.1" viewBox="0 0 109 109">
  <!-- Generator: Adobe Illustrator 30.1.0, SVG Export Plug-In . SVG Version: 2.1.1 Build 136)  -->
  <circle id="Outer" cx="54.5" cy="54.5" r="48.79" fill="none" stroke="#000" stroke-width="11.41"/>
  <g>
    <g>
      <rect x="51.06" y="71.77" width="6.82" height="6.82"/>
      <path d="M57.03,72.62v5.12h-5.12v-5.12h5.12M58.73,70.92h-8.53v8.53h8.53v-8.53h0Z"/>
    </g>
    <g>
      <path d="M51.07,64.35l-.02-2.78c0-2.64.99-5.17,2.76-7.12l5.07-5.62c1.25-1.38,1.93-3.16,1.93-5.01,0-2.56-2.1-4.63-4.67-4.63h-3.26c-2.58,0-4.67,2.08-4.67,4.63v.85h-6.87v-.85c0-6.32,5.18-11.47,11.54-11.47h3.26c6.36,0,11.54,5.14,11.54,11.47,0,3.54-1.31,6.94-3.69,9.58l-5.07,5.62c-.65.72-1,1.61-1,2.55l-.03,2.78h-6.81Z"/>
      <path d="M56.13,33.2c5.89,0,10.69,4.76,10.69,10.61,0,3.33-1.23,6.53-3.47,9.01l-5.07,5.62c-.79.87-1.22,1.95-1.22,3.12l-.02,1.94h-5.12l-.02-1.94c0-2.43.9-4.74,2.54-6.54l5.07-5.62c1.39-1.54,2.15-3.52,2.15-5.58,0-3.02-2.48-5.49-5.52-5.49h-3.26c-3.05,0-5.52,2.46-5.52,5.49h-5.16c0-5.85,4.79-10.61,10.69-10.61h3.26M56.13,31.5h-3.26c-6.83,0-12.39,5.53-12.39,12.32v1.7h8.57v-1.7c0-2.09,1.71-3.78,3.82-3.78h3.26c2.11,0,3.82,1.7,3.82,3.78,0,1.64-.61,3.22-1.71,4.44l-5.07,5.62c-1.91,2.11-2.96,4.84-2.97,7.68l.02,1.96v1.69h8.51l.02-1.69.02-1.94c0-.74.27-1.43.78-1.99l5.07-5.62c2.52-2.79,3.91-6.4,3.91-10.15,0-6.79-5.56-12.32-12.39-12.32h0Z"/>
    </g>
  </g>
</svg>