<?xml version="1.0" encoding="UTF-8"?>
<svg id="Layer_1" xmlns="http://www.w3.org/2000/svg" version="1.1" viewBox="0 0 109 109">
  <!-- Generator: Adobe Illustrator 30.1.0, SVG Export Plug-In . SVG Version: 2.1.1 Build 136)  -->
  <circle id="Outer" cx="54.5" cy="54.5" r="46.87" fill="none" stroke="#000" stroke-width="15.26"/>
  <g>
    <g>
      <rect x="51.05" y="70.31" width="6.85" height="6.85"/>
      <path d="M56.7,71.5v4.46h-4.46v-4.46h4.46M59.09,69.12h-9.23v9.23h9.23v-9.23h0Z"/>
    </g>
    <g>
      <path d="M51.06,63.18l-.03-2.87c0-2.42.9-4.73,2.52-6.52l4.42-4.9c1.01-1.12,1.57-2.57,1.57-4.07,0-1.98-1.63-3.59-3.62-3.59h-2.84c-2,0-3.63,1.61-3.63,3.59v1.19h-6.89v-1.19c0-5.76,4.72-10.45,10.51-10.45h2.84c5.8,0,10.51,4.69,10.51,10.45,0,3.2-1.18,6.27-3.33,8.65l-4.42,4.9c-.5.55-.76,1.21-.76,1.92l-.03,2.88h-6.83Z"/>
      <path d="M55.92,35.57c5.14,0,9.32,4.15,9.32,9.26,0,2.9-1.08,5.69-3.03,7.85l-4.42,4.9c-.68.76-1.06,1.7-1.07,2.72l-.02,1.69h-4.46v-1.69c0-2.12.77-4.13,2.2-5.71l4.42-4.9c1.21-1.34,1.88-3.07,1.88-4.87,0-2.64-2.16-4.78-4.82-4.78h-2.84c-2.66,0-4.82,2.15-4.82,4.78h-4.5c0-5.1,4.18-9.26,9.32-9.26h2.84M55.92,33.19h-2.84c-6.45,0-11.71,5.22-11.71,11.64v2.38h9.27v-2.38c0-1.32,1.09-2.4,2.43-2.4h2.84c1.34,0,2.43,1.08,2.43,2.4,0,1.21-.45,2.37-1.26,3.27l-4.42,4.9c-1.81,2-2.82,4.59-2.83,7.29l.02,1.72.02,2.36h9.19l.02-2.36.02-1.69c0-.43.15-.81.45-1.14l4.42-4.9c2.35-2.6,3.64-5.96,3.64-9.45,0-6.42-5.25-11.64-11.71-11.64h0Z"/>
    </g>
  </g>
</svg>