<?xml version="1.0" encoding="UTF-8"?>
<svg id="Layer_1" xmlns="http://www.w3.org/2000/svg" version="1.1" viewBox="0 0 72 72">
  <!-- Generator: Adobe Illustrator 30.1.0, SVG Export Plug-In . SVG Version: 2.1.1 Build 136)  -->
  <g>
    <g>
      <rect x="33.37" y="20.98" width="5.27" height="5.27"/>
      <path d="M37.62,21.99v3.24h-3.24v-3.24h3.24M39.65,19.96h-7.29v7.29h7.29v-7.29h0Z"/>
    </g>
    <g>
      <polygon points="30.12 50.41 30.12 45.14 33.37 45.14 33.37 37.04 30.12 37.04 30.12 31.77 38.63 31.77 38.63 45.14 41.88 45.14 41.88 50.41 30.12 50.41"/>
      <path d="M37.62,32.79v13.37h3.24v3.24h-9.73v-3.24h3.24v-10.13h-3.24v-3.24h6.49M39.65,30.76h-10.54v7.29h3.24v6.08h-3.24v7.29h13.78v-7.29h-3.24v-13.37h0Z"/>
    </g>
  </g>
  <circle id="Outer" cx="36" cy="36" r="29.69" fill="none" stroke="#000" stroke-width="12.62"/>
</svg>