<?xml version="1.0" encoding="UTF-8"?>
<svg id="Layer_1" xmlns="http://www.w3.org/2000/svg" version="1.1" viewBox="0 0 65 65">
  <!-- Generator: Adobe Illustrator 30.1.0, SVG Export Plug-In . SVG Version: 2.1.1 Build 136)  -->
  <path d="M32.5,6.8c.84,0,1.67.43,2.11,1.3l5.38,10.67c.92,1.83,2.64,3.13,4.66,3.5l11.63,2.18c1.82.34,2.56,2.55,1.31,3.92l-8.47,9.3c-1.31,1.43-1.92,3.37-1.66,5.3l1.65,12.54c.2,1.5-.99,2.68-2.34,2.68-.36,0-.72-.08-1.08-.27l-10.17-5.24c-.94-.49-1.97-.73-3-.73s-2.06.24-3,.73l-10.17,5.24c-.35.18-.72.27-1.08.27-1.34,0-2.54-1.18-2.34-2.68l1.65-12.54c.25-1.92-.35-3.86-1.66-5.29l-8.47-9.3c-1.25-1.37-.51-3.58,1.31-3.92l11.63-2.18c2.01-.38,3.73-1.67,4.65-3.5l5.38-10.67c.44-.87,1.27-1.3,2.11-1.3M32.5,0C29.02,0,25.88,1.93,24.31,5.04l-5.32,10.57-11.51,2.16c-3.26.61-5.95,2.95-7,6.1-1.06,3.15-.32,6.64,1.92,9.09l8.4,9.22-1.64,12.44c-.35,2.62.45,5.26,2.19,7.24,1.75,1.99,4.26,3.13,6.9,3.13,1.45,0,2.9-.35,4.19-1.02l10.06-5.18,10.06,5.18c1.3.67,2.75,1.02,4.19,1.02,2.64,0,5.15-1.14,6.9-3.13,1.74-1.98,2.53-4.62,2.19-7.24l-1.64-12.44,8.41-9.22c2.24-2.46,2.97-5.94,1.92-9.09-1.06-3.15-3.74-5.49-7-6.1l-11.51-2.16-5.32-10.57C39.12,1.93,35.98,0,32.5,0h0Z"/>
</svg>