<?xml version="1.0" encoding="UTF-8"?>
<svg id="Layer_1" xmlns="http://www.w3.org/2000/svg" version="1.1" viewBox="0 0 65 65">
  <!-- Generator: Adobe Illustrator 30.1.0, SVG Export Plug-In . SVG Version: 2.1.1 Build 136)  -->
  <path d="M32.5,9.1c.76,0,1.52.39,1.92,1.18l4.9,9.72c.84,1.67,2.41,2.85,4.24,3.19l10.59,1.99c1.66.31,2.33,2.32,1.19,3.57l-7.72,8.47c-1.19,1.31-1.74,3.07-1.51,4.83l1.51,11.42c.18,1.36-.91,2.44-2.13,2.44-.32,0-.66-.08-.98-.24l-9.26-4.77c-.86-.44-1.8-.66-2.74-.66s-1.88.22-2.74.66l-9.26,4.77c-.32.17-.66.24-.98.24-1.22,0-2.31-1.08-2.13-2.44l1.51-11.42c.23-1.75-.32-3.52-1.51-4.82l-7.72-8.47c-1.14-1.25-.46-3.26,1.19-3.57l10.59-1.99c1.83-.34,3.4-1.52,4.24-3.19l4.9-9.72c.4-.79,1.16-1.18,1.92-1.18M32.5,0c-4.27,0-8.12,2.37-10.05,6.19l-4.2,8.34-9.07,1.7c-4.01.75-7.3,3.62-8.6,7.49-1.3,3.87-.39,8.14,2.35,11.16l6.74,7.4-1.32,9.99c-.42,3.22.56,6.45,2.69,8.89,2.14,2.44,5.23,3.84,8.46,3.84,1.78,0,3.56-.43,5.15-1.25l7.83-4.03,7.83,4.03c1.59.82,3.37,1.25,5.15,1.25,3.24,0,6.32-1.4,8.46-3.84,2.13-2.43,3.11-5.67,2.69-8.89l-1.32-9.99,6.75-7.4c2.75-3.01,3.65-7.29,2.35-11.16-1.3-3.87-4.59-6.73-8.59-7.49l-9.07-1.7-4.2-8.34c-1.92-3.82-5.77-6.19-10.05-6.19h0Z"/>
</svg>