<?xml version="1.0" encoding="UTF-8"?>
<svg id="Layer_1" xmlns="http://www.w3.org/2000/svg" version="1.1" viewBox="0 0 50 50">
  <!-- Generator: Adobe Illustrator 30.1.0, SVG Export Plug-In . SVG Version: 2.1.1 Build 136)  -->
  <g>
    <g>
      <rect x="23.17" y="14.57" width="3.66" height="3.66"/>
      <path d="M26.13,15.27v2.25h-2.25v-2.25h2.25M27.53,13.86h-5.07v5.07h5.07v-5.07h0Z"/>
    </g>
    <g>
      <polygon points="20.92 35.01 20.92 31.35 23.17 31.35 23.17 25.72 20.92 25.72 20.92 22.06 26.83 22.06 26.83 31.35 29.08 31.35 29.08 35.01 20.92 35.01"/>
      <path d="M26.13,22.77v9.29h2.25v2.25h-6.76v-2.25h2.25v-7.03h-2.25v-2.25h4.51M27.53,21.36h-7.32v5.07h2.25v4.22h-2.25v5.07h9.57v-5.07h-2.25v-9.29h0Z"/>
    </g>
  </g>
  <circle id="Outer" cx="25" cy="25" r="20.62" fill="none" stroke="#000" stroke-width="8.77"/>
</svg>