<?xml version="1.0" encoding="UTF-8"?>
<svg id="Layer_1" xmlns="http://www.w3.org/2000/svg" version="1.1" viewBox="0 0 82 82">
  <!-- Generator: Adobe Illustrator 30.1.0, SVG Export Plug-In . SVG Version: 2.1.1 Build 136)  -->
  <path d="M41,14.38c.87,0,1.73.45,2.18,1.35l5.57,11.06c.96,1.9,2.74,3.24,4.82,3.63l12.05,2.26c1.88.35,2.65,2.64,1.36,4.06l-8.78,9.63c-1.35,1.49-1.98,3.5-1.72,5.49l1.71,12.99c.2,1.55-1.03,2.78-2.42,2.78-.37,0-.75-.09-1.12-.28l-10.54-5.43c-.98-.5-2.05-.75-3.11-.75s-2.14.25-3.11.75l-10.54,5.43c-.37.19-.75.28-1.12.28-1.39,0-2.63-1.23-2.42-2.78l1.71-12.99c.26-1.99-.37-4-1.72-5.49l-8.78-9.63c-1.29-1.42-.53-3.71,1.36-4.06l12.05-2.26c2.08-.39,3.87-1.73,4.82-3.63l5.57-11.06c.45-.9,1.32-1.35,2.18-1.35M41,0c-6.39,0-12.15,3.55-15.02,9.25l-3.89,7.72-8.36,1.57c-5.99,1.12-10.92,5.41-12.85,11.19-1.94,5.78-.59,12.18,3.52,16.68l6.41,7.04-1.25,9.51c-.63,4.81.83,9.65,4.02,13.29,3.2,3.65,7.81,5.74,12.65,5.74,2.66,0,5.32-.65,7.7-1.87l7.07-3.64,7.07,3.64c2.38,1.22,5.04,1.87,7.7,1.87,4.84,0,9.45-2.09,12.65-5.74,3.19-3.64,4.66-8.48,4.02-13.29l-1.25-9.51,6.42-7.04c4.11-4.51,5.46-10.9,3.52-16.68-1.94-5.78-6.86-10.07-12.85-11.19l-8.37-1.57-3.89-7.72C53.15,3.55,47.39,0,41,0h0Z"/>
</svg>