<?xml version="1.0" encoding="UTF-8"?>
<svg id="Layer_1" xmlns="http://www.w3.org/2000/svg" version="1.1" viewBox="0 0 119 119">
  <!-- Generator: Adobe Illustrator 30.1.0, SVG Export Plug-In . SVG Version: 2.1.1 Build 136)  -->
  <path d="M59.5,16.66c1.39,0,2.79.72,3.51,2.17l8.96,17.79c1.54,3.05,4.41,5.21,7.76,5.84l19.39,3.63c3.03.57,4.26,4.25,2.18,6.54l-14.13,15.5c-2.18,2.39-3.19,5.63-2.77,8.84l2.76,20.9c.33,2.49-1.66,4.47-3.9,4.47-.59,0-1.21-.14-1.8-.44l-16.96-8.73c-1.57-.81-3.29-1.21-5.01-1.21s-3.44.4-5.01,1.21l-16.96,8.73c-.59.3-1.2.44-1.8.44-2.24,0-4.23-1.97-3.9-4.47l2.76-20.91c.42-3.21-.59-6.44-2.77-8.83l-14.13-15.5c-2.08-2.28-.85-5.97,2.18-6.54l19.39-3.63c3.35-.63,6.22-2.79,7.76-5.84l8.96-17.79c.73-1.44,2.12-2.17,3.51-2.17M59.5,0C51.68,0,44.63,4.34,41.11,11.33l-7.69,15.27-16.6,3.11c-7.34,1.37-13.36,6.63-15.74,13.71-2.37,7.08-.72,14.91,4.31,20.43l12.35,13.55-2.41,18.29c-.78,5.89,1.02,11.82,4.92,16.27,3.92,4.47,9.57,7.04,15.5,7.04,3.25,0,6.51-.79,9.43-2.29l14.34-7.39,14.34,7.39c2.91,1.5,6.17,2.29,9.43,2.29,5.93,0,11.57-2.56,15.5-7.04,3.9-4.45,5.7-10.38,4.92-16.27l-2.41-18.29,12.35-13.55c5.03-5.52,6.68-13.35,4.31-20.43-2.37-7.08-8.4-12.33-15.73-13.7l-16.61-3.11-7.69-15.27C74.37,4.34,67.32,0,59.5,0h0Z"/>
</svg>