<?xml version="1.0" encoding="UTF-8"?>
<svg id="Layer_1" xmlns="http://www.w3.org/2000/svg" version="1.1" viewBox="0 0 119 119">
  <!-- Generator: Adobe Illustrator 30.1.0, SVG Export Plug-In . SVG Version: 2.1.1 Build 136)  -->
  <path d="M59.5,20.86c1.26,0,2.51.65,3.17,1.95l8.08,16.05c1.39,2.75,3.98,4.7,7,5.27l17.49,3.28c2.73.51,3.84,3.84,1.97,5.89l-12.74,13.98c-1.97,2.16-2.88,5.07-2.5,7.97l2.49,18.85c.3,2.25-1.5,4.03-3.52,4.03-.54,0-1.09-.13-1.62-.4l-15.3-7.88c-1.42-.73-2.97-1.1-4.52-1.1s-3.1.37-4.52,1.1l-15.3,7.88c-.53.27-1.09.4-1.62.4-2.02,0-3.81-1.78-3.52-4.03l2.49-18.86c.38-2.89-.53-5.81-2.5-7.96l-12.74-13.98c-1.88-2.06-.77-5.39,1.97-5.9l17.49-3.28c3.02-.57,5.61-2.51,7-5.27l8.08-16.05c.66-1.3,1.91-1.95,3.17-1.95M59.5,0c-9.27,0-17.63,5.15-21.8,13.43l-5.64,11.2-12.14,2.28c-8.69,1.63-15.84,7.85-18.65,16.24-2.81,8.39-.85,17.67,5.11,24.21l9.31,10.21-1.82,13.81c-.92,6.98,1.21,14.01,5.84,19.29,4.64,5.3,11.34,8.34,18.36,8.34,3.86,0,7.72-.94,11.17-2.72l10.26-5.29,10.26,5.29c3.45,1.78,7.31,2.72,11.17,2.72,7.03,0,13.72-3.04,18.36-8.34,4.63-5.28,6.76-12.31,5.84-19.28l-1.82-13.81,9.31-10.22c5.96-6.54,7.92-15.82,5.11-24.21-2.81-8.39-9.96-14.61-18.65-16.24l-12.14-2.28-5.64-11.2C77.13,5.15,68.77,0,59.5,0h0Z"/>
</svg>