<?xml version="1.0" encoding="UTF-8"?>
<svg id="Layer_1" xmlns="http://www.w3.org/2000/svg" version="1.1" viewBox="0 0 119 119">
  <!-- Generator: Adobe Illustrator 30.1.0, SVG Export Plug-In . SVG Version: 2.1.1 Build 136)  -->
  <path d="M59.5,12.46c1.53,0,3.06.79,3.86,2.38l9.84,19.54c1.69,3.35,4.84,5.72,8.52,6.41l21.29,3.99c3.33.62,4.68,4.67,2.4,7.18l-15.51,17.02c-2.39,2.63-3.51,6.18-3.04,9.71l3.03,22.95c.36,2.74-1.82,4.91-4.28,4.91-.65,0-1.33-.15-1.98-.49l-18.62-9.59c-1.73-.89-3.61-1.33-5.5-1.33-1.89,0-3.77.44-5.5,1.33l-18.62,9.59c-.65.33-1.32.49-1.98.49-2.46,0-4.64-2.17-4.28-4.91l3.03-22.96c.46-3.52-.65-7.07-3.04-9.69l-15.51-17.02c-2.29-2.51-.93-6.56,2.4-7.18l21.29-3.99c3.68-.69,6.83-3.06,8.52-6.41l9.84-19.54c.8-1.59,2.33-2.38,3.86-2.38M59.5,0c-6.37,0-12.12,3.54-14.98,9.23l-9.75,19.35-21.07,3.95c-5.98,1.12-10.89,5.4-12.82,11.17-1.93,5.77-.59,12.15,3.51,16.65l15.38,16.88-3,22.77c-.63,4.8.83,9.63,4.01,13.26,3.2,3.65,7.8,5.74,12.63,5.74,2.65,0,5.3-.65,7.68-1.87l18.42-9.49,18.42,9.49c2.38,1.22,5.03,1.87,7.68,1.87,4.83,0,9.43-2.09,12.63-5.74,3.18-3.63,4.64-8.46,4.01-13.26l-3-22.77,15.39-16.89c4.1-4.5,5.44-10.88,3.51-16.65-1.93-5.77-6.84-10.05-12.82-11.17l-21.08-3.95-9.75-19.35c-2.87-5.69-8.61-9.23-14.98-9.23h0Z"/>
</svg>