<?xml version="1.0" encoding="UTF-8"?>
<svg id="Layer_1" xmlns="http://www.w3.org/2000/svg" version="1.1" viewBox="0 0 89 89">
  <!-- Generator: Adobe Illustrator 30.1.0, SVG Export Plug-In . SVG Version: 2.1.1 Build 136)  -->
  <g>
    <g>
      <rect x="41.24" y="25.93" width="6.51" height="6.51"/>
      <path d="M46.51,27.18v4.01h-4.01v-4.01h4.01M49.01,24.68h-9.02v9.02h9.02v-9.02h0Z"/>
    </g>
    <g>
      <polygon points="37.23 62.32 37.23 55.8 41.24 55.8 41.24 45.79 37.23 45.79 37.23 39.28 47.76 39.28 47.76 55.8 51.77 55.8 51.77 62.32 37.23 62.32"/>
      <path d="M46.51,40.53v16.53h4.01v4.01h-12.03v-4.01h4.01v-12.52h-4.01v-4.01h8.02M49.01,38.02h-13.03v9.02h4.01v7.51h-4.01v9.02h17.04v-9.02h-4.01v-16.53h0Z"/>
    </g>
  </g>
  <circle id="Outer" cx="44.5" cy="44.5" r="36.7" fill="none" stroke="#000" stroke-width="15.6"/>
</svg>