<?xml version="1.0" encoding="UTF-8"?>
<svg id="Layer_1" xmlns="http://www.w3.org/2000/svg" version="1.1" viewBox="0 0 33 33">
  <!-- Generator: Adobe Illustrator 30.1.0, SVG Export Plug-In . SVG Version: 2.1.1 Build 136)  -->
  <g>
    <g>
      <rect x="15.29" y="9.61" width="2.41" height="2.41"/>
      <path d="M17.24,10.08v1.49h-1.49v-1.49h1.49M18.17,9.15h-3.34v3.34h3.34v-3.34h0Z"/>
    </g>
    <g>
      <polygon points="13.81 23.11 13.81 20.69 15.29 20.69 15.29 16.98 13.81 16.98 13.81 14.56 17.71 14.56 17.71 20.69 19.19 20.69 19.19 23.11 13.81 23.11"/>
      <path d="M17.24,15.03v6.13h1.49v1.49h-4.46v-1.49h1.49v-4.64h-1.49v-1.49h2.97M18.17,14.1h-4.83v3.34h1.49v2.79h-1.49v3.34h6.32v-3.34h-1.49v-6.13h0Z"/>
    </g>
  </g>
  <circle id="Outer" cx="16.5" cy="16.5" r="13.61" fill="none" stroke="#000" stroke-width="5.79"/>
</svg>