<?xml version="1.0" encoding="UTF-8"?>
<svg id="Layer_1" xmlns="http://www.w3.org/2000/svg" version="1.1" viewBox="0 0 33 33">
  <!-- Generator: Adobe Illustrator 30.1.0, SVG Export Plug-In . SVG Version: 2.1.1 Build 136)  -->
  <g>
    <g>
      <rect x="15.31" y="9.2" width="2.38" height="2.38"/>
      <path d="M17.33,9.56v1.65h-1.65v-1.65h1.65M18.05,8.84h-3.1v3.1h3.1v-3.1h0Z"/>
    </g>
    <g>
      <polygon points="13.66 23.61 13.66 21.24 15.31 21.24 15.31 16.79 13.66 16.79 13.66 14.42 17.69 14.42 17.69 21.24 19.34 21.24 19.34 23.61 13.66 23.61"/>
      <path d="M17.33,14.78v6.82h1.65v1.65h-4.96v-1.65h1.65v-5.16h-1.65v-1.65h3.31M18.05,14.06h-4.75v3.1h1.65v3.72h-1.65v3.1h6.41v-3.1h-1.65v-6.82h0Z"/>
    </g>
  </g>
  <circle id="Outer" cx="16.5" cy="16.5" r="14.19" fill="none" stroke="#000" stroke-width="4.62"/>
</svg>