<?xml version="1.0" encoding="UTF-8"?>
<svg id="Layer_1" xmlns="http://www.w3.org/2000/svg" version="1.1" viewBox="0 0 71 71">
  <!-- Generator: Adobe Illustrator 30.1.0, SVG Export Plug-In . SVG Version: 2.1.1 Build 136)  -->
  <g>
    <g>
      <rect x="32.9" y="20.69" width="5.2" height="5.2"/>
      <path d="M37.1,21.68v3.2h-3.2v-3.2h3.2M39.1,19.69h-7.19v7.19h7.19v-7.19h0Z"/>
    </g>
    <g>
      <polygon points="29.7 49.71 29.7 44.52 32.9 44.52 32.9 36.53 29.7 36.53 29.7 31.33 38.1 31.33 38.1 44.52 41.3 44.52 41.3 49.71 29.7 49.71"/>
      <path d="M37.1,32.33v13.19h3.2v3.2h-9.6v-3.2h3.2v-9.99h-3.2v-3.2h6.4M39.1,30.33h-10.39v7.19h3.2v5.99h-3.2v7.19h13.59v-7.19h-3.2v-13.19h0Z"/>
    </g>
  </g>
  <circle id="Outer" cx="35.5" cy="35.5" r="29.28" fill="none" stroke="#000" stroke-width="12.45"/>
</svg>