<?xml version="1.0" encoding="UTF-8"?>
<svg id="Layer_1" xmlns="http://www.w3.org/2000/svg" version="1.1" viewBox="0 0 35 35">
  <!-- Generator: Adobe Illustrator 30.1.0, SVG Export Plug-In . SVG Version: 2.1.1 Build 136)  -->
  <path d="M17.5,3.66c.45,0,.9.23,1.13.7l2.89,5.75c.5.99,1.42,1.68,2.51,1.89l6.26,1.17c.98.18,1.38,1.37.7,2.11l-4.56,5.01c-.7.77-1.03,1.82-.89,2.85l.89,6.75c.11.81-.54,1.44-1.26,1.44-.19,0-.39-.04-.58-.14l-5.48-2.82c-.51-.26-1.06-.39-1.62-.39-.56,0-1.11.13-1.62.39l-5.48,2.82c-.19.1-.39.14-.58.14-.72,0-1.37-.64-1.26-1.44l.89-6.75c.14-1.04-.19-2.08-.89-2.85l-4.56-5.01c-.67-.74-.27-1.93.7-2.11l6.26-1.17c1.08-.2,2.01-.9,2.51-1.89l2.9-5.75c.24-.47.68-.7,1.13-.7M17.5,0C15.63,0,13.94,1.04,13.09,2.72l-2.87,5.69-6.2,1.16c-1.76.33-3.2,1.59-3.77,3.28-.57,1.7-.17,3.57,1.03,4.9l4.52,4.97-.88,6.7c-.19,1.41.24,2.83,1.18,3.9.94,1.07,2.29,1.69,3.71,1.69.78,0,1.56-.19,2.26-.55l5.42-2.79,5.42,2.79c.7.36,1.48.55,2.26.55,1.42,0,2.77-.62,3.71-1.69.94-1.07,1.36-2.49,1.18-3.9l-.88-6.7,4.53-4.97c1.21-1.32,1.6-3.2,1.03-4.9-.57-1.7-2.01-2.95-3.77-3.28l-6.2-1.16-2.87-5.69C21.06,1.04,19.37,0,17.5,0h0Z"/>
</svg>