<?xml version="1.0" encoding="UTF-8"?>
<svg id="Layer_1" xmlns="http://www.w3.org/2000/svg" version="1.1" viewBox="0 0 35 35">
  <!-- Generator: Adobe Illustrator 30.1.0, SVG Export Plug-In . SVG Version: 2.1.1 Build 136)  -->
  <path d="M17.5,4.9c.41,0,.82.21,1.03.64l2.64,5.23c.45.9,1.3,1.53,2.28,1.72l5.7,1.07c.89.17,1.25,1.25.64,1.92l-4.16,4.56c-.64.7-.94,1.65-.81,2.6l.81,6.15c.1.73-.49,1.31-1.15,1.31-.17,0-.35-.04-.53-.13l-4.99-2.57c-.46-.24-.97-.36-1.47-.36-.51,0-1.01.12-1.47.36l-4.99,2.57c-.17.09-.35.13-.53.13-.66,0-1.24-.58-1.15-1.31l.81-6.15c.12-.94-.17-1.89-.81-2.6l-4.16-4.56c-.61-.67-.25-1.76.64-1.92l5.7-1.07c.99-.18,1.83-.82,2.28-1.72l2.64-5.23c.21-.42.62-.64,1.03-.64M17.5,0C15.2,0,13.13,1.28,12.09,3.33l-2.26,4.49-4.88.92c-2.16.4-3.93,1.95-4.63,4.03-.7,2.08-.21,4.39,1.27,6.01l3.63,3.98-.71,5.38c-.23,1.73.3,3.48,1.45,4.79,1.15,1.32,2.81,2.07,4.56,2.07.96,0,1.92-.23,2.77-.67l4.22-2.17,4.22,2.17c.86.44,1.82.67,2.77.67,1.74,0,3.4-.75,4.56-2.07,1.15-1.31,1.68-3.05,1.45-4.79l-.71-5.38,3.63-3.99c1.48-1.62,1.96-3.93,1.27-6.01-.7-2.08-2.47-3.63-4.63-4.03l-4.89-.92-2.26-4.49C21.87,1.28,19.8,0,17.5,0h0Z"/>
</svg>