<?xml version="1.0" encoding="UTF-8"?>
<svg id="Layer_1" xmlns="http://www.w3.org/2000/svg" version="1.1" viewBox="0 0 85 85">
  <!-- Generator: Adobe Illustrator 30.1.0, SVG Export Plug-In . SVG Version: 2.1.1 Build 136)  -->
  <g>
    <g>
      <rect x="39.39" y="24.76" width="6.22" height="6.22"/>
      <path d="M44.41,25.96v3.83h-3.83v-3.83h3.83M46.81,23.57h-8.61v8.61h8.61v-8.61h0Z"/>
    </g>
    <g>
      <polygon points="35.56 59.52 35.56 53.3 39.39 53.3 39.39 43.73 35.56 43.73 35.56 37.51 45.61 37.51 45.61 53.3 49.44 53.3 49.44 59.52 35.56 59.52"/>
      <path d="M44.41,38.71v15.79h3.83v3.83h-11.49v-3.83h3.83v-11.96h-3.83v-3.83h7.66M46.81,36.31h-12.44v8.61h3.83v7.18h-3.83v8.61h16.27v-8.61h-3.83v-15.79h0Z"/>
    </g>
  </g>
  <circle id="Outer" cx="42.5" cy="42.5" r="35.05" fill="none" stroke="#000" stroke-width="14.9"/>
</svg>