<?xml version="1.0" encoding="UTF-8"?>
<svg id="Layer_1" xmlns="http://www.w3.org/2000/svg" version="1.1" viewBox="0 0 24 24">
  <!-- Generator: Adobe Illustrator 30.1.0, SVG Export Plug-In . SVG Version: 2.1.1 Build 136)  -->
  <g>
    <g>
      <rect x="11.15" y="6.38" width="1.7" height="1.7"/>
      <path d="M12.66,6.57v1.33h-1.33v-1.33h1.33M13.04,6.2h-2.08v2.08h2.08v-2.08h0Z"/>
    </g>
    <g>
      <polygon points="9.82 17.54 9.82 15.84 11.15 15.84 11.15 12.08 9.82 12.08 9.82 10.37 12.85 10.37 12.85 15.84 14.18 15.84 14.18 17.54 9.82 17.54"/>
      <path d="M12.66,10.56v5.47h1.33v1.33h-3.98v-1.33h1.33v-4.14h-1.33v-1.33h2.65M13.04,10.19h-3.4v2.08h1.33v3.39h-1.33v2.08h4.73v-2.08h-1.33v-5.47h0Z"/>
    </g>
  </g>
  <circle id="Outer" cx="12" cy="12" r="10.74" fill="none" stroke="#000" stroke-width="2.51"/>
</svg>