<?xml version="1.0" encoding="UTF-8"?>
<svg id="Layer_1" xmlns="http://www.w3.org/2000/svg" version="1.1" viewBox="0 0 34 34">
  <!-- Generator: Adobe Illustrator 30.1.0, SVG Export Plug-In . SVG Version: 2.1.1 Build 136)  -->
  <path d="M17,4.76c.4,0,.8.21,1,.62l2.56,5.08c.44.87,1.26,1.49,2.22,1.67l5.54,1.04c.87.16,1.22,1.22.62,1.87l-4.04,4.43c-.62.68-.91,1.61-.79,2.53l.79,5.97c.09.71-.47,1.28-1.11,1.28-.17,0-.34-.04-.51-.13l-4.85-2.5c-.45-.23-.94-.35-1.43-.35-.49,0-.98.12-1.43.35l-4.85,2.5c-.17.09-.34.13-.51.13-.64,0-1.21-.56-1.11-1.28l.79-5.97c.12-.92-.17-1.84-.79-2.52l-4.04-4.43c-.59-.65-.24-1.71.62-1.87l5.54-1.04c.96-.18,1.78-.8,2.22-1.67l2.56-5.08c.21-.41.61-.62,1-.62M17,0C14.76,0,12.75,1.24,11.74,3.24l-2.2,4.36-4.74.89c-2.1.39-3.82,1.89-4.5,3.92-.68,2.02-.21,4.26,1.23,5.84l3.53,3.87-.69,5.23c-.22,1.68.29,3.38,1.41,4.65,1.12,1.28,2.73,2.01,4.43,2.01.93,0,1.86-.23,2.69-.66l4.1-2.11,4.1,2.11c.83.43,1.76.65,2.69.65,1.69,0,3.31-.73,4.43-2.01,1.12-1.27,1.63-2.97,1.41-4.65l-.69-5.23,3.53-3.87c1.44-1.58,1.91-3.81,1.23-5.84-.68-2.02-2.4-3.52-4.5-3.92l-4.75-.89-2.2-4.36C21.25,1.24,19.23,0,17,0h0Z"/>
</svg>