<?xml version="1.0" encoding="UTF-8"?>
<svg id="Layer_1" xmlns="http://www.w3.org/2000/svg" version="1.1" viewBox="0 0 34 34">
  <!-- Generator: Adobe Illustrator 30.1.0, SVG Export Plug-In . SVG Version: 2.1.1 Build 136)  -->
  <path d="M17,3.56c.44,0,.87.23,1.1.68l2.81,5.58c.48.96,1.38,1.64,2.44,1.83l6.08,1.14c.95.18,1.34,1.33.68,2.05l-4.43,4.86c-.68.75-1,1.77-.87,2.77l.86,6.56c.1.78-.52,1.4-1.22,1.4-.19,0-.38-.04-.56-.14l-5.32-2.74c-.49-.25-1.03-.38-1.57-.38-.54,0-1.08.13-1.57.38l-5.32,2.74c-.19.1-.38.14-.56.14-.7,0-1.33-.62-1.22-1.4l.87-6.56c.13-1.01-.18-2.02-.87-2.77l-4.43-4.86c-.65-.72-.27-1.87.68-2.05l6.08-1.14c1.05-.2,1.95-.87,2.43-1.83l2.81-5.58c.23-.45.67-.68,1.1-.68M17,0C15.18,0,13.54,1.01,12.72,2.64l-2.79,5.53-6.02,1.13c-1.71.32-3.11,1.54-3.66,3.19-.55,1.65-.17,3.47,1,4.76l4.4,4.82-.86,6.51c-.18,1.37.24,2.75,1.14,3.79.91,1.04,2.23,1.64,3.61,1.64.76,0,1.52-.18,2.19-.53l5.26-2.71,5.26,2.71c.68.35,1.44.53,2.19.53,1.38,0,2.69-.6,3.61-1.64.91-1.04,1.33-2.42,1.14-3.79l-.86-6.51,4.4-4.82c1.17-1.28,1.56-3.11,1-4.76-.55-1.65-1.96-2.87-3.66-3.19l-6.02-1.13-2.79-5.53C20.46,1.01,18.82,0,17,0h0Z"/>
</svg>