<?xml version="1.0" encoding="UTF-8"?>
<svg id="Layer_1" xmlns="http://www.w3.org/2000/svg" version="1.1" viewBox="0 0 96 96">
  <!-- Generator: Adobe Illustrator 30.1.0, SVG Export Plug-In . SVG Version: 2.1.1 Build 136)  -->
  <circle id="Outer" cx="48" cy="48" r="42.98" fill="none" stroke="#000" stroke-width="10.05"/>
  <g>
    <g>
      <rect x="44.97" y="63.21" width="6.01" height="6.01"/>
      <path d="M50.23,63.96v4.51h-4.51v-4.51h4.51M51.73,62.46h-7.51v7.51h7.51v-7.51h0Z"/>
    </g>
    <g>
      <path d="M44.98,56.67l-.02-2.45c0-2.33.87-4.55,2.43-6.27l4.46-4.95c1.1-1.22,1.7-2.78,1.7-4.42,0-2.25-1.85-4.08-4.12-4.08h-2.87c-2.27,0-4.12,1.83-4.12,4.08v.75h-6.05v-.75c0-5.57,4.56-10.1,10.16-10.1h2.87c5.6,0,10.16,4.53,10.16,10.1,0,3.12-1.15,6.11-3.25,8.44l-4.47,4.95c-.58.64-.88,1.42-.88,2.25l-.03,2.45h-5.99Z"/>
      <path d="M49.43,29.24c5.19,0,9.41,4.19,9.41,9.35,0,2.93-1.09,5.75-3.06,7.93l-4.47,4.95c-.69.77-1.07,1.72-1.08,2.75l-.02,1.71h-4.51l-.02-1.71c0-2.14.8-4.17,2.23-5.76l4.47-4.95c1.22-1.35,1.9-3.1,1.9-4.92,0-2.66-2.18-4.83-4.87-4.83h-2.87c-2.68,0-4.87,2.17-4.87,4.83h-4.55c0-5.15,4.22-9.35,9.41-9.35h2.87M49.43,27.74h-2.87c-6.02,0-10.91,4.87-10.91,10.85v1.5h7.55v-1.5c0-1.84,1.51-3.33,3.37-3.33h2.87c1.86,0,3.37,1.49,3.37,3.33,0,1.45-.54,2.83-1.51,3.91l-4.47,4.95c-1.68,1.86-2.61,4.26-2.62,6.76l.02,1.72v1.49h7.49l.02-1.48.02-1.71c0-.65.24-1.26.69-1.76l4.47-4.95c2.22-2.46,3.44-5.63,3.44-8.94,0-5.98-4.9-10.85-10.91-10.85h0Z"/>
    </g>
  </g>
</svg>