<?xml version="1.0" encoding="UTF-8"?>
<svg id="Layer_1" xmlns="http://www.w3.org/2000/svg" version="1.1" viewBox="0 0 96 96">
  <!-- Generator: Adobe Illustrator 30.1.0, SVG Export Plug-In . SVG Version: 2.1.1 Build 136)  -->
  <circle id="Outer" cx="48" cy="48" r="41.28" fill="none" stroke="#000" stroke-width="13.44"/>
  <g>
    <g>
      <rect x="44.96" y="61.92" width="6.03" height="6.03"/>
      <path d="M49.94,62.97v3.93h-3.93v-3.93h3.93M52.04,60.87h-8.13v8.13h8.13v-8.13h0Z"/>
    </g>
    <g>
      <path d="M44.97,55.64l-.02-2.53c0-2.13.8-4.17,2.22-5.74l3.89-4.31c.89-.99,1.38-2.26,1.38-3.58,0-1.74-1.43-3.16-3.19-3.16h-2.5c-1.76,0-3.19,1.42-3.19,3.16v1.05h-6.07v-1.05c0-5.07,4.15-9.2,9.26-9.2h2.5c5.11,0,9.26,4.13,9.26,9.2,0,2.82-1.04,5.52-2.94,7.62l-3.89,4.31c-.44.48-.67,1.07-.67,1.7l-.02,2.53h-6.01Z"/>
      <path d="M49.25,31.33c4.53,0,8.21,3.66,8.21,8.15,0,2.56-.95,5.01-2.67,6.92l-3.89,4.32c-.6.67-.94,1.5-.94,2.39l-.02,1.49h-3.93v-1.49c0-1.86.68-3.64,1.93-5.03l3.89-4.31c1.07-1.18,1.65-2.7,1.65-4.29,0-2.32-1.9-4.21-4.24-4.21h-2.5c-2.34,0-4.24,1.89-4.24,4.21h-3.97c0-4.49,3.68-8.15,8.21-8.15h2.5M49.25,29.23h-2.5c-5.68,0-10.31,4.6-10.31,10.25v2.1h8.17v-2.1c0-1.17.96-2.11,2.14-2.11h2.5c1.18,0,2.14.95,2.14,2.11,0,1.06-.39,2.09-1.11,2.88l-3.89,4.31c-1.6,1.76-2.48,4.05-2.49,6.42v1.51s.03,2.08.03,2.08h8.09l.02-2.08.02-1.49c0-.38.14-.72.4-1.01l3.9-4.32c2.07-2.29,3.21-5.25,3.21-8.32,0-5.65-4.62-10.25-10.31-10.25h0Z"/>
    </g>
  </g>
</svg>