<?xml version="1.0" encoding="UTF-8"?>
<svg id="Layer_1" xmlns="http://www.w3.org/2000/svg" version="1.1" viewBox="0 0 96 96">
  <!-- Generator: Adobe Illustrator 30.1.0, SVG Export Plug-In . SVG Version: 2.1.1 Build 136)  -->
  <circle id="Outer" cx="48" cy="48" r="39.59" fill="none" stroke="#000" stroke-width="16.83"/>
  <g>
    <g>
      <rect x="44.93" y="60.62" width="6.08" height="6.08"/>
      <path d="M49.67,61.97v3.38h-3.38v-3.38h3.38M52.37,59.27h-8.78v8.78h8.78v-8.78h0Z"/>
    </g>
    <g>
      <path d="M44.95,54.7l-.02-2.62c0-1.95.73-3.81,2.02-5.24l3.35-3.71c.69-.77,1.07-1.76,1.07-2.78,0-1.25-1.03-2.27-2.3-2.27h-2.15c-1.27,0-2.3,1.02-2.3,2.27v1.35h-6.11v-1.35c0-4.61,3.77-8.36,8.41-8.36h2.15c4.64,0,8.41,3.75,8.41,8.36,0,2.53-.94,4.97-2.64,6.85l-3.35,3.71c-.3.33-.46.73-.46,1.16l-.03,2.62h-6.06Z"/>
      <path d="M49.08,33.33c3.89,0,7.06,3.15,7.06,7.01,0,2.2-.81,4.31-2.29,5.95l-3.35,3.71c-.52.57-.81,1.29-.81,2.06v1.28h-3.39v-1.28c0-1.6.59-3.13,1.66-4.32l3.35-3.71c.92-1.02,1.42-2.33,1.42-3.69,0-2-1.64-3.62-3.65-3.62h-2.15c-2.01,0-3.65,1.63-3.65,3.62h-3.41c0-3.87,3.17-7.01,7.06-7.01h2.15M49.08,30.63h-2.15c-5.38,0-9.76,4.36-9.76,9.71v2.7h8.81v-2.7c0-.51.43-.92.95-.92h2.15c.52,0,.95.41.95.92,0,.69-.26,1.36-.73,1.88l-3.35,3.71c-1.52,1.68-2.36,3.86-2.37,6.12v1.31s.03,2.68.03,2.68h8.73l.03-2.67v-1.28c.01-.09.03-.17.12-.28l3.35-3.71c1.93-2.13,2.99-4.89,2.99-7.76,0-5.36-4.38-9.71-9.76-9.71h0Z"/>
    </g>
  </g>
</svg>