<?xml version="1.0" encoding="UTF-8"?>
<svg id="Layer_1" xmlns="http://www.w3.org/2000/svg" version="1.1" viewBox="0 0 97 97">
  <!-- Generator: Adobe Illustrator 30.1.0, SVG Export Plug-In . SVG Version: 2.1.1 Build 136)  -->
  <circle id="Outer" cx="48.5" cy="48.5" r="41.71" fill="none" stroke="#000" stroke-width="13.58"/>
  <g>
    <g>
      <rect x="45.43" y="62.57" width="6.09" height="6.09"/>
      <path d="M50.46,63.63v3.97h-3.97v-3.97h3.97M52.58,61.51h-8.22v8.22h8.22v-8.22h0Z"/>
    </g>
    <g>
      <path d="M45.44,56.22l-.02-2.55c0-2.15.8-4.21,2.24-5.8l3.93-4.36c.9-1,1.4-2.28,1.4-3.62,0-1.76-1.45-3.2-3.23-3.2h-2.53c-1.78,0-3.23,1.43-3.23,3.2v1.06h-6.13v-1.06c0-5.13,4.2-9.3,9.36-9.3h2.53c5.16,0,9.36,4.17,9.36,9.3,0,2.85-1.05,5.58-2.97,7.7l-3.94,4.36c-.44.49-.67,1.08-.68,1.71l-.02,2.56h-6.08Z"/>
      <path d="M49.76,31.66c4.57,0,8.29,3.7,8.29,8.24,0,2.58-.96,5.07-2.69,6.99l-3.94,4.36c-.61.67-.95,1.51-.95,2.42l-.02,1.5h-3.97v-1.5c0-1.88.69-3.68,1.95-5.08l3.93-4.36c1.08-1.19,1.67-2.73,1.67-4.33,0-2.35-1.92-4.26-4.29-4.26h-2.53c-2.36,0-4.29,1.91-4.29,4.26h-4.01c0-4.54,3.72-8.24,8.29-8.24h2.53M49.76,29.53h-2.53c-5.74,0-10.42,4.65-10.42,10.36v2.12h8.25v-2.12c0-1.18.97-2.14,2.17-2.14h2.53c1.19,0,2.17.96,2.17,2.14,0,1.08-.4,2.11-1.12,2.91l-3.93,4.36c-1.61,1.78-2.51,4.09-2.51,6.49v1.53s.03,2.1.03,2.1h2.1s3.97,0,3.97,0h2.1l.02-2.1.02-1.5c0-.39.14-.72.4-1.02l3.94-4.36c2.09-2.31,3.24-5.3,3.24-8.41,0-5.71-4.67-10.36-10.42-10.36h0Z"/>
    </g>
  </g>
</svg>