<?xml version="1.0" encoding="UTF-8"?>
<svg id="Layer_1" xmlns="http://www.w3.org/2000/svg" version="1.1" viewBox="0 0 97 97">
  <!-- Generator: Adobe Illustrator 30.1.0, SVG Export Plug-In . SVG Version: 2.1.1 Build 136)  -->
  <circle id="Outer" cx="48.5" cy="48.5" r="43.42" fill="none" stroke="#000" stroke-width="10.15"/>
  <g>
    <g>
      <rect x="45.44" y="63.87" width="6.07" height="6.07"/>
      <path d="M50.75,64.62v4.56h-4.56v-4.56h4.56M52.26,63.11h-7.59v7.59h7.59v-7.59h0Z"/>
    </g>
    <g>
      <path d="M45.45,57.26l-.02-2.47c0-2.35.88-4.6,2.45-6.34l4.51-5c1.11-1.23,1.72-2.81,1.72-4.46,0-2.27-1.87-4.12-4.16-4.12h-2.9c-2.29,0-4.16,1.85-4.16,4.12v.76h-6.11v-.76c0-5.63,4.61-10.2,10.27-10.2h2.9c5.66,0,10.27,4.58,10.27,10.2,0,3.15-1.17,6.18-3.28,8.52l-4.51,5c-.58.64-.89,1.43-.89,2.27l-.03,2.48h-6.06Z"/>
      <path d="M49.95,29.55c5.25,0,9.51,4.24,9.51,9.45,0,2.96-1.1,5.81-3.09,8.02l-4.51,5c-.7.77-1.09,1.73-1.09,2.77l-.02,1.72h-4.56l-.02-1.72c0-2.16.8-4.22,2.26-5.82l4.51-5c1.24-1.37,1.92-3.13,1.92-4.97,0-2.69-2.21-4.88-4.92-4.88h-2.9c-2.71,0-4.92,2.19-4.92,4.88h-4.6c0-5.21,4.27-9.45,9.51-9.45h2.9M49.95,28.03h-2.9c-6.08,0-11.03,4.92-11.03,10.96v1.52h7.63v-1.52c0-1.86,1.53-3.37,3.4-3.37h2.9c1.88,0,3.4,1.51,3.4,3.37,0,1.46-.54,2.86-1.52,3.95l-4.51,5c-1.7,1.88-2.64,4.3-2.65,6.83l.02,1.74v1.5s1.52,0,1.52,0h6.06l.02-1.5.02-1.72c0-.66.24-1.27.7-1.77l4.51-5c2.24-2.49,3.48-5.69,3.48-9.03,0-6.04-4.95-10.96-11.03-10.96h0Z"/>
    </g>
  </g>
</svg>