<?xml version="1.0" encoding="UTF-8"?>
<svg id="Layer_1" xmlns="http://www.w3.org/2000/svg" version="1.1" viewBox="0 0 102 102">
  <!-- Generator: Adobe Illustrator 30.1.0, SVG Export Plug-In . SVG Version: 2.1.1 Build 136)  -->
  <g>
    <g>
      <rect x="47.27" y="29.72" width="7.46" height="7.47"/>
      <path d="M53.3,31.15v4.6h-4.6v-4.6h4.6M56.17,28.28h-10.33v10.33h10.33v-10.33h0Z"/>
    </g>
    <g>
      <polygon points="42.67 71.42 42.67 63.96 47.27 63.96 47.27 52.48 42.67 52.48 42.67 45.01 54.73 45.01 54.73 63.96 59.33 63.96 59.33 71.42 42.67 71.42"/>
      <path d="M53.3,46.45v18.94h4.6v4.6h-13.79v-4.6h4.6v-14.35h-4.6v-4.6h9.19M56.17,43.58h-14.93v10.33h4.6v8.61h-4.6v10.33h19.52v-10.33h-4.6v-18.94h0Z"/>
    </g>
  </g>
  <circle id="Outer" cx="51" cy="51" r="42.06" fill="none" stroke="#000" stroke-width="17.88"/>
</svg>