<?xml version="1.0" encoding="UTF-8"?>
<svg id="Layer_1" xmlns="http://www.w3.org/2000/svg" version="1.1" viewBox="0 0 102 102">
  <!-- Generator: Adobe Illustrator 30.1.0, SVG Export Plug-In . SVG Version: 2.1.1 Build 136)  -->
  <g>
    <g>
      <rect x="47.38" y="27.13" width="7.23" height="7.23"/>
      <path d="M53.82,27.92v5.64h-5.64v-5.64h5.64M55.41,26.33h-8.83v8.83h8.83v-8.83h0Z"/>
    </g>
    <g>
      <polygon points="41.74 74.57 41.74 67.33 47.38 67.33 47.38 51.32 41.74 51.32 41.74 44.09 54.62 44.09 54.62 67.33 60.26 67.33 60.26 74.57 41.74 74.57"/>
      <path d="M53.82,44.89v23.24h5.64v5.64h-16.92v-5.64h5.64v-17.61h-5.64v-5.64h11.28M55.41,43.29h-14.47v8.83h5.64v14.42h-5.64v8.83h20.11v-8.83h-5.64v-23.24h0Z"/>
    </g>
  </g>
  <circle id="Outer" cx="51" cy="51" r="45.66" fill="none" stroke="#000" stroke-width="10.68"/>
</svg>