<?xml version="1.0" encoding="UTF-8"?>
<svg id="Layer_1" xmlns="http://www.w3.org/2000/svg" version="1.1" viewBox="0 0 90 90">
  <!-- Generator: Adobe Illustrator 30.1.0, SVG Export Plug-In . SVG Version: 2.1.1 Build 136)  -->
  <circle id="Outer" cx="45" cy="45" r="37.11" fill="none" stroke="#000" stroke-width="15.78"/>
  <g>
    <g>
      <rect x="42.13" y="56.84" width="5.7" height="5.7"/>
      <path d="M46.56,58.1v3.17h-3.17v-3.17h3.17M49.09,55.57h-8.23v8.23h8.23v-8.23h0Z"/>
    </g>
    <g>
      <path d="M42.14,51.28l-.02-2.45c0-1.83.68-3.57,1.9-4.91l3.14-3.48c.65-.72,1.01-1.65,1.01-2.61,0-1.18-.97-2.13-2.16-2.13h-2.02c-1.19,0-2.16.96-2.16,2.13v1.27h-5.73v-1.27c0-4.32,3.54-7.84,7.89-7.84h2.02c4.35,0,7.89,3.52,7.89,7.84,0,2.38-.88,4.66-2.48,6.43l-3.14,3.48c-.29.32-.43.68-.43,1.09l-.02,2.46h-5.68Z"/>
      <path d="M46.01,31.25c3.65,0,6.62,2.95,6.62,6.57,0,2.06-.76,4.04-2.15,5.58l-3.14,3.48c-.49.54-.76,1.21-.76,1.93v1.2h-3.18v-1.2c0-1.5.55-2.93,1.56-4.05l3.14-3.48c.86-.95,1.33-2.18,1.33-3.46,0-1.87-1.54-3.4-3.42-3.4h-2.02c-1.89,0-3.42,1.52-3.42,3.4h-3.2c0-3.62,2.97-6.57,6.62-6.57h2.02M46.01,28.72h-2.02c-5.05,0-9.15,4.08-9.15,9.11v2.53h8.26v-2.53c0-.48.4-.87.89-.87h2.02c.49,0,.89.39.89.87,0,.65-.24,1.28-.68,1.76l-3.14,3.48c-1.43,1.58-2.22,3.61-2.22,5.74v1.23s.03,2.51.03,2.51h8.19l.03-2.51v-1.2c.01-.08.03-.16.12-.26l3.14-3.48c1.81-2,2.8-4.58,2.8-7.27,0-5.02-4.11-9.11-9.15-9.11h0Z"/>
    </g>
  </g>
</svg>