<?xml version="1.0" encoding="UTF-8"?>
<svg id="Layer_1" xmlns="http://www.w3.org/2000/svg" version="1.1" viewBox="0 0 90 90">
  <!-- Generator: Adobe Illustrator 30.1.0, SVG Export Plug-In . SVG Version: 2.1.1 Build 136)  -->
  <circle id="Outer" cx="45" cy="45" r="40.29" fill="none" stroke="#000" stroke-width="9.42"/>
  <g>
    <g>
      <rect x="42.16" y="59.26" width="5.63" height="5.63"/>
      <path d="M47.09,59.96v4.23h-4.23v-4.23h4.23M48.49,58.55h-7.04v7.04h7.04v-7.04h0Z"/>
    </g>
    <g>
      <path d="M42.17,53.13l-.02-2.29c0-2.18.82-4.27,2.28-5.88l4.18-4.64c1.03-1.14,1.6-2.61,1.6-4.14,0-2.11-1.73-3.83-3.86-3.83h-2.69c-2.13,0-3.86,1.72-3.86,3.83v.7h-5.67v-.7c0-5.22,4.27-9.47,9.53-9.47h2.69c5.25,0,9.53,4.25,9.53,9.47,0,2.92-1.08,5.73-3.05,7.91l-4.19,4.64c-.54.6-.83,1.33-.83,2.11l-.02,2.3h-5.62Z"/>
      <path d="M46.34,27.42c4.87,0,8.83,3.93,8.83,8.76,0,2.75-1.02,5.39-2.87,7.44l-4.19,4.64c-.65.72-1.01,1.61-1.01,2.57l-.02,1.6h-4.23v-1.6c0-2,.73-3.91,2.08-5.4l4.19-4.64c1.15-1.27,1.78-2.91,1.78-4.61,0-2.5-2.05-4.53-4.56-4.53h-2.69c-2.52,0-4.56,2.03-4.56,4.53h-4.26c0-4.83,3.96-8.76,8.83-8.76h2.69M46.34,26.01h-2.69c-5.64,0-10.23,4.56-10.23,10.17v1.41h7.08v-1.41c0-1.72,1.42-3.12,3.16-3.12h2.69c1.74,0,3.16,1.4,3.16,3.12,0,1.36-.5,2.66-1.41,3.67l-4.19,4.64c-1.57,1.74-2.45,3.99-2.46,6.34v1.62s.03,1.39.03,1.39h7.01v-1.39s.03-1.6.03-1.6c0-.61.23-1.18.65-1.65l4.19-4.64c2.08-2.31,3.23-5.28,3.23-8.38,0-5.61-4.59-10.17-10.23-10.17h0Z"/>
    </g>
  </g>
</svg>