<?xml version="1.0" encoding="UTF-8"?>
<svg id="Layer_1" xmlns="http://www.w3.org/2000/svg" version="1.1" viewBox="0 0 117 117">
  <!-- Generator: Adobe Illustrator 30.1.0, SVG Export Plug-In . SVG Version: 2.1.1 Build 136)  -->
  <g>
    <g>
      <rect x="54.29" y="32.6" width="8.42" height="8.42"/>
      <path d="M61.43,33.88v5.86h-5.86v-5.86h5.86M63.99,31.32h-10.98v10.98h10.98v-10.98h0Z"/>
    </g>
    <g>
      <polygon points="48.42 83.71 48.42 75.29 54.29 75.29 54.29 59.54 48.42 59.54 48.42 51.12 62.71 51.12 62.71 75.29 68.58 75.29 68.58 83.71 48.42 83.71"/>
      <path d="M61.43,52.4v24.17h5.86v5.86h-17.59v-5.86h5.86v-18.31h-5.86v-5.86h11.73M63.99,49.84h-16.85v10.98h5.86v13.19h-5.86v10.98h22.71v-10.98h-5.86v-24.17h0Z"/>
    </g>
  </g>
  <circle id="Outer" cx="58.5" cy="58.5" r="50.31" fill="none" stroke="#000" stroke-width="16.38"/>
</svg>