<?xml version="1.0" encoding="UTF-8"?>
<svg id="Layer_1" xmlns="http://www.w3.org/2000/svg" version="1.1" viewBox="0 0 117 117">
  <!-- Generator: Adobe Illustrator 30.1.0, SVG Export Plug-In . SVG Version: 2.1.1 Build 136)  -->
  <g>
    <g>
      <rect x="54.22" y="34.09" width="8.56" height="8.56"/>
      <path d="M61.14,35.73v5.27h-5.27v-5.27h5.27M64.43,32.44h-11.85v11.85h11.85v-11.85h0Z"/>
    </g>
    <g>
      <polygon points="48.95 81.92 48.95 73.36 54.22 73.36 54.22 60.19 48.95 60.19 48.95 51.63 62.78 51.63 62.78 73.36 68.05 73.36 68.05 81.92 48.95 81.92"/>
      <path d="M61.14,53.28v21.73h5.27v5.27h-15.81v-5.27h5.27v-16.46h-5.27v-5.27h10.54M64.43,49.99h-17.12v11.85h5.27v9.88h-5.27v11.85h22.4v-11.85h-5.27v-21.73h0Z"/>
    </g>
  </g>
  <circle id="Outer" cx="58.5" cy="58.5" r="48.24" fill="none" stroke="#000" stroke-width="20.51"/>
</svg>