<?xml version="1.0" encoding="UTF-8"?>
<svg id="Layer_1" xmlns="http://www.w3.org/2000/svg" version="1.1" viewBox="0 0 47 47">
  <!-- Generator: Adobe Illustrator 30.1.0, SVG Export Plug-In . SVG Version: 2.1.1 Build 136)  -->
  <path d="M23.5,8.24c.5,0,.99.26,1.25.77l3.19,6.34c.55,1.09,1.57,1.86,2.76,2.08l6.91,1.29c1.08.2,1.52,1.51.78,2.33l-5.03,5.52c-.78.85-1.14,2-.99,3.15l.98,7.45c.12.89-.59,1.59-1.39,1.59-.21,0-.43-.05-.64-.16l-6.04-3.11c-.56-.29-1.17-.43-1.78-.43-.61,0-1.22.14-1.78.43l-6.04,3.11c-.21.11-.43.16-.64.16-.8,0-1.51-.7-1.39-1.59l.98-7.45c.15-1.14-.21-2.29-.99-3.14l-5.03-5.52c-.74-.81-.3-2.13.78-2.33l6.91-1.29c1.19-.22,2.22-.99,2.76-2.08l3.19-6.34c.26-.51.76-.77,1.25-.77M23.5,0C19.84,0,16.54,2.03,14.89,5.3l-2.23,4.42-4.79.9c-3.43.64-6.26,3.1-7.37,6.42-1.11,3.31-.34,6.98,2.02,9.56l3.68,4.03-.72,5.45c-.36,2.76.48,5.53,2.31,7.62,1.83,2.09,4.48,3.29,7.25,3.29,1.52,0,3.05-.37,4.41-1.07l4.05-2.09,4.05,2.09c1.36.7,2.89,1.07,4.41,1.07,2.78,0,5.42-1.2,7.25-3.29,1.83-2.09,2.67-4.86,2.31-7.62l-.72-5.45,3.68-4.04c2.35-2.58,3.13-6.25,2.02-9.56-1.11-3.31-3.93-5.77-7.37-6.41l-4.8-.9-2.23-4.42C30.46,2.03,27.16,0,23.5,0h0Z"/>
</svg>