<?xml version="1.0" encoding="UTF-8"?>
<svg id="Layer_1" xmlns="http://www.w3.org/2000/svg" version="1.1" viewBox="0 0 47 47">
  <!-- Generator: Adobe Illustrator 30.1.0, SVG Export Plug-In . SVG Version: 2.1.1 Build 136)  -->
  <path d="M23.5,4.92c.6,0,1.21.31,1.52.94l3.89,7.72c.67,1.32,1.91,2.26,3.37,2.53l8.41,1.58c1.31.25,1.85,1.84.95,2.83l-6.13,6.72c-.95,1.04-1.39,2.44-1.2,3.83l1.2,9.07c.14,1.08-.72,1.94-1.69,1.94-.26,0-.52-.06-.78-.19l-7.36-3.79c-.68-.35-1.43-.53-2.17-.53-.75,0-1.49.18-2.17.53l-7.36,3.79c-.26.13-.52.19-.78.19-.97,0-1.83-.86-1.69-1.94l1.2-9.07c.18-1.39-.26-2.79-1.2-3.83l-6.13-6.72c-.9-.99-.37-2.59.95-2.84l8.41-1.58c1.45-.27,2.7-1.21,3.36-2.53l3.89-7.72c.32-.63.92-.94,1.52-.94M23.5,0C20.98,0,18.71,1.4,17.58,3.65l-3.85,7.64-8.32,1.56c-2.36.44-4.3,2.13-5.06,4.41-.76,2.28-.23,4.8,1.39,6.58l6.08,6.67-1.19,9c-.25,1.9.33,3.8,1.58,5.24,1.26,1.44,3.08,2.27,4.99,2.27,1.05,0,2.09-.26,3.03-.74l7.28-3.75,7.28,3.75c.94.48,1.99.74,3.03.74,1.91,0,3.72-.83,4.99-2.27,1.26-1.43,1.83-3.34,1.58-5.24l-1.19-8.99,6.08-6.67c1.62-1.78,2.15-4.3,1.39-6.57-.76-2.28-2.7-3.97-5.06-4.41l-8.32-1.56-3.85-7.64C28.28,1.4,26.02,0,23.5,0h0Z"/>
</svg>