<?xml version="1.0" encoding="UTF-8"?>
<svg id="Layer_1" xmlns="http://www.w3.org/2000/svg" version="1.1" viewBox="0 0 94 94">
  <!-- Generator: Adobe Illustrator 30.1.0, SVG Export Plug-In . SVG Version: 2.1.1 Build 136)  -->
  <circle id="Outer" cx="47" cy="47" r="38.76" fill="none" stroke="#000" stroke-width="16.48"/>
  <g>
    <g>
      <rect x="44" y="59.36" width="5.96" height="5.96"/>
      <path d="M48.63,60.68v3.31h-3.31v-3.31h3.31M51.28,58.04h-8.6v8.6h8.6v-8.6h0Z"/>
    </g>
    <g>
      <path d="M44.02,53.56l-.02-2.56c0-1.91.71-3.73,1.98-5.13l3.28-3.63c.68-.75,1.05-1.72,1.05-2.73,0-1.23-1.01-2.23-2.25-2.23h-2.11c-1.24,0-2.25,1-2.25,2.23v1.32h-5.98v-1.32c0-4.52,3.69-8.19,8.24-8.19h2.11c4.54,0,8.24,3.67,8.24,8.19,0,2.48-.92,4.86-2.59,6.71l-3.28,3.63c-.3.33-.45.71-.45,1.13l-.03,2.57h-5.93Z"/>
      <path d="M48.05,32.64c3.81,0,6.91,3.08,6.91,6.87,0,2.15-.8,4.22-2.25,5.83l-3.28,3.63c-.51.56-.79,1.26-.79,2.02v1.25h-3.32v-1.25c0-1.57.57-3.06,1.63-4.23l3.28-3.63c.9-.99,1.39-2.28,1.39-3.61,0-1.96-1.6-3.55-3.57-3.55h-2.11c-1.97,0-3.57,1.59-3.57,3.55h-3.34c0-3.79,3.1-6.87,6.91-6.87h2.11M48.05,30h-2.11c-5.27,0-9.56,4.27-9.56,9.51v2.64h8.63v-2.64c0-.5.42-.91.93-.91h2.11c.51,0,.93.41.93.91,0,.68-.25,1.33-.71,1.84l-3.28,3.63c-1.49,1.65-2.31,3.78-2.32,5.99v1.29s.03,2.62.03,2.62h8.55l.03-2.62v-1.25c.01-.09.03-.16.12-.27l3.28-3.64c1.89-2.09,2.93-4.79,2.93-7.6,0-5.24-4.29-9.51-9.56-9.51h0Z"/>
    </g>
  </g>
</svg>