<?xml version="1.0" encoding="UTF-8"?>
<svg id="Layer_1" xmlns="http://www.w3.org/2000/svg" version="1.1" viewBox="0 0 94 94">
  <!-- Generator: Adobe Illustrator 30.1.0, SVG Export Plug-In . SVG Version: 2.1.1 Build 136)  -->
  <circle id="Outer" cx="47" cy="47" r="40.42" fill="none" stroke="#000" stroke-width="13.16"/>
  <g>
    <g>
      <rect x="44.02" y="60.63" width="5.91" height="5.91"/>
      <path d="M48.9,61.66v3.85h-3.85v-3.85h3.85M50.96,59.61h-7.96v7.96h7.96v-7.96h0Z"/>
    </g>
    <g>
      <path d="M44.04,54.49l-.02-2.48c0-2.09.78-4.08,2.17-5.62l3.81-4.22c.87-.97,1.35-2.21,1.35-3.51,0-1.71-1.4-3.1-3.13-3.1h-2.45c-1.72,0-3.13,1.39-3.13,3.1v1.03h-5.94v-1.03c0-4.97,4.07-9.01,9.07-9.01h2.45c5,0,9.07,4.04,9.07,9.01,0,2.76-1.02,5.41-2.88,7.46l-3.81,4.22c-.43.47-.65,1.05-.66,1.66l-.03,2.48h-5.89Z"/>
      <path d="M48.22,30.68c4.43,0,8.04,3.58,8.04,7.98,0,2.5-.93,4.91-2.61,6.77l-3.81,4.23c-.59.65-.92,1.47-.92,2.34v1.46h-3.86v-1.46c0-1.82.67-3.56,1.89-4.92l3.81-4.22c1.04-1.16,1.62-2.65,1.62-4.2,0-2.27-1.86-4.13-4.15-4.13h-2.45c-2.29,0-4.15,1.85-4.15,4.13h-3.88c0-4.4,3.61-7.98,8.04-7.98h2.45M48.22,28.62h-2.45c-5.57,0-10.09,4.5-10.09,10.04v2.06h8v-2.06c0-1.14.94-2.07,2.1-2.07h2.45c1.16,0,2.1.93,2.1,2.07,0,1.04-.39,2.04-1.09,2.82l-3.81,4.22c-1.56,1.73-2.43,3.96-2.44,6.29v1.48s.03,2.04.03,2.04h7.92l.02-2.04v-1.46c.02-.37.15-.7.4-.99l3.81-4.23c2.02-2.24,3.14-5.14,3.14-8.15,0-5.54-4.53-10.04-10.09-10.04h0Z"/>
    </g>
  </g>
</svg>