<?xml version="1.0" encoding="UTF-8"?>
<svg id="Layer_1" xmlns="http://www.w3.org/2000/svg" version="1.1" viewBox="0 0 86 86">
  <!-- Generator: Adobe Illustrator 30.1.0, SVG Export Plug-In . SVG Version: 2.1.1 Build 136)  -->
  <path d="M43,15.08c.91,0,1.82.47,2.29,1.41l5.84,11.6c1,1.99,2.87,3.4,5.06,3.81l12.64,2.37c1.98.37,2.78,2.77,1.42,4.26l-9.21,10.1c-1.42,1.56-2.08,3.67-1.81,5.76l1.8,13.62c.21,1.63-1.08,2.91-2.54,2.91-.39,0-.79-.09-1.17-.29l-11.05-5.69c-1.02-.53-2.14-.79-3.27-.79s-2.24.26-3.27.79l-11.05,5.69c-.39.2-.78.29-1.17.29-1.46,0-2.76-1.29-2.54-2.91l1.8-13.63c.28-2.09-.38-4.2-1.8-5.75l-9.21-10.1c-1.36-1.49-.55-3.89,1.42-4.26l12.64-2.37c2.18-.41,4.05-1.82,5.06-3.81l5.84-11.6c.47-.94,1.38-1.41,2.29-1.41M43,0C36.3,0,30.26,3.72,27.24,9.71l-4.08,8.09-8.77,1.64c-6.28,1.18-11.45,5.68-13.48,11.74-2.03,6.07-.62,12.77,3.69,17.5l6.73,7.38-1.32,9.98c-.66,5.04.87,10.12,4.22,13.94,3.36,3.83,8.19,6.02,13.27,6.02,2.79,0,5.58-.68,8.08-1.96l7.42-3.82,7.42,3.82c2.49,1.28,5.28,1.96,8.08,1.96,5.08,0,9.92-2.2,13.27-6.02,3.35-3.82,4.88-8.9,4.22-13.94l-1.32-9.98,6.73-7.38c4.31-4.73,5.72-11.43,3.69-17.5-2.03-6.06-7.2-10.56-13.48-11.74l-8.78-1.64-4.08-8.09C55.74,3.72,49.7,0,43,0h0Z"/>
</svg>