<?xml version="1.0" encoding="UTF-8"?>
<svg id="Layer_1" xmlns="http://www.w3.org/2000/svg" version="1.1" viewBox="0 0 86 86">
  <!-- Generator: Adobe Illustrator 30.1.0, SVG Export Plug-In . SVG Version: 2.1.1 Build 136)  -->
  <path d="M43,9c1.11,0,2.21.57,2.79,1.72l7.11,14.12c1.22,2.42,3.5,4.14,6.16,4.64l15.39,2.88c2.41.45,3.38,3.38,1.73,5.19l-11.21,12.3c-1.73,1.9-2.53,4.47-2.2,7.01l2.19,16.59c.26,1.98-1.32,3.55-3.1,3.55-.47,0-.96-.11-1.43-.35l-13.46-6.93c-1.25-.64-2.61-.96-3.98-.96s-2.73.32-3.98.96l-13.46,6.93c-.47.24-.96.35-1.43.35-1.78,0-3.36-1.57-3.1-3.55l2.19-16.59c.34-2.55-.47-5.11-2.2-7.01l-11.21-12.3c-1.65-1.81-.68-4.74,1.73-5.19l15.39-2.88c2.66-.5,4.94-2.21,6.16-4.63l7.11-14.12c.58-1.15,1.68-1.72,2.79-1.72M43,0C38.39,0,34.24,2.56,32.17,6.67l-7.05,13.98-15.23,2.85c-4.32.81-7.87,3.9-9.27,8.07-1.4,4.17-.43,8.78,2.54,12.03l11.12,12.2-2.17,16.46c-.46,3.47.6,6.96,2.9,9.58,2.31,2.64,5.64,4.15,9.13,4.15,1.91,0,3.83-.47,5.55-1.35l13.31-6.86,13.31,6.86c1.72.88,3.64,1.35,5.55,1.35,3.49,0,6.81-1.51,9.13-4.15,2.3-2.62,3.35-6.11,2.9-9.58l-2.17-16.46,11.12-12.2c2.96-3.25,3.93-7.86,2.54-12.03-1.4-4.17-4.95-7.26-9.26-8.07l-15.23-2.86-7.05-13.98C51.75,2.56,47.61,0,43,0h0Z"/>
</svg>