<?xml version="1.0" encoding="UTF-8"?>
<svg id="Layer_1" xmlns="http://www.w3.org/2000/svg" version="1.1" viewBox="0 0 86 86">
  <!-- Generator: Adobe Illustrator 30.1.0, SVG Export Plug-In . SVG Version: 2.1.1 Build 136)  -->
  <path d="M43,12.04c1.01,0,2.01.52,2.54,1.57l6.48,12.86c1.11,2.21,3.19,3.77,5.61,4.22l14.01,2.63c2.19.41,3.08,3.07,1.58,4.72l-10.21,11.2c-1.58,1.73-2.31,4.07-2,6.39l1.99,15.11c.24,1.8-1.2,3.23-2.82,3.23-.43,0-.87-.1-1.3-.32l-12.26-6.31c-1.14-.59-2.38-.88-3.62-.88s-2.48.29-3.62.88l-12.26,6.31c-.43.22-.87.32-1.3.32-1.62,0-3.06-1.43-2.82-3.23l1.99-15.11c.31-2.32-.43-4.65-2-6.38l-10.21-11.2c-1.5-1.65-.61-4.32,1.58-4.73l14.01-2.63c2.42-.45,4.5-2.01,5.61-4.22l6.48-12.86c.53-1.04,1.53-1.57,2.54-1.57M43,0c-5.65,0-10.75,3.14-13.29,8.19l-5.56,11.04-12,2.25c-5.3.99-9.66,4.79-11.37,9.9-1.71,5.12-.52,10.78,3.11,14.77l8.92,9.79-1.74,13.22c-.56,4.25.74,8.54,3.56,11.76,2.83,3.23,6.92,5.09,11.2,5.09,2.35,0,4.71-.57,6.81-1.66l10.36-5.34,10.36,5.34c2.1,1.08,4.46,1.66,6.81,1.66,4.28,0,8.36-1.85,11.2-5.09,2.82-3.22,4.12-7.5,3.56-11.76l-1.74-13.22,8.92-9.79c3.63-3.99,4.83-9.65,3.11-14.76-1.71-5.12-6.07-8.91-11.37-9.9l-12-2.25-5.56-11.04c-2.54-5.05-7.64-8.19-13.29-8.19h0Z"/>
</svg>