<?xml version="1.0" encoding="UTF-8"?>
<svg id="Layer_1" xmlns="http://www.w3.org/2000/svg" version="1.1" viewBox="0 0 42 42">
  <!-- Generator: Adobe Illustrator 30.1.0, SVG Export Plug-In . SVG Version: 2.1.1 Build 136)  -->
  <circle id="Outer" cx="21" cy="21" r="17.32" fill="none" stroke="#000" stroke-width="7.36"/>
  <g>
    <g>
      <rect x="19.66" y="26.52" width="2.66" height="2.66"/>
      <path d="M21.73,27.11v1.48h-1.48v-1.48h1.48M22.91,25.93h-3.84v3.84h3.84v-3.84h0Z"/>
    </g>
    <g>
      <path d="M19.67,23.93v-1.14c0-.85.31-1.67.87-2.29l1.46-1.62c.3-.34.47-.77.47-1.22,0-.55-.45-.99-1.01-.99h-.94c-.55,0-1.01.45-1.01.99v.59h-2.67v-.59c0-2.02,1.65-3.66,3.68-3.66h.94c2.03,0,3.68,1.64,3.68,3.66,0,1.11-.41,2.17-1.16,3l-1.47,1.62c-.13.15-.2.32-.2.51v1.15h-2.66Z"/>
      <path d="M21.47,14.58c1.7,0,3.09,1.38,3.09,3.07,0,.96-.36,1.89-1,2.6l-1.47,1.62c-.23.25-.35.56-.35.9v.56h-1.49v-.56c0-.7.26-1.37.73-1.89l1.47-1.62c.4-.44.62-1.02.62-1.61,0-.87-.72-1.59-1.6-1.59h-.94c-.88,0-1.6.71-1.6,1.59h-1.49c0-1.69,1.39-3.07,3.09-3.07h.94M21.47,13.4h-.94c-2.35,0-4.27,1.91-4.27,4.25v1.18h3.86v-1.18c0-.22.19-.4.42-.4h.94c.23,0,.42.18.42.4,0,.3-.11.6-.32.82l-1.47,1.62c-.67.74-1.03,1.69-1.04,2.68v.57s.02,1.17.02,1.17h3.82v-1.17s.02-.56.02-.56c0-.04,0-.07.05-.12l1.47-1.62c.84-.93,1.31-2.14,1.31-3.39,0-2.34-1.92-4.25-4.27-4.25h0Z"/>
    </g>
  </g>
</svg>