<?xml version="1.0" encoding="UTF-8"?>
<svg id="Layer_1" xmlns="http://www.w3.org/2000/svg" version="1.1" viewBox="0 0 81 81">
  <!-- Generator: Adobe Illustrator 30.1.0, SVG Export Plug-In . SVG Version: 2.1.1 Build 136)  -->
  <g>
    <g>
      <rect x="37.63" y="21.54" width="5.74" height="5.74"/>
      <path d="M42.74,22.17v4.48h-4.48v-4.48h4.48M44,20.91h-7.01v7.01h7.01v-7.01h0Z"/>
    </g>
    <g>
      <polygon points="33.15 59.21 33.15 53.47 37.63 53.47 37.63 40.76 33.15 40.76 33.15 35.01 43.37 35.01 43.37 53.47 47.85 53.47 47.85 59.21 33.15 59.21"/>
      <path d="M42.74,35.65v18.46h4.48v4.48h-13.43v-4.48h4.48v-13.98h-4.48v-4.48h8.96M44,34.38h-11.49v7.01h4.48v11.45h-4.48v7.01h15.97v-7.01h-4.48v-18.46h0Z"/>
    </g>
  </g>
  <circle id="Outer" cx="40.5" cy="40.5" r="36.26" fill="none" stroke="#000" stroke-width="8.48"/>
</svg>