<?xml version="1.0" encoding="UTF-8"?>
<svg id="Layer_1" xmlns="http://www.w3.org/2000/svg" version="1.1" viewBox="0 0 81 81">
  <!-- Generator: Adobe Illustrator 30.1.0, SVG Export Plug-In . SVG Version: 2.1.1 Build 136)  -->
  <g>
    <g>
      <rect x="37.58" y="22.57" width="5.83" height="5.83"/>
      <path d="M42.53,23.46v4.06h-4.06v-4.06h4.06M44.3,21.69h-7.6v7.6h7.6v-7.6h0Z"/>
    </g>
    <g>
      <polygon points="33.52 57.96 33.52 52.12 37.58 52.12 37.58 41.22 33.52 41.22 33.52 35.39 43.42 35.39 43.42 52.12 47.48 52.12 47.48 57.96 33.52 57.96"/>
      <path d="M42.53,36.27v16.74h4.06v4.06h-12.18v-4.06h4.06v-12.68h-4.06v-4.06h8.12M44.3,34.5h-11.66v7.6h4.06v9.13h-4.06v7.6h15.72v-7.6h-4.06v-16.74h0Z"/>
    </g>
  </g>
  <circle id="Outer" cx="40.5" cy="40.5" r="34.83" fill="none" stroke="#000" stroke-width="11.34"/>
</svg>