<?xml version="1.0" encoding="UTF-8"?>
<svg id="Layer_1" xmlns="http://www.w3.org/2000/svg" version="1.1" viewBox="0 0 106 106">
  <!-- Generator: Adobe Illustrator 30.1.0, SVG Export Plug-In . SVG Version: 2.1.1 Build 136)  -->
  <g>
    <g>
      <rect x="49.18" y="29.54" width="7.63" height="7.63"/>
      <path d="M55.66,30.7v5.31h-5.31v-5.31h5.31M57.98,28.38h-9.95v9.95h9.95v-9.95h0Z"/>
    </g>
    <g>
      <polygon points="43.87 75.84 43.87 68.21 49.18 68.21 49.18 53.94 43.87 53.94 43.87 46.31 56.82 46.31 56.82 68.21 62.13 68.21 62.13 75.84 43.87 75.84"/>
      <path d="M55.66,47.47v21.9h5.31v5.31h-15.94v-5.31h5.31v-16.59h-5.31v-5.31h10.63M57.98,45.15h-15.26v9.95h5.31v11.95h-5.31v9.95h20.58v-9.95h-5.31v-21.9h0Z"/>
    </g>
  </g>
  <circle id="Outer" cx="53" cy="53" r="45.58" fill="none" stroke="#000" stroke-width="14.84"/>
</svg>