<?xml version="1.0" encoding="UTF-8"?>
<svg id="Layer_1" xmlns="http://www.w3.org/2000/svg" version="1.1" viewBox="0 0 43 43">
  <!-- Generator: Adobe Illustrator 30.1.0, SVG Export Plug-In . SVG Version: 2.1.1 Build 136)  -->
  <path d="M21.5,6.02c.5,0,1.01.26,1.27.78l3.24,6.43c.56,1.1,1.59,1.88,2.8,2.11l7.01,1.31c1.1.21,1.54,1.54.79,2.36l-5.1,5.6c-.79.86-1.15,2.03-1,3.19l1,7.55c.12.9-.6,1.61-1.41,1.61-.21,0-.44-.05-.65-.16l-6.13-3.16c-.57-.29-1.19-.44-1.81-.44s-1.24.15-1.81.44l-6.13,3.16c-.21.11-.44.16-.65.16-.81,0-1.53-.71-1.41-1.61l1-7.56c.15-1.16-.21-2.33-1-3.19l-5.11-5.6c-.75-.83-.31-2.16.79-2.36l7.01-1.31c1.21-.23,2.25-1.01,2.8-2.11l3.24-6.43c.26-.52.77-.78,1.27-.78M21.5,0c-2.83,0-5.37,1.57-6.65,4.09l-2.78,5.52-6,1.12c-2.65.5-4.83,2.39-5.69,4.95-.86,2.56-.26,5.39,1.56,7.38l4.46,4.9-.87,6.61c-.28,2.13.37,4.27,1.78,5.88,1.42,1.62,3.46,2.54,5.6,2.54,1.18,0,2.35-.29,3.41-.83l5.18-2.67,5.18,2.67c1.05.54,2.23.83,3.41.83,2.14,0,4.18-.93,5.6-2.54,1.41-1.61,2.06-3.75,1.78-5.88l-.87-6.61,4.46-4.9c1.82-1.99,2.41-4.82,1.56-7.38-.86-2.56-3.04-4.45-5.69-4.95l-6-1.12-2.78-5.52c-1.27-2.53-3.82-4.09-6.65-4.09h0Z"/>
</svg>