<?xml version="1.0" encoding="UTF-8"?>
<svg id="Layer_1" xmlns="http://www.w3.org/2000/svg" version="1.1" viewBox="0 0 43 43">
  <!-- Generator: Adobe Illustrator 30.1.0, SVG Export Plug-In . SVG Version: 2.1.1 Build 136)  -->
  <path d="M21.5,7.54c.45,0,.91.24,1.15.71l2.92,5.8c.5.99,1.44,1.7,2.53,1.9l6.32,1.18c.99.19,1.39,1.39.71,2.13l-4.6,5.05c-.71.78-1.04,1.83-.9,2.88l.9,6.81c.11.81-.54,1.46-1.27,1.46-.19,0-.39-.05-.59-.14l-5.53-2.85c-.51-.26-1.07-.4-1.63-.4-.56,0-1.12.13-1.63.4l-5.53,2.85c-.19.1-.39.14-.59.14-.73,0-1.38-.64-1.27-1.46l.9-6.81c.14-1.05-.19-2.1-.9-2.88l-4.6-5.05c-.68-.74-.28-1.95.71-2.13l6.32-1.18c1.09-.2,2.03-.91,2.53-1.9l2.92-5.8c.24-.47.69-.71,1.15-.71M21.5,0C18.15,0,15.13,1.86,13.62,4.85l-2.04,4.05-4.39.82c-3.14.59-5.72,2.84-6.74,5.87-1.02,3.03-.31,6.39,1.85,8.75l3.36,3.69-.66,4.99c-.33,2.52.44,5.06,2.11,6.97,1.68,1.91,4.1,3.01,6.64,3.01,1.4,0,2.79-.34,4.04-.98l3.71-1.91,3.71,1.91c1.25.64,2.64.98,4.04.98,2.54,0,4.96-1.1,6.64-3.01,1.67-1.91,2.44-4.45,2.11-6.97l-.66-4.99,3.36-3.69c2.15-2.36,2.86-5.72,1.84-8.75-1.02-3.03-3.6-5.28-6.74-5.87l-4.39-.82-2.04-4.05C27.87,1.86,24.85,0,21.5,0h0Z"/>
</svg>