<?xml version="1.0" encoding="UTF-8"?>
<svg id="Layer_1" xmlns="http://www.w3.org/2000/svg" version="1.1" viewBox="0 0 119 119">
  <!-- Generator: Adobe Illustrator 30.1.0, SVG Export Plug-In . SVG Version: 2.1.1 Build 136)  -->
  <circle id="Outer" cx="59.5" cy="59.5" r="49.07" fill="none" stroke="#000" stroke-width="20.86"/>
  <g>
    <g>
      <rect x="55.7" y="75.15" width="7.54" height="7.54"/>
      <path d="M61.57,76.82v4.19h-4.19v-4.19h4.19M64.91,73.48h-10.89v10.89h10.89v-10.89h0Z"/>
    </g>
    <g>
      <path d="M55.72,67.8l-.03-3.24c0-2.42.9-4.72,2.51-6.5l4.15-4.6c.86-.95,1.33-2.18,1.33-3.45,0-1.55-1.28-2.82-2.85-2.82h-2.67c-1.57,0-2.85,1.26-2.85,2.82v1.67h-7.58v-1.67c0-5.72,4.68-10.37,10.43-10.37h2.67c5.75,0,10.43,4.65,10.43,10.37,0,3.14-1.16,6.16-3.27,8.5l-4.15,4.6c-.38.42-.57.9-.57,1.44l-.03,3.25h-7.51Z"/>
      <path d="M60.83,41.32c4.83,0,8.75,3.9,8.75,8.69,0,2.73-1.01,5.35-2.84,7.38l-4.15,4.6c-.64.71-1,1.6-1,2.55l-.02,1.59h-4.19v-1.59c0-1.99.73-3.88,2.06-5.36l4.15-4.6c1.14-1.26,1.76-2.88,1.76-4.57,0-2.48-2.03-4.49-4.52-4.49h-2.67c-2.49,0-4.52,2.02-4.52,4.49h-4.23c0-4.79,3.93-8.69,8.75-8.69h2.67M60.83,37.97h-2.67c-6.67,0-12.1,5.4-12.1,12.04v3.35h10.92v-3.35c0-.63.53-1.15,1.18-1.15h2.67c.65,0,1.18.51,1.18,1.15,0,.86-.32,1.69-.9,2.33l-4.15,4.6c-1.88,2.08-2.93,4.78-2.94,7.59v1.63s.04,3.32.04,3.32h10.82l.03-3.31.02-1.59c0-.11.02-.21.14-.34l4.15-4.6c2.39-2.65,3.7-6.06,3.7-9.62,0-6.64-5.43-12.04-12.1-12.04h0Z"/>
    </g>
  </g>
</svg>