<?xml version="1.0" encoding="UTF-8"?>
<svg id="Layer_1" xmlns="http://www.w3.org/2000/svg" version="1.1" viewBox="0 0 119 119">
  <!-- Generator: Adobe Illustrator 30.1.0, SVG Export Plug-In . SVG Version: 2.1.1 Build 136)  -->
  <circle id="Outer" cx="59.5" cy="59.5" r="53.27" fill="none" stroke="#000" stroke-width="12.46"/>
  <g>
    <g>
      <rect x="55.74" y="78.35" width="7.45" height="7.45"/>
      <path d="M62.26,79.28v5.59h-5.59v-5.59h5.59M64.12,77.42h-9.31v9.31h9.31v-9.31h0Z"/>
    </g>
    <g>
      <path d="M55.75,70.25l-.03-3.04c.01-2.88,1.08-5.64,3.01-7.77l5.53-6.13c1.36-1.51,2.11-3.45,2.11-5.47,0-2.79-2.29-5.06-5.1-5.06h-3.56c-2.81,0-5.1,2.27-5.1,5.06v.93h-7.5v-.93c0-6.9,5.65-12.52,12.6-12.52h3.56c6.95,0,12.6,5.62,12.6,12.52,0,3.86-1.43,7.58-4.03,10.46l-5.54,6.13c-.71.79-1.09,1.75-1.1,2.78l-.03,3.04h-7.43Z"/>
      <path d="M61.28,36.25c6.44,0,11.67,5.2,11.67,11.59,0,3.64-1.35,7.13-3.79,9.83l-5.54,6.13c-.86.95-1.33,2.13-1.34,3.4l-.02,2.11h-5.59l-.02-2.11c0-2.65.99-5.17,2.77-7.14l5.53-6.13c1.52-1.68,2.35-3.84,2.35-6.1,0-3.3-2.71-5.99-6.03-5.99h-3.56c-3.33,0-6.03,2.69-6.03,5.99h-5.64c0-6.39,5.23-11.59,11.67-11.59h3.56M61.28,34.39h-3.56c-7.46,0-13.53,6.03-13.53,13.45v1.86h9.36v-1.86c0-2.28,1.87-4.13,4.17-4.13h3.56c2.3,0,4.17,1.85,4.17,4.13,0,1.79-.66,3.51-1.87,4.85l-5.54,6.13c-2.08,2.3-3.24,5.28-3.25,8.38l.02,2.14.02,1.84h9.27l.02-1.84.02-2.11c0-.81.3-1.56.86-2.18l5.54-6.14c2.75-3.05,4.27-6.98,4.27-11.08,0-7.41-6.07-13.45-13.53-13.45h0Z"/>
    </g>
  </g>
</svg>