<?xml version="1.0" encoding="UTF-8"?>
<svg id="Layer_1" xmlns="http://www.w3.org/2000/svg" version="1.1" viewBox="0 0 29 29">
  <!-- Generator: Adobe Illustrator 30.1.0, SVG Export Plug-In . SVG Version: 2.1.1 Build 136)  -->
  <circle id="Outer" cx="14.5" cy="14.5" r="12.98" fill="none" stroke="#000" stroke-width="3.04"/>
  <g>
    <g>
      <rect x="13.58" y="19.09" width="1.82" height="1.82"/>
      <path d="M15.17,19.32v1.36h-1.36v-1.36h1.36M15.63,18.87h-2.27v2.27h2.27v-2.27h0Z"/>
    </g>
    <g>
      <path d="M13.59,17.12v-.74c0-.7.26-1.38.73-1.9l1.35-1.49c.33-.37.51-.84.51-1.33,0-.68-.56-1.23-1.24-1.23h-.87c-.69,0-1.24.55-1.24,1.23v.23h-1.83v-.23c0-1.68,1.38-3.05,3.07-3.05h.87c1.69,0,3.07,1.37,3.07,3.05,0,.94-.35,1.85-.98,2.55l-1.35,1.49c-.17.19-.27.43-.27.68v.74h-1.82Z"/>
      <path d="M14.93,8.83c1.57,0,2.84,1.27,2.84,2.82,0,.89-.33,1.74-.92,2.4l-1.35,1.49c-.21.23-.32.52-.33.83v.52h-1.37v-.52c0-.65.24-1.26.67-1.74l1.35-1.49c.37-.41.57-.94.57-1.49,0-.8-.66-1.46-1.47-1.46h-.87c-.81,0-1.47.65-1.47,1.46h-1.37c0-1.56,1.28-2.82,2.84-2.82h.87M14.93,8.38h-.87c-1.82,0-3.3,1.47-3.3,3.28v.45h2.28v-.45c0-.55.46-1.01,1.02-1.01h.87c.56,0,1.02.45,1.02,1.01,0,.44-.16.86-.46,1.18l-1.35,1.49c-.51.56-.79,1.29-.79,2.04v.52s0,.45,0,.45h2.26v-.45s0-.52,0-.52c0-.2.07-.38.21-.53l1.35-1.5c.67-.74,1.04-1.7,1.04-2.7,0-1.81-1.48-3.28-3.3-3.28h0Z"/>
    </g>
  </g>
</svg>