<?xml version="1.0" encoding="UTF-8"?>
<svg id="Layer_1" xmlns="http://www.w3.org/2000/svg" version="1.1" viewBox="0 0 121 121">
  <!-- Generator: Adobe Illustrator 30.1.0, SVG Export Plug-In . SVG Version: 2.1.1 Build 136)  -->
  <path d="M60.5,12.67c1.56,0,3.11.81,3.92,2.42l10.01,19.86c1.72,3.41,4.92,5.82,8.67,6.52l21.65,4.06c3.38.63,4.76,4.75,2.44,7.3l-15.77,17.31c-2.43,2.67-3.57,6.28-3.09,9.87l3.08,23.34c.37,2.78-1.85,4.99-4.35,4.99-.66,0-1.35-.15-2.01-.5l-18.94-9.75c-1.76-.9-3.67-1.36-5.59-1.36s-3.84.45-5.59,1.36l-18.94,9.75c-.66.34-1.34.5-2.01.5-2.5,0-4.72-2.2-4.35-4.99l3.08-23.35c.47-3.58-.66-7.19-3.09-9.86l-15.77-17.31c-2.32-2.55-.95-6.67,2.44-7.3l21.65-4.06c3.74-.7,6.94-3.11,8.66-6.52l10.01-19.87c.81-1.61,2.37-2.42,3.92-2.42M60.5,0C54.02,0,48.18,3.6,45.26,9.39l-9.91,19.68-21.43,4.02c-6.08,1.14-11.07,5.49-13.04,11.35-1.97,5.87-.6,12.36,3.57,16.93l15.64,17.17-3.05,23.16c-.64,4.88.84,9.79,4.07,13.48,3.25,3.71,7.93,5.83,12.84,5.83,2.69,0,5.39-.66,7.81-1.9l18.73-9.65,18.73,9.65c2.41,1.24,5.11,1.9,7.81,1.9,4.91,0,9.59-2.13,12.84-5.83,3.23-3.69,4.72-8.6,4.07-13.48l-3.05-23.16,15.65-17.17c4.17-4.57,5.54-11.06,3.57-16.93-1.96-5.86-6.96-10.21-13.03-11.35l-21.43-4.02-9.91-19.68C72.82,3.6,66.98,0,60.5,0h0Z"/>
</svg>