<?xml version="1.0" encoding="UTF-8"?>
<svg id="Layer_1" xmlns="http://www.w3.org/2000/svg" version="1.1" viewBox="0 0 49 49">
  <!-- Generator: Adobe Illustrator 30.1.0, SVG Export Plug-In . SVG Version: 2.1.1 Build 136)  -->
  <path d="M24.5,6.86c.57,0,1.15.3,1.45.89l3.69,7.33c.63,1.26,1.81,2.15,3.2,2.41l7.98,1.5c1.25.23,1.75,1.75.9,2.69l-5.82,6.38c-.9.98-1.31,2.32-1.14,3.64l1.14,8.61c.14,1.03-.68,1.84-1.61,1.84-.24,0-.5-.06-.74-.18l-6.98-3.6c-.65-.33-1.36-.5-2.06-.5-.71,0-1.42.17-2.06.5l-6.98,3.6c-.24.13-.5.18-.74.18-.92,0-1.74-.81-1.61-1.84l1.14-8.61c.17-1.32-.24-2.65-1.14-3.63l-5.82-6.38c-.86-.94-.35-2.46.9-2.69l7.98-1.5c1.38-.26,2.56-1.15,3.19-2.4l3.69-7.33c.3-.59.87-.89,1.45-.89M24.5,0c-3.22,0-6.12,1.79-7.57,4.67l-3.17,6.29-6.84,1.28c-3.02.57-5.5,2.73-6.48,5.64-.98,2.92-.3,6.14,1.77,8.41l5.08,5.58-.99,7.53c-.32,2.42.42,4.87,2.03,6.7,1.61,1.84,3.94,2.9,6.38,2.9,1.34,0,2.68-.33,3.88-.94l5.91-3.04,5.91,3.04c1.2.62,2.54.94,3.88.94,2.44,0,4.77-1.06,6.38-2.9,1.61-1.83,2.35-4.28,2.03-6.7l-.99-7.53,5.09-5.58c2.07-2.27,2.75-5.5,1.77-8.41-.98-2.91-3.46-5.08-6.48-5.64l-6.84-1.28-3.17-6.29c-1.45-2.88-4.35-4.67-7.57-4.67h0Z"/>
</svg>