<?xml version="1.0" encoding="UTF-8"?>
<svg id="Layer_1" xmlns="http://www.w3.org/2000/svg" version="1.1" viewBox="0 0 77 77">
  <!-- Generator: Adobe Illustrator 30.1.0, SVG Export Plug-In . SVG Version: 2.1.1 Build 136)  -->
  <g>
    <g>
      <rect x="35.77" y="20.48" width="5.46" height="5.46"/>
      <path d="M40.63,21.08v4.26h-4.26v-4.26h4.26M41.83,19.88h-6.66v6.66h6.66v-6.66h0Z"/>
    </g>
    <g>
      <polygon points="31.51 56.29 31.51 50.83 35.77 50.83 35.77 38.74 31.51 38.74 31.51 33.28 41.23 33.28 41.23 50.83 45.49 50.83 45.49 56.29 31.51 56.29"/>
      <path d="M40.63,33.89v17.55h4.26v4.26h-12.77v-4.26h4.26v-13.29h-4.26v-4.26h8.51M41.83,32.68h-10.92v6.66h4.26v10.88h-4.26v6.66h15.18v-6.66h-4.26v-17.55h0Z"/>
    </g>
  </g>
  <circle id="Outer" cx="38.5" cy="38.5" r="34.47" fill="none" stroke="#000" stroke-width="8.06"/>
</svg>