<?xml version="1.0" encoding="UTF-8"?>
<svg id="Layer_1" xmlns="http://www.w3.org/2000/svg" version="1.1" viewBox="0 0 28 28">
  <!-- Generator: Adobe Illustrator 30.1.0, SVG Export Plug-In . SVG Version: 2.1.1 Build 136)  -->
  <circle id="Outer" cx="14" cy="14" r="12.53" fill="none" stroke="#000" stroke-width="2.93"/>
  <g>
    <g>
      <rect x="13.12" y="18.44" width="1.75" height="1.75"/>
      <path d="M14.65,18.65v1.31h-1.31v-1.31h1.31M15.09,18.22h-2.19v2.19h2.19v-2.19h0Z"/>
    </g>
    <g>
      <path d="M13.12,16.53v-.71c0-.68.25-1.33.7-1.83l1.3-1.44c.32-.35.5-.81.5-1.29,0-.66-.54-1.19-1.2-1.19h-.84c-.66,0-1.2.53-1.2,1.19v.22h-1.76v-.22c0-1.62,1.33-2.95,2.96-2.95h.84c1.63,0,2.96,1.32,2.96,2.95,0,.91-.34,1.78-.95,2.46l-1.3,1.44c-.17.19-.26.41-.26.66v.71h-1.76Z"/>
      <path d="M14.42,8.53c1.51,0,2.75,1.22,2.75,2.73,0,.86-.32,1.68-.89,2.31l-1.3,1.44c-.2.22-.31.5-.31.8v.5h-1.32v-.5c0-.62.23-1.22.65-1.68l1.3-1.44c.36-.39.55-.9.55-1.43,0-.78-.64-1.41-1.42-1.41h-.84c-.78,0-1.42.63-1.42,1.41h-1.33c0-1.5,1.23-2.73,2.75-2.73h.84M14.42,8.09h-.84c-1.76,0-3.18,1.42-3.18,3.16v.44h2.2v-.44c0-.54.44-.97.98-.97h.84c.54,0,.98.44.98.97,0,.42-.16.83-.44,1.14l-1.3,1.44c-.49.54-.76,1.24-.76,1.97v.5s0,.43,0,.43h2.18v-.43s0-.5,0-.5c0-.19.07-.37.2-.51l1.3-1.44c.65-.72,1-1.64,1-2.61,0-1.74-1.43-3.16-3.18-3.16h0Z"/>
    </g>
  </g>
</svg>