<?xml version="1.0" encoding="UTF-8"?>
<svg id="Layer_1" xmlns="http://www.w3.org/2000/svg" version="1.1" viewBox="0 0 28 28">
  <!-- Generator: Adobe Illustrator 30.1.0, SVG Export Plug-In . SVG Version: 2.1.1 Build 136)  -->
  <circle id="Outer" cx="14" cy="14" r="11.55" fill="none" stroke="#000" stroke-width="4.91"/>
  <g>
    <g>
      <rect x="13.11" y="17.68" width="1.77" height="1.77"/>
      <path d="M14.49,18.08v.99h-.99v-.99h.99M15.27,17.29h-2.56v2.56h2.56v-2.56h0Z"/>
    </g>
    <g>
      <path d="M13.11,15.95v-.76c0-.57.21-1.11.58-1.53l.98-1.08c.2-.22.31-.51.31-.81,0-.37-.3-.66-.67-.66h-.63c-.37,0-.67.3-.67.66v.39h-1.78v-.39c0-1.34,1.1-2.44,2.45-2.44h.63c1.35,0,2.45,1.09,2.45,2.44,0,.74-.27,1.45-.77,2l-.98,1.08c-.09.1-.13.21-.13.34v.77h-1.77Z"/>
      <path d="M14.31,9.72c1.14,0,2.06.92,2.06,2.05,0,.64-.24,1.26-.67,1.74l-.98,1.08c-.15.17-.24.38-.24.6v.37h-.99v-.37c0-.47.17-.91.49-1.26l.98-1.08c.27-.3.41-.68.41-1.08,0-.58-.48-1.06-1.06-1.06h-.63c-.59,0-1.06.47-1.06,1.06h-1c0-1.13.92-2.05,2.06-2.05h.63M14.31,8.93h-.63c-1.57,0-2.85,1.27-2.85,2.83v.79h2.57v-.79c0-.15.12-.27.28-.27h.63c.15,0,.28.12.28.27,0,.2-.08.4-.21.55l-.98,1.08c-.44.49-.69,1.12-.69,1.79v.38s.01.78.01.78h2.55v-.78s.01-.37.01-.37c0-.03,0-.05.03-.08l.98-1.08c.56-.62.87-1.43.87-2.26,0-1.56-1.28-2.83-2.85-2.83h0Z"/>
    </g>
  </g>
</svg>