<?xml version="1.0" encoding="UTF-8"?>
<svg id="Layer_1" xmlns="http://www.w3.org/2000/svg" version="1.1" viewBox="0 0 123 123">
  <!-- Generator: Adobe Illustrator 30.1.0, SVG Export Plug-In . SVG Version: 2.1.1 Build 136)  -->
  <g>
    <g>
      <rect x="57" y="35.84" width="9" height="9"/>
      <path d="M64.27,37.57v5.54h-5.54v-5.54h5.54M67.73,34.11h-12.46v12.46h12.46v-12.46h0Z"/>
    </g>
    <g>
      <polygon points="51.46 86.12 51.46 77.12 57 77.12 57 63.28 51.46 63.28 51.46 54.28 66 54.28 66 77.12 71.54 77.12 71.54 86.12 51.46 86.12"/>
      <path d="M64.27,56.01v22.84h5.54v5.54h-16.63v-5.54h5.54v-17.3h-5.54v-5.54h11.08M67.73,52.55h-18v12.46h5.54v10.38h-5.54v12.46h23.54v-12.46h-5.54v-22.84h0Z"/>
    </g>
  </g>
  <circle id="Outer" cx="61.5" cy="61.5" r="50.72" fill="none" stroke="#000" stroke-width="21.56"/>
</svg>