<?xml version="1.0" encoding="UTF-8"?>
<svg id="Layer_1" xmlns="http://www.w3.org/2000/svg" version="1.1" viewBox="0 0 118 118">
  <!-- Generator: Adobe Illustrator 30.1.0, SVG Export Plug-In . SVG Version: 2.1.1 Build 136)  -->
  <g>
    <g>
      <rect x="54.75" y="32.88" width="8.5" height="8.5"/>
      <path d="M61.96,34.17v5.91h-5.91v-5.91h5.91M64.54,31.59h-11.08v11.08h11.08v-11.08h0Z"/>
    </g>
    <g>
      <polygon points="48.84 84.43 48.84 75.93 54.75 75.93 54.75 60.05 48.84 60.05 48.84 51.55 63.25 51.55 63.25 75.93 69.16 75.93 69.16 84.43 48.84 84.43"/>
      <path d="M61.96,52.84v24.38h5.91v5.91h-17.74v-5.91h5.91v-18.47h-5.91v-5.91h11.83M64.54,50.26h-16.99v11.08h5.91v13.3h-5.91v11.08h22.91v-11.08h-5.91v-24.38h0Z"/>
    </g>
  </g>
  <circle id="Outer" cx="59" cy="59" r="50.74" fill="none" stroke="#000" stroke-width="16.52"/>
</svg>