<?xml version="1.0" encoding="UTF-8"?>
<svg id="Layer_1" xmlns="http://www.w3.org/2000/svg" version="1.1" viewBox="0 0 118 118">
  <!-- Generator: Adobe Illustrator 30.1.0, SVG Export Plug-In . SVG Version: 2.1.1 Build 136)  -->
  <g>
    <g>
      <rect x="54.82" y="31.38" width="8.37" height="8.37"/>
      <path d="M62.26,32.3v6.52h-6.52v-6.52h6.52M64.11,30.46h-10.21v10.21h10.21v-10.21h0Z"/>
    </g>
    <g>
      <polygon points="48.29 86.26 48.29 77.9 54.82 77.9 54.82 59.37 48.29 59.37 48.29 51.01 63.18 51.01 63.18 77.9 69.71 77.9 69.71 86.26 48.29 86.26"/>
      <path d="M62.26,51.93v26.89h6.52v6.52h-19.57v-6.52h6.52v-20.37h-6.52v-6.52h13.05M64.11,50.08h-16.74v10.21h6.52v16.68h-6.52v10.21h23.26v-10.21h-6.52v-26.89h0Z"/>
    </g>
  </g>
  <circle id="Outer" cx="59" cy="59" r="52.82" fill="none" stroke="#000" stroke-width="12.35"/>
</svg>