<?xml version="1.0" encoding="UTF-8"?>
<svg id="Layer_1" xmlns="http://www.w3.org/2000/svg" version="1.1" viewBox="0 0 93 93">
  <!-- Generator: Adobe Illustrator 30.1.0, SVG Export Plug-In . SVG Version: 2.1.1 Build 136)  -->
  <circle id="Outer" cx="46.5" cy="46.5" r="39.99" fill="none" stroke="#000" stroke-width="13.02"/>
  <g>
    <g>
      <rect x="43.55" y="59.99" width="5.84" height="5.84"/>
      <path d="M48.38,61.01v3.81h-3.81v-3.81h3.81M50.41,58.97h-7.88v7.88h7.88v-7.88h0Z"/>
    </g>
    <g>
      <path d="M43.57,53.91l-.02-2.45c0-2.07.77-4.04,2.15-5.56l3.77-4.18c.86-.96,1.34-2.19,1.34-3.47,0-1.69-1.39-3.06-3.09-3.06h-2.42c-1.71,0-3.09,1.38-3.09,3.06v1.02h-5.88v-1.02c0-4.92,4.02-8.91,8.97-8.91h2.42c4.95,0,8.97,4,8.97,8.91,0,2.73-1.01,5.35-2.84,7.38l-3.77,4.18c-.42.47-.65,1.03-.65,1.64l-.03,2.45h-5.82Z"/>
      <path d="M47.71,30.35c4.39,0,7.95,3.54,7.95,7.9,0,2.48-.92,4.86-2.58,6.7l-3.77,4.18c-.58.65-.91,1.45-.91,2.32v1.44h-3.82v-1.44c0-1.81.66-3.53,1.87-4.87l3.77-4.18c1.03-1.14,1.6-2.62,1.6-4.15,0-2.25-1.84-4.08-4.11-4.08h-2.42c-2.27,0-4.11,1.83-4.11,4.08h-3.84c0-4.35,3.57-7.9,7.95-7.9h2.42M47.71,28.32h-2.42c-5.51,0-9.99,4.46-9.99,9.93v2.03h7.91v-2.03c0-1.13.93-2.05,2.08-2.05h2.42c1.14,0,2.08.92,2.08,2.05,0,1.03-.38,2.02-1.08,2.79l-3.77,4.18c-1.55,1.71-2.4,3.92-2.41,6.22v1.47s.03,2.02.03,2.02h2.02s3.81,0,3.81,0h2.01l.02-2.01v-1.44c.02-.37.15-.69.4-.98l3.77-4.18c2-2.22,3.11-5.08,3.11-8.06,0-5.48-4.48-9.93-9.99-9.93h0Z"/>
    </g>
  </g>
</svg>