<?xml version="1.0" encoding="UTF-8"?>
<svg id="Layer_1" xmlns="http://www.w3.org/2000/svg" version="1.1" viewBox="0 0 121 121">
  <!-- Generator: Adobe Illustrator 30.1.0, SVG Export Plug-In . SVG Version: 2.1.1 Build 136)  -->
  <g>
    <g>
      <rect x="56.14" y="33.72" width="8.71" height="8.71"/>
      <path d="M63.53,35.04v6.07h-6.07v-6.07h6.07M66.18,32.4h-11.36v11.36h11.36v-11.36h0Z"/>
    </g>
    <g>
      <polygon points="50.08 86.58 50.08 77.86 56.14 77.86 56.14 61.58 50.08 61.58 50.08 52.86 64.86 52.86 64.86 77.86 70.92 77.86 70.92 86.58 50.08 86.58"/>
      <path d="M63.53,54.19v25h6.06v6.06h-18.2v-6.06h6.06v-18.93h-6.06v-6.06h12.13M66.18,51.54h-17.42v11.36h6.06v13.64h-6.06v11.36h23.49v-11.36h-6.06v-25h0Z"/>
    </g>
  </g>
  <circle id="Outer" cx="60.5" cy="60.5" r="52.03" fill="none" stroke="#000" stroke-width="16.94"/>
</svg>