<?xml version="1.0" encoding="UTF-8"?>
<svg id="Layer_1" xmlns="http://www.w3.org/2000/svg" version="1.1" viewBox="0 0 118 118">
  <!-- Generator: Adobe Illustrator 30.1.0, SVG Export Plug-In . SVG Version: 2.1.1 Build 136)  -->
  <path d="M59,16.52c1.38,0,2.76.72,3.48,2.15l8.89,17.64c1.53,3.03,4.37,5.17,7.7,5.79l19.23,3.6c3.01.56,4.23,4.22,2.16,6.48l-14.01,15.37c-2.16,2.37-3.17,5.58-2.75,8.76l2.73,20.73c.33,2.47-1.64,4.43-3.87,4.43-.59,0-1.2-.14-1.78-.44l-16.82-8.66c-1.56-.8-3.26-1.2-4.97-1.2-1.7,0-3.41.4-4.97,1.2l-16.82,8.66c-.59.3-1.19.44-1.78.44-2.22,0-4.19-1.96-3.87-4.43l2.73-20.73c.42-3.18-.58-6.38-2.74-8.75l-14.01-15.37c-2.06-2.26-.84-5.92,2.16-6.48l19.22-3.6c3.32-.62,6.17-2.76,7.69-5.79l8.89-17.64c.72-1.43,2.1-2.15,3.48-2.15M59,0c-7.76,0-14.75,4.31-18.24,11.24l-7.63,15.15-16.47,3.09c-7.27,1.36-13.25,6.57-15.6,13.59-2.35,7.02-.72,14.79,4.27,20.26l12.24,13.43-2.39,18.14c-.77,5.84,1.01,11.72,4.88,16.13,3.89,4.43,9.49,6.98,15.37,6.98,3.23,0,6.46-.79,9.35-2.27l14.22-7.32,14.22,7.32c2.89,1.49,6.12,2.27,9.35,2.27,5.88,0,11.48-2.54,15.37-6.98,3.87-4.42,5.65-10.3,4.88-16.13l-2.39-18.14,12.25-13.44c4.99-5.47,6.62-13.23,4.27-20.26-2.35-7.02-8.33-12.23-15.6-13.59l-16.47-3.09-7.63-15.15c-3.49-6.93-10.48-11.24-18.24-11.24h0Z"/>
</svg>