<?xml version="1.0" encoding="UTF-8"?>
<svg id="Layer_1" xmlns="http://www.w3.org/2000/svg" version="1.1" viewBox="0 0 118 118">
  <!-- Generator: Adobe Illustrator 30.1.0, SVG Export Plug-In . SVG Version: 2.1.1 Build 136)  -->
  <path d="M59,12.35c1.52,0,3.03.79,3.83,2.36l9.76,19.37c1.67,3.32,4.8,5.68,8.45,6.36l21.11,3.96c3.3.62,4.64,4.63,2.38,7.12l-15.38,16.88c-2.37,2.6-3.48,6.13-3.02,9.62l3,22.76c.36,2.72-1.81,4.87-4.25,4.87-.65,0-1.31-.15-1.96-.48l-18.47-9.51c-1.71-.88-3.58-1.32-5.45-1.32-1.87,0-3.74.44-5.45,1.32l-18.47,9.51c-.64.33-1.31.48-1.96.48-2.44,0-4.61-2.15-4.25-4.87l3-22.77c.46-3.49-.64-7.01-3.01-9.61l-15.38-16.88c-2.27-2.49-.93-6.5,2.38-7.12l21.11-3.96c3.65-.68,6.77-3.03,8.45-6.36l9.76-19.37c.79-1.57,2.31-2.36,3.83-2.36M59,0c-6.32,0-12.01,3.51-14.86,9.15l-9.67,19.19-20.89,3.92c-5.93,1.11-10.8,5.35-12.71,11.07-1.92,5.72-.58,12.05,3.48,16.51l15.26,16.74-2.98,22.58c-.63,4.76.82,9.55,3.97,13.14,3.17,3.62,7.73,5.69,12.52,5.69,2.63,0,5.26-.64,7.61-1.85l18.27-9.41,18.27,9.41c2.36,1.21,4.99,1.85,7.61,1.85,4.79,0,9.35-2.07,12.52-5.69,3.15-3.6,4.6-8.39,3.97-13.14l-2.98-22.58,15.26-16.74c4.06-4.46,5.4-10.78,3.48-16.51-1.92-5.72-6.79-9.96-12.71-11.07l-20.9-3.92-9.67-19.19c-2.84-5.65-8.54-9.15-14.86-9.15h0Z"/>
</svg>