<?xml version="1.0" encoding="UTF-8"?>
<svg id="Layer_1" xmlns="http://www.w3.org/2000/svg" version="1.1" viewBox="0 0 39 39">
  <!-- Generator: Adobe Illustrator 30.1.0, SVG Export Plug-In . SVG Version: 2.1.1 Build 136)  -->
  <g>
    <g>
      <rect x="18.1" y="10.87" width="2.81" height="2.81"/>
      <path d="M20.48,11.29v1.95h-1.95v-1.95h1.95M21.33,10.44h-3.66v3.66h3.66v-3.66h0Z"/>
    </g>
    <g>
      <polygon points="16.14 27.9 16.14 25.1 18.1 25.1 18.1 19.85 16.14 19.85 16.14 17.04 20.9 17.04 20.9 25.1 22.86 25.1 22.86 27.9 16.14 27.9"/>
      <path d="M20.48,17.47v8.06h1.95v1.95h-5.86v-1.95h1.95v-6.1h-1.95v-1.95h3.91M21.33,16.61h-5.62v3.66h1.95v4.4h-1.95v3.66h7.57v-3.66h-1.95v-8.06h0Z"/>
    </g>
  </g>
  <circle id="Outer" cx="19.5" cy="19.5" r="16.77" fill="none" stroke="#000" stroke-width="5.46"/>
</svg>