<?xml version="1.0" encoding="UTF-8"?>
<svg id="Layer_1" xmlns="http://www.w3.org/2000/svg" version="1.1" viewBox="0 0 81 81">
  <!-- Generator: Adobe Illustrator 30.1.0, SVG Export Plug-In . SVG Version: 2.1.1 Build 136)  -->
  <path d="M40.5,8.48c1.04,0,2.08.54,2.63,1.62l6.7,13.3c1.15,2.28,3.29,3.9,5.8,4.37l14.49,2.72c2.27.42,3.19,3.18,1.63,4.88l-10.56,11.59c-1.63,1.79-2.39,4.21-2.07,6.61l2.06,15.62c.25,1.86-1.24,3.34-2.92,3.34-.44,0-.9-.1-1.34-.33l-12.68-6.53c-1.17-.61-2.46-.91-3.74-.91-1.28,0-2.57.3-3.74.91l-12.68,6.53c-.44.23-.9.33-1.34.33-1.68,0-3.16-1.48-2.92-3.34l2.06-15.63c.32-2.4-.44-4.81-2.07-6.6l-10.56-11.59c-1.56-1.71-.64-4.46,1.63-4.89l14.49-2.72c2.51-.47,4.65-2.08,5.8-4.36l6.7-13.3c.54-1.08,1.59-1.62,2.63-1.62M40.5,0C36.16,0,32.25,2.41,30.3,6.28l-6.64,13.17-14.34,2.69c-4.07.76-7.41,3.68-8.73,7.6-1.32,3.93-.4,8.27,2.39,11.33l10.47,11.49-2.04,15.5c-.43,3.27.56,6.55,2.73,9.02,2.18,2.48,5.31,3.91,8.6,3.91,1.8,0,3.61-.44,5.23-1.27l12.54-6.46,12.54,6.46c1.62.83,3.42,1.27,5.23,1.27,3.29,0,6.42-1.42,8.59-3.91,2.16-2.47,3.16-5.76,2.73-9.02l-2.04-15.5,10.47-11.49c2.79-3.06,3.71-7.4,2.39-11.33-1.31-3.93-4.66-6.84-8.73-7.6l-14.35-2.69-6.64-13.17C48.75,2.41,44.84,0,40.5,0h0Z"/>
</svg>