<?xml version="1.0" encoding="UTF-8"?>
<svg id="Layer_1" xmlns="http://www.w3.org/2000/svg" version="1.1" viewBox="0 0 81 81">
  <!-- Generator: Adobe Illustrator 30.1.0, SVG Export Plug-In . SVG Version: 2.1.1 Build 136)  -->
  <path d="M40.5,11.34c.95,0,1.9.49,2.39,1.48l6.1,12.11c1.05,2.08,3,3.55,5.28,3.98l13.2,2.47c2.06.39,2.9,2.89,1.48,4.45l-9.62,10.55c-1.48,1.63-2.17,3.83-1.89,6.02l1.88,14.23c.22,1.7-1.13,3.04-2.65,3.04-.4,0-.82-.09-1.22-.3l-11.54-5.95c-1.07-.55-2.24-.83-3.41-.83-1.17,0-2.34.28-3.41.83l-11.54,5.95c-.4.21-.82.3-1.22.3-1.53,0-2.88-1.34-2.65-3.04l1.88-14.23c.29-2.18-.4-4.38-1.88-6.01l-9.62-10.55c-1.42-1.55-.58-4.06,1.49-4.45l13.2-2.47c2.28-.43,4.23-1.9,5.28-3.97l6.1-12.11c.5-.98,1.44-1.48,2.39-1.48M40.5,0C35.17,0,30.38,2.96,27.98,7.71l-5.24,10.4-11.3,2.12c-4.99.94-9.1,4.51-10.71,9.33-1.61,4.82-.49,10.15,2.93,13.91l8.4,9.22-1.64,12.45c-.53,4.01.69,8.04,3.35,11.07,2.67,3.04,6.51,4.79,10.55,4.79,2.22,0,4.43-.54,6.42-1.56l9.76-5.03,9.76,5.03c1.98,1.02,4.2,1.56,6.42,1.56,4.03,0,7.88-1.75,10.55-4.79,2.66-3.03,3.88-7.07,3.35-11.07l-1.64-12.45,8.41-9.22c3.42-3.76,4.55-9.08,2.93-13.9-1.61-4.82-5.72-8.39-10.71-9.33l-11.31-2.12-5.24-10.4C50.62,2.96,45.82,0,40.5,0h0Z"/>
</svg>