<?xml version="1.0" encoding="UTF-8"?>
<svg id="Layer_1" xmlns="http://www.w3.org/2000/svg" version="1.1" viewBox="0 0 81 81">
  <!-- Generator: Adobe Illustrator 30.1.0, SVG Export Plug-In . SVG Version: 2.1.1 Build 136)  -->
  <path d="M40.5,14.2c.86,0,1.71.44,2.16,1.33l5.5,10.92c.94,1.87,2.71,3.2,4.76,3.59l11.9,2.23c1.86.35,2.62,2.61,1.34,4.01l-8.67,9.52c-1.34,1.47-1.96,3.45-1.7,5.43l1.69,12.83c.2,1.53-1.02,2.74-2.39,2.74-.36,0-.74-.09-1.1-.27l-10.41-5.36c-.97-.5-2.02-.75-3.08-.75-1.06,0-2.11.25-3.08.75l-10.41,5.36c-.36.19-.74.27-1.1.27-1.38,0-2.6-1.21-2.39-2.74l1.69-12.84c.26-1.97-.36-3.95-1.7-5.42l-8.67-9.52c-1.28-1.4-.52-3.67,1.34-4.01l11.9-2.23c2.06-.39,3.82-1.71,4.76-3.58l5.5-10.92c.45-.89,1.3-1.33,2.16-1.33M40.5,0C34.19,0,28.5,3.5,25.66,9.14l-3.84,7.62-8.26,1.55c-5.92,1.11-10.78,5.35-12.7,11.06-1.91,5.71-.58,12.03,3.48,16.48l6.34,6.95-1.24,9.4c-.63,4.75.82,9.53,3.97,13.13,3.16,3.61,7.72,5.67,12.5,5.67,2.63,0,5.26-.64,7.61-1.85l6.99-3.6,6.99,3.6c2.35,1.21,4.98,1.85,7.61,1.85,4.78,0,9.34-2.07,12.5-5.67,3.15-3.59,4.6-8.38,3.97-13.13l-1.24-9.4,6.34-6.95c4.06-4.45,5.39-10.77,3.48-16.48-1.91-5.71-6.78-9.95-12.69-11.06l-8.26-1.55-3.84-7.62C52.5,3.5,46.81,0,40.5,0h0Z"/>
</svg>