<?xml version="1.0" encoding="UTF-8"?>
<svg id="Layer_1" xmlns="http://www.w3.org/2000/svg" version="1.1" viewBox="0 0 86 86">
  <!-- Generator: Adobe Illustrator 30.1.0, SVG Export Plug-In . SVG Version: 2.1.1 Build 136)  -->
  <g>
    <g>
      <rect x="39.9" y="23.97" width="6.19" height="6.19"/>
      <path d="M45.16,24.91v4.31h-4.31v-4.31h4.31M47.04,23.03h-8.07v8.07h8.07v-8.07h0Z"/>
    </g>
    <g>
      <polygon points="35.59 61.53 35.59 55.34 39.9 55.34 39.9 43.76 35.59 43.76 35.59 37.57 46.1 37.57 46.1 55.34 50.41 55.34 50.41 61.53 35.59 61.53"/>
      <path d="M45.16,38.51v17.77h4.31v4.31h-12.93v-4.31h4.31v-13.46h-4.31v-4.31h8.62M47.04,36.63h-12.38v8.07h4.31v9.7h-4.31v8.07h16.69v-8.07h-4.31v-17.77h0Z"/>
    </g>
  </g>
  <circle id="Outer" cx="43" cy="43" r="36.98" fill="none" stroke="#000" stroke-width="12.04"/>
</svg>