<?xml version="1.0" encoding="UTF-8"?>
<svg id="Layer_1" xmlns="http://www.w3.org/2000/svg" version="1.1" viewBox="0 0 86 86">
  <!-- Generator: Adobe Illustrator 30.1.0, SVG Export Plug-In . SVG Version: 2.1.1 Build 136)  -->
  <g>
    <g>
      <rect x="39.95" y="22.87" width="6.1" height="6.1"/>
      <path d="M45.38,23.54v4.75h-4.75v-4.75h4.75M46.72,22.2h-7.44v7.44h7.44v-7.44h0Z"/>
    </g>
    <g>
      <polygon points="35.2 62.87 35.2 56.77 39.95 56.77 39.95 43.27 35.2 43.27 35.2 37.17 46.05 37.17 46.05 56.77 50.8 56.77 50.8 62.87 35.2 62.87"/>
      <path d="M45.38,37.85v19.6h4.75v4.75h-14.26v-4.75h4.75v-14.84h-4.75v-4.75h9.51M46.72,36.5h-12.2v7.44h4.75v12.16h-4.75v7.44h16.95v-7.44h-4.75v-19.6h0Z"/>
    </g>
  </g>
  <circle id="Outer" cx="43" cy="43" r="38.5" fill="none" stroke="#000" stroke-width="9"/>
</svg>