<?xml version="1.0" encoding="UTF-8"?>
<svg id="Layer_1" xmlns="http://www.w3.org/2000/svg" version="1.1" viewBox="0 0 86 86">
  <!-- Generator: Adobe Illustrator 30.1.0, SVG Export Plug-In . SVG Version: 2.1.1 Build 136)  -->
  <g>
    <g>
      <rect x="39.85" y="25.06" width="6.29" height="6.29"/>
      <path d="M44.94,26.27v3.87h-3.87v-3.87h3.87M47.36,23.85h-8.71v8.71h8.71v-8.71h0Z"/>
    </g>
    <g>
      <polygon points="35.98 60.22 35.98 53.92 39.85 53.92 39.85 44.25 35.98 44.25 35.98 37.95 46.15 37.95 46.15 53.92 50.02 53.92 50.02 60.22 35.98 60.22"/>
      <path d="M44.94,39.16v15.97h3.87v3.87h-11.62v-3.87h3.87v-12.1h-3.87v-3.87h7.75M47.36,36.74h-12.59v8.71h3.87v7.26h-3.87v8.71h16.46v-8.71h-3.87v-15.97h0Z"/>
    </g>
  </g>
  <circle id="Outer" cx="43" cy="43" r="35.46" fill="none" stroke="#000" stroke-width="15.08"/>
</svg>