<?xml version="1.0" encoding="UTF-8"?>
<svg id="Layer_1" xmlns="http://www.w3.org/2000/svg" version="1.1" viewBox="0 0 67 67">
  <!-- Generator: Adobe Illustrator 30.1.0, SVG Export Plug-In . SVG Version: 2.1.1 Build 136)  -->
  <g>
    <g>
      <rect x="31.09" y="18.67" width="4.82" height="4.82"/>
      <path d="M35.18,19.4v3.36h-3.36v-3.36h3.36M36.64,17.94h-6.29v6.29h6.29v-6.29h0Z"/>
    </g>
    <g>
      <polygon points="27.73 47.94 27.73 43.12 31.09 43.12 31.09 34.1 27.73 34.1 27.73 29.27 35.91 29.27 35.91 43.12 39.27 43.12 39.27 47.94 27.73 47.94"/>
      <path d="M35.18,30v13.84h3.36v3.36h-10.07v-3.36h3.36v-10.48h-3.36v-3.36h6.72M36.64,28.54h-9.65v6.29h3.36v7.55h-3.36v6.29h13.01v-6.29h-3.36v-13.84h0Z"/>
    </g>
  </g>
  <circle id="Outer" cx="33.5" cy="33.5" r="28.81" fill="none" stroke="#000" stroke-width="9.38"/>
</svg>