<?xml version="1.0" encoding="UTF-8"?>
<svg id="Layer_1" xmlns="http://www.w3.org/2000/svg" version="1.1" viewBox="0 0 61 61">
  <!-- Generator: Adobe Illustrator 30.1.0, SVG Export Plug-In . SVG Version: 2.1.1 Build 136)  -->
  <path d="M30.5,10.69c.64,0,1.29.33,1.62,1l4.14,8.23c.71,1.41,2.04,2.41,3.59,2.7l8.96,1.68c1.4.26,1.97,1.97,1.01,3.02l-6.53,7.17c-1.01,1.11-1.48,2.6-1.28,4.09l1.27,9.66c.15,1.15-.77,2.07-1.8,2.07-.27,0-.56-.06-.83-.21l-7.84-4.04c-.73-.37-1.52-.56-2.32-.56s-1.59.19-2.32.56l-7.84,4.04c-.27.14-.56.21-.83.21-1.04,0-1.96-.91-1.8-2.07l1.27-9.67c.2-1.48-.27-2.98-1.28-4.08l-6.53-7.17c-.96-1.06-.39-2.76,1.01-3.02l8.96-1.68c1.55-.29,2.88-1.29,3.59-2.7l4.14-8.23c.34-.67.98-1,1.62-1M30.5,0C25.75,0,21.46,2.64,19.32,6.88l-2.89,5.74-6.22,1.17c-4.46.84-8.12,4.03-9.56,8.33-1.44,4.3-.44,9.06,2.62,12.41l4.77,5.24-.93,7.08c-.47,3.58.62,7.18,2.99,9.89,2.38,2.72,5.81,4.27,9.41,4.27,1.98,0,3.96-.48,5.73-1.39l5.26-2.71,5.26,2.71c1.77.91,3.75,1.39,5.73,1.39,3.6,0,7.03-1.56,9.41-4.27,2.37-2.71,3.46-6.31,2.99-9.89l-.93-7.08,4.77-5.24c3.06-3.35,4.06-8.11,2.62-12.41-1.44-4.3-5.1-7.49-9.56-8.33l-6.22-1.17-2.89-5.74C39.54,2.64,35.25,0,30.5,0h0Z"/>
</svg>