<?xml version="1.0" encoding="UTF-8"?>
<svg id="Layer_1" xmlns="http://www.w3.org/2000/svg" version="1.1" viewBox="0 0 20 20">
  <!-- Generator: Adobe Illustrator 30.1.0, SVG Export Plug-In . SVG Version: 2.1.1 Build 136)  -->
  <path d="M10,2.09c.26,0,.51.13.65.4l1.65,3.28c.28.56.81.96,1.43,1.08l3.58.67c.56.1.79.78.4,1.21l-2.61,2.86c-.4.44-.59,1.04-.51,1.63l.51,3.86c.06.46-.31.82-.72.82-.11,0-.22-.03-.33-.08l-3.13-1.61c-.29-.15-.61-.22-.92-.22s-.63.07-.92.22l-3.13,1.61c-.11.06-.22.08-.33.08-.41,0-.78-.36-.72-.82l.51-3.86c.08-.59-.11-1.19-.51-1.63l-2.61-2.86c-.38-.42-.16-1.1.4-1.21l3.58-.67c.62-.12,1.15-.51,1.43-1.08l1.65-3.28c.13-.27.39-.4.65-.4M10,0C8.93,0,7.96.59,7.48,1.55l-1.64,3.25-3.54.66c-1,.19-1.83.91-2.15,1.88-.32.97-.1,2.04.59,2.8l2.59,2.84-.5,3.83c-.11.81.14,1.62.67,2.23.54.61,1.31.96,2.12.96.45,0,.89-.11,1.29-.31l3.1-1.59,3.1,1.59c.4.21.85.31,1.29.31.81,0,1.58-.35,2.12-.96.53-.61.78-1.42.67-2.23l-.5-3.83,2.59-2.84c.69-.76.91-1.83.59-2.8-.32-.97-1.15-1.69-2.15-1.88l-3.54-.66-1.64-3.25C12.04.59,11.07,0,10,0h0Z"/>
</svg>