<?xml version="1.0" encoding="UTF-8"?>
<svg id="Layer_1" xmlns="http://www.w3.org/2000/svg" version="1.1" viewBox="0 0 20 20">
  <!-- Generator: Adobe Illustrator 30.1.0, SVG Export Plug-In . SVG Version: 2.1.1 Build 136)  -->
  <path d="M10,2.8c.23,0,.47.12.59.36l1.51,2.99c.26.51.74.88,1.3.98l3.26.61c.51.1.72.71.37,1.1l-2.37,2.61c-.37.4-.54.95-.47,1.49l.46,3.51c.06.42-.28.75-.66.75-.1,0-.2-.02-.3-.07l-2.85-1.47c-.26-.14-.55-.2-.84-.2s-.58.07-.84.2l-2.85,1.47c-.1.05-.2.07-.3.07-.38,0-.71-.33-.66-.75l.46-3.51c.07-.54-.1-1.08-.46-1.48l-2.37-2.61c-.35-.38-.14-1,.37-1.1l3.26-.61c.56-.11,1.05-.47,1.3-.98l1.51-2.99c.12-.24.36-.36.59-.36M10,0C8.68,0,7.5.73,6.91,1.9l-1.29,2.57-2.79.52c-1.23.23-2.25,1.11-2.64,2.3-.4,1.19-.12,2.51.72,3.43l2.07,2.28-.41,3.07c-.13.99.17,1.99.83,2.73.66.75,1.61,1.18,2.6,1.18.55,0,1.09-.13,1.58-.39l2.41-1.24,2.41,1.24c.49.25,1.04.39,1.58.39,1,0,1.95-.43,2.6-1.18.66-.75.96-1.75.83-2.73l-.41-3.07,2.08-2.28c.85-.93,1.12-2.24.72-3.43-.4-1.19-1.41-2.07-2.64-2.3l-2.79-.52-1.29-2.57C12.5.73,11.31,0,10,0h0Z"/>
</svg>