<?xml version="1.0" encoding="UTF-8"?>
<svg id="Layer_1" xmlns="http://www.w3.org/2000/svg" version="1.1" viewBox="0 0 20 20">
  <!-- Generator: Adobe Illustrator 30.1.0, SVG Export Plug-In . SVG Version: 2.1.1 Build 136)  -->
  <path d="M10,3.51c.21,0,.42.11.53.33l1.36,2.7c.23.46.67.79,1.18.89l2.94.55c.46.09.65.64.33.99l-2.14,2.35c-.33.36-.48.85-.42,1.34l.42,3.17c.05.38-.25.68-.59.68-.09,0-.18-.02-.27-.07l-2.57-1.32c-.24-.12-.5-.18-.76-.18s-.52.06-.76.18l-2.57,1.32c-.09.05-.18.07-.27.07-.34,0-.64-.3-.59-.68l.42-3.17c.06-.49-.09-.98-.42-1.34l-2.14-2.35c-.32-.35-.13-.91.33-.99l2.94-.55c.51-.1.94-.42,1.18-.88l1.36-2.7c.11-.22.32-.33.53-.33M10,0c-1.56,0-2.96.86-3.66,2.26l-.95,1.88-2.04.38c-1.46.27-2.66,1.32-3.13,2.73-.47,1.41-.14,2.97.86,4.07l1.56,1.72-.31,2.32c-.15,1.17.2,2.35.98,3.24.78.89,1.91,1.4,3.09,1.4.65,0,1.3-.16,1.88-.46l1.72-.89,1.72.89c.58.3,1.23.46,1.88.46,1.18,0,2.31-.51,3.09-1.4.78-.89,1.14-2.07.98-3.24l-.31-2.32,1.56-1.72c1-1.1,1.33-2.66.86-4.07-.47-1.41-1.67-2.46-3.13-2.73l-2.04-.38-.95-1.88c-.7-1.39-2.11-2.26-3.66-2.26h0Z"/>
</svg>