<?xml version="1.0" encoding="UTF-8"?>
<svg id="Layer_1" xmlns="http://www.w3.org/2000/svg" version="1.1" viewBox="0 0 16 16">
  <!-- Generator: Adobe Illustrator 30.1.0, SVG Export Plug-In . SVG Version: 2.1.1 Build 136)  -->
  <path d="M8,2.81c.17,0,.34.09.43.26l1.09,2.16c.19.37.53.63.94.71l2.35.44c.37.07.52.52.26.79l-1.71,1.88c-.26.29-.39.68-.34,1.07l.33,2.53c.04.3-.2.54-.47.54-.07,0-.15-.02-.22-.05l-2.06-1.06c-.19-.1-.4-.15-.61-.15s-.42.05-.61.15l-2.06,1.06c-.07.04-.15.05-.22.05-.27,0-.51-.24-.47-.54l.33-2.54c.05-.39-.07-.78-.34-1.07l-1.71-1.88c-.25-.28-.1-.72.26-.79l2.35-.44c.41-.08.75-.34.94-.71l1.09-2.16c.09-.18.26-.26.43-.26M8,0C6.75,0,5.63.69,5.07,1.81l-.76,1.51-1.63.31c-1.17.22-2.13,1.06-2.51,2.18-.38,1.13-.11,2.38.69,3.26l1.25,1.37-.24,1.86c-.12.94.16,1.88.78,2.59.62.71,1.52,1.12,2.47,1.12.52,0,1.04-.13,1.5-.37l1.38-.71,1.38.71c.46.24.98.37,1.5.37.94,0,1.84-.41,2.47-1.12.62-.71.91-1.65.78-2.59l-.24-1.86,1.25-1.37c.8-.88,1.06-2.13.69-3.26-.38-1.13-1.34-1.96-2.51-2.18l-1.63-.31-.76-1.51C10.37.69,9.25,0,8,0h0Z"/>
</svg>