<?xml version="1.0" encoding="UTF-8"?>
<svg id="Layer_1" xmlns="http://www.w3.org/2000/svg" version="1.1" viewBox="0 0 62 62">
  <!-- Generator: Adobe Illustrator 30.1.0, SVG Export Plug-In . SVG Version: 2.1.1 Build 136)  -->
  <path d="M31,10.87c.65,0,1.31.34,1.65,1.02l4.21,8.36c.72,1.43,2.07,2.45,3.65,2.74l9.11,1.71c1.42.27,2,2,1.03,3.07l-6.64,7.28c-1.02,1.12-1.5,2.64-1.3,4.15l1.3,9.82c.15,1.17-.78,2.1-1.83,2.1-.28,0-.57-.07-.85-.21l-7.97-4.1c-.74-.38-1.55-.57-2.35-.57s-1.62.19-2.35.57l-7.97,4.1c-.28.14-.57.21-.85.21-1.05,0-1.99-.93-1.83-2.1l1.3-9.83c.2-1.51-.28-3.03-1.3-4.15l-6.64-7.28c-.98-1.07-.4-2.81,1.03-3.07l9.11-1.71c1.58-.3,2.92-1.31,3.65-2.74l4.21-8.36c.34-.68,1-1.02,1.65-1.02M31,0C26.17,0,21.82,2.68,19.64,7l-2.94,5.83-6.32,1.19c-4.53.85-8.25,4.09-9.72,8.46-1.46,4.37-.45,9.21,2.66,12.61l4.85,5.32-.95,7.19c-.48,3.63.63,7.3,3.04,10.05,2.42,2.76,5.91,4.34,9.57,4.34,2.01,0,4.02-.49,5.82-1.41l5.35-2.75,5.35,2.75c1.8.93,3.81,1.41,5.82,1.41,3.66,0,7.15-1.58,9.57-4.34,2.41-2.75,3.52-6.41,3.04-10.05l-.95-7.19,4.85-5.32c3.11-3.41,4.12-8.24,2.66-12.61-1.46-4.37-5.19-7.61-9.72-8.46l-6.33-1.19-2.94-5.83C40.18,2.68,35.83,0,31,0h0Z"/>
</svg>