<?xml version="1.0" encoding="UTF-8"?>
<svg id="Layer_1" xmlns="http://www.w3.org/2000/svg" version="1.1" viewBox="0 0 62 62">
  <!-- Generator: Adobe Illustrator 30.1.0, SVG Export Plug-In . SVG Version: 2.1.1 Build 136)  -->
  <path d="M31,8.68c.73,0,1.45.38,1.83,1.13l4.67,9.27c.8,1.59,2.3,2.72,4.04,3.04l10.1,1.89c1.58.3,2.22,2.22,1.14,3.4l-7.36,8.08c-1.14,1.25-1.66,2.93-1.44,4.6l1.44,10.89c.17,1.3-.86,2.33-2.03,2.33-.31,0-.63-.07-.94-.23l-8.84-4.55c-.82-.42-1.71-.63-2.61-.63-.9,0-1.79.21-2.61.63l-8.84,4.55c-.31.16-.63.23-.94.23-1.17,0-2.2-1.03-2.03-2.33l1.44-10.89c.22-1.67-.31-3.35-1.44-4.6l-7.36-8.08c-1.08-1.19-.44-3.11,1.14-3.41l10.1-1.89c1.75-.33,3.24-1.45,4.04-3.04l4.67-9.27c.38-.75,1.1-1.13,1.83-1.13M31,0C26.92,0,23.25,2.26,21.42,5.9l-4.01,7.96-8.65,1.62c-3.82.72-6.96,3.45-8.2,7.14-1.24,3.69-.38,7.77,2.24,10.64l6.43,7.06-1.26,9.53c-.4,3.07.53,6.16,2.56,8.48,2.04,2.33,4.99,3.67,8.07,3.67,1.7,0,3.39-.41,4.91-1.19l7.47-3.85,7.47,3.85c1.52.78,3.22,1.19,4.91,1.19,3.09,0,6.03-1.34,8.07-3.67,2.03-2.32,2.97-5.41,2.56-8.48l-1.26-9.53,6.43-7.06c2.62-2.88,3.48-6.95,2.24-10.64-1.24-3.69-4.38-6.42-8.2-7.14l-8.65-1.62-4.01-7.96C38.75,2.26,35.08,0,31,0h0Z"/>
</svg>