<?xml version="1.0" encoding="UTF-8"?>
<svg id="Layer_1" xmlns="http://www.w3.org/2000/svg" version="1.1" viewBox="0 0 42 42">
  <!-- Generator: Adobe Illustrator 30.1.0, SVG Export Plug-In . SVG Version: 2.1.1 Build 136)  -->
  <g>
    <g>
      <rect x="19.46" y="12.24" width="3.07" height="3.07"/>
      <path d="M21.95,12.83v1.89h-1.89v-1.89h1.89M23.13,11.65h-4.25v4.25h4.25v-4.25h0Z"/>
    </g>
    <g>
      <polygon points="17.57 29.41 17.57 26.33 19.46 26.33 19.46 21.61 17.57 21.61 17.57 18.53 22.54 18.53 22.54 26.33 24.43 26.33 24.43 29.41 17.57 29.41"/>
      <path d="M21.95,19.12v7.8h1.89v1.89h-5.68v-1.89h1.89v-5.91h-1.89v-1.89h3.78M23.13,17.94h-6.15v4.25h1.89v3.55h-1.89v4.25h8.04v-4.25h-1.89v-7.8h0Z"/>
    </g>
  </g>
  <circle id="Outer" cx="21" cy="21" r="17.32" fill="none" stroke="#000" stroke-width="7.36"/>
</svg>