<?xml version="1.0" encoding="UTF-8"?>
<svg id="Layer_1" xmlns="http://www.w3.org/2000/svg" version="1.1" viewBox="0 0 42 42">
  <!-- Generator: Adobe Illustrator 30.1.0, SVG Export Plug-In . SVG Version: 2.1.1 Build 136)  -->
  <g>
    <g>
      <rect x="19.49" y="11.7" width="3.02" height="3.02"/>
      <path d="M22.05,12.16v2.11h-2.11v-2.11h2.11M22.97,11.24h-3.94v3.94h3.94v-3.94h0Z"/>
    </g>
    <g>
      <polygon points="17.38 30.05 17.38 27.03 19.49 27.03 19.49 21.37 17.38 21.37 17.38 18.35 22.51 18.35 22.51 27.03 24.62 27.03 24.62 30.05 17.38 30.05"/>
      <path d="M22.05,18.81v8.68h2.11v2.11h-6.32v-2.11h2.11v-6.57h-2.11v-2.11h4.21M22.97,17.89h-6.05v3.94h2.11v4.73h-2.11v3.94h8.15v-3.94h-2.11v-8.68h0Z"/>
    </g>
  </g>
  <circle id="Outer" cx="21" cy="21" r="18.06" fill="none" stroke="#000" stroke-width="5.88"/>
</svg>