<?xml version="1.0" encoding="UTF-8"?>
<svg id="Layer_1" xmlns="http://www.w3.org/2000/svg" version="1.1" viewBox="0 0 65 65">
  <!-- Generator: Adobe Illustrator 30.1.0, SVG Export Plug-In . SVG Version: 2.1.1 Build 136)  -->
  <circle id="Outer" cx="32.5" cy="32.5" r="26.8" fill="none" stroke="#000" stroke-width="11.4"/>
  <g>
    <g>
      <rect x="30.42" y="41.05" width="4.12" height="4.12"/>
      <path d="M33.63,41.96v2.29h-2.29v-2.29h2.29M35.46,40.13h-5.95v5.95h5.95v-5.95h0Z"/>
    </g>
    <g>
      <path d="M30.44,37.03l-.02-1.77c0-1.32.49-2.58,1.37-3.55l2.27-2.51c.47-.52.73-1.19.73-1.89,0-.85-.7-1.54-1.56-1.54h-1.46c-.86,0-1.56.69-1.56,1.54v.91h-4.14v-.91c0-3.12,2.55-5.66,5.7-5.66h1.46c3.14,0,5.7,2.54,5.7,5.66,0,1.72-.63,3.36-1.79,4.64l-2.27,2.51c-.2.23-.31.5-.31.79l-.02,1.78h-4.1Z"/>
      <path d="M33.23,22.57c2.64,0,4.78,2.13,4.78,4.75,0,1.49-.55,2.92-1.55,4.03l-2.27,2.51c-.35.39-.55.87-.55,1.39v.87h-2.3v-.87c0-1.09.4-2.12,1.13-2.93l2.27-2.51c.62-.69.96-1.57.96-2.5,0-1.35-1.11-2.45-2.47-2.45h-1.46c-1.36,0-2.47,1.1-2.47,2.45h-2.31c0-2.62,2.14-4.75,4.78-4.75h1.46M33.23,20.74h-1.46c-3.64,0-6.61,2.95-6.61,6.58v1.83h5.97v-1.83c0-.35.29-.63.64-.63h1.46c.35,0,.64.28.64.63,0,.47-.17.92-.49,1.27l-2.27,2.51c-1.03,1.14-1.6,2.61-1.61,4.15v.89s.02,1.81.02,1.81h5.91l.02-1.81v-.87c0-.06.02-.11.08-.19l2.27-2.51c1.3-1.45,2.02-3.31,2.02-5.25,0-3.63-2.97-6.58-6.61-6.58h0Z"/>
    </g>
  </g>
</svg>