<?xml version="1.0" encoding="UTF-8"?>
<svg id="Layer_1" xmlns="http://www.w3.org/2000/svg" version="1.1" viewBox="0 0 22 22">
  <!-- Generator: Adobe Illustrator 30.1.0, SVG Export Plug-In . SVG Version: 2.1.1 Build 136)  -->
  <circle id="Outer" cx="11" cy="11" r="9.46" fill="none" stroke="#000" stroke-width="3.08"/>
  <g>
    <g>
      <rect x="10.3" y="14.19" width="1.38" height="1.38"/>
      <path d="M11.44,14.43v.9h-.9v-.9h.9M11.93,13.95h-1.86v1.86h1.86v-1.86h0Z"/>
    </g>
    <g>
      <path d="M10.31,12.75v-.58c0-.49.18-.95.5-1.32l.89-.99c.2-.23.32-.52.32-.82,0-.4-.33-.73-.73-.73h-.57c-.4,0-.73.33-.73.73v.24h-1.39v-.24c0-1.16.95-2.11,2.12-2.11h.57c1.17,0,2.12.95,2.12,2.11,0,.65-.24,1.27-.67,1.75l-.89.99c-.1.11-.15.25-.15.39v.58h-1.38Z"/>
      <path d="M11.29,7.18c1.04,0,1.88.84,1.88,1.87,0,.59-.22,1.15-.61,1.59l-.89.99c-.14.15-.21.34-.22.55v.34h-.9v-.34c0-.43.16-.83.44-1.15l.89-.99c.24-.27.38-.62.38-.98,0-.53-.44-.97-.97-.97h-.57c-.54,0-.97.43-.97.97h-.91c0-1.03.84-1.87,1.88-1.87h.57M11.29,6.7h-.57c-1.3,0-2.36,1.05-2.36,2.35v.48h1.87v-.48c0-.27.22-.48.49-.48h.57c.27,0,.49.22.49.48,0,.24-.09.48-.25.66l-.89.99c-.37.4-.57.93-.57,1.47v.35s0,.48,0,.48h1.85v-.48s0-.34,0-.34c0-.09.03-.16.09-.23l.89-.99c.47-.52.73-1.2.73-1.91,0-1.3-1.06-2.35-2.36-2.35h0Z"/>
    </g>
  </g>
</svg>