<?xml version="1.0" encoding="UTF-8"?>
<svg id="Layer_1" xmlns="http://www.w3.org/2000/svg" version="1.1" viewBox="0 0 31 31">
  <!-- Generator: Adobe Illustrator 30.1.0, SVG Export Plug-In . SVG Version: 2.1.1 Build 136)  -->
  <path d="M15.5,5.43c.33,0,.65.17.83.51l2.11,4.18c.36.72,1.04,1.22,1.82,1.37l4.56.85c.71.13,1,1,.51,1.54l-3.32,3.64c-.51.56-.75,1.32-.65,2.08l.65,4.91c.08.59-.39,1.05-.92,1.05-.14,0-.28-.03-.42-.1l-3.98-2.05c-.37-.19-.77-.29-1.18-.29s-.81.1-1.18.29l-3.98,2.05c-.14.07-.28.1-.42.1-.53,0-.99-.46-.92-1.05l.65-4.91c.1-.75-.14-1.51-.65-2.07l-3.32-3.64c-.49-.54-.2-1.4.51-1.54l4.56-.85c.79-.15,1.46-.65,1.82-1.37l2.11-4.18c.17-.34.5-.51.83-.51M15.5,0C13.08,0,10.91,1.34,9.82,3.5l-1.47,2.92-3.16.59c-2.26.42-4.13,2.05-4.86,4.23-.73,2.19-.22,4.6,1.33,6.31l2.42,2.66-.47,3.6c-.24,1.82.31,3.65,1.52,5.02,1.21,1.38,2.95,2.17,4.78,2.17,1.01,0,2.01-.24,2.91-.71l2.67-1.38,2.67,1.38c.9.46,1.91.71,2.91.71,1.83,0,3.57-.79,4.78-2.17,1.21-1.38,1.76-3.21,1.52-5.02l-.47-3.6,2.43-2.66c1.55-1.7,2.06-4.12,1.33-6.31-.73-2.19-2.59-3.81-4.86-4.23l-3.16-.59-1.47-2.92C20.09,1.34,17.92,0,15.5,0h0Z"/>
</svg>