<?xml version="1.0" encoding="UTF-8"?>
<svg id="Layer_1" xmlns="http://www.w3.org/2000/svg" version="1.1" viewBox="0 0 31 31">
  <!-- Generator: Adobe Illustrator 30.1.0, SVG Export Plug-In . SVG Version: 2.1.1 Build 136)  -->
  <path d="M15.5,3.25c.4,0,.8.21,1.01.62l2.56,5.09c.44.87,1.26,1.49,2.22,1.67l5.55,1.04c.87.16,1.22,1.22.62,1.87l-4.04,4.43c-.62.68-.91,1.61-.79,2.53l.79,5.98c.09.71-.47,1.28-1.12,1.28-.17,0-.35-.04-.51-.13l-4.85-2.5c-.45-.23-.94-.35-1.43-.35-.49,0-.98.12-1.43.35l-4.85,2.5c-.17.09-.34.13-.51.13-.64,0-1.21-.56-1.12-1.28l.79-5.98c.12-.92-.17-1.84-.79-2.53l-4.04-4.43c-.6-.65-.24-1.71.62-1.87l5.55-1.04c.96-.18,1.78-.8,2.22-1.67l2.56-5.09c.21-.41.61-.62,1.01-.62M15.5,0C13.84,0,12.34.92,11.6,2.41l-2.54,5.04-5.49,1.03c-1.56.29-2.84,1.41-3.34,2.91-.5,1.5-.15,3.17.91,4.34l4.01,4.4-.78,5.93c-.16,1.25.22,2.51,1.04,3.45.83.95,2.03,1.49,3.29,1.49.69,0,1.38-.17,2-.49l4.8-2.47,4.8,2.47c.62.32,1.31.49,2,.49,1.26,0,2.46-.54,3.29-1.49.83-.94,1.21-2.2,1.04-3.45l-.78-5.93,4.01-4.4c1.07-1.17,1.42-2.83.91-4.34-.5-1.5-1.78-2.62-3.34-2.91l-5.49-1.03-2.54-5.04C18.66.92,17.16,0,15.5,0h0Z"/>
</svg>