<?xml version="1.0" encoding="UTF-8"?>
<svg id="Layer_1" xmlns="http://www.w3.org/2000/svg" version="1.1" viewBox="0 0 35 35">
  <!-- Generator: Adobe Illustrator 30.1.0, SVG Export Plug-In . SVG Version: 2.1.1 Build 136)  -->
  <g>
    <g>
      <rect x="16.26" y="9.31" width="2.48" height="2.48"/>
      <path d="M18.47,9.58v1.94h-1.94v-1.94h1.94M19.01,9.03h-3.03v3.03h3.03v-3.03h0Z"/>
    </g>
    <g>
      <polygon points="14.32 25.59 14.32 23.1 16.26 23.1 16.26 17.61 14.32 17.61 14.32 15.13 18.74 15.13 18.74 23.1 20.68 23.1 20.68 25.59 14.32 25.59"/>
      <path d="M18.47,15.4v7.98h1.93v1.93h-5.81v-1.93h1.93v-6.04h-1.93v-1.93h3.87M19.01,14.86h-4.96v3.03h1.93v4.95h-1.93v3.03h6.9v-3.03h-1.93v-7.98h0Z"/>
    </g>
  </g>
  <circle id="Outer" cx="17.5" cy="17.5" r="15.67" fill="none" stroke="#000" stroke-width="3.66"/>
</svg>