<?xml version="1.0" encoding="UTF-8"?>
<svg id="Layer_1" xmlns="http://www.w3.org/2000/svg" version="1.1" viewBox="0 0 35 35">
  <!-- Generator: Adobe Illustrator 30.1.0, SVG Export Plug-In . SVG Version: 2.1.1 Build 136)  -->
  <g>
    <g>
      <rect x="16.24" y="9.75" width="2.52" height="2.52"/>
      <path d="M18.38,10.14v1.75h-1.75v-1.75h1.75M19.14,9.37h-3.29v3.29h3.29v-3.29h0Z"/>
    </g>
    <g>
      <polygon points="14.49 25.04 14.49 22.52 16.24 22.52 16.24 17.81 14.49 17.81 14.49 15.29 18.76 15.29 18.76 22.52 20.51 22.52 20.51 25.04 14.49 25.04"/>
      <path d="M18.38,15.67v7.23h1.75v1.75h-5.26v-1.75h1.75v-5.48h-1.75v-1.75h3.51M19.14,14.91h-5.04v3.29h1.75v3.95h-1.75v3.29h6.79v-3.29h-1.75v-7.23h0Z"/>
    </g>
  </g>
  <circle id="Outer" cx="17.5" cy="17.5" r="15.05" fill="none" stroke="#000" stroke-width="4.9"/>
</svg>