<?xml version="1.0" encoding="UTF-8"?>
<svg id="Layer_1" xmlns="http://www.w3.org/2000/svg" version="1.1" viewBox="0 0 104 104">
  <!-- Generator: Adobe Illustrator 30.1.0, SVG Export Plug-In . SVG Version: 2.1.1 Build 136)  -->
  <path d="M52,10.89c1.34,0,2.67.69,3.37,2.08l8.6,17.07c1.48,2.93,4.23,5,7.45,5.61l18.61,3.49c2.91.55,4.09,4.08,2.09,6.27l-13.56,14.88c-2.09,2.3-3.06,5.4-2.66,8.48l2.65,20.06c.32,2.39-1.59,4.29-3.74,4.29-.57,0-1.16-.13-1.73-.43l-16.28-8.38c-1.51-.78-3.16-1.17-4.81-1.17s-3.3.39-4.81,1.17l-16.28,8.38c-.57.29-1.16.43-1.73.43-2.15,0-4.06-1.9-3.74-4.29l2.65-20.07c.41-3.08-.57-6.18-2.66-8.47l-13.56-14.88c-2-2.19-.82-5.73,2.09-6.28l18.61-3.49c3.22-.6,5.97-2.67,7.44-5.6l8.6-17.08c.7-1.39,2.04-2.08,3.37-2.08M52,0c-5.57,0-10.59,3.09-13.1,8.07l-8.52,16.91-18.42,3.45c-5.22.98-9.52,4.72-11.2,9.76-1.69,5.04-.51,10.62,3.07,14.55l13.45,14.75-2.63,19.9c-.55,4.19.72,8.42,3.5,11.58,2.79,3.19,6.82,5.01,11.04,5.01,2.31,0,4.64-.57,6.71-1.63l16.1-8.29,16.1,8.29c2.08,1.07,4.4,1.63,6.71,1.63,4.22,0,8.24-1.83,11.04-5.02,2.78-3.17,4.05-7.39,3.5-11.58l-2.63-19.9,13.45-14.76c3.58-3.93,4.76-9.51,3.07-14.55-1.69-5.04-5.98-8.78-11.2-9.76l-18.42-3.45-8.52-16.91c-2.51-4.98-7.53-8.07-13.1-8.07h0Z"/>
</svg>