<?xml version="1.0" encoding="UTF-8"?>
<svg id="Layer_1" xmlns="http://www.w3.org/2000/svg" version="1.1" viewBox="0 0 9 9">
  <!-- Generator: Adobe Illustrator 30.1.0, SVG Export Plug-In . SVG Version: 2.1.1 Build 136)  -->
  <circle id="Outer" cx="4.5" cy="4.5" r="3.71" fill="none" stroke="#000" stroke-width="1.58"/>
  <g>
    <g>
      <rect x="4.21" y="5.68" width=".57" height=".57"/>
      <path d="M4.66,5.81v.32h-.32v-.32h.32M4.91,5.56h-.82v.82h.82v-.82h0Z"/>
    </g>
    <g>
      <path d="M4.21,5.13v-.25c0-.18.07-.36.19-.49l.31-.35c.06-.07.1-.16.1-.26,0-.12-.1-.21-.22-.21h-.2c-.12,0-.22.1-.22.21v.13h-.57v-.13c0-.43.35-.78.79-.78h.2c.44,0,.79.35.79.78,0,.24-.09.47-.25.64l-.31.35s-.04.07-.04.11v.25h-.57Z"/>
      <path d="M4.6,3.13c.37,0,.66.29.66.66,0,.21-.08.4-.21.56l-.31.35c-.05.05-.08.12-.08.19v.12h-.32v-.12c0-.15.05-.29.16-.41l.31-.35c.09-.1.13-.22.13-.35,0-.19-.15-.34-.34-.34h-.2c-.19,0-.34.15-.34.34h-.32c0-.36.3-.66.66-.66h.2M4.6,2.87h-.2c-.5,0-.92.41-.92.91v.25h.83v-.25s.04-.09.09-.09h.2s.09.04.09.09c0,.07-.02.13-.07.18l-.31.35c-.14.16-.22.36-.22.57v.12s0,.25,0,.25h.82v-.25s0-.12,0-.12l.32-.37c.18-.2.28-.46.28-.73,0-.5-.41-.91-.92-.91h0Z"/>
    </g>
  </g>
</svg>