<?xml version="1.0" encoding="UTF-8"?>
<svg id="Layer_1" xmlns="http://www.w3.org/2000/svg" version="1.1" viewBox="0 0 9 9">
  <!-- Generator: Adobe Illustrator 30.1.0, SVG Export Plug-In . SVG Version: 2.1.1 Build 136)  -->
  <circle id="Outer" cx="4.5" cy="4.5" r="4.03" fill="none" stroke="#000" stroke-width=".94"/>
  <g>
    <g>
      <polygon points="4.29 6.49 4.22 6 4.71 5.93 4.78 6.42 4.78 6.49 4.29 6.49"/>
      <path d="M4.71,6v.42h-.42v-.42h.42M4.85,5.86h-.7v.7h.7v-.7h0Z"/>
    </g>
    <g>
      <path d="M4.29,5.31l-.07-.23c0-.22.08-.43.23-.59l.42-.46c.1-.11.16-.26.16-.41,0-.21-.17-.38-.39-.38h-.27c-.21,0-.39.17-.39.38l-.5.07c-.07-.59.36-1.02.88-1.02h.27c.52,0,.95.42.95.95,0,.29-.11.57-.3.79l-.42.46c-.05.06-.08.13-.08.21v.23h-.49Z"/>
      <path d="M4.63,2.74c.49,0,.88.39.88.88,0,.27-.1.54-.29.74l-.42.46c-.06.07-.1.16-.1.26v.16h-.42v-.16c0-.2.07-.39.21-.54l.42-.46c.11-.13.18-.29.18-.46,0-.25-.2-.45-.46-.45h-.27c-.25,0-.46.2-.46.45h-.43c0-.48.4-.88.88-.88h.27M4.63,2.6h-.27c-.56,0-1.02.46-1.02,1.02v.14h.71v-.14c0-.17.14-.31.32-.31h.27c.17,0,.32.14.32.31,0,.14-.05.27-.14.37l-.42.46c-.16.17-.24.4-.25.63v.16s0,.14,0,.14h.7v-.14s0-.16,0-.16c0-.06.02-.12.06-.16l.42-.46c.21-.23.32-.53.32-.84,0-.56-.46-1.02-1.02-1.02h0Z"/>
    </g>
  </g>
</svg>