<?xml version="1.0" encoding="UTF-8"?>
<svg id="Layer_1" xmlns="http://www.w3.org/2000/svg" version="1.1" viewBox="0 0 61 61">
  <!-- Generator: Adobe Illustrator 30.1.0, SVG Export Plug-In . SVG Version: 2.1.1 Build 136)  -->
  <circle id="Outer" cx="30.5" cy="30.5" r="26.23" fill="none" stroke="#000" stroke-width="8.54"/>
  <g>
    <g>
      <rect x="28.57" y="39.35" width="3.83" height="3.83"/>
      <path d="M31.73,40.01v2.5h-2.5v-2.5h2.5M33.07,38.68h-5.17v5.17h5.17v-5.17h0Z"/>
    </g>
    <g>
      <path d="M28.58,35.36v-1.61c0-1.35.49-2.65,1.4-3.65l2.47-2.74c.57-.63.88-1.44.88-2.28,0-1.11-.91-2.01-2.03-2.01h-1.59c-1.12,0-2.03.9-2.03,2.01v.67h-3.85v-.67c0-3.22,2.64-5.85,5.88-5.85h1.59c3.24,0,5.88,2.62,5.88,5.85,0,1.79-.66,3.51-1.87,4.84l-2.47,2.74c-.28.31-.42.68-.43,1.08l-.02,1.61h-3.82Z"/>
      <path d="M31.29,19.91c2.88,0,5.22,2.32,5.22,5.18,0,1.63-.6,3.19-1.69,4.4l-2.47,2.74c-.38.42-.6.95-.6,1.52v.94h-2.51v-.94c0-1.18.43-2.31,1.23-3.19l2.47-2.74c.68-.75,1.05-1.72,1.05-2.72,0-1.48-1.21-2.68-2.7-2.68h-1.59c-1.49,0-2.7,1.2-2.7,2.68h-2.52c0-2.86,2.34-5.18,5.22-5.18h1.59M31.29,18.57h-1.59c-3.61,0-6.55,2.92-6.55,6.51v1.33h5.19v-1.33c0-.74.61-1.34,1.36-1.34h1.59c.75,0,1.36.6,1.36,1.34,0,.68-.25,1.33-.71,1.83l-2.47,2.74c-1.01,1.12-1.58,2.57-1.58,4.08v.96s.02,1.32.02,1.32h5.14v-1.32s.02-.94.02-.94c0-.24.09-.46.25-.64l2.48-2.74c1.31-1.46,2.04-3.33,2.04-5.29,0-3.59-2.94-6.51-6.55-6.51h0Z"/>
    </g>
  </g>
</svg>