<?xml version="1.0" encoding="UTF-8"?>
<svg id="Layer_1" xmlns="http://www.w3.org/2000/svg" version="1.1" viewBox="0 0 105 105">
  <!-- Generator: Adobe Illustrator 30.1.0, SVG Export Plug-In . SVG Version: 2.1.1 Build 136)  -->
  <path d="M52.5,18.41c1.11,0,2.22.57,2.8,1.72l7.13,14.16c1.22,2.43,3.51,4.15,6.18,4.65l15.43,2.89c2.41.45,3.39,3.38,1.74,5.2l-11.24,12.34c-1.73,1.9-2.54,4.48-2.2,7.03l2.19,16.63c.26,1.98-1.32,3.56-3.1,3.56-.47,0-.96-.11-1.43-.35l-13.5-6.95c-1.25-.64-2.62-.97-3.99-.97s-2.74.32-3.99.97l-13.5,6.95c-.47.24-.96.35-1.43.35-1.78,0-3.37-1.57-3.1-3.56l2.19-16.64c.34-2.55-.47-5.12-2.2-7.02l-11.24-12.34c-1.66-1.82-.68-4.75,1.74-5.2l15.43-2.89c2.67-.5,4.95-2.22,6.17-4.65l7.13-14.16c.58-1.15,1.69-1.72,2.8-1.72M52.5,0c-8.18,0-15.55,4.54-19.24,11.85l-4.98,9.88-10.71,2.01c-7.67,1.44-13.98,6.93-16.46,14.33-2.48,7.41-.75,15.59,4.51,21.36l8.21,9.01-1.61,12.18c-.81,6.16,1.07,12.36,5.15,17.02,4.1,4.67,10,7.35,16.2,7.35,3.41,0,6.82-.83,9.86-2.4l9.05-4.66,9.05,4.66c3.04,1.57,6.45,2.4,9.86,2.4,6.2,0,12.11-2.68,16.2-7.35,4.08-4.66,5.96-10.86,5.15-17.02l-1.61-12.18,8.22-9.02c5.26-5.77,6.99-13.96,4.51-21.36-2.48-7.4-8.78-12.89-16.46-14.33l-10.71-2.01-4.98-9.88c-3.68-7.31-11.05-11.85-19.24-11.85h0Z"/>
</svg>