<?xml version="1.0" encoding="UTF-8"?>
<svg id="Layer_1" xmlns="http://www.w3.org/2000/svg" version="1.1" viewBox="0 0 111 111">
  <!-- Generator: Adobe Illustrator 30.1.0, SVG Export Plug-In . SVG Version: 2.1.1 Build 136)  -->
  <g>
    <g>
      <rect x="51.56" y="29.52" width="7.87" height="7.87"/>
      <path d="M58.57,30.39v6.14h-6.14v-6.14h6.14M60.3,28.65h-9.61v9.61h9.61v-9.61h0Z"/>
    </g>
    <g>
      <polygon points="45.43 81.15 45.43 73.28 51.56 73.28 51.56 55.85 45.43 55.85 45.43 47.98 59.44 47.98 59.44 73.28 65.57 73.28 65.57 81.15 45.43 81.15"/>
      <path d="M58.57,48.85v25.3h6.14v6.14h-18.41v-6.14h6.14v-19.16h-6.14v-6.14h12.27M60.3,47.11h-15.74v9.61h6.14v15.69h-6.14v9.61h21.88v-9.61h-6.14v-25.3h0Z"/>
    </g>
  </g>
  <circle id="Outer" cx="55.5" cy="55.5" r="49.69" fill="none" stroke="#000" stroke-width="11.62"/>
</svg>