<?xml version="1.0" encoding="UTF-8"?>
<svg id="Layer_1" xmlns="http://www.w3.org/2000/svg" version="1.1" viewBox="0 0 52 52">
  <!-- Generator: Adobe Illustrator 30.1.0, SVG Export Plug-In . SVG Version: 2.1.1 Build 136)  -->
  <circle id="Outer" cx="26" cy="26" r="23.28" fill="none" stroke="#000" stroke-width="5.44"/>
  <g>
    <g>
      <rect x="24.36" y="34.24" width="3.25" height="3.25"/>
      <path d="M27.21,34.64v2.44h-2.44v-2.44h2.44M28.02,33.83h-4.07v4.07h4.07v-4.07h0Z"/>
    </g>
    <g>
      <path d="M24.36,30.7v-1.33c0-1.26.46-2.46,1.3-3.4l2.42-2.68c.59-.66.92-1.51.92-2.39,0-1.22-1-2.21-2.23-2.21h-1.55c-1.23,0-2.23.99-2.23,2.21v.41h-3.28v-.41c0-3.02,2.47-5.47,5.51-5.47h1.55c3.04,0,5.51,2.45,5.51,5.47,0,1.69-.62,3.31-1.76,4.57l-2.42,2.68c-.31.34-.48.77-.48,1.22v1.33h-3.26Z"/>
      <path d="M26.78,15.84c2.81,0,5.1,2.27,5.1,5.06,0,1.59-.59,3.11-1.66,4.3l-2.42,2.68c-.37.41-.58.93-.58,1.49v.92h-2.45v-.92c0-1.16.42-2.26,1.2-3.12l2.42-2.68c.66-.73,1.03-1.68,1.03-2.66,0-1.44-1.18-2.62-2.64-2.62h-1.55c-1.45,0-2.64,1.17-2.64,2.62h-2.46c0-2.79,2.29-5.06,5.1-5.06h1.55M26.78,15.03h-1.55c-3.26,0-5.91,2.64-5.91,5.88v.81h4.09v-.81c0-1,.82-1.8,1.82-1.8h1.55c1.01,0,1.82.81,1.82,1.8,0,.78-.29,1.54-.82,2.12l-2.42,2.68c-.91,1.01-1.41,2.31-1.42,3.66v.93s.02.81.02.81h4.05v-.8s.02-.92.02-.92c0-.35.13-.68.37-.95l2.42-2.68c1.2-1.33,1.87-3.05,1.87-4.84,0-3.24-2.65-5.88-5.91-5.88h0Z"/>
    </g>
  </g>
</svg>