<?xml version="1.0" encoding="UTF-8"?>
<svg id="Layer_1" xmlns="http://www.w3.org/2000/svg" version="1.1" viewBox="0 0 86 86">
  <!-- Generator: Adobe Illustrator 30.1.0, SVG Export Plug-In . SVG Version: 2.1.1 Build 136)  -->
  <circle id="Outer" cx="43" cy="43" r="38.5" fill="none" stroke="#000" stroke-width="9"/>
  <g>
    <g>
      <rect x="40.28" y="56.62" width="5.38" height="5.38"/>
      <path d="M44.99,57.3v4.04h-4.04v-4.04h4.04M46.34,55.95h-6.73v6.73h6.73v-6.73h0Z"/>
    </g>
    <g>
      <path d="M40.29,50.77l-.02-2.19c0-2.08.78-4.08,2.17-5.62l4-4.43c.98-1.09,1.53-2.49,1.53-3.96,0-2.02-1.65-3.66-3.69-3.66h-2.57c-2.03,0-3.69,1.64-3.69,3.66v.67h-5.42v-.67c0-4.99,4.08-9.05,9.11-9.05h2.57c5.02,0,9.11,4.06,9.11,9.05,0,2.79-1.03,5.48-2.91,7.56l-4,4.43c-.52.57-.79,1.27-.79,2.01l-.02,2.2h-5.37Z"/>
      <path d="M44.28,26.2c4.65,0,8.43,3.76,8.43,8.37,0,2.63-.97,5.15-2.74,7.11l-4,4.43c-.62.69-.96,1.54-.97,2.46l-.02,1.53h-4.04v-1.53c0-1.91.7-3.74,1.99-5.16l4-4.43c1.1-1.21,1.7-2.78,1.7-4.41,0-2.39-1.96-4.33-4.36-4.33h-2.57c-2.4,0-4.36,1.94-4.36,4.33h-4.07c0-4.62,3.78-8.37,8.43-8.37h2.57M44.28,24.85h-2.57c-5.39,0-9.78,4.36-9.78,9.72v1.34h6.76v-1.34c0-1.65,1.35-2.98,3.02-2.98h2.57c1.66,0,3.02,1.34,3.02,2.98,0,1.29-.48,2.54-1.35,3.51l-4,4.43c-1.5,1.66-2.34,3.82-2.35,6.06v1.54s.03,1.33.03,1.33h6.7v-1.33s.03-1.53.03-1.53c0-.59.22-1.13.62-1.57l4-4.43c1.99-2.2,3.08-5.05,3.08-8.01,0-5.36-4.39-9.72-9.78-9.72h0Z"/>
    </g>
  </g>
</svg>