<?xml version="1.0" encoding="UTF-8"?>
<svg id="Layer_1" xmlns="http://www.w3.org/2000/svg" version="1.1" viewBox="0 0 25 25">
  <!-- Generator: Adobe Illustrator 30.1.0, SVG Export Plug-In . SVG Version: 2.1.1 Build 136)  -->
  <g>
    <g>
      <rect x="11.6" y="6.97" width="1.8" height="1.8"/>
      <path d="M13.13,7.24v1.25h-1.25v-1.25h1.25M13.67,6.69h-2.35v2.35h2.35v-2.35h0Z"/>
    </g>
    <g>
      <polygon points="10.35 17.89 10.35 16.09 11.6 16.09 11.6 12.72 10.35 12.72 10.35 10.92 13.4 10.92 13.4 16.09 14.65 16.09 14.65 17.89 10.35 17.89"/>
      <path d="M13.13,11.2v5.17h1.25v1.25h-3.76v-1.25h1.25v-3.91h-1.25v-1.25h2.51M13.67,10.65h-3.6v2.35h1.25v2.82h-1.25v2.35h4.85v-2.35h-1.25v-5.17h0Z"/>
    </g>
  </g>
  <circle id="Outer" cx="12.5" cy="12.5" r="10.75" fill="none" stroke="#000" stroke-width="3.5"/>
</svg>