<?xml version="1.0" encoding="UTF-8"?>
<svg id="Layer_1" xmlns="http://www.w3.org/2000/svg" version="1.1" viewBox="0 0 33 33">
  <!-- Generator: Adobe Illustrator 30.1.0, SVG Export Plug-In . SVG Version: 2.1.1 Build 136)  -->
  <path d="M16.5,3.45c.42,0,.85.22,1.07.66l2.73,5.42c.47.93,1.34,1.59,2.36,1.78l5.9,1.11c.92.17,1.3,1.3.66,1.99l-4.3,4.72c-.66.73-.97,1.71-.84,2.69l.84,6.36c.1.76-.5,1.36-1.19,1.36-.18,0-.37-.04-.55-.14l-5.16-2.66c-.48-.25-1-.37-1.53-.37-.52,0-1.05.12-1.53.37l-5.16,2.66c-.18.09-.37.14-.55.14-.68,0-1.29-.6-1.19-1.36l.84-6.37c.13-.98-.18-1.96-.84-2.69l-4.3-4.72c-.63-.7-.26-1.82.66-1.99l5.9-1.11c1.02-.19,1.89-.85,2.36-1.78l2.73-5.42c.22-.44.65-.66,1.07-.66M16.5,0C14.73,0,13.14.98,12.34,2.56l-2.7,5.37-5.84,1.1c-1.66.31-3.02,1.5-3.56,3.1-.54,1.6-.16,3.37.97,4.62l4.27,4.68-.83,6.32c-.18,1.33.23,2.67,1.11,3.68.89,1.01,2.16,1.59,3.5,1.59.73,0,1.47-.18,2.13-.52l5.11-2.63,5.11,2.63c.66.34,1.39.52,2.13.52,1.34,0,2.61-.58,3.5-1.59.88-1.01,1.29-2.35,1.11-3.68l-.83-6.32,4.27-4.68c1.14-1.25,1.51-3.02.97-4.62-.54-1.6-1.9-2.79-3.55-3.1l-5.84-1.1-2.7-5.37C19.86.98,18.27,0,16.5,0h0Z"/>
</svg>