<?xml version="1.0" encoding="UTF-8"?>
<svg id="Layer_1" xmlns="http://www.w3.org/2000/svg" version="1.1" viewBox="0 0 17 17">
  <!-- Generator: Adobe Illustrator 30.1.0, SVG Export Plug-In . SVG Version: 2.1.1 Build 136)  -->
  <circle id="Outer" cx="8.5" cy="8.5" r="7.61" fill="none" stroke="#000" stroke-width="1.78"/>
  <g>
    <g>
      <rect x="7.96" y="11.19" width="1.06" height="1.06"/>
      <path d="M8.89,11.33v.8h-.8v-.8h.8M9.16,11.06h-1.33v1.33h1.33v-1.33h0Z"/>
    </g>
    <g>
      <path d="M7.97,10.04v-.43c0-.41.15-.81.43-1.11l.79-.88c.19-.22.3-.49.3-.78,0-.4-.33-.72-.73-.72h-.51c-.4,0-.73.32-.73.72v.13h-1.07v-.13c0-.99.81-1.79,1.8-1.79h.51c.99,0,1.8.8,1.8,1.79,0,.55-.2,1.08-.58,1.49l-.79.88c-.1.11-.16.25-.16.4v.43h-1.06Z"/>
      <path d="M8.75,5.18c.92,0,1.67.74,1.67,1.66,0,.52-.19,1.02-.54,1.4l-.79.88c-.12.14-.19.3-.19.49v.3h-.8v-.3c0-.38.14-.74.39-1.02l.79-.88c.22-.24.34-.55.34-.87,0-.47-.39-.86-.86-.86h-.51c-.48,0-.86.38-.86.86h-.81c0-.91.75-1.66,1.67-1.66h.51M8.75,4.91h-.51c-1.07,0-1.93.86-1.93,1.92v.27h1.34v-.27c0-.33.27-.59.6-.59h.51c.33,0,.6.26.6.59,0,.26-.09.5-.27.69l-.79.88c-.3.33-.46.75-.46,1.2v.31s0,.26,0,.26h1.32v-.26s0-.3,0-.3c0-.12.04-.22.12-.31l.79-.88c.39-.44.61-1,.61-1.58,0-1.06-.87-1.92-1.93-1.92h0Z"/>
    </g>
  </g>
</svg>