<?xml version="1.0" encoding="UTF-8"?>
<svg id="Layer_1" xmlns="http://www.w3.org/2000/svg" version="1.1" viewBox="0 0 17 17">
  <!-- Generator: Adobe Illustrator 30.1.0, SVG Export Plug-In . SVG Version: 2.1.1 Build 136)  -->
  <circle id="Outer" cx="8.5" cy="8.5" r="7.31" fill="none" stroke="#000" stroke-width="2.38"/>
  <g>
    <g>
      <rect x="7.96" y="10.97" width="1.07" height="1.07"/>
      <path d="M8.84,11.15v.7h-.7v-.7h.7M9.22,10.78h-1.44v1.44h1.44v-1.44h0Z"/>
    </g>
    <g>
      <path d="M7.96,9.85v-.45c0-.38.14-.74.39-1.02l.69-.76c.16-.17.25-.4.25-.64,0-.31-.25-.56-.57-.56h-.44c-.31,0-.56.25-.56.56v.19h-1.07v-.19c0-.9.74-1.63,1.64-1.63h.44c.9,0,1.64.73,1.64,1.63,0,.5-.18.98-.52,1.35l-.69.76c-.08.08-.12.19-.12.3v.45h-1.07Z"/>
      <path d="M8.72,5.55c.8,0,1.45.65,1.45,1.44,0,.45-.17.89-.47,1.22l-.69.76c-.11.12-.17.27-.17.42v.26h-.7v-.26c0-.33.12-.64.34-.89l.69-.76c.19-.21.29-.48.29-.76,0-.41-.34-.75-.75-.75h-.44c-.41,0-.75.33-.75.75h-.7c0-.8.65-1.44,1.45-1.44h.44M8.72,5.18h-.44c-1.01,0-1.83.81-1.83,1.82v.37h1.45v-.37c0-.21.17-.37.38-.37h.44c.21,0,.38.17.38.37,0,.19-.07.37-.2.51l-.69.76c-.28.31-.44.72-.44,1.14v.27s0,.37,0,.37h1.43v-.37s0-.26,0-.26c0-.07.02-.13.07-.18l.69-.76c.37-.41.57-.93.57-1.47,0-1-.82-1.82-1.83-1.82h0Z"/>
    </g>
  </g>
</svg>