<?xml version="1.0" encoding="UTF-8"?>
<svg id="Layer_1" xmlns="http://www.w3.org/2000/svg" version="1.1" viewBox="0 0 18 18">
  <!-- Generator: Adobe Illustrator 30.1.0, SVG Export Plug-In . SVG Version: 2.1.1 Build 136)  -->
  <path d="M9,3.16c.19,0,.38.1.48.3l1.22,2.43c.21.42.6.71,1.06.8l2.65.5c.41.08.58.58.3.89l-1.93,2.11c-.3.33-.44.77-.38,1.21l.38,2.85c.04.34-.23.61-.53.61-.08,0-.16-.02-.25-.06l-2.31-1.19c-.21-.11-.45-.17-.68-.17s-.47.06-.68.17l-2.31,1.19c-.08.04-.16.06-.25.06-.31,0-.58-.27-.53-.61l.38-2.85c.06-.44-.08-.88-.38-1.2l-1.93-2.11c-.28-.31-.12-.81.3-.89l2.64-.5c.46-.09.85-.38,1.06-.8l1.22-2.43c.1-.2.29-.3.48-.3M9,0C7.6,0,6.33.78,5.7,2.03l-.85,1.69-1.84.34c-1.32.25-2.4,1.19-2.82,2.46-.43,1.27-.13,2.67.77,3.66l1.41,1.54-.28,2.09c-.14,1.06.18,2.12.88,2.92.7.8,1.71,1.26,2.78,1.26.58,0,1.17-.14,1.69-.41l1.55-.8,1.55.8c.52.27,1.11.41,1.69.41,1.06,0,2.08-.46,2.78-1.26.7-.8,1.02-1.86.88-2.92l-.28-2.09,1.41-1.55c.9-.99,1.2-2.39.77-3.66-.43-1.27-1.51-2.21-2.82-2.46l-1.84-.34-.85-1.69C11.67.78,10.4,0,9,0h0Z"/>
</svg>