<?xml version="1.0" encoding="UTF-8"?>
<svg id="Layer_1" xmlns="http://www.w3.org/2000/svg" version="1.1" viewBox="0 0 37 37">
  <!-- Generator: Adobe Illustrator 30.1.0, SVG Export Plug-In . SVG Version: 2.1.1 Build 136)  -->
  <circle id="Outer" cx="18.5" cy="18.5" r="16.56" fill="none" stroke="#000" stroke-width="3.87"/>
  <g>
    <g>
      <rect x="17.33" y="24.36" width="2.32" height="2.32"/>
      <path d="M19.36,24.65v1.74h-1.74v-1.74h1.74M19.94,24.07h-2.89v2.89h2.89v-2.89h0Z"/>
    </g>
    <g>
      <path d="M17.33,21.84v-.94c0-.9.33-1.75.93-2.42l1.72-1.91c.42-.47.66-1.07.66-1.7,0-.87-.71-1.57-1.59-1.57h-1.11c-.87,0-1.59.71-1.59,1.57v.29h-2.33v-.29c0-2.15,1.76-3.89,3.92-3.89h1.11c2.16,0,3.92,1.75,3.92,3.89,0,1.2-.45,2.36-1.25,3.25l-1.72,1.91c-.22.25-.34.54-.34.87v.95h-2.32Z"/>
      <path d="M19.05,11.27c2,0,3.63,1.62,3.63,3.6,0,1.13-.42,2.22-1.18,3.06l-1.72,1.91c-.27.29-.41.66-.42,1.06v.66h-1.74v-.66c0-.82.3-1.61.85-2.22l1.72-1.91c.47-.52.73-1.2.73-1.9,0-1.03-.84-1.86-1.88-1.86h-1.11c-1.03,0-1.88.84-1.88,1.86h-1.75c0-1.99,1.63-3.6,3.63-3.6h1.11M19.05,10.69h-1.11c-2.32,0-4.21,1.88-4.21,4.18v.58h2.91v-.58c0-.71.58-1.28,1.3-1.28h1.11c.72,0,1.3.58,1.3,1.28,0,.56-.21,1.09-.58,1.51l-1.72,1.91c-.65.72-1.01,1.64-1.01,2.61v.66s.01.57.01.57h2.88v-.57s.01-.66.01-.66c0-.25.09-.48.27-.68l1.72-1.91c.86-.95,1.33-2.17,1.33-3.44,0-2.31-1.89-4.18-4.21-4.18h0Z"/>
    </g>
  </g>
</svg>