<?xml version="1.0" encoding="UTF-8"?>
<svg id="Layer_1" xmlns="http://www.w3.org/2000/svg" version="1.1" viewBox="0 0 37 37">
  <!-- Generator: Adobe Illustrator 30.1.0, SVG Export Plug-In . SVG Version: 2.1.1 Build 136)  -->
  <circle id="Outer" cx="18.5" cy="18.5" r="15.26" fill="none" stroke="#000" stroke-width="6.49"/>
  <g>
    <g>
      <rect x="17.32" y="23.37" width="2.34" height="2.34"/>
      <path d="M19.14,23.89v1.3h-1.3v-1.3h1.3M20.18,22.85h-3.38v3.38h3.38v-3.38h0Z"/>
    </g>
    <g>
      <path d="M17.33,21.08v-1.01c0-.75.27-1.47.77-2.02l1.29-1.43c.27-.3.41-.68.41-1.07,0-.48-.4-.88-.89-.88h-.83c-.49,0-.89.39-.89.88v.52h-2.36v-.52c0-1.78,1.45-3.22,3.24-3.22h.83c1.79,0,3.24,1.45,3.24,3.22,0,.98-.36,1.91-1.02,2.64l-1.29,1.43c-.12.13-.18.28-.18.45v1.01h-2.34Z"/>
      <path d="M18.91,12.85c1.5,0,2.72,1.21,2.72,2.7,0,.85-.31,1.66-.88,2.29l-1.29,1.43c-.2.22-.31.5-.31.79v.49h-1.31v-.49c0-.62.23-1.21.64-1.67l1.29-1.43c.35-.39.55-.9.55-1.42,0-.77-.63-1.4-1.41-1.4h-.83c-.78,0-1.41.63-1.41,1.4h-1.31c0-1.49,1.22-2.7,2.72-2.7h.83M18.91,11.81h-.83c-2.07,0-3.76,1.68-3.76,3.74v1.04h3.4v-1.04c0-.2.16-.36.37-.36h.83c.2,0,.37.16.37.36,0,.27-.1.52-.28.72l-1.29,1.43c-.59.65-.91,1.49-.91,2.36v.51s.01,1.03.01,1.03h3.37v-1.03s.02-.49.02-.49c0-.03,0-.06.04-.11l1.29-1.43c.74-.82,1.15-1.88,1.15-2.99,0-2.06-1.69-3.74-3.76-3.74h0Z"/>
    </g>
  </g>
</svg>