<?xml version="1.0" encoding="UTF-8"?>
<svg id="Layer_1" xmlns="http://www.w3.org/2000/svg" version="1.1" viewBox="0 0 37 37">
  <!-- Generator: Adobe Illustrator 30.1.0, SVG Export Plug-In . SVG Version: 2.1.1 Build 136)  -->
  <circle id="Outer" cx="18.5" cy="18.5" r="15.91" fill="none" stroke="#000" stroke-width="5.18"/>
  <g>
    <g>
      <rect x="17.33" y="23.87" width="2.32" height="2.32"/>
      <path d="M19.25,24.27v1.52h-1.52v-1.52h1.52M20.06,23.46h-3.13v3.13h3.13v-3.13h0Z"/>
    </g>
    <g>
      <path d="M17.33,21.45v-.97c0-.82.3-1.61.85-2.21l1.5-1.66c.34-.38.53-.87.53-1.38,0-.67-.55-1.22-1.23-1.22h-.96c-.68,0-1.23.55-1.23,1.22v.4h-2.34v-.4c0-1.96,1.6-3.55,3.57-3.55h.96c1.97,0,3.57,1.59,3.57,3.55,0,1.09-.4,2.13-1.13,2.94l-1.5,1.66c-.17.19-.26.41-.26.65v.98h-2.33Z"/>
      <path d="M18.98,12.07c1.74,0,3.16,1.41,3.16,3.14,0,.99-.36,1.93-1.03,2.67l-1.5,1.66c-.23.26-.36.58-.36.92v.57h-1.52v-.57c0-.72.26-1.4.75-1.94l1.5-1.66c.41-.46.64-1.04.64-1.65,0-.9-.73-1.62-1.64-1.62h-.96c-.9,0-1.64.73-1.64,1.62h-1.53c0-1.73,1.42-3.14,3.16-3.14h.96M18.98,11.27h-.96c-2.19,0-3.97,1.77-3.97,3.95v.81h3.15v-.81c0-.45.37-.81.83-.81h.96c.46,0,.83.37.83.81,0,.41-.15.8-.43,1.11l-1.5,1.66c-.61.68-.96,1.56-.96,2.48v.58s.01.8.01.8h3.12v-.8s.01-.57.01-.57c0-.15.05-.28.15-.39l1.5-1.66c.8-.88,1.24-2.02,1.24-3.21,0-2.18-1.78-3.95-3.97-3.95h0Z"/>
    </g>
  </g>
</svg>