<?xml version="1.0" encoding="UTF-8"?>
<svg id="Layer_1" xmlns="http://www.w3.org/2000/svg" version="1.1" viewBox="0 0 31 31">
  <!-- Generator: Adobe Illustrator 30.1.0, SVG Export Plug-In . SVG Version: 2.1.1 Build 136)  -->
  <circle id="Outer" cx="15.5" cy="15.5" r="12.78" fill="none" stroke="#000" stroke-width="5.43"/>
  <g>
    <g>
      <rect x="14.51" y="19.58" width="1.96" height="1.96"/>
      <path d="M16.04,20.01v1.09h-1.09v-1.09h1.09M16.91,19.14h-2.84v2.84h2.84v-2.84h0Z"/>
    </g>
    <g>
      <path d="M14.52,17.66v-.84c0-.63.23-1.23.65-1.69l1.08-1.2c.22-.25.35-.57.35-.9,0-.4-.33-.73-.74-.73h-.69c-.41,0-.74.33-.74.73v.44h-1.97v-.44c0-1.49,1.22-2.7,2.72-2.7h.69c1.5,0,2.72,1.21,2.72,2.7,0,.82-.3,1.6-.85,2.21l-1.08,1.2c-.1.11-.15.24-.15.38v.85h-1.96Z"/>
      <path d="M15.85,10.76c1.26,0,2.28,1.02,2.28,2.26,0,.71-.26,1.39-.74,1.92l-1.08,1.2c-.17.19-.26.42-.26.67v.41h-1.1v-.41c0-.52.19-1.01.54-1.4l1.08-1.2c.3-.33.46-.75.46-1.19,0-.65-.53-1.17-1.18-1.17h-.69c-.65,0-1.18.53-1.18,1.17h-1.1c0-1.25,1.02-2.26,2.28-2.26h.69M15.85,9.89h-.69c-1.74,0-3.15,1.41-3.15,3.14v.87h2.85v-.87c0-.16.14-.3.31-.3h.69c.17,0,.31.13.31.3,0,.22-.08.44-.23.61l-1.08,1.2c-.49.54-.76,1.25-.77,1.98v.42s.01.86.01.86h2.82v-.86s.01-.41.01-.41c0-.03,0-.05.04-.09l1.08-1.2c.62-.69.97-1.58.97-2.51,0-1.73-1.41-3.14-3.15-3.14h0Z"/>
    </g>
  </g>
</svg>