<?xml version="1.0" encoding="UTF-8"?>
<svg id="Layer_1" xmlns="http://www.w3.org/2000/svg" version="1.1" viewBox="0 0 31 31">
  <!-- Generator: Adobe Illustrator 30.1.0, SVG Export Plug-In . SVG Version: 2.1.1 Build 136)  -->
  <circle id="Outer" cx="15.5" cy="15.5" r="13.33" fill="none" stroke="#000" stroke-width="4.34"/>
  <g>
    <g>
      <rect x="14.52" y="20" width="1.95" height="1.95"/>
      <path d="M16.13,20.34v1.27h-1.27v-1.27h1.27M16.8,19.66h-2.63v2.63h2.63v-2.63h0Z"/>
    </g>
    <g>
      <path d="M14.52,17.97v-.82c0-.69.25-1.34.71-1.85l1.26-1.39c.29-.32.45-.73.45-1.16,0-.56-.46-1.02-1.03-1.02h-.81c-.57,0-1.03.46-1.03,1.02v.34h-1.96v-.34c0-1.64,1.34-2.97,2.99-2.97h.81c1.65,0,2.99,1.33,2.99,2.97,0,.91-.34,1.78-.95,2.46l-1.26,1.39c-.14.16-.22.34-.22.55v.82h-1.95Z"/>
      <path d="M15.9,10.12c1.46,0,2.65,1.18,2.65,2.63,0,.83-.31,1.62-.86,2.23l-1.26,1.39c-.19.22-.3.48-.3.77v.48h-1.27v-.48c0-.6.22-1.18.62-1.62l1.26-1.39c.34-.38.53-.87.53-1.38,0-.75-.61-1.36-1.37-1.36h-.81c-.76,0-1.37.61-1.37,1.36h-1.28c0-1.45,1.19-2.63,2.65-2.63h.81M15.9,9.44h-.81c-1.84,0-3.33,1.49-3.33,3.31v.68h2.64v-.68c0-.38.31-.68.69-.68h.81c.38,0,.69.31.69.68,0,.34-.13.67-.36.93l-1.26,1.39c-.52.57-.8,1.31-.8,2.07v.49s.01.67.01.67h2.61v-.67s.01-.48.01-.48c0-.12.04-.23.13-.33l1.26-1.39c.67-.74,1.04-1.69,1.04-2.69,0-1.83-1.49-3.31-3.33-3.31h0Z"/>
    </g>
  </g>
</svg>