<?xml version="1.0" encoding="UTF-8"?>
<svg id="Layer_1" xmlns="http://www.w3.org/2000/svg" version="1.1" viewBox="0 0 76 76">
  <!-- Generator: Adobe Illustrator 30.1.0, SVG Export Plug-In . SVG Version: 2.1.1 Build 136)  -->
  <path d="M38,13.32c.8,0,1.6.42,2.02,1.25l5.16,10.25c.89,1.76,2.54,3,4.47,3.36l11.17,2.09c1.75.33,2.45,2.45,1.26,3.76l-8.14,8.93c-1.26,1.38-1.84,3.24-1.6,5.09l1.59,12.04c.19,1.44-.96,2.57-2.25,2.57-.34,0-.7-.08-1.04-.26l-9.77-5.03c-.91-.47-1.9-.7-2.89-.7-.99,0-1.98.23-2.89.7l-9.77,5.03c-.34.18-.69.26-1.04.26-1.29,0-2.44-1.14-2.25-2.57l1.59-12.04c.24-1.85-.34-3.71-1.59-5.08l-8.14-8.93c-1.2-1.32-.49-3.44,1.26-3.77l11.17-2.09c1.93-.36,3.58-1.61,4.47-3.36l5.16-10.25c.42-.83,1.22-1.25,2.02-1.25M38,0C32.08,0,26.74,3.29,24.08,8.58l-3.6,7.15-7.75,1.45c-5.55,1.04-10.12,5.02-11.91,10.37-1.8,5.36-.55,11.29,3.26,15.46l5.94,6.52-1.16,8.82c-.59,4.46.77,8.94,3.73,12.32,2.97,3.38,7.24,5.32,11.73,5.32,2.47,0,4.93-.6,7.14-1.73l6.55-3.38,6.55,3.38c2.2,1.13,4.67,1.73,7.14,1.73,0,0,0,0,0,0,4.49,0,8.76-1.94,11.73-5.32,2.96-3.37,4.32-7.86,3.73-12.32l-1.16-8.82,5.95-6.53c3.81-4.18,5.06-10.1,3.26-15.46-1.79-5.36-6.36-9.33-11.91-10.37l-7.75-1.45-3.6-7.15C49.26,3.29,43.92,0,38,0h0Z"/>
</svg>