<?xml version="1.0" encoding="UTF-8"?>
<svg id="Layer_1" xmlns="http://www.w3.org/2000/svg" version="1.1" viewBox="0 0 41 41">
  <!-- Generator: Adobe Illustrator 30.1.0, SVG Export Plug-In . SVG Version: 2.1.1 Build 136)  -->
  <g>
    <g>
      <rect x="19" y="11.94" width="3" height="3"/>
      <path d="M21.42,12.52v1.85h-1.85v-1.85h1.85M22.58,11.37h-4.15v4.15h4.15v-4.15h0Z"/>
    </g>
    <g>
      <polygon points="17.15 28.71 17.15 25.71 19 25.71 19 21.09 17.15 21.09 17.15 18.09 22 18.09 22 25.71 23.85 25.71 23.85 28.71 17.15 28.71"/>
      <path d="M21.42,18.67v7.61h1.85v1.85h-5.54v-1.85h1.85v-5.77h-1.85v-1.85h3.69M22.58,17.52h-6v4.15h1.85v3.46h-1.85v4.15h7.85v-4.15h-1.85v-7.61h0Z"/>
    </g>
  </g>
  <circle id="Outer" cx="20.5" cy="20.5" r="16.91" fill="none" stroke="#000" stroke-width="7.19"/>
</svg>