<?xml version="1.0" encoding="UTF-8"?>
<svg id="Layer_1" xmlns="http://www.w3.org/2000/svg" version="1.1" viewBox="0 0 90 90">
  <!-- Generator: Adobe Illustrator 30.1.0, SVG Export Plug-In . SVG Version: 2.1.1 Build 136)  -->
  <path d="M45,9.42c1.16,0,2.31.6,2.92,1.8l7.44,14.78c1.28,2.54,3.66,4.33,6.45,4.85l16.1,3.02c2.52.47,3.54,3.53,1.81,5.43l-11.73,12.87c-1.81,1.99-2.65,4.67-2.3,7.34l2.29,17.36c.27,2.07-1.38,3.71-3.24,3.71-.49,0-1-.12-1.49-.37l-14.08-7.25c-1.31-.67-2.73-1.01-4.16-1.01-1.43,0-2.85.34-4.16,1.01l-14.08,7.25c-.49.25-1,.37-1.49.37-1.86,0-3.51-1.64-3.24-3.71l2.29-17.36c.35-2.66-.49-5.35-2.3-7.33l-11.73-12.88c-1.73-1.9-.71-4.96,1.81-5.43l16.1-3.02c2.78-.52,5.17-2.31,6.44-4.85l7.44-14.78c.6-1.2,1.76-1.8,2.92-1.8M45,0c-4.82,0-9.16,2.68-11.33,6.98l-7.37,14.63-15.94,2.99c-4.52.85-8.23,4.08-9.7,8.45-1.46,4.37-.44,9.19,2.66,12.59l11.64,12.77-2.27,17.22c-.48,3.63.63,7.28,3.03,10.03,2.42,2.76,5.9,4.34,9.55,4.34,2,0,4.01-.49,5.81-1.41l13.93-7.17,13.93,7.17c1.8.93,3.8,1.41,5.81,1.41,3.65,0,7.13-1.58,9.55-4.34,2.4-2.74,3.51-6.4,3.03-10.02l-2.27-17.22,11.64-12.77c3.1-3.4,4.12-8.23,2.65-12.59-1.46-4.36-5.18-7.6-9.69-8.44l-15.94-2.99-7.37-14.63c-2.17-4.31-6.51-6.98-11.33-6.98h0Z"/>
</svg>