<?xml version="1.0" encoding="UTF-8"?>
<svg id="Layer_1" xmlns="http://www.w3.org/2000/svg" version="1.1" viewBox="0 0 9 9">
  <!-- Generator: Adobe Illustrator 30.1.0, SVG Export Plug-In . SVG Version: 2.1.1 Build 136)  -->
  <g>
    <g>
      <rect x="4.18" y="2.51" width=".65" height=".65"/>
      <path d="M4.73,2.61v.45h-.45v-.45h.45M4.92,2.41h-.84v.84h.84v-.84h0Z"/>
    </g>
    <g>
      <polygon points="3.72 6.44 3.72 5.79 4.18 5.79 4.18 4.58 3.72 4.58 3.72 3.93 4.82 3.93 4.82 5.79 5.28 5.79 5.28 6.44 3.72 6.44"/>
      <path d="M4.73,4.03v1.86h.45v.45h-1.35v-.45h.45v-1.41h-.45v-.45h.9M4.92,3.83h-1.3v.84h.45v1.01h-.45v.84h1.75v-.84h-.45v-1.86h0Z"/>
    </g>
  </g>
  <circle id="Outer" cx="4.5" cy="4.5" r="3.87" fill="none" stroke="#000" stroke-width="1.26"/>
</svg>