<?xml version="1.0" encoding="UTF-8"?>
<svg id="Layer_1" xmlns="http://www.w3.org/2000/svg" version="1.1" viewBox="0 0 9 9">
  <!-- Generator: Adobe Illustrator 30.1.0, SVG Export Plug-In . SVG Version: 2.1.1 Build 136)  -->
  <g>
    <g>
      <rect x="4.17" y="2.62" width=".66" height=".66"/>
      <path d="M4.7,2.75v.41h-.41v-.41h.41M4.96,2.5h-.91v.91h.91v-.91h0Z"/>
    </g>
    <g>
      <polygon points="3.77 6.3 3.77 5.64 4.17 5.64 4.17 4.63 3.77 4.63 3.77 3.97 4.83 3.97 4.83 5.64 5.24 5.64 5.24 6.3 3.77 6.3"/>
      <path d="M4.7,4.1v1.67h.41v.41h-1.22v-.41h.41v-1.27h-.41v-.41h.81M4.96,3.85h-1.32v.91h.41v.76h-.41v.91h1.72v-.91h-.41v-1.67h0Z"/>
    </g>
  </g>
  <circle id="Outer" cx="4.5" cy="4.5" r="3.71" fill="none" stroke="#000" stroke-width="1.58"/>
</svg>