<?xml version="1.0" encoding="UTF-8"?>
<svg id="Layer_1" xmlns="http://www.w3.org/2000/svg" version="1.1" viewBox="0 0 10 10">
  <!-- Generator: Adobe Illustrator 30.1.0, SVG Export Plug-In . SVG Version: 2.1.1 Build 136)  -->
  <circle id="Outer" cx="5" cy="5" r="4.3" fill="none" stroke="#000" stroke-width="1.4"/>
  <g>
    <g>
      <rect x="4.68" y="6.45" width=".63" height=".63"/>
      <path d="M5.2,6.56v.41h-.41v-.41h.41M5.42,6.34h-.85v.85h.85v-.85h0Z"/>
    </g>
    <g>
      <path d="M4.68,5.8v-.26c0-.22.08-.44.23-.6l.41-.45c.09-.1.14-.23.14-.37,0-.18-.15-.33-.33-.33h-.26c-.18,0-.33.15-.33.33v.11h-.63v-.11c0-.53.43-.96.96-.96h.26c.53,0,.96.43.96.96,0,.29-.11.58-.31.79l-.41.45c-.05.05-.07.11-.07.18v.26h-.63Z"/>
      <path d="M5.13,3.26c.47,0,.86.38.86.85,0,.27-.1.52-.28.72l-.41.45c-.06.07-.1.16-.1.25v.15h-.41v-.15c0-.19.07-.38.2-.52l.41-.45c.11-.12.17-.28.17-.45,0-.24-.2-.44-.44-.44h-.26c-.24,0-.44.2-.44.44h-.41c0-.47.38-.85.86-.85h.26M5.13,3.04h-.26c-.59,0-1.07.48-1.07,1.07v.22h.85v-.22c0-.12.1-.22.22-.22h.26c.12,0,.22.1.22.22,0,.11-.04.22-.12.3l-.41.45c-.17.18-.26.42-.26.67v.16s0,.22,0,.22h.84v-.22s0-.15,0-.15c0-.04.01-.07.04-.1l.41-.45c.22-.24.33-.55.33-.87,0-.59-.48-1.07-1.07-1.07h0Z"/>
    </g>
  </g>
</svg>