<?xml version="1.0" encoding="UTF-8"?>
<svg id="Layer_1" xmlns="http://www.w3.org/2000/svg" version="1.1" viewBox="0 0 47 47">
  <!-- Generator: Adobe Illustrator 30.1.0, SVG Export Plug-In . SVG Version: 2.1.1 Build 136)  -->
  <circle id="Outer" cx="23.5" cy="23.5" r="21.04" fill="none" stroke="#000" stroke-width="4.92"/>
  <g>
    <g>
      <rect x="22.02" y="30.95" width="2.94" height="2.94"/>
      <path d="M24.59,31.31v2.21h-2.21v-2.21h2.21M25.32,30.58h-3.68v3.68h3.68v-3.68h0Z"/>
    </g>
    <g>
      <path d="M22.02,27.75v-1.2c0-1.14.42-2.23,1.18-3.07l2.19-2.42c.54-.6.83-1.36.83-2.16,0-1.1-.9-2-2.01-2h-1.4c-1.11,0-2.02.9-2.02,2v.37h-2.96v-.37c0-2.73,2.23-4.94,4.98-4.94h1.4c2.74,0,4.98,2.22,4.98,4.94,0,1.53-.57,2.99-1.59,4.13l-2.19,2.42c-.28.31-.43.69-.43,1.1v1.2h-2.95Z"/>
      <path d="M24.2,14.32c2.54,0,4.61,2.05,4.61,4.58,0,1.44-.53,2.81-1.5,3.88l-2.19,2.42c-.34.37-.53.84-.53,1.34v.83h-2.22v-.83c0-1.05.38-2.04,1.09-2.82l2.19-2.42c.6-.66.93-1.52.93-2.41,0-1.3-1.07-2.37-2.38-2.37h-1.4c-1.31,0-2.38,1.06-2.38,2.37h-2.23c0-2.52,2.07-4.58,4.61-4.58h1.4M24.2,13.58h-1.4c-2.95,0-5.34,2.38-5.34,5.31v.73h3.7v-.73c0-.9.74-1.63,1.65-1.63h1.4c.91,0,1.65.73,1.65,1.63,0,.71-.26,1.39-.74,1.92l-2.19,2.42c-.82.91-1.28,2.09-1.28,3.31v.84s.01.73.01.73h3.66v-.73s.02-.83.02-.83c0-.32.12-.62.34-.86l2.19-2.42c1.09-1.2,1.69-2.76,1.69-4.38,0-2.93-2.4-5.31-5.34-5.31h0Z"/>
    </g>
  </g>
</svg>