<?xml version="1.0" encoding="UTF-8"?>
<svg id="Layer_1" xmlns="http://www.w3.org/2000/svg" version="1.1" viewBox="0 0 19 19">
  <!-- Generator: Adobe Illustrator 30.1.0, SVG Export Plug-In . SVG Version: 2.1.1 Build 136)  -->
  <circle id="Outer" cx="9.5" cy="9.5" r="7.83" fill="none" stroke="#000" stroke-width="3.33"/>
  <g>
    <g>
      <rect x="8.89" y="12" width="1.2" height="1.21"/>
      <path d="M9.83,12.27v.67h-.67v-.67h.67M10.36,11.73h-1.74v1.74h1.74v-1.74h0Z"/>
    </g>
    <g>
      <path d="M8.9,10.83v-.52c0-.39.14-.75.4-1.04l.66-.73c.14-.15.21-.35.21-.55,0-.25-.2-.45-.46-.45h-.43c-.25,0-.46.2-.46.45v.27h-1.21v-.27c0-.91.75-1.66,1.66-1.66h.43c.92,0,1.67.74,1.67,1.66,0,.5-.19.98-.52,1.36l-.66.73c-.06.07-.09.15-.09.23v.52h-1.2Z"/>
      <path d="M9.71,6.6c.77,0,1.4.62,1.4,1.39,0,.44-.16.85-.45,1.18l-.66.73c-.1.11-.16.25-.16.41v.25h-.67v-.25c0-.32.12-.62.33-.86l.66-.73c.18-.2.28-.46.28-.73,0-.4-.32-.72-.72-.72h-.43c-.4,0-.72.32-.72.72h-.68c0-.77.63-1.39,1.4-1.39h.43M9.71,6.06h-.43c-1.07,0-1.93.86-1.93,1.92v.53h1.74v-.53c0-.1.08-.18.19-.18h.43c.1,0,.19.08.19.18,0,.14-.05.27-.14.37l-.66.73c-.3.33-.47.76-.47,1.21v.26s0,.53,0,.53h1.73v-.53s0-.25,0-.25c0-.02,0-.03.02-.05l.66-.73c.38-.42.59-.97.59-1.54,0-1.06-.87-1.92-1.93-1.92h0Z"/>
    </g>
  </g>
</svg>