<?xml version="1.0" encoding="UTF-8"?>
<svg id="Layer_1" xmlns="http://www.w3.org/2000/svg" version="1.1" viewBox="0 0 19 19">
  <!-- Generator: Adobe Illustrator 30.1.0, SVG Export Plug-In . SVG Version: 2.1.1 Build 136)  -->
  <circle id="Outer" cx="9.5" cy="9.5" r="8.51" fill="none" stroke="#000" stroke-width="1.99"/>
  <g>
    <g>
      <rect x="8.9" y="12.51" width="1.19" height="1.19"/>
      <path d="M9.94,12.66v.89h-.89v-.89h.89M10.24,12.36h-1.49v1.49h1.49v-1.49h0Z"/>
    </g>
    <g>
      <path d="M8.9,11.22v-.49c0-.46.17-.9.48-1.24l.88-.98c.22-.24.34-.55.34-.87,0-.45-.37-.81-.81-.81h-.57c-.45,0-.81.36-.81.81v.15h-1.2v-.15c0-1.1.9-2,2.01-2h.57c1.11,0,2.01.9,2.01,2,0,.62-.23,1.21-.64,1.67l-.88.98c-.11.13-.17.28-.18.44v.49h-1.19Z"/>
      <path d="M9.78,5.79c1.03,0,1.86.83,1.86,1.85,0,.58-.21,1.14-.61,1.57l-.88.98c-.14.15-.21.34-.21.54v.34h-.9v-.34c0-.42.15-.83.44-1.14l.88-.98c.24-.27.38-.61.38-.97,0-.53-.43-.96-.96-.96h-.57c-.53,0-.96.43-.96.96h-.9c0-1.02.84-1.85,1.86-1.85h.57M9.78,5.49h-.57c-1.19,0-2.16.96-2.16,2.15v.3h1.49v-.3c0-.36.3-.66.67-.66h.57c.37,0,.67.3.67.66,0,.29-.11.56-.3.77l-.88.98c-.33.37-.52.84-.52,1.34v.34s0,.29,0,.29h1.48v-.29s0-.34,0-.34c0-.13.05-.25.14-.35l.88-.98c.44-.49.68-1.11.68-1.77,0-1.18-.97-2.15-2.16-2.15h0Z"/>
    </g>
  </g>
</svg>