<?xml version="1.0" encoding="UTF-8"?>
<svg id="Layer_1" xmlns="http://www.w3.org/2000/svg" version="1.1" viewBox="0 0 25 25">
  <!-- Generator: Adobe Illustrator 30.1.0, SVG Export Plug-In . SVG Version: 2.1.1 Build 136)  -->
  <circle id="Outer" cx="12.5" cy="12.5" r="11.19" fill="none" stroke="#000" stroke-width="2.62"/>
  <g>
    <g>
      <rect x="11.71" y="16.46" width="1.56" height="1.56"/>
      <path d="M13.08,16.66v1.17h-1.17v-1.17h1.17M13.47,16.27h-1.96v1.96h1.96v-1.96h0Z"/>
    </g>
    <g>
      <path d="M11.71,14.76v-.64c0-.61.22-1.19.63-1.63l1.16-1.29c.29-.32.44-.72.44-1.15,0-.59-.48-1.06-1.07-1.06h-.75c-.59,0-1.07.48-1.07,1.06v.2h-1.58v-.2c0-1.45,1.19-2.63,2.65-2.63h.75c1.46,0,2.65,1.18,2.65,2.63,0,.81-.3,1.59-.85,2.2l-1.16,1.29c-.15.17-.23.37-.23.58v.64h-1.57Z"/>
      <path d="M12.87,7.62c1.35,0,2.45,1.09,2.45,2.43,0,.76-.28,1.5-.8,2.07l-1.16,1.29c-.18.2-.28.45-.28.72v.44h-1.18v-.44c0-.56.2-1.09.58-1.5l1.16-1.29c.32-.35.49-.81.49-1.28,0-.69-.57-1.26-1.27-1.26h-.75c-.7,0-1.27.56-1.27,1.26h-1.18c0-1.34,1.1-2.43,2.45-2.43h.75M12.87,7.22h-.75c-1.57,0-2.84,1.27-2.84,2.83v.39h1.97v-.39c0-.48.39-.87.88-.87h.75c.48,0,.88.39.88.87,0,.38-.14.74-.39,1.02l-1.16,1.29c-.44.48-.68,1.11-.68,1.76v.45s0,.39,0,.39h1.95v-.39s0-.44,0-.44c0-.17.06-.33.18-.46l1.16-1.29c.58-.64.9-1.47.9-2.33,0-1.56-1.28-2.83-2.84-2.83h0Z"/>
    </g>
  </g>
</svg>