<?xml version="1.0" encoding="UTF-8"?>
<svg id="Layer_1" xmlns="http://www.w3.org/2000/svg" version="1.1" viewBox="0 0 47 47">
  <!-- Generator: Adobe Illustrator 30.1.0, SVG Export Plug-In . SVG Version: 2.1.1 Build 136)  -->
  <g>
    <g>
      <rect x="21.78" y="13.69" width="3.44" height="3.44"/>
      <path d="M24.56,14.35v2.12h-2.12v-2.12h2.12M25.88,13.03h-4.76v4.76h4.76v-4.76h0Z"/>
    </g>
    <g>
      <polygon points="19.66 32.91 19.66 29.47 21.78 29.47 21.78 24.18 19.66 24.18 19.66 20.74 25.22 20.74 25.22 29.47 27.34 29.47 27.34 32.91 19.66 32.91"/>
      <path d="M24.56,21.4v8.73h2.12v2.12h-6.35v-2.12h2.12v-6.61h-2.12v-2.12h4.24M25.88,20.08h-6.88v4.76h2.12v3.97h-2.12v4.76h9v-4.76h-2.12v-8.73h0Z"/>
    </g>
  </g>
  <circle id="Outer" cx="23.5" cy="23.5" r="19.38" fill="none" stroke="#000" stroke-width="8.24"/>
</svg>