<?xml version="1.0" encoding="UTF-8"?>
<svg id="Layer_1" xmlns="http://www.w3.org/2000/svg" version="1.1" viewBox="0 0 106 106">
  <!-- Generator: Adobe Illustrator 30.1.0, SVG Export Plug-In . SVG Version: 2.1.1 Build 136)  -->
  <path d="M53,11.1c1.36,0,2.72.71,3.44,2.12l8.77,17.4c1.5,2.99,4.31,5.1,7.59,5.71l18.97,3.55c2.97.56,4.17,4.16,2.13,6.39l-13.82,15.16c-2.13,2.34-3.12,5.5-2.71,8.65l2.7,20.44c.32,2.44-1.62,4.37-3.81,4.37-.58,0-1.18-.14-1.76-.43l-16.59-8.54c-1.54-.79-3.22-1.19-4.9-1.19-1.68,0-3.36.4-4.9,1.19l-16.59,8.54c-.58.3-1.18.43-1.76.43-2.19,0-4.14-1.93-3.82-4.37l2.7-20.45c.41-3.14-.58-6.3-2.71-8.63l-13.82-15.16c-2.04-2.23-.83-5.84,2.14-6.4l18.96-3.55c3.28-.61,6.08-2.73,7.59-5.71l8.77-17.4c.71-1.41,2.07-2.12,3.44-2.12M53,0C47.32,0,42.21,3.15,39.65,8.22l-8.68,17.24-18.77,3.52c-5.32,1-9.7,4.81-11.42,9.95-1.72,5.14-.52,10.82,3.13,14.83l13.7,15.04-2.68,20.29c-.56,4.27.74,8.58,3.57,11.81,2.85,3.25,6.95,5.11,11.25,5.11,2.36,0,4.72-.58,6.84-1.67l16.41-8.45,16.41,8.45c2.12,1.09,4.48,1.67,6.84,1.67,4.3,0,8.4-1.86,11.25-5.11,2.83-3.23,4.13-7.53,3.57-11.81l-2.68-20.29,13.71-15.04c3.65-4.01,4.85-9.69,3.13-14.83-1.72-5.14-6.1-8.95-11.42-9.95l-18.77-3.52-8.68-17.24C63.79,3.15,58.68,0,53,0h0Z"/>
</svg>