<?xml version="1.0" encoding="UTF-8"?>
<svg id="Layer_1" xmlns="http://www.w3.org/2000/svg" version="1.1" viewBox="0 0 106 106">
  <!-- Generator: Adobe Illustrator 30.1.0, SVG Export Plug-In . SVG Version: 2.1.1 Build 136)  -->
  <path d="M53,18.58c1.12,0,2.24.58,2.82,1.74l7.2,14.29c1.24,2.45,3.54,4.19,6.24,4.69l15.58,2.92c2.44.46,3.42,3.42,1.75,5.25l-11.35,12.45c-1.75,1.92-2.57,4.52-2.23,7.1l2.21,16.79c.26,2-1.33,3.59-3.13,3.59-.48,0-.97-.11-1.44-.36l-13.63-7.02c-1.26-.65-2.64-.98-4.02-.98-1.38,0-2.76.33-4.02.98l-13.63,7.02c-.48.24-.97.36-1.44.36-1.8,0-3.4-1.59-3.13-3.59l2.22-16.8c.34-2.58-.47-5.17-2.22-7.09l-11.35-12.45c-1.67-1.83-.68-4.8,1.75-5.25l15.58-2.92c2.69-.5,5-2.24,6.23-4.69l7.2-14.29c.58-1.16,1.7-1.74,2.82-1.74M53,0C44.74,0,37.3,4.58,33.58,11.96l-5.02,9.97-10.81,2.03c-7.74,1.45-14.11,7-16.61,14.47-2.5,7.48-.76,15.74,4.55,21.57l8.29,9.1-1.62,12.3c-.82,6.21,1.08,12.48,5.2,17.18,4.14,4.72,10.1,7.42,16.36,7.42,3.44,0,6.88-.84,9.95-2.42l9.14-4.71,9.14,4.71c3.07,1.58,6.51,2.42,9.95,2.42,6.26,0,12.22-2.71,16.36-7.42,4.12-4.7,6.02-10.96,5.2-17.18l-1.62-12.3,8.29-9.1c5.31-5.83,7.05-14.09,4.55-21.56-2.5-7.47-8.87-13.02-16.61-14.47l-10.82-2.03-5.02-9.97C68.7,4.58,61.26,0,53,0h0Z"/>
</svg>