<?xml version="1.0" encoding="UTF-8"?>
<svg id="Layer_1" xmlns="http://www.w3.org/2000/svg" version="1.1" viewBox="0 0 52 52">
  <!-- Generator: Adobe Illustrator 30.1.0, SVG Export Plug-In . SVG Version: 2.1.1 Build 136)  -->
  <g>
    <g>
      <rect x="24.16" y="13.83" width="3.69" height="3.69"/>
      <path d="M27.44,14.24v2.87h-2.87v-2.87h2.87M28.25,13.42h-4.5v4.5h4.5v-4.5h0Z"/>
    </g>
    <g>
      <polygon points="21.28 38.01 21.28 34.33 24.16 34.33 24.16 26.16 21.28 26.16 21.28 22.48 27.84 22.48 27.84 34.33 30.72 34.33 30.72 38.01 21.28 38.01"/>
      <path d="M27.44,22.88v11.85h2.87v2.87h-8.62v-2.87h2.87v-8.98h-2.87v-2.87h5.75M28.25,22.07h-7.37v4.5h2.87v7.35h-2.87v4.5h10.25v-4.5h-2.87v-11.85h0Z"/>
    </g>
  </g>
  <circle id="Outer" cx="26" cy="26" r="23.28" fill="none" stroke="#000" stroke-width="5.44"/>
</svg>