<?xml version="1.0" encoding="UTF-8"?>
<svg id="Layer_1" xmlns="http://www.w3.org/2000/svg" version="1.1" viewBox="0 0 24 24">
  <!-- Generator: Adobe Illustrator 30.1.0, SVG Export Plug-In . SVG Version: 2.1.1 Build 136)  -->
  <g>
    <g>
      <rect x="11.12" y="6.99" width="1.76" height="1.76"/>
      <path d="M12.54,7.33v1.08h-1.08v-1.08h1.08M13.22,6.65h-2.43v2.43h2.43v-2.43h0Z"/>
    </g>
    <g>
      <polygon points="10.04 16.8 10.04 15.05 11.12 15.05 11.12 12.35 10.04 12.35 10.04 10.59 12.88 10.59 12.88 15.05 13.96 15.05 13.96 16.8 10.04 16.8"/>
      <path d="M12.54,10.93v4.46h1.08v1.08h-3.24v-1.08h1.08v-3.38h-1.08v-1.08h2.16M13.22,10.25h-3.51v2.43h1.08v2.03h-1.08v2.43h4.59v-2.43h-1.08v-4.46h0Z"/>
    </g>
  </g>
  <circle id="Outer" cx="12" cy="12" r="9.9" fill="none" stroke="#000" stroke-width="4.21"/>
</svg>