<?xml version="1.0" encoding="UTF-8"?>
<svg id="Layer_1" xmlns="http://www.w3.org/2000/svg" version="1.1" viewBox="0 0 95 95">
  <!-- Generator: Adobe Illustrator 30.1.0, SVG Export Plug-In . SVG Version: 2.1.1 Build 136)  -->
  <path d="M47.5,16.65c1,0,2.01.52,2.53,1.56l6.45,12.81c1.11,2.2,3.17,3.75,5.59,4.21l13.96,2.62c2.18.41,3.07,3.06,1.57,4.71l-10.17,11.16c-1.57,1.72-2.3,4.05-1.99,6.36l1.98,15.05c.24,1.8-1.19,3.22-2.81,3.22-.43,0-.87-.1-1.3-.32l-12.21-6.29c-1.13-.58-2.37-.87-3.61-.87s-2.47.29-3.61.87l-12.21,6.29c-.43.22-.87.32-1.3.32-1.61,0-3.05-1.42-2.81-3.22l1.99-15.05c.3-2.31-.42-4.64-1.99-6.36l-10.17-11.16c-1.5-1.64-.61-4.3,1.57-4.71l13.96-2.62c2.41-.45,4.48-2.01,5.59-4.2l6.45-12.81c.52-1.04,1.53-1.56,2.53-1.56M47.5,0c-7.4,0-14.07,4.11-17.4,10.72l-4.5,8.94-9.69,1.82c-6.94,1.3-12.65,6.27-14.89,12.97-2.24,6.7-.68,14.11,4.08,19.33l7.43,8.15-1.45,11.02c-.73,5.57.96,11.18,4.66,15.4,3.71,4.23,9.05,6.65,14.66,6.65,3.08,0,6.17-.75,8.92-2.17l8.19-4.22,8.19,4.22c2.75,1.42,5.84,2.17,8.92,2.17,5.61,0,10.95-2.43,14.66-6.65,3.7-4.22,5.39-9.83,4.66-15.4l-1.45-11.02,7.43-8.16c4.76-5.22,6.32-12.63,4.08-19.33-2.24-6.7-7.95-11.67-14.89-12.97l-9.69-1.82-4.5-8.94C61.57,4.11,54.9,0,47.5,0h0Z"/>
</svg>