<?xml version="1.0" encoding="UTF-8"?>
<svg id="Layer_1" xmlns="http://www.w3.org/2000/svg" version="1.1" viewBox="0 0 19 19">
  <!-- Generator: Adobe Illustrator 30.1.0, SVG Export Plug-In . SVG Version: 2.1.1 Build 136)  -->
  <path d="M9.5,2.66c.22,0,.44.12.56.35l1.43,2.84c.25.49.7.83,1.24.93l3.1.58c.48.09.68.68.35,1.04l-2.26,2.48c-.35.38-.51.9-.44,1.41l.44,3.34c.05.4-.26.71-.62.71-.09,0-.19-.02-.29-.07l-2.71-1.39c-.25-.13-.53-.19-.8-.19s-.55.06-.8.19l-2.71,1.39c-.09.05-.19.07-.29.07-.36,0-.68-.32-.62-.71l.44-3.34c.07-.51-.09-1.03-.44-1.41l-2.26-2.48c-.33-.36-.14-.95.35-1.04l3.1-.58c.54-.1.99-.44,1.24-.93l1.43-2.84c.12-.23.34-.35.56-.35M9.5,0h0c-1.25,0-2.37.69-2.94,1.81l-1.23,2.44-2.65.5c-1.17.22-2.13,1.06-2.51,2.19-.38,1.13-.12,2.38.69,3.26l1.97,2.16-.39,2.92c-.12.94.16,1.89.79,2.6.63.71,1.53,1.12,2.47,1.12.52,0,1.04-.13,1.51-.37l2.29-1.18,2.29,1.18c.46.24.99.37,1.51.37.95,0,1.85-.41,2.47-1.12.62-.71.91-1.66.79-2.6l-.39-2.92,1.97-2.16c.8-.88,1.07-2.13.69-3.26-.38-1.13-1.34-1.97-2.51-2.19l-2.65-.5-1.23-2.44C11.87.69,10.75,0,9.5,0h0Z"/>
</svg>