<?xml version="1.0" encoding="UTF-8"?>
<svg id="Layer_1" xmlns="http://www.w3.org/2000/svg" version="1.1" viewBox="0 0 17 17">
  <!-- Generator: Adobe Illustrator 30.1.0, SVG Export Plug-In . SVG Version: 2.1.1 Build 136)  -->
  <g>
    <g>
      <rect x="7.9" y="4.52" width="1.21" height="1.21"/>
      <path d="M8.97,4.65v.94h-.94v-.94h.94M9.24,4.39h-1.47v1.47h1.47v-1.47h0Z"/>
    </g>
    <g>
      <polygon points="6.96 12.43 6.96 11.22 7.9 11.22 7.9 8.55 6.96 8.55 6.96 7.35 9.1 7.35 9.1 11.22 10.04 11.22 10.04 12.43 6.96 12.43"/>
      <path d="M8.97,7.48v3.87h.94v.94h-2.82v-.94h.94v-2.93h-.94v-.94h1.88M9.24,7.22h-2.41v1.47h.94v2.4h-.94v1.47h3.35v-1.47h-.94v-3.87h0Z"/>
    </g>
  </g>
  <circle id="Outer" cx="8.5" cy="8.5" r="7.61" fill="none" stroke="#000" stroke-width="1.78"/>
</svg>