<?xml version="1.0" encoding="UTF-8"?>
<svg id="Layer_1" xmlns="http://www.w3.org/2000/svg" version="1.1" viewBox="0 0 124 124">
  <!-- Generator: Adobe Illustrator 30.1.0, SVG Export Plug-In . SVG Version: 2.1.1 Build 136)  -->
  <path d="M62,12.98c1.59,0,3.19.83,4.02,2.48l10.26,20.36c1.76,3.49,5.04,5.96,8.88,6.68l22.19,4.16c3.47.65,4.88,4.87,2.5,7.48l-16.16,17.74c-2.49,2.74-3.65,6.44-3.17,10.11l3.15,23.92c.38,2.85-1.9,5.11-4.46,5.11-.68,0-1.38-.16-2.06-.51l-19.41-9.99c-1.8-.93-3.77-1.39-5.73-1.39-1.97,0-3.93.46-5.73,1.39l-19.41,9.99c-.68.35-1.38.51-2.06.51-2.57,0-4.84-2.26-4.46-5.11l3.16-23.92c.48-3.67-.67-7.37-3.17-10.1l-16.17-17.74c-2.38-2.61-.97-6.83,2.5-7.48l22.18-4.16c3.84-.72,7.12-3.19,8.88-6.68l10.26-20.36c.83-1.65,2.43-2.48,4.02-2.48M62,0C55.36,0,49.37,3.69,46.38,9.62l-10.16,20.16-21.96,4.12c-6.23,1.17-11.35,5.63-13.36,11.64-2.01,6.01-.61,12.66,3.66,17.35l16.03,17.59-3.13,23.73c-.66,5,.86,10.03,4.17,13.81,3.33,3.8,8.13,5.98,13.16,5.98,2.76,0,5.53-.67,8-1.95l19.19-9.89,19.19,9.89c2.47,1.27,5.24,1.95,8,1.95,5.03,0,9.83-2.18,13.16-5.98,3.31-3.78,4.83-8.81,4.17-13.81l-3.13-23.73,16.03-17.6c4.27-4.69,5.67-11.33,3.66-17.35-2.01-6.01-7.13-10.47-13.36-11.63l-21.96-4.12-10.16-20.16C74.62,3.69,68.64,0,62,0h0Z"/>
</svg>