<?xml version="1.0" encoding="UTF-8"?>
<svg id="Layer_1" xmlns="http://www.w3.org/2000/svg" version="1.1" viewBox="0 0 124 124">
  <!-- Generator: Adobe Illustrator 30.1.0, SVG Export Plug-In . SVG Version: 2.1.1 Build 136)  -->
  <path d="M62,21.74c1.31,0,2.62.68,3.3,2.04l8.42,16.72c1.45,2.87,4.14,4.9,7.29,5.49l18.22,3.42c2.85.53,4,4,2.05,6.14l-13.28,14.57c-2.05,2.25-3,5.29-2.6,8.31l2.59,19.64c.31,2.34-1.56,4.2-3.67,4.2-.56,0-1.13-.13-1.69-.42l-15.94-8.21c-1.48-.76-3.09-1.14-4.71-1.14s-3.23.38-4.71,1.14l-15.94,8.21c-.56.29-1.13.42-1.69.42-2.11,0-3.97-1.86-3.67-4.2l2.59-19.65c.4-3.01-.55-6.05-2.6-8.3l-13.28-14.57c-1.96-2.15-.8-5.61,2.05-6.15l18.22-3.42c3.15-.59,5.85-2.62,7.29-5.49l8.42-16.72c.68-1.36,1.99-2.04,3.3-2.04M62,0c-9.66,0-18.37,5.36-22.72,13.99l-5.88,11.67-12.65,2.37c-9.06,1.7-16.51,8.18-19.43,16.93-2.93,8.75-.89,18.41,5.32,25.23l9.7,10.64-1.9,14.39c-.96,7.27,1.26,14.59,6.08,20.1,4.84,5.52,11.81,8.69,19.14,8.69,4.02,0,8.05-.98,11.64-2.83l10.69-5.51,10.69,5.51c3.59,1.85,7.62,2.83,11.64,2.83,7.32,0,14.3-3.17,19.14-8.69,4.82-5.5,7.04-12.83,6.08-20.1l-1.9-14.39,9.7-10.65c6.21-6.82,8.25-16.48,5.32-25.23-2.93-8.74-10.37-15.23-19.43-16.92l-12.65-2.37-5.88-11.67C80.37,5.36,71.66,0,62,0h0Z"/>
</svg>