<?xml version="1.0" encoding="UTF-8"?>
<svg id="Layer_1" xmlns="http://www.w3.org/2000/svg" version="1.1" viewBox="0 0 124 124">
  <!-- Generator: Adobe Illustrator 30.1.0, SVG Export Plug-In . SVG Version: 2.1.1 Build 136)  -->
  <path d="M62,17.36c1.45,0,2.9.75,3.66,2.26l9.34,18.54c1.6,3.18,4.59,5.43,8.09,6.09l20.2,3.79c3.16.59,4.44,4.43,2.27,6.81l-14.72,16.15c-2.27,2.49-3.33,5.86-2.89,9.21l2.87,21.78c.34,2.6-1.73,4.66-4.06,4.66-.62,0-1.26-.14-1.87-.46l-17.67-9.1c-1.64-.84-3.43-1.27-5.22-1.27-1.79,0-3.58.42-5.22,1.27l-17.67,9.1c-.62.32-1.25.46-1.87.46-2.34,0-4.41-2.06-4.06-4.66l2.87-21.79c.44-3.34-.61-6.71-2.88-9.2l-14.72-16.15c-2.17-2.38-.89-6.22,2.27-6.81l20.2-3.79c3.49-.65,6.48-2.9,8.08-6.08l9.34-18.54c.76-1.51,2.21-2.26,3.66-2.26M62,0C53.85,0,46.5,4.52,42.83,11.81l-8.02,15.92-17.3,3.24c-7.64,1.43-13.93,6.9-16.4,14.28-2.47,7.38-.75,15.54,4.49,21.29l12.86,14.12-2.51,19.06c-.81,6.13,1.06,12.31,5.13,16.95,4.09,4.66,9.97,7.33,16.15,7.33,3.39,0,6.79-.83,9.82-2.39l14.94-7.7,14.94,7.7c3.03,1.56,6.43,2.39,9.82,2.39,6.18,0,12.06-2.67,16.15-7.33,4.07-4.64,5.94-10.82,5.13-16.95l-2.51-19.06,12.87-14.12c5.24-5.75,6.96-13.91,4.49-21.29-2.47-7.38-8.75-12.85-16.39-14.28l-17.31-3.24-8.02-15.92C77.49,4.52,70.15,0,62,0h0Z"/>
</svg>