<?xml version="1.0" encoding="UTF-8"?>
<svg id="Layer_1" xmlns="http://www.w3.org/2000/svg" version="1.1" viewBox="0 0 24 24">
  <!-- Generator: Adobe Illustrator 30.1.0, SVG Export Plug-In . SVG Version: 2.1.1 Build 136)  -->
  <path d="M12,4.21c.25,0,.51.13.64.39l1.63,3.24c.28.56.8.95,1.41,1.06l3.53.66c.55.1.78.77.4,1.19l-2.57,2.82c-.4.44-.58,1.02-.5,1.61l.5,3.8c.06.45-.3.81-.71.81-.11,0-.22-.03-.33-.08l-3.08-1.59c-.29-.15-.6-.22-.91-.22s-.63.07-.91.22l-3.08,1.59c-.11.06-.22.08-.33.08-.41,0-.77-.36-.71-.81l.5-3.8c.08-.58-.11-1.17-.5-1.61l-2.57-2.82c-.38-.42-.15-1.09.4-1.19l3.53-.66c.61-.11,1.13-.51,1.41-1.06l1.63-3.24c.13-.26.39-.39.64-.39M12,0c-1.87,0-3.56,1.04-4.4,2.71l-1.14,2.26-2.45.46c-1.75.33-3.19,1.58-3.76,3.28-.57,1.69-.17,3.56,1.03,4.88l1.88,2.06-.37,2.78c-.19,1.41.24,2.82,1.18,3.89.94,1.07,2.29,1.68,3.7,1.68.78,0,1.56-.19,2.25-.55l2.07-1.07,2.07,1.07c.7.36,1.47.55,2.25.55,1.42,0,2.77-.61,3.7-1.68.93-1.06,1.36-2.48,1.18-3.89l-.37-2.78,1.88-2.06c1.2-1.32,1.6-3.19,1.03-4.88-.57-1.69-2.01-2.95-3.76-3.28l-2.45-.46-1.14-2.26c-.84-1.67-2.53-2.71-4.4-2.71h0Z"/>
</svg>