<?xml version="1.0" encoding="UTF-8"?>
<svg id="Layer_1" xmlns="http://www.w3.org/2000/svg" version="1.1" viewBox="0 0 24 24">
  <!-- Generator: Adobe Illustrator 30.1.0, SVG Export Plug-In . SVG Version: 2.1.1 Build 136)  -->
  <path d="M12,3.36c.28,0,.56.15.71.44l1.81,3.59c.31.62.89,1.05,1.57,1.18l3.91.73c.61.11.86.86.44,1.32l-2.85,3.13c-.44.48-.64,1.13-.56,1.78l.56,4.22c.07.5-.33.9-.79.9-.12,0-.24-.03-.36-.09l-3.42-1.76c-.32-.16-.66-.24-1.01-.24s-.69.08-1.01.24l-3.42,1.76c-.12.06-.24.09-.36.09-.45,0-.85-.4-.79-.9l.56-4.22c.09-.65-.12-1.3-.56-1.78l-2.85-3.13c-.42-.46-.17-1.2.44-1.32l3.91-.73c.68-.13,1.25-.56,1.56-1.18l1.81-3.59c.15-.29.43-.44.71-.44M12,0C10.42,0,9,.88,8.29,2.29l-1.55,3.08-3.35.63c-1.48.28-2.7,1.34-3.17,2.76-.48,1.43-.15,3.01.87,4.12l2.49,2.73-.49,3.69c-.16,1.19.21,2.38.99,3.28.79.9,1.93,1.42,3.13,1.42.66,0,1.31-.16,1.9-.46l2.89-1.49,2.89,1.49c.59.3,1.24.46,1.9.46,1.2,0,2.33-.52,3.13-1.42.79-.9,1.15-2.09.99-3.28l-.49-3.69,2.49-2.73c1.01-1.11,1.35-2.69.87-4.12-.48-1.43-1.69-2.49-3.17-2.76l-3.35-.63-1.55-3.08C15,.88,13.58,0,12,0h0Z"/>
</svg>