<?xml version="1.0" encoding="UTF-8"?>
<svg id="Layer_1" xmlns="http://www.w3.org/2000/svg" version="1.1" viewBox="0 0 24 24">
  <!-- Generator: Adobe Illustrator 30.1.0, SVG Export Plug-In . SVG Version: 2.1.1 Build 136)  -->
  <path d="M12,2.51c.31,0,.62.16.78.48l1.98,3.94c.34.68.98,1.15,1.72,1.29l4.29.8c.67.13.94.94.48,1.45l-3.13,3.43c-.48.53-.71,1.25-.61,1.96l.61,4.63c.07.55-.37.99-.86.99-.13,0-.27-.03-.4-.1l-3.76-1.93c-.35-.18-.73-.27-1.11-.27s-.76.09-1.11.27l-3.76,1.93c-.13.07-.27.1-.4.1-.5,0-.94-.44-.86-.99l.61-4.63c.09-.71-.13-1.43-.61-1.95l-3.13-3.43c-.46-.51-.19-1.32.48-1.45l4.29-.8c.74-.14,1.38-.62,1.72-1.29l1.99-3.94c.16-.32.47-.48.78-.48M12,0C10.71,0,9.56.71,8.98,1.86l-1.97,3.9-4.25.8c-1.21.23-2.2,1.09-2.59,2.25-.39,1.16-.12,2.45.71,3.36l3.1,3.4-.61,4.59c-.13.97.17,1.94.81,2.67.64.74,1.57,1.16,2.55,1.16.53,0,1.07-.13,1.55-.38l3.71-1.91,3.72,1.91c.48.25,1.01.38,1.55.38.97,0,1.9-.42,2.55-1.16.64-.73.94-1.71.81-2.67l-.61-4.59,3.1-3.41c.83-.91,1.1-2.19.71-3.36-.39-1.16-1.38-2.03-2.59-2.25l-4.25-.8-1.97-3.9C14.44.71,13.29,0,12,0h0Z"/>
</svg>