<?xml version="1.0" encoding="UTF-8"?>
<svg id="Layer_1" xmlns="http://www.w3.org/2000/svg" version="1.1" viewBox="0 0 70 70">
  <!-- Generator: Adobe Illustrator 30.1.0, SVG Export Plug-In . SVG Version: 2.1.1 Build 136)  -->
  <g>
    <g>
      <rect x="32.52" y="18.62" width="4.96" height="4.96"/>
      <path d="M36.94,19.16v3.87h-3.87v-3.87h3.87M38.03,18.07h-6.06v6.06h6.06v-6.06h0Z"/>
    </g>
    <g>
      <polygon points="28.65 51.17 28.65 46.21 32.52 46.21 32.52 35.22 28.65 35.22 28.65 30.26 37.48 30.26 37.48 46.21 41.35 46.21 41.35 51.17 28.65 51.17"/>
      <path d="M36.94,30.8v15.95h3.87v3.87h-11.61v-3.87h3.87v-12.08h-3.87v-3.87h7.74M38.03,29.71h-9.93v6.06h3.87v9.89h-3.87v6.06h13.8v-6.06h-3.87v-15.95h0Z"/>
    </g>
  </g>
  <circle id="Outer" cx="35" cy="35" r="31.34" fill="none" stroke="#000" stroke-width="7.33"/>
</svg>