<?xml version="1.0" encoding="UTF-8"?>
<svg id="Layer_1" xmlns="http://www.w3.org/2000/svg" version="1.1" viewBox="0 0 77 77">
  <!-- Generator: Adobe Illustrator 30.1.0, SVG Export Plug-In . SVG Version: 2.1.1 Build 136)  -->
  <circle id="Outer" cx="38.5" cy="38.5" r="33.11" fill="none" stroke="#000" stroke-width="10.78"/>
  <g>
    <g>
      <rect x="36.06" y="49.67" width="4.84" height="4.84"/>
      <path d="M40.06,50.51v3.15h-3.15v-3.15h3.15M41.74,48.83h-6.52v6.52h6.52v-6.52h0Z"/>
    </g>
    <g>
      <path d="M36.07,44.63l-.02-2.03c0-1.71.64-3.34,1.78-4.6l3.12-3.46c.71-.79,1.11-1.81,1.11-2.88,0-1.4-1.15-2.54-2.56-2.54h-2.01c-1.41,0-2.56,1.14-2.56,2.54v.84h-4.87v-.84c0-4.07,3.33-7.38,7.43-7.38h2.01c4.1,0,7.43,3.31,7.43,7.38,0,2.26-.84,4.43-2.36,6.11l-3.12,3.46c-.35.39-.54.86-.54,1.36l-.02,2.03h-4.82Z"/>
      <path d="M39.5,25.13c3.63,0,6.58,2.93,6.58,6.54,0,2.05-.76,4.02-2.14,5.55l-3.12,3.46c-.48.54-.75,1.2-.75,1.92v1.19h-3.17v-1.19c0-1.49.55-2.92,1.55-4.03l3.12-3.46c.86-.95,1.33-2.17,1.33-3.44,0-1.86-1.53-3.38-3.4-3.38h-2.01c-1.88,0-3.4,1.52-3.4,3.38h-3.18c0-3.6,2.95-6.54,6.58-6.54h2.01M39.5,23.44h-2.01c-4.56,0-8.27,3.69-8.27,8.22v1.68h6.55v-1.68c0-.93.77-1.7,1.72-1.7h2.01c.95,0,1.72.76,1.72,1.7,0,.85-.32,1.67-.89,2.31l-3.12,3.46c-1.28,1.42-1.99,3.25-2,5.15v1.21s.03,1.67.03,1.67h6.49l.02-1.67v-1.19c.01-.31.12-.57.33-.81l3.12-3.46c1.66-1.84,2.57-4.21,2.57-6.68,0-4.53-3.71-8.22-8.27-8.22h0Z"/>
    </g>
  </g>
</svg>