<?xml version="1.0" encoding="UTF-8"?>
<svg id="Layer_1" xmlns="http://www.w3.org/2000/svg" version="1.1" viewBox="0 0 77 77">
  <!-- Generator: Adobe Illustrator 30.1.0, SVG Export Plug-In . SVG Version: 2.1.1 Build 136)  -->
  <circle id="Outer" cx="38.5" cy="38.5" r="31.75" fill="none" stroke="#000" stroke-width="13.5"/>
  <g>
    <g>
      <rect x="36.04" y="48.63" width="4.88" height="4.88"/>
      <path d="M39.84,49.71v2.71h-2.71v-2.71h2.71M42,47.54h-7.04v7.04h7.04v-7.04h0Z"/>
    </g>
    <g>
      <path d="M36.06,43.87l-.02-2.1c0-1.56.58-3.05,1.62-4.2l2.69-2.98c.55-.61.86-1.41.86-2.23,0-1.01-.83-1.82-1.84-1.82h-1.73c-1.02,0-1.84.82-1.84,1.82v1.08h-4.9v-1.08c0-3.7,3.03-6.71,6.75-6.71h1.73c3.72,0,6.75,3.01,6.75,6.71,0,2.03-.75,3.98-2.12,5.5l-2.69,2.98c-.25.27-.37.58-.37.93l-.02,2.11h-4.86Z"/>
      <path d="M39.36,26.74c3.12,0,5.66,2.52,5.66,5.62,0,1.76-.65,3.46-1.84,4.77l-2.69,2.98c-.42.46-.65,1.03-.65,1.65v1.03h-2.72v-1.03c0-1.29.47-2.51,1.33-3.47l2.69-2.98c.74-.81,1.14-1.87,1.14-2.96,0-1.6-1.31-2.91-2.93-2.91h-1.73c-1.61,0-2.93,1.3-2.93,2.91h-2.74c0-3.1,2.54-5.62,5.66-5.62h1.73M39.36,24.57h-1.73c-4.32,0-7.83,3.49-7.83,7.79v2.17h7.07v-2.17c0-.41.34-.74.76-.74h1.73c.42,0,.76.33.76.74,0,.56-.21,1.09-.58,1.51l-2.69,2.98c-1.22,1.35-1.9,3.09-1.9,4.91v1.05s.03,2.15.03,2.15h7l.02-2.14v-1.03c.01-.07.02-.14.1-.22l2.69-2.98c1.55-1.71,2.4-3.92,2.4-6.22,0-4.3-3.51-7.79-7.83-7.79h0Z"/>
    </g>
  </g>
</svg>