<?xml version="1.0" encoding="UTF-8"?>
<svg id="Layer_1" xmlns="http://www.w3.org/2000/svg" version="1.1" viewBox="0 0 85 85">
  <!-- Generator: Adobe Illustrator 30.1.0, SVG Export Plug-In . SVG Version: 2.1.1 Build 136)  -->
  <circle id="Outer" cx="42.5" cy="42.5" r="35.05" fill="none" stroke="#000" stroke-width="14.9"/>
  <g>
    <g>
      <rect x="39.79" y="53.68" width="5.38" height="5.39"/>
      <path d="M43.98,54.87v2.99h-2.99v-2.99h2.99M46.37,52.48h-7.78v7.78h7.78v-7.78h0Z"/>
    </g>
    <g>
      <path d="M39.8,48.43l-.02-2.32c0-1.73.64-3.37,1.79-4.64l2.96-3.28c.61-.68.95-1.55.95-2.47,0-1.11-.91-2.01-2.04-2.01h-1.9c-1.12,0-2.04.9-2.04,2.01v1.2h-5.41v-1.2c0-4.08,3.34-7.4,7.45-7.4h1.9c4.11,0,7.45,3.32,7.45,7.4,0,2.24-.83,4.4-2.34,6.07l-2.97,3.29c-.27.29-.41.65-.41,1.03l-.02,2.33h-5.36Z"/>
      <path d="M43.45,29.51c3.45,0,6.25,2.79,6.25,6.21,0,1.95-.72,3.82-2.03,5.27l-2.97,3.29c-.46.51-.71,1.14-.72,1.82v1.13h-3.01v-1.13c0-1.42.52-2.77,1.47-3.83l2.97-3.29c.81-.9,1.26-2.06,1.26-3.27,0-1.77-1.45-3.21-3.23-3.21h-1.9c-1.78,0-3.23,1.44-3.23,3.21h-3.02c0-3.42,2.8-6.21,6.25-6.21h1.9M43.45,27.12h-1.9c-4.77,0-8.64,3.86-8.64,8.6v2.39h7.8v-2.39c0-.45.38-.82.84-.82h1.9c.46,0,.84.37.84.82,0,.61-.23,1.21-.64,1.66l-2.97,3.29c-1.35,1.49-2.09,3.41-2.1,5.42v1.16s.03,2.37.03,2.37h7.73l.02-2.37v-1.13c.01-.08.02-.15.11-.24l2.97-3.29c1.71-1.89,2.65-4.33,2.65-6.87,0-4.74-3.88-8.6-8.64-8.6h0Z"/>
    </g>
  </g>
</svg>