<?xml version="1.0" encoding="UTF-8"?>
<svg id="Layer_1" xmlns="http://www.w3.org/2000/svg" version="1.1" viewBox="0 0 46 46">
  <!-- Generator: Adobe Illustrator 30.1.0, SVG Export Plug-In . SVG Version: 2.1.1 Build 136)  -->
  <path d="M23,4.82c.59,0,1.18.31,1.49.92l3.8,7.55c.65,1.3,1.87,2.21,3.29,2.48l8.23,1.54c1.29.24,1.81,1.81.93,2.77l-6,6.58c-.93,1.02-1.36,2.39-1.18,3.75l1.17,8.87c.14,1.06-.7,1.9-1.66,1.9-.25,0-.51-.06-.76-.19l-7.2-3.71c-.67-.34-1.4-.52-2.13-.52-.73,0-1.46.17-2.13.52l-7.2,3.71c-.25.13-.51.19-.76.19-.95,0-1.8-.84-1.66-1.9l1.17-8.88c.18-1.36-.25-2.73-1.17-3.75l-6-6.58c-.88-.97-.36-2.53.93-2.78l8.23-1.54c1.42-.27,2.64-1.18,3.29-2.48l3.8-7.55c.31-.61.9-.92,1.49-.92M23,0C20.54,0,18.32,1.37,17.21,3.57l-3.77,7.48-8.15,1.53c-2.31.43-4.21,2.09-4.96,4.32-.75,2.23-.23,4.7,1.36,6.44l5.95,6.53-1.16,8.8c-.24,1.85.32,3.72,1.55,5.12,1.24,1.41,3.02,2.22,4.88,2.22,1.02,0,2.05-.25,2.97-.72l7.12-3.67,7.12,3.67c.92.47,1.94.72,2.97.72,1.87,0,3.65-.81,4.88-2.22,1.23-1.4,1.79-3.27,1.55-5.12l-1.16-8.8,5.95-6.53c1.58-1.74,2.1-4.2,1.36-6.43-.75-2.23-2.65-3.88-4.96-4.32l-8.15-1.53-3.77-7.48C27.68,1.37,25.46,0,23,0h0Z"/>
</svg>