<?xml version="1.0" encoding="UTF-8"?>
<svg id="Layer_1" xmlns="http://www.w3.org/2000/svg" version="1.1" viewBox="0 0 42 42">
  <!-- Generator: Adobe Illustrator 30.1.0, SVG Export Plug-In . SVG Version: 2.1.1 Build 136)  -->
  <path d="M21,7.36c.44,0,.89.23,1.12.69l2.85,5.66c.49.97,1.4,1.66,2.47,1.86l6.17,1.16c.96.18,1.36,1.35.69,2.08l-4.5,4.93c-.69.76-1.02,1.79-.88,2.81l.88,6.65c.1.79-.53,1.42-1.24,1.42-.19,0-.38-.04-.57-.14l-5.4-2.78c-.5-.26-1.05-.39-1.59-.39s-1.09.13-1.59.39l-5.4,2.78c-.19.1-.38.14-.57.14-.71,0-1.35-.63-1.24-1.42l.88-6.66c.13-1.02-.19-2.05-.88-2.81l-4.5-4.93c-.66-.73-.27-1.9.69-2.08l6.17-1.16c1.07-.2,1.98-.89,2.47-1.86l2.85-5.66c.23-.46.68-.69,1.12-.69M21,0C17.73,0,14.78,1.82,13.31,4.74l-1.99,3.95-4.28.8c-3.07.58-5.59,2.77-6.58,5.73-.99,2.96-.3,6.24,1.8,8.55l3.29,3.6-.64,4.87c-.32,2.46.43,4.94,2.06,6.81,1.64,1.87,4,2.94,6.48,2.94,1.36,0,2.73-.33,3.94-.96l3.62-1.87,3.62,1.87c1.22.63,2.58.96,3.94.96,2.48,0,4.84-1.07,6.48-2.94,1.63-1.86,2.38-4.34,2.06-6.81l-.64-4.87,3.29-3.61c2.1-2.31,2.79-5.58,1.8-8.54-.99-2.96-3.51-5.16-6.58-5.73l-4.29-.8-1.99-3.95C27.22,1.82,24.27,0,21,0h0Z"/>
</svg>