<?xml version="1.0" encoding="UTF-8"?>
<svg id="Layer_1" xmlns="http://www.w3.org/2000/svg" version="1.1" viewBox="0 0 42 42">
  <!-- Generator: Adobe Illustrator 30.1.0, SVG Export Plug-In . SVG Version: 2.1.1 Build 136)  -->
  <path d="M21,4.4c.54,0,1.08.28,1.36.84l3.47,6.9c.6,1.18,1.71,2.02,3.01,2.26l7.51,1.41c1.17.22,1.65,1.65.85,2.53l-5.48,6.01c-.84.93-1.24,2.18-1.07,3.43l1.07,8.1c.13.97-.64,1.73-1.51,1.73-.23,0-.47-.05-.7-.17l-6.57-3.39c-.61-.31-1.28-.47-1.94-.47-.67,0-1.33.16-1.94.47l-6.57,3.39c-.23.12-.47.17-.7.17-.87,0-1.64-.77-1.51-1.73l1.07-8.1c.16-1.24-.23-2.5-1.07-3.42l-5.48-6.01c-.81-.89-.33-2.31.85-2.53l7.51-1.41c1.3-.24,2.41-1.08,3.01-2.26l3.47-6.9c.28-.56.82-.84,1.36-.84M21,0c-2.25,0-4.28,1.25-5.29,3.26l-3.44,6.83-7.44,1.39c-2.11.4-3.84,1.91-4.52,3.94-.68,2.04-.21,4.29,1.24,5.88l5.43,5.96-1.06,8.04c-.22,1.69.29,3.4,1.41,4.68,1.13,1.29,2.75,2.03,4.46,2.03.93,0,1.87-.23,2.71-.66l6.5-3.35,6.5,3.35c.84.43,1.78.66,2.71.66,1.7,0,3.33-.74,4.46-2.03,1.12-1.28,1.64-2.98,1.41-4.68l-1.06-8.04,5.43-5.96c1.45-1.59,1.92-3.84,1.24-5.88-.68-2.04-2.42-3.55-4.52-3.94l-7.44-1.39-3.44-6.83c-1.01-2.01-3.04-3.26-5.29-3.26h0Z"/>
</svg>