<?xml version="1.0" encoding="UTF-8"?>
<svg id="Layer_1" xmlns="http://www.w3.org/2000/svg" version="1.1" viewBox="0 0 28 28">
  <!-- Generator: Adobe Illustrator 30.1.0, SVG Export Plug-In . SVG Version: 2.1.1 Build 136)  -->
  <g>
    <g>
      <rect x="12.98" y="8.16" width="2.05" height="2.05"/>
      <path d="M14.63,8.55v1.26h-1.26v-1.26h1.26M15.42,7.76h-2.84v2.84h2.84v-2.84h0Z"/>
    </g>
    <g>
      <polygon points="11.71 19.61 11.71 17.56 12.98 17.56 12.98 14.41 11.71 14.41 11.71 12.36 15.02 12.36 15.02 17.56 16.29 17.56 16.29 19.61 11.71 19.61"/>
      <path d="M14.63,12.75v5.2h1.26v1.26h-3.78v-1.26h1.26v-3.94h-1.26v-1.26h2.52M15.42,11.96h-4.1v2.84h1.26v2.36h-1.26v2.84h5.36v-2.84h-1.26v-5.2h0Z"/>
    </g>
  </g>
  <circle id="Outer" cx="14" cy="14" r="11.55" fill="none" stroke="#000" stroke-width="4.91"/>
</svg>