<?xml version="1.0" encoding="UTF-8"?>
<svg id="Layer_1" xmlns="http://www.w3.org/2000/svg" version="1.1" viewBox="0 0 103 103">
  <!-- Generator: Adobe Illustrator 30.1.0, SVG Export Plug-In . SVG Version: 2.1.1 Build 136)  -->
  <path d="M51.5,18.06c1.09,0,2.17.56,2.74,1.69l7,13.89c1.2,2.38,3.44,4.07,6.06,4.56l15.14,2.84c2.37.44,3.33,3.32,1.7,5.1l-11.03,12.1c-1.7,1.87-2.49,4.39-2.16,6.9l2.15,16.32c.26,1.95-1.29,3.49-3.04,3.49-.46,0-.94-.11-1.4-.35l-13.24-6.82c-1.23-.63-2.57-.95-3.91-.95-1.34,0-2.68.32-3.91.95l-13.24,6.82c-.46.24-.94.35-1.4.35-1.75,0-3.3-1.54-3.04-3.49l2.15-16.32c.33-2.5-.46-5.03-2.16-6.89l-11.03-12.1c-1.62-1.78-.66-4.66,1.7-5.11l15.13-2.84c2.62-.49,4.86-2.18,6.06-4.56l7-13.89c.57-1.13,1.66-1.69,2.74-1.69M51.5,0c-8.03,0-15.26,4.45-18.87,11.62l-4.88,9.69-10.51,1.97c-7.53,1.41-13.71,6.8-16.14,14.06-2.43,7.26-.74,15.29,4.42,20.96l8.06,8.84-1.58,11.95c-.8,6.04,1.05,12.12,5.05,16.69,4.02,4.58,9.81,7.21,15.9,7.21,3.34,0,6.69-.81,9.67-2.35l8.88-4.57,8.88,4.57c2.99,1.54,6.33,2.35,9.67,2.35,6.08,0,11.88-2.63,15.89-7.21,4.01-4.57,5.85-10.65,5.05-16.69l-1.58-11.95,8.06-8.84c5.16-5.66,6.85-13.69,4.42-20.95-2.43-7.26-8.62-12.65-16.14-14.06l-10.51-1.97-4.88-9.69c-3.61-7.17-10.84-11.62-18.87-11.62h0Z"/>
</svg>