<?xml version="1.0" encoding="UTF-8"?>
<svg id="Layer_1" xmlns="http://www.w3.org/2000/svg" version="1.1" viewBox="0 0 38 38">
  <!-- Generator: Adobe Illustrator 30.1.0, SVG Export Plug-In . SVG Version: 2.1.1 Build 136)  -->
  <g>
    <g>
      <rect x="17.63" y="10.59" width="2.74" height="2.74"/>
      <path d="M19.95,11.01v1.9h-1.9v-1.9h1.9M20.78,10.17h-3.57v3.57h3.57v-3.57h0Z"/>
    </g>
    <g>
      <polygon points="15.73 27.19 15.73 24.45 17.63 24.45 17.63 19.34 15.73 19.34 15.73 16.6 20.37 16.6 20.37 24.45 22.27 24.45 22.27 27.19 15.73 27.19"/>
      <path d="M19.95,17.02v7.85h1.9v1.9h-5.71v-1.9h1.9v-5.95h-1.9v-1.9h3.81M20.78,16.19h-5.47v3.57h1.9v4.28h-1.9v3.57h7.38v-3.57h-1.9v-7.85h0Z"/>
    </g>
  </g>
  <circle id="Outer" cx="19" cy="19" r="16.34" fill="none" stroke="#000" stroke-width="5.32"/>
</svg>