<?xml version="1.0" encoding="UTF-8"?>
<svg id="Layer_1" xmlns="http://www.w3.org/2000/svg" version="1.1" viewBox="0 0 60 60">
  <!-- Generator: Adobe Illustrator 30.1.0, SVG Export Plug-In . SVG Version: 2.1.1 Build 136)  -->
  <g>
    <g>
      <rect x="27.8" y="17.48" width="4.39" height="4.39"/>
      <path d="M31.35,18.32v2.7h-2.7v-2.7h2.7M33.04,16.64h-6.08v6.08h6.08v-6.08h0Z"/>
    </g>
    <g>
      <polygon points="25.1 42.01 25.1 37.62 27.8 37.62 27.8 30.87 25.1 30.87 25.1 26.48 32.2 26.48 32.2 37.62 34.9 37.62 34.9 42.01 25.1 42.01"/>
      <path d="M31.35,27.32v11.14h2.7v2.7h-8.11v-2.7h2.7v-8.44h-2.7v-2.7h5.41M33.04,25.63h-8.78v6.08h2.7v5.06h-2.7v6.08h11.49v-6.08h-2.7v-11.14h0Z"/>
    </g>
  </g>
  <circle id="Outer" cx="30" cy="30" r="24.74" fill="none" stroke="#000" stroke-width="10.52"/>
</svg>