<?xml version="1.0" encoding="UTF-8"?>
<svg id="Layer_1" xmlns="http://www.w3.org/2000/svg" version="1.1" viewBox="0 0 60 60">
  <!-- Generator: Adobe Illustrator 30.1.0, SVG Export Plug-In . SVG Version: 2.1.1 Build 136)  -->
  <g>
    <g>
      <rect x="27.84" y="16.72" width="4.32" height="4.32"/>
      <path d="M31.5,17.38v3.01h-3.01v-3.01h3.01M32.82,16.06h-5.63v5.63h5.63v-5.63h0Z"/>
    </g>
    <g>
      <polygon points="24.83 42.93 24.83 38.61 27.84 38.61 27.84 30.53 24.83 30.53 24.83 26.21 32.16 26.21 32.16 38.61 35.17 38.61 35.17 42.93 24.83 42.93"/>
      <path d="M31.5,26.87v12.4h3.01v3.01h-9.02v-3.01h3.01v-9.39h-3.01v-3.01h6.01M32.82,25.56h-8.64v5.63h3.01v6.76h-3.01v5.63h11.65v-5.63h-3.01v-12.4h0Z"/>
    </g>
  </g>
  <circle id="Outer" cx="30" cy="30" r="25.8" fill="none" stroke="#000" stroke-width="8.4"/>
</svg>