<?xml version="1.0" encoding="UTF-8"?>
<svg id="Layer_1" xmlns="http://www.w3.org/2000/svg" version="1.1" viewBox="0 0 84 84">
  <!-- Generator: Adobe Illustrator 30.1.0, SVG Export Plug-In . SVG Version: 2.1.1 Build 136)  -->
  <circle id="Outer" cx="42" cy="42" r="36.12" fill="none" stroke="#000" stroke-width="11.76"/>
  <g>
    <g>
      <rect x="39.34" y="54.18" width="5.28" height="5.28"/>
      <path d="M43.7,55.1v3.44h-3.44v-3.44h3.44M45.53,53.26h-7.11v7.11h7.11v-7.11h0Z"/>
    </g>
    <g>
      <path d="M39.35,48.69l-.02-2.21c0-1.87.7-3.65,1.94-5.02l3.41-3.77c.78-.86,1.21-1.98,1.21-3.14,0-1.53-1.25-2.77-2.79-2.77h-2.19c-1.54,0-2.79,1.24-2.79,2.77v.92h-5.31v-.92c0-4.44,3.63-8.05,8.1-8.05h2.19c4.47,0,8.1,3.61,8.1,8.05,0,2.47-.91,4.83-2.57,6.67l-3.41,3.78c-.38.42-.58.94-.58,1.48l-.02,2.22h-5.26Z"/>
      <path d="M43.09,27.41c3.96,0,7.18,3.2,7.18,7.13,0,2.24-.83,4.39-2.33,6.05l-3.41,3.78c-.53.58-.82,1.31-.82,2.1v1.3h-3.45v-1.3c0-1.63.6-3.18,1.69-4.4l3.41-3.77c.93-1.03,1.45-2.37,1.45-3.75,0-2.03-1.67-3.69-3.71-3.69h-2.19c-2.05,0-3.71,1.65-3.71,3.69h-3.47c0-3.93,3.22-7.13,7.18-7.13h2.19M43.09,25.58h-2.19c-4.97,0-9.02,4.02-9.02,8.97v1.84h7.15v-1.84c0-1.02.84-1.85,1.88-1.85h2.19c1.03,0,1.88.83,1.88,1.85,0,.93-.35,1.83-.97,2.52l-3.41,3.77c-1.4,1.54-2.17,3.54-2.18,5.62v1.32s.03,1.82.03,1.82h7.08l.02-1.82v-1.3c.01-.33.13-.63.36-.88l3.41-3.78c1.81-2,2.81-4.59,2.81-7.28,0-4.95-4.05-8.97-9.02-8.97h0Z"/>
    </g>
  </g>
</svg>