<?xml version="1.0" encoding="UTF-8"?>
<svg id="Layer_1" xmlns="http://www.w3.org/2000/svg" version="1.1" viewBox="0 0 84 84">
  <!-- Generator: Adobe Illustrator 30.1.0, SVG Export Plug-In . SVG Version: 2.1.1 Build 136)  -->
  <circle id="Outer" cx="42" cy="42" r="34.64" fill="none" stroke="#000" stroke-width="14.73"/>
  <g>
    <g>
      <rect x="39.32" y="53.05" width="5.32" height="5.32"/>
      <path d="M43.46,54.23v2.96h-2.96v-2.96h2.96M45.82,51.87h-7.68v7.68h7.68v-7.68h0Z"/>
    </g>
    <g>
      <path d="M39.33,47.86l-.02-2.29c0-1.71.63-3.33,1.77-4.59l2.93-3.25c.61-.67.94-1.54.94-2.44,0-1.1-.9-1.99-2.01-1.99h-1.88c-1.11,0-2.01.89-2.01,1.99v1.18h-5.35v-1.18c0-4.03,3.3-7.32,7.36-7.32h1.88c4.06,0,7.36,3.28,7.36,7.32,0,2.22-.82,4.35-2.31,6l-2.93,3.25c-.27.29-.4.64-.4,1.01l-.02,2.3h-5.3Z"/>
      <path d="M42.94,29.17c3.41,0,6.18,2.75,6.18,6.14,0,1.93-.71,3.77-2.01,5.21l-2.93,3.25c-.45.5-.71,1.13-.71,1.8v1.12h-2.97v-1.12c0-1.4.51-2.74,1.46-3.78l2.93-3.25c.8-.89,1.24-2.04,1.24-3.23,0-1.75-1.43-3.17-3.19-3.17h-1.88c-1.76,0-3.19,1.42-3.19,3.17h-2.99c0-3.38,2.77-6.14,6.18-6.14h1.88M42.94,26.8h-1.88c-4.71,0-8.54,3.81-8.54,8.5v2.36h7.71v-2.36c0-.45.37-.81.83-.81h1.88c.46,0,.83.36.83.81,0,.61-.23,1.19-.64,1.64l-2.93,3.25c-1.33,1.47-2.07,3.37-2.07,5.36v1.15s.03,2.34.03,2.34h7.64l.02-2.34v-1.12c.01-.08.02-.15.11-.24l2.93-3.25c1.69-1.87,2.62-4.28,2.62-6.79,0-4.69-3.83-8.5-8.54-8.5h0Z"/>
    </g>
  </g>
</svg>