<?xml version="1.0" encoding="UTF-8"?>
<svg id="Layer_1" xmlns="http://www.w3.org/2000/svg" version="1.1" viewBox="0 0 17 17">
  <!-- Generator: Adobe Illustrator 30.1.0, SVG Export Plug-In . SVG Version: 2.1.1 Build 136)  -->
  <circle id="Outer" cx="8.5" cy="8.5" r="7.01" fill="none" stroke="#000" stroke-width="2.98"/>
  <g>
    <g>
      <rect x="7.96" y="10.74" width="1.08" height="1.08"/>
      <path d="M8.8,10.97v.6h-.6v-.6h.6M9.27,10.5h-1.56v1.56h1.56v-1.56h0Z"/>
    </g>
    <g>
      <path d="M7.96,9.69v-.46c0-.35.12-.67.35-.93l.59-.66c.12-.14.19-.31.19-.49,0-.22-.18-.4-.41-.4h-.38c-.22,0-.41.18-.41.4v.24h-1.08v-.24c0-.82.67-1.48,1.49-1.48h.38c.82,0,1.49.66,1.49,1.48,0,.45-.17.88-.47,1.21l-.59.66c-.05.06-.08.13-.08.21v.46h-1.08Z"/>
      <path d="M8.69,5.9c.69,0,1.25.56,1.25,1.24,0,.39-.14.76-.41,1.05l-.59.66c-.09.1-.14.23-.14.36v.23h-.6v-.23c0-.28.1-.55.29-.77l.59-.66c.16-.18.25-.41.25-.65,0-.35-.29-.64-.65-.64h-.38c-.36,0-.65.29-.65.64h-.6c0-.68.56-1.24,1.25-1.24h.38M8.69,5.42h-.38c-.95,0-1.73.77-1.73,1.72v.48h1.56v-.48c0-.09.08-.16.17-.16h.38c.09,0,.17.07.17.16,0,.12-.05.24-.13.33l-.59.66c-.27.3-.42.68-.42,1.08v.23s0,.47,0,.47h1.55v-.47s0-.23,0-.23l.02-.05.59-.66c.34-.38.53-.87.53-1.37,0-.95-.78-1.72-1.73-1.72h0Z"/>
    </g>
  </g>
</svg>