<?xml version="1.0" encoding="UTF-8"?>
<svg id="Layer_1" xmlns="http://www.w3.org/2000/svg" version="1.1" viewBox="0 0 73 73">
  <!-- Generator: Adobe Illustrator 30.1.0, SVG Export Plug-In . SVG Version: 2.1.1 Build 136)  -->
  <path d="M36.5,10.22c.85,0,1.71.44,2.16,1.33l5.5,10.91c.94,1.87,2.7,3.2,4.76,3.58l11.89,2.23c1.86.35,2.61,2.61,1.34,4.01l-8.67,9.51c-1.34,1.47-1.96,3.45-1.7,5.42l1.69,12.82c.2,1.53-1.02,2.74-2.39,2.74-.36,0-.74-.09-1.1-.27l-10.4-5.36c-.96-.5-2.02-.74-3.07-.75-1.05,0-2.11.25-3.07.75l-10.4,5.36c-.36.19-.74.27-1.1.27-1.38,0-2.59-1.21-2.39-2.74l1.69-12.83c.26-1.97-.36-3.95-1.7-5.42l-8.67-9.51c-1.28-1.4-.52-3.66,1.34-4.01l11.89-2.23c2.06-.39,3.82-1.71,4.76-3.58l5.5-10.92c.45-.89,1.3-1.33,2.16-1.33M36.5,0c-4.8,0-9.12,2.66-11.28,6.95l-4.72,9.37-10.19,1.91c-4.5.84-8.2,4.06-9.65,8.41-1.46,4.34-.44,9.15,2.64,12.53l7.57,8.31-1.48,11.22c-.48,3.61.62,7.25,3.02,9.98,2.41,2.74,5.87,4.32,9.51,4.32,2,0,4-.49,5.78-1.41l8.8-4.53,8.8,4.53c1.79.92,3.79,1.41,5.78,1.41,3.64,0,7.1-1.57,9.51-4.32,2.39-2.73,3.5-6.37,3.02-9.98l-1.48-11.22,7.58-8.31c3.09-3.39,4.1-8.19,2.64-12.53-1.45-4.34-5.15-7.56-9.65-8.41l-10.19-1.91-4.72-9.37c-2.16-4.29-6.48-6.95-11.28-6.95h0Z"/>
</svg>