<?xml version="1.0" encoding="UTF-8"?>
<svg id="Layer_1" xmlns="http://www.w3.org/2000/svg" version="1.1" viewBox="0 0 44 44">
  <!-- Generator: Adobe Illustrator 30.1.0, SVG Export Plug-In . SVG Version: 2.1.1 Build 136)  -->
  <g>
    <g>
      <rect x="20.44" y="11.7" width="3.12" height="3.12"/>
      <path d="M23.22,12.05v2.43h-2.43v-2.43h2.43M23.9,11.36h-3.81v3.81h3.81v-3.81h0Z"/>
    </g>
    <g>
      <polygon points="18.01 32.17 18.01 29.05 20.44 29.05 20.44 22.14 18.01 22.14 18.01 19.02 23.56 19.02 23.56 29.05 25.99 29.05 25.99 32.17 18.01 32.17"/>
      <path d="M23.22,19.36v10.03h2.43v2.43h-7.3v-2.43h2.43v-7.59h-2.43v-2.43h4.87M23.9,18.68h-6.24v3.81h2.43v6.22h-2.43v3.81h8.67v-3.81h-2.43v-10.03h0Z"/>
    </g>
  </g>
  <circle id="Outer" cx="22" cy="22" r="19.7" fill="none" stroke="#000" stroke-width="4.61"/>
</svg>