<?xml version="1.0" encoding="UTF-8"?>
<svg id="Layer_1" xmlns="http://www.w3.org/2000/svg" version="1.1" viewBox="0 0 120 120">
  <!-- Generator: Adobe Illustrator 30.1.0, SVG Export Plug-In . SVG Version: 2.1.1 Build 136)  -->
  <path d="M60,12.56c1.54,0,3.08.8,3.89,2.4l9.92,19.7c1.7,3.38,4.88,5.77,8.59,6.47l21.47,4.02c3.36.63,4.72,4.71,2.42,7.24l-15.64,17.17c-2.41,2.65-3.54,6.23-3.07,9.79l3.05,23.15c.36,2.76-1.84,4.95-4.32,4.95-.66,0-1.34-.15-1.99-.49l-18.78-9.67c-1.74-.9-3.64-1.34-5.55-1.34-1.9,0-3.81.45-5.55,1.34l-18.78,9.67c-.66.34-1.33.49-1.99.49-2.48,0-4.68-2.19-4.32-4.95l3.05-23.15c.47-3.55-.65-7.13-3.06-9.77l-15.64-17.17c-2.3-2.53-.94-6.61,2.42-7.24l21.47-4.02c3.71-.7,6.89-3.09,8.59-6.46l9.93-19.7c.81-1.6,2.35-2.4,3.89-2.4M60,0C53.57,0,47.78,3.57,44.89,9.31l-9.83,19.51-21.25,3.98c-6.03,1.13-10.98,5.44-12.93,11.26-1.95,5.82-.59,12.25,3.54,16.79l15.51,17.02-3.03,22.97c-.64,4.84.83,9.71,4.04,13.37,3.22,3.68,7.87,5.79,12.73,5.79,2.67,0,5.35-.65,7.74-1.89l18.58-9.57,18.58,9.57c2.4,1.23,5.07,1.89,7.74,1.89,4.87,0,9.51-2.11,12.73-5.79,3.21-3.66,4.68-8.53,4.04-13.37l-3.03-22.97,15.52-17.03c4.13-4.54,5.49-10.97,3.54-16.79-1.95-5.82-6.9-10.13-12.93-11.26l-21.25-3.98-9.83-19.51C72.22,3.57,66.43,0,60,0h0Z"/>
</svg>