<?xml version="1.0" encoding="UTF-8"?>
<svg id="Layer_1" xmlns="http://www.w3.org/2000/svg" version="1.1" viewBox="0 0 120 120">
  <!-- Generator: Adobe Illustrator 30.1.0, SVG Export Plug-In . SVG Version: 2.1.1 Build 136)  -->
  <path d="M60,16.8c1.4,0,2.81.73,3.54,2.19l9.04,17.94c1.55,3.08,4.44,5.26,7.83,5.89l19.55,3.66c3.06.57,4.3,4.29,2.2,6.59l-14.25,15.63c-2.2,2.41-3.22,5.67-2.79,8.91l2.78,21.08c.33,2.51-1.67,4.51-3.93,4.51-.6,0-1.22-.14-1.81-.45l-17.1-8.81c-1.59-.82-3.32-1.22-5.05-1.22s-3.47.41-5.05,1.22l-17.1,8.81c-.6.31-1.21.45-1.81.45-2.26,0-4.26-1.99-3.93-4.51l2.78-21.08c.43-3.23-.59-6.49-2.79-8.9l-14.25-15.63c-2.1-2.3-.86-6.02,2.2-6.59l19.55-3.66c3.38-.63,6.27-2.81,7.82-5.89l9.04-17.94c.73-1.46,2.14-2.19,3.54-2.19M60,0C52.11,0,45,4.38,41.45,11.43l-7.76,15.4-16.74,3.14c-7.4,1.39-13.48,6.68-15.87,13.82-2.39,7.14-.73,15.04,4.34,20.6l12.45,13.66-2.43,18.45c-.78,5.94,1.03,11.92,4.96,16.41,3.95,4.51,9.65,7.1,15.63,7.1,3.28,0,6.57-.8,9.51-2.31l14.46-7.45,14.46,7.45c2.94,1.51,6.22,2.31,9.51,2.31,5.98,0,11.67-2.59,15.63-7.1,3.94-4.49,5.75-10.47,4.96-16.41l-2.43-18.44,12.45-13.67c5.07-5.57,6.74-13.46,4.34-20.6-2.39-7.14-8.47-12.43-15.87-13.82l-16.75-3.14-7.76-15.4C74.99,4.38,67.89,0,60,0h0Z"/>
</svg>