<?xml version="1.0" encoding="UTF-8"?>
<svg id="Layer_1" xmlns="http://www.w3.org/2000/svg" version="1.1" viewBox="0 0 105 105">
  <!-- Generator: Adobe Illustrator 30.1.0, SVG Export Plug-In . SVG Version: 2.1.1 Build 136)  -->
  <circle id="Outer" cx="52.5" cy="52.5" r="45.15" fill="none" stroke="#000" stroke-width="14.7"/>
  <g>
    <g>
      <rect x="49.17" y="67.73" width="6.6" height="6.6"/>
      <path d="M54.62,68.88v4.3h-4.3v-4.3h4.3M56.92,66.58h-8.89v8.89h8.89v-8.89h0Z"/>
    </g>
    <g>
      <path d="M49.19,60.86l-.02-2.76c0-2.33.87-4.56,2.43-6.28l4.26-4.72c.97-1.08,1.51-2.47,1.51-3.92,0-1.91-1.57-3.46-3.49-3.46h-2.74c-1.93,0-3.49,1.55-3.49,3.46v1.15h-6.63v-1.15c0-5.55,4.54-10.06,10.13-10.06h2.74c5.58,0,10.13,4.51,10.13,10.06,0,3.08-1.14,6.04-3.21,8.34l-4.26,4.72c-.48.53-.73,1.17-.73,1.85l-.03,2.77h-6.58Z"/>
      <path d="M53.87,34.27c4.95,0,8.98,4,8.98,8.92,0,2.8-1.04,5.48-2.92,7.57l-4.26,4.72c-.66.73-1.03,1.64-1.03,2.62l-.02,1.63h-4.3v-1.63c0-2.04.74-3.98,2.12-5.5l4.26-4.72c1.17-1.29,1.81-2.96,1.81-4.69,0-2.54-2.08-4.61-4.64-4.61h-2.74c-2.56,0-4.64,2.07-4.64,4.61h-4.34c0-4.92,4.03-8.92,8.98-8.92h2.74M53.87,31.97h-2.74c-6.22,0-11.28,5.03-11.28,11.21v2.3h8.93v-2.3c0-1.27,1.05-2.31,2.34-2.31h2.74c1.29,0,2.34,1.04,2.34,2.31,0,1.16-.43,2.28-1.22,3.15l-4.26,4.72c-1.75,1.93-2.71,4.43-2.72,7.03v1.65s.03,2.28.03,2.28h8.85l.02-2.27.02-1.63c0-.42.15-.78.44-1.1l4.26-4.72c2.26-2.51,3.51-5.74,3.51-9.1,0-6.18-5.06-11.21-11.28-11.21h0Z"/>
    </g>
  </g>
</svg>