<?xml version="1.0" encoding="UTF-8"?>
<svg id="Layer_1" xmlns="http://www.w3.org/2000/svg" version="1.1" viewBox="0 0 49 49">
  <!-- Generator: Adobe Illustrator 30.1.0, SVG Export Plug-In . SVG Version: 2.1.1 Build 136)  -->
  <circle id="Outer" cx="24.5" cy="24.5" r="20.2" fill="none" stroke="#000" stroke-width="8.59"/>
  <g>
    <g>
      <rect x="22.94" y="30.94" width="3.1" height="3.11"/>
      <path d="M25.35,31.63v1.73h-1.73v-1.73h1.73M26.73,30.25h-4.48v4.48h4.48v-4.48h0Z"/>
    </g>
    <g>
      <path d="M22.94,27.92v-1.34c0-1,.36-1.94,1.02-2.67l1.71-1.89c.35-.39.55-.9.55-1.42,0-.64-.53-1.16-1.17-1.16h-1.1c-.65,0-1.17.52-1.17,1.16v.69h-3.12v-.69c0-2.35,1.93-4.27,4.29-4.27h1.1c2.37,0,4.29,1.91,4.29,4.27,0,1.29-.48,2.54-1.35,3.5l-1.71,1.9c-.16.17-.24.37-.24.59v1.34h-3.11Z"/>
      <path d="M25.05,17.01c1.99,0,3.6,1.61,3.6,3.58,0,1.12-.42,2.2-1.17,3.04l-1.71,1.89c-.26.29-.41.66-.41,1.05v.65h-1.73v-.65c0-.82.3-1.6.85-2.21l1.71-1.89c.47-.52.73-1.19.73-1.88,0-1.02-.84-1.85-1.86-1.85h-1.1c-1.03,0-1.86.83-1.86,1.85h-1.74c0-1.97,1.62-3.58,3.6-3.58h1.1M25.05,15.64h-1.1c-2.75,0-4.98,2.22-4.98,4.96v1.38h4.5v-1.38c0-.26.22-.47.48-.47h1.1c.27,0,.48.21.48.47,0,.35-.13.69-.37.96l-1.71,1.89c-.78.86-1.21,1.97-1.21,3.12v.67s.02,1.37.02,1.37h4.46v-1.36s.02-.65.02-.65c0-.05,0-.09.06-.14l1.71-1.9c.98-1.09,1.53-2.5,1.53-3.96,0-2.73-2.24-4.96-4.98-4.96h0Z"/>
    </g>
  </g>
</svg>