<?xml version="1.0" encoding="UTF-8"?>
<svg id="Layer_1" xmlns="http://www.w3.org/2000/svg" version="1.1" viewBox="0 0 49 49">
  <!-- Generator: Adobe Illustrator 30.1.0, SVG Export Plug-In . SVG Version: 2.1.1 Build 136)  -->
  <circle id="Outer" cx="24.5" cy="24.5" r="21.07" fill="none" stroke="#000" stroke-width="6.86"/>
  <g>
    <g>
      <rect x="22.95" y="31.61" width="3.08" height="3.08"/>
      <path d="M25.49,32.14v2.01h-2.01v-2.01h2.01M26.56,31.07h-4.15v4.15h4.15v-4.15h0Z"/>
    </g>
    <g>
      <path d="M22.95,28.4v-1.29c0-1.09.39-2.13,1.12-2.93l1.99-2.2c.46-.5.71-1.15.71-1.83,0-.89-.73-1.61-1.63-1.61h-1.28c-.9,0-1.63.72-1.63,1.61v.54h-3.1v-.54c0-2.59,2.12-4.7,4.73-4.7h1.28c2.61,0,4.73,2.11,4.73,4.7,0,1.44-.53,2.82-1.5,3.89l-1.99,2.2c-.22.25-.34.54-.34.87v1.29h-3.08Z"/>
      <path d="M25.14,15.99c2.31,0,4.19,1.87,4.19,4.16,0,1.31-.48,2.56-1.36,3.53l-1.99,2.2c-.31.34-.48.76-.48,1.22v.76h-2.01v-.76c0-.95.35-1.86.99-2.56l1.99-2.2c.54-.6.84-1.38.84-2.19,0-1.19-.97-2.15-2.17-2.15h-1.28c-1.19,0-2.17.96-2.17,2.15h-2.02c0-2.29,1.88-4.16,4.19-4.16h1.28M25.14,14.92h-1.28c-2.9,0-5.26,2.35-5.26,5.23v1.07h1.07s2.02,0,2.02,0h1.07v-1.07c0-.59.49-1.08,1.09-1.08h1.28c.6,0,1.09.48,1.09,1.08,0,.54-.2,1.07-.57,1.47l-1.99,2.2c-.81.9-1.27,2.07-1.27,3.28v.77s.02,1.06.02,1.06h4.13v-1.06s.02-.76.02-.76c0-.2.07-.37.2-.51l1.99-2.2c1.06-1.17,1.64-2.68,1.64-4.25,0-2.89-2.36-5.23-5.26-5.23h0Z"/>
    </g>
  </g>
</svg>