<?xml version="1.0" encoding="UTF-8"?>
<svg id="Layer_1" xmlns="http://www.w3.org/2000/svg" version="1.1" viewBox="0 0 84 84">
  <!-- Generator: Adobe Illustrator 30.1.0, SVG Export Plug-In . SVG Version: 2.1.1 Build 136)  -->
  <path d="M42,14.73c.89,0,1.77.46,2.24,1.38l5.71,11.33c.98,1.94,2.81,3.32,4.94,3.72l12.34,2.31c1.93.36,2.71,2.71,1.39,4.16l-8.99,9.87c-1.39,1.52-2.03,3.58-1.76,5.63l1.76,13.31c.21,1.59-1.06,2.84-2.48,2.84-.38,0-.77-.09-1.15-.28l-10.8-5.56c-1-.52-2.1-.77-3.19-.77s-2.19.26-3.19.77l-10.8,5.56c-.38.19-.77.28-1.15.28-1.43,0-2.69-1.26-2.48-2.84l1.76-13.31c.27-2.04-.38-4.1-1.76-5.62l-8.99-9.87c-1.33-1.45-.54-3.8,1.39-4.16l12.34-2.31c2.13-.4,3.96-1.77,4.94-3.72l5.71-11.33c.46-.92,1.35-1.38,2.24-1.38M42,0C35.45,0,29.56,3.63,26.61,9.48l-3.98,7.9-8.57,1.61c-6.14,1.15-11.18,5.54-13.17,11.47-1.98,5.92-.6,12.47,3.6,17.09l6.57,7.21-1.29,9.75c-.65,4.92.85,9.89,4.12,13.61,3.28,3.74,8,5.88,12.96,5.88,2.73,0,5.45-.66,7.89-1.92l7.24-3.73,7.24,3.73c2.43,1.25,5.16,1.92,7.89,1.92,4.96,0,9.68-2.14,12.96-5.88,3.27-3.73,4.77-8.69,4.12-13.61l-1.29-9.75,6.57-7.21c4.21-4.62,5.59-11.17,3.6-17.09-1.98-5.92-7.03-10.31-13.16-11.47l-8.57-1.61-3.98-7.9C54.44,3.63,48.55,0,42,0h0Z"/>
</svg>