<?xml version="1.0" encoding="UTF-8"?>
<svg id="Layer_1" xmlns="http://www.w3.org/2000/svg" version="1.1" viewBox="0 0 112 112">
  <!-- Generator: Adobe Illustrator 30.1.0, SVG Export Plug-In . SVG Version: 2.1.1 Build 136)  -->
  <path d="M56,15.68c1.31,0,2.62.68,3.31,2.04l8.44,16.74c1.45,2.87,4.15,4.91,7.3,5.5l18.25,3.42c2.85.53,4.01,4,2.05,6.15l-13.3,14.59c-2.05,2.25-3.01,5.3-2.61,8.32l2.59,19.67c.31,2.35-1.56,4.21-3.67,4.21-.56,0-1.14-.13-1.69-.42l-15.96-8.22c-1.48-.76-3.1-1.14-4.71-1.14s-3.24.38-4.71,1.14l-15.96,8.22c-.56.29-1.13.42-1.69.42-2.11,0-3.98-1.86-3.67-4.21l2.6-19.68c.4-3.02-.55-6.06-2.6-8.31l-13.3-14.59c-1.96-2.15-.8-5.62,2.05-6.15l18.25-3.42c3.15-.59,5.85-2.62,7.3-5.49l8.44-16.75c.68-1.36,2-2.04,3.31-2.04M56,0C48.64,0,42,4.09,38.69,10.66l-7.24,14.38-15.63,2.93c-6.9,1.29-12.58,6.24-14.81,12.9-2.23,6.67-.68,14.03,4.06,19.23l11.62,12.75-2.27,17.22c-.73,5.54.96,11.12,4.63,15.31,3.69,4.21,9.01,6.62,14.58,6.62,3.06,0,6.13-.75,8.87-2.16l13.5-6.95,13.5,6.95c2.74,1.41,5.81,2.16,8.87,2.16,5.58,0,10.89-2.41,14.58-6.62,3.67-4.19,5.36-9.77,4.63-15.31l-2.27-17.21,11.62-12.75c4.73-5.19,6.29-12.56,4.05-19.23-2.23-6.66-7.91-11.6-14.81-12.9l-15.63-2.93-7.24-14.38C70,4.09,63.36,0,56,0h0Z"/>
</svg>