<?xml version="1.0" encoding="UTF-8"?>
<svg id="Layer_1" xmlns="http://www.w3.org/2000/svg" version="1.1" viewBox="0 0 112 112">
  <!-- Generator: Adobe Illustrator 30.1.0, SVG Export Plug-In . SVG Version: 2.1.1 Build 136)  -->
  <path d="M56,11.72c1.44,0,2.88.75,3.63,2.24l9.26,18.39c1.59,3.16,4.56,5.39,8.02,6.04l20.04,3.76c3.13.59,4.4,4.4,2.25,6.75l-14.6,16.02c-2.25,2.47-3.3,5.82-2.86,9.13l2.85,21.6c.34,2.58-1.71,4.62-4.03,4.62-.61,0-1.25-.14-1.86-.46l-17.53-9.03c-1.62-.84-3.4-1.26-5.18-1.26-1.78,0-3.55.42-5.18,1.26l-17.53,9.03c-.61.31-1.24.46-1.86.46-2.32,0-4.37-2.04-4.03-4.62l2.85-21.61c.44-3.32-.61-6.65-2.86-9.12l-14.6-16.02c-2.15-2.36-.88-6.17,2.26-6.76l20.04-3.76c3.46-.65,6.43-2.88,8.02-6.03l9.26-18.39c.75-1.49,2.19-2.24,3.63-2.24M56,0C50,0,44.6,3.33,41.9,8.69l-9.17,18.21-19.83,3.72c-5.62,1.05-10.25,5.08-12.07,10.51-1.82,5.43-.55,11.44,3.3,15.67l14.48,15.89-2.83,21.44c-.6,4.52.78,9.06,3.77,12.48,3.01,3.43,7.34,5.4,11.88,5.4,2.49,0,4.99-.61,7.23-1.76l17.34-8.93,17.34,8.93c2.24,1.15,4.73,1.76,7.23,1.76,4.54,0,8.88-1.97,11.88-5.4,2.99-3.41,4.37-7.96,3.77-12.48l-2.83-21.43,14.48-15.89c3.86-4.23,5.12-10.24,3.3-15.67-1.82-5.43-6.44-9.45-12.06-10.51l-19.84-3.72-9.17-18.21C67.4,3.33,62,0,56,0h0Z"/>
</svg>