<?xml version="1.0" encoding="UTF-8"?>
<svg id="Layer_1" xmlns="http://www.w3.org/2000/svg" version="1.1" viewBox="0 0 112 112">
  <!-- Generator: Adobe Illustrator 30.1.0, SVG Export Plug-In . SVG Version: 2.1.1 Build 136)  -->
  <path d="M56,19.64c1.18,0,2.36.61,2.98,1.84l7.61,15.1c1.31,2.59,3.74,4.42,6.59,4.96l16.46,3.09c2.57.48,3.62,3.61,1.85,5.55l-11.99,13.16c-1.85,2.03-2.71,4.78-2.35,7.5l2.34,17.74c.28,2.12-1.41,3.79-3.31,3.79-.5,0-1.02-.12-1.53-.38l-14.4-7.41c-1.33-.69-2.79-1.03-4.25-1.03s-2.92.34-4.25,1.03l-14.4,7.41c-.5.26-1.02.38-1.53.38-1.9,0-3.59-1.68-3.31-3.79l2.34-17.75c.36-2.72-.5-5.47-2.35-7.49l-11.99-13.16c-1.77-1.94-.72-5.07,1.85-5.55l16.46-3.08c2.85-.53,5.28-2.37,6.58-4.96l7.61-15.1c.62-1.23,1.8-1.84,2.98-1.84M56,0c-8.73,0-16.59,4.84-20.52,12.64l-5.31,10.54-11.42,2.14c-8.18,1.53-14.91,7.39-17.55,15.29-2.65,7.9-.8,16.63,4.81,22.79l8.76,9.61-1.71,13c-.87,6.57,1.14,13.18,5.49,18.15,4.37,4.99,10.67,7.84,17.28,7.84,3.63,0,7.27-.88,10.52-2.56l9.66-4.97,9.66,4.97c3.25,1.67,6.88,2.56,10.52,2.56,6.61,0,12.91-2.86,17.28-7.85,4.36-4.97,6.36-11.59,5.49-18.15l-1.71-13,8.76-9.62c5.61-6.16,7.45-14.89,4.81-22.79-2.64-7.9-9.37-13.75-17.55-15.29l-11.43-2.14-5.31-10.54c-3.93-7.8-11.79-12.64-20.52-12.64h0Z"/>
</svg>