<?xml version="1.0" encoding="UTF-8"?>
<svg id="Layer_1" xmlns="http://www.w3.org/2000/svg" version="1.1" viewBox="0 0 44 44">
  <!-- Generator: Adobe Illustrator 30.1.0, SVG Export Plug-In . SVG Version: 2.1.1 Build 136)  -->
  <path d="M22,6.16c.52,0,1.03.27,1.3.8l3.31,6.58c.57,1.13,1.63,1.93,2.87,2.16l7.17,1.34c1.12.21,1.58,1.57.81,2.42l-5.22,5.73c-.81.88-1.18,2.08-1.02,3.27l1.02,7.73c.12.92-.61,1.65-1.44,1.65-.22,0-.45-.05-.67-.16l-6.27-3.23c-.58-.3-1.22-.45-1.85-.45s-1.27.15-1.85.45l-6.27,3.23c-.22.11-.45.16-.67.16-.83,0-1.56-.73-1.44-1.65l1.02-7.73c.16-1.19-.22-2.38-1.02-3.26l-5.22-5.73c-.77-.84-.31-2.21.81-2.42l7.17-1.34c1.24-.23,2.3-1.03,2.87-2.16l3.31-6.58c.27-.53.78-.8,1.3-.8M22,0c-2.89,0-5.5,1.61-6.8,4.19l-2.85,5.65-6.14,1.15c-2.71.51-4.94,2.45-5.82,5.07-.88,2.62-.27,5.51,1.59,7.55l4.56,5.01-.89,6.76c-.29,2.18.38,4.37,1.82,6.02,1.45,1.65,3.54,2.6,5.73,2.6,1.2,0,2.41-.29,3.49-.85l5.3-2.73,5.3,2.73c1.08.55,2.28.85,3.49.85,2.19,0,4.28-.95,5.73-2.6,1.44-1.65,2.11-3.84,1.82-6.02l-.89-6.76,4.57-5.01c1.86-2.04,2.47-4.93,1.59-7.55-.88-2.62-3.11-4.56-5.82-5.07l-6.14-1.15-2.85-5.65c-1.3-2.58-3.91-4.19-6.8-4.19h0Z"/>
</svg>