<?xml version="1.0" encoding="UTF-8"?>
<svg id="Layer_1" xmlns="http://www.w3.org/2000/svg" version="1.1" viewBox="0 0 44 44">
  <!-- Generator: Adobe Illustrator 30.1.0, SVG Export Plug-In . SVG Version: 2.1.1 Build 136)  -->
  <path d="M22,4.61c.57,0,1.13.29,1.43.88l3.64,7.22c.62,1.24,1.79,2.12,3.15,2.37l7.87,1.48c1.23.23,1.73,1.73.89,2.65l-5.74,6.29c-.88.97-1.3,2.28-1.12,3.59l1.12,8.49c.13,1.01-.67,1.81-1.58,1.81-.24,0-.49-.06-.73-.18l-6.89-3.55c-.64-.33-1.34-.49-2.03-.49-.7,0-1.4.16-2.03.49l-6.89,3.55c-.24.12-.49.18-.73.18-.91,0-1.72-.8-1.58-1.81l1.12-8.49c.17-1.3-.24-2.61-1.12-3.58l-5.74-6.29c-.85-.93-.35-2.42.89-2.66l7.87-1.48c1.36-.26,2.53-1.13,3.15-2.37l3.64-7.22c.3-.59.86-.88,1.43-.88M22,0c-2.36,0-4.48,1.31-5.54,3.41l-3.6,7.15-7.79,1.46c-2.21.41-4.03,2-4.74,4.13-.71,2.13-.22,4.49,1.3,6.16l5.69,6.24-1.11,8.42c-.23,1.77.31,3.56,1.48,4.9,1.18,1.35,2.88,2.12,4.67,2.12.98,0,1.96-.24,2.84-.69l6.81-3.51,6.81,3.51c.88.45,1.86.69,2.84.69,1.78,0,3.49-.77,4.67-2.12,1.18-1.34,1.72-3.13,1.48-4.9l-1.11-8.42,5.69-6.24c1.52-1.66,2.01-4.02,1.3-6.16-.71-2.13-2.53-3.71-4.74-4.13l-7.79-1.46-3.6-7.15c-1.06-2.11-3.18-3.41-5.54-3.41h0Z"/>
</svg>