<?xml version="1.0" encoding="UTF-8"?>
<svg id="Layer_1" xmlns="http://www.w3.org/2000/svg" version="1.1" viewBox="0 0 104 104">
  <!-- Generator: Adobe Illustrator 30.1.0, SVG Export Plug-In . SVG Version: 2.1.1 Build 136)  -->
  <path d="M52,18.23c1.1,0,2.2.57,2.77,1.71l7.06,14.02c1.21,2.41,3.47,4.11,6.12,4.6l15.28,2.86c2.39.45,3.36,3.35,1.72,5.15l-11.14,12.22c-1.72,1.89-2.52,4.44-2.18,6.97l2.17,16.48c.26,1.97-1.31,3.52-3.07,3.52-.47,0-.95-.11-1.42-.35l-13.37-6.88c-1.24-.64-2.59-.96-3.95-.96-1.35,0-2.71.32-3.95.96l-13.37,6.88c-.47.24-.95.35-1.42.35-1.77,0-3.33-1.56-3.07-3.52l2.17-16.48c.33-2.53-.46-5.08-2.18-6.96l-11.14-12.22c-1.64-1.8-.67-4.71,1.72-5.15l15.28-2.86c2.64-.5,4.9-2.2,6.11-4.6l7.07-14.03c.57-1.14,1.67-1.71,2.77-1.71M52,0C43.89,0,36.59,4.5,32.95,11.74l-4.93,9.79-10.61,1.99c-7.6,1.42-13.84,6.86-16.3,14.2-2.46,7.33-.75,15.44,4.46,21.16l8.13,8.93-1.59,12.07c-.8,6.1,1.06,12.24,5.1,16.85,4.06,4.63,9.91,7.28,16.05,7.28,3.37,0,6.75-.82,9.77-2.37l8.97-4.62,8.97,4.62c3.01,1.55,6.39,2.37,9.77,2.37,6.14,0,11.99-2.66,16.05-7.28,4.05-4.61,5.9-10.76,5.1-16.85l-1.59-12.07,8.14-8.93c5.21-5.72,6.92-13.82,4.46-21.16-2.46-7.33-8.7-12.77-16.3-14.19l-10.61-1.99-4.93-9.79C67.4,4.5,60.1,0,52,0h0Z"/>
</svg>