<?xml version="1.0" encoding="UTF-8"?>
<svg id="Layer_1" xmlns="http://www.w3.org/2000/svg" version="1.1" viewBox="0 0 104 104">
  <!-- Generator: Adobe Illustrator 30.1.0, SVG Export Plug-In . SVG Version: 2.1.1 Build 136)  -->
  <path d="M52,14.56c1.22,0,2.43.63,3.07,1.89l7.83,15.55c1.34,2.67,3.85,4.56,6.78,5.1l16.95,3.18c2.65.5,3.72,3.72,1.91,5.71l-12.35,13.55c-1.9,2.09-2.79,4.92-2.42,7.72l2.41,18.27c.29,2.18-1.45,3.91-3.41,3.91-.52,0-1.05-.12-1.57-.39l-14.82-7.63c-1.37-.71-2.88-1.06-4.38-1.06s-3,.35-4.38,1.06l-14.82,7.63c-.52.27-1.05.39-1.57.39-1.96,0-3.7-1.73-3.41-3.91l2.41-18.27c.37-2.8-.52-5.63-2.42-7.71l-12.35-13.55c-1.82-2-.74-5.22,1.91-5.72l16.94-3.18c2.93-.55,5.44-2.44,6.78-5.1l7.83-15.55c.64-1.26,1.85-1.89,3.07-1.89M52,0C45.16,0,39,3.79,35.93,9.9l-6.72,13.35-14.51,2.72c-6.41,1.2-11.68,5.79-13.75,11.98-2.07,6.19-.63,13.03,3.77,17.86l10.79,11.84-2.11,15.99c-.68,5.15.89,10.33,4.3,14.22,3.43,3.91,8.36,6.15,13.54,6.15,2.84,0,5.69-.69,8.24-2l12.53-6.45,12.53,6.45c2.54,1.31,5.39,2,8.24,2,5.18,0,10.12-2.24,13.54-6.15,3.41-3.89,4.98-9.07,4.3-14.22l-2.11-15.99,10.79-11.84c4.4-4.82,5.84-11.66,3.77-17.85-2.07-6.19-7.34-10.77-13.75-11.98l-14.52-2.72-6.72-13.35C65,3.79,58.84,0,52,0h0Z"/>
</svg>