<?xml version="1.0" encoding="UTF-8"?>
<svg id="Layer_1" xmlns="http://www.w3.org/2000/svg" version="1.1" viewBox="0 0 116 116">
  <!-- Generator: Adobe Illustrator 30.1.0, SVG Export Plug-In . SVG Version: 2.1.1 Build 136)  -->
  <path d="M58,20.34c1.22,0,2.45.64,3.09,1.91l7.88,15.64c1.35,2.68,3.88,4.58,6.82,5.14l17.05,3.2c2.67.5,3.75,3.74,1.92,5.75l-12.42,13.63c-1.92,2.1-2.81,4.95-2.44,7.77l2.42,18.38c.29,2.19-1.46,3.93-3.43,3.93-.52,0-1.06-.12-1.58-.39l-14.91-7.68c-1.38-.71-2.89-1.07-4.4-1.07-1.51,0-3.02.36-4.4,1.07l-14.91,7.68c-.52.27-1.06.39-1.58.39-1.97,0-3.72-1.74-3.43-3.93l2.42-18.38c.37-2.82-.52-5.66-2.43-7.76l-12.42-13.63c-1.83-2.01-.75-5.25,1.92-5.75l17.05-3.19c2.95-.55,5.47-2.45,6.82-5.13l7.88-15.64c.64-1.27,1.86-1.91,3.09-1.91M58,0C48.96,0,40.82,5.02,36.75,13.09l-5.5,10.91-11.83,2.22c-8.47,1.59-15.44,7.66-18.18,15.83-2.74,8.18-.83,17.22,4.98,23.6l9.07,9.96-1.78,13.46c-.9,6.8,1.18,13.65,5.69,18.8,4.53,5.16,11.05,8.13,17.9,8.13,3.76,0,7.53-.92,10.89-2.65l10-5.15,10,5.15c3.36,1.73,7.13,2.65,10.89,2.65,6.85,0,13.37-2.96,17.9-8.13,4.51-5.15,6.59-12,5.69-18.8l-1.78-13.46,9.08-9.96c5.81-6.38,7.72-15.42,4.98-23.6-2.74-8.18-9.71-14.24-18.18-15.83l-11.84-2.22-5.5-10.91C75.18,5.02,67.04,0,58,0h0Z"/>
</svg>