<?xml version="1.0" encoding="UTF-8"?>
<svg id="Layer_1" xmlns="http://www.w3.org/2000/svg" version="1.1" viewBox="0 0 116 116">
  <!-- Generator: Adobe Illustrator 30.1.0, SVG Export Plug-In . SVG Version: 2.1.1 Build 136)  -->
  <path d="M58,12.14c1.49,0,2.98.77,3.76,2.32l9.59,19.04c1.65,3.27,4.72,5.58,8.31,6.25l20.75,3.89c3.24.61,4.56,4.55,2.33,7l-15.12,16.59c-2.33,2.56-3.42,6.02-2.96,9.46l2.95,22.37c.35,2.67-1.78,4.78-4.17,4.78-.64,0-1.29-.15-1.93-.47l-18.15-9.35c-1.68-.87-3.52-1.3-5.36-1.3-1.84,0-3.68.43-5.36,1.3l-18.15,9.35c-.63.33-1.29.47-1.93.47-2.4,0-4.53-2.11-4.17-4.78l2.95-22.38c.45-3.43-.63-6.89-2.96-9.45l-15.12-16.59c-2.23-2.44-.91-6.39,2.34-7l20.75-3.89c3.59-.67,6.66-2.98,8.3-6.25l9.6-19.05c.78-1.55,2.27-2.32,3.76-2.32M58,0C51.79,0,46.19,3.45,43.39,9l-9.5,18.86-20.54,3.85c-5.83,1.09-10.61,5.26-12.5,10.89-1.88,5.63-.57,11.85,3.42,16.23l15,16.46-2.93,22.2c-.62,4.68.81,9.39,3.91,12.92,3.12,3.55,7.6,5.59,12.31,5.59,2.58,0,5.17-.63,7.49-1.82l17.96-9.25,17.96,9.25c2.32,1.19,4.9,1.82,7.49,1.82,4.71,0,9.19-2.04,12.31-5.59,3.1-3.53,4.52-8.24,3.91-12.92l-2.93-22.2,15-16.46c4-4.38,5.31-10.6,3.42-16.23-1.88-5.62-6.67-9.79-12.5-10.88l-20.55-3.85-9.5-18.86C69.81,3.45,64.21,0,58,0h0Z"/>
</svg>