<?xml version="1.0" encoding="UTF-8"?>
<svg id="Layer_1" xmlns="http://www.w3.org/2000/svg" version="1.1" viewBox="0 0 8 8">
  <!-- Generator: Adobe Illustrator 30.1.0, SVG Export Plug-In . SVG Version: 2.1.1 Build 136)  -->
  <path d="M4,.84c.1,0,.21.05.26.16l.66,1.31c.11.23.33.38.57.43l1.43.27c.22.04.31.31.16.48l-1.04,1.14c-.16.18-.24.42-.2.65l.2,1.54c.02.18-.12.33-.29.33-.04,0-.09-.01-.13-.03l-1.25-.64c-.12-.06-.24-.09-.37-.09s-.25.03-.37.09l-1.25.64s-.09.03-.13.03c-.17,0-.31-.15-.29-.33l.2-1.54c.03-.24-.04-.48-.2-.65l-1.04-1.14c-.15-.17-.06-.44.16-.48l1.43-.27c.25-.05.46-.21.57-.43l.66-1.31c.05-.11.16-.16.26-.16M4,0C3.57,0,3.19.24,2.99.62l-.66,1.31-1.41.25c-.4.08-.73.36-.86.75-.13.39-.04.82.24,1.12l1.04,1.14-.21,1.52c-.04.32.06.65.27.89.21.25.52.39.85.39.18,0,.36-.04.52-.13l1.25-.64,1.22.64c.16.08.34.13.52.13.32,0,.63-.14.85-.39.21-.24.31-.57.27-.89l-.2-1.54,1.04-1.12c.28-.3.37-.73.24-1.12-.13-.39-.46-.68-.86-.75l-1.43-.27-.64-1.3C4.81.24,4.43,0,4,0h0Z"/>
</svg>