<?xml version="1.0" encoding="UTF-8"?>
<svg id="Layer_1" xmlns="http://www.w3.org/2000/svg" version="1.1" viewBox="0 0 8 8">
  <!-- Generator: Adobe Illustrator 30.1.0, SVG Export Plug-In . SVG Version: 2.1.1 Build 136)  -->
  <path d="M4,1.4c.08,0,.17.04.21.13l.54,1.08c.09.19.27.32.47.35l1.18.22c.18.03.26.26.13.4l-.86.94c-.13.15-.19.34-.17.54l.17,1.27c.02.15-.1.27-.24.27-.04,0-.07,0-.11-.03l-1.03-.53c-.1-.05-.2-.07-.3-.07s-.21.02-.3.07l-1.03.53s-.07.03-.11.03c-.14,0-.26-.12-.24-.27l.17-1.27c.03-.19-.04-.39-.17-.54l-.86-.94c-.13-.14-.05-.36.13-.4l1.18-.22c.2-.04.38-.17.47-.35l.54-1.08c.04-.09.13-.13.21-.13M4,0C3.38,0,2.81.35,2.53.9l-.38.75-.82.15c-.58.11-1.06.53-1.25,1.09-.19.56-.06,1.19.34,1.63l.63.69-.12.93c-.06.47.08.94.39,1.3.31.36.76.56,1.23.56.26,0,.52-.06.75-.18l.69-.36.69.36c.23.12.49.18.75.18.47,0,.92-.2,1.23-.56.31-.35.45-.83.39-1.3l-.12-.93.63-.69c.4-.44.53-1.06.34-1.63-.19-.56-.67-.98-1.25-1.09l-.82-.15-.38-.75C5.18.35,4.62,0,4,0h0Z"/>
</svg>