<?xml version="1.0" encoding="UTF-8"?>
<svg id="Layer_1" xmlns="http://www.w3.org/2000/svg" version="1.1" viewBox="0 0 101 101">
  <!-- Generator: Adobe Illustrator 30.1.0, SVG Export Plug-In . SVG Version: 2.1.1 Build 136)  -->
  <g>
    <g>
      <rect x="46.8" y="29.43" width="7.39" height="7.39"/>
      <path d="M52.78,30.85v4.55h-4.55v-4.55h4.55M55.62,28.01h-10.23v10.23h10.23v-10.23h0Z"/>
    </g>
    <g>
      <polygon points="42.25 70.72 42.25 63.33 46.8 63.33 46.8 51.96 42.25 51.96 42.25 44.57 54.2 44.57 54.2 63.33 58.75 63.33 58.75 70.72 42.25 70.72"/>
      <path d="M52.78,45.99v18.76h4.55v4.55h-13.65v-4.55h4.55v-14.21h-4.55v-4.55h9.1M55.62,43.15h-14.78v10.23h4.55v8.53h-4.55v10.23h19.33v-10.23h-4.55v-18.76h0Z"/>
    </g>
  </g>
  <circle id="Outer" cx="50.5" cy="50.5" r="41.65" fill="none" stroke="#000" stroke-width="17.71"/>
</svg>