<?xml version="1.0" encoding="UTF-8"?>
<svg id="Layer_1" xmlns="http://www.w3.org/2000/svg" version="1.1" viewBox="0 0 73 73">
  <!-- Generator: Adobe Illustrator 30.1.0, SVG Export Plug-In . SVG Version: 2.1.1 Build 136)  -->
  <circle id="Outer" cx="36.5" cy="36.5" r="31.39" fill="none" stroke="#000" stroke-width="10.22"/>
  <g>
    <g>
      <rect x="34.19" y="47.09" width="4.59" height="4.59"/>
      <path d="M37.97,47.89v2.99h-2.99v-2.99h2.99M39.57,46.29h-6.18v6.18h6.18v-6.18h0Z"/>
    </g>
    <g>
      <path d="M34.2,42.31l-.02-1.92c0-1.62.61-3.17,1.69-4.36l2.96-3.28c.68-.75,1.05-1.72,1.05-2.73,0-1.33-1.09-2.41-2.43-2.41h-1.9c-1.34,0-2.43,1.08-2.43,2.41v.8h-4.61v-.8c0-3.86,3.16-7,7.04-7h1.9c3.88,0,7.04,3.14,7.04,7,0,2.14-.79,4.2-2.23,5.79l-2.96,3.28c-.33.37-.51.81-.51,1.29l-.02,1.93h-4.57Z"/>
      <path d="M37.45,23.82c3.44,0,6.24,2.78,6.24,6.2,0,1.94-.72,3.81-2.03,5.26l-2.96,3.28c-.46.51-.71,1.14-.71,1.82v1.13h-3v-1.13c0-1.42.52-2.77,1.47-3.82l2.96-3.28c.81-.9,1.26-2.06,1.26-3.26,0-1.77-1.45-3.2-3.23-3.2h-1.9c-1.78,0-3.23,1.44-3.23,3.2h-3.02c0-3.42,2.8-6.2,6.24-6.2h1.9M37.45,22.23h-1.9c-4.32,0-7.84,3.5-7.84,7.8v1.6h6.21v-1.6c0-.89.73-1.61,1.63-1.61h1.9c.9,0,1.63.72,1.63,1.61,0,.81-.3,1.59-.85,2.19l-2.96,3.28c-1.21,1.34-1.89,3.08-1.89,4.89v1.15s.02,1.58.02,1.58h6.15l.02-1.58v-1.13c.01-.29.11-.54.31-.77l2.96-3.28c1.57-1.74,2.44-3.99,2.44-6.33,0-4.3-3.52-7.8-7.84-7.8h0Z"/>
    </g>
  </g>
</svg>