<?xml version="1.0" encoding="UTF-8"?>
<svg id="Layer_1" xmlns="http://www.w3.org/2000/svg" version="1.1" viewBox="0 0 36 36">
  <!-- Generator: Adobe Illustrator 30.1.0, SVG Export Plug-In . SVG Version: 2.1.1 Build 136)  -->
  <g>
    <g>
      <rect x="16.68" y="10.49" width="2.63" height="2.63"/>
      <path d="M18.81,10.99v1.62h-1.62v-1.62h1.62M19.82,9.98h-3.65v3.65h3.65v-3.65h0Z"/>
    </g>
    <g>
      <polygon points="15.06 25.21 15.06 22.57 16.68 22.57 16.68 18.52 15.06 18.52 15.06 15.89 19.32 15.89 19.32 22.57 20.94 22.57 20.94 25.21 15.06 25.21"/>
      <path d="M18.81,16.39v6.69h1.62v1.62h-4.87v-1.62h1.62v-5.06h-1.62v-1.62h3.24M19.82,15.38h-5.27v3.65h1.62v3.04h-1.62v3.65h6.89v-3.65h-1.62v-6.69h0Z"/>
    </g>
  </g>
  <circle id="Outer" cx="18" cy="18" r="14.84" fill="none" stroke="#000" stroke-width="6.31"/>
</svg>