<?xml version="1.0" encoding="UTF-8"?>
<svg id="Layer_1" xmlns="http://www.w3.org/2000/svg" version="1.1" viewBox="0 0 69 69">
  <!-- Generator: Adobe Illustrator 30.1.0, SVG Export Plug-In . SVG Version: 2.1.1 Build 136)  -->
  <g>
    <g>
      <rect x="32.05" y="18.35" width="4.89" height="4.89"/>
      <path d="M36.41,18.89v3.81h-3.81v-3.81h3.81M37.49,17.81h-5.97v5.97h5.97v-5.97h0Z"/>
    </g>
    <g>
      <polygon points="28.24 50.44 28.24 45.55 32.05 45.55 32.05 34.72 28.24 34.72 28.24 29.83 36.95 29.83 36.95 45.55 40.76 45.55 40.76 50.44 28.24 50.44"/>
      <path d="M36.41,30.36v15.72h3.81v3.81h-11.44v-3.81h3.81v-11.91h-3.81v-3.81h7.63M37.49,29.29h-9.79v5.97h3.81v9.75h-3.81v5.97h13.6v-5.97h-3.81v-15.72h0Z"/>
    </g>
  </g>
  <circle id="Outer" cx="34.5" cy="34.5" r="30.89" fill="none" stroke="#000" stroke-width="7.22"/>
</svg>