<?xml version="1.0" encoding="UTF-8"?>
<svg id="Layer_1" xmlns="http://www.w3.org/2000/svg" version="1.1" viewBox="0 0 120 120">
  <!-- Generator: Adobe Illustrator 30.1.0, SVG Export Plug-In . SVG Version: 2.1.1 Build 136)  -->
  <g>
    <g>
      <rect x="55.61" y="34.96" width="8.78" height="8.78"/>
      <path d="M62.7,36.65v5.41h-5.41v-5.41h5.41M66.08,33.27h-12.16v12.16h12.16v-12.16h0Z"/>
    </g>
    <g>
      <polygon points="50.2 84.02 50.2 75.24 55.61 75.24 55.61 61.74 50.2 61.74 50.2 52.96 64.39 52.96 64.39 75.24 69.8 75.24 69.8 84.02 50.2 84.02"/>
      <path d="M62.7,54.64v22.29h5.41v5.41h-16.22v-5.41h5.41v-16.88h-5.41v-5.41h10.81M66.08,51.27h-17.56v12.16h5.41v10.13h-5.41v12.16h22.97v-12.16h-5.41v-22.29h0Z"/>
    </g>
  </g>
  <circle id="Outer" cx="60" cy="60" r="49.48" fill="none" stroke="#000" stroke-width="21.04"/>
</svg>