<?xml version="1.0" encoding="UTF-8"?>
<svg id="Layer_1" xmlns="http://www.w3.org/2000/svg" version="1.1" viewBox="0 0 120 120">
  <!-- Generator: Adobe Illustrator 30.1.0, SVG Export Plug-In . SVG Version: 2.1.1 Build 136)  -->
  <g>
    <g>
      <rect x="55.75" y="31.91" width="8.51" height="8.51"/>
      <path d="M63.32,32.85v6.63h-6.63v-6.63h6.63M65.19,30.98h-10.38v10.38h10.38v-10.38h0Z"/>
    </g>
    <g>
      <polygon points="49.11 87.73 49.11 79.22 55.75 79.22 55.75 60.38 49.11 60.38 49.11 51.87 64.25 51.87 64.25 79.22 70.89 79.22 70.89 87.73 49.11 87.73"/>
      <path d="M63.32,52.81v27.35h6.63v6.63h-19.9v-6.63h6.63v-20.71h-6.63v-6.63h13.27M65.19,50.93h-17.02v10.38h6.63v16.96h-6.63v10.38h23.65v-10.38h-6.63v-27.35h0Z"/>
    </g>
  </g>
  <circle id="Outer" cx="60" cy="60" r="53.72" fill="none" stroke="#000" stroke-width="12.56"/>
</svg>