<?xml version="1.0" encoding="UTF-8"?>
<svg id="Layer_1" xmlns="http://www.w3.org/2000/svg" version="1.1" viewBox="0 0 60 60">
  <!-- Generator: Adobe Illustrator 30.1.0, SVG Export Plug-In . SVG Version: 2.1.1 Build 136)  -->
  <path d="M30,6.28c.77,0,1.54.4,1.95,1.2l4.96,9.85c.85,1.69,2.44,2.89,4.3,3.23l10.74,2.01c1.68.31,2.36,2.35,1.21,3.62l-7.82,8.58c-1.21,1.32-1.77,3.12-1.53,4.89l1.53,11.57c.18,1.38-.92,2.47-2.16,2.47-.33,0-.67-.08-1-.25l-9.39-4.84c-.87-.45-1.82-.67-2.77-.67-.95,0-1.9.22-2.77.67l-9.39,4.84c-.33.17-.67.25-1,.25-1.24,0-2.34-1.09-2.16-2.47l1.53-11.58c.23-1.78-.33-3.56-1.53-4.89l-7.82-8.58c-1.15-1.26-.47-3.31,1.21-3.62l10.73-2.01c1.86-.35,3.44-1.54,4.29-3.23l4.96-9.85c.4-.8,1.17-1.2,1.95-1.2M30,0C26.79,0,23.89,1.78,22.44,4.66l-4.92,9.76-10.62,1.99c-3.01.56-5.49,2.72-6.46,5.63-.97,2.91-.3,6.13,1.77,8.39l7.76,8.51-1.51,11.48c-.32,2.42.42,4.86,2.02,6.68,1.61,1.84,3.93,2.89,6.37,2.89,1.34,0,2.67-.33,3.87-.94l9.29-4.78,9.29,4.78c1.2.62,2.54.94,3.87.94,2.43,0,4.75-1.05,6.37-2.89,1.6-1.83,2.34-4.26,2.02-6.68l-1.51-11.48,7.76-8.51c2.07-2.27,2.74-5.48,1.77-8.39-.97-2.91-3.45-5.06-6.46-5.63l-10.63-1.99-4.92-9.76C36.11,1.78,33.21,0,30,0h0Z"/>
</svg>