<?xml version="1.0" encoding="UTF-8"?>
<svg id="Layer_1" xmlns="http://www.w3.org/2000/svg" version="1.1" viewBox="0 0 60 60">
  <!-- Generator: Adobe Illustrator 30.1.0, SVG Export Plug-In . SVG Version: 2.1.1 Build 136)  -->
  <path d="M30,10.52c.63,0,1.27.33,1.6.99l4.08,8.09c.7,1.39,2,2.37,3.53,2.66l8.82,1.65c1.38.26,1.94,1.93.99,2.97l-6.42,7.05c-.99,1.09-1.45,2.56-1.26,4.02l1.25,9.51c.15,1.13-.75,2.03-1.77,2.03-.27,0-.55-.06-.82-.2l-7.71-3.97c-.71-.37-1.5-.55-2.28-.55s-1.56.18-2.28.55l-7.71,3.97c-.27.14-.55.2-.82.2-1.02,0-1.92-.9-1.77-2.03l1.25-9.51c.19-1.46-.27-2.93-1.26-4.01l-6.42-7.05c-.95-1.04-.39-2.72.99-2.97l8.82-1.65c1.52-.29,2.83-1.27,3.53-2.65l4.08-8.09c.33-.66.96-.99,1.6-.99M30,0C25.32,0,21.11,2.59,19.01,6.77l-2.84,5.65-6.12,1.15c-4.38.82-7.99,3.96-9.4,8.19-1.42,4.23-.43,8.91,2.57,12.21l4.69,5.15-.92,6.96c-.46,3.52.61,7.06,2.94,9.72,2.34,2.67,5.72,4.2,9.26,4.2,1.95,0,3.9-.47,5.63-1.37l5.17-2.66,5.17,2.66c1.74.9,3.69,1.37,5.63,1.37,3.54,0,6.92-1.53,9.26-4.2,2.33-2.66,3.41-6.21,2.94-9.72l-.92-6.96,4.69-5.15c3.01-3.3,3.99-7.98,2.57-12.21-1.42-4.23-5.02-7.37-9.4-8.19l-6.12-1.15-2.84-5.65C38.89,2.59,34.68,0,30,0h0Z"/>
</svg>