<?xml version="1.0" encoding="UTF-8"?>
<svg id="Layer_1" xmlns="http://www.w3.org/2000/svg" version="1.1" viewBox="0 0 105 105">
  <!-- Generator: Adobe Illustrator 30.1.0, SVG Export Plug-In . SVG Version: 2.1.1 Build 136)  -->
  <g>
    <g>
      <rect x="48.72" y="29.26" width="7.56" height="7.56"/>
      <path d="M55.13,30.41v5.26h-5.26v-5.26h5.26M57.43,28.11h-9.86v9.86h9.86v-9.86h0Z"/>
    </g>
    <g>
      <polygon points="43.46 75.13 43.46 67.57 48.72 67.57 48.72 53.43 43.46 53.43 43.46 45.87 56.28 45.87 56.28 67.57 61.54 67.57 61.54 75.13 43.46 75.13"/>
      <path d="M55.13,47.02v21.69h5.26v5.26h-15.79v-5.26h5.26v-16.43h-5.26v-5.26h10.53M57.43,44.73h-15.12v9.86h5.26v11.84h-5.26v9.86h20.38v-9.86h-5.26v-21.69h0Z"/>
    </g>
  </g>
  <circle id="Outer" cx="52.5" cy="52.5" r="45.15" fill="none" stroke="#000" stroke-width="14.7"/>
</svg>