<?xml version="1.0" encoding="UTF-8"?>
<svg id="Layer_1" xmlns="http://www.w3.org/2000/svg" version="1.1" viewBox="0 0 12 12">
  <!-- Generator: Adobe Illustrator 30.1.0, SVG Export Plug-In . SVG Version: 2.1.1 Build 136)  -->
  <g>
    <g>
      <rect x="5.57" y="3.19" width=".85" height=".85"/>
      <path d="M6.33,3.29v.66h-.66v-.66h.66M6.52,3.1h-1.04v1.04h1.04v-1.04h0Z"/>
    </g>
    <g>
      <polygon points="4.91 8.77 4.91 7.92 5.57 7.92 5.57 6.04 4.91 6.04 4.91 5.19 6.43 5.19 6.43 7.92 7.09 7.92 7.09 8.77 4.91 8.77"/>
      <path d="M6.33,5.28v2.73h.66v.66h-1.99v-.66h.66v-2.07h-.66v-.66h1.33M6.52,5.09h-1.7v1.04h.66v1.7h-.66v1.04h2.37v-1.04h-.66v-2.73h0Z"/>
    </g>
  </g>
  <circle id="Outer" cx="6" cy="6" r="5.37" fill="none" stroke="#000" stroke-width="1.26"/>
</svg>