<?xml version="1.0" encoding="UTF-8"?>
<svg id="Layer_1" xmlns="http://www.w3.org/2000/svg" version="1.1" viewBox="0 0 52 52">
  <!-- Generator: Adobe Illustrator 30.1.0, SVG Export Plug-In . SVG Version: 2.1.1 Build 136)  -->
  <circle id="Outer" cx="26" cy="26" r="21.44" fill="none" stroke="#000" stroke-width="9.12"/>
  <g>
    <g>
      <rect x="24.34" y="32.84" width="3.29" height="3.29"/>
      <path d="M26.9,33.57v1.83h-1.83v-1.83h1.83M28.37,32.11h-4.76v4.76h4.76v-4.76h0Z"/>
    </g>
    <g>
      <path d="M24.35,29.63v-1.42c0-1.06.38-2.06,1.08-2.84l1.81-2.01c.38-.42.58-.95.58-1.51,0-.68-.56-1.23-1.25-1.23h-1.17c-.69,0-1.25.55-1.25,1.23v.73h-3.31v-.73c0-2.5,2.04-4.53,4.56-4.53h1.17c2.51,0,4.56,2.03,4.56,4.53,0,1.37-.51,2.69-1.43,3.71l-1.82,2.01c-.16.18-.25.4-.25.63l-.02,1.42h-3.28Z"/>
      <path d="M26.58,18.06c2.11,0,3.83,1.7,3.83,3.8,0,1.19-.44,2.34-1.24,3.22l-1.81,2.01c-.28.31-.44.7-.44,1.12v.69h-1.84v-.69c0-.87.32-1.7.9-2.34l1.81-2.01c.5-.55.77-1.26.77-2,0-1.08-.89-1.96-1.98-1.96h-1.17c-1.09,0-1.98.88-1.98,1.96h-1.85c0-2.09,1.72-3.8,3.83-3.8h1.17M26.58,16.59h-1.17c-2.92,0-5.29,2.36-5.29,5.26v1.46h4.77v-1.46c0-.28.23-.5.51-.5h1.17c.28,0,.51.22.51.5,0,.38-.14.74-.39,1.02l-1.81,2.01c-.82.91-1.28,2.09-1.28,3.32v.71s.02,1.45.02,1.45h4.73v-1.45s.02-.69.02-.69c0-.05,0-.09.06-.15l1.82-2.01c1.04-1.16,1.62-2.65,1.62-4.2,0-2.9-2.37-5.26-5.29-5.26h0Z"/>
    </g>
  </g>
</svg>