<?xml version="1.0" encoding="UTF-8"?>
<svg id="Layer_1" xmlns="http://www.w3.org/2000/svg" version="1.1" viewBox="0 0 52 52">
  <!-- Generator: Adobe Illustrator 30.1.0, SVG Export Plug-In . SVG Version: 2.1.1 Build 136)  -->
  <circle id="Outer" cx="26" cy="26" r="22.36" fill="none" stroke="#000" stroke-width="7.28"/>
  <g>
    <g>
      <rect x="24.35" y="33.54" width="3.27" height="3.27"/>
      <path d="M27.05,34.11v2.13h-2.13v-2.13h2.13M28.19,32.97h-4.4v4.4h4.4v-4.4h0Z"/>
    </g>
    <g>
      <path d="M24.36,30.14v-1.37c0-1.16.42-2.26,1.19-3.11l2.11-2.34c.48-.53.75-1.22.75-1.94,0-.94-.78-1.71-1.73-1.71h-1.35c-.95,0-1.73.77-1.73,1.71v.57h-3.29v-.57c0-2.75,2.25-4.98,5.02-4.98h1.35c2.77,0,5.02,2.24,5.02,4.98,0,1.53-.56,2.99-1.59,4.13l-2.11,2.34c-.24.26-.36.58-.36.92v1.37h-3.27Z"/>
      <path d="M26.68,16.97c2.45,0,4.45,1.98,4.45,4.42,0,1.39-.51,2.72-1.44,3.75l-2.11,2.34c-.33.36-.51.81-.51,1.3v.81h-2.14v-.81c0-1.01.37-1.97,1.05-2.72l2.11-2.34c.58-.64.9-1.46.9-2.32,0-1.26-1.03-2.28-2.3-2.28h-1.35c-1.27,0-2.3,1.02-2.3,2.28h-2.15c0-2.43,1.99-4.42,4.45-4.42h1.35M26.68,15.83h-1.35c-3.08,0-5.58,2.49-5.58,5.55v1.14h4.42v-1.14c0-.63.52-1.14,1.16-1.14h1.35c.64,0,1.16.51,1.16,1.14,0,.58-.21,1.13-.6,1.56l-2.11,2.34c-.86.96-1.34,2.19-1.35,3.48v.82s.02,1.13.02,1.13h4.38v-1.13s.02-.81.02-.81c0-.21.07-.39.22-.55l2.11-2.34c1.12-1.24,1.74-2.84,1.74-4.51,0-3.06-2.51-5.55-5.58-5.55h0Z"/>
    </g>
  </g>
</svg>