<?xml version="1.0" encoding="UTF-8"?>
<svg id="Layer_1" xmlns="http://www.w3.org/2000/svg" version="1.1" viewBox="0 0 9 9">
  <!-- Generator: Adobe Illustrator 30.1.0, SVG Export Plug-In . SVG Version: 2.1.1 Build 136)  -->
  <circle id="Outer" cx="4.5" cy="4.5" r="3.87" fill="none" stroke="#000" stroke-width="1.26"/>
  <g>
    <g>
      <rect x="4.21" y="5.8" width=".57" height=".57"/>
      <path d="M4.68,5.9v.37h-.37v-.37h.37M4.88,5.71h-.76v.76h.76v-.76h0Z"/>
    </g>
    <g>
      <path d="M4.22,5.22v-.24c0-.2.07-.39.21-.54l.36-.4c.08-.09.13-.21.13-.34,0-.16-.13-.3-.3-.3h-.23c-.17,0-.3.13-.3.3v.1h-.57v-.1c0-.48.39-.86.87-.86h.23c.48,0,.87.39.87.86,0,.26-.1.52-.28.71l-.36.4s-.06.1-.06.16v.24h-.57Z"/>
      <path d="M4.62,2.94c.42,0,.77.34.77.76,0,.24-.09.47-.25.65l-.37.4c-.06.06-.09.14-.09.22v.14h-.37v-.14c0-.17.06-.34.18-.47l.37-.4c.1-.11.15-.25.15-.4,0-.22-.18-.39-.4-.39h-.23c-.22,0-.4.18-.4.39h-.37c0-.42.35-.76.77-.76h.23M4.62,2.74h-.23c-.53,0-.97.43-.97.96v.2h.77v-.2c0-.11.09-.2.2-.2h.23c.11,0,.2.09.2.2,0,.1-.04.2-.1.27l-.37.4c-.15.17-.23.38-.23.6v.14s0,.2,0,.2h.76v-.19s0-.14,0-.14c0-.04.01-.07.04-.09l.37-.4c.19-.21.3-.49.3-.78,0-.53-.43-.96-.97-.96h0Z"/>
    </g>
  </g>
</svg>