<?xml version="1.0" encoding="UTF-8"?>
<svg id="Layer_1" xmlns="http://www.w3.org/2000/svg" version="1.1" viewBox="0 0 66 66">
  <!-- Generator: Adobe Illustrator 30.1.0, SVG Export Plug-In . SVG Version: 2.1.1 Build 136)  -->
  <g>
    <g>
      <rect x="30.58" y="19.23" width="4.83" height="4.83"/>
      <path d="M34.49,20.16v2.97h-2.97v-2.97h2.97M36.34,18.3h-6.69v6.69h6.69v-6.69h0Z"/>
    </g>
    <g>
      <polygon points="27.61 46.21 27.61 41.38 30.58 41.38 30.58 33.96 27.61 33.96 27.61 29.13 35.42 29.13 35.42 41.38 38.39 41.38 38.39 46.21 27.61 46.21"/>
      <path d="M34.49,30.05v12.26h2.97v2.97h-8.92v-2.97h2.97v-9.28h-2.97v-2.97h5.95M36.34,28.2h-9.66v6.69h2.97v5.57h-2.97v6.69h12.63v-6.69h-2.97v-12.26h0Z"/>
    </g>
  </g>
  <circle id="Outer" cx="33" cy="33" r="27.21" fill="none" stroke="#000" stroke-width="11.57"/>
</svg>