<?xml version="1.0" encoding="UTF-8"?>
<svg id="Layer_1" xmlns="http://www.w3.org/2000/svg" version="1.1" viewBox="0 0 63 63">
  <!-- Generator: Adobe Illustrator 30.1.0, SVG Export Plug-In . SVG Version: 2.1.1 Build 136)  -->
  <g>
    <g>
      <rect x="29.19" y="18.35" width="4.61" height="4.61"/>
      <path d="M32.92,19.24v2.84h-2.84v-2.84h2.84M34.69,17.47h-6.38v6.38h6.38v-6.38h0Z"/>
    </g>
    <g>
      <polygon points="26.36 44.11 26.36 39.5 29.19 39.5 29.19 32.41 26.36 32.41 26.36 27.8 33.8 27.8 33.8 39.5 36.64 39.5 36.64 44.11 26.36 44.11"/>
      <path d="M32.92,28.69v11.7h2.84v2.84h-8.52v-2.84h2.84v-8.86h-2.84v-2.84h5.68M34.69,26.92h-9.22v6.38h2.84v5.32h-2.84v6.38h12.06v-6.38h-2.84v-11.7h0Z"/>
    </g>
  </g>
  <circle id="Outer" cx="31.5" cy="31.5" r="25.98" fill="none" stroke="#000" stroke-width="11.04"/>
</svg>