<?xml version="1.0" encoding="UTF-8"?>
<svg id="Layer_1" xmlns="http://www.w3.org/2000/svg" version="1.1" viewBox="0 0 55 55">
  <!-- Generator: Adobe Illustrator 30.1.0, SVG Export Plug-In . SVG Version: 2.1.1 Build 136)  -->
  <path d="M27.5,9.64c.58,0,1.16.3,1.46.9l3.74,7.42c.64,1.27,1.84,2.17,3.24,2.43l8.08,1.52c1.26.24,1.78,1.77.91,2.72l-5.89,6.46c-.91,1-1.33,2.35-1.15,3.68l1.15,8.71c.14,1.04-.69,1.86-1.63,1.86-.25,0-.5-.06-.75-.18l-7.07-3.64c-.66-.34-1.37-.51-2.09-.51-.72,0-1.43.17-2.09.51l-7.07,3.64c-.25.13-.5.18-.75.18-.93,0-1.76-.82-1.63-1.86l1.15-8.72c.18-1.34-.25-2.68-1.15-3.68l-5.89-6.46c-.87-.95-.35-2.49.91-2.73l8.08-1.51c1.4-.26,2.59-1.16,3.23-2.43l3.74-7.42c.3-.6.88-.9,1.46-.9M27.5,0c-4.29,0-8.15,2.38-10.08,6.21l-2.61,5.18-5.61,1.05c-4.02.75-7.32,3.63-8.62,7.51-1.3,3.88-.4,8.17,2.36,11.19l4.3,4.72-.84,6.38c-.43,3.22.56,6.47,2.7,8.91,2.15,2.45,5.24,3.85,8.49,3.85,1.78,0,3.57-.43,5.16-1.25l4.74-2.44,4.74,2.44c1.59.82,3.38,1.25,5.16,1.25,3.25,0,6.34-1.4,8.49-3.85,2.14-2.44,3.12-5.69,2.7-8.91l-.84-6.38,4.3-4.72c2.75-3.02,3.66-7.31,2.36-11.19-1.3-3.88-4.6-6.75-8.62-7.51l-5.61-1.05-2.61-5.18c-1.93-3.83-5.79-6.21-10.08-6.21h0Z"/>
</svg>