<?xml version="1.0" encoding="UTF-8"?>
<svg id="Layer_1" xmlns="http://www.w3.org/2000/svg" version="1.1" viewBox="0 0 67 67">
  <!-- Generator: Adobe Illustrator 30.1.0, SVG Export Plug-In . SVG Version: 2.1.1 Build 136)  -->
  <circle id="Outer" cx="33.5" cy="33.5" r="29.99" fill="none" stroke="#000" stroke-width="7.01"/>
  <g>
    <g>
      <rect x="31.38" y="44.11" width="4.19" height="4.19"/>
      <path d="M35.05,44.64v3.15h-3.15v-3.15h3.15M36.1,43.59h-5.24v5.24h5.24v-5.24h0Z"/>
    </g>
    <g>
      <path d="M31.39,39.55l-.02-1.71c0-1.62.61-3.18,1.69-4.38l3.12-3.45c.77-.85,1.19-1.94,1.19-3.08,0-1.57-1.29-2.85-2.87-2.85h-2c-1.58,0-2.87,1.28-2.87,2.85v.52h-4.22v-.52c0-3.89,3.18-7.05,7.09-7.05h2c3.91,0,7.09,3.16,7.09,7.05,0,2.18-.81,4.27-2.27,5.89l-3.12,3.45c-.4.44-.62.99-.62,1.57l-.02,1.71h-4.18Z"/>
      <path d="M34.5,20.41c3.62,0,6.57,2.93,6.57,6.52,0,2.05-.76,4.01-2.13,5.54l-3.12,3.45c-.48.53-.75,1.2-.75,1.92v1.19h-3.16v-1.19c0-1.49.54-2.91,1.55-4.02l3.12-3.45c.85-.95,1.32-2.16,1.32-3.43,0-1.86-1.52-3.37-3.4-3.37h-2c-1.87,0-3.4,1.51-3.4,3.37h-3.17c0-3.6,2.95-6.52,6.57-6.52h2M34.5,19.36h-2c-4.2,0-7.62,3.4-7.62,7.57v1.05h5.27v-1.05c0-1.28,1.05-2.33,2.35-2.33h2c1.3,0,2.35,1.04,2.35,2.33,0,1.01-.37,1.98-1.05,2.73l-3.12,3.45c-1.17,1.3-1.82,2.97-1.83,4.72v1.2s.02,1.04.02,1.04h5.22v-1.04s.02-1.19.02-1.19c0-.46.17-.88.48-1.23l3.12-3.45c1.55-1.72,2.4-3.93,2.4-6.24,0-4.17-3.42-7.57-7.62-7.57h0Z"/>
    </g>
  </g>
</svg>