<?xml version="1.0" encoding="UTF-8"?>
<svg id="Layer_1" xmlns="http://www.w3.org/2000/svg" version="1.1" viewBox="0 0 48 48">
  <!-- Generator: Adobe Illustrator 30.1.0, SVG Export Plug-In . SVG Version: 2.1.1 Build 136)  -->
  <path d="M24,6.72c.56,0,1.12.29,1.42.87l3.62,7.18c.62,1.23,1.78,2.1,3.13,2.36l7.82,1.47c1.22.23,1.72,1.72.88,2.64l-5.7,6.25c-.88.96-1.29,2.27-1.12,3.57l1.11,8.43c.13,1.01-.67,1.8-1.57,1.8-.24,0-.49-.06-.73-.18l-6.84-3.52c-.63-.33-1.33-.49-2.02-.49s-1.39.16-2.02.49l-6.84,3.52c-.24.12-.49.18-.73.18-.9,0-1.71-.8-1.57-1.8l1.11-8.43c.17-1.29-.24-2.6-1.12-3.56l-5.7-6.25c-.84-.92-.34-2.41.88-2.64l7.82-1.47c1.35-.25,2.51-1.12,3.13-2.35l3.62-7.18c.29-.58.86-.87,1.42-.87M24,0C20.84,0,18,1.75,16.58,4.57l-3.1,6.16-6.7,1.26c-2.96.55-5.39,2.67-6.35,5.53-.96,2.86-.29,6.01,1.74,8.24l4.98,5.46-.97,7.38c-.31,2.37.41,4.77,1.99,6.56,1.58,1.8,3.86,2.84,6.25,2.84,1.31,0,2.63-.32,3.8-.92l5.78-2.98,5.78,2.98c1.17.6,2.49.92,3.8.92,2.39,0,4.67-1.03,6.25-2.84,1.57-1.8,2.3-4.19,1.99-6.56l-.97-7.38,4.98-5.47c2.03-2.23,2.69-5.38,1.74-8.24-.96-2.85-3.39-4.97-6.35-5.53l-6.7-1.26-3.1-6.16C30,1.75,27.16,0,24,0h0Z"/>
</svg>