<?xml version="1.0" encoding="UTF-8"?>
<svg id="Layer_1" xmlns="http://www.w3.org/2000/svg" version="1.1" viewBox="0 0 105 105">
  <!-- Generator: Adobe Illustrator 30.1.0, SVG Export Plug-In . SVG Version: 2.1.1 Build 136)  -->
  <circle id="Outer" cx="52.5" cy="52.5" r="47" fill="none" stroke="#000" stroke-width="10.99"/>
  <g>
    <g>
      <rect x="49.18" y="69.13" width="6.57" height="6.57"/>
      <path d="M54.93,69.95v4.93h-4.93v-4.93h4.93M56.58,68.31h-8.21v8.21h8.21v-8.21h0Z"/>
    </g>
    <g>
      <path d="M49.19,61.99l-.02-2.68c0-2.54.95-4.98,2.65-6.86l4.88-5.41c1.2-1.33,1.86-3.04,1.86-4.83,0-2.46-2.02-4.46-4.5-4.46h-3.14c-2.48,0-4.5,2-4.5,4.46v.82h-6.62v-.82c0-6.09,4.99-11.04,11.12-11.04h3.14c6.13,0,11.12,4.95,11.12,11.04,0,3.41-1.26,6.69-3.56,9.23l-4.88,5.41c-.63.7-.97,1.55-.97,2.46l-.03,2.68h-6.56Z"/>
      <path d="M54.07,31.98c5.68,0,10.3,4.59,10.3,10.22,0,3.21-1.19,6.29-3.34,8.68l-4.88,5.41c-.76.84-1.18,1.88-1.18,3l-.02,1.86h-4.93l-.02-1.86c0-2.34.87-4.56,2.44-6.3l4.88-5.41c1.34-1.48,2.07-3.39,2.07-5.38,0-2.91-2.39-5.28-5.32-5.28h-3.14c-2.93,0-5.32,2.37-5.32,5.28h-4.97c0-5.64,4.62-10.22,10.3-10.22h3.14M54.07,30.34h-3.14c-6.58,0-11.94,5.32-11.94,11.87v1.64h8.26v-1.64c0-2.01,1.65-3.64,3.68-3.64h3.14c2.03,0,3.68,1.63,3.68,3.64,0,1.58-.59,3.1-1.65,4.28l-4.88,5.41c-1.84,2.03-2.86,4.66-2.87,7.4l.02,1.89v1.63h8.2l.02-1.62.02-1.86c0-.72.26-1.38.76-1.92l4.89-5.41c2.43-2.69,3.77-6.16,3.77-9.78,0-6.54-5.36-11.87-11.94-11.87h0Z"/>
    </g>
  </g>
</svg>