<?xml version="1.0" encoding="UTF-8"?>
<svg id="Layer_1" xmlns="http://www.w3.org/2000/svg" version="1.1" viewBox="0 0 105 105">
  <!-- Generator: Adobe Illustrator 30.1.0, SVG Export Plug-In . SVG Version: 2.1.1 Build 136)  -->
  <circle id="Outer" cx="52.5" cy="52.5" r="43.3" fill="none" stroke="#000" stroke-width="18.41"/>
  <g>
    <g>
      <rect x="49.15" y="66.31" width="6.65" height="6.65"/>
      <path d="M54.32,67.78v3.7h-3.7v-3.7h3.7M57.28,64.83h-9.61v9.61h9.61v-9.61h0Z"/>
    </g>
    <g>
      <path d="M49.17,59.83l-.02-2.86c0-2.13.79-4.16,2.21-5.73l3.66-4.06c.76-.84,1.17-1.92,1.17-3.05,0-1.37-1.13-2.49-2.52-2.49h-2.35c-1.39,0-2.52,1.12-2.52,2.49v1.48h-6.68v-1.48c0-5.04,4.13-9.15,9.2-9.15h2.35c5.07,0,9.2,4.1,9.2,9.15,0,2.77-1.03,5.43-2.89,7.5l-3.66,4.06c-.33.37-.5.79-.5,1.27l-.03,2.87h-6.62Z"/>
      <path d="M53.68,36.46c4.26,0,7.72,3.44,7.72,7.67,0,2.41-.89,4.72-2.51,6.51l-3.66,4.06c-.57.63-.88,1.41-.88,2.25v1.4h-3.71v-1.4c0-1.75.64-3.42,1.82-4.73l3.66-4.06c1-1.11,1.56-2.54,1.56-4.03,0-2.19-1.79-3.96-3.99-3.96h-2.35c-2.2,0-3.99,1.78-3.99,3.96h-3.73c0-4.23,3.46-7.67,7.72-7.67h2.35M53.68,33.51h-2.35c-5.89,0-10.68,4.77-10.68,10.62v2.95h9.64v-2.95c0-.56.47-1.01,1.04-1.01h2.35c.57,0,1.04.45,1.04,1.01,0,.76-.28,1.49-.79,2.06l-3.66,4.06c-1.66,1.84-2.58,4.22-2.59,6.7v1.44s.04,2.93.04,2.93h9.55l.03-2.92v-1.4c.01-.1.03-.18.14-.3l3.67-4.06c2.11-2.33,3.27-5.35,3.27-8.49,0-5.86-4.79-10.62-10.68-10.62h0Z"/>
    </g>
  </g>
</svg>