<?xml version="1.0" encoding="UTF-8"?>
<svg id="Layer_1" xmlns="http://www.w3.org/2000/svg" version="1.1" viewBox="0 0 54 54">
  <!-- Generator: Adobe Illustrator 30.1.0, SVG Export Plug-In . SVG Version: 2.1.1 Build 136)  -->
  <circle id="Outer" cx="27" cy="27" r="22.27" fill="none" stroke="#000" stroke-width="9.47"/>
  <g>
    <g>
      <rect x="25.28" y="34.1" width="3.42" height="3.42"/>
      <path d="M27.94,34.86v1.9h-1.9v-1.9h1.9M29.46,33.34h-4.94v4.94h4.94v-4.94h0Z"/>
    </g>
    <g>
      <path d="M25.29,30.77v-1.47c0-1.1.4-2.14,1.13-2.95l1.88-2.09c.39-.43.6-.99.6-1.57,0-.71-.58-1.28-1.29-1.28h-1.21c-.71,0-1.29.57-1.29,1.28v.76h-3.44v-.76c0-2.59,2.12-4.7,4.73-4.7h1.21c2.61,0,4.73,2.11,4.73,4.7,0,1.43-.53,2.8-1.49,3.86l-1.88,2.09c-.17.19-.26.41-.26.65l-.02,1.48h-3.41Z"/>
      <path d="M27.61,18.75c2.19,0,3.97,1.77,3.97,3.94,0,1.24-.46,2.43-1.29,3.35l-1.88,2.09c-.29.32-.45.72-.45,1.16v.72h-1.91v-.72c0-.9.33-1.76.94-2.43l1.88-2.09c.52-.57.8-1.31.8-2.07,0-1.12-.92-2.04-2.05-2.04h-1.21c-1.13,0-2.05.91-2.05,2.04h-1.92c0-2.17,1.78-3.94,3.97-3.94h1.21M27.61,17.23h-1.21c-3.03,0-5.49,2.45-5.49,5.46v1.52h4.96v-1.52c0-.29.24-.52.53-.52h1.21c.29,0,.53.23.53.52,0,.39-.14.77-.41,1.06l-1.88,2.09c-.86.95-1.33,2.17-1.33,3.44v.74s.02,1.51.02,1.51h4.91l.02-1.5v-.72s.02-.09.07-.16l1.89-2.09c1.08-1.2,1.68-2.75,1.68-4.36,0-3.01-2.46-5.46-5.49-5.46h0Z"/>
    </g>
  </g>
</svg>