<?xml version="1.0" encoding="UTF-8"?>
<svg id="Layer_1" xmlns="http://www.w3.org/2000/svg" version="1.1" viewBox="0 0 84 84">
  <!-- Generator: Adobe Illustrator 30.1.0, SVG Export Plug-In . SVG Version: 2.1.1 Build 136)  -->
  <circle id="Outer" cx="42" cy="42" r="37.6" fill="none" stroke="#000" stroke-width="8.79"/>
  <g>
    <g>
      <rect x="39.35" y="55.31" width="5.26" height="5.26"/>
      <path d="M43.95,55.96v3.94h-3.94v-3.94h3.94M45.26,54.65h-6.57v6.57h6.57v-6.57h0Z"/>
    </g>
    <g>
      <path d="M39.36,49.59l-.02-2.14c0-2.04.76-3.98,2.12-5.49l3.91-4.33c.96-1.06,1.49-2.44,1.49-3.86,0-1.97-1.62-3.57-3.6-3.57h-2.51c-1.99,0-3.6,1.6-3.6,3.57v.66h-5.29v-.66c0-4.87,3.99-8.84,8.89-8.84h2.51c4.9,0,8.89,3.96,8.89,8.84,0,2.73-1.01,5.35-2.84,7.38l-3.91,4.33c-.5.56-.77,1.24-.77,1.97l-.02,2.15h-5.24Z"/>
      <path d="M43.25,25.59c4.54,0,8.24,3.67,8.24,8.18,0,2.57-.95,5.03-2.67,6.94l-3.91,4.33c-.61.67-.94,1.5-.94,2.4l-.02,1.49h-3.94v-1.49c0-1.87.68-3.65,1.94-5.04l3.91-4.33c1.07-1.18,1.66-2.71,1.66-4.3,0-2.33-1.91-4.23-4.26-4.23h-2.51c-2.35,0-4.26,1.9-4.26,4.23h-3.98c0-4.51,3.7-8.18,8.24-8.18h2.51M43.25,24.28h-2.51c-5.27,0-9.55,4.26-9.55,9.49v1.31h6.6v-1.31c0-1.61,1.32-2.92,2.95-2.92h2.51c1.62,0,2.95,1.31,2.95,2.92,0,1.26-.47,2.48-1.32,3.42l-3.91,4.33c-1.47,1.63-2.28,3.73-2.29,5.92v1.51s.02,1.3.02,1.3h6.55v-1.3s.03-1.49.03-1.49c0-.57.21-1.1.6-1.54l3.91-4.33c1.94-2.15,3.01-4.93,3.01-7.82,0-5.23-4.28-9.49-9.55-9.49h0Z"/>
    </g>
  </g>
</svg>