<?xml version="1.0" encoding="UTF-8"?>
<svg id="Layer_1" xmlns="http://www.w3.org/2000/svg" version="1.1" viewBox="0 0 55 55">
  <!-- Generator: Adobe Illustrator 30.1.0, SVG Export Plug-In . SVG Version: 2.1.1 Build 136)  -->
  <path d="M27.5,7.7c.64,0,1.29.33,1.62,1l4.14,8.22c.71,1.41,2.04,2.41,3.59,2.7l8.96,1.68c1.4.26,1.97,1.97,1.01,3.02l-6.53,7.16c-1.01,1.11-1.48,2.6-1.28,4.08l1.27,9.66c.15,1.15-.77,2.07-1.8,2.07-.27,0-.56-.06-.83-.21l-7.84-4.04c-.73-.37-1.52-.56-2.32-.56s-1.59.19-2.32.56l-7.84,4.04c-.27.14-.56.21-.83.21-1.04,0-1.95-.91-1.8-2.07l1.27-9.66c.2-1.48-.27-2.98-1.28-4.08l-6.53-7.17c-.96-1.06-.39-2.76,1.01-3.02l8.96-1.68c1.55-.29,2.87-1.29,3.59-2.7l4.14-8.22c.34-.67.98-1,1.62-1M27.5,0C23.88,0,20.63,2.01,19,5.24l-3.56,7.06-7.67,1.44c-3.39.64-6.18,3.06-7.27,6.33-1.1,3.27-.33,6.89,1.99,9.44l5.71,6.26-1.11,8.45c-.36,2.72.47,5.46,2.27,7.52,1.81,2.07,4.42,3.25,7.16,3.25,1.5,0,3.01-.37,4.36-1.06l6.63-3.41,6.63,3.41c1.35.69,2.85,1.06,4.36,1.06,2.74,0,5.35-1.19,7.16-3.25,1.8-2.06,2.63-4.8,2.27-7.52l-1.11-8.45,5.71-6.26c2.32-2.55,3.09-6.17,1.99-9.44-1.1-3.27-3.88-5.7-7.27-6.33l-7.68-1.44-3.56-7.06C34.37,2.01,31.12,0,27.5,0h0Z"/>
</svg>