<?xml version="1.0" encoding="UTF-8"?>
<svg id="Layer_1" xmlns="http://www.w3.org/2000/svg" version="1.1" viewBox="0 0 55 55">
  <!-- Generator: Adobe Illustrator 30.1.0, SVG Export Plug-In . SVG Version: 2.1.1 Build 136)  -->
  <path d="M27.5,5.76c.71,0,1.41.37,1.78,1.1l4.55,9.03c.78,1.55,2.24,2.65,3.94,2.96l9.84,1.84c1.54.29,2.16,2.16,1.11,3.32l-7.17,7.87c-1.11,1.21-1.62,2.86-1.41,4.49l1.4,10.61c.17,1.27-.84,2.27-1.98,2.27-.3,0-.61-.07-.91-.23l-8.61-4.43c-.8-.41-1.67-.62-2.54-.62-.87,0-1.74.21-2.54.62l-8.61,4.43c-.3.15-.61.23-.91.23-1.14,0-2.15-1-1.98-2.27l1.4-10.61c.21-1.63-.3-3.27-1.4-4.48l-7.17-7.87c-1.06-1.16-.43-3.03,1.11-3.32l9.84-1.84c1.7-.32,3.16-1.41,3.94-2.96l4.55-9.03c.37-.73,1.08-1.1,1.78-1.1M27.5,0c-2.95,0-5.6,1.64-6.93,4.27l-4.51,8.94-9.74,1.83c-2.76.52-5.03,2.5-5.93,5.16-.89,2.67-.27,5.62,1.62,7.7l7.11,7.8-1.39,10.53c-.29,2.22.38,4.45,1.85,6.13,1.48,1.69,3.6,2.65,5.84,2.65,1.22,0,2.45-.3,3.55-.86l8.51-4.38,8.51,4.38c1.1.57,2.32.86,3.55.86,2.23,0,4.36-.97,5.84-2.65,1.47-1.68,2.14-3.91,1.85-6.13l-1.39-10.53,7.11-7.8c1.89-2.08,2.52-5.03,1.62-7.69-.89-2.67-3.16-4.64-5.92-5.16l-9.74-1.83-4.51-8.94c-1.33-2.63-3.98-4.27-6.93-4.27h0Z"/>
</svg>