<?xml version="1.0" encoding="UTF-8"?>
<svg id="Layer_1" xmlns="http://www.w3.org/2000/svg" version="1.1" viewBox="0 0 66 66">
  <!-- Generator: Adobe Illustrator 30.1.0, SVG Export Plug-In . SVG Version: 2.1.1 Build 136)  -->
  <g>
    <g>
      <rect x="30.62" y="18.39" width="4.75" height="4.75"/>
      <path d="M34.65,19.11v3.31h-3.31v-3.31h3.31M36.1,17.67h-6.2v6.2h6.2v-6.2h0Z"/>
    </g>
    <g>
      <polygon points="27.32 47.22 27.32 42.47 30.62 42.47 30.62 33.59 27.32 33.59 27.32 28.83 35.38 28.83 35.38 42.47 38.68 42.47 38.68 47.22 27.32 47.22"/>
      <path d="M34.65,29.56v13.64h3.31v3.31h-9.92v-3.31h3.31v-10.33h-3.31v-3.31h6.62M36.1,28.11h-9.5v6.2h3.31v7.44h-3.31v6.2h12.81v-6.2h-3.31v-13.64h0Z"/>
    </g>
  </g>
  <circle id="Outer" cx="33" cy="33" r="28.38" fill="none" stroke="#000" stroke-width="9.24"/>
</svg>