<?xml version="1.0" encoding="UTF-8"?>
<svg id="Layer_1" xmlns="http://www.w3.org/2000/svg" version="1.1" viewBox="0 0 128 128">
  <!-- Generator: Adobe Illustrator 30.1.0, SVG Export Plug-In . SVG Version: 2.1.1 Build 136)  -->
  <circle id="Outer" cx="64" cy="64" r="57.3" fill="none" stroke="#000" stroke-width="13.4"/>
  <g>
    <g>
      <rect x="59.96" y="84.28" width="8.01" height="8.01"/>
      <path d="M66.97,85.28v6.01h-6.01v-6.01h6.01M68.97,83.28h-10.01v10.01h10.01v-10.01h0Z"/>
    </g>
    <g>
      <path d="M59.97,75.56l-.03-3.26c.01-3.1,1.16-6.07,3.24-8.36l5.95-6.59c1.46-1.62,2.27-3.71,2.27-5.89,0-3-2.46-5.44-5.49-5.44h-3.82c-3.03,0-5.49,2.44-5.49,5.44v1h-8.06v-1c0-7.42,6.08-13.46,13.55-13.46h3.82c7.47,0,13.55,6.04,13.55,13.46,0,4.16-1.54,8.15-4.33,11.25l-5.96,6.6c-.77.85-1.18,1.89-1.18,2.99l-.03,3.27h-7.99Z"/>
      <path d="M65.91,38.99c6.92,0,12.55,5.59,12.55,12.46,0,3.91-1.45,7.67-4.08,10.58l-5.95,6.6c-.92,1.02-1.43,2.29-1.44,3.66l-.02,2.27h-6.01l-.02-2.27c.01-2.85,1.06-5.56,2.98-7.68l5.95-6.6c1.63-1.81,2.53-4.13,2.53-6.56,0-3.55-2.91-6.44-6.49-6.44h-3.82c-3.58,0-6.49,2.89-6.49,6.44h-6.06c0-6.87,5.63-12.46,12.55-12.46h3.82M65.91,36.99h-3.82c-8.02,0-14.55,6.49-14.55,14.46v2h10.06v-2c0-2.45,2.01-4.44,4.49-4.44h3.82c2.47,0,4.49,1.99,4.49,4.44,0,1.93-.71,3.78-2.01,5.22l-5.95,6.6c-2.24,2.48-3.48,5.68-3.49,9.02l.02,2.3.02,1.98h9.97l.02-1.98.02-2.27c0-.87.32-1.68.92-2.34l5.96-6.6c2.96-3.28,4.59-7.51,4.59-11.92,0-7.98-6.53-14.46-14.55-14.46h0Z"/>
    </g>
  </g>
</svg>