<?xml version="1.0" encoding="UTF-8"?>
<svg id="Layer_1" xmlns="http://www.w3.org/2000/svg" version="1.1" viewBox="0 0 128 128">
  <!-- Generator: Adobe Illustrator 30.1.0, SVG Export Plug-In . SVG Version: 2.1.1 Build 136)  -->
  <circle id="Outer" cx="64" cy="64" r="55.04" fill="none" stroke="#000" stroke-width="17.92"/>
  <g>
    <g>
      <rect x="59.94" y="82.56" width="8.04" height="8.04"/>
      <path d="M66.59,83.96v5.24h-5.24v-5.24h5.24M69.39,81.16h-10.84v10.84h10.84v-10.84h0Z"/>
    </g>
    <g>
      <path d="M59.96,74.19l-.03-3.37c.01-2.84,1.06-5.55,2.96-7.65l5.19-5.75c1.19-1.32,1.84-3.01,1.84-4.78,0-2.33-1.91-4.22-4.26-4.22h-3.33c-2.35,0-4.26,1.89-4.26,4.22v1.4h-8.09v-1.4c0-6.77,5.54-12.27,12.35-12.27h3.33c6.81,0,12.35,5.5,12.35,12.27,0,3.76-1.39,7.36-3.92,10.16l-5.19,5.75c-.58.64-.89,1.43-.89,2.26l-.03,3.38h-8.02Z"/>
      <path d="M65.67,41.77c6.04,0,10.95,4.88,10.95,10.87,0,3.41-1.26,6.68-3.55,9.22l-5.19,5.75c-.8.89-1.25,2-1.25,3.19l-.02,1.98h-5.24l-.02-1.98c0-2.48.92-4.85,2.6-6.7l5.19-5.75c1.42-1.57,2.2-3.61,2.2-5.72,0-3.1-2.54-5.62-5.66-5.62h-3.33c-3.12,0-5.66,2.52-5.66,5.62h-5.29c0-5.99,4.91-10.87,10.95-10.87h3.33M65.67,38.97h-3.33c-7.58,0-13.75,6.13-13.75,13.67v2.8h10.89v-2.8c0-1.55,1.28-2.82,2.86-2.82h3.33c1.58,0,2.86,1.26,2.86,2.82,0,1.42-.53,2.78-1.48,3.84l-5.19,5.75c-2.13,2.35-3.31,5.4-3.32,8.57l.02,2.02.02,2.78h10.79l.03-2.77.02-1.98c0-.51.18-.96.53-1.34l5.19-5.76c2.76-3.05,4.28-7,4.28-11.1,0-7.54-6.17-13.67-13.75-13.67h0Z"/>
    </g>
  </g>
</svg>