<?xml version="1.0" encoding="UTF-8"?>
<svg id="Layer_1" xmlns="http://www.w3.org/2000/svg" version="1.1" viewBox="0 0 75 75">
  <!-- Generator: Adobe Illustrator 30.1.0, SVG Export Plug-In . SVG Version: 2.1.1 Build 136)  -->
  <path d="M37.5,13.15c.79,0,1.58.41,2,1.23l5.09,10.11c.87,1.74,2.51,2.96,4.41,3.32l11.02,2.07c1.72.32,2.42,2.42,1.24,3.71l-8.03,8.81c-1.24,1.36-1.82,3.2-1.57,5.02l1.57,11.88c.19,1.42-.94,2.54-2.22,2.54-.34,0-.69-.08-1.02-.25l-9.64-4.96c-.89-.46-1.87-.69-2.85-.69s-1.95.23-2.85.69l-9.64,4.96c-.34.17-.68.25-1.02.25-1.27,0-2.4-1.12-2.22-2.54l1.57-11.89c.24-1.82-.34-3.66-1.57-5.02l-8.03-8.81c-1.18-1.3-.48-3.39,1.24-3.72l11.02-2.07c1.91-.36,3.54-1.58,4.41-3.32l5.1-10.11c.41-.82,1.21-1.23,2-1.23M37.5,0C31.65,0,26.39,3.24,23.76,8.46l-3.56,7.06-7.65,1.43c-5.48,1.03-9.98,4.95-11.75,10.24-1.77,5.29-.54,11.14,3.22,15.26l5.87,6.44-1.15,8.7c-.58,4.4.76,8.83,3.68,12.15,2.93,3.34,7.15,5.25,11.57,5.25,2.43,0,4.87-.59,7.04-1.71l6.47-3.33,6.47,3.33c2.17,1.12,4.61,1.71,7.04,1.71,4.43,0,8.65-1.91,11.57-5.25,2.92-3.33,4.26-7.76,3.68-12.15l-1.15-8.7,5.87-6.44c3.76-4.12,4.99-9.97,3.22-15.26-1.77-5.29-6.27-9.21-11.75-10.24l-7.65-1.43-3.56-7.06C48.61,3.24,43.34,0,37.5,0h0Z"/>
</svg>