<?xml version="1.0" encoding="UTF-8"?>
<svg id="Layer_1" xmlns="http://www.w3.org/2000/svg" version="1.1" viewBox="0 0 75 75">
  <!-- Generator: Adobe Illustrator 30.1.0, SVG Export Plug-In . SVG Version: 2.1.1 Build 136)  -->
  <path d="M37.5,7.85c.96,0,1.93.5,2.43,1.5l6.2,12.31c1.06,2.11,3.05,3.61,5.37,4.04l13.42,2.52c2.1.39,2.95,2.94,1.51,4.52l-9.78,10.73c-1.51,1.66-2.21,3.89-1.92,6.12l1.91,14.47c.23,1.73-1.15,3.09-2.7,3.09-.41,0-.84-.1-1.24-.31l-11.74-6.04c-1.09-.56-2.28-.84-3.47-.84s-2.38.28-3.47.84l-11.74,6.04c-.41.21-.83.31-1.24.31-1.55,0-2.93-1.37-2.7-3.09l1.91-14.47c.29-2.22-.41-4.46-1.91-6.11l-9.78-10.73c-1.44-1.58-.59-4.13,1.51-4.53l13.42-2.52c2.32-.43,4.3-1.93,5.37-4.04l6.2-12.31c.5-1,1.47-1.5,2.43-1.5M37.5,0C33.48,0,29.86,2.23,28.06,5.82l-6.14,12.2-13.28,2.49c-3.77.71-6.86,3.4-8.08,7.04-1.22,3.64-.37,7.66,2.21,10.49l9.7,10.64-1.89,14.35c-.4,3.02.52,6.07,2.53,8.35,2.02,2.3,4.92,3.62,7.96,3.62,1.67,0,3.34-.41,4.84-1.18l11.61-5.98,11.61,5.98c1.5.77,3.17,1.18,4.84,1.18,3.04,0,5.94-1.32,7.96-3.62,2-2.29,2.92-5.33,2.53-8.35l-1.89-14.35,9.7-10.64c2.58-2.83,3.43-6.85,2.21-10.49-1.22-3.63-4.31-6.33-8.08-7.04l-13.28-2.49-6.14-12.2C45.13,2.23,41.52,0,37.5,0h0Z"/>
</svg>