<?xml version="1.0" encoding="UTF-8"?>
<svg id="Layer_1" xmlns="http://www.w3.org/2000/svg" version="1.1" viewBox="0 0 99 99">
  <!-- Generator: Adobe Illustrator 30.1.0, SVG Export Plug-In . SVG Version: 2.1.1 Build 136)  -->
  <g>
    <g>
      <rect x="45.88" y="28.84" width="7.25" height="7.24"/>
      <path d="M51.73,30.24v4.46h-4.46v-4.46h4.46M54.51,27.45h-10.03v10.03h10.03v-10.03h0Z"/>
    </g>
    <g>
      <polygon points="41.42 69.32 41.42 62.07 45.88 62.07 45.88 50.93 41.42 50.93 41.42 43.69 53.12 43.69 53.12 62.07 57.58 62.07 57.58 69.32 41.42 69.32"/>
      <path d="M51.73,45.08v18.39h4.46v4.46h-13.38v-4.46h4.46v-13.93h-4.46v-4.46h8.92M54.51,42.3h-14.49v10.03h4.46v8.36h-4.46v10.03h18.95v-10.03h-4.46v-18.39h0Z"/>
    </g>
  </g>
  <circle id="Outer" cx="49.5" cy="49.5" r="40.82" fill="none" stroke="#000" stroke-width="17.36"/>
</svg>