<?xml version="1.0" encoding="UTF-8"?>
<svg id="Layer_1" xmlns="http://www.w3.org/2000/svg" version="1.1" viewBox="0 0 118 118">
  <!-- Generator: Adobe Illustrator 30.1.0, SVG Export Plug-In . SVG Version: 2.1.1 Build 136)  -->
  <g>
    <g>
      <rect x="54.68" y="34.38" width="8.63" height="8.64"/>
      <path d="M61.66,36.04v5.32h-5.32v-5.32h5.32M64.98,32.72h-11.95v11.95h11.95v-11.95h0Z"/>
    </g>
    <g>
      <polygon points="49.37 82.62 49.37 73.99 54.68 73.99 54.68 60.71 49.37 60.71 49.37 52.07 63.32 52.07 63.32 73.99 68.63 73.99 68.63 82.62 49.37 82.62"/>
      <path d="M61.66,53.73v21.91h5.32v5.32h-15.95v-5.32h5.32v-16.6h-5.32v-5.32h10.63M64.98,50.41h-17.27v11.95h5.32v9.96h-5.32v11.95h22.59v-11.95h-5.32v-21.91h0Z"/>
    </g>
  </g>
  <circle id="Outer" cx="59" cy="59" r="48.66" fill="none" stroke="#000" stroke-width="20.69"/>
</svg>