<?xml version="1.0" encoding="UTF-8"?>
<svg id="Layer_1" xmlns="http://www.w3.org/2000/svg" version="1.1" viewBox="0 0 90 90">
  <!-- Generator: Adobe Illustrator 30.1.0, SVG Export Plug-In . SVG Version: 2.1.1 Build 136)  -->
  <g>
    <g>
      <rect x="41.71" y="26.22" width="6.59" height="6.59"/>
      <path d="M47.03,27.49v4.06h-4.06v-4.06h4.06M49.56,24.96h-9.12v9.12h9.12v-9.12h0Z"/>
    </g>
    <g>
      <polygon points="37.65 63.02 37.65 56.43 41.71 56.43 41.71 46.3 37.65 46.3 37.65 39.72 48.29 39.72 48.29 56.43 52.35 56.43 52.35 63.02 37.65 63.02"/>
      <path d="M47.03,40.98v16.71h4.06v4.06h-12.17v-4.06h4.06v-12.66h-4.06v-4.06h8.11M49.56,38.45h-13.17v9.12h4.06v7.6h-4.06v9.12h17.23v-9.12h-4.06v-16.71h0Z"/>
    </g>
  </g>
  <circle id="Outer" cx="45" cy="45" r="37.11" fill="none" stroke="#000" stroke-width="15.78"/>
</svg>