<?xml version="1.0" encoding="UTF-8"?>
<svg id="Layer_1" xmlns="http://www.w3.org/2000/svg" version="1.1" viewBox="0 0 90 90">
  <!-- Generator: Adobe Illustrator 30.1.0, SVG Export Plug-In . SVG Version: 2.1.1 Build 136)  -->
  <g>
    <g>
      <rect x="41.76" y="25.08" width="6.48" height="6.48"/>
      <path d="M47.26,26.06v4.51h-4.51v-4.51h4.51M49.22,24.1h-8.45v8.45h8.45v-8.45h0Z"/>
    </g>
    <g>
      <polygon points="37.25 64.4 37.25 57.92 41.76 57.92 41.76 45.8 37.25 45.8 37.25 39.32 48.24 39.32 48.24 57.92 52.75 57.92 52.75 64.4 37.25 64.4"/>
      <path d="M47.26,40.3v18.59h4.51v4.51h-13.53v-4.51h4.51v-14.08h-4.51v-4.51h9.02M49.22,38.34h-12.96v8.45h4.51v10.15h-4.51v8.45h17.47v-8.45h-4.51v-18.59h0Z"/>
    </g>
  </g>
  <circle id="Outer" cx="45" cy="45" r="38.7" fill="none" stroke="#000" stroke-width="12.6"/>
</svg>