<?xml version="1.0" encoding="UTF-8"?>
<svg id="Layer_1" xmlns="http://www.w3.org/2000/svg" version="1.1" viewBox="0 0 90 90">
  <!-- Generator: Adobe Illustrator 30.1.0, SVG Export Plug-In . SVG Version: 2.1.1 Build 136)  -->
  <g>
    <g>
      <rect x="41.81" y="23.94" width="6.38" height="6.38"/>
      <path d="M47.49,24.64v4.98h-4.98v-4.98h4.98M48.89,23.23h-7.79v7.79h7.79v-7.79h0Z"/>
    </g>
    <g>
      <polygon points="36.83 65.79 36.83 59.41 41.81 59.41 41.81 45.28 36.83 45.28 36.83 38.9 48.19 38.9 48.19 59.41 53.17 59.41 53.17 65.79 36.83 65.79"/>
      <path d="M47.49,39.61v20.51h4.98v4.98h-14.93v-4.98h4.98v-15.53h-4.98v-4.98h9.95M48.89,38.2h-12.76v7.79h4.98v12.72h-4.98v7.79h17.74v-7.79h-4.98v-20.51h0Z"/>
    </g>
  </g>
  <circle id="Outer" cx="45" cy="45" r="40.29" fill="none" stroke="#000" stroke-width="9.42"/>
</svg>