<?xml version="1.0" encoding="UTF-8"?>
<svg id="Layer_1" xmlns="http://www.w3.org/2000/svg" version="1.1" viewBox="0 0 100 100">
  <!-- Generator: Adobe Illustrator 30.1.0, SVG Export Plug-In . SVG Version: 2.1.1 Build 136)  -->
  <g>
    <g>
      <rect x="46.4" y="27.87" width="7.2" height="7.2"/>
      <path d="M52.51,28.96v5.01h-5.01v-5.01h5.01M54.69,26.77h-9.39v9.39h9.39v-9.39h0Z"/>
    </g>
    <g>
      <polygon points="41.39 71.55 41.39 64.35 46.4 64.35 46.4 50.89 41.39 50.89 41.39 43.69 53.6 43.69 53.6 64.35 58.61 64.35 58.61 71.55 41.39 71.55"/>
      <path d="M52.51,44.78v20.66h5.01v5.01h-15.04v-5.01h5.01v-15.65h-5.01v-5.01h10.02M54.69,42.6h-14.4v9.39h5.01v11.27h-5.01v9.39h19.41v-9.39h-5.01v-20.66h0Z"/>
    </g>
  </g>
  <circle id="Outer" cx="50" cy="50" r="43" fill="none" stroke="#000" stroke-width="14"/>
</svg>