<?xml version="1.0" encoding="UTF-8"?>
<svg id="Layer_1" xmlns="http://www.w3.org/2000/svg" version="1.1" viewBox="0 0 66 66">
  <!-- Generator: Adobe Illustrator 30.1.0, SVG Export Plug-In . SVG Version: 2.1.1 Build 136)  -->
  <circle id="Outer" cx="33" cy="33" r="29.55" fill="none" stroke="#000" stroke-width="6.91"/>
  <g>
    <g>
      <rect x="30.92" y="43.46" width="4.13" height="4.13"/>
      <path d="M34.53,43.97v3.1h-3.1v-3.1h3.1M35.56,42.94h-5.16v5.16h5.16v-5.16h0Z"/>
    </g>
    <g>
      <path d="M30.92,38.96l-.02-1.68c0-1.6.6-3.13,1.67-4.31l3.07-3.4c.75-.84,1.17-1.91,1.17-3.04,0-1.55-1.27-2.81-2.83-2.81h-1.97c-1.56,0-2.83,1.26-2.83,2.81v.52h-4.16v-.52c0-3.83,3.13-6.94,6.99-6.94h1.97c3.85,0,6.99,3.11,6.99,6.94,0,2.14-.79,4.2-2.23,5.8l-3.07,3.4c-.4.44-.61.97-.61,1.54l-.02,1.69h-4.12Z"/>
      <path d="M33.99,20.1c3.57,0,6.47,2.88,6.47,6.43,0,2.02-.75,3.95-2.1,5.45l-3.07,3.4c-.48.53-.74,1.18-.74,1.89v1.17h-3.11v-1.17c0-1.47.54-2.87,1.52-3.96l3.07-3.4c.84-.93,1.3-2.13,1.3-3.38,0-1.83-1.5-3.32-3.35-3.32h-1.97c-1.84,0-3.35,1.49-3.35,3.32h-3.13c0-3.54,2.9-6.43,6.47-6.43h1.97M33.99,19.07h-1.97c-4.14,0-7.5,3.35-7.5,7.46v1.03h5.19v-1.03c0-1.26,1.04-2.29,2.31-2.29h1.97c1.28,0,2.31,1.03,2.31,2.29,0,.99-.37,1.95-1.04,2.69l-3.07,3.4c-1.15,1.28-1.79,2.93-1.8,4.65v1.19s.02,1.02.02,1.02h5.14v-1.02s.02-1.17.02-1.17c0-.45.17-.86.48-1.21l3.07-3.4c1.53-1.69,2.37-3.87,2.37-6.14,0-4.11-3.37-7.46-7.5-7.46h0Z"/>
    </g>
  </g>
</svg>