<?xml version="1.0" encoding="UTF-8"?>
<svg id="Layer_1" xmlns="http://www.w3.org/2000/svg" version="1.1" viewBox="0 0 66 66">
  <!-- Generator: Adobe Illustrator 30.1.0, SVG Export Plug-In . SVG Version: 2.1.1 Build 136)  -->
  <circle id="Outer" cx="33" cy="33" r="27.21" fill="none" stroke="#000" stroke-width="11.57"/>
  <g>
    <g>
      <rect x="30.89" y="41.68" width="4.18" height="4.18"/>
      <path d="M34.15,42.61v2.32h-2.32v-2.32h2.32M36,40.75h-6.04v6.04h6.04v-6.04h0Z"/>
    </g>
    <g>
      <path d="M30.9,37.6l-.02-1.8c0-1.34.5-2.62,1.39-3.6l2.3-2.55c.48-.53.74-1.21.74-1.91,0-.86-.71-1.56-1.58-1.56h-1.48c-.87,0-1.58.7-1.58,1.56v.93h-4.2v-.93c0-3.17,2.59-5.75,5.78-5.75h1.48c3.19,0,5.78,2.58,5.78,5.75,0,1.74-.64,3.42-1.82,4.71l-2.3,2.55c-.21.23-.32.5-.32.8l-.02,1.8h-4.16Z"/>
      <path d="M33.74,22.92c2.68,0,4.85,2.16,4.85,4.82,0,1.51-.56,2.96-1.58,4.09l-2.3,2.55c-.36.39-.55.89-.56,1.42v.88h-2.33v-.88c0-1.1.4-2.15,1.14-2.97l2.3-2.55c.63-.7.98-1.6.98-2.54,0-1.37-1.13-2.49-2.51-2.49h-1.48c-1.38,0-2.51,1.12-2.51,2.49h-2.35c0-2.66,2.18-4.82,4.85-4.82h1.48M33.74,21.06h-1.48c-3.7,0-6.71,3-6.71,6.68v1.86h6.06v-1.86c0-.35.29-.64.65-.64h1.48c.36,0,.65.29.65.64,0,.48-.18.94-.5,1.29l-2.3,2.55c-1.05,1.16-1.62,2.65-1.63,4.21v.9s.02,1.84.02,1.84h6l.02-1.84v-.88c0-.06.02-.12.09-.19l2.3-2.55c1.32-1.47,2.05-3.36,2.05-5.33,0-3.68-3.01-6.68-6.71-6.68h0Z"/>
    </g>
  </g>
</svg>