<?xml version="1.0" encoding="UTF-8"?>
<svg id="Layer_1" xmlns="http://www.w3.org/2000/svg" version="1.1" viewBox="0 0 41 41">
  <!-- Generator: Adobe Illustrator 30.1.0, SVG Export Plug-In . SVG Version: 2.1.1 Build 136)  -->
  <circle id="Outer" cx="20.5" cy="20.5" r="18.35" fill="none" stroke="#000" stroke-width="4.29"/>
  <g>
    <g>
      <rect x="19.21" y="27" width="2.57" height="2.57"/>
      <path d="M21.45,27.32v1.93h-1.93v-1.93h1.93M22.09,26.67h-3.21v3.21h3.21v-3.21h0Z"/>
    </g>
    <g>
      <path d="M19.21,24.2v-1.04c0-.99.36-1.94,1.03-2.68l1.91-2.11c.47-.52.73-1.19.73-1.89,0-.96-.79-1.74-1.76-1.74h-1.22c-.97,0-1.76.78-1.76,1.74v.32h-2.58v-.32c0-2.38,1.95-4.31,4.34-4.31h1.22c2.39,0,4.34,1.93,4.34,4.31,0,1.33-.49,2.61-1.39,3.6l-1.91,2.11c-.25.27-.38.6-.38.96v1.05h-2.57Z"/>
      <path d="M21.11,12.49c2.22,0,4.02,1.79,4.02,3.99,0,1.25-.46,2.46-1.31,3.39l-1.91,2.11c-.3.33-.46.73-.46,1.17v.73h-1.93v-.73c0-.91.33-1.78.95-2.46l1.91-2.11c.52-.58.81-1.32.81-2.1,0-1.14-.93-2.06-2.08-2.06h-1.22c-1.15,0-2.08.93-2.08,2.06h-1.94c0-2.2,1.8-3.99,4.02-3.99h1.22M21.11,11.85h-1.22c-2.57,0-4.66,2.08-4.66,4.63v.64h3.22v-.64c0-.78.64-1.42,1.44-1.42h1.22c.79,0,1.44.64,1.44,1.42,0,.62-.23,1.21-.64,1.67l-1.91,2.11c-.72.79-1.11,1.82-1.12,2.89v.74s.01.63.01.63h3.19v-.63s.01-.73.01-.73c0-.28.1-.54.3-.75l1.91-2.11c.95-1.05,1.47-2.41,1.47-3.82,0-2.55-2.09-4.63-4.66-4.63h0Z"/>
    </g>
  </g>
</svg>