<?xml version="1.0" encoding="UTF-8"?>
<svg id="Layer_1" xmlns="http://www.w3.org/2000/svg" version="1.1" viewBox="0 0 16 16">
  <!-- Generator: Adobe Illustrator 30.1.0, SVG Export Plug-In . SVG Version: 2.1.1 Build 136)  -->
  <g>
    <g>
      <rect x="7.42" y="4.46" width="1.15" height="1.15"/>
      <path d="M8.4,4.63v.8h-.8v-.8h.8M8.75,4.28h-1.5v1.5h1.5v-1.5h0Z"/>
    </g>
    <g>
      <polygon points="6.62 11.45 6.62 10.3 7.42 10.3 7.42 8.14 6.62 8.14 6.62 6.99 8.58 6.99 8.58 10.3 9.38 10.3 9.38 11.45 6.62 11.45"/>
      <path d="M8.4,7.17v3.31h.8v.8h-2.41v-.8h.8v-2.5h-.8v-.8h1.6M8.75,6.82h-2.3v1.5h.8v1.8h-.8v1.5h3.11v-1.5h-.8v-3.31h0Z"/>
    </g>
  </g>
  <circle id="Outer" cx="8" cy="8" r="6.88" fill="none" stroke="#000" stroke-width="2.24"/>
</svg>