<?xml version="1.0" encoding="UTF-8"?>
<svg id="Layer_1" xmlns="http://www.w3.org/2000/svg" version="1.1" viewBox="0 0 122 122">
  <!-- Generator: Adobe Illustrator 30.1.0, SVG Export Plug-In . SVG Version: 2.1.1 Build 136)  -->
  <circle id="Outer" cx="61" cy="61" r="54.61" fill="none" stroke="#000" stroke-width="12.77"/>
  <g>
    <g>
      <rect x="57.15" y="80.33" width="7.64" height="7.64"/>
      <path d="M63.83,81.28v5.73h-5.73v-5.73h5.73M65.74,79.37h-9.54v9.54h9.54v-9.54h0Z"/>
    </g>
    <g>
      <path d="M57.16,72.02l-.03-3.11c.01-2.96,1.11-5.78,3.08-7.97l5.67-6.29c1.39-1.55,2.16-3.54,2.16-5.61,0-2.86-2.35-5.19-5.23-5.19h-3.65c-2.88,0-5.23,2.33-5.23,5.19v.95h-7.69v-.95c0-7.08,5.79-12.83,12.92-12.83h3.65c7.12,0,12.92,5.76,12.92,12.83,0,3.96-1.47,7.77-4.13,10.72l-5.67,6.29c-.73.81-1.12,1.8-1.12,2.85l-.03,3.12h-7.62Z"/>
      <path d="M62.82,37.16c6.6,0,11.96,5.33,11.96,11.88,0,3.73-1.38,7.31-3.89,10.08l-5.68,6.29c-.88.97-1.37,2.18-1.37,3.49l-.02,2.17h-5.73l-.02-2.17c0-2.72,1.01-5.3,2.84-7.32l5.67-6.29c1.55-1.72,2.41-3.94,2.41-6.25,0-3.39-2.77-6.14-6.18-6.14h-3.65c-3.41,0-6.18,2.75-6.18,6.14h-5.78c0-6.55,5.37-11.88,11.96-11.88h3.65M62.82,35.26h-3.65c-7.65,0-13.87,6.18-13.87,13.79v1.91h9.59v-1.91c0-2.33,1.92-4.23,4.28-4.23h3.65c2.36,0,4.28,1.9,4.28,4.23,0,1.84-.68,3.6-1.92,4.97l-5.67,6.29c-2.13,2.36-3.32,5.41-3.33,8.59l.02,2.19.02,1.89h9.51l.02-1.89.02-2.17c0-.83.31-1.6.88-2.23l5.68-6.29c2.82-3.13,4.38-7.16,4.38-11.36,0-7.6-6.22-13.79-13.87-13.79h0Z"/>
    </g>
  </g>
</svg>