<?xml version="1.0" encoding="UTF-8"?>
<svg id="Layer_1" xmlns="http://www.w3.org/2000/svg" version="1.1" viewBox="0 0 122 122">
  <!-- Generator: Adobe Illustrator 30.1.0, SVG Export Plug-In . SVG Version: 2.1.1 Build 136)  -->
  <circle id="Outer" cx="61" cy="61" r="52.46" fill="none" stroke="#000" stroke-width="17.08"/>
  <g>
    <g>
      <rect x="57.13" y="78.69" width="7.66" height="7.66"/>
      <path d="M63.46,80.03v5h-5v-5h5M66.13,77.36h-10.33v10.33h10.33v-10.33h0Z"/>
    </g>
    <g>
      <path d="M57.15,70.71l-.03-3.21c.01-2.71,1.01-5.29,2.82-7.29l4.95-5.48c1.13-1.25,1.76-2.87,1.76-4.56,0-2.22-1.82-4.02-4.06-4.02h-3.18c-2.24,0-4.06,1.8-4.06,4.02v1.33h-7.71v-1.33c0-6.45,5.28-11.69,11.77-11.69h3.18c6.49,0,11.77,5.25,11.77,11.69,0,3.58-1.33,7.02-3.73,9.68l-4.95,5.48c-.55.61-.85,1.36-.85,2.15l-.03,3.22h-7.64Z"/>
      <path d="M62.59,39.81c5.75,0,10.43,4.65,10.43,10.36,0,3.25-1.2,6.37-3.39,8.79l-4.95,5.48c-.77.85-1.19,1.9-1.19,3.04l-.02,1.89h-5l-.02-1.89c0-2.37.88-4.62,2.47-6.39l4.95-5.48c1.35-1.5,2.1-3.44,2.1-5.45,0-2.95-2.42-5.35-5.39-5.35h-3.18c-2.97,0-5.39,2.4-5.39,5.35h-5.04c0-5.71,4.68-10.36,10.43-10.36h3.18M62.59,37.15h-3.18c-7.22,0-13.1,5.84-13.1,13.03v2.67h10.38v-2.67c0-1.48,1.22-2.69,2.72-2.69h3.18c1.5,0,2.72,1.2,2.72,2.69,0,1.35-.5,2.65-1.41,3.66l-4.95,5.48c-2.03,2.24-3.15,5.14-3.16,8.16l.02,1.92.02,2.65h10.28l.03-2.64.02-1.89c0-.49.17-.91.51-1.28l4.95-5.49c2.63-2.91,4.08-6.67,4.08-10.58,0-7.18-5.88-13.03-13.1-13.03h0Z"/>
    </g>
  </g>
</svg>