<?xml version="1.0" encoding="UTF-8"?>
<svg id="Layer_1" xmlns="http://www.w3.org/2000/svg" version="1.1" viewBox="0 0 75 75">
  <!-- Generator: Adobe Illustrator 30.1.0, SVG Export Plug-In . SVG Version: 2.1.1 Build 136)  -->
  <path d="M37.5,10.5c.88,0,1.76.46,2.21,1.37l5.65,11.21c.97,1.92,2.78,3.29,4.89,3.68l12.22,2.29c1.91.36,2.69,2.68,1.37,4.12l-8.9,9.77c-1.37,1.51-2.01,3.55-1.75,5.57l1.74,13.17c.21,1.57-1.05,2.82-2.46,2.82-.37,0-.76-.09-1.13-.28l-10.69-5.5c-.99-.51-2.07-.77-3.16-.77s-2.17.26-3.16.77l-10.69,5.5c-.37.19-.76.28-1.13.28-1.41,0-2.67-1.24-2.46-2.82l1.74-13.18c.27-2.02-.37-4.06-1.74-5.56l-8.9-9.77c-1.31-1.44-.54-3.76,1.38-4.12l12.22-2.29c2.11-.4,3.92-1.76,4.89-3.68l5.65-11.21c.46-.91,1.34-1.37,2.21-1.37M37.5,0c-4.93,0-9.37,2.74-11.59,7.14l-4.85,9.63-10.47,1.96c-4.62.87-8.42,4.18-9.92,8.64-1.5,4.46-.45,9.4,2.72,12.88l7.78,8.54-1.52,11.53c-.49,3.71.64,7.45,3.1,10.25,2.47,2.82,6.03,4.43,9.77,4.43,2.05,0,4.11-.5,5.94-1.44l9.04-4.65,9.04,4.65c1.84.95,3.89,1.44,5.94,1.44,3.74,0,7.3-1.62,9.77-4.44,2.46-2.81,3.59-6.54,3.1-10.25l-1.52-11.53,7.78-8.54c3.17-3.48,4.21-8.41,2.72-12.87-1.49-4.46-5.29-7.77-9.92-8.64l-10.47-1.96-4.85-9.63c-2.22-4.41-6.66-7.14-11.59-7.14h0Z"/>
</svg>