<?xml version="1.0" encoding="UTF-8"?>
<svg id="Layer_1" xmlns="http://www.w3.org/2000/svg" version="1.1" viewBox="0 0 64 64">
  <!-- Generator: Adobe Illustrator 30.1.0, SVG Export Plug-In . SVG Version: 2.1.1 Build 136)  -->
  <path d="M32,6.7c.82,0,1.65.43,2.08,1.28l5.29,10.51c.91,1.8,2.6,3.08,4.58,3.45l11.45,2.15c1.79.34,2.52,2.51,1.29,3.86l-8.34,9.16c-1.29,1.41-1.89,3.32-1.64,5.22l1.63,12.34c.19,1.47-.98,2.64-2.3,2.64-.35,0-.71-.08-1.06-.26l-10.02-5.16c-.93-.48-1.94-.72-2.96-.72-1.02,0-2.03.24-2.96.72l-10.02,5.16c-.35.18-.71.26-1.06.26-1.32,0-2.5-1.17-2.3-2.64l1.63-12.35c.25-1.89-.35-3.8-1.63-5.21l-8.34-9.16c-1.23-1.35-.5-3.53,1.29-3.86l11.45-2.15c1.98-.37,3.67-1.65,4.58-3.45l5.29-10.51c.43-.85,1.25-1.28,2.07-1.28M32,0C28.57,0,25.48,1.9,23.94,4.97l-5.24,10.41-11.33,2.12c-3.21.6-5.86,2.9-6.9,6.01-1.04,3.1-.32,6.54,1.89,8.95l8.27,9.08-1.62,12.25c-.34,2.58.45,5.18,2.15,7.13,1.72,1.96,4.19,3.09,6.79,3.09,1.42,0,2.85-.35,4.13-1.01l9.91-5.1,9.91,5.1c1.28.66,2.71,1.01,4.13,1.01,2.6,0,5.07-1.12,6.79-3.09,1.71-1.95,2.5-4.55,2.15-7.13l-1.62-12.25,8.28-9.08c2.2-2.42,2.93-5.85,1.89-8.95-1.04-3.1-3.68-5.4-6.89-6l-11.34-2.12-5.24-10.41C38.51,1.9,35.43,0,32,0h0Z"/>
</svg>