<?xml version="1.0" encoding="UTF-8"?>
<svg id="Layer_1" xmlns="http://www.w3.org/2000/svg" version="1.1" viewBox="0 0 64 64">
  <!-- Generator: Adobe Illustrator 30.1.0, SVG Export Plug-In . SVG Version: 2.1.1 Build 136)  -->
  <path d="M32,8.96c.75,0,1.5.39,1.89,1.17l4.82,9.57c.83,1.64,2.37,2.8,4.17,3.14l10.43,1.95c1.63.31,2.29,2.29,1.17,3.51l-7.6,8.34c-1.17,1.29-1.72,3.03-1.49,4.75l1.48,11.24c.18,1.34-.89,2.4-2.1,2.4-.32,0-.65-.07-.97-.24l-9.12-4.7c-.85-.44-1.77-.65-2.69-.65-.92,0-1.85.22-2.69.65l-9.12,4.7c-.32.16-.65.24-.97.24-1.21,0-2.27-1.06-2.1-2.4l1.48-11.25c.23-1.73-.32-3.46-1.49-4.75l-7.6-8.34c-1.12-1.23-.46-3.21,1.17-3.52l10.43-1.95c1.8-.34,3.35-1.5,4.17-3.14l4.82-9.57c.39-.78,1.14-1.17,1.89-1.17M32,0C27.79,0,24,2.34,22.11,6.09l-4.14,8.21-8.93,1.67c-3.94.74-7.19,3.56-8.46,7.37-1.28,3.81-.39,8.02,2.32,10.99l6.64,7.29-1.3,9.84c-.42,3.17.55,6.36,2.65,8.75,2.11,2.41,5.15,3.78,8.33,3.78,1.75,0,3.5-.43,5.07-1.23l7.71-3.97,7.71,3.97c1.57.81,3.32,1.23,5.07,1.23,3.19,0,6.23-1.38,8.33-3.78,2.1-2.39,3.06-5.58,2.65-8.75l-1.3-9.84,6.64-7.29c2.7-2.97,3.59-7.18,2.32-10.99-1.28-3.81-4.52-6.63-8.46-7.37l-8.93-1.67-4.14-8.21C40,2.34,36.21,0,32,0h0Z"/>
</svg>