<?xml version="1.0" encoding="UTF-8"?>
<svg id="Layer_1" xmlns="http://www.w3.org/2000/svg" version="1.1" viewBox="0 0 52 52">
  <!-- Generator: Adobe Illustrator 30.1.0, SVG Export Plug-In . SVG Version: 2.1.1 Build 136)  -->
  <path d="M26,9.12c.55,0,1.1.28,1.38.85l3.53,7.01c.61,1.2,1.74,2.05,3.06,2.3l7.64,1.43c1.19.22,1.68,1.68.86,2.58l-5.57,6.11c-.86.94-1.26,2.22-1.09,3.48l1.09,8.24c.13.98-.65,1.76-1.54,1.76-.23,0-.48-.05-.71-.17l-6.68-3.44c-.62-.32-1.3-.48-1.97-.48s-1.35.16-1.97.48l-6.68,3.44c-.23.12-.47.17-.71.17-.88,0-1.67-.78-1.54-1.76l1.09-8.24c.17-1.26-.23-2.54-1.09-3.48l-5.57-6.11c-.82-.9-.34-2.35.86-2.58l7.64-1.43c1.32-.25,2.45-1.1,3.06-2.3l3.53-7.01c.29-.57.84-.85,1.38-.85M26,0C21.95,0,18.3,2.25,16.47,5.87l-2.46,4.89-5.3.99c-3.8.71-6.92,3.43-8.15,7.1-1.23,3.67-.37,7.72,2.23,10.58l4.07,4.46-.8,6.03c-.4,3.05.53,6.12,2.55,8.43,2.03,2.31,4.95,3.64,8.02,3.64,1.69,0,3.38-.41,4.88-1.19l4.48-2.31,4.48,2.31c1.51.78,3.2,1.19,4.88,1.19,3.07,0,6-1.33,8.02-3.64,2.02-2.31,2.95-5.38,2.55-8.43l-.8-6.03,4.07-4.46c2.6-2.86,3.46-6.91,2.23-10.58-1.23-3.67-4.35-6.39-8.15-7.1l-5.31-.99-2.46-4.89C33.7,2.25,30.05,0,26,0h0Z"/>
</svg>