<?xml version="1.0" encoding="UTF-8"?>
<svg id="Layer_1" xmlns="http://www.w3.org/2000/svg" version="1.1" viewBox="0 0 52 52">
  <!-- Generator: Adobe Illustrator 30.1.0, SVG Export Plug-In . SVG Version: 2.1.1 Build 136)  -->
  <path d="M26,5.44c.67,0,1.34.35,1.69,1.04l4.3,8.54c.74,1.46,2.11,2.5,3.72,2.8l9.3,1.74c1.45.27,2.04,2.04,1.05,3.14l-6.78,7.44c-1.05,1.15-1.53,2.7-1.33,4.24l1.32,10.03c.16,1.2-.8,2.14-1.87,2.14-.29,0-.58-.07-.86-.21l-8.14-4.19c-.75-.39-1.58-.58-2.4-.58-.82,0-1.65.19-2.4.58l-8.14,4.19c-.28.15-.58.21-.86.21-1.08,0-2.03-.95-1.87-2.14l1.32-10.03c.2-1.54-.28-3.09-1.33-4.24l-6.78-7.44c-1-1.1-.41-2.87,1.05-3.14l9.3-1.74c1.61-.3,2.98-1.34,3.72-2.8l4.3-8.54c.35-.69,1.02-1.04,1.69-1.04M26,0c-2.79,0-5.29,1.55-6.55,4.03l-4.26,8.46-9.21,1.73c-2.61.49-4.76,2.36-5.6,4.88-.84,2.52-.26,5.31,1.53,7.28l6.72,7.38-1.31,9.95c-.28,2.1.36,4.21,1.75,5.79,1.4,1.59,3.41,2.51,5.52,2.51,1.16,0,2.32-.28,3.36-.82l8.05-4.15,8.05,4.15c1.04.53,2.2.82,3.36.82,2.11,0,4.12-.91,5.52-2.51,1.39-1.58,2.03-3.7,1.75-5.79l-1.31-9.95,6.72-7.38c1.79-1.97,2.38-4.75,1.53-7.27-.84-2.52-2.99-4.39-5.6-4.88l-9.21-1.73-4.26-8.46c-1.25-2.49-3.76-4.03-6.55-4.03h0Z"/>
</svg>