<?xml version="1.0" encoding="UTF-8"?>
<svg id="Layer_1" xmlns="http://www.w3.org/2000/svg" version="1.1" viewBox="0 0 40 40">
  <!-- Generator: Adobe Illustrator 30.1.0, SVG Export Plug-In . SVG Version: 2.1.1 Build 136)  -->
  <path d="M20,7.01c.42,0,.84.22,1.07.66l2.72,5.39c.47.93,1.34,1.58,2.35,1.77l5.88,1.1c.92.17,1.29,1.29.66,1.98l-4.28,4.7c-.66.73-.97,1.71-.84,2.68l.84,6.34c.1.76-.5,1.35-1.18,1.35-.18,0-.37-.04-.55-.13l-5.14-2.65c-.48-.25-1-.37-1.52-.37-.52,0-1.04.12-1.52.37l-5.14,2.65c-.18.09-.37.13-.55.13-.68,0-1.28-.6-1.18-1.35l.84-6.34c.13-.97-.18-1.95-.84-2.68l-4.28-4.7c-.63-.69-.26-1.81.66-1.98l5.88-1.1c1.02-.19,1.89-.84,2.35-1.77l2.72-5.39c.22-.44.64-.66,1.07-.66M20,0c-3.12,0-5.93,1.73-7.33,4.51l-1.9,3.76-4.08.76c-2.92.55-5.32,2.64-6.27,5.46-.95,2.82-.29,5.94,1.72,8.14l3.13,3.43-.61,4.64c-.31,2.34.41,4.71,1.96,6.48,1.56,1.78,3.81,2.8,6.17,2.8,1.3,0,2.6-.32,3.76-.91l3.45-1.78,3.45,1.78c1.16.6,2.46.91,3.76.91,2.36,0,4.61-1.02,6.17-2.8,1.56-1.77,2.27-4.14,1.96-6.48l-.61-4.64,3.13-3.43c2-2.2,2.66-5.32,1.72-8.14-.94-2.82-3.35-4.91-6.27-5.46l-4.08-.77-1.9-3.76c-1.4-2.78-4.21-4.51-7.33-4.51h0Z"/>
</svg>