<?xml version="1.0" encoding="UTF-8"?>
<svg id="Layer_1" xmlns="http://www.w3.org/2000/svg" version="1.1" viewBox="0 0 40 40">
  <!-- Generator: Adobe Illustrator 30.1.0, SVG Export Plug-In . SVG Version: 2.1.1 Build 136)  -->
  <path d="M20,4.19c.51,0,1.03.27,1.3.8l3.31,6.57c.57,1.13,1.63,1.92,2.86,2.16l7.16,1.34c1.12.21,1.57,1.57.81,2.41l-5.21,5.72c-.8.88-1.18,2.08-1.02,3.26l1.02,7.72c.12.92-.61,1.65-1.44,1.65-.22,0-.45-.05-.66-.16l-6.26-3.22c-.58-.3-1.21-.45-1.85-.45-.63,0-1.27.15-1.85.45l-6.26,3.22c-.22.11-.44.16-.66.16-.83,0-1.56-.73-1.44-1.65l1.02-7.72c.16-1.18-.22-2.38-1.02-3.26l-5.21-5.72c-.77-.84-.31-2.2.81-2.41l7.16-1.34c1.24-.23,2.3-1.03,2.86-2.15l3.31-6.57c.27-.53.78-.8,1.3-.8M20,0c-2.14,0-4.07,1.19-5.04,3.1l-3.28,6.5-7.08,1.33c-2.01.38-3.66,1.81-4.31,3.75-.65,1.94-.2,4.08,1.18,5.6l5.17,5.67-1.01,7.66c-.21,1.61.28,3.24,1.35,4.46,1.07,1.23,2.62,1.93,4.24,1.93.89,0,1.78-.22,2.58-.63l6.19-3.19,6.19,3.19c.8.41,1.69.63,2.58.63,1.62,0,3.17-.7,4.24-1.93,1.07-1.22,1.56-2.84,1.35-4.46l-1.01-7.66,5.17-5.68c1.38-1.51,1.83-3.66,1.18-5.6-.65-1.94-2.3-3.38-4.31-3.75l-7.08-1.33-3.28-6.5c-.96-1.91-2.89-3.1-5.04-3.1h0Z"/>
</svg>