<?xml version="1.0" encoding="UTF-8"?>
<svg id="Layer_1" xmlns="http://www.w3.org/2000/svg" version="1.1" viewBox="0 0 40 40">
  <!-- Generator: Adobe Illustrator 30.1.0, SVG Export Plug-In . SVG Version: 2.1.1 Build 136)  -->
  <path d="M20,5.6c.47,0,.94.24,1.18.73l3.01,5.98c.52,1.03,1.48,1.75,2.61,1.96l6.52,1.22c1.02.19,1.43,1.43.73,2.2l-4.75,5.21c-.73.8-1.07,1.89-.93,2.97l.93,7.03c.11.84-.56,1.5-1.31,1.5-.2,0-.41-.05-.6-.15l-5.7-2.94c-.53-.27-1.11-.41-1.68-.41s-1.16.14-1.68.41l-5.7,2.94c-.2.1-.4.15-.6.15-.75,0-1.42-.66-1.31-1.5l.93-7.03c.14-1.08-.2-2.16-.93-2.97l-4.75-5.21c-.7-.77-.29-2.01.73-2.2l6.52-1.22c1.13-.21,2.09-.94,2.61-1.96l3.01-5.98c.24-.49.71-.73,1.18-.73M20,0C17.37,0,15,1.46,13.82,3.81l-2.59,5.13-5.58,1.05c-2.47.46-4.49,2.23-5.29,4.61-.8,2.38-.24,5.01,1.45,6.87l4.15,4.55-.81,6.15c-.26,1.98.34,3.97,1.65,5.47,1.32,1.5,3.22,2.37,5.21,2.37,1.09,0,2.19-.27,3.17-.77l4.82-2.48,4.82,2.48c.98.5,2.07.77,3.17.77,1.99,0,3.89-.86,5.21-2.37,1.31-1.5,1.92-3.49,1.65-5.47l-.81-6.15,4.15-4.56c1.69-1.86,2.25-4.49,1.45-6.87-.8-2.38-2.82-4.14-5.29-4.61l-5.58-1.05-2.59-5.13C25,1.46,22.63,0,20,0h0Z"/>
</svg>