<?xml version="1.0" encoding="UTF-8"?>
<svg id="Layer_1" xmlns="http://www.w3.org/2000/svg" version="1.1" viewBox="0 0 24 24">
  <!-- Generator: Adobe Illustrator 30.1.0, SVG Export Plug-In . SVG Version: 2.1.1 Build 136)  -->
  <circle id="Outer" cx="12" cy="12" r="10.74" fill="none" stroke="#000" stroke-width="2.51"/>
  <g>
    <g>
      <rect x="11.24" y="15.8" width="1.5" height="1.5"/>
      <path d="M12.56,15.99v1.13h-1.13v-1.13h1.13M12.93,15.61h-1.88v1.88h1.88v-1.88h0Z"/>
    </g>
    <g>
      <path d="M11.24,14.17v-.61c0-.58.21-1.14.6-1.57l1.12-1.24c.27-.3.43-.7.43-1.1,0-.56-.46-1.02-1.03-1.02h-.72c-.57,0-1.03.46-1.03,1.02v.19h-1.51v-.19c0-1.39,1.14-2.52,2.54-2.52h.72c1.4,0,2.54,1.13,2.54,2.52,0,.78-.29,1.53-.81,2.11l-1.12,1.24c-.14.16-.22.35-.22.56v.61h-1.5Z"/>
      <path d="M12.36,7.31c1.3,0,2.35,1.05,2.35,2.34,0,.73-.27,1.44-.76,1.98l-1.12,1.24c-.17.19-.27.43-.27.69v.43h-1.13v-.43c0-.53.2-1.04.55-1.44l1.12-1.24c.31-.34.47-.78.47-1.23,0-.67-.55-1.21-1.22-1.21h-.72c-.67,0-1.22.54-1.22,1.21h-1.14c0-1.29,1.06-2.34,2.35-2.34h.72M12.36,6.94h-.72c-1.5,0-2.73,1.22-2.73,2.71v.38h1.89v-.38c0-.46.38-.83.84-.83h.72c.46,0,.84.37.84.83,0,.36-.13.71-.38.98l-1.12,1.24c-.42.46-.65,1.06-.65,1.69v.43s0,.37,0,.37h1.87v-.37s0-.43,0-.43c0-.16.06-.31.17-.44l1.12-1.24c.56-.61.86-1.41.86-2.23,0-1.5-1.22-2.71-2.73-2.71h0Z"/>
    </g>
  </g>
</svg>