<?xml version="1.0" encoding="UTF-8"?>
<svg id="Layer_1" xmlns="http://www.w3.org/2000/svg" version="1.1" viewBox="0 0 24 24">
  <!-- Generator: Adobe Illustrator 30.1.0, SVG Export Plug-In . SVG Version: 2.1.1 Build 136)  -->
  <circle id="Outer" cx="12" cy="12" r="10.32" fill="none" stroke="#000" stroke-width="3.36"/>
  <g>
    <g>
      <rect x="11.24" y="15.48" width="1.51" height="1.51"/>
      <path d="M12.48,15.74v.98h-.98v-.98h.98M13.01,15.22h-2.03v2.03h2.03v-2.03h0Z"/>
    </g>
    <g>
      <path d="M11.24,13.91v-.63c0-.53.19-1.04.55-1.44l.97-1.08c.22-.25.35-.57.35-.9,0-.44-.36-.79-.8-.79h-.62c-.44,0-.8.35-.8.79v.26h-1.52v-.26c0-1.27,1.04-2.3,2.31-2.3h.62c1.28,0,2.32,1.03,2.32,2.3,0,.7-.26,1.38-.73,1.91l-.97,1.08c-.11.12-.17.27-.17.42v.63h-1.51Z"/>
      <path d="M12.31,7.83c1.13,0,2.05.91,2.05,2.04,0,.64-.24,1.25-.67,1.73l-.97,1.08c-.15.17-.23.37-.24.6v.37h-.99v-.37c0-.47.17-.91.48-1.26l.97-1.08c.27-.3.41-.68.41-1.07,0-.58-.48-1.05-1.06-1.05h-.63c-.58,0-1.06.47-1.06,1.05h-.99c0-1.12.92-2.04,2.05-2.04h.63M12.31,7.31h-.63c-1.42,0-2.58,1.15-2.58,2.56v.53h2.04v-.53c0-.29.24-.53.54-.53h.63c.3,0,.54.24.54.53,0,.27-.1.52-.28.72l-.97,1.08c-.4.44-.62,1.01-.62,1.61v.38s0,.52,0,.52h2.02v-.52s0-.37,0-.37c0-.1.03-.18.1-.25l.97-1.08c.52-.57.8-1.31.8-2.08,0-1.41-1.16-2.56-2.58-2.56h0Z"/>
    </g>
  </g>
</svg>