<?xml version="1.0" encoding="UTF-8"?>
<svg id="Layer_1" xmlns="http://www.w3.org/2000/svg" version="1.1" viewBox="0 0 24 24">
  <!-- Generator: Adobe Illustrator 30.1.0, SVG Export Plug-In . SVG Version: 2.1.1 Build 136)  -->
  <circle id="Outer" cx="12" cy="12" r="9.9" fill="none" stroke="#000" stroke-width="4.21"/>
  <g>
    <g>
      <rect x="11.23" y="15.16" width="1.52" height="1.52"/>
      <path d="M12.42,15.49v.85h-.85v-.85h.85M13.09,14.82h-2.2v2.2h2.2v-2.2h0Z"/>
    </g>
    <g>
      <path d="M11.24,13.67v-.66c0-.49.18-.95.5-1.31l.84-.93c.17-.19.27-.44.27-.7,0-.31-.26-.57-.58-.57h-.54c-.32,0-.58.25-.58.57v.34h-1.53v-.34c0-1.15.94-2.09,2.1-2.09h.54c1.16,0,2.1.94,2.1,2.09,0,.63-.24,1.24-.66,1.71l-.84.93c-.08.08-.11.18-.12.29v.66h-1.52Z"/>
      <path d="M12.27,8.33c.97,0,1.77.79,1.77,1.75,0,.55-.2,1.08-.57,1.49l-.84.93c-.13.14-.2.32-.2.51v.32h-.85v-.32c0-.4.15-.78.42-1.08l.84-.93c.23-.25.36-.58.36-.92,0-.5-.41-.91-.91-.91h-.54c-.5,0-.91.41-.91.91h-.85c0-.97.79-1.75,1.77-1.75h.54M12.27,7.66h-.54c-1.35,0-2.44,1.09-2.44,2.43v.68h2.2v-.68c0-.13.11-.23.24-.23h.54c.13,0,.24.1.24.23,0,.17-.06.34-.18.47l-.84.93c-.38.42-.59.96-.59,1.53v.33s0,.67,0,.67h2.18v-.67s.01-.32.01-.32c0-.02,0-.04.03-.07l.84-.93c.48-.53.75-1.22.75-1.94,0-1.34-1.09-2.43-2.44-2.43h0Z"/>
    </g>
  </g>
</svg>