<?xml version="1.0" encoding="UTF-8"?>
<svg id="Layer_1" xmlns="http://www.w3.org/2000/svg" version="1.1" viewBox="0 0 73 73">
  <!-- Generator: Adobe Illustrator 30.1.0, SVG Export Plug-In . SVG Version: 2.1.1 Build 136)  -->
  <path d="M36.5,12.8c.77,0,1.54.4,1.94,1.2l4.96,9.84c.85,1.69,2.44,2.88,4.29,3.23l10.73,2.01c1.68.31,2.36,2.35,1.21,3.62l-7.82,8.58c-1.21,1.32-1.77,3.11-1.53,4.89l1.53,11.56c.18,1.38-.92,2.47-2.16,2.47-.33,0-.67-.08-1-.25l-9.38-4.83c-.87-.45-1.82-.67-2.77-.67-.95,0-1.9.22-2.77.67l-9.38,4.83c-.33.17-.67.25-1,.25-1.24,0-2.34-1.09-2.16-2.47l1.53-11.57c.23-1.77-.33-3.56-1.53-4.88l-7.82-8.58c-1.15-1.26-.47-3.3,1.21-3.62l10.73-2.01c1.85-.35,3.44-1.54,4.29-3.23l4.96-9.84c.4-.8,1.17-1.2,1.94-1.2M36.5,0C30.81,0,25.69,3.16,23.13,8.24l-3.46,6.87-7.45,1.4c-5.33,1-9.72,4.82-11.44,9.96-1.72,5.15-.52,10.84,3.13,14.85l5.71,6.27-1.12,8.47c-.56,4.28.74,8.59,3.58,11.83,2.85,3.25,6.96,5.11,11.27,5.11,2.37,0,4.74-.58,6.85-1.67l6.3-3.24,6.3,3.24c2.12,1.09,4.49,1.67,6.85,1.67,4.31,0,8.42-1.86,11.27-5.11,2.84-3.24,4.14-7.55,3.58-11.83l-1.12-8.47,5.71-6.27c3.66-4.01,4.86-9.7,3.13-14.85-1.72-5.15-6.11-8.96-11.44-9.96l-7.45-1.4-3.46-6.87C47.31,3.16,42.19,0,36.5,0h0Z"/>
</svg>