<?xml version="1.0" encoding="UTF-8"?>
<svg id="Layer_1" xmlns="http://www.w3.org/2000/svg" version="1.1" viewBox="0 0 73 73">
  <!-- Generator: Adobe Illustrator 30.1.0, SVG Export Plug-In . SVG Version: 2.1.1 Build 136)  -->
  <path d="M36.5,7.64c.94,0,1.88.49,2.37,1.46l6.04,11.98c1.04,2.06,2.97,3.51,5.23,3.93l13.06,2.45c2.04.38,2.87,2.86,1.47,4.4l-9.52,10.44c-1.47,1.61-2.15,3.79-1.87,5.95l1.86,14.08c.22,1.68-1.12,3.01-2.63,3.01-.4,0-.81-.09-1.21-.3l-11.42-5.88c-1.06-.55-2.22-.82-3.37-.82-1.16,0-2.32.27-3.37.82l-11.42,5.88c-.4.21-.81.3-1.21.3-1.51,0-2.85-1.33-2.63-3.01l1.86-14.08c.28-2.16-.4-4.34-1.86-5.95l-9.52-10.44c-1.4-1.54-.57-4.02,1.47-4.41l13.06-2.45c2.26-.42,4.19-1.88,5.23-3.93l6.04-11.99c.49-.97,1.43-1.46,2.37-1.46M36.5,0C32.59,0,29.07,2.17,27.31,5.66l-5.98,11.87-12.93,2.42c-3.67.69-6.68,3.31-7.86,6.85-1.19,3.54-.36,7.45,2.15,10.21l9.44,10.36-1.84,13.97c-.39,2.94.51,5.91,2.46,8.13,1.96,2.24,4.78,3.52,7.75,3.52,1.62,0,3.25-.4,4.71-1.15l11.3-5.82,11.3,5.82c1.46.75,3.09,1.15,4.71,1.15,2.96,0,5.78-1.28,7.75-3.52,1.95-2.22,2.85-5.19,2.46-8.13l-1.84-13.97,9.44-10.36c2.51-2.76,3.34-6.67,2.15-10.21-1.19-3.54-4.2-6.16-7.86-6.85l-12.93-2.42-5.98-11.87C43.93,2.17,40.41,0,36.5,0h0Z"/>
</svg>