<?xml version="1.0" encoding="UTF-8"?>
<svg id="Layer_1" xmlns="http://www.w3.org/2000/svg" version="1.1" viewBox="0 0 77 77">
  <!-- Generator: Adobe Illustrator 30.1.0, SVG Export Plug-In . SVG Version: 2.1.1 Build 136)  -->
  <path d="M38.5,8.06c.99,0,1.98.51,2.5,1.54l6.37,12.64c1.09,2.17,3.13,3.7,5.51,4.15l13.78,2.58c2.15.4,3.03,3.02,1.55,4.64l-10.04,11.01c-1.55,1.7-2.27,4-1.97,6.28l1.96,14.85c.23,1.77-1.18,3.18-2.77,3.18-.42,0-.86-.1-1.28-.32l-12.05-6.21c-1.12-.58-2.34-.86-3.56-.86-1.22,0-2.44.29-3.56.86l-12.05,6.21c-.42.22-.86.32-1.28.32-1.59,0-3.01-1.4-2.77-3.18l1.96-14.86c.3-2.28-.42-4.57-1.97-6.27l-10.04-11.02c-1.48-1.62-.6-4.24,1.55-4.65l13.78-2.58c2.38-.45,4.42-1.98,5.51-4.15l6.37-12.64c.52-1.03,1.51-1.54,2.5-1.54M38.5,0C34.38,0,30.66,2.29,28.8,5.97l-6.31,12.52-13.63,2.56c-3.87.72-7.05,3.49-8.3,7.23-1.25,3.73-.38,7.86,2.27,10.77l9.95,10.92-1.94,14.74c-.41,3.1.54,6.23,2.59,8.58,2.07,2.36,5.05,3.71,8.17,3.71,1.71,0,3.43-.42,4.97-1.21l11.92-6.14,11.92,6.14c1.54.79,3.25,1.21,4.97,1.21,3.12,0,6.1-1.35,8.17-3.71,2.06-2.35,3-5.47,2.59-8.58l-1.94-14.74,9.96-10.93c2.65-2.91,3.52-7.04,2.27-10.77-1.25-3.73-4.43-6.5-8.29-7.22l-13.64-2.56-6.31-12.52C46.34,2.29,42.62,0,38.5,0h0Z"/>
</svg>