<?xml version="1.0" encoding="UTF-8"?>
<svg id="Layer_1" xmlns="http://www.w3.org/2000/svg" version="1.1" viewBox="0 0 77 77">
  <!-- Generator: Adobe Illustrator 30.1.0, SVG Export Plug-In . SVG Version: 2.1.1 Build 136)  -->
  <path d="M38.5,10.78c.9,0,1.8.47,2.27,1.4l5.8,11.51c1,1.98,2.85,3.37,5.02,3.78l12.55,2.35c1.96.37,2.76,2.75,1.41,4.23l-9.14,10.03c-1.41,1.55-2.07,3.64-1.79,5.72l1.78,13.52c.21,1.61-1.07,2.89-2.52,2.89-.38,0-.78-.09-1.16-.29l-10.97-5.65c-1.02-.52-2.13-.79-3.24-.79s-2.22.26-3.24.79l-10.97,5.65c-.38.2-.78.29-1.16.29-1.45,0-2.74-1.28-2.52-2.89l1.78-13.53c.27-2.08-.38-4.17-1.79-5.71l-9.14-10.03c-1.35-1.48-.55-3.86,1.41-4.23l12.54-2.35c2.17-.41,4.02-1.8,5.02-3.78l5.8-11.51c.47-.93,1.37-1.4,2.27-1.4M38.5,0C33.44,0,28.88,2.81,26.6,7.33l-4.98,9.88-10.74,2.01c-4.75.89-8.65,4.29-10.18,8.87-1.54,4.58-.47,9.65,2.79,13.22l7.99,8.77-1.56,11.84c-.5,3.81.66,7.65,3.18,10.53,2.54,2.89,6.19,4.55,10.03,4.55,2.11,0,4.22-.51,6.1-1.48l9.28-4.78,9.28,4.78c1.88.97,3.99,1.48,6.1,1.48,3.83,0,7.49-1.66,10.03-4.55,2.53-2.88,3.69-6.72,3.18-10.53l-1.56-11.84,7.99-8.77c3.25-3.57,4.32-8.64,2.79-13.22-1.53-4.58-5.44-7.98-10.18-8.87l-10.75-2.01-4.98-9.88C48.12,2.81,43.56,0,38.5,0h0Z"/>
</svg>