<?xml version="1.0" encoding="UTF-8"?>
<svg id="Layer_1" xmlns="http://www.w3.org/2000/svg" version="1.1" viewBox="0 0 85 85">
  <!-- Generator: Adobe Illustrator 30.1.0, SVG Export Plug-In . SVG Version: 2.1.1 Build 136)  -->
  <circle id="Outer" cx="42.5" cy="42.5" r="38.05" fill="none" stroke="#000" stroke-width="8.9"/>
  <g>
    <g>
      <rect x="39.81" y="55.97" width="5.32" height="5.32"/>
      <path d="M44.47,56.63v3.99h-3.99v-3.99h3.99M45.8,55.3h-6.65v6.65h6.65v-6.65h0Z"/>
    </g>
    <g>
      <path d="M39.82,50.18l-.02-2.17c0-2.06.77-4.03,2.15-5.55l3.95-4.38c.97-1.08,1.51-2.46,1.51-3.91,0-1.99-1.63-3.61-3.64-3.61h-2.54c-2.01,0-3.64,1.62-3.64,3.61v.66h-5.36v-.66c0-4.93,4.04-8.94,9-8.94h2.54c4.96,0,9,4.01,9,8.94,0,2.76-1.02,5.41-2.88,7.47l-3.95,4.38c-.51.56-.78,1.25-.78,1.99l-.02,2.17h-5.31Z"/>
      <path d="M43.77,25.89c4.6,0,8.34,3.71,8.34,8.28,0,2.6-.96,5.09-2.71,7.02l-3.95,4.38c-.61.68-.95,1.52-.95,2.43l-.02,1.51h-3.99v-1.51c0-1.89.69-3.69,1.96-5.1l3.95-4.38c1.08-1.2,1.68-2.75,1.68-4.35,0-2.36-1.93-4.28-4.31-4.28h-2.54c-2.38,0-4.31,1.92-4.31,4.28h-4.03c0-4.56,3.74-8.28,8.34-8.28h2.54M43.77,24.56h-2.54c-5.33,0-9.66,4.31-9.66,9.61v1.33h6.68v-1.33c0-1.63,1.34-2.95,2.98-2.95h2.54c1.64,0,2.98,1.32,2.98,2.95,0,1.28-.47,2.51-1.34,3.46l-3.95,4.38c-1.49,1.64-2.31,3.77-2.32,5.99v1.53s.03,1.32.03,1.32h6.62v-1.31s.03-1.51.03-1.51c0-.58.21-1.11.61-1.55l3.96-4.38c1.97-2.18,3.05-4.99,3.05-7.91,0-5.3-4.34-9.61-9.66-9.61h0Z"/>
    </g>
  </g>
</svg>