<?xml version="1.0" encoding="UTF-8"?>
<svg id="Layer_1" xmlns="http://www.w3.org/2000/svg" version="1.1" viewBox="0 0 85 85">
  <!-- Generator: Adobe Illustrator 30.1.0, SVG Export Plug-In . SVG Version: 2.1.1 Build 136)  -->
  <circle id="Outer" cx="42.5" cy="42.5" r="36.55" fill="none" stroke="#000" stroke-width="11.9"/>
  <g>
    <g>
      <rect x="39.81" y="54.83" width="5.34" height="5.34"/>
      <path d="M44.22,55.76v3.48h-3.48v-3.48h3.48M46.08,53.9h-7.2v7.2h7.2v-7.2h0Z"/>
    </g>
    <g>
      <path d="M39.82,49.27l-.02-2.24c0-1.89.7-3.69,1.96-5.08l3.45-3.82c.79-.87,1.22-2,1.22-3.17,0-1.54-1.27-2.8-2.83-2.8h-2.21c-1.56,0-2.83,1.26-2.83,2.8v.93h-5.37v-.93c0-4.49,3.68-8.15,8.2-8.15h2.21c4.52,0,8.2,3.65,8.2,8.15,0,2.49-.92,4.89-2.6,6.75l-3.45,3.82c-.39.43-.59.95-.59,1.5l-.02,2.24h-5.32Z"/>
      <path d="M43.61,27.74c4.01,0,7.27,3.24,7.27,7.22,0,2.26-.84,4.44-2.36,6.12l-3.45,3.82c-.53.59-.83,1.33-.83,2.12v1.32h-3.49v-1.32c0-1.65.6-3.22,1.71-4.45l3.45-3.82c.94-1.05,1.46-2.39,1.46-3.8,0-2.06-1.69-3.73-3.76-3.73h-2.21c-2.07,0-3.76,1.67-3.76,3.73h-3.51c0-3.98,3.26-7.22,7.27-7.22h2.21M43.61,25.88h-2.21c-5.03,0-9.13,4.07-9.13,9.08v1.86h7.23v-1.86c0-1.03.85-1.87,1.9-1.87h2.21c1.05,0,1.9.84,1.9,1.87,0,.94-.35,1.85-.98,2.55l-3.45,3.82c-1.41,1.56-2.2,3.58-2.2,5.69v1.34s.03,1.84.03,1.84h7.16l.02-1.84v-1.32c.01-.34.13-.63.37-.89l3.45-3.82c1.83-2.03,2.84-4.65,2.84-7.37,0-5.01-4.09-9.08-9.13-9.08h0Z"/>
    </g>
  </g>
</svg>