<?xml version="1.0" encoding="UTF-8"?>
<svg id="Layer_1" xmlns="http://www.w3.org/2000/svg" version="1.1" viewBox="0 0 93 93">
  <!-- Generator: Adobe Illustrator 30.1.0, SVG Export Plug-In . SVG Version: 2.1.1 Build 136)  -->
  <g>
    <g>
      <rect x="43.2" y="24.73" width="6.6" height="6.59"/>
      <path d="M49.07,25.46v5.14h-5.14v-5.14h5.14M50.52,24.01h-8.05v8.05h8.05v-8.05h0Z"/>
    </g>
    <g>
      <polygon points="38.06 67.99 38.06 61.39 43.2 61.39 43.2 46.79 38.06 46.79 38.06 40.2 49.8 40.2 49.8 61.39 54.94 61.39 54.94 67.99 38.06 67.99"/>
      <path d="M49.07,40.93v21.19h5.14v5.14h-15.42v-5.14h5.14v-16.05h-5.14v-5.14h10.28M50.52,39.47h-13.19v8.05h5.14v13.15h-5.14v8.05h18.33v-8.05h-5.14v-21.19h0Z"/>
    </g>
  </g>
  <circle id="Outer" cx="46.5" cy="46.5" r="41.63" fill="none" stroke="#000" stroke-width="9.74"/>
</svg>