<?xml version="1.0" encoding="UTF-8"?>
<svg id="Layer_1" xmlns="http://www.w3.org/2000/svg" version="1.1" viewBox="0 0 93 93">
  <!-- Generator: Adobe Illustrator 30.1.0, SVG Export Plug-In . SVG Version: 2.1.1 Build 136)  -->
  <g>
    <g>
      <rect x="43.15" y="25.92" width="6.7" height="6.7"/>
      <path d="M48.83,26.93v4.66h-4.66v-4.66h4.66M50.87,24.9h-8.73v8.73h8.73v-8.73h0Z"/>
    </g>
    <g>
      <polygon points="38.49 66.54 38.49 59.85 43.15 59.85 43.15 47.33 38.49 47.33 38.49 40.63 49.85 40.63 49.85 59.85 54.51 59.85 54.51 66.54 38.49 66.54"/>
      <path d="M48.83,41.65v19.21h4.66v4.66h-13.98v-4.66h4.66v-14.55h-4.66v-4.66h9.32M50.87,39.61h-13.39v8.73h4.66v10.48h-4.66v8.73h18.05v-8.73h-4.66v-19.21h0Z"/>
    </g>
  </g>
  <circle id="Outer" cx="46.5" cy="46.5" r="39.99" fill="none" stroke="#000" stroke-width="13.02"/>
</svg>