<?xml version="1.0" encoding="UTF-8"?>
<svg id="Layer_1" xmlns="http://www.w3.org/2000/svg" version="1.1" viewBox="0 0 65 65">
  <!-- Generator: Adobe Illustrator 30.1.0, SVG Export Plug-In . SVG Version: 2.1.1 Build 136)  -->
  <g>
    <g>
      <rect x="30.12" y="18.94" width="4.76" height="4.76"/>
      <path d="M33.96,19.85v2.93h-2.93v-2.93h2.93M35.79,18.02h-6.58v6.58h6.58v-6.58h0Z"/>
    </g>
    <g>
      <polygon points="27.19 45.51 27.19 40.76 30.12 40.76 30.12 33.44 27.19 33.44 27.19 28.68 34.88 28.68 34.88 40.76 37.81 40.76 37.81 45.51 27.19 45.51"/>
      <path d="M33.96,29.6v12.07h2.93v2.93h-8.79v-2.93h2.93v-9.14h-2.93v-2.93h5.86M35.79,27.77h-9.51v6.58h2.93v5.49h-2.93v6.58h12.44v-6.58h-2.93v-12.07h0Z"/>
    </g>
  </g>
  <circle id="Outer" cx="32.5" cy="32.5" r="26.8" fill="none" stroke="#000" stroke-width="11.4"/>
</svg>