<?xml version="1.0" encoding="UTF-8"?>
<svg id="Layer_1" xmlns="http://www.w3.org/2000/svg" version="1.1" viewBox="0 0 92 92">
  <!-- Generator: Adobe Illustrator 30.1.0, SVG Export Plug-In . SVG Version: 2.1.1 Build 136)  -->
  <path d="M46,9.63c1.18,0,2.36.61,2.98,1.84l7.61,15.1c1.31,2.59,3.74,4.43,6.59,4.96l16.46,3.09c2.57.48,3.62,3.61,1.85,5.55l-11.99,13.16c-1.85,2.03-2.71,4.78-2.35,7.5l2.34,17.74c.28,2.12-1.41,3.79-3.31,3.79-.5,0-1.02-.12-1.53-.38l-14.4-7.41c-1.33-.69-2.79-1.03-4.25-1.03-1.46,0-2.92.34-4.25,1.03l-14.4,7.42c-.5.26-1.02.38-1.53.38-1.9,0-3.59-1.68-3.31-3.79l2.34-17.75c.36-2.72-.5-5.47-2.35-7.49l-11.99-13.16c-1.77-1.94-.72-5.07,1.85-5.55l16.46-3.09c2.85-.53,5.28-2.37,6.59-4.96l7.61-15.11c.62-1.23,1.8-1.84,2.98-1.84M46,0C41.07,0,36.63,2.73,34.41,7.14l-7.54,14.96-16.29,3.05c-4.62.87-8.42,4.17-9.91,8.63-1.49,4.46-.45,9.39,2.71,12.87l11.89,13.05-2.32,17.61c-.49,3.71.64,7.44,3.1,10.25,2.47,2.82,6.03,4.44,9.76,4.44,2.05,0,4.1-.5,5.94-1.45l14.24-7.33,14.24,7.33c1.84.95,3.89,1.45,5.94,1.45,3.73,0,7.29-1.62,9.76-4.44,2.46-2.8,3.59-6.54,3.1-10.25l-2.32-17.61,11.9-13.05c3.17-3.48,4.21-8.41,2.71-12.87-1.49-4.46-5.29-7.77-9.91-8.63l-16.29-3.05-7.54-14.96C55.37,2.74,50.93,0,46,0h0Z"/>
</svg>