<?xml version="1.0" encoding="UTF-8"?>
<svg id="Layer_1" xmlns="http://www.w3.org/2000/svg" version="1.1" viewBox="0 0 92 92">
  <!-- Generator: Adobe Illustrator 30.1.0, SVG Export Plug-In . SVG Version: 2.1.1 Build 136)  -->
  <path d="M46,16.13c.97,0,1.94.5,2.45,1.51l6.25,12.41c1.07,2.13,3.07,3.63,5.41,4.07l13.52,2.53c2.11.4,2.97,2.97,1.52,4.56l-9.85,10.81c-1.52,1.67-2.23,3.92-1.93,6.16l1.92,14.57c.23,1.74-1.16,3.12-2.72,3.12-.41,0-.84-.1-1.25-.31l-11.83-6.09c-1.1-.56-2.29-.85-3.49-.85s-2.4.28-3.49.85l-11.83,6.09c-.41.21-.84.31-1.25.31-1.56,0-2.95-1.38-2.72-3.12l1.92-14.58c.29-2.24-.41-4.49-1.93-6.16l-9.85-10.81c-1.45-1.59-.59-4.16,1.52-4.56l13.52-2.53c2.34-.44,4.34-1.94,5.41-4.07l6.25-12.41c.51-1.01,1.48-1.51,2.45-1.51M46,0C38.83,0,32.37,3.98,29.15,10.38l-4.36,8.66-9.38,1.76c-6.72,1.26-12.25,6.07-14.42,12.56-2.17,6.49-.66,13.66,3.95,18.72l7.2,7.9-1.41,10.68c-.71,5.39.93,10.83,4.51,14.91,3.59,4.1,8.77,6.44,14.2,6.44,2.99,0,5.97-.73,8.64-2.1l7.93-4.09,7.93,4.09c2.67,1.37,5.65,2.1,8.64,2.1,5.43,0,10.61-2.35,14.2-6.44,3.58-4.08,5.22-9.52,4.51-14.91l-1.41-10.67,7.2-7.9c4.61-5.06,6.12-12.23,3.95-18.72-2.17-6.49-7.7-11.3-14.42-12.56l-9.39-1.76-4.36-8.66C59.63,3.98,53.17,0,46,0h0Z"/>
</svg>