<?xml version="1.0" encoding="UTF-8"?>
<svg id="Layer_1" xmlns="http://www.w3.org/2000/svg" version="1.1" viewBox="0 0 46 46">
  <!-- Generator: Adobe Illustrator 30.1.0, SVG Export Plug-In . SVG Version: 2.1.1 Build 136)  -->
  <circle id="Outer" cx="23" cy="23" r="19.78" fill="none" stroke="#000" stroke-width="6.44"/>
  <g>
    <g>
      <rect x="21.54" y="29.67" width="2.89" height="2.89"/>
      <path d="M23.93,30.17v1.88h-1.88v-1.88h1.88M24.94,29.17h-3.9v3.9h3.9v-3.9h0Z"/>
    </g>
    <g>
      <path d="M21.55,26.66v-1.21c0-1.02.37-2,1.05-2.75l1.87-2.07c.43-.47.66-1.08.66-1.72,0-.84-.69-1.52-1.53-1.52h-1.2c-.84,0-1.53.68-1.53,1.52v.5h-2.91v-.5c0-2.43,1.99-4.41,4.44-4.41h1.2c2.45,0,4.44,1.98,4.44,4.41,0,1.35-.5,2.65-1.41,3.65l-1.87,2.07c-.21.23-.32.51-.32.81v1.21h-2.89Z"/>
      <path d="M23.6,15.01c2.17,0,3.93,1.75,3.93,3.91,0,1.23-.45,2.4-1.28,3.31l-1.87,2.07c-.29.32-.45.72-.45,1.15v.71h-1.89v-.71c0-.89.33-1.74.93-2.41l1.87-2.07c.51-.57.79-1.3.79-2.05,0-1.11-.91-2.02-2.03-2.02h-1.2c-1.12,0-2.03.91-2.03,2.02h-1.9c0-2.15,1.76-3.91,3.93-3.91h1.2M23.6,14.01h-1.2c-2.72,0-4.94,2.2-4.94,4.91v1.01h3.91v-1.01c0-.56.46-1.01,1.03-1.01h1.2c.57,0,1.03.45,1.03,1.01,0,.51-.19,1-.53,1.38l-1.87,2.07c-.76.85-1.19,1.94-1.19,3.08v.72s.02,1,.02,1h3.88v-1s.02-.71.02-.71c0-.18.06-.34.19-.48l1.87-2.07c.99-1.1,1.54-2.51,1.54-3.99,0-2.71-2.22-4.91-4.94-4.91h0Z"/>
    </g>
  </g>
</svg>