<?xml version="1.0" encoding="UTF-8"?>
<svg id="Layer_1" xmlns="http://www.w3.org/2000/svg" version="1.1" viewBox="0 0 46 46">
  <!-- Generator: Adobe Illustrator 30.1.0, SVG Export Plug-In . SVG Version: 2.1.1 Build 136)  -->
  <circle id="Outer" cx="23" cy="23" r="18.97" fill="none" stroke="#000" stroke-width="8.06"/>
  <g>
    <g>
      <rect x="21.53" y="29.05" width="2.91" height="2.91"/>
      <path d="M23.8,29.7v1.62h-1.62v-1.62h1.62M25.09,28.4h-4.21v4.21h4.21v-4.21h0Z"/>
    </g>
    <g>
      <path d="M21.54,26.21v-1.25c0-.93.34-1.82.96-2.51l1.6-1.78c.33-.37.52-.84.52-1.33,0-.6-.5-1.09-1.1-1.09h-1.03c-.61,0-1.1.49-1.1,1.09v.65h-2.93v-.65c0-2.21,1.81-4.01,4.03-4.01h1.03c2.22,0,4.03,1.8,4.03,4.01,0,1.21-.45,2.38-1.26,3.28l-1.61,1.78c-.15.16-.22.35-.22.56v1.26h-2.91Z"/>
      <path d="M23.52,15.97c1.87,0,3.38,1.51,3.38,3.36,0,1.05-.39,2.07-1.1,2.85l-1.61,1.78c-.25.28-.39.62-.39.99v.61h-1.63v-.61c0-.77.28-1.5.8-2.07l1.6-1.78c.44-.49.68-1.11.68-1.77,0-.96-.78-1.74-1.75-1.74h-1.03c-.96,0-1.75.78-1.75,1.74h-1.63c0-1.85,1.52-3.36,3.38-3.36h1.03M23.52,14.68h-1.03c-2.58,0-4.68,2.09-4.68,4.65v1.29h4.22v-1.29c0-.24.2-.44.46-.44h1.03c.25,0,.46.2.46.44,0,.33-.12.65-.35.9l-1.6,1.78c-.73.81-1.13,1.85-1.14,2.93v.63s.02,1.28.02,1.28h4.18v-1.28s.02-.61.02-.61c0-.04,0-.08.05-.13l1.61-1.78c.92-1.02,1.43-2.34,1.43-3.72,0-2.57-2.1-4.65-4.68-4.65h0Z"/>
    </g>
  </g>
</svg>