<?xml version="1.0" encoding="UTF-8"?>
<svg id="Layer_1" xmlns="http://www.w3.org/2000/svg" version="1.1" viewBox="0 0 23 23">
  <!-- Generator: Adobe Illustrator 30.1.0, SVG Export Plug-In . SVG Version: 2.1.1 Build 136)  -->
  <path d="M11.5,3.22c.27,0,.54.14.68.42l1.73,3.44c.3.59.85,1.01,1.5,1.13l3.75.7c.59.11.82.82.42,1.26l-2.73,3c-.42.46-.62,1.09-.54,1.71l.53,4.04c.06.48-.32.86-.75.86-.11,0-.23-.03-.35-.09l-3.28-1.69c-.3-.16-.64-.23-.97-.23s-.66.08-.97.23l-3.28,1.69c-.11.06-.23.09-.35.09-.43,0-.82-.38-.75-.86l.53-4.04c.08-.62-.11-1.24-.53-1.71l-2.73-3c-.4-.44-.16-1.15.42-1.26l3.75-.7c.65-.12,1.2-.54,1.5-1.13l1.73-3.44c.14-.28.41-.42.68-.42M11.5,0C9.99,0,8.63.84,7.94,2.19l-1.49,2.95-3.21.6c-1.42.27-2.58,1.28-3.04,2.65-.46,1.37-.14,2.88.83,3.95l2.39,2.62-.47,3.54c-.15,1.14.2,2.28.95,3.14.76.86,1.85,1.36,2.99,1.36.63,0,1.26-.15,1.82-.44l2.77-1.43,2.77,1.43c.56.29,1.19.44,1.82.44,1.15,0,2.24-.5,2.99-1.36.75-.86,1.1-2.01.95-3.14l-.47-3.54,2.39-2.62c.97-1.07,1.29-2.58.83-3.95-.46-1.37-1.62-2.38-3.04-2.65l-3.21-.6-1.49-2.95C14.37.84,13.01,0,11.5,0h0Z"/>
</svg>