<?xml version="1.0" encoding="UTF-8"?>
<svg id="Layer_1" xmlns="http://www.w3.org/2000/svg" version="1.1" viewBox="0 0 23 23">
  <!-- Generator: Adobe Illustrator 30.1.0, SVG Export Plug-In . SVG Version: 2.1.1 Build 136)  -->
  <path d="M11.5,4.03c.24,0,.49.13.61.38l1.56,3.1c.27.53.77.91,1.35,1.02l3.38.63c.53.1.74.74.38,1.14l-2.46,2.7c-.38.42-.56.98-.48,1.54l.48,3.64c.06.43-.29.78-.68.78-.1,0-.21-.02-.31-.08l-2.96-1.52c-.27-.14-.57-.21-.87-.21s-.6.07-.87.21l-2.96,1.52c-.1.05-.21.08-.31.08-.39,0-.74-.34-.68-.78l.48-3.64c.07-.56-.1-1.12-.48-1.54l-2.46-2.7c-.36-.4-.15-1.04.38-1.14l3.38-.63c.58-.11,1.08-.49,1.35-1.02l1.56-3.1c.13-.25.37-.38.61-.38M11.5,0C9.71,0,8.09.99,7.29,2.6l-1.09,2.16-2.35.44c-1.68.31-3.06,1.52-3.6,3.14-.54,1.62-.17,3.42.99,4.68l1.8,1.97-.35,2.67c-.18,1.35.23,2.71,1.13,3.73.9,1.02,2.19,1.61,3.55,1.61.75,0,1.49-.18,2.16-.52l1.98-1.02,1.98,1.02c.67.34,1.41.52,2.16.52,1.36,0,2.65-.59,3.55-1.61.89-1.02,1.31-2.38,1.13-3.73l-.35-2.67,1.8-1.97c1.15-1.26,1.53-3.06.99-4.68-.54-1.62-1.92-2.82-3.6-3.14l-2.35-.44-1.09-2.16C14.91.99,13.29,0,11.5,0h0Z"/>
</svg>