<?xml version="1.0" encoding="UTF-8"?>
<svg id="Layer_1" xmlns="http://www.w3.org/2000/svg" version="1.1" viewBox="0 0 65 65">
  <!-- Generator: Adobe Illustrator 30.1.0, SVG Export Plug-In . SVG Version: 2.1.1 Build 136)  -->
  <path d="M32.5,11.4c.69,0,1.37.36,1.73,1.07l4.42,8.76c.76,1.5,2.17,2.57,3.82,2.88l9.55,1.79c1.49.28,2.1,2.1,1.07,3.22l-6.96,7.64c-1.07,1.18-1.57,2.77-1.36,4.35l1.36,10.3c.16,1.23-.82,2.2-1.92,2.2-.29,0-.59-.07-.89-.22l-8.35-4.3c-.77-.4-1.62-.6-2.47-.6s-1.69.2-2.47.6l-8.35,4.3c-.29.15-.59.22-.89.22-1.1,0-2.08-.97-1.92-2.2l1.36-10.3c.21-1.58-.29-3.17-1.36-4.35l-6.96-7.64c-1.03-1.13-.42-2.94,1.08-3.22l9.55-1.79c1.65-.31,3.06-1.37,3.82-2.88l4.42-8.77c.36-.71,1.04-1.07,1.73-1.07M32.5,0C27.43,0,22.87,2.81,20.59,7.34l-3.08,6.12-6.63,1.24c-4.75.89-8.65,4.29-10.19,8.87-1.54,4.58-.47,9.65,2.79,13.22l5.08,5.58-.99,7.54c-.5,3.81.66,7.65,3.19,10.53,2.54,2.89,6.19,4.55,10.03,4.55,2.11,0,4.22-.51,6.1-1.48l5.61-2.89,5.61,2.89c1.88.97,3.99,1.48,6.1,1.48,3.84,0,7.49-1.66,10.03-4.55,2.53-2.88,3.69-6.72,3.19-10.53l-.99-7.54,5.09-5.58c3.26-3.57,4.32-8.64,2.79-13.22-1.53-4.58-5.44-7.98-10.19-8.87l-6.63-1.24-3.08-6.12C42.13,2.81,37.56,0,32.5,0h0Z"/>
</svg>