<?xml version="1.0" encoding="UTF-8"?>
<svg id="Layer_1" xmlns="http://www.w3.org/2000/svg" version="1.1" viewBox="0 0 121 121">
  <!-- Generator: Adobe Illustrator 30.1.0, SVG Export Plug-In . SVG Version: 2.1.1 Build 136)  -->
  <circle id="Outer" cx="60.5" cy="60.5" r="52.03" fill="none" stroke="#000" stroke-width="16.94"/>
  <g>
    <g>
      <rect x="56.67" y="78.05" width="7.6" height="7.6"/>
      <path d="M62.94,79.37v4.96h-4.96v-4.96h4.96M65.59,76.73h-10.25v10.25h10.25v-10.25h0Z"/>
    </g>
    <g>
      <path d="M56.68,70.13l-.03-3.18c0-2.69,1-5.25,2.8-7.23l4.91-5.44c1.12-1.25,1.74-2.85,1.74-4.52,0-2.2-1.81-3.99-4.03-3.99h-3.15c-2.22,0-4.02,1.79-4.02,3.99v1.32h-7.65v-1.32c0-6.4,5.24-11.6,11.67-11.6h3.15c6.44,0,11.67,5.2,11.67,11.6,0,3.55-1.31,6.96-3.7,9.61l-4.91,5.44c-.55.61-.84,1.35-.84,2.14l-.03,3.19h-7.58Z"/>
      <path d="M62.08,39.49c5.71,0,10.35,4.61,10.35,10.27,0,3.22-1.19,6.32-3.36,8.72l-4.91,5.44c-.76.84-1.18,1.89-1.19,3.02l-.02,1.87h-4.96l-.02-1.87c0-2.35.87-4.59,2.45-6.33l4.91-5.44c1.34-1.49,2.08-3.41,2.08-5.41,0-2.93-2.4-5.31-5.35-5.31h-3.15c-2.95,0-5.35,2.38-5.35,5.31h-5c0-5.66,4.64-10.27,10.35-10.27h3.15M62.08,36.84h-3.15c-7.16,0-12.99,5.8-12.99,12.92v2.65h10.29v-2.65c0-1.47,1.21-2.66,2.7-2.66h3.15c1.49,0,2.7,1.19,2.7,2.66,0,1.34-.5,2.63-1.4,3.63l-4.91,5.44c-2.01,2.22-3.13,5.1-3.14,8.1l.02,1.91.02,2.62h10.2l.03-2.62.02-1.87c0-.48.17-.9.5-1.27l4.91-5.44c2.61-2.89,4.04-6.61,4.04-10.49,0-7.12-5.83-12.92-12.99-12.92h0Z"/>
    </g>
  </g>
</svg>