<?xml version="1.0" encoding="UTF-8"?>
<svg id="Layer_1" xmlns="http://www.w3.org/2000/svg" version="1.1" viewBox="0 0 121 121">
  <!-- Generator: Adobe Illustrator 30.1.0, SVG Export Plug-In . SVG Version: 2.1.1 Build 136)  -->
  <circle id="Outer" cx="60.5" cy="60.5" r="49.89" fill="none" stroke="#000" stroke-width="21.21"/>
  <g>
    <g>
      <rect x="56.64" y="76.41" width="7.67" height="7.67"/>
      <path d="M62.6,78.11v4.26h-4.26v-4.26h4.26M66,74.71h-11.07v11.07h11.07v-11.07h0Z"/>
    </g>
    <g>
      <path d="M56.66,68.94l-.03-3.3c0-2.46.92-4.8,2.55-6.6l4.22-4.68c.87-.97,1.35-2.21,1.35-3.51,0-1.58-1.3-2.87-2.9-2.87h-2.71c-1.6,0-2.9,1.29-2.9,2.87v1.7h-7.7v-1.7c0-5.81,4.76-10.54,10.6-10.54h2.71c5.85,0,10.6,4.73,10.6,10.54,0,3.19-1.18,6.26-3.33,8.64l-4.22,4.68c-.38.42-.58.92-.58,1.46l-.03,3.31h-7.63Z"/>
      <path d="M61.86,42.01c4.91,0,8.9,3.97,8.9,8.84,0,2.77-1.03,5.44-2.89,7.5l-4.22,4.68c-.65.72-1.02,1.62-1.02,2.6l-.02,1.61h-4.26v-1.61c0-2.02.74-3.95,2.1-5.45l4.22-4.68c1.16-1.28,1.79-2.93,1.79-4.65,0-2.52-2.06-4.57-4.6-4.57h-2.71c-2.54,0-4.6,2.05-4.6,4.57h-4.3c0-4.87,3.99-8.84,8.9-8.84h2.71M61.86,38.61h-2.71c-6.78,0-12.3,5.49-12.3,12.24v3.4h11.11v-3.4c0-.64.54-1.17,1.2-1.17h2.71c.66,0,1.2.52,1.2,1.17,0,.87-.32,1.72-.91,2.37l-4.22,4.68c-1.92,2.12-2.98,4.86-2.99,7.72v1.65s.04,3.37.04,3.37h11l.03-3.37.02-1.61c0-.11.02-.21.14-.35l4.22-4.68c2.43-2.69,3.77-6.16,3.77-9.78,0-6.75-5.52-12.24-12.3-12.24h0Z"/>
    </g>
  </g>
</svg>