<?xml version="1.0" encoding="UTF-8"?>
<svg id="Layer_1" xmlns="http://www.w3.org/2000/svg" version="1.1" viewBox="0 0 122 122">
  <!-- Generator: Adobe Illustrator 30.1.0, SVG Export Plug-In . SVG Version: 2.1.1 Build 136)  -->
  <g>
    <g>
      <rect x="56.54" y="35.54" width="8.93" height="8.93"/>
      <path d="M63.75,37.26v5.5h-5.5v-5.5h5.5M67.18,33.83h-12.36v12.36h12.36v-12.36h0Z"/>
    </g>
    <g>
      <polygon points="51.04 85.42 51.04 76.5 56.54 76.5 56.54 62.77 51.04 62.77 51.04 53.84 65.46 53.84 65.46 76.5 70.96 76.5 70.96 85.42 51.04 85.42"/>
      <path d="M63.75,55.55v22.66h5.5v5.5h-16.49v-5.5h5.5v-17.16h-5.5v-5.5h10.99M67.18,52.12h-17.86v12.36h5.5v10.3h-5.5v12.36h23.35v-12.36h-5.5v-22.66h0Z"/>
    </g>
  </g>
  <circle id="Outer" cx="61" cy="61" r="50.31" fill="none" stroke="#000" stroke-width="21.39"/>
</svg>