<?xml version="1.0" encoding="UTF-8"?>
<svg id="Layer_1" xmlns="http://www.w3.org/2000/svg" version="1.1" viewBox="0 0 122 122">
  <!-- Generator: Adobe Illustrator 30.1.0, SVG Export Plug-In . SVG Version: 2.1.1 Build 136)  -->
  <g>
    <g>
      <rect x="56.67" y="32.45" width="8.65" height="8.65"/>
      <path d="M64.37,33.4v6.75h-6.75v-6.75h6.75M66.28,31.49h-10.56v10.56h10.56v-10.56h0Z"/>
    </g>
    <g>
      <polygon points="49.93 89.19 49.93 80.54 56.67 80.54 56.67 61.39 49.93 61.39 49.93 52.73 65.33 52.73 65.33 80.54 72.07 80.54 72.07 89.19 49.93 89.19"/>
      <path d="M64.37,53.69v27.8h6.74v6.74h-20.23v-6.74h6.74v-21.06h-6.74v-6.74h13.49M66.28,51.78h-17.3v10.56h6.74v17.24h-6.74v10.56h24.05v-10.56h-6.74v-27.8h0Z"/>
    </g>
  </g>
  <circle id="Outer" cx="61" cy="61" r="54.61" fill="none" stroke="#000" stroke-width="12.77"/>
</svg>