<?xml version="1.0" encoding="UTF-8"?>
<svg id="Layer_1" xmlns="http://www.w3.org/2000/svg" version="1.1" viewBox="0 0 37 37">
  <!-- Generator: Adobe Illustrator 30.1.0, SVG Export Plug-In . SVG Version: 2.1.1 Build 136)  -->
  <path d="M18.5,5.18c.43,0,.87.22,1.09.67l2.79,5.53c.48.95,1.37,1.62,2.41,1.82l6.03,1.13c.94.18,1.32,1.32.68,2.03l-4.39,4.82c-.68.74-.99,1.75-.86,2.75l.86,6.5c.1.78-.52,1.39-1.21,1.39-.18,0-.38-.04-.56-.14l-5.27-2.72c-.49-.25-1.02-.38-1.56-.38s-1.07.13-1.56.38l-5.27,2.72c-.18.09-.37.14-.56.14-.7,0-1.31-.61-1.21-1.39l.86-6.5c.13-1-.18-2-.86-2.74l-4.39-4.82c-.65-.71-.26-1.86.68-2.03l6.03-1.13c1.04-.2,1.93-.87,2.41-1.82l2.79-5.53c.23-.45.66-.67,1.09-.67M18.5,0C16.07,0,13.88,1.35,12.78,3.52l-2.39,4.75-5.16.97c-2.28.43-4.16,2.06-4.89,4.26-.74,2.2-.22,4.64,1.34,6.35l3.84,4.21-.75,5.69c-.24,1.83.32,3.67,1.53,5.06,1.22,1.39,2.98,2.19,4.82,2.19,1.01,0,2.03-.25,2.93-.71l4.46-2.3,4.46,2.3c.91.47,1.92.71,2.93.71,1.84,0,3.6-.8,4.82-2.19,1.21-1.38,1.77-3.23,1.53-5.06l-.75-5.69,3.84-4.21c1.56-1.72,2.08-4.15,1.34-6.35-.74-2.2-2.61-3.83-4.89-4.26l-5.16-.97-2.39-4.75C23.12,1.35,20.93,0,18.5,0h0Z"/>
</svg>