<?xml version="1.0" encoding="UTF-8"?>
<svg id="Layer_1" xmlns="http://www.w3.org/2000/svg" version="1.1" viewBox="0 0 37 37">
  <!-- Generator: Adobe Illustrator 30.1.0, SVG Export Plug-In . SVG Version: 2.1.1 Build 136)  -->
  <path d="M18.5,3.87c.48,0,.95.25,1.2.74l3.06,6.07c.53,1.04,1.5,1.78,2.65,1.99l6.62,1.24c1.04.19,1.45,1.45.74,2.23l-4.82,5.29c-.74.82-1.09,1.92-.95,3.02l.94,7.14c.11.85-.57,1.53-1.33,1.53-.2,0-.41-.05-.61-.15l-5.79-2.98c-.54-.28-1.12-.41-1.71-.41-.59,0-1.17.14-1.71.41l-5.79,2.98c-.2.1-.41.15-.61.15-.77,0-1.44-.67-1.33-1.53l.94-7.14c.14-1.1-.2-2.2-.94-3.01l-4.82-5.29c-.71-.78-.29-2.04.75-2.23l6.62-1.24c1.14-.21,2.12-.95,2.65-1.99l3.06-6.08c.25-.49.72-.74,1.2-.74M18.5,0C16.52,0,14.73,1.1,13.84,2.87l-3.03,6.02-6.55,1.23c-1.86.35-3.39,1.68-3.99,3.47-.6,1.79-.18,3.78,1.09,5.18l4.78,5.25-.93,7.08c-.2,1.49.26,2.99,1.25,4.12.99,1.13,2.43,1.78,3.93,1.78.82,0,1.65-.2,2.39-.58l5.73-2.95,5.73,2.95c.74.38,1.56.58,2.39.58,1.5,0,2.93-.65,3.93-1.78.99-1.13,1.44-2.63,1.25-4.12l-.93-7.08,4.78-5.25c1.27-1.4,1.69-3.38,1.09-5.18-.6-1.79-2.13-3.12-3.99-3.47l-6.55-1.23-3.03-6.02C22.27,1.1,20.48,0,18.5,0h0Z"/>
</svg>