<?xml version="1.0" encoding="UTF-8"?>
<svg id="Layer_1" xmlns="http://www.w3.org/2000/svg" version="1.1" viewBox="0 0 63 63">
  <!-- Generator: Adobe Illustrator 30.1.0, SVG Export Plug-In . SVG Version: 2.1.1 Build 136)  -->
  <circle id="Outer" cx="31.5" cy="31.5" r="28.2" fill="none" stroke="#000" stroke-width="6.6"/>
  <g>
    <g>
      <rect x="29.51" y="41.48" width="3.94" height="3.94"/>
      <path d="M32.96,41.97v2.96h-2.96v-2.96h2.96M33.95,40.99h-4.93v4.93h4.93v-4.93h0Z"/>
    </g>
    <g>
      <path d="M29.52,37.19v-1.61c0-1.53.56-2.99,1.58-4.12l2.93-3.25c.72-.8,1.12-1.83,1.12-2.9,0-1.48-1.21-2.68-2.7-2.68h-1.88c-1.49,0-2.7,1.2-2.7,2.68v.49h-3.97v-.49c0-3.65,2.99-6.63,6.67-6.63h1.88c3.68,0,6.67,2.97,6.67,6.63,0,2.05-.76,4.01-2.13,5.54l-2.93,3.25c-.38.42-.58.93-.58,1.47l-.02,1.61h-3.93Z"/>
      <path d="M32.44,19.19c3.41,0,6.18,2.75,6.18,6.13,0,1.92-.71,3.77-2.01,5.21l-2.93,3.25c-.45.5-.71,1.13-.71,1.8v1.12h-2.97v-1.12c0-1.4.51-2.74,1.46-3.78l2.93-3.25c.8-.89,1.24-2.03,1.24-3.23,0-1.75-1.43-3.17-3.19-3.17h-1.88c-1.76,0-3.19,1.42-3.19,3.17h-2.98c0-3.38,2.77-6.13,6.18-6.13h1.88M32.44,18.21h-1.88c-3.95,0-7.16,3.19-7.16,7.12v.98h4.95v-.98c0-1.21.99-2.19,2.21-2.19h1.88c1.22,0,2.21.98,2.21,2.19,0,.95-.35,1.86-.99,2.57l-2.93,3.25c-1.1,1.22-1.71,2.8-1.72,4.44v1.13s.02.98.02.98h4.91v-.97s.02-1.12.02-1.12c0-.43.16-.83.45-1.15l2.93-3.25c1.46-1.61,2.26-3.7,2.26-5.87,0-3.93-3.21-7.12-7.16-7.12h0Z"/>
    </g>
  </g>
</svg>