<?xml version="1.0" encoding="UTF-8"?>
<svg id="Layer_1" xmlns="http://www.w3.org/2000/svg" version="1.1" viewBox="0 0 63 63">
  <!-- Generator: Adobe Illustrator 30.1.0, SVG Export Plug-In . SVG Version: 2.1.1 Build 136)  -->
  <circle id="Outer" cx="31.5" cy="31.5" r="25.98" fill="none" stroke="#000" stroke-width="11.04"/>
  <g>
    <g>
      <rect x="29.49" y="39.79" width="3.99" height="3.99"/>
      <path d="M32.59,40.67v2.22h-2.22v-2.22h2.22M34.37,38.9h-5.76v5.76h5.76v-5.76h0Z"/>
    </g>
    <g>
      <path d="M29.5,35.89v-1.72c-.01-1.28.46-2.5,1.31-3.44l2.2-2.43c.45-.5.71-1.15.71-1.83,0-.82-.68-1.49-1.51-1.49h-1.41c-.83,0-1.51.67-1.51,1.49v.89h-4.01v-.89c0-3.03,2.48-5.49,5.52-5.49h1.41c3.04,0,5.52,2.46,5.52,5.49,0,1.66-.62,3.26-1.73,4.5l-2.2,2.44c-.2.22-.3.48-.3.76l-.02,1.72h-3.97Z"/>
      <path d="M32.21,21.88c2.56,0,4.63,2.06,4.63,4.6,0,1.44-.53,2.83-1.5,3.9l-2.2,2.44c-.34.38-.53.84-.53,1.35v.84h-2.23v-.84c0-1.05.38-2.05,1.09-2.84l2.2-2.43c.6-.67.93-1.53.93-2.42,0-1.31-1.07-2.38-2.4-2.38h-1.41c-1.32,0-2.4,1.07-2.4,2.38h-2.24c0-2.54,2.08-4.6,4.63-4.6h1.41M32.21,20.1h-1.41c-3.53,0-6.41,2.86-6.41,6.37v1.77h5.78v-1.77c0-.33.28-.61.62-.61h1.41c.34,0,.62.27.62.61,0,.46-.17.89-.48,1.23l-2.2,2.44c-1,1.1-1.55,2.53-1.56,4.02v.86s.02,1.76.02,1.76h5.73l.02-1.75v-.84c0-.06.02-.11.08-.18l2.2-2.44c1.26-1.4,1.96-3.21,1.96-5.09,0-3.51-2.87-6.37-6.41-6.37h0Z"/>
    </g>
  </g>
</svg>