<?xml version="1.0" encoding="UTF-8"?>
<svg id="Layer_1" xmlns="http://www.w3.org/2000/svg" version="1.1" viewBox="0 0 16 16">
  <!-- Generator: Adobe Illustrator 30.1.0, SVG Export Plug-In . SVG Version: 2.1.1 Build 136)  -->
  <path d="M8,2.24c.19,0,.37.1.47.29l1.21,2.39c.21.41.59.7,1.04.79l2.61.49c.41.08.57.57.29.88l-1.9,2.08c-.29.32-.43.76-.37,1.19l.37,2.81c.04.34-.22.6-.52.6-.08,0-.16-.02-.24-.06l-2.28-1.17c-.21-.11-.44-.16-.67-.16s-.46.05-.67.16l-2.28,1.17c-.08.04-.16.06-.24.06-.3,0-.57-.27-.52-.6l.37-2.81c.06-.43-.08-.87-.37-1.19l-1.9-2.08c-.28-.31-.11-.8.29-.88l2.61-.49c.45-.08.84-.37,1.04-.78l1.21-2.39c.1-.19.29-.29.47-.29M8,0c-1.05,0-2,.58-2.47,1.52l-1.03,2.05-2.23.42c-.99.18-1.8.89-2.12,1.84-.32.95-.1,2,.58,2.75l1.66,1.82-.32,2.46c-.1.79.14,1.59.66,2.19.53.6,1.29.95,2.08.95.44,0,.88-.11,1.27-.31l1.93-.99,1.93.99c.39.2.83.31,1.27.31.8,0,1.56-.34,2.08-.95.52-.6.77-1.4.66-2.19l-.32-2.46,1.66-1.82c.68-.74.9-1.79.58-2.75-.32-.95-1.13-1.66-2.12-1.84l-2.23-.42-1.03-2.05c-.47-.94-1.42-1.52-2.47-1.52h0Z"/>
</svg>