<?xml version="1.0" encoding="UTF-8"?>
<svg id="Layer_1" xmlns="http://www.w3.org/2000/svg" version="1.1" viewBox="0 0 16 16">
  <!-- Generator: Adobe Illustrator 30.1.0, SVG Export Plug-In . SVG Version: 2.1.1 Build 136)  -->
  <path d="M8,1.67c.21,0,.41.11.52.32l1.32,2.63c.23.45.65.77,1.15.86l2.86.54c.45.08.63.63.32.96l-2.09,2.29c-.32.35-.47.83-.41,1.3l.41,3.09c.05.37-.24.66-.58.66-.09,0-.18-.02-.27-.07l-2.5-1.29c-.23-.12-.49-.18-.74-.18s-.51.06-.74.18l-2.5,1.29c-.09.04-.18.07-.27.07-.33,0-.62-.29-.58-.66l.41-3.09c.06-.47-.09-.95-.41-1.3l-2.09-2.29c-.31-.34-.13-.88.32-.97l2.86-.54c.49-.09.92-.41,1.15-.86l1.32-2.63c.11-.21.31-.32.52-.32M8,0C7.14,0,6.37.48,5.99,1.24l-1.31,2.6-2.83.53c-.8.15-1.46.73-1.72,1.5-.26.78-.08,1.63.47,2.24l2.09,2.29-.42,3.04c-.09.65.11,1.29.54,1.78.43.49,1.05.77,1.7.77.36,0,.71-.09,1.03-.25l2.48-1.28,2.48,1.28c.32.16.68.25,1.03.25.65,0,1.27-.28,1.7-.77.43-.49.62-1.14.54-1.78l-.41-3.09,2.07-2.25c.55-.6.73-1.46.47-2.24-.26-.78-.92-1.35-1.72-1.5l-2.83-.53-1.31-2.6C9.63.48,8.86,0,8,0h0Z"/>
</svg>