<?xml version="1.0" encoding="UTF-8"?>
<svg id="Layer_1" xmlns="http://www.w3.org/2000/svg" version="1.1" viewBox="0 0 68 68">
  <!-- Generator: Adobe Illustrator 30.1.0, SVG Export Plug-In . SVG Version: 2.1.1 Build 136)  -->
  <g>
    <g>
      <rect x="31.59" y="18.08" width="4.82" height="4.82"/>
      <path d="M35.88,18.62v3.76h-3.76v-3.76h3.76M36.94,17.55h-5.88v5.88h5.88v-5.88h0Z"/>
    </g>
    <g>
      <polygon points="27.83 49.71 27.83 44.89 31.59 44.89 31.59 34.22 27.83 34.22 27.83 29.39 36.41 29.39 36.41 44.89 40.17 44.89 40.17 49.71 27.83 49.71"/>
      <path d="M35.88,29.92v15.5h3.76v3.76h-11.28v-3.76h3.76v-11.74h-3.76v-3.76h7.52M36.94,28.86h-9.64v5.88h3.76v9.61h-3.76v5.88h13.4v-5.88h-3.76v-15.5h0Z"/>
    </g>
  </g>
  <circle id="Outer" cx="34" cy="34" r="30.44" fill="none" stroke="#000" stroke-width="7.12"/>
</svg>