<?xml version="1.0" encoding="UTF-8"?>
<svg id="Layer_1" xmlns="http://www.w3.org/2000/svg" version="1.1" viewBox="0 0 20 20">
  <!-- Generator: Adobe Illustrator 30.1.0, SVG Export Plug-In . SVG Version: 2.1.1 Build 136)  -->
  <g>
    <g>
      <rect x="9.27" y="5.83" width="1.46" height="1.46"/>
      <path d="M10.45,6.11v.9h-.9v-.9h.9M11.01,5.55h-2.03v2.03h2.03v-2.03h0Z"/>
    </g>
    <g>
      <polygon points="8.37 14 8.37 12.54 9.27 12.54 9.27 10.29 8.37 10.29 8.37 8.83 10.73 8.83 10.73 12.54 11.63 12.54 11.63 14 8.37 14"/>
      <path d="M10.45,9.11v3.71h.9v.9h-2.7v-.9h.9v-2.81h-.9v-.9h1.8M11.01,8.54h-2.93v2.03h.9v1.69h-.9v2.03h3.83v-2.03h-.9v-3.71h0Z"/>
    </g>
  </g>
  <circle id="Outer" cx="10" cy="10" r="8.25" fill="none" stroke="#000" stroke-width="3.51"/>
</svg>