<?xml version="1.0" encoding="UTF-8"?>
<svg id="Layer_1" xmlns="http://www.w3.org/2000/svg" version="1.1" viewBox="0 0 42 42">
  <!-- Generator: Adobe Illustrator 30.1.0, SVG Export Plug-In . SVG Version: 2.1.1 Build 136)  -->
  <circle id="Outer" cx="21" cy="21" r="18.06" fill="none" stroke="#000" stroke-width="5.88"/>
  <g>
    <g>
      <rect x="19.67" y="27.09" width="2.64" height="2.64"/>
      <path d="M21.85,27.55v1.72h-1.72v-1.72h1.72M22.77,26.63h-3.56v3.56h3.56v-3.56h0Z"/>
    </g>
    <g>
      <path d="M19.68,24.34v-1.11c0-.93.34-1.82.96-2.51l1.7-1.89c.39-.43.6-.99.6-1.57,0-.76-.63-1.38-1.4-1.38h-1.09c-.77,0-1.4.62-1.4,1.38v.46h-2.65v-.46c0-2.22,1.82-4.03,4.05-4.03h1.09c2.23,0,4.05,1.81,4.05,4.03,0,1.23-.46,2.42-1.28,3.33l-1.7,1.89c-.19.21-.29.47-.29.74v1.11h-2.64Z"/>
      <path d="M21.55,13.71c1.98,0,3.59,1.6,3.59,3.57,0,1.12-.41,2.19-1.17,3.03l-1.7,1.89c-.26.29-.41.65-.41,1.05v.65h-1.73v-.65c0-.82.3-1.59.85-2.2l1.7-1.89c.47-.52.72-1.18.72-1.88,0-1.02-.83-1.84-1.86-1.84h-1.09c-1.02,0-1.86.83-1.86,1.84h-1.74c0-1.97,1.61-3.57,3.59-3.57h1.09M21.55,12.79h-1.09c-2.49,0-4.51,2.01-4.51,4.49v.92h3.57v-.92c0-.51.42-.92.94-.92h1.09c.52,0,.94.41.94.92,0,.47-.17.91-.49,1.26l-1.7,1.89c-.7.77-1.08,1.77-1.09,2.81v.66s.01.91.01.91h3.54v-.91s.02-.65.02-.65c0-.17.06-.31.17-.44l1.7-1.89c.9-1,1.4-2.3,1.4-3.64,0-2.47-2.02-4.49-4.51-4.49h0Z"/>
    </g>
  </g>
</svg>