<?xml version="1.0" encoding="UTF-8"?>
<svg id="Layer_1" xmlns="http://www.w3.org/2000/svg" version="1.1" viewBox="0 0 42 42">
  <!-- Generator: Adobe Illustrator 30.1.0, SVG Export Plug-In . SVG Version: 2.1.1 Build 136)  -->
  <circle id="Outer" cx="21" cy="21" r="18.8" fill="none" stroke="#000" stroke-width="4.4"/>
  <g>
    <g>
      <rect x="19.67" y="27.65" width="2.63" height="2.63"/>
      <path d="M21.97,27.98v1.97h-1.97v-1.97h1.97M22.63,27.33h-3.28v3.28h3.28v-3.28h0Z"/>
    </g>
    <g>
      <path d="M19.68,24.79v-1.07c0-1.02.37-1.99,1.05-2.74l1.95-2.16c.48-.53.74-1.22.74-1.93,0-.98-.81-1.79-1.8-1.79h-1.25c-.99,0-1.8.8-1.8,1.79v.33h-2.65v-.33c0-2.44,1.99-4.42,4.45-4.42h1.25c2.45,0,4.45,1.98,4.45,4.42,0,1.36-.5,2.67-1.42,3.69l-1.95,2.17c-.25.28-.39.62-.39.98v1.07h-2.63Z"/>
      <path d="M21.63,12.79c2.27,0,4.12,1.84,4.12,4.09,0,1.28-.48,2.52-1.34,3.47l-1.95,2.17c-.3.33-.47.75-.47,1.2v.75h-1.98v-.75c0-.93.34-1.83.97-2.52l1.95-2.16c.53-.59.83-1.36.83-2.15,0-1.17-.96-2.11-2.13-2.11h-1.25c-1.17,0-2.13.95-2.13,2.11h-1.99c0-2.25,1.85-4.09,4.12-4.09h1.25M21.63,12.14h-1.25c-2.63,0-4.78,2.13-4.78,4.75v.66h3.3v-.66c0-.8.66-1.46,1.47-1.46h1.25c.81,0,1.47.65,1.47,1.46,0,.63-.23,1.24-.66,1.71l-1.95,2.16c-.73.81-1.14,1.86-1.15,2.96v.75s.01.65.01.65h3.27v-.65s.01-.75.01-.75c0-.29.11-.55.3-.77l1.95-2.17c.97-1.08,1.51-2.46,1.51-3.91,0-2.62-2.14-4.75-4.78-4.75h0Z"/>
    </g>
  </g>
</svg>