<?xml version="1.0" encoding="UTF-8"?>
<svg id="Layer_1" xmlns="http://www.w3.org/2000/svg" version="1.1" viewBox="0 0 25 25">
  <!-- Generator: Adobe Illustrator 30.1.0, SVG Export Plug-In . SVG Version: 2.1.1 Build 136)  -->
  <path d="M12.5,2.62c.32,0,.64.17.81.5l2.07,4.1c.35.7,1.02,1.2,1.79,1.35l4.47.84c.7.13.98.98.5,1.51l-3.26,3.58c-.5.55-.74,1.3-.64,2.04l.64,4.82c.08.58-.38,1.03-.9,1.03-.14,0-.28-.03-.41-.1l-3.91-2.01c-.36-.19-.76-.28-1.16-.28-.4,0-.79.09-1.16.28l-3.91,2.01c-.14.07-.28.1-.41.1-.52,0-.98-.46-.9-1.03l.64-4.82c.1-.74-.14-1.49-.64-2.04l-3.26-3.58c-.48-.53-.2-1.38.5-1.51l4.47-.84c.77-.14,1.43-.64,1.79-1.35l2.07-4.1c.17-.33.49-.5.81-.5M12.5,0C11.16,0,9.95.74,9.35,1.94l-2.05,4.07-4.43.83c-1.26.24-2.29,1.13-2.69,2.35-.41,1.21-.12,2.55.74,3.5l3.23,3.55-.63,4.78c-.13,1.01.17,2.02.84,2.78.67.77,1.64,1.21,2.65,1.21.56,0,1.11-.14,1.61-.39l3.87-1.99,3.87,1.99c.5.26,1.06.39,1.61.39,1.01,0,1.98-.44,2.65-1.21.67-.76.97-1.78.84-2.78l-.63-4.78,3.23-3.55c.86-.94,1.14-2.28.74-3.5-.41-1.21-1.44-2.11-2.69-2.35l-4.43-.83-2.05-4.07C15.04.74,13.84,0,12.5,0h0Z"/>
</svg>