<?xml version="1.0" encoding="UTF-8"?>
<svg id="Layer_1" xmlns="http://www.w3.org/2000/svg" version="1.1" viewBox="0 0 25 25">
  <!-- Generator: Adobe Illustrator 30.1.0, SVG Export Plug-In . SVG Version: 2.1.1 Build 136)  -->
  <path d="M12.5,4.38c.26,0,.53.14.67.41l1.7,3.37c.29.58.84.99,1.47,1.11l3.67.69c.57.11.81.81.41,1.24l-2.68,2.94c-.41.45-.61,1.07-.52,1.67l.52,3.96c.06.47-.31.85-.74.85-.11,0-.23-.03-.34-.08l-3.21-1.65c-.3-.15-.62-.23-.95-.23s-.65.08-.95.23l-3.21,1.65c-.11.06-.23.08-.34.08-.42,0-.8-.37-.74-.85l.52-3.96c.08-.61-.11-1.22-.52-1.67l-2.68-2.94c-.39-.43-.16-1.13.41-1.24l3.67-.69c.64-.12,1.18-.53,1.47-1.11l1.7-3.37c.14-.27.4-.41.67-.41M12.5,0C10.55,0,8.8,1.08,7.92,2.82l-1.19,2.35-2.55.48c-1.83.34-3.33,1.65-3.92,3.41-.59,1.76-.18,3.71,1.07,5.09l1.96,2.15-.38,2.9c-.19,1.47.25,2.94,1.23,4.05.98,1.11,2.38,1.75,3.86,1.75.81,0,1.62-.2,2.35-.57l2.16-1.11,2.16,1.11c.72.37,1.54.57,2.35.57,1.48,0,2.88-.64,3.86-1.75.97-1.11,1.42-2.59,1.23-4.05l-.38-2.9,1.96-2.15c1.25-1.37,1.66-3.32,1.07-5.09-.59-1.76-2.09-3.07-3.92-3.41l-2.55-.48-1.19-2.35C16.2,1.08,14.45,0,12.5,0h0Z"/>
</svg>