<?xml version="1.0" encoding="UTF-8"?>
<svg id="Layer_1" xmlns="http://www.w3.org/2000/svg" version="1.1" viewBox="0 0 124 124">
  <!-- Generator: Adobe Illustrator 30.1.0, SVG Export Plug-In . SVG Version: 2.1.1 Build 136)  -->
  <circle id="Outer" cx="62" cy="62" r="53.32" fill="none" stroke="#000" stroke-width="17.36"/>
  <g>
    <g>
      <rect x="58.07" y="79.98" width="7.79" height="7.79"/>
      <path d="M64.51,81.34v5.08h-5.08v-5.08h5.08M67.22,78.63h-10.5v10.5h10.5v-10.5h0Z"/>
    </g>
    <g>
      <path d="M58.09,71.88l-.03-3.27c.01-2.75,1.03-5.38,2.87-7.41l5.03-5.57c1.15-1.27,1.79-2.92,1.79-4.63,0-2.25-1.85-4.09-4.12-4.09h-3.23c-2.27,0-4.12,1.83-4.12,4.09v1.36h-7.84v-1.36c0-6.55,5.37-11.89,11.96-11.89h3.23c6.59,0,11.96,5.33,11.96,11.89,0,3.64-1.35,7.14-3.79,9.84l-5.03,5.57c-.56.62-.86,1.38-.86,2.19l-.03,3.27h-7.77Z"/>
      <path d="M63.62,40.47c5.85,0,10.6,4.72,10.6,10.53,0,3.3-1.22,6.48-3.44,8.93l-5.03,5.57c-.78.86-1.21,1.93-1.21,3.09l-.02,1.92h-5.08l-.02-1.92c0-2.41.9-4.7,2.52-6.49l5.03-5.57c1.38-1.53,2.14-3.49,2.14-5.54,0-3-2.46-5.44-5.48-5.44h-3.23c-3.02,0-5.48,2.44-5.48,5.44h-5.12c0-5.8,4.76-10.53,10.6-10.53h3.23M63.62,37.75h-3.23c-7.34,0-13.32,5.94-13.32,13.24v2.71h10.55v-2.71c0-1.51,1.24-2.73,2.77-2.73h3.23c1.53,0,2.77,1.22,2.77,2.73,0,1.37-.51,2.7-1.44,3.72l-5.03,5.57c-2.06,2.28-3.2,5.23-3.21,8.3l.02,1.95.02,2.69h10.45l.03-2.69.02-1.92c0-.49.17-.93.51-1.3l5.03-5.58c2.67-2.96,4.14-6.78,4.14-10.75,0-7.3-5.97-13.24-13.32-13.24h0Z"/>
    </g>
  </g>
</svg>