<?xml version="1.0" encoding="UTF-8"?>
<svg id="Layer_1" xmlns="http://www.w3.org/2000/svg" version="1.1" viewBox="0 0 124 124">
  <!-- Generator: Adobe Illustrator 30.1.0, SVG Export Plug-In . SVG Version: 2.1.1 Build 136)  -->
  <circle id="Outer" cx="62" cy="62" r="51.13" fill="none" stroke="#000" stroke-width="21.74"/>
  <g>
    <g>
      <rect x="58.04" y="78.31" width="7.86" height="7.86"/>
      <path d="M64.15,80.05v4.37h-4.37v-4.37h4.37M67.64,76.56h-11.34v11.34h11.34v-11.34h0Z"/>
    </g>
    <g>
      <path d="M58.06,70.65l-.03-3.38c0-2.52.94-4.91,2.61-6.77l4.32-4.79c.9-.99,1.39-2.27,1.39-3.6,0-1.62-1.33-2.94-2.97-2.94h-2.78c-1.64,0-2.97,1.32-2.97,2.94v1.74h-7.89v-1.74c0-5.96,4.87-10.8,10.86-10.8h2.78c5.99,0,10.87,4.85,10.87,10.8,0,3.27-1.21,6.42-3.41,8.85l-4.33,4.79c-.39.44-.59.94-.6,1.5l-.03,3.39h-7.82Z"/>
      <path d="M63.39,43.06c5.03,0,9.12,4.06,9.12,9.06,0,2.84-1.05,5.57-2.96,7.69l-4.33,4.79c-.67.74-1.04,1.66-1.04,2.66l-.02,1.65h-4.37v-1.65c0-2.07.76-4.04,2.15-5.58l4.33-4.79c1.18-1.31,1.84-3,1.84-4.76,0-2.58-2.12-4.68-4.71-4.68h-2.78c-2.6,0-4.71,2.1-4.71,4.68h-4.41c0-4.99,4.09-9.06,9.12-9.06h2.78M63.39,39.57h-2.78c-6.95,0-12.61,5.63-12.61,12.54v3.49h11.38v-3.49c0-.66.55-1.19,1.23-1.19h2.78c.68,0,1.23.54,1.23,1.19,0,.9-.33,1.76-.94,2.43l-4.33,4.79c-1.96,2.17-3.05,4.98-3.06,7.91v1.7s.05,3.46.05,3.46h11.28l.03-3.45.02-1.65c0-.11.02-.22.14-.36l4.33-4.8c2.49-2.76,3.86-6.32,3.86-10.02,0-6.92-5.66-12.54-12.61-12.54h0Z"/>
    </g>
  </g>
</svg>