<?xml version="1.0" encoding="UTF-8"?>
<svg id="Layer_1" xmlns="http://www.w3.org/2000/svg" version="1.1" viewBox="0 0 124 124">
  <!-- Generator: Adobe Illustrator 30.1.0, SVG Export Plug-In . SVG Version: 2.1.1 Build 136)  -->
  <circle id="Outer" cx="62" cy="62" r="55.51" fill="none" stroke="#000" stroke-width="12.98"/>
  <g>
    <g>
      <rect x="58.08" y="81.64" width="7.76" height="7.76"/>
      <path d="M64.88,82.61v5.82h-5.82v-5.82h5.82M66.81,80.68h-9.7v9.7h9.7v-9.7h0Z"/>
    </g>
    <g>
      <path d="M58.1,73.2l-.03-3.16c.01-3.01,1.12-5.88,3.14-8.1l5.77-6.39c1.42-1.57,2.2-3.6,2.2-5.7,0-2.91-2.38-5.27-5.32-5.27h-3.71c-2.93,0-5.32,2.37-5.32,5.27v.97h-7.81v-.97c0-7.19,5.89-13.04,13.13-13.04h3.71c7.24,0,13.13,5.85,13.13,13.04,0,4.03-1.49,7.9-4.2,10.9l-5.77,6.39c-.74.82-1.14,1.83-1.14,2.9l-.03,3.17h-7.74Z"/>
      <path d="M63.85,37.77c6.71,0,12.16,5.42,12.16,12.07,0,3.79-1.4,7.43-3.95,10.25l-5.77,6.39c-.89.99-1.39,2.22-1.39,3.55l-.02,2.2h-5.82l-.02-2.2c.01-2.76,1.03-5.39,2.88-7.44l5.77-6.39c1.58-1.75,2.45-4,2.45-6.35,0-3.44-2.82-6.24-6.29-6.24h-3.7c-3.47,0-6.29,2.8-6.29,6.24h-5.88c0-6.66,5.45-12.07,12.16-12.07h3.7M63.85,35.83h-3.7c-7.77,0-14.1,6.29-14.1,14.01v1.94h9.75v-1.94c0-2.37,1.95-4.3,4.35-4.3h3.7c2.4,0,4.35,1.93,4.35,4.3,0,1.87-.69,3.66-1.95,5.05l-5.77,6.39c-2.17,2.4-3.37,5.5-3.38,8.73l.02,2.23.02,1.92h9.66l.02-1.92.02-2.2c0-.85.31-1.62.89-2.27l5.77-6.39c2.87-3.18,4.45-7.28,4.45-11.54,0-7.73-6.32-14.01-14.1-14.01h0Z"/>
    </g>
  </g>
</svg>