<?xml version="1.0" encoding="UTF-8"?>
<svg id="Layer_1" xmlns="http://www.w3.org/2000/svg" version="1.1" viewBox="0 0 112 112">
  <!-- Generator: Adobe Illustrator 30.1.0, SVG Export Plug-In . SVG Version: 2.1.1 Build 136)  -->
  <circle id="Outer" cx="56" cy="56" r="46.18" fill="none" stroke="#000" stroke-width="19.64"/>
  <g>
    <g>
      <rect x="52.42" y="70.73" width="7.1" height="7.1"/>
      <path d="M57.94,72.3v3.95h-3.95v-3.95h3.95M61.09,69.15h-10.25v10.25h10.25v-10.25h0Z"/>
    </g>
    <g>
      <path d="M52.44,63.81l-.03-3.05c0-2.27.85-4.44,2.36-6.11l3.91-4.33c.81-.9,1.25-2.05,1.25-3.25,0-1.46-1.2-2.65-2.68-2.65h-2.51c-1.48,0-2.68,1.19-2.68,2.65v1.58h-7.13v-1.58c0-5.38,4.4-9.76,9.81-9.76h2.51c5.41,0,9.81,4.38,9.81,9.76,0,2.96-1.09,5.8-3.08,8l-3.91,4.33c-.36.39-.54.85-.54,1.35l-.03,3.06h-7.06Z"/>
      <path d="M57.26,38.89c4.54,0,8.24,3.67,8.24,8.18,0,2.57-.95,5.03-2.68,6.94l-3.91,4.33c-.61.67-.94,1.5-.94,2.4l-.02,1.49h-3.95v-1.49c0-1.87.68-3.65,1.94-5.04l3.91-4.33c1.07-1.18,1.66-2.71,1.66-4.3,0-2.33-1.91-4.23-4.26-4.23h-2.51c-2.35,0-4.26,1.9-4.26,4.23h-3.98c0-4.51,3.7-8.18,8.24-8.18h2.51M57.26,35.74h-2.51c-6.28,0-11.39,5.08-11.39,11.33v3.15h10.28v-3.15c0-.59.5-1.08,1.11-1.08h2.51c.61,0,1.11.48,1.11,1.08,0,.81-.3,1.59-.85,2.19l-3.91,4.33c-1.77,1.96-2.76,4.5-2.77,7.14v1.53s.04,3.12.04,3.12h10.19l.03-3.12.02-1.49c0-.1.02-.2.13-.32l3.91-4.33c2.25-2.49,3.49-5.71,3.49-9.05,0-6.25-5.11-11.33-11.39-11.33h0Z"/>
    </g>
  </g>
</svg>