<?xml version="1.0" encoding="UTF-8"?>
<svg id="Layer_1" xmlns="http://www.w3.org/2000/svg" version="1.1" viewBox="0 0 112 112">
  <!-- Generator: Adobe Illustrator 30.1.0, SVG Export Plug-In . SVG Version: 2.1.1 Build 136)  -->
  <circle id="Outer" cx="56" cy="56" r="50.14" fill="none" stroke="#000" stroke-width="11.73"/>
  <g>
    <g>
      <rect x="52.46" y="73.74" width="7.01" height="7.01"/>
      <path d="M58.6,74.62v5.26h-5.26v-5.26h5.26M60.35,72.87h-8.76v8.76h8.76v-8.76h0Z"/>
    </g>
    <g>
      <path d="M52.47,66.12l-.03-2.86c.01-2.71,1.02-5.31,2.83-7.32l5.21-5.77c1.28-1.42,1.99-3.25,1.99-5.15,0-2.63-2.15-4.76-4.8-4.76h-3.35c-2.65,0-4.8,2.14-4.8,4.76v.88h-7.06v-.88c0-6.5,5.32-11.78,11.86-11.78h3.35c6.54,0,11.86,5.29,11.86,11.78,0,3.64-1.35,7.13-3.79,9.84l-5.21,5.77c-.67.74-1.03,1.65-1.03,2.62l-.03,2.86h-6.99Z"/>
      <path d="M57.67,34.12c6.06,0,10.98,4.89,10.98,10.91,0,3.42-1.27,6.71-3.57,9.25l-5.21,5.77c-.81.89-1.25,2-1.26,3.2l-.02,1.99h-5.26l-.02-1.99c0-2.49.93-4.87,2.61-6.72l5.21-5.77c1.43-1.58,2.21-3.62,2.21-5.74,0-3.11-2.55-5.64-5.68-5.64h-3.35c-3.13,0-5.68,2.53-5.68,5.64h-5.31c0-6.01,4.93-10.91,10.98-10.91h3.35M57.67,32.37h-3.35c-7.02,0-12.73,5.68-12.73,12.66v1.75h8.81v-1.75c0-2.14,1.76-3.89,3.93-3.89h3.35c2.17,0,3.93,1.74,3.93,3.89,0,1.69-.63,3.31-1.76,4.56l-5.21,5.77c-1.96,2.17-3.05,4.97-3.06,7.89l.02,2.01.02,1.73h8.73l.02-1.73.02-1.99c0-.76.28-1.47.81-2.05l5.21-5.77c2.59-2.87,4.02-6.57,4.02-10.43,0-6.98-5.71-12.66-12.73-12.66h0Z"/>
    </g>
  </g>
</svg>