<?xml version="1.0" encoding="UTF-8"?>
<svg id="Layer_1" xmlns="http://www.w3.org/2000/svg" version="1.1" viewBox="0 0 88 88">
  <!-- Generator: Adobe Illustrator 30.1.0, SVG Export Plug-In . SVG Version: 2.1.1 Build 136)  -->
  <circle id="Outer" cx="44" cy="44" r="39.39" fill="none" stroke="#000" stroke-width="9.21"/>
  <g>
    <g>
      <rect x="41.22" y="57.94" width="5.51" height="5.51"/>
      <path d="M46.04,58.63v4.13h-4.13v-4.13h4.13M47.42,57.25h-6.88v6.88h6.88v-6.88h0Z"/>
    </g>
    <g>
      <path d="M41.23,51.95l-.02-2.24c0-2.13.8-4.17,2.22-5.75l4.09-4.53c1.01-1.11,1.56-2.55,1.56-4.05,0-2.06-1.69-3.74-3.77-3.74h-2.63c-2.08,0-3.77,1.68-3.77,3.74v.69h-5.54v-.69c0-5.1,4.18-9.26,9.32-9.26h2.63c5.14,0,9.32,4.15,9.32,9.26,0,2.86-1.06,5.6-2.98,7.73l-4.09,4.54c-.53.58-.81,1.3-.81,2.06l-.02,2.25h-5.5Z"/>
      <path d="M45.31,26.81c4.76,0,8.63,3.84,8.63,8.57,0,2.69-1,5.27-2.8,7.27l-4.09,4.54c-.63.7-.99,1.57-.99,2.52l-.02,1.56h-4.13v-1.56c0-1.96.72-3.83,2.03-5.28l4.09-4.53c1.12-1.24,1.74-2.84,1.74-4.51,0-2.44-2-4.43-4.46-4.43h-2.63c-2.46,0-4.46,1.99-4.46,4.43h-4.17c0-4.72,3.87-8.57,8.63-8.57h2.63M45.31,25.43h-2.63c-5.52,0-10,4.46-10,9.94v1.38h6.92v-1.38c0-1.68,1.38-3.05,3.09-3.05h2.63c1.7,0,3.09,1.37,3.09,3.05,0,1.32-.49,2.6-1.38,3.59l-4.09,4.53c-1.54,1.7-2.39,3.9-2.4,6.2v1.58s.03,1.36.03,1.36h6.86v-1.36s.03-1.56.03-1.56c0-.6.22-1.15.63-1.61l4.09-4.54c2.04-2.25,3.16-5.16,3.16-8.19,0-5.48-4.49-9.94-10-9.94h0Z"/>
    </g>
  </g>
</svg>