<?xml version="1.0" encoding="UTF-8"?>
<svg id="Layer_1" xmlns="http://www.w3.org/2000/svg" version="1.1" viewBox="0 0 88 88">
  <!-- Generator: Adobe Illustrator 30.1.0, SVG Export Plug-In . SVG Version: 2.1.1 Build 136)  -->
  <circle id="Outer" cx="44" cy="44" r="37.84" fill="none" stroke="#000" stroke-width="12.32"/>
  <g>
    <g>
      <rect x="41.21" y="56.76" width="5.53" height="5.53"/>
      <path d="M45.78,57.73v3.6h-3.6v-3.6h3.6M47.7,55.8h-7.45v7.45h7.45v-7.45h0Z"/>
    </g>
    <g>
      <path d="M41.22,51.01l-.02-2.32c0-1.96.73-3.82,2.03-5.26l3.57-3.95c.82-.9,1.27-2.07,1.27-3.29,0-1.6-1.31-2.9-2.93-2.9h-2.29c-1.61,0-2.93,1.3-2.93,2.9v.96h-5.56v-.96c0-4.65,3.81-8.44,8.49-8.44h2.29c4.68,0,8.49,3.78,8.49,8.44,0,2.58-.96,5.06-2.69,6.99l-3.57,3.96c-.4.44-.61.98-.61,1.55l-.02,2.32h-5.51Z"/>
      <path d="M45.15,28.72c4.15,0,7.53,3.35,7.53,7.47,0,2.34-.87,4.6-2.44,6.34l-3.57,3.96c-.55.61-.86,1.37-.86,2.2v1.36h-3.62v-1.36c0-1.71.62-3.34,1.77-4.61l3.57-3.95c.98-1.08,1.52-2.48,1.52-3.93,0-2.13-1.75-3.86-3.89-3.86h-2.29c-2.14,0-3.89,1.73-3.89,3.86h-3.64c0-4.12,3.38-7.47,7.53-7.47h2.29M45.15,26.79h-2.29c-5.21,0-9.45,4.22-9.45,9.4v1.92h7.49v-1.92c0-1.07.88-1.94,1.96-1.94h2.29c1.08,0,1.96.87,1.96,1.94,0,.98-.36,1.91-1.02,2.64l-3.57,3.95c-1.46,1.62-2.27,3.71-2.28,5.89v1.39s.03,1.91.03,1.91h7.42l.02-1.91v-1.36c.01-.35.14-.66.38-.92l3.57-3.96c1.9-2.1,2.94-4.81,2.94-7.63,0-5.18-4.24-9.4-9.45-9.4h0Z"/>
    </g>
  </g>
</svg>