<?xml version="1.0" encoding="UTF-8"?>
<svg id="Layer_1" xmlns="http://www.w3.org/2000/svg" version="1.1" viewBox="0 0 109 109">
  <!-- Generator: Adobe Illustrator 30.1.0, SVG Export Plug-In . SVG Version: 2.1.1 Build 136)  -->
  <path d="M54.5,15.26c1.28,0,2.55.66,3.22,1.98l8.21,16.3c1.41,2.8,4.04,4.77,7.11,5.35l17.76,3.33c2.78.52,3.9,3.9,2,5.99l-12.94,14.2c-2,2.19-2.93,5.15-2.54,8.1l2.53,19.15c.3,2.28-1.52,4.09-3.57,4.09-.54,0-1.11-.13-1.65-.41l-15.53-8c-1.44-.74-3.01-1.11-4.59-1.11-1.57,0-3.15.37-4.59,1.11l-15.53,8c-.54.28-1.1.41-1.65.41-2.05,0-3.87-1.81-3.57-4.09l2.53-19.15c.39-2.94-.54-5.9-2.53-8.09l-12.94-14.2c-1.91-2.09-.78-5.47,2-5.99l17.76-3.33c3.07-.58,5.7-2.55,7.11-5.35l8.21-16.3c.67-1.32,1.94-1.98,3.22-1.98M54.5,0C47.33,0,40.88,3.98,37.65,10.38l-7.05,13.99-15.21,2.85c-6.72,1.26-12.24,6.07-14.41,12.55-2.17,6.49-.66,13.66,3.95,18.71l11.31,12.41-2.21,16.75c-.71,5.39.93,10.82,4.51,14.9,3.59,4.1,8.76,6.45,14.19,6.45,2.98,0,5.97-.73,8.63-2.1l13.14-6.77,13.14,6.77c2.67,1.37,5.65,2.1,8.63,2.1,5.43,0,10.6-2.35,14.19-6.45,3.58-4.08,5.22-9.51,4.51-14.9l-2.21-16.75,11.31-12.41c4.61-5.06,6.12-12.23,3.95-18.71-2.17-6.48-7.69-11.29-14.41-12.55l-15.21-2.85-7.05-13.99C68.12,3.98,61.66,0,54.5,0h0Z"/>
</svg>