<?xml version="1.0" encoding="UTF-8"?>
<svg id="Layer_1" xmlns="http://www.w3.org/2000/svg" version="1.1" viewBox="0 0 109 109">
  <!-- Generator: Adobe Illustrator 30.1.0, SVG Export Plug-In . SVG Version: 2.1.1 Build 136)  -->
  <path d="M54.5,11.41c1.4,0,2.8.73,3.53,2.18l9.01,17.89c1.55,3.07,4.43,5.24,7.81,5.88l19.5,3.66c3.05.57,4.29,4.28,2.19,6.57l-14.21,15.59c-2.19,2.41-3.21,5.66-2.79,8.89l2.77,21.02c.33,2.51-1.67,4.49-3.92,4.49-.6,0-1.21-.14-1.81-.45l-17.06-8.79c-1.58-.81-3.31-1.22-5.04-1.22-1.73,0-3.46.41-5.04,1.22l-17.06,8.79c-.6.31-1.21.45-1.81.45-2.26,0-4.25-1.99-3.92-4.49l2.77-21.03c.43-3.23-.59-6.48-2.78-8.88l-14.21-15.59c-2.09-2.3-.86-6.01,2.2-6.58l19.5-3.66c3.37-.63,6.26-2.8,7.8-5.87l9.02-17.9c.73-1.45,2.13-2.18,3.53-2.18M54.5,0C48.66,0,43.4,3.24,40.77,8.46l-8.93,17.72-19.3,3.62c-5.47,1.03-9.97,4.95-11.74,10.23-1.77,5.29-.54,11.13,3.22,15.25l14.09,15.46-2.75,20.86c-.58,4.39.76,8.82,3.67,12.14,2.93,3.34,7.14,5.26,11.57,5.26,2.43,0,4.86-.59,7.03-1.71l16.87-8.69,16.87,8.69c2.18,1.12,4.61,1.71,7.03,1.71,4.42,0,8.64-1.92,11.57-5.26,2.91-3.32,4.25-7.75,3.67-12.14l-2.75-20.86,14.09-15.47c3.75-4.12,4.99-9.96,3.22-15.25-1.77-5.28-6.27-9.2-11.74-10.23l-19.31-3.62-8.93-17.72C65.6,3.24,60.34,0,54.5,0h0Z"/>
</svg>