<?xml version="1.0" encoding="UTF-8"?>
<svg id="Layer_1" xmlns="http://www.w3.org/2000/svg" version="1.1" viewBox="0 0 109 109">
  <!-- Generator: Adobe Illustrator 30.1.0, SVG Export Plug-In . SVG Version: 2.1.1 Build 136)  -->
  <path d="M54.5,19.11c1.15,0,2.3.6,2.9,1.79l7.4,14.7c1.27,2.52,3.64,4.31,6.41,4.83l16.02,3c2.5.47,3.52,3.51,1.8,5.4l-11.67,12.81c-1.8,1.98-2.64,4.65-2.29,7.3l2.28,17.27c.27,2.06-1.37,3.69-3.22,3.69-.49,0-1-.11-1.49-.37l-14.01-7.22c-1.3-.67-2.72-1-4.14-1-1.42,0-2.84.33-4.14,1l-14.01,7.22c-.49.25-.99.37-1.49.37-1.85,0-3.49-1.63-3.22-3.69l2.28-17.27c.35-2.65-.49-5.32-2.29-7.29l-11.67-12.81c-1.72-1.89-.7-4.93,1.8-5.4l16.02-3c2.77-.52,5.14-2.3,6.41-4.82l7.41-14.7c.6-1.19,1.75-1.79,2.9-1.79M54.5,0C46,0,38.35,4.71,34.53,12.3l-5.17,10.26-11.12,2.08c-7.96,1.49-14.51,7.19-17.08,14.88-2.58,7.69-.78,16.19,4.68,22.18l8.53,9.36-1.67,12.65c-.84,6.39,1.11,12.83,5.35,17.66,4.25,4.85,10.39,7.63,16.82,7.63,3.54,0,7.08-.86,10.24-2.49l9.4-4.84,9.4,4.84c3.16,1.63,6.7,2.49,10.24,2.49,6.44,0,12.57-2.78,16.82-7.63,4.24-4.84,6.19-11.27,5.35-17.66l-1.67-12.65,8.53-9.36c5.46-5.99,7.25-14.49,4.68-22.18-2.57-7.68-9.12-13.38-17.08-14.88l-11.12-2.08-5.17-10.26C70.64,4.71,62.99,0,54.5,0h0Z"/>
</svg>