<?xml version="1.0" encoding="UTF-8"?>
<svg id="Layer_1" xmlns="http://www.w3.org/2000/svg" version="1.1" viewBox="0 0 126 126">
  <!-- Generator: Adobe Illustrator 30.1.0, SVG Export Plug-In . SVG Version: 2.1.1 Build 136)  -->
  <g>
    <g>
      <rect x="58.46" y="35.11" width="9.07" height="9.07"/>
      <path d="M66.16,36.49v6.32h-6.32v-6.32h6.32M68.91,33.73h-11.83v11.83h11.83v-11.83h0Z"/>
    </g>
    <g>
      <polygon points="52.15 90.15 52.15 81.08 58.46 81.08 58.46 64.12 52.15 64.12 52.15 55.05 67.54 55.05 67.54 81.08 73.85 81.08 73.85 90.15 52.15 90.15"/>
      <path d="M66.16,56.43v26.03h6.32v6.32h-18.95v-6.32h6.32v-19.72h-6.32v-6.32h12.63M68.91,53.67h-18.14v11.83h6.32v14.2h-6.32v11.83h24.46v-11.83h-6.32v-26.03h0Z"/>
    </g>
  </g>
  <circle id="Outer" cx="63" cy="63" r="54.18" fill="none" stroke="#000" stroke-width="17.64"/>
</svg>