<?xml version="1.0" encoding="UTF-8"?>
<svg id="Layer_1" xmlns="http://www.w3.org/2000/svg" version="1.1" viewBox="0 0 41 41">
  <!-- Generator: Adobe Illustrator 30.1.0, SVG Export Plug-In . SVG Version: 2.1.1 Build 136)  -->
  <path d="M20.5,5.74c.48,0,.96.25,1.21.75l3.09,6.13c.53,1.05,1.52,1.8,2.67,2.01l6.68,1.25c1.04.2,1.47,1.47.75,2.25l-4.87,5.34c-.75.82-1.1,1.94-.95,3.05l.95,7.2c.11.86-.57,1.54-1.34,1.54-.2,0-.42-.05-.62-.15l-5.84-3.01c-.54-.28-1.13-.42-1.73-.42-.59,0-1.18.14-1.73.42l-5.84,3.01c-.2.1-.41.15-.62.15-.77,0-1.46-.68-1.34-1.54l.95-7.2c.15-1.11-.2-2.22-.95-3.04l-4.87-5.34c-.72-.79-.29-2.06.75-2.25l6.68-1.25c1.15-.22,2.14-.96,2.67-2.01l3.09-6.13c.25-.5.73-.75,1.21-.75M20.5,0C17.8,0,15.38,1.5,14.16,3.9l-2.65,5.26-5.72,1.07c-2.53.47-4.6,2.28-5.42,4.72-.82,2.44-.25,5.14,1.48,7.04l4.25,4.67-.83,6.3c-.27,2.03.35,4.07,1.7,5.61,1.35,1.54,3.3,2.42,5.34,2.42,1.12,0,2.24-.27,3.25-.79l4.94-2.54,4.94,2.54c1,.52,2.13.79,3.25.79,2.04,0,3.99-.88,5.34-2.42,1.35-1.53,1.96-3.58,1.7-5.61l-.83-6.3,4.25-4.67c1.73-1.9,2.3-4.6,1.48-7.04-.82-2.44-2.89-4.25-5.42-4.72l-5.72-1.07-2.65-5.26C25.62,1.5,23.2,0,20.5,0h0Z"/>
</svg>