<?xml version="1.0" encoding="UTF-8"?>
<svg id="Layer_1" xmlns="http://www.w3.org/2000/svg" version="1.1" viewBox="0 0 41 41">
  <!-- Generator: Adobe Illustrator 30.1.0, SVG Export Plug-In . SVG Version: 2.1.1 Build 136)  -->
  <path d="M20.5,4.29c.53,0,1.05.27,1.33.82l3.39,6.73c.58,1.15,1.67,1.97,2.94,2.21l7.34,1.38c1.15.21,1.61,1.61.83,2.47l-5.34,5.87c-.82.9-1.21,2.13-1.05,3.34l1.04,7.91c.12.94-.63,1.69-1.48,1.69-.22,0-.46-.05-.68-.17l-6.42-3.3c-.59-.31-1.25-.46-1.9-.46-.65,0-1.3.15-1.9.46l-6.42,3.3c-.22.12-.46.17-.68.17-.85,0-1.6-.75-1.48-1.69l1.04-7.91c.16-1.21-.22-2.44-1.05-3.34l-5.35-5.87c-.79-.86-.32-2.26.83-2.47l7.33-1.37c1.27-.24,2.35-1.05,2.93-2.21l3.39-6.73c.28-.55.8-.82,1.33-.82M20.5,0c-2.2,0-4.17,1.22-5.16,3.18l-3.36,6.67-7.26,1.36c-2.06.39-3.75,1.86-4.42,3.85-.67,1.99-.2,4.19,1.21,5.74l5.3,5.82-1.03,7.85c-.22,1.65.29,3.32,1.38,4.57,1.1,1.26,2.69,1.98,4.35,1.98.91,0,1.83-.22,2.65-.64l6.35-3.27,6.35,3.27c.82.42,1.73.64,2.65.64,1.66,0,3.25-.72,4.35-1.98,1.1-1.25,1.6-2.91,1.38-4.57l-1.03-7.85,5.3-5.82c1.41-1.55,1.88-3.75,1.21-5.74-.67-1.99-2.36-3.46-4.42-3.85l-7.26-1.36-3.36-6.67c-.99-1.96-2.97-3.18-5.16-3.18h0Z"/>
</svg>