<?xml version="1.0" encoding="UTF-8"?>
<svg id="Layer_1" xmlns="http://www.w3.org/2000/svg" version="1.1" viewBox="0 0 91 91">
  <!-- Generator: Adobe Illustrator 30.1.0, SVG Export Plug-In . SVG Version: 2.1.1 Build 136)  -->
  <circle id="Outer" cx="45.5" cy="45.5" r="37.52" fill="none" stroke="#000" stroke-width="15.95"/>
  <g>
    <g>
      <rect x="42.59" y="57.47" width="5.77" height="5.76"/>
      <path d="M47.08,58.75v3.21h-3.21v-3.21h3.21M49.64,56.19h-8.32v8.32h8.32v-8.32h0Z"/>
    </g>
    <g>
      <path d="M42.61,51.85l-.02-2.48c0-1.85.69-3.61,1.92-4.97l3.17-3.52c.66-.73,1.02-1.66,1.02-2.64,0-1.19-.98-2.16-2.18-2.16h-2.04c-1.2,0-2.18.97-2.18,2.16v1.28h-5.79v-1.28c0-4.37,3.58-7.93,7.97-7.93h2.04c4.4,0,7.97,3.56,7.97,7.93,0,2.4-.89,4.71-2.5,6.5l-3.18,3.52c-.29.32-.44.69-.44,1.1l-.03,2.49h-5.74Z"/>
      <path d="M46.52,31.6c3.69,0,6.69,2.98,6.69,6.65,0,2.09-.77,4.09-2.17,5.64l-3.18,3.52c-.49.54-.76,1.22-.77,1.95v1.21h-3.22v-1.21c0-1.52.55-2.97,1.58-4.1l3.17-3.52c.87-.96,1.35-2.2,1.35-3.5,0-1.89-1.55-3.44-3.46-3.44h-2.04c-1.91,0-3.46,1.54-3.46,3.44h-3.23c0-3.66,3-6.65,6.69-6.65h2.04M46.52,29.04h-2.04c-5.1,0-9.25,4.13-9.25,9.21v2.56h8.35v-2.56c0-.48.4-.88.9-.88h2.04c.5,0,.9.39.9.88,0,.66-.24,1.29-.69,1.78l-3.18,3.52c-1.44,1.59-2.24,3.65-2.25,5.8v1.24s.03,2.54.03,2.54h8.28l.03-2.53v-1.21c.01-.08.03-.16.12-.26l3.18-3.52c1.83-2.02,2.83-4.64,2.83-7.35,0-5.08-4.15-9.21-9.25-9.21h0Z"/>
    </g>
  </g>
</svg>