<?xml version="1.0" encoding="UTF-8"?>
<svg id="Layer_1" xmlns="http://www.w3.org/2000/svg" version="1.1" viewBox="0 0 91 91">
  <!-- Generator: Adobe Illustrator 30.1.0, SVG Export Plug-In . SVG Version: 2.1.1 Build 136)  -->
  <circle id="Outer" cx="45.5" cy="45.5" r="40.74" fill="none" stroke="#000" stroke-width="9.53"/>
  <g>
    <g>
      <rect x="42.63" y="59.92" width="5.7" height="5.7"/>
      <path d="M47.61,60.63v4.27h-4.27v-4.27h4.27M49.03,59.21h-7.12v7.12h7.12v-7.12h0Z"/>
    </g>
    <g>
      <path d="M42.64,53.72l-.02-2.32c0-2.21.83-4.31,2.3-5.95l4.23-4.69c1.04-1.15,1.61-2.64,1.61-4.19,0-2.13-1.75-3.87-3.9-3.87h-2.72c-2.15,0-3.9,1.74-3.9,3.87v.71h-5.73v-.71c0-5.28,4.32-9.57,9.64-9.57h2.72c5.31,0,9.63,4.29,9.63,9.57,0,2.96-1.09,5.79-3.08,8l-4.23,4.69c-.55.6-.84,1.34-.84,2.13l-.02,2.33h-5.68Z"/>
      <path d="M46.86,27.72c4.92,0,8.92,3.98,8.92,8.86,0,2.78-1.03,5.45-2.9,7.52l-4.23,4.69c-.66.73-1.02,1.63-1.02,2.6l-.02,1.62h-4.27v-1.62c0-2.03.74-3.96,2.1-5.46l4.23-4.69c1.16-1.28,1.8-2.94,1.8-4.66,0-2.53-2.07-4.58-4.61-4.58h-2.72c-2.54,0-4.61,2.05-4.61,4.58h-4.31c0-4.89,4-8.86,8.92-8.86h2.72M46.86,26.3h-2.72c-5.7,0-10.35,4.61-10.35,10.28v1.42h7.16v-1.42c0-1.74,1.43-3.16,3.19-3.16h2.72c1.76,0,3.19,1.42,3.19,3.16,0,1.37-.51,2.69-1.43,3.71l-4.23,4.69c-1.59,1.76-2.47,4.04-2.48,6.41v1.63s.03,1.41.03,1.41h7.09v-1.41s.03-1.62.03-1.62c0-.62.23-1.19.66-1.66l4.23-4.69c2.1-2.33,3.26-5.34,3.26-8.47,0-5.67-4.64-10.28-10.35-10.28h0Z"/>
    </g>
  </g>
</svg>