<?xml version="1.0" encoding="UTF-8"?>
<svg id="Layer_1" xmlns="http://www.w3.org/2000/svg" version="1.1" viewBox="0 0 91 91">
  <!-- Generator: Adobe Illustrator 30.1.0, SVG Export Plug-In . SVG Version: 2.1.1 Build 136)  -->
  <circle id="Outer" cx="45.5" cy="45.5" r="39.13" fill="none" stroke="#000" stroke-width="12.74"/>
  <g>
    <g>
      <rect x="42.62" y="58.7" width="5.72" height="5.72"/>
      <path d="M47.34,59.69v3.73h-3.73v-3.73h3.73M49.33,57.7h-7.71v7.71h7.71v-7.71h0Z"/>
    </g>
    <g>
      <path d="M42.63,52.75l-.02-2.4c0-2.02.75-3.95,2.1-5.44l3.69-4.09c.85-.94,1.31-2.14,1.31-3.4,0-1.65-1.36-3-3.03-3h-2.37c-1.67,0-3.03,1.35-3.03,3v1h-5.75v-1c0-4.81,3.94-8.72,8.78-8.72h2.37c4.84,0,8.78,3.91,8.78,8.72,0,2.67-.99,5.24-2.78,7.22l-3.69,4.09c-.41.46-.63,1.01-.64,1.61l-.02,2.4h-5.7Z"/>
      <path d="M46.69,29.7c4.29,0,7.78,3.47,7.78,7.73,0,2.42-.9,4.75-2.53,6.56l-3.69,4.09c-.57.63-.89,1.42-.89,2.27v1.41h-3.74v-1.41c0-1.77.64-3.45,1.83-4.76l3.69-4.09c1.01-1.12,1.57-2.56,1.57-4.06,0-2.2-1.8-3.99-4.02-3.99h-2.37c-2.22,0-4.02,1.79-4.02,3.99h-3.76c0-4.26,3.49-7.73,7.78-7.73h2.37M46.69,27.71h-2.37c-5.39,0-9.77,4.36-9.77,9.72v1.99h7.74v-1.99c0-1.1.91-2,2.03-2h2.37c1.12,0,2.03.9,2.03,2,0,1.01-.37,1.98-1.05,2.73l-3.69,4.09c-1.51,1.67-2.35,3.84-2.36,6.09v1.43s.03,1.97.03,1.97h7.67l.02-1.97v-1.41c.02-.36.14-.68.39-.96l3.69-4.09c1.96-2.17,3.04-4.97,3.04-7.89,0-5.36-4.38-9.72-9.77-9.72h0Z"/>
    </g>
  </g>
</svg>