<?xml version="1.0" encoding="UTF-8"?>
<svg id="Layer_1" xmlns="http://www.w3.org/2000/svg" version="1.1" viewBox="0 0 34 34">
  <!-- Generator: Adobe Illustrator 30.1.0, SVG Export Plug-In . SVG Version: 2.1.1 Build 136)  -->
  <path d="M17,5.96c.36,0,.72.19.91.56l2.31,4.58c.4.79,1.14,1.34,2,1.51l5,.94c.78.15,1.1,1.1.56,1.68l-3.64,3.99c-.56.62-.82,1.45-.71,2.28l.71,5.39c.08.64-.43,1.15-1.01,1.15-.15,0-.31-.04-.46-.11l-4.37-2.25c-.41-.21-.85-.31-1.29-.31-.44,0-.89.1-1.29.31l-4.37,2.25c-.15.08-.31.11-.46.11-.58,0-1.09-.51-1.01-1.15l.71-5.39c.11-.83-.15-1.66-.71-2.27l-3.64-3.99c-.54-.59-.22-1.54.56-1.69l5-.94c.86-.16,1.6-.72,2-1.5l2.31-4.59c.19-.37.55-.56.91-.56M17,0C14.35,0,11.96,1.47,10.77,3.84l-1.61,3.2-3.47.65c-2.48.47-4.53,2.24-5.33,4.64-.8,2.4-.24,5.05,1.46,6.92l2.66,2.92-.52,3.95c-.26,1.99.34,4,1.67,5.51,1.33,1.51,3.24,2.38,5.25,2.38,1.1,0,2.21-.27,3.19-.78l2.93-1.51,2.93,1.51c.99.51,2.09.78,3.19.78,2.01,0,3.92-.87,5.25-2.38,1.32-1.51,1.93-3.52,1.67-5.51l-.52-3.94,2.66-2.92c1.7-1.87,2.26-4.52,1.46-6.92-.8-2.4-2.84-4.18-5.33-4.64l-3.47-.65-1.61-3.2C22.04,1.47,19.65,0,17,0h0Z"/>
</svg>