<?xml version="1.0" encoding="UTF-8"?>
<svg id="Layer_1" xmlns="http://www.w3.org/2000/svg" version="1.1" viewBox="0 0 102 102">
  <!-- Generator: Adobe Illustrator 30.1.0, SVG Export Plug-In . SVG Version: 2.1.1 Build 136)  -->
  <circle id="Outer" cx="51" cy="51" r="43.86" fill="none" stroke="#000" stroke-width="14.28"/>
  <g>
    <g>
      <rect x="47.77" y="65.79" width="6.41" height="6.41"/>
      <path d="M53.06,66.91v4.18h-4.18v-4.18h4.18M55.29,64.68h-8.64v8.64h8.64v-8.64h0Z"/>
    </g>
    <g>
      <path d="M47.78,59.12l-.02-2.69c0-2.26.85-4.42,2.36-6.1l4.14-4.58c.95-1.05,1.47-2.4,1.47-3.81,0-1.85-1.52-3.36-3.39-3.36h-2.66c-1.87,0-3.39,1.51-3.39,3.36v1.12h-6.45v-1.12c0-5.39,4.41-9.78,9.84-9.78h2.66c5.42,0,9.84,4.39,9.84,9.78,0,2.99-1.11,5.87-3.12,8.1l-4.14,4.58c-.46.51-.71,1.13-.71,1.8l-.03,2.69h-6.39Z"/>
      <path d="M52.33,33.29c4.81,0,8.72,3.89,8.72,8.66,0,2.72-1.01,5.33-2.83,7.35l-4.14,4.58c-.64.71-1,1.59-1,2.54l-.02,1.58h-4.18v-1.58c0-1.98.72-3.87,2.06-5.34l4.14-4.58c1.13-1.25,1.76-2.87,1.76-4.56,0-2.47-2.02-4.48-4.51-4.48h-2.66c-2.49,0-4.51,2.01-4.51,4.48h-4.21c0-4.77,3.91-8.66,8.72-8.66h2.66M52.33,31.06h-2.66c-6.04,0-10.95,4.89-10.95,10.89v2.23h8.68v-2.23c0-1.24,1.02-2.25,2.28-2.25h2.66c1.26,0,2.28,1.01,2.28,2.25,0,1.13-.42,2.22-1.18,3.06l-4.14,4.58c-1.7,1.87-2.63,4.3-2.64,6.83v1.61s.03,2.21.03,2.21h8.6l.02-2.21.02-1.58c0-.41.14-.76.42-1.07l4.14-4.59c2.2-2.43,3.41-5.57,3.41-8.84,0-6.01-4.91-10.89-10.95-10.89h0Z"/>
    </g>
  </g>
</svg>