<?xml version="1.0" encoding="UTF-8"?>
<svg id="Layer_1" xmlns="http://www.w3.org/2000/svg" version="1.1" viewBox="0 0 102 102">
  <!-- Generator: Adobe Illustrator 30.1.0, SVG Export Plug-In . SVG Version: 2.1.1 Build 136)  -->
  <circle id="Outer" cx="51" cy="51" r="42.06" fill="none" stroke="#000" stroke-width="17.88"/>
  <g>
    <g>
      <rect x="47.74" y="64.41" width="6.46" height="6.46"/>
      <path d="M52.77,65.85v3.59h-3.59v-3.59h3.59M55.64,62.98h-9.33v9.33h9.33v-9.33h0Z"/>
    </g>
    <g>
      <path d="M47.76,58.12l-.02-2.78c0-2.07.77-4.04,2.15-5.57l3.56-3.94c.74-.81,1.14-1.87,1.14-2.96,0-1.33-1.1-2.42-2.44-2.42h-2.29c-1.35,0-2.44,1.08-2.44,2.42v1.43h-6.49v-1.43c0-4.9,4.01-8.88,8.94-8.88h2.29c4.93,0,8.94,3.99,8.94,8.88,0,2.69-1,5.28-2.81,7.28l-3.56,3.94c-.32.36-.49.77-.49,1.23l-.03,2.79h-6.43Z"/>
      <path d="M52.14,35.42c4.14,0,7.5,3.34,7.5,7.45,0,2.34-.87,4.58-2.44,6.32l-3.56,3.94c-.55.61-.86,1.37-.86,2.19v1.36h-3.61v-1.36c0-1.7.62-3.33,1.77-4.59l3.56-3.94c.97-1.08,1.51-2.47,1.51-3.92,0-2.12-1.74-3.85-3.88-3.85h-2.29c-2.14,0-3.88,1.73-3.88,3.85h-3.62c0-4.11,3.37-7.45,7.5-7.45h2.29M52.14,32.55h-2.29c-5.72,0-10.37,4.63-10.37,10.32v2.87h9.36v-2.87c0-.54.45-.98,1.01-.98h2.29c.56,0,1.01.44,1.01.98,0,.74-.27,1.45-.77,2l-3.56,3.94c-1.62,1.79-2.51,4.1-2.52,6.5v1.39s.04,2.84.04,2.84h9.28l.03-2.84v-1.36c.01-.09.03-.18.13-.29l3.56-3.95c2.05-2.27,3.18-5.2,3.18-8.24,0-5.69-4.65-10.32-10.37-10.32h0Z"/>
    </g>
  </g>
</svg>