<?xml version="1.0" encoding="UTF-8"?>
<svg id="Layer_1" xmlns="http://www.w3.org/2000/svg" version="1.1" viewBox="0 0 125 125">
  <!-- Generator: Adobe Illustrator 30.1.0, SVG Export Plug-In . SVG Version: 2.1.1 Build 136)  -->
  <g>
    <g>
      <rect x="57.93" y="36.42" width="9.15" height="9.15"/>
      <path d="M65.32,38.18v5.63h-5.63v-5.63h5.63M68.83,34.66h-12.66v12.66h12.66v-12.66h0Z"/>
    </g>
    <g>
      <polygon points="52.29 87.52 52.29 78.38 57.93 78.38 57.93 64.31 52.29 64.31 52.29 55.16 67.07 55.16 67.07 78.38 72.71 78.38 72.71 87.52 52.29 87.52"/>
      <path d="M65.32,56.92v23.21h5.63v5.63h-16.9v-5.63h5.63v-17.58h-5.63v-5.63h11.26M68.83,53.4h-18.3v12.66h5.63v10.55h-5.63v12.66h23.93v-12.66h-5.63v-23.21h0Z"/>
    </g>
  </g>
  <circle id="Outer" cx="62.5" cy="62.5" r="51.54" fill="none" stroke="#000" stroke-width="21.91"/>
</svg>