<?xml version="1.0" encoding="UTF-8"?>
<svg id="Layer_1" xmlns="http://www.w3.org/2000/svg" version="1.1" viewBox="0 0 125 125">
  <!-- Generator: Adobe Illustrator 30.1.0, SVG Export Plug-In . SVG Version: 2.1.1 Build 136)  -->
  <g>
    <g>
      <rect x="58" y="34.83" width="9" height="9"/>
      <path d="M65.63,36.2v6.27h-6.27v-6.27h6.27M68.37,33.47h-11.73v11.73h11.73v-11.73h0Z"/>
    </g>
    <g>
      <polygon points="51.73 89.44 51.73 80.44 58 80.44 58 63.61 51.73 63.61 51.73 54.61 67 54.61 67 80.44 73.27 80.44 73.27 89.44 51.73 89.44"/>
      <path d="M65.63,55.98v25.83h6.27v6.27h-18.8v-6.27h6.27v-19.56h-6.27v-6.27h12.53M68.37,53.24h-18v11.73h6.27v14.09h-6.27v11.73h24.27v-11.73h-6.27v-25.83h0Z"/>
    </g>
  </g>
  <circle id="Outer" cx="62.5" cy="62.5" r="53.75" fill="none" stroke="#000" stroke-width="17.5"/>
</svg>