<?xml version="1.0" encoding="UTF-8"?>
<svg id="Layer_1" xmlns="http://www.w3.org/2000/svg" version="1.1" viewBox="0 0 58 58">
  <!-- Generator: Adobe Illustrator 30.1.0, SVG Export Plug-In . SVG Version: 2.1.1 Build 136)  -->
  <path d="M29,8.12c.68,0,1.36.35,1.71,1.06l4.37,8.67c.75,1.49,2.15,2.54,3.78,2.85l9.45,1.77c1.48.28,2.08,2.07,1.06,3.19l-6.89,7.56c-1.06,1.17-1.56,2.74-1.35,4.31l1.34,10.19c.16,1.22-.81,2.18-1.9,2.18-.29,0-.59-.07-.88-.22l-8.27-4.26c-.77-.39-1.6-.59-2.44-.59s-1.68.2-2.44.59l-8.27,4.26c-.29.15-.59.22-.88.22-1.09,0-2.06-.96-1.9-2.18l1.34-10.19c.21-1.56-.29-3.14-1.35-4.3l-6.89-7.56c-1.01-1.11-.41-2.91,1.06-3.19l9.45-1.77c1.63-.31,3.03-1.36,3.78-2.85l4.37-8.67c.35-.7,1.03-1.06,1.71-1.06M29,0C25.19,0,21.75,2.12,20.04,5.52l-3.75,7.44-8.09,1.52c-3.58.67-6.51,3.23-7.67,6.68-1.16,3.45-.35,7.27,2.1,9.96l6.02,6.6-1.18,8.92c-.38,2.87.5,5.76,2.4,7.93,1.91,2.18,4.66,3.43,7.55,3.43,1.59,0,3.18-.39,4.59-1.12l6.99-3.6,6.99,3.6c1.42.73,3.01,1.12,4.59,1.12,2.89,0,5.64-1.25,7.55-3.43,1.9-2.17,2.78-5.06,2.4-7.93l-1.18-8.91,6.02-6.6c2.45-2.69,3.26-6.51,2.1-9.96-1.16-3.45-4.09-6.01-7.67-6.68l-8.1-1.52-3.75-7.44C36.25,2.12,32.81,0,29,0h0Z"/>
</svg>