<?xml version="1.0" encoding="UTF-8"?>
<svg id="Layer_1" xmlns="http://www.w3.org/2000/svg" version="1.1" viewBox="0 0 59 59">
  <!-- Generator: Adobe Illustrator 30.1.0, SVG Export Plug-In . SVG Version: 2.1.1 Build 136)  -->
  <circle id="Outer" cx="29.5" cy="29.5" r="26.41" fill="none" stroke="#000" stroke-width="6.18"/>
  <g>
    <g>
      <rect x="27.64" y="38.85" width="3.69" height="3.69"/>
      <path d="M30.87,39.31v2.77h-2.77v-2.77h2.77M31.79,38.39h-4.61v4.61h4.61v-4.61h0Z"/>
    </g>
    <g>
      <path d="M27.64,34.83v-1.5c0-1.43.52-2.8,1.48-3.85l2.74-3.04c.67-.75,1.05-1.71,1.05-2.71,0-1.38-1.13-2.51-2.53-2.51h-1.76c-1.4,0-2.53,1.12-2.53,2.51v.46h-3.72v-.46c0-3.42,2.8-6.21,6.25-6.21h1.76c3.44,0,6.25,2.78,6.25,6.21,0,1.92-.71,3.76-2,5.18l-2.74,3.04c-.35.39-.54.87-.54,1.38l-.02,1.51h-3.68Z"/>
      <path d="M30.38,17.97c3.19,0,5.79,2.58,5.79,5.75,0,1.8-.67,3.53-1.88,4.88l-2.74,3.04c-.43.47-.66,1.05-.66,1.69v1.05h-2.78v-1.05c0-1.31.48-2.56,1.36-3.54l2.74-3.04c.75-.83,1.16-1.91,1.16-3.02,0-1.64-1.34-2.97-2.99-2.97h-1.76c-1.65,0-2.99,1.33-2.99,2.97h-2.8c0-3.17,2.6-5.75,5.79-5.75h1.76M30.38,17.05h-1.76c-3.7,0-6.71,2.99-6.71,6.67v.92h4.64v-.92c0-1.13.93-2.05,2.07-2.05h1.76c1.14,0,2.07.92,2.07,2.05,0,.89-.33,1.74-.93,2.4l-2.74,3.04c-1.03,1.14-1.6,2.62-1.61,4.16v1.06s.02.91.02.91h4.6v-.91s.02-1.05.02-1.05c0-.4.15-.77.42-1.08l2.75-3.04c1.36-1.51,2.12-3.46,2.12-5.49,0-3.68-3.01-6.67-6.71-6.67h0Z"/>
    </g>
  </g>
</svg>