<?xml version="1.0" encoding="UTF-8"?>
<svg id="Layer_1" xmlns="http://www.w3.org/2000/svg" version="1.1" viewBox="0 0 59 59">
  <!-- Generator: Adobe Illustrator 30.1.0, SVG Export Plug-In . SVG Version: 2.1.1 Build 136)  -->
  <circle id="Outer" cx="29.5" cy="29.5" r="25.37" fill="none" stroke="#000" stroke-width="8.26"/>
  <g>
    <g>
      <rect x="27.63" y="38.06" width="3.71" height="3.71"/>
      <path d="M30.69,38.7v2.42h-2.42v-2.42h2.42M31.98,37.41h-5v5h5v-5h0Z"/>
    </g>
    <g>
      <path d="M27.64,34.2v-1.55c0-1.31.48-2.56,1.35-3.53l2.39-2.65c.55-.61.85-1.39.85-2.2,0-1.07-.88-1.94-1.96-1.94h-1.54c-1.08,0-1.96.87-1.96,1.94v.65h-3.73v-.65c0-3.12,2.55-5.66,5.69-5.66h1.54c3.14,0,5.69,2.54,5.69,5.66,0,1.73-.64,3.39-1.8,4.68l-2.39,2.65c-.27.3-.41.66-.41,1.04l-.02,1.56h-3.69Z"/>
      <path d="M30.27,19.25c2.78,0,5.05,2.25,5.05,5.01,0,1.57-.58,3.08-1.64,4.25l-2.39,2.65c-.37.41-.58.92-.58,1.47v.91h-2.43v-.91c0-1.15.42-2.24,1.19-3.09l2.39-2.65c.66-.73,1.02-1.66,1.02-2.64,0-1.43-1.17-2.59-2.61-2.59h-1.54c-1.44,0-2.61,1.16-2.61,2.59h-2.44c0-2.76,2.26-5.01,5.05-5.01h1.54M30.27,17.96h-1.54c-3.49,0-6.34,2.83-6.34,6.3v1.29h5.02v-1.29c0-.72.59-1.3,1.32-1.3h1.54c.73,0,1.32.58,1.32,1.3,0,.65-.24,1.28-.68,1.77l-2.39,2.65c-.98,1.08-1.52,2.49-1.53,3.95v.93s.02,1.28.02,1.28h4.97v-1.28s.02-.91.02-.91c0-.24.08-.44.24-.62l2.39-2.65c1.27-1.41,1.97-3.22,1.97-5.12,0-3.47-2.84-6.3-6.34-6.3h0Z"/>
    </g>
  </g>
</svg>