<?xml version="1.0" encoding="UTF-8"?>
<svg id="Layer_1" xmlns="http://www.w3.org/2000/svg" version="1.1" viewBox="0 0 59 59">
  <!-- Generator: Adobe Illustrator 30.1.0, SVG Export Plug-In . SVG Version: 2.1.1 Build 136)  -->
  <circle id="Outer" cx="29.5" cy="29.5" r="24.33" fill="none" stroke="#000" stroke-width="10.34"/>
  <g>
    <g>
      <rect x="27.62" y="37.26" width="3.74" height="3.74"/>
      <path d="M30.52,38.09v2.08h-2.08v-2.08h2.08M32.18,36.43h-5.4v5.4h5.4v-5.4h0Z"/>
    </g>
    <g>
      <path d="M27.63,33.62l-.02-1.61c0-1.2.45-2.34,1.24-3.22l2.06-2.28c.43-.47.66-1.08.66-1.71,0-.77-.63-1.4-1.41-1.4h-1.32c-.78,0-1.41.63-1.41,1.4v.83h-3.76v-.83c0-2.83,2.32-5.14,5.17-5.14h1.32c2.85,0,5.17,2.31,5.17,5.14,0,1.56-.58,3.05-1.62,4.21l-2.06,2.28c-.19.21-.28.45-.28.71l-.02,1.61h-3.72Z"/>
      <path d="M30.16,20.49c2.39,0,4.34,1.93,4.34,4.31,0,1.35-.5,2.65-1.41,3.66l-2.06,2.28c-.32.35-.5.79-.5,1.27v.79h-2.09v-.79c0-.99.36-1.92,1.02-2.66l2.06-2.28c.56-.62.87-1.43.87-2.27,0-1.23-1.01-2.23-2.24-2.23h-1.32c-1.24,0-2.24,1-2.24,2.23h-2.1c0-2.38,1.95-4.31,4.34-4.31h1.32M30.16,18.83h-1.32c-3.31,0-6,2.68-6,5.97v1.66h5.42v-1.66c0-.31.26-.57.58-.57h1.32c.32,0,.58.25.58.57,0,.43-.16.84-.45,1.16l-2.06,2.28c-.93,1.03-1.45,2.37-1.46,3.76v.81s.02,1.64.02,1.64h5.37l.02-1.64v-.79c0-.05.02-.1.08-.17l2.06-2.28c1.18-1.31,1.84-3.01,1.84-4.77,0-3.29-2.69-5.97-6-5.97h0Z"/>
    </g>
  </g>
</svg>