<?xml version="1.0" encoding="UTF-8"?>
<svg id="Layer_1" xmlns="http://www.w3.org/2000/svg" version="1.1" viewBox="0 0 14 14">
  <!-- Generator: Adobe Illustrator 30.1.0, SVG Export Plug-In . SVG Version: 2.1.1 Build 136)  -->
  <circle id="Outer" cx="7" cy="7" r="5.77" fill="none" stroke="#000" stroke-width="2.45"/>
  <g>
    <g>
      <rect x="6.55" y="8.84" width=".89" height=".89"/>
      <path d="M7.24,9.04v.49h-.49v-.49h.49M7.64,8.64h-1.28v1.28h1.28v-1.28h0Z"/>
    </g>
    <g>
      <path d="M6.56,7.98v-.38c0-.28.1-.56.29-.76l.49-.54c.1-.11.16-.26.16-.41,0-.18-.15-.33-.34-.33h-.31c-.19,0-.34.15-.34.33v.2h-.89v-.2c0-.67.55-1.22,1.23-1.22h.31c.68,0,1.23.55,1.23,1.22,0,.37-.14.73-.39,1l-.49.54s-.07.11-.07.17v.38h-.89Z"/>
      <path d="M7.16,4.86c.57,0,1.03.46,1.03,1.02,0,.32-.12.63-.33.87l-.49.54c-.08.08-.12.19-.12.3v.19h-.5v-.19c0-.23.09-.46.24-.63l.49-.54c.13-.15.21-.34.21-.54,0-.29-.24-.53-.53-.53h-.31c-.29,0-.53.24-.53.53h-.5c0-.56.46-1.02,1.03-1.02h.31M7.16,4.47h-.31c-.78,0-1.42.64-1.42,1.42v.39h1.29v-.39c0-.07.06-.13.14-.13h.31c.08,0,.14.06.14.13,0,.1-.04.2-.11.27l-.49.54c-.22.25-.34.56-.35.89v.19s0,.39,0,.39h1.27v-.39s0-.19,0-.19l.51-.58c.28-.31.44-.71.44-1.13,0-.78-.64-1.42-1.42-1.42h0Z"/>
    </g>
  </g>
</svg>