<?xml version="1.0" encoding="UTF-8"?>
<svg id="Layer_1" xmlns="http://www.w3.org/2000/svg" version="1.1" viewBox="0 0 14 14">
  <!-- Generator: Adobe Illustrator 30.1.0, SVG Export Plug-In . SVG Version: 2.1.1 Build 136)  -->
  <circle id="Outer" cx="7" cy="7" r="6.27" fill="none" stroke="#000" stroke-width="1.47"/>
  <g>
    <g>
      <rect x="6.56" y="9.22" width=".88" height=".88"/>
      <path d="M7.32,9.33v.66h-.66v-.66h.66M7.54,9.11h-1.09v1.09h1.09v-1.09h0Z"/>
    </g>
    <g>
      <path d="M6.56,8.26v-.36c0-.34.12-.66.35-.91l.65-.72c.16-.18.25-.41.25-.64,0-.33-.27-.6-.6-.6h-.42c-.33,0-.6.27-.6.6v.11h-.88v-.11c0-.81.67-1.47,1.48-1.47h.42c.82,0,1.48.66,1.48,1.47,0,.45-.17.89-.47,1.23l-.65.72c-.08.09-.13.21-.13.33v.36h-.88Z"/>
      <path d="M7.21,4.26c.76,0,1.37.61,1.37,1.36,0,.43-.16.84-.45,1.16l-.65.72c-.1.11-.16.25-.16.4v.25h-.66v-.25c0-.31.11-.61.32-.84l.65-.72c.18-.2.28-.45.28-.72,0-.39-.32-.7-.71-.7h-.42c-.39,0-.71.32-.71.7h-.66c0-.75.62-1.36,1.37-1.36h.42M7.21,4.05h-.42c-.88,0-1.59.71-1.59,1.58v.22h1.1v-.22c0-.27.22-.49.49-.49h.42c.27,0,.49.22.49.49,0,.21-.08.41-.22.57l-.65.72c-.24.27-.38.62-.38.99v.25s0,.22,0,.22h1.09v-.22s0-.25,0-.25c0-.1.04-.18.1-.26l.65-.72c.32-.36.5-.82.5-1.3,0-.87-.71-1.58-1.59-1.58h0Z"/>
    </g>
  </g>
</svg>