<?xml version="1.0" encoding="UTF-8"?>
<svg id="Layer_1" xmlns="http://www.w3.org/2000/svg" version="1.1" viewBox="0 0 14 14">
  <!-- Generator: Adobe Illustrator 30.1.0, SVG Export Plug-In . SVG Version: 2.1.1 Build 136)  -->
  <circle id="Outer" cx="7" cy="7" r="6.02" fill="none" stroke="#000" stroke-width="1.96"/>
  <g>
    <g>
      <rect x="6.56" y="9.03" width=".88" height=".88"/>
      <path d="M7.28,9.18v.57h-.57v-.57h.57M7.59,8.88h-1.19v1.19h1.19v-1.19h0Z"/>
    </g>
    <g>
      <path d="M6.56,8.12v-.37c0-.31.11-.61.32-.84l.57-.63c.13-.14.2-.33.2-.52,0-.25-.21-.46-.47-.46h-.37c-.26,0-.47.21-.47.46v.15h-.88v-.15c0-.74.61-1.34,1.35-1.34h.37c.74,0,1.35.6,1.35,1.34,0,.41-.15.8-.43,1.11l-.57.63c-.06.07-.1.16-.1.25v.37h-.88Z"/>
      <path d="M7.18,4.57c.66,0,1.2.53,1.2,1.19,0,.37-.14.73-.39,1.01l-.57.63c-.09.1-.14.22-.14.35v.22h-.58v-.22c0-.27.1-.53.28-.73l.57-.63c.16-.17.24-.39.24-.63,0-.34-.28-.61-.62-.61h-.36c-.34,0-.62.28-.62.61h-.58c0-.66.54-1.19,1.2-1.19h.36M7.18,4.26h-.36c-.83,0-1.5.67-1.5,1.5v.31h1.19v-.31c0-.17.14-.31.31-.31h.36c.17,0,.31.14.31.31,0,.16-.06.3-.16.42l-.57.63c-.23.26-.36.59-.36.94v.22s0,.3,0,.3h1.18v-.3s0-.22,0-.22c0-.06.02-.1.06-.15l.57-.63c.3-.33.47-.77.47-1.21,0-.82-.67-1.5-1.5-1.5h0Z"/>
    </g>
  </g>
</svg>