<?xml version="1.0" encoding="UTF-8"?>
<svg id="Layer_1" xmlns="http://www.w3.org/2000/svg" version="1.1" viewBox="0 0 57 57">
  <!-- Generator: Adobe Illustrator 30.1.0, SVG Export Plug-In . SVG Version: 2.1.1 Build 136)  -->
  <g>
    <g>
      <rect x="26.48" y="15.16" width="4.04" height="4.04"/>
      <path d="M30.08,15.6v3.15h-3.15v-3.15h3.15M30.97,14.71h-4.93v4.93h4.93v-4.93h0Z"/>
    </g>
    <g>
      <polygon points="23.33 41.67 23.33 37.63 26.48 37.63 26.48 28.68 23.33 28.68 23.33 24.64 30.52 24.64 30.52 37.63 33.67 37.63 33.67 41.67 23.33 41.67"/>
      <path d="M30.08,25.08v12.99h3.15v3.15h-9.45v-3.15h3.15v-9.84h-3.15v-3.15h6.3M30.97,24.19h-8.08v4.93h3.15v8.06h-3.15v4.93h11.24v-4.93h-3.15v-12.99h0Z"/>
    </g>
  </g>
  <circle id="Outer" cx="28.5" cy="28.5" r="25.52" fill="none" stroke="#000" stroke-width="5.97"/>
</svg>