<?xml version="1.0" encoding="UTF-8"?>
<svg id="Layer_1" xmlns="http://www.w3.org/2000/svg" version="1.1" viewBox="0 0 89 89">
  <!-- Generator: Adobe Illustrator 30.1.0, SVG Export Plug-In . SVG Version: 2.1.1 Build 136)  -->
  <path d="M44.5,15.6c.94,0,1.88.49,2.37,1.46l6.05,12c1.04,2.06,2.97,3.52,5.24,3.94l13.08,2.45c2.04.38,2.87,2.87,1.47,4.41l-9.53,10.46c-1.47,1.61-2.15,3.8-1.87,5.96l1.86,14.1c.22,1.68-1.12,3.01-2.63,3.01-.4,0-.81-.09-1.21-.3l-11.44-5.89c-1.06-.55-2.22-.82-3.38-.82-1.16,0-2.32.27-3.38.82l-11.44,5.89c-.4.21-.81.3-1.21.3-1.51,0-2.85-1.33-2.63-3.01l1.86-14.1c.29-2.16-.4-4.34-1.87-5.95l-9.53-10.46c-1.4-1.54-.57-4.03,1.47-4.41l13.08-2.45c2.26-.42,4.2-1.88,5.23-3.94l6.05-12c.49-.97,1.43-1.46,2.37-1.46M44.5,0C37.56,0,31.32,3.85,28.19,10.04l-4.22,8.37-9.08,1.7c-6.5,1.22-11.85,5.87-13.95,12.15-2.1,6.28-.64,13.22,3.82,18.11l6.96,7.64-1.36,10.33c-.69,5.22.9,10.47,4.37,14.42,3.47,3.96,8.48,6.23,13.73,6.23,2.89,0,5.78-.7,8.36-2.03l7.67-3.95,7.68,3.95c2.58,1.33,5.47,2.03,8.36,2.03,5.25,0,10.26-2.27,13.73-6.23,3.46-3.95,5.05-9.21,4.37-14.42l-1.36-10.33,6.96-7.64c4.46-4.89,5.92-11.83,3.82-18.11-2.1-6.27-7.45-10.93-13.95-12.15l-9.08-1.7-4.22-8.37C57.68,3.85,51.43,0,44.5,0h0Z"/>
</svg>