<?xml version="1.0" encoding="UTF-8"?>
<svg id="Layer_1" xmlns="http://www.w3.org/2000/svg" version="1.1" viewBox="0 0 89 89">
  <!-- Generator: Adobe Illustrator 30.1.0, SVG Export Plug-In . SVG Version: 2.1.1 Build 136)  -->
  <path d="M44.5,12.46c1.04,0,2.08.54,2.63,1.62l6.7,13.31c1.15,2.28,3.3,3.9,5.8,4.37l14.5,2.72c2.27.42,3.19,3.18,1.63,4.89l-10.57,11.59c-1.63,1.79-2.39,4.21-2.07,6.61l2.06,15.63c.25,1.87-1.24,3.34-2.92,3.34-.44,0-.9-.1-1.35-.33l-12.68-6.53c-1.18-.61-2.46-.91-3.75-.91s-2.57.3-3.75.91l-12.68,6.53c-.44.23-.9.33-1.35.33-1.68,0-3.16-1.48-2.92-3.34l2.06-15.64c.32-2.4-.44-4.82-2.07-6.6l-10.57-11.59c-1.56-1.71-.64-4.47,1.63-4.89l14.5-2.72c2.51-.47,4.65-2.08,5.8-4.37l6.7-13.31c.54-1.08,1.59-1.62,2.63-1.62M44.5,0C38.65,0,33.38,3.25,30.74,8.47l-5.75,11.42-12.42,2.33c-5.49,1.03-10,4.96-11.77,10.25-1.77,5.3-.54,11.15,3.22,15.28l9.23,10.13-1.8,13.68c-.58,4.4.76,8.84,3.68,12.17,2.93,3.34,7.16,5.26,11.59,5.26,2.43,0,4.87-.59,7.05-1.71l10.73-5.52,10.73,5.52c2.18,1.12,4.62,1.71,7.05,1.71,4.43,0,8.66-1.92,11.59-5.26,2.92-3.33,4.26-7.77,3.68-12.17l-1.8-13.68,9.24-10.14c3.76-4.13,5-9.98,3.22-15.28-1.77-5.29-6.28-9.22-11.77-10.25l-12.42-2.33-5.75-11.42C55.62,3.25,50.35,0,44.5,0h0Z"/>
</svg>