<?xml version="1.0" encoding="UTF-8"?>
<svg id="Layer_1" xmlns="http://www.w3.org/2000/svg" version="1.1" viewBox="0 0 89 89">
  <!-- Generator: Adobe Illustrator 30.1.0, SVG Export Plug-In . SVG Version: 2.1.1 Build 136)  -->
  <path d="M44.5,9.32c1.14,0,2.29.59,2.89,1.78l7.36,14.61c1.26,2.51,3.62,4.28,6.37,4.8l15.92,2.98c2.49.47,3.5,3.49,1.79,5.37l-11.6,12.73c-1.79,1.96-2.62,4.62-2.27,7.26l2.26,17.17c.27,2.05-1.36,3.67-3.2,3.67-.49,0-.99-.11-1.48-.36l-13.93-7.17c-1.29-.66-2.7-1-4.11-1-1.41,0-2.82.33-4.11,1l-13.93,7.17c-.49.25-.99.36-1.48.36-1.84,0-3.47-1.62-3.2-3.67l2.26-17.17c.35-2.63-.48-5.29-2.27-7.25l-11.6-12.73c-1.71-1.88-.7-4.9,1.79-5.37l15.92-2.98c2.75-.52,5.11-2.29,6.37-4.79l7.36-14.61c.6-1.19,1.74-1.78,2.89-1.78M44.5,0c-4.77,0-9.06,2.65-11.21,6.9l-7.29,14.47-15.76,2.95c-4.47.84-8.14,4.04-9.59,8.35-1.45,4.32-.44,9.09,2.63,12.45l11.51,12.63-2.25,17.03c-.47,3.59.62,7.2,3,9.91,2.39,2.73,5.83,4.29,9.44,4.29,1.98,0,3.97-.48,5.74-1.4l13.78-7.1,13.78,7.1c1.78.91,3.76,1.4,5.74,1.4,3.61,0,7.05-1.56,9.44-4.29,2.38-2.71,3.47-6.33,3-9.91l-2.25-17.03,11.51-12.63c3.07-3.36,4.07-8.13,2.63-12.45-1.44-4.31-5.12-7.51-9.59-8.35l-15.76-2.95-7.29-14.47c-2.15-4.26-6.44-6.9-11.21-6.9h0Z"/>
</svg>