<?xml version="1.0" encoding="UTF-8"?>
<svg id="Layer_1" xmlns="http://www.w3.org/2000/svg" version="1.1" viewBox="0 0 70 70">
  <!-- Generator: Adobe Illustrator 30.1.0, SVG Export Plug-In . SVG Version: 2.1.1 Build 136)  -->
  <circle id="Outer" cx="35" cy="35" r="28.86" fill="none" stroke="#000" stroke-width="12.27"/>
  <g>
    <g>
      <rect x="32.77" y="44.21" width="4.43" height="4.43"/>
      <path d="M36.22,45.19v2.47h-2.47v-2.47h2.47M38.18,43.22h-6.4v6.4h6.4v-6.4h0Z"/>
    </g>
    <g>
      <path d="M32.78,39.88l-.02-1.91c0-1.42.53-2.77,1.48-3.82l2.44-2.71c.5-.56.78-1.28.78-2.03,0-.91-.75-1.66-1.68-1.66h-1.57c-.92,0-1.68.74-1.68,1.66v.98h-4.46v-.98c0-3.36,2.75-6.1,6.13-6.1h1.57c3.38,0,6.13,2.74,6.13,6.1,0,1.85-.68,3.62-1.93,5l-2.44,2.71c-.22.24-.33.54-.34.85l-.02,1.91h-4.42Z"/>
      <path d="M35.78,24.31c2.84,0,5.15,2.29,5.15,5.11,0,1.6-.59,3.14-1.67,4.34l-2.44,2.71c-.38.42-.59.94-.59,1.5v.93h-2.48v-.93c0-1.17.43-2.28,1.21-3.15l2.44-2.71c.67-.74,1.04-1.7,1.04-2.69,0-1.46-1.19-2.64-2.66-2.64h-1.57c-1.47,0-2.66,1.19-2.66,2.64h-2.49c0-2.82,2.31-5.11,5.15-5.11h1.57M35.78,22.34h-1.57c-3.92,0-7.12,3.18-7.12,7.08v1.97h6.43v-1.97c0-.37.31-.67.69-.67h1.57c.38,0,.69.3.69.67,0,.51-.19.99-.53,1.37l-2.44,2.71c-1.11,1.23-1.72,2.81-1.73,4.46v.96s.03,1.95.03,1.95h6.37l.02-1.95v-.93c0-.06.02-.12.09-.2l2.44-2.71c1.41-1.56,2.18-3.57,2.18-5.66,0-3.9-3.19-7.08-7.12-7.08h0Z"/>
    </g>
  </g>
</svg>