<?xml version="1.0" encoding="UTF-8"?>
<svg id="Layer_1" xmlns="http://www.w3.org/2000/svg" version="1.1" viewBox="0 0 70 70">
  <!-- Generator: Adobe Illustrator 30.1.0, SVG Export Plug-In . SVG Version: 2.1.1 Build 136)  -->
  <circle id="Outer" cx="35" cy="35" r="31.34" fill="none" stroke="#000" stroke-width="7.33"/>
  <g>
    <g>
      <rect x="32.79" y="46.09" width="4.38" height="4.38"/>
      <path d="M36.62,46.64v3.29h-3.29v-3.29h3.29M37.72,45.54h-5.47v5.47h5.47v-5.47h0Z"/>
    </g>
    <g>
      <path d="M32.8,41.32l-.02-1.79c0-1.7.63-3.32,1.77-4.57l3.26-3.61c.8-.89,1.24-2.03,1.24-3.22,0-1.64-1.35-2.98-3-2.98h-2.09c-1.65,0-3,1.34-3,2.98v.55h-4.41v-.55c0-4.06,3.32-7.36,7.41-7.36h2.09c4.09,0,7.41,3.3,7.41,7.36,0,2.27-.84,4.46-2.37,6.15l-3.26,3.61c-.42.46-.64,1.03-.65,1.64l-.02,1.79h-4.37Z"/>
      <path d="M36.05,21.32c3.79,0,6.86,3.06,6.86,6.82,0,2.14-.79,4.19-2.23,5.78l-3.26,3.61c-.5.56-.78,1.25-.79,2v1.24h-3.3v-1.24c0-1.56.57-3.04,1.62-4.2l3.26-3.61c.89-.99,1.38-2.26,1.38-3.59,0-1.94-1.59-3.52-3.55-3.52h-2.09c-1.96,0-3.55,1.58-3.55,3.52h-3.32c0-3.76,3.08-6.82,6.86-6.82h2.09M36.05,20.23h-2.09c-4.39,0-7.96,3.55-7.96,7.91v1.09h5.5v-1.09c0-1.34,1.1-2.43,2.45-2.43h2.09c1.35,0,2.45,1.09,2.45,2.43,0,1.05-.39,2.07-1.1,2.85l-3.26,3.61c-1.22,1.35-1.9,3.11-1.91,4.93v1.26s.02,1.08.02,1.08h5.45v-1.08s.02-1.24.02-1.24c0-.48.18-.92.5-1.28l3.26-3.61c1.62-1.79,2.51-4.11,2.51-6.52,0-4.36-3.57-7.91-7.96-7.91h0Z"/>
    </g>
  </g>
</svg>