<?xml version="1.0" encoding="UTF-8"?>
<svg id="Layer_1" xmlns="http://www.w3.org/2000/svg" version="1.1" viewBox="0 0 41 41">
  <!-- Generator: Adobe Illustrator 30.1.0, SVG Export Plug-In . SVG Version: 2.1.1 Build 136)  -->
  <path d="M20.5,7.19c.43,0,.87.22,1.09.67l2.79,5.53c.48.95,1.37,1.62,2.41,1.82l6.03,1.13c.94.18,1.32,1.32.68,2.03l-4.39,4.82c-.68.74-.99,1.75-.86,2.75l.86,6.5c.1.77-.52,1.39-1.21,1.39-.18,0-.37-.04-.56-.14l-5.27-2.71c-.49-.25-1.02-.38-1.56-.38s-1.07.13-1.56.38l-5.27,2.71c-.18.09-.37.14-.56.14-.7,0-1.31-.61-1.21-1.39l.86-6.5c.13-1-.18-2-.86-2.74l-4.39-4.82c-.65-.71-.26-1.86.68-2.03l6.02-1.13c1.04-.2,1.93-.87,2.41-1.81l2.79-5.53c.23-.45.66-.67,1.09-.67M20.5,0c-3.2,0-6.07,1.77-7.51,4.63l-1.94,3.86-4.18.78c-3,.56-5.46,2.71-6.43,5.6-.97,2.89-.29,6.09,1.76,8.34l3.21,3.52-.63,4.76c-.32,2.4.42,4.83,2.01,6.64,1.6,1.83,3.91,2.87,6.33,2.87,1.33,0,2.66-.32,3.85-.94l3.54-1.82,3.54,1.82c1.19.61,2.52.94,3.85.94,2.42,0,4.73-1.05,6.33-2.87,1.59-1.82,2.33-4.24,2.01-6.64l-.63-4.76,3.21-3.52c2.05-2.25,2.73-5.45,1.76-8.34-.97-2.89-3.43-5.03-6.43-5.6l-4.18-.78-1.94-3.86c-1.44-2.85-4.32-4.63-7.51-4.63h0Z"/>
</svg>