<?xml version="1.0" encoding="UTF-8"?>
<svg id="Layer_1" xmlns="http://www.w3.org/2000/svg" version="1.1" viewBox="0 0 28 28">
  <!-- Generator: Adobe Illustrator 30.1.0, SVG Export Plug-In . SVG Version: 2.1.1 Build 136)  -->
  <circle id="Outer" cx="14" cy="14" r="12.04" fill="none" stroke="#000" stroke-width="3.92"/>
  <g>
    <g>
      <rect x="13.11" y="18.06" width="1.76" height="1.76"/>
      <path d="M14.57,18.37v1.15h-1.15v-1.15h1.15M15.18,17.75h-2.37v2.37h2.37v-2.37h0Z"/>
    </g>
    <g>
      <path d="M13.12,16.23v-.74c0-.62.23-1.22.64-1.67l1.14-1.26c.26-.29.4-.66.4-1.05,0-.51-.42-.92-.93-.92h-.73c-.51,0-.93.41-.93.92v.31h-1.77v-.31c0-1.48,1.21-2.68,2.7-2.68h.73c1.49,0,2.7,1.2,2.7,2.68,0,.82-.3,1.61-.86,2.22l-1.14,1.26c-.13.14-.19.31-.2.49v.74h-1.76Z"/>
      <path d="M14.36,9.14c1.32,0,2.39,1.07,2.39,2.38,0,.75-.28,1.46-.78,2.02l-1.14,1.26c-.18.19-.27.44-.27.7v.43h-1.15v-.43c0-.54.2-1.06.56-1.47l1.14-1.26c.31-.34.48-.79.48-1.25,0-.68-.56-1.23-1.24-1.23h-.73c-.68,0-1.24.55-1.24,1.23h-1.16c0-1.31,1.07-2.38,2.39-2.38h.73M14.36,8.53h-.73c-1.66,0-3.01,1.34-3.01,2.99v.61h2.38v-.61c0-.34.28-.62.63-.62h.73c.34,0,.63.28.63.62,0,.31-.12.61-.32.84l-1.14,1.26c-.47.51-.72,1.18-.73,1.87v.44s0,.61,0,.61h2.36v-.61s.01-.43.01-.43c0-.11.04-.21.12-.29l1.14-1.26c.6-.67.94-1.53.94-2.43,0-1.65-1.35-2.99-3.01-2.99h0Z"/>
    </g>
  </g>
</svg>