<?xml version="1.0" encoding="UTF-8"?>
<svg id="Layer_1" xmlns="http://www.w3.org/2000/svg" version="1.1" viewBox="0 0 87 87">
  <!-- Generator: Adobe Illustrator 30.1.0, SVG Export Plug-In . SVG Version: 2.1.1 Build 136)  -->
  <circle id="Outer" cx="43.5" cy="43.5" r="38.95" fill="none" stroke="#000" stroke-width="9.11"/>
  <g>
    <g>
      <rect x="40.75" y="57.28" width="5.45" height="5.45"/>
      <path d="M45.52,57.96v4.09h-4.09v-4.09h4.09M46.88,56.6h-6.8v6.8h6.8v-6.8h0Z"/>
    </g>
    <g>
      <path d="M40.76,51.36l-.02-2.22c0-2.11.79-4.12,2.2-5.69l4.04-4.48c1-1.1,1.54-2.52,1.54-4,0-2.04-1.67-3.7-3.73-3.7h-2.6c-2.06,0-3.73,1.66-3.73,3.7v.68h-5.48v-.68c0-5.05,4.13-9.15,9.21-9.15h2.6c5.08,0,9.21,4.11,9.21,9.15,0,2.83-1.05,5.54-2.95,7.64l-4.05,4.48c-.52.58-.8,1.28-.8,2.04l-.02,2.22h-5.43Z"/>
      <path d="M44.8,26.5c4.7,0,8.53,3.8,8.53,8.47,0,2.66-.98,5.21-2.77,7.19l-4.05,4.48c-.63.69-.97,1.56-.98,2.49l-.02,1.55h-4.09v-1.55c0-1.94.71-3.78,2.01-5.22l4.05-4.48c1.11-1.23,1.72-2.81,1.72-4.46,0-2.41-1.98-4.38-4.41-4.38h-2.6c-2.43,0-4.41,1.96-4.41,4.38h-4.12c0-4.67,3.83-8.47,8.53-8.47h2.6M44.8,25.14h-2.6c-5.45,0-9.89,4.41-9.89,9.83v1.36h6.84v-1.36c0-1.66,1.37-3.02,3.05-3.02h2.6c1.68,0,3.05,1.35,3.05,3.02,0,1.31-.49,2.57-1.37,3.55l-4.05,4.48c-1.52,1.68-2.37,3.86-2.37,6.13v1.56s.03,1.35.03,1.35h6.78v-1.35s.03-1.55.03-1.55c0-.59.22-1.14.63-1.59l4.05-4.49c2.01-2.23,3.12-5.11,3.12-8.1,0-5.42-4.44-9.83-9.89-9.83h0Z"/>
    </g>
  </g>
</svg>