<?xml version="1.0" encoding="UTF-8"?>
<svg id="Layer_1" xmlns="http://www.w3.org/2000/svg" version="1.1" viewBox="0 0 90 90">
  <!-- Generator: Adobe Illustrator 30.1.0, SVG Export Plug-In . SVG Version: 2.1.1 Build 136)  -->
  <circle id="Outer" cx="45" cy="45" r="38.7" fill="none" stroke="#000" stroke-width="12.6"/>
  <g>
    <g>
      <rect x="42.15" y="58.05" width="5.65" height="5.66"/>
      <path d="M46.82,59.04v3.69h-3.69v-3.69h3.69M48.79,57.07h-7.62v7.62h7.62v-7.62h0Z"/>
    </g>
    <g>
      <path d="M42.16,52.17l-.02-2.37c0-2,.75-3.91,2.08-5.38l3.65-4.04c.84-.93,1.3-2.12,1.3-3.36,0-1.64-1.34-2.97-2.99-2.97h-2.35c-1.65,0-2.99,1.33-2.99,2.97v.98h-5.69v-.98c0-4.76,3.89-8.63,8.68-8.63h2.35c4.79,0,8.68,3.87,8.68,8.63,0,2.64-.98,5.18-2.75,7.14l-3.65,4.05c-.41.45-.63,1-.63,1.59l-.02,2.37h-5.64Z"/>
      <path d="M46.17,29.37c4.24,0,7.7,3.43,7.7,7.64,0,2.4-.89,4.7-2.5,6.48l-3.65,4.05c-.57.63-.88,1.4-.88,2.24v1.39h-3.7v-1.39c0-1.75.64-3.41,1.81-4.71l3.65-4.04c1-1.11,1.55-2.53,1.55-4.02,0-2.18-1.78-3.95-3.98-3.95h-2.34c-2.19,0-3.98,1.77-3.98,3.95h-3.72c0-4.21,3.45-7.64,7.7-7.64h2.34M46.17,27.4h-2.34c-5.33,0-9.67,4.31-9.67,9.61v1.97h7.66v-1.97c0-1.09.9-1.98,2.01-1.98h2.34c1.11,0,2.01.89,2.01,1.98,0,1-.37,1.96-1.04,2.7l-3.65,4.04c-1.5,1.65-2.32,3.79-2.33,6.02v1.42s.03,1.95.03,1.95h7.59l.02-1.95v-1.39c.02-.36.14-.67.39-.94l3.65-4.05c1.94-2.15,3.01-4.92,3.01-7.8,0-5.3-4.34-9.61-9.67-9.61h0Z"/>
    </g>
  </g>
</svg>