<?xml version="1.0" encoding="UTF-8"?>
<svg id="Layer_1" xmlns="http://www.w3.org/2000/svg" version="1.1" viewBox="0 0 33 33">
  <!-- Generator: Adobe Illustrator 30.1.0, SVG Export Plug-In . SVG Version: 2.1.1 Build 136)  -->
  <path d="M16.5,5.79c.35,0,.7.18.88.54l2.24,4.45c.38.76,1.1,1.3,1.94,1.46l4.85.91c.76.14,1.07,1.06.55,1.63l-3.53,3.88c-.55.6-.8,1.41-.69,2.21l.69,5.23c.08.62-.41,1.12-.98,1.12-.15,0-.3-.03-.45-.11l-4.24-2.18c-.39-.2-.82-.3-1.25-.3s-.86.1-1.25.3l-4.24,2.18c-.15.08-.3.11-.45.11-.56,0-1.06-.49-.98-1.12l.69-5.23c.11-.8-.15-1.61-.69-2.21l-3.53-3.88c-.52-.57-.21-1.49.55-1.64l4.85-.91c.84-.16,1.56-.7,1.94-1.46l2.24-4.45c.18-.36.53-.54.88-.54M16.5,0C13.93,0,11.61,1.43,10.45,3.72l-1.56,3.11-3.37.63c-2.41.45-4.39,2.18-5.17,4.5-.78,2.33-.24,4.9,1.42,6.71l2.58,2.83-.51,3.83c-.26,1.93.33,3.88,1.62,5.35,1.29,1.47,3.14,2.31,5.09,2.31,1.07,0,2.14-.26,3.1-.75l2.85-1.47,2.85,1.47c.96.49,2.03.75,3.1.75,1.95,0,3.8-.84,5.09-2.31,1.28-1.46,1.87-3.41,1.62-5.35l-.51-3.83,2.58-2.83c1.65-1.81,2.2-4.39,1.42-6.71-.78-2.33-2.76-4.05-5.17-4.5l-3.37-.63-1.56-3.11C21.39,1.43,19.07,0,16.5,0h0Z"/>
</svg>