<?xml version="1.0" encoding="UTF-8"?>
<svg id="Layer_1" xmlns="http://www.w3.org/2000/svg" version="1.1" viewBox="0 0 33 33">
  <!-- Generator: Adobe Illustrator 30.1.0, SVG Export Plug-In . SVG Version: 2.1.1 Build 136)  -->
  <path d="M16.5,4.62c.39,0,.77.2.97.6l2.49,4.93c.43.85,1.22,1.45,2.15,1.62l5.38,1.01c.84.16,1.18,1.18.6,1.81l-3.92,4.3c-.6.66-.89,1.56-.77,2.45l.76,5.8c.09.69-.46,1.24-1.08,1.24-.16,0-.33-.04-.5-.12l-4.7-2.42c-.44-.22-.91-.34-1.39-.34-.48,0-.95.11-1.39.34l-4.7,2.42c-.16.08-.33.12-.5.12-.62,0-1.17-.55-1.08-1.24l.76-5.8c.12-.89-.16-1.79-.77-2.45l-3.92-4.3c-.58-.63-.24-1.66.61-1.81l5.38-1.01c.93-.17,1.72-.77,2.15-1.62l2.49-4.93c.2-.4.59-.6.97-.6M16.5,0c-2.17,0-4.12,1.2-5.1,3.14l-2.13,4.24-4.6.86c-2.03.38-3.71,1.84-4.36,3.8-.66,1.96-.2,4.13,1.19,5.67l3.42,3.76-.67,5.07c-.22,1.63.28,3.28,1.36,4.51,1.09,1.24,2.65,1.95,4.3,1.95.9,0,1.81-.22,2.61-.64l3.98-2.05,3.98,2.05c.81.42,1.71.64,2.61.64,1.64,0,3.21-.71,4.3-1.95,1.08-1.23,1.58-2.88,1.36-4.51l-.67-5.07,3.42-3.76c1.39-1.53,1.85-3.7,1.19-5.66-.66-1.96-2.33-3.42-4.36-3.8l-4.61-.86-2.13-4.24c-.98-1.94-2.93-3.14-5.1-3.14h0Z"/>
</svg>