<?xml version="1.0" encoding="UTF-8"?>
<svg id="Layer_1" xmlns="http://www.w3.org/2000/svg" version="1.1" viewBox="0 0 71 71">
  <!-- Generator: Adobe Illustrator 30.1.0, SVG Export Plug-In . SVG Version: 2.1.1 Build 136)  -->
  <path d="M35.5,12.45c.75,0,1.5.39,1.89,1.17l4.82,9.57c.83,1.64,2.37,2.8,4.18,3.14l10.43,1.96c1.63.31,2.29,2.29,1.17,3.52l-7.6,8.34c-1.17,1.29-1.72,3.03-1.49,4.76l1.48,11.25c.18,1.34-.89,2.4-2.1,2.4-.32,0-.65-.07-.97-.24l-9.13-4.7c-.85-.44-1.77-.65-2.7-.65s-1.85.22-2.7.65l-9.13,4.7c-.32.16-.65.24-.97.24-1.21,0-2.28-1.06-2.1-2.4l1.48-11.25c.23-1.73-.32-3.46-1.49-4.75l-7.6-8.34c-1.12-1.23-.46-3.21,1.17-3.52l10.43-1.96c1.8-.34,3.35-1.5,4.17-3.14l4.82-9.57c.39-.78,1.14-1.17,1.89-1.17M35.5,0c-5.53,0-10.52,3.07-13.01,8.01l-3.37,6.68-7.24,1.36c-5.19.97-9.45,4.69-11.13,9.69-1.68,5.01-.51,10.54,3.05,14.45l5.55,6.09-1.09,8.24c-.55,4.16.72,8.36,3.48,11.51,2.77,3.16,6.76,4.97,10.96,4.97,2.3,0,4.61-.56,6.67-1.62l6.12-3.15,6.12,3.15c2.06,1.06,4.36,1.62,6.67,1.62,4.19,0,8.19-1.81,10.96-4.97,2.76-3.15,4.03-7.34,3.48-11.51l-1.09-8.24,5.56-6.1c3.56-3.9,4.72-9.44,3.05-14.44-1.68-5.01-5.94-8.72-11.13-9.69l-7.24-1.36-3.37-6.68c-2.49-4.94-7.47-8.01-13.01-8.01h0Z"/>
</svg>