<?xml version="1.0" encoding="UTF-8"?>
<svg id="Layer_1" xmlns="http://www.w3.org/2000/svg" version="1.1" viewBox="0 0 71 71">
  <!-- Generator: Adobe Illustrator 30.1.0, SVG Export Plug-In . SVG Version: 2.1.1 Build 136)  -->
  <path d="M35.5,7.43c.91,0,1.83.47,2.3,1.42l5.87,11.66c1.01,2,2.89,3.42,5.08,3.83l12.7,2.38c1.99.37,2.79,2.79,1.43,4.28l-9.26,10.16c-1.43,1.57-2.09,3.69-1.81,5.79l1.81,13.69c.22,1.63-1.09,2.93-2.56,2.93-.39,0-.79-.09-1.18-.29l-11.11-5.72c-1.03-.53-2.16-.8-3.28-.8-1.13,0-2.25.27-3.28.8l-11.11,5.72c-.39.2-.79.29-1.18.29-1.47,0-2.77-1.29-2.56-2.93l1.81-13.7c.28-2.1-.39-4.22-1.81-5.78l-9.26-10.16c-1.36-1.5-.56-3.91,1.43-4.28l12.7-2.38c2.2-.41,4.08-1.83,5.08-3.82l5.87-11.66c.48-.95,1.39-1.42,2.3-1.42M35.5,0C31.7,0,28.27,2.11,26.56,5.51l-5.82,11.55-12.57,2.36c-3.57.67-6.5,3.22-7.65,6.66-1.15,3.44-.35,7.25,2.09,9.93l9.18,10.07-1.79,13.59c-.38,2.86.49,5.75,2.39,7.91,1.91,2.18,4.65,3.42,7.53,3.42,1.58,0,3.16-.39,4.58-1.12l10.99-5.66,10.99,5.66c1.42.73,3,1.12,4.58,1.12,2.88,0,5.63-1.25,7.53-3.42,1.9-2.16,2.77-5.05,2.39-7.91l-1.79-13.59,9.18-10.07c2.45-2.68,3.25-6.49,2.09-9.93-1.15-3.44-4.08-5.99-7.65-6.66l-12.58-2.36-5.82-11.55C42.73,2.11,39.3,0,35.5,0h0Z"/>
</svg>