<?xml version="1.0" encoding="UTF-8"?>
<svg id="Layer_1" xmlns="http://www.w3.org/2000/svg" version="1.1" viewBox="0 0 83 83">
  <!-- Generator: Adobe Illustrator 30.1.0, SVG Export Plug-In . SVG Version: 2.1.1 Build 136)  -->
  <g>
    <g>
      <rect x="38.56" y="22.07" width="5.89" height="5.89"/>
      <path d="M43.79,22.72v4.59h-4.59v-4.59h4.59M45.09,21.43h-7.18v7.18h7.18v-7.18h0Z"/>
    </g>
    <g>
      <polygon points="33.97 60.68 33.97 54.79 38.56 54.79 38.56 41.76 33.97 41.76 33.97 35.88 44.44 35.88 44.44 54.79 49.03 54.79 49.03 60.68 33.97 60.68"/>
      <path d="M43.79,36.53v18.91h4.59v4.59h-13.77v-4.59h4.59v-14.33h-4.59v-4.59h9.18M45.09,35.23h-11.77v7.18h4.59v11.73h-4.59v7.18h16.36v-7.18h-4.59v-18.91h0Z"/>
    </g>
  </g>
  <circle id="Outer" cx="41.5" cy="41.5" r="37.16" fill="none" stroke="#000" stroke-width="8.69"/>
</svg>