<?xml version="1.0" encoding="UTF-8"?>
<svg id="Layer_1" xmlns="http://www.w3.org/2000/svg" version="1.1" viewBox="0 0 121 121">
  <!-- Generator: Adobe Illustrator 30.1.0, SVG Export Plug-In . SVG Version: 2.1.1 Build 136)  -->
  <path d="M60.5,16.94c1.42,0,2.83.73,3.57,2.2l9.11,18.09c1.56,3.1,4.48,5.3,7.89,5.94l19.72,3.7c3.08.58,4.33,4.32,2.22,6.65l-14.36,15.76c-2.22,2.43-3.25,5.72-2.82,8.99l2.8,21.25c.33,2.54-1.69,4.54-3.97,4.54-.6,0-1.23-.14-1.83-.45l-17.24-8.88c-1.6-.82-3.35-1.23-5.09-1.23s-3.5.41-5.09,1.23l-17.24,8.88c-.6.31-1.22.45-1.83.45-2.28,0-4.3-2.01-3.97-4.54l2.8-21.26c.43-3.26-.6-6.55-2.81-8.98l-14.37-15.76c-2.12-2.32-.86-6.07,2.22-6.65l19.71-3.7c3.41-.64,6.32-2.83,7.89-5.94l9.11-18.09c.74-1.47,2.16-2.2,3.57-2.2M60.5,0C52.54,0,45.38,4.41,41.8,11.52l-7.82,15.53-16.88,3.16c-7.46,1.4-13.59,6.74-16,13.94-2.41,7.2-.73,15.16,4.38,20.77l12.55,13.78-2.45,18.6c-.79,5.99,1.03,12.02,5,16.54,3.99,4.55,9.73,7.16,15.76,7.16,3.31,0,6.62-.81,9.58-2.33l14.58-7.51,14.58,7.51c2.96,1.52,6.28,2.33,9.58,2.33,6.03,0,11.77-2.61,15.76-7.16,3.97-4.53,5.79-10.56,5-16.54l-2.45-18.6,12.56-13.78c5.11-5.61,6.79-13.57,4.38-20.77-2.41-7.2-8.54-12.54-16-13.93l-16.89-3.17-7.82-15.53C75.62,4.41,68.45,0,60.5,0h0Z"/>
</svg>