<?xml version="1.0" encoding="UTF-8"?>
<svg id="Layer_1" xmlns="http://www.w3.org/2000/svg" version="1.1" viewBox="0 0 121 121">
  <!-- Generator: Adobe Illustrator 30.1.0, SVG Export Plug-In . SVG Version: 2.1.1 Build 136)  -->
  <path d="M60.5,21.21c1.28,0,2.55.66,3.22,1.99l8.22,16.32c1.41,2.8,4.04,4.78,7.12,5.36l17.78,3.33c2.78.52,3.91,3.9,2,5.99l-12.96,14.22c-2,2.19-2.93,5.16-2.54,8.11l2.53,19.17c.3,2.29-1.52,4.1-3.58,4.1-.55,0-1.11-.13-1.65-.41l-15.55-8.01c-1.44-.74-3.02-1.11-4.59-1.11s-3.15.37-4.59,1.11l-15.55,8.01c-.54.28-1.1.41-1.65.41-2.06,0-3.88-1.81-3.58-4.1l2.53-19.17c.39-2.94-.54-5.9-2.54-8.1l-12.96-14.22c-1.91-2.09-.78-5.48,2-6l17.78-3.33c3.07-.58,5.7-2.56,7.11-5.35l8.22-16.32c.67-1.32,1.94-1.99,3.22-1.99M60.5,0c-9.43,0-17.92,5.23-22.17,13.66l-5.74,11.39-12.34,2.31c-8.84,1.66-16.11,7.99-18.96,16.52-2.86,8.53-.87,17.97,5.19,24.62l9.46,10.39-1.85,14.04c-.94,7.09,1.23,14.24,5.93,19.61,4.72,5.39,11.53,8.48,18.67,8.48,3.93,0,7.85-.95,11.36-2.76l10.43-5.37,10.43,5.37c3.51,1.81,7.44,2.76,11.36,2.76,7.14,0,13.95-3.09,18.67-8.48,4.71-5.37,6.87-12.52,5.93-19.61l-1.85-14.04,9.47-10.39c6.06-6.65,8.05-16.08,5.19-24.62-2.86-8.53-10.12-14.86-18.96-16.52l-12.35-2.31-5.74-11.39C78.42,5.23,69.93,0,60.5,0h0Z"/>
</svg>