<?xml version="1.0" encoding="UTF-8"?>
<svg id="Layer_1" xmlns="http://www.w3.org/2000/svg" version="1.1" viewBox="0 0 45 45">
  <!-- Generator: Adobe Illustrator 30.1.0, SVG Export Plug-In . SVG Version: 2.1.1 Build 136)  -->
  <path d="M22.5,6.3c.53,0,1.05.27,1.33.82l3.39,6.73c.58,1.15,1.67,1.97,2.93,2.21l7.33,1.37c1.15.21,1.61,1.61.82,2.47l-5.34,5.86c-.82.9-1.21,2.13-1.05,3.34l1.04,7.9c.12.94-.63,1.69-1.47,1.69-.22,0-.46-.05-.68-.17l-6.41-3.3c-.59-.31-1.24-.46-1.89-.46-.65,0-1.3.15-1.89.46l-6.41,3.3c-.22.12-.46.17-.68.17-.85,0-1.6-.75-1.47-1.69l1.04-7.91c.16-1.21-.22-2.43-1.05-3.34l-5.34-5.86c-.79-.86-.32-2.26.83-2.47l7.33-1.37c1.27-.24,2.35-1.05,2.93-2.21l3.39-6.73c.28-.55.8-.82,1.33-.82M22.5,0C19.54,0,16.88,1.64,15.54,4.29l-2.91,5.78-6.28,1.18c-2.77.52-5.05,2.51-5.95,5.18-.9,2.68-.27,5.64,1.63,7.73l4.67,5.12-.91,6.92c-.29,2.23.38,4.47,1.86,6.15,1.48,1.69,3.62,2.66,5.86,2.66,1.23,0,2.46-.3,3.56-.87l5.42-2.79,5.42,2.79c1.1.57,2.33.87,3.56.87,2.24,0,4.38-.97,5.86-2.66,1.48-1.68,2.15-3.93,1.86-6.15l-.91-6.92,4.67-5.12c1.9-2.09,2.53-5.05,1.63-7.72-.9-2.68-3.18-4.66-5.95-5.18l-6.28-1.18-2.91-5.78C28.12,1.64,25.46,0,22.5,0h0Z"/>
</svg>