<?xml version="1.0" encoding="UTF-8"?>
<svg id="Layer_1" xmlns="http://www.w3.org/2000/svg" version="1.1" viewBox="0 0 45 45">
  <!-- Generator: Adobe Illustrator 30.1.0, SVG Export Plug-In . SVG Version: 2.1.1 Build 136)  -->
  <path d="M22.5,4.71c.58,0,1.16.3,1.46.9l3.72,7.39c.64,1.27,1.83,2.16,3.22,2.43l8.05,1.51c1.26.24,1.77,1.77.91,2.71l-5.87,6.44c-.91.99-1.33,2.34-1.15,3.67l1.14,8.68c.14,1.04-.69,1.86-1.62,1.86-.25,0-.5-.06-.75-.18l-7.04-3.63c-.65-.34-1.37-.5-2.08-.5-.71,0-1.43.17-2.08.5l-7.04,3.63c-.25.13-.5.18-.75.18-.93,0-1.76-.82-1.62-1.86l1.15-8.68c.18-1.33-.24-2.67-1.15-3.67l-5.87-6.44c-.86-.95-.35-2.48.91-2.72l8.05-1.51c1.39-.26,2.58-1.16,3.22-2.42l3.72-7.39c.3-.6.88-.9,1.46-.9M22.5,0C20.09,0,17.92,1.34,16.83,3.49l-3.69,7.32-7.97,1.49c-2.26.42-4.12,2.04-4.85,4.22-.73,2.18-.22,4.6,1.33,6.3l5.82,6.38-1.14,8.61c-.24,1.81.31,3.64,1.52,5.01,1.21,1.38,2.95,2.17,4.78,2.17,1,0,2.01-.24,2.9-.71l6.97-3.59,6.97,3.59c.9.46,1.9.71,2.9.71,1.83,0,3.57-.79,4.77-2.17,1.2-1.37,1.75-3.2,1.52-5.01l-1.14-8.61,5.82-6.39c1.55-1.7,2.06-4.11,1.33-6.3-.73-2.18-2.59-3.8-4.85-4.22l-7.97-1.49-3.69-7.32C27.08,1.34,24.91,0,22.5,0h0Z"/>
</svg>