<?xml version="1.0" encoding="UTF-8"?>
<svg id="Layer_1" xmlns="http://www.w3.org/2000/svg" version="1.1" viewBox="0 0 61 61">
  <!-- Generator: Adobe Illustrator 30.1.0, SVG Export Plug-In . SVG Version: 2.1.1 Build 136)  -->
  <circle id="Outer" cx="30.5" cy="30.5" r="27.31" fill="none" stroke="#000" stroke-width="6.39"/>
  <g>
    <g>
      <rect x="28.57" y="40.16" width="3.82" height="3.82"/>
      <path d="M31.91,40.64v2.86h-2.86v-2.86h2.86M32.87,39.69h-4.77v4.77h4.77v-4.77h0Z"/>
    </g>
    <g>
      <path d="M28.58,36.01v-1.56c0-1.48.54-2.89,1.53-3.99l2.84-3.14c.7-.77,1.08-1.77,1.08-2.81,0-1.43-1.17-2.59-2.62-2.59h-1.82c-1.44,0-2.62,1.16-2.62,2.59v.48h-3.84v-.48c0-3.54,2.9-6.42,6.46-6.42h1.82c3.56,0,6.46,2.88,6.46,6.42,0,1.98-.73,3.88-2.07,5.36l-2.84,3.14c-.37.41-.56.9-.56,1.43l-.02,1.56h-3.81Z"/>
      <path d="M31.41,18.58c3.3,0,5.98,2.67,5.98,5.94,0,1.86-.69,3.65-1.94,5.04l-2.84,3.14c-.44.49-.68,1.09-.69,1.74v1.08h-2.88v-1.08c0-1.36.5-2.65,1.41-3.66l2.84-3.14c.78-.86,1.2-1.97,1.2-3.12,0-1.69-1.39-3.07-3.09-3.07h-1.82c-1.7,0-3.09,1.38-3.09,3.07h-2.89c0-3.27,2.68-5.94,5.98-5.94h1.82M31.41,17.63h-1.82c-3.82,0-6.94,3.09-6.94,6.89v.95h4.8v-.95c0-1.17.96-2.12,2.14-2.12h1.82c1.18,0,2.14.95,2.14,2.12,0,.92-.34,1.8-.96,2.49l-2.84,3.14c-1.07,1.18-1.66,2.71-1.66,4.3v1.1s.02.94.02.94h4.75v-.94s.02-1.08.02-1.08c0-.42.15-.8.44-1.12l2.84-3.15c1.41-1.56,2.19-3.58,2.19-5.68,0-3.8-3.11-6.89-6.94-6.89h0Z"/>
    </g>
  </g>
</svg>