<?xml version="1.0" encoding="UTF-8"?>
<svg id="Layer_1" xmlns="http://www.w3.org/2000/svg" version="1.1" viewBox="0 0 61 61">
  <!-- Generator: Adobe Illustrator 30.1.0, SVG Export Plug-In . SVG Version: 2.1.1 Build 136)  -->
  <circle id="Outer" cx="30.5" cy="30.5" r="25.15" fill="none" stroke="#000" stroke-width="10.69"/>
  <g>
    <g>
      <rect x="28.55" y="38.52" width="3.86" height="3.86"/>
      <path d="M31.56,39.38v2.15h-2.15v-2.15h2.15M33.27,37.66h-5.58v5.58h5.58v-5.58h0Z"/>
    </g>
    <g>
      <path d="M28.56,34.75l-.02-1.66c0-1.24.46-2.42,1.29-3.33l2.13-2.36c.44-.49.68-1.12.68-1.77,0-.8-.66-1.45-1.46-1.45h-1.37c-.81,0-1.46.65-1.46,1.45v.86h-3.88v-.86c0-2.93,2.4-5.31,5.35-5.31h1.37c2.95,0,5.34,2.38,5.34,5.31,0,1.61-.6,3.16-1.68,4.36l-2.13,2.36c-.19.21-.29.46-.29.74l-.02,1.67h-3.85Z"/>
      <path d="M31.18,21.18c2.47,0,4.49,2,4.49,4.46,0,1.4-.52,2.74-1.46,3.78l-2.13,2.36c-.33.36-.51.82-.51,1.31v.81h-2.16v-.81c0-1.02.37-1.99,1.06-2.75l2.13-2.36c.58-.65.9-1.48.9-2.34,0-1.27-1.04-2.3-2.32-2.3h-1.37c-1.28,0-2.32,1.03-2.32,2.3h-2.17c0-2.46,2.01-4.46,4.49-4.46h1.37M31.18,19.47h-1.37c-3.42,0-6.2,2.77-6.2,6.17v1.72h5.6v-1.72c0-.32.27-.59.6-.59h1.37c.33,0,.6.26.6.59,0,.44-.16.86-.46,1.19l-2.13,2.36c-.97,1.07-1.5,2.45-1.51,3.89v.83s.02,1.7.02,1.7h5.55l.02-1.7v-.81c0-.06.02-.11.08-.18l2.13-2.36c1.22-1.36,1.9-3.11,1.9-4.93,0-3.4-2.78-6.17-6.2-6.17h0Z"/>
    </g>
  </g>
</svg>