<?xml version="1.0" encoding="UTF-8"?>
<svg id="Layer_1" xmlns="http://www.w3.org/2000/svg" version="1.1" viewBox="0 0 92 92">
  <!-- Generator: Adobe Illustrator 30.1.0, SVG Export Plug-In . SVG Version: 2.1.1 Build 136)  -->
  <path d="M46,12.88c1.08,0,2.15.56,2.72,1.68l6.93,13.75c1.19,2.36,3.41,4.03,6,4.52l14.99,2.81c2.34.44,3.29,3.29,1.69,5.05l-10.92,11.98c-1.69,1.85-2.47,4.35-2.14,6.83l2.13,16.16c.25,1.93-1.28,3.45-3.02,3.45-.46,0-.93-.11-1.39-.34l-13.11-6.75c-1.22-.63-2.54-.94-3.87-.94-1.33,0-2.66.31-3.87.94l-13.11,6.75c-.46.24-.93.34-1.39.34-1.73,0-3.27-1.53-3.02-3.45l2.13-16.16c.33-2.48-.46-4.98-2.14-6.82l-10.92-11.99c-1.61-1.77-.66-4.62,1.69-5.06l14.99-2.81c2.59-.49,4.81-2.15,6-4.51l6.93-13.76c.56-1.12,1.64-1.68,2.72-1.68M46,0C39.95,0,34.5,3.36,31.78,8.76l-5.95,11.81-12.84,2.41c-5.67,1.06-10.33,5.12-12.17,10.6-1.83,5.48-.56,11.53,3.33,15.8l9.54,10.47-1.87,14.14c-.6,4.55.79,9.14,3.8,12.58,3.03,3.46,7.4,5.44,11.98,5.44,2.52,0,5.04-.61,7.29-1.77l11.09-5.71,11.09,5.71c2.25,1.16,4.77,1.77,7.29,1.77,4.58,0,8.95-1.98,11.98-5.44,3.02-3.44,4.41-8.03,3.8-12.58l-1.87-14.14,9.55-10.48c3.89-4.27,5.16-10.32,3.33-15.79-1.83-5.47-6.49-9.53-12.16-10.59l-12.84-2.41-5.95-11.81C57.5,3.36,52.05,0,46,0h0Z"/>
</svg>