<?xml version="1.0" encoding="UTF-8"?>
<svg id="Layer_1" xmlns="http://www.w3.org/2000/svg" version="1.1" viewBox="0 0 31 31">
  <!-- Generator: Adobe Illustrator 30.1.0, SVG Export Plug-In . SVG Version: 2.1.1 Build 136)  -->
  <g>
    <g>
      <rect x="14.37" y="9.03" width="2.27" height="2.27"/>
      <path d="M16.2,9.47v1.4h-1.4v-1.4h1.4M17.07,8.6h-3.14v3.14h3.14v-3.14h0Z"/>
    </g>
    <g>
      <polygon points="12.97 21.71 12.97 19.44 14.37 19.44 14.37 15.95 12.97 15.95 12.97 13.68 16.63 13.68 16.63 19.44 18.03 19.44 18.03 21.71 12.97 21.71"/>
      <path d="M16.2,14.12v5.76h1.4v1.4h-4.19v-1.4h1.4v-4.36h-1.4v-1.4h2.79M17.07,13.24h-4.54v3.14h1.4v2.62h-1.4v3.14h5.93v-3.14h-1.4v-5.76h0Z"/>
    </g>
  </g>
  <circle id="Outer" cx="15.5" cy="15.5" r="12.78" fill="none" stroke="#000" stroke-width="5.43"/>
</svg>