<?xml version="1.0" encoding="UTF-8"?>
<svg id="Layer_1" xmlns="http://www.w3.org/2000/svg" version="1.1" viewBox="0 0 49 49">
  <!-- Generator: Adobe Illustrator 30.1.0, SVG Export Plug-In . SVG Version: 2.1.1 Build 136)  -->
  <g>
    <g>
      <rect x="22.71" y="14.28" width="3.59" height="3.59"/>
      <path d="M25.6,14.96v2.21h-2.21v-2.21h2.21M26.98,13.59h-4.96v4.96h4.96v-4.96h0Z"/>
    </g>
    <g>
      <polygon points="20.5 34.31 20.5 30.72 22.71 30.72 22.71 25.21 20.5 25.21 20.5 21.62 26.29 21.62 26.29 30.72 28.5 30.72 28.5 34.31 20.5 34.31"/>
      <path d="M25.6,22.31v9.1h2.21v2.21h-6.62v-2.21h2.21v-6.89h-2.21v-2.21h4.42M26.98,20.93h-7.17v4.96h2.21v4.14h-2.21v4.96h9.38v-4.96h-2.21v-9.1h0Z"/>
    </g>
  </g>
  <circle id="Outer" cx="24.5" cy="24.5" r="20.2" fill="none" stroke="#000" stroke-width="8.59"/>
</svg>