<?xml version="1.0" encoding="UTF-8"?>
<svg id="Layer_1" xmlns="http://www.w3.org/2000/svg" version="1.1" viewBox="0 0 66 66">
  <!-- Generator: Adobe Illustrator 30.1.0, SVG Export Plug-In . SVG Version: 2.1.1 Build 136)  -->
  <path d="M33,6.91c.85,0,1.7.44,2.14,1.32l5.46,10.84c.94,1.86,2.68,3.17,4.73,3.56l11.81,2.21c1.85.35,2.6,2.59,1.33,3.98l-8.6,9.44c-1.33,1.46-1.94,3.43-1.69,5.38l1.68,12.73c.2,1.52-1.01,2.72-2.38,2.72-.36,0-.73-.08-1.1-.27l-10.33-5.32c-.96-.49-2-.74-3.05-.74-1.05,0-2.09.25-3.05.74l-10.33,5.32c-.36.19-.73.27-1.1.27-1.37,0-2.58-1.2-2.38-2.72l1.68-12.73c.26-1.95-.36-3.92-1.68-5.38l-8.6-9.44c-1.27-1.39-.52-3.64,1.33-3.98l11.81-2.21c2.04-.38,3.79-1.7,4.72-3.56l5.46-10.84c.44-.88,1.29-1.32,2.14-1.32M33,0c-3.53,0-6.72,1.96-8.31,5.12l-5.41,10.73-11.69,2.19c-3.31.62-6.04,2.99-7.11,6.19-1.07,3.2-.33,6.74,1.95,9.23l8.53,9.36-1.67,12.63c-.35,2.66.46,5.34,2.22,7.35,1.77,2.02,4.33,3.18,7,3.18,1.47,0,2.94-.36,4.26-1.04l10.22-5.26,10.22,5.26c1.32.68,2.79,1.04,4.26,1.04,2.68,0,5.23-1.16,7-3.18,1.76-2.01,2.57-4.69,2.22-7.35l-1.67-12.63,8.53-9.37c2.27-2.49,3.02-6.03,1.95-9.23-1.07-3.2-3.8-5.57-7.11-6.19l-11.69-2.19-5.41-10.73c-1.59-3.16-4.78-5.12-8.31-5.12h0Z"/>
</svg>