<?xml version="1.0" encoding="UTF-8"?>
<svg id="Layer_1" xmlns="http://www.w3.org/2000/svg" version="1.1" viewBox="0 0 91 91">
  <!-- Generator: Adobe Illustrator 30.1.0, SVG Export Plug-In . SVG Version: 2.1.1 Build 136)  -->
  <g>
    <g>
      <rect x="42.17" y="26.51" width="6.66" height="6.66"/>
      <path d="M47.55,27.79v4.1h-4.1v-4.1h4.1M50.11,25.23h-9.22v9.22h9.22v-9.22h0Z"/>
    </g>
    <g>
      <polygon points="38.07 63.72 38.07 57.06 42.17 57.06 42.17 46.82 38.07 46.82 38.07 40.16 48.83 40.16 48.83 57.06 52.93 57.06 52.93 63.72 38.07 63.72"/>
      <path d="M47.55,41.44v16.9h4.1v4.1h-12.3v-4.1h4.1v-12.8h-4.1v-4.1h8.2M50.11,38.88h-13.32v9.22h4.1v7.68h-4.1v9.22h17.42v-9.22h-4.1v-16.9h0Z"/>
    </g>
  </g>
  <circle id="Outer" cx="45.5" cy="45.5" r="37.52" fill="none" stroke="#000" stroke-width="15.95"/>
</svg>