<?xml version="1.0" encoding="UTF-8"?>
<svg id="Layer_1" xmlns="http://www.w3.org/2000/svg" version="1.1" viewBox="0 0 91 91">
  <!-- Generator: Adobe Illustrator 30.1.0, SVG Export Plug-In . SVG Version: 2.1.1 Build 136)  -->
  <g>
    <g>
      <rect x="42.22" y="25.36" width="6.55" height="6.55"/>
      <path d="M47.78,26.35v4.56h-4.56v-4.56h4.56M49.77,24.36h-8.54v8.54h8.54v-8.54h0Z"/>
    </g>
    <g>
      <polygon points="37.66 65.11 37.66 58.56 42.22 58.56 42.22 46.31 37.66 46.31 37.66 39.76 48.78 39.76 48.78 58.56 53.34 58.56 53.34 65.11 37.66 65.11"/>
      <path d="M47.78,40.75v18.8h4.56v4.56h-13.68v-4.56h4.56v-14.24h-4.56v-4.56h9.12M49.77,38.76h-13.1v8.54h4.56v10.26h-4.56v8.54h17.67v-8.54h-4.56v-18.8h0Z"/>
    </g>
  </g>
  <circle id="Outer" cx="45.5" cy="45.5" r="39.13" fill="none" stroke="#000" stroke-width="12.74"/>
</svg>