<?xml version="1.0" encoding="UTF-8"?>
<svg id="Layer_1" xmlns="http://www.w3.org/2000/svg" version="1.1" viewBox="0 0 11 11">
  <!-- Generator: Adobe Illustrator 30.1.0, SVG Export Plug-In . SVG Version: 2.1.1 Build 136)  -->
  <g>
    <g>
      <rect x="5.11" y="2.93" width=".78" height=".78"/>
      <path d="M5.8,3.01v.61h-.61v-.61h.61M5.98,2.84h-.95v.95h.95v-.95h0Z"/>
    </g>
    <g>
      <polygon points="4.5 8.04 4.5 7.26 5.11 7.26 5.11 5.53 4.5 5.53 4.5 4.75 5.89 4.75 5.89 7.26 6.5 7.26 6.5 8.04 4.5 8.04"/>
      <path d="M5.8,4.84v2.51h.61v.61h-1.82v-.61h.61v-1.9h-.61v-.61h1.22M5.98,4.67h-1.56v.95h.61v1.55h-.61v.95h2.17v-.95h-.61v-2.51h0Z"/>
    </g>
  </g>
  <circle id="Outer" cx="5.5" cy="5.5" r="4.92" fill="none" stroke="#000" stroke-width="1.15"/>
</svg>