<?xml version="1.0" encoding="UTF-8"?>
<svg id="Layer_1" xmlns="http://www.w3.org/2000/svg" version="1.1" viewBox="0 0 11 11">
  <!-- Generator: Adobe Illustrator 30.1.0, SVG Export Plug-In . SVG Version: 2.1.1 Build 136)  -->
  <g>
    <g>
      <rect x="5.1" y="3.07" width=".79" height=".79"/>
      <path d="M5.78,3.19v.55h-.55v-.55h.55M6.02,2.95h-1.03v1.03h1.03v-1.03h0Z"/>
    </g>
    <g>
      <polygon points="4.55 7.87 4.55 7.08 5.1 7.08 5.1 5.6 4.55 5.6 4.55 4.81 5.9 4.81 5.9 7.08 6.45 7.08 6.45 7.87 4.55 7.87"/>
      <path d="M5.78,4.93v2.27h.55v.55h-1.65v-.55h.55v-1.72h-.55v-.55h1.1M6.02,4.69h-1.58v1.03h.55v1.24h-.55v1.03h2.14v-1.03h-.55v-2.27h0Z"/>
    </g>
  </g>
  <circle id="Outer" cx="5.5" cy="5.5" r="4.73" fill="none" stroke="#000" stroke-width="1.54"/>
</svg>