<?xml version="1.0" encoding="UTF-8"?>
<svg id="Layer_1" xmlns="http://www.w3.org/2000/svg" version="1.1" viewBox="0 0 11 11">
  <!-- Generator: Adobe Illustrator 30.1.0, SVG Export Plug-In . SVG Version: 2.1.1 Build 136)  -->
  <g>
    <g>
      <rect x="5.1" y="3.2" width=".81" height=".81"/>
      <path d="M5.75,3.36v.5h-.5v-.5h.5M6.06,3.05h-1.11v1.11h1.11v-1.11h0Z"/>
    </g>
    <g>
      <polygon points="4.6 7.7 4.6 6.9 5.1 6.9 5.1 5.66 4.6 5.66 4.6 4.85 5.9 4.85 5.9 6.9 6.4 6.9 6.4 7.7 4.6 7.7"/>
      <path d="M5.75,5.01v2.04h.5v.5h-1.49v-.5h.5v-1.55h-.5v-.5h.99M6.06,4.7h-1.61v1.11h.5v.93h-.5v1.11h2.11v-1.11h-.5v-2.04h0Z"/>
    </g>
  </g>
  <circle id="Outer" cx="5.5" cy="5.5" r="4.54" fill="none" stroke="#000" stroke-width="1.93"/>
</svg>