<?xml version="1.0" encoding="UTF-8"?>
<svg id="Layer_1" xmlns="http://www.w3.org/2000/svg" version="1.1" viewBox="0 0 17 17">
  <!-- Generator: Adobe Illustrator 30.1.0, SVG Export Plug-In . SVG Version: 2.1.1 Build 136)  -->
  <g>
    <g>
      <rect x="7.89" y="4.74" width="1.22" height="1.22"/>
      <path d="M8.93,4.92v.85h-.85v-.85h.85M9.3,4.55h-1.6v1.6h1.6v-1.6h0Z"/>
    </g>
    <g>
      <polygon points="7.04 12.16 7.04 10.94 7.89 10.94 7.89 8.65 7.04 8.65 7.04 7.43 9.11 7.43 9.11 10.94 9.96 10.94 9.96 12.16 7.04 12.16"/>
      <path d="M8.93,7.61v3.51h.85v.85h-2.56v-.85h.85v-2.66h-.85v-.85h1.7M9.3,7.24h-2.45v1.6h.85v1.92h-.85v1.6h3.3v-1.6h-.85v-3.51h0Z"/>
    </g>
  </g>
  <circle id="Outer" cx="8.5" cy="8.5" r="7.31" fill="none" stroke="#000" stroke-width="2.38"/>
</svg>