<?xml version="1.0" encoding="UTF-8"?>
<svg id="Layer_1" xmlns="http://www.w3.org/2000/svg" version="1.1" viewBox="0 0 17 17">
  <!-- Generator: Adobe Illustrator 30.1.0, SVG Export Plug-In . SVG Version: 2.1.1 Build 136)  -->
  <g>
    <g>
      <rect x="7.88" y="4.95" width="1.24" height="1.24"/>
      <path d="M8.88,5.19v.77h-.77v-.77h.77M9.36,4.71h-1.72v1.72h1.72v-1.72h0Z"/>
    </g>
    <g>
      <polygon points="7.11 11.9 7.11 10.66 7.88 10.66 7.88 8.75 7.11 8.75 7.11 7.5 9.12 7.5 9.12 10.66 9.89 10.66 9.89 11.9 7.11 11.9"/>
      <path d="M8.88,7.74v3.16h.77v.77h-2.3v-.77h.77v-2.39h-.77v-.77h1.53M9.36,7.26h-2.49v1.72h.77v1.44h-.77v1.72h3.25v-1.72h-.77v-3.16h0Z"/>
    </g>
  </g>
  <circle id="Outer" cx="8.5" cy="8.5" r="7.01" fill="none" stroke="#000" stroke-width="2.98"/>
</svg>