<?xml version="1.0" encoding="UTF-8"?>
<svg id="Layer_1" xmlns="http://www.w3.org/2000/svg" version="1.1" viewBox="0 0 126 126">
  <!-- Generator: Adobe Illustrator 30.1.0, SVG Export Plug-In . SVG Version: 2.1.1 Build 136)  -->
  <circle id="Outer" cx="63" cy="63" r="51.96" fill="none" stroke="#000" stroke-width="22.09"/>
  <g>
    <g>
      <rect x="58.98" y="79.57" width="7.98" height="7.98"/>
      <path d="M65.19,81.34v4.44h-4.44v-4.44h4.44M68.73,77.8h-11.53v11.53h11.53v-11.53h0Z"/>
    </g>
    <g>
      <path d="M59,71.79l-.03-3.43c0-2.56.95-4.99,2.66-6.88l4.39-4.87c.91-1.01,1.41-2.3,1.41-3.65,0-1.65-1.35-2.98-3.02-2.98h-2.82c-1.66,0-3.02,1.34-3.02,2.98v1.77h-8.02v-1.77c0-6.05,4.95-10.98,11.04-10.98h2.82c6.09,0,11.04,4.92,11.04,10.98,0,3.33-1.23,6.52-3.47,9l-4.4,4.87c-.4.44-.6.95-.61,1.52l-.03,3.44h-7.95Z"/>
      <path d="M64.41,43.75c5.11,0,9.27,4.13,9.27,9.2,0,2.89-1.07,5.66-3.01,7.81l-4.4,4.87c-.68.75-1.06,1.69-1.06,2.7l-.02,1.68h-4.44v-1.68c0-2.1.77-4.11,2.18-5.67l4.4-4.87c1.2-1.33,1.87-3.05,1.87-4.84,0-2.62-2.15-4.76-4.79-4.76h-2.82c-2.64,0-4.79,2.13-4.79,4.76h-4.48c0-5.07,4.16-9.2,9.27-9.2h2.82M64.41,40.21h-2.82c-7.06,0-12.81,5.72-12.81,12.75v3.54h11.57v-3.54c0-.67.56-1.21,1.25-1.21h2.82c.69,0,1.25.54,1.25,1.21,0,.91-.34,1.79-.95,2.47l-4.4,4.87c-2,2.21-3.1,5.06-3.11,8.04v1.72s.05,3.51.05,3.51h11.46l.04-3.51.02-1.68c0-.12.02-.22.15-.36l4.4-4.87c2.53-2.8,3.92-6.42,3.92-10.18,0-7.03-5.75-12.75-12.81-12.75h0Z"/>
    </g>
  </g>
</svg>