<?xml version="1.0" encoding="UTF-8"?>
<svg id="Layer_1" xmlns="http://www.w3.org/2000/svg" version="1.1" viewBox="0 0 64 64">
  <!-- Generator: Adobe Illustrator 30.1.0, SVG Export Plug-In . SVG Version: 2.1.1 Build 136)  -->
  <circle id="Outer" cx="32" cy="32" r="28.65" fill="none" stroke="#000" stroke-width="6.7"/>
  <g>
    <g>
      <rect x="29.98" y="42.14" width="4.01" height="4.01"/>
      <path d="M33.48,42.64v3.01h-3.01v-3.01h3.01M34.48,41.64h-5.01v5.01h5.01v-5.01h0Z"/>
    </g>
    <g>
      <path d="M29.99,37.78v-1.63c0-1.55.57-3.04,1.6-4.18l2.98-3.3c.73-.81,1.13-1.86,1.13-2.94,0-1.5-1.23-2.72-2.74-2.72h-1.91c-1.51,0-2.74,1.22-2.74,2.72v.5h-4.03v-.5c0-3.71,3.04-6.73,6.78-6.73h1.91c3.74,0,6.78,3.02,6.78,6.73,0,2.08-.77,4.08-2.17,5.62l-2.98,3.3c-.38.43-.59.94-.59,1.5l-.02,1.64h-4Z"/>
      <path d="M32.96,19.5c3.46,0,6.28,2.8,6.28,6.23,0,1.96-.72,3.83-2.04,5.29l-2.98,3.3c-.46.51-.72,1.14-.72,1.83v1.14h-3.02v-1.14c0-1.42.52-2.78,1.48-3.84l2.98-3.3c.82-.9,1.26-2.07,1.26-3.28,0-1.78-1.46-3.22-3.24-3.22h-1.91c-1.79,0-3.24,1.45-3.24,3.22h-3.03c0-3.44,2.82-6.23,6.28-6.23h1.91M32.96,18.5h-1.91c-4.01,0-7.28,3.24-7.28,7.23v1h5.03v-1c0-1.22,1.01-2.22,2.24-2.22h1.91c1.24,0,2.24,1,2.24,2.22,0,.96-.36,1.89-1.01,2.61l-2.98,3.3c-1.12,1.24-1.74,2.84-1.75,4.51v1.15s.02.99.02.99h4.99v-.99s.02-1.14.02-1.14c0-.44.16-.84.46-1.17l2.98-3.3c1.48-1.64,2.3-3.76,2.3-5.96,0-3.99-3.26-7.23-7.28-7.23h0Z"/>
    </g>
  </g>
</svg>