<?xml version="1.0" encoding="UTF-8"?>
<svg id="Layer_1" xmlns="http://www.w3.org/2000/svg" version="1.1" viewBox="0 0 64 64">
  <!-- Generator: Adobe Illustrator 30.1.0, SVG Export Plug-In . SVG Version: 2.1.1 Build 136)  -->
  <circle id="Outer" cx="32" cy="32" r="26.39" fill="none" stroke="#000" stroke-width="11.22"/>
  <g>
    <g>
      <rect x="29.96" y="40.42" width="4.06" height="4.06"/>
      <path d="M33.11,41.32v2.25h-2.25v-2.25h2.25M34.91,39.52h-5.85v5.85h5.85v-5.85h0Z"/>
    </g>
    <g>
      <path d="M29.97,36.46l-.02-1.75c0-1.3.48-2.54,1.35-3.49l2.23-2.47c.46-.51.72-1.17.72-1.86,0-.84-.69-1.52-1.53-1.52h-1.43c-.85,0-1.53.68-1.53,1.52v.9h-4.07v-.9c0-3.07,2.52-5.57,5.61-5.57h1.43c3.09,0,5.61,2.5,5.61,5.57,0,1.69-.63,3.31-1.76,4.57l-2.23,2.47c-.2.23-.31.48-.31.77l-.02,1.75h-4.04Z"/>
      <path d="M32.72,22.22c2.6,0,4.71,2.1,4.71,4.67,0,1.47-.54,2.87-1.53,3.97l-2.23,2.47c-.35.38-.54.86-.54,1.37v.85h-2.26v-.85c0-1.07.39-2.09,1.11-2.88l2.23-2.47c.61-.68.95-1.55.95-2.46,0-1.33-1.09-2.42-2.43-2.42h-1.43c-1.34,0-2.43,1.08-2.43,2.42h-2.27c0-2.58,2.11-4.67,4.71-4.67h1.43M32.72,20.42h-1.43c-3.59,0-6.51,2.9-6.51,6.47v1.8h5.87v-1.8c0-.34.28-.62.63-.62h1.43c.35,0,.63.28.63.62,0,.46-.17.91-.48,1.25l-2.23,2.47c-1.01,1.12-1.58,2.57-1.58,4.08v.88s.02,1.78.02,1.78h5.82l.02-1.78v-.85c0-.06.02-.11.08-.18l2.23-2.48c1.28-1.42,1.99-3.26,1.99-5.17,0-3.57-2.92-6.47-6.51-6.47h0Z"/>
    </g>
  </g>
</svg>