<?xml version="1.0" encoding="UTF-8"?>
<svg id="Layer_1" xmlns="http://www.w3.org/2000/svg" version="1.1" viewBox="0 0 23 23">
  <!-- Generator: Adobe Illustrator 30.1.0, SVG Export Plug-In . SVG Version: 2.1.1 Build 136)  -->
  <circle id="Outer" cx="11.5" cy="11.5" r="9.89" fill="none" stroke="#000" stroke-width="3.22"/>
  <g>
    <g>
      <rect x="10.77" y="14.83" width="1.45" height="1.45"/>
      <path d="M11.96,15.09v.94h-.94v-.94h.94M12.47,14.58h-1.95v1.95h1.95v-1.95h0Z"/>
    </g>
    <g>
      <path d="M10.77,13.33v-.61c0-.51.19-1,.53-1.37l.93-1.03c.21-.24.33-.54.33-.86,0-.42-.34-.76-.76-.76h-.6c-.42,0-.77.34-.77.76v.25h-1.45v-.25c0-1.22,1-2.2,2.22-2.2h.6c1.22,0,2.22.99,2.22,2.2,0,.68-.25,1.32-.7,1.83l-.93,1.03c-.1.11-.16.25-.16.41v.61h-1.45Z"/>
      <path d="M11.8,7.51c1.08,0,1.97.88,1.97,1.95,0,.61-.23,1.2-.64,1.66l-.93,1.03c-.14.16-.22.36-.23.57v.36h-.95v-.36c0-.45.16-.87.46-1.2l.93-1.03c.26-.28.4-.65.4-1.03,0-.56-.46-1.01-1.02-1.01h-.6c-.56,0-1.02.45-1.02,1.01h-.95c0-1.08.88-1.95,1.97-1.95h.6M11.8,7h-.6c-1.36,0-2.47,1.1-2.47,2.46v.5h1.96v-.5c0-.28.23-.51.51-.51h.6c.28,0,.51.23.51.51,0,.25-.09.5-.27.69l-.93,1.03c-.38.42-.59.97-.6,1.54v.36s0,.5,0,.5h1.94v-.5s0-.36,0-.36c0-.09.03-.17.1-.24l.93-1.03c.5-.55.77-1.26.77-1.99,0-1.35-1.11-2.46-2.47-2.46h0Z"/>
    </g>
  </g>
</svg>