<?xml version="1.0" encoding="UTF-8"?>
<svg id="Layer_1" xmlns="http://www.w3.org/2000/svg" version="1.1" viewBox="0 0 115 115">
  <!-- Generator: Adobe Illustrator 30.1.0, SVG Export Plug-In . SVG Version: 2.1.1 Build 136)  -->
  <g>
    <g>
      <rect x="53.29" y="33.5" width="8.42" height="8.42"/>
      <path d="M60.09,35.12v5.18h-5.18v-5.18h5.18M63.33,31.89h-11.65v11.65h11.65v-11.65h0Z"/>
    </g>
    <g>
      <polygon points="48.11 80.52 48.11 72.11 53.29 72.11 53.29 59.17 48.11 59.17 48.11 50.75 61.71 50.75 61.71 72.11 66.89 72.11 66.89 80.52 48.11 80.52"/>
      <path d="M60.09,52.37v21.36h5.18v5.18h-15.54v-5.18h5.18v-16.18h-5.18v-5.18h10.36M63.33,49.13h-16.83v11.65h5.18v9.71h-5.18v11.65h22.01v-11.65h-5.18v-21.36h0Z"/>
    </g>
  </g>
  <circle id="Outer" cx="57.5" cy="57.5" r="47.42" fill="none" stroke="#000" stroke-width="20.16"/>
</svg>