<?xml version="1.0" encoding="UTF-8"?>
<svg id="Layer_1" xmlns="http://www.w3.org/2000/svg" version="1.1" viewBox="0 0 23 23">
  <!-- Generator: Adobe Illustrator 30.1.0, SVG Export Plug-In . SVG Version: 2.1.1 Build 136)  -->
  <g>
    <g>
      <rect x="10.67" y="6.41" width="1.66" height="1.66"/>
      <path d="M12.08,6.66v1.15h-1.15v-1.15h1.15M12.58,6.16h-2.16v2.16h2.16v-2.16h0Z"/>
    </g>
    <g>
      <polygon points="9.52 16.46 9.52 14.8 10.67 14.8 10.67 11.7 9.52 11.7 9.52 10.05 12.33 10.05 12.33 14.8 13.48 14.8 13.48 16.46 9.52 16.46"/>
      <path d="M12.08,10.3v4.75h1.15v1.15h-3.46v-1.15h1.15v-3.6h-1.15v-1.15h2.31M12.58,9.8h-3.31v2.16h1.15v2.59h-1.15v2.16h4.46v-2.16h-1.15v-4.75h0Z"/>
    </g>
  </g>
  <circle id="Outer" cx="11.5" cy="11.5" r="9.89" fill="none" stroke="#000" stroke-width="3.22"/>
</svg>