<?xml version="1.0" encoding="UTF-8"?>
<svg id="Layer_1" xmlns="http://www.w3.org/2000/svg" version="1.1" viewBox="0 0 37 37">
  <!-- Generator: Adobe Illustrator 30.1.0, SVG Export Plug-In . SVG Version: 2.1.1 Build 136)  -->
  <g>
    <g>
      <rect x="17.15" y="10.78" width="2.71" height="2.71"/>
      <path d="M19.33,11.3v1.67h-1.67v-1.67h1.67M20.37,10.26h-3.75v3.75h3.75v-3.75h0Z"/>
    </g>
    <g>
      <polygon points="15.48 25.91 15.48 23.2 17.15 23.2 17.15 19.04 15.48 19.04 15.48 16.33 19.85 16.33 19.85 23.2 21.52 23.2 21.52 25.91 15.48 25.91"/>
      <path d="M19.33,16.85v6.87h1.67v1.67h-5v-1.67h1.67v-5.2h-1.67v-1.67h3.33M20.37,15.81h-5.42v3.75h1.67v3.12h-1.67v3.75h7.08v-3.75h-1.67v-6.87h0Z"/>
    </g>
  </g>
  <circle id="Outer" cx="18.5" cy="18.5" r="15.26" fill="none" stroke="#000" stroke-width="6.49"/>
</svg>