<?xml version="1.0" encoding="UTF-8"?>
<svg id="Layer_1" xmlns="http://www.w3.org/2000/svg" version="1.1" viewBox="0 0 127 127">
  <!-- Generator: Adobe Illustrator 30.1.0, SVG Export Plug-In . SVG Version: 2.1.1 Build 136)  -->
  <path d="M63.5,22.26c1.34,0,2.68.7,3.38,2.09l8.63,17.12c1.48,2.94,4.24,5.02,7.47,5.62l18.66,3.5c2.92.55,4.1,4.09,2.1,6.29l-13.6,14.92c-2.1,2.3-3.07,5.42-2.67,8.51l2.65,20.12c.32,2.4-1.6,4.3-3.75,4.3-.57,0-1.16-.13-1.73-.43l-16.32-8.41c-1.51-.78-3.17-1.17-4.82-1.17s-3.31.39-4.82,1.17l-16.32,8.41c-.57.29-1.16.43-1.73.43-2.16,0-4.07-1.9-3.75-4.3l2.65-20.13c.41-3.09-.57-6.2-2.66-8.5l-13.6-14.92c-2-2.2-.82-5.75,2.1-6.29l18.66-3.5c3.23-.6,5.99-2.68,7.47-5.62l8.63-17.13c.7-1.39,2.04-2.09,3.38-2.09M63.5,0C53.6,0,44.69,5.49,40.23,14.33l-6.02,11.95-12.95,2.43c-9.28,1.74-16.91,8.38-19.91,17.34-3,8.96-.91,18.86,5.45,25.84l9.93,10.9-1.94,14.74c-.98,7.45,1.29,14.95,6.23,20.58,4.96,5.65,12.1,8.9,19.6,8.9,4.12,0,8.24-1,11.93-2.9l10.95-5.64,10.95,5.64c3.68,1.9,7.8,2.9,11.93,2.9,7.5,0,14.64-3.24,19.6-8.9,4.94-5.63,7.21-13.14,6.23-20.58l-1.94-14.74,9.94-10.9c6.36-6.98,8.45-16.88,5.45-25.84-3-8.95-10.63-15.59-19.9-17.33l-12.96-2.43-6.02-11.95C82.31,5.49,73.4,0,63.5,0h0Z"/>
</svg>