<?xml version="1.0" encoding="UTF-8"?>
<svg id="Layer_1" xmlns="http://www.w3.org/2000/svg" version="1.1" viewBox="0 0 127 127">
  <!-- Generator: Adobe Illustrator 30.1.0, SVG Export Plug-In . SVG Version: 2.1.1 Build 136)  -->
  <path d="M63.5,13.3c1.63,0,3.26.85,4.12,2.54l10.5,20.85c1.8,3.58,5.17,6.11,9.1,6.85l22.72,4.26c3.55.67,4.99,4.98,2.56,7.66l-16.56,18.17c-2.55,2.8-3.74,6.59-3.25,10.36l3.23,24.5c.39,2.92-1.94,5.24-4.57,5.24-.7,0-1.41-.16-2.11-.52l-19.88-10.24c-1.84-.95-3.86-1.42-5.87-1.42s-4.03.47-5.87,1.42l-19.88,10.24c-.69.36-1.41.52-2.11.52-2.63,0-4.96-2.31-4.57-5.24l3.23-24.5c.5-3.76-.69-7.55-3.24-10.35l-16.56-18.17c-2.44-2.68-1-7,2.56-7.66l22.72-4.26c3.93-.74,7.29-3.27,9.09-6.84l10.5-20.85c.85-1.69,2.49-2.54,4.12-2.54M63.5,0c-6.8,0-12.93,3.78-15.99,9.85l-10.4,20.65-22.49,4.22c-6.38,1.2-11.62,5.76-13.68,11.92-2.06,6.16-.63,12.97,3.75,17.77l16.42,18.02-3.21,24.31c-.68,5.12.88,10.28,4.28,14.15,3.41,3.89,8.32,6.12,13.48,6.12,2.83,0,5.66-.69,8.2-2l19.66-10.12,19.66,10.12c2.53,1.31,5.37,2,8.2,2,5.15,0,10.06-2.23,13.48-6.12,3.39-3.87,4.95-9.03,4.28-14.15l-3.21-24.31,16.42-18.02c4.37-4.8,5.81-11.61,3.75-17.77-2.06-6.15-7.3-10.72-13.68-11.92l-22.49-4.22-10.4-20.65c-3.06-6.08-9.19-9.85-15.99-9.85h0Z"/>
</svg>