<?xml version="1.0" encoding="UTF-8"?>
<svg id="Layer_1" xmlns="http://www.w3.org/2000/svg" version="1.1" viewBox="0 0 127 127">
  <!-- Generator: Adobe Illustrator 30.1.0, SVG Export Plug-In . SVG Version: 2.1.1 Build 136)  -->
  <path d="M63.5,17.78c1.49,0,2.97.77,3.75,2.31l9.57,18.99c1.64,3.26,4.7,5.56,8.28,6.23l20.69,3.88c3.24.61,4.55,4.54,2.33,6.97l-15.08,16.54c-2.33,2.55-3.41,6.01-2.96,9.43l2.94,22.31c.35,2.66-1.77,4.77-4.16,4.77-.63,0-1.29-.15-1.92-.47l-18.1-9.32c-1.68-.86-3.51-1.3-5.35-1.3s-3.67.43-5.35,1.3l-18.1,9.32c-.63.33-1.29.47-1.92.47-2.39,0-4.51-2.11-4.16-4.77l2.94-22.31c.45-3.42-.63-6.87-2.95-9.42l-15.08-16.55c-2.22-2.44-.91-6.37,2.33-6.98l20.69-3.88c3.58-.67,6.64-2.97,8.28-6.23l9.57-18.99c.78-1.54,2.26-2.31,3.75-2.31M63.5,0C55.15,0,47.63,4.63,43.87,12.09l-8.21,16.3-17.72,3.32c-7.83,1.47-14.26,7.07-16.79,14.63-2.53,7.56-.77,15.91,4.6,21.8l13.18,14.46-2.57,19.52c-.83,6.28,1.09,12.61,5.25,17.36,4.18,4.77,10.21,7.51,16.54,7.51,3.47,0,6.95-.85,10.06-2.45l15.31-7.88,15.31,7.88c3.11,1.6,6.59,2.45,10.06,2.45,6.33,0,12.35-2.74,16.54-7.51,4.17-4.75,6.08-11.08,5.25-17.36l-2.57-19.52,13.18-14.46c5.37-5.89,7.13-14.24,4.6-21.8-2.53-7.55-8.96-13.16-16.79-14.62l-17.73-3.32-8.21-16.3C79.37,4.63,71.85,0,63.5,0h0Z"/>
</svg>