<?xml version="1.0" encoding="UTF-8"?>
<svg id="Layer_1" xmlns="http://www.w3.org/2000/svg" version="1.1" viewBox="0 0 46 46">
  <!-- Generator: Adobe Illustrator 30.1.0, SVG Export Plug-In . SVG Version: 2.1.1 Build 136)  -->
  <circle id="Outer" cx="23" cy="23" r="20.59" fill="none" stroke="#000" stroke-width="4.82"/>
  <g>
    <g>
      <rect x="21.55" y="30.29" width="2.88" height="2.88"/>
      <path d="M24.07,30.65v2.16h-2.16v-2.16h2.16M24.79,29.93h-3.6v3.6h3.6v-3.6h0Z"/>
    </g>
    <g>
      <path d="M21.55,27.16v-1.17c0-1.12.41-2.18,1.15-3.01l2.14-2.37c.53-.58.82-1.33.82-2.12,0-1.08-.88-1.96-1.97-1.96h-1.37c-1.09,0-1.97.88-1.97,1.96v.36h-2.9v-.36c0-2.67,2.19-4.84,4.87-4.84h1.37c2.69,0,4.87,2.17,4.87,4.84,0,1.49-.55,2.93-1.56,4.04l-2.14,2.37c-.28.3-.42.68-.42,1.08v1.18h-2.88Z"/>
      <path d="M23.69,14.01c2.49,0,4.51,2.01,4.51,4.48,0,1.41-.52,2.75-1.46,3.8l-2.14,2.37c-.33.37-.52.82-.52,1.32v.82h-2.17v-.82c0-1.02.37-2,1.06-2.76l2.14-2.37c.59-.65.91-1.49.91-2.36,0-1.28-1.05-2.32-2.33-2.32h-1.37c-1.29,0-2.33,1.04-2.33,2.32h-2.18c0-2.47,2.02-4.48,4.51-4.48h1.37M23.69,13.29h-1.37c-2.88,0-5.23,2.33-5.23,5.2v.72h3.62v-.72c0-.88.72-1.6,1.61-1.6h1.37c.89,0,1.61.72,1.61,1.6,0,.69-.26,1.36-.72,1.87l-2.14,2.37c-.8.89-1.25,2.04-1.26,3.24v.83s.01.71.01.71h3.58v-.71s.02-.82.02-.82c0-.31.12-.6.33-.84l2.14-2.37c1.06-1.18,1.65-2.7,1.65-4.28,0-2.87-2.35-5.2-5.23-5.2h0Z"/>
    </g>
  </g>
</svg>