<?xml version="1.0" encoding="UTF-8"?>
<svg id="Layer_1" xmlns="http://www.w3.org/2000/svg" version="1.1" viewBox="0 0 11 11">
  <!-- Generator: Adobe Illustrator 30.1.0, SVG Export Plug-In . SVG Version: 2.1.1 Build 136)  -->
  <circle id="Outer" cx="5.5" cy="5.5" r="4.54" fill="none" stroke="#000" stroke-width="1.93"/>
  <g>
    <g>
      <rect x="5.15" y="6.95" width=".7" height=".7"/>
      <path d="M5.69,7.1v.39h-.39v-.39h.39M6,6.79h-1.01v1.01h1.01v-1.01h0Z"/>
    </g>
    <g>
      <path d="M5.15,6.27v-.3c0-.22.08-.44.23-.6l.38-.42c.08-.09.12-.2.12-.32,0-.14-.12-.26-.26-.26h-.25c-.15,0-.26.12-.26.26v.15h-.7v-.15c0-.53.43-.96.96-.96h.25c.53,0,.96.43.96.96,0,.29-.11.57-.3.79l-.38.43s-.05.08-.05.13v.3h-.7Z"/>
      <path d="M5.62,3.82c.45,0,.81.36.81.8,0,.25-.09.49-.26.68l-.38.43c-.06.07-.09.15-.09.24v.15h-.39v-.15c0-.18.07-.36.19-.5l.38-.43c.11-.12.16-.27.16-.42,0-.23-.19-.42-.42-.42h-.25c-.23,0-.42.19-.42.42h-.39c0-.44.36-.8.81-.8h.25M5.62,3.51h-.25c-.62,0-1.12.5-1.12,1.11v.31h1.01v-.31c0-.06.05-.11.11-.11h.25c.06,0,.11.05.11.11,0,.08-.03.16-.08.22l-.38.43c-.17.19-.27.44-.27.7v.15s0,.31,0,.31h1v-.31s0-.15,0-.15l.4-.46c.22-.24.34-.56.34-.89,0-.61-.5-1.11-1.12-1.11h0Z"/>
    </g>
  </g>
</svg>