<?xml version="1.0" encoding="UTF-8"?>
<svg id="Layer_1" xmlns="http://www.w3.org/2000/svg" version="1.1" viewBox="0 0 11 11">
  <!-- Generator: Adobe Illustrator 30.1.0, SVG Export Plug-In . SVG Version: 2.1.1 Build 136)  -->
  <circle id="Outer" cx="5.5" cy="5.5" r="4.73" fill="none" stroke="#000" stroke-width="1.54"/>
  <g>
    <g>
      <rect x="5.15" y="7.1" width=".69" height=".69"/>
      <path d="M5.72,7.22v.45h-.45v-.45h.45M5.96,6.98h-.93v.93h.93v-.93h0Z"/>
    </g>
    <g>
      <path d="M5.15,6.38v-.29c0-.24.09-.48.25-.66l.45-.49c.1-.11.16-.26.16-.41,0-.2-.16-.36-.37-.36h-.29c-.2,0-.37.16-.37.36v.12h-.69v-.12c0-.58.48-1.05,1.06-1.05h.29c.59,0,1.06.47,1.06,1.05,0,.32-.12.63-.34.87l-.45.49c-.05.06-.08.12-.08.19v.29h-.69Z"/>
      <path d="M5.64,3.59c.52,0,.94.42.94.93,0,.29-.11.57-.31.79l-.45.49c-.07.08-.11.17-.11.27v.17h-.45v-.17c0-.21.08-.42.22-.58l.45-.49c.12-.14.19-.31.19-.49,0-.27-.22-.48-.49-.48h-.29c-.27,0-.49.22-.49.48h-.45c0-.51.42-.93.94-.93h.29M5.64,3.35h-.29c-.65,0-1.18.53-1.18,1.17v.24h.94v-.24c0-.13.11-.24.25-.24h.29c.14,0,.25.11.25.24,0,.12-.05.24-.13.33l-.45.49c-.18.2-.28.46-.29.74v.17s0,.24,0,.24h.93v-.24s0-.17,0-.17c0-.04.02-.08.05-.12l.45-.49c.24-.26.37-.6.37-.95,0-.65-.53-1.17-1.18-1.17h0Z"/>
    </g>
  </g>
</svg>