<?xml version="1.0" encoding="UTF-8"?>
<svg id="Layer_1" xmlns="http://www.w3.org/2000/svg" version="1.1" viewBox="0 0 11 11">
  <!-- Generator: Adobe Illustrator 30.1.0, SVG Export Plug-In . SVG Version: 2.1.1 Build 136)  -->
  <path d="M5.5,1.15c.14,0,.28.07.36.22l.91,1.81c.16.31.45.53.79.59l1.97.37c.31.06.43.43.22.66l-1.43,1.57c-.22.24-.32.57-.28.9l.28,2.12c.03.25-.17.45-.4.45-.06,0-.12-.01-.18-.05l-1.72-.89c-.16-.08-.33-.12-.51-.12s-.35.04-.51.12l-1.72.89c-.06.03-.12.05-.18.05-.23,0-.43-.2-.4-.45l.28-2.12c.04-.33-.06-.65-.28-.9l-1.43-1.57c-.21-.23-.09-.61.22-.66l1.97-.37c.34-.06.63-.28.79-.59l.91-1.81c.07-.15.22-.22.36-.22M5.5,0C4.91,0,4.38.33,4.11.85l-.91,1.81-1.94.35c-.55.1-1.01.5-1.19,1.03-.18.53-.05,1.12.32,1.54l1.43,1.57-.29,2.09c-.06.44.08.89.37,1.23.3.34.72.53,1.17.53.24,0,.49-.06.71-.17l1.72-.89,1.68.89c.22.11.47.17.71.17.45,0,.87-.19,1.17-.53.29-.34.43-.78.37-1.23l-.28-2.12,1.42-1.54c.38-.42.5-1.01.32-1.54-.18-.53-.63-.93-1.18-1.03l-1.97-.37-.88-1.78C6.62.33,6.09,0,5.5,0h0Z"/>
</svg>