<?xml version="1.0" encoding="UTF-8"?>
<svg id="Layer_1" xmlns="http://www.w3.org/2000/svg" version="1.1" viewBox="0 0 11 11">
  <!-- Generator: Adobe Illustrator 30.1.0, SVG Export Plug-In . SVG Version: 2.1.1 Build 136)  -->
  <path d="M5.5,1.93c.12,0,.23.06.29.18l.75,1.48c.13.25.37.43.65.49l1.62.3c.25.05.36.35.18.54l-1.18,1.29c-.18.2-.27.47-.23.74l.23,1.74c.03.21-.14.37-.33.37-.05,0-.1-.01-.15-.04l-1.41-.73c-.13-.07-.27-.1-.42-.1s-.29.03-.42.1l-1.41.73s-.1.04-.15.04c-.19,0-.35-.16-.33-.37l.23-1.74c.04-.27-.05-.54-.23-.74l-1.18-1.29c-.17-.19-.07-.5.18-.55l1.62-.3c.28-.05.52-.23.65-.49l.75-1.48c.06-.12.18-.18.29-.18M5.5,0C4.64,0,3.87.48,3.48,1.24l-.52,1.03-1.12.21c-.8.15-1.46.73-1.72,1.5-.26.78-.08,1.63.47,2.24l.86.94-.17,1.28c-.09.64.11,1.29.54,1.78.43.49,1.05.77,1.7.77.36,0,.71-.09,1.03-.25l.95-.49.95.49c.32.16.68.25,1.03.25.65,0,1.27-.28,1.7-.77.43-.49.62-1.14.54-1.78l-.17-1.28.86-.94c.55-.6.73-1.46.47-2.24-.26-.78-.92-1.35-1.72-1.5l-1.12-.21-.52-1.04C7.13.48,6.36,0,5.5,0h0Z"/>
</svg>