<?xml version="1.0" encoding="UTF-8"?>
<svg id="Layer_1" xmlns="http://www.w3.org/2000/svg" version="1.1" viewBox="0 0 56 56">
  <!-- Generator: Adobe Illustrator 30.1.0, SVG Export Plug-In . SVG Version: 2.1.1 Build 136)  -->
  <path d="M28,5.86c.72,0,1.44.37,1.82,1.12l4.63,9.19c.79,1.58,2.28,2.69,4.01,3.02l10.02,1.88c1.57.29,2.2,2.2,1.13,3.38l-7.3,8.01c-1.13,1.24-1.65,2.91-1.43,4.57l1.42,10.8c.17,1.29-.86,2.31-2.02,2.31-.31,0-.62-.07-.93-.23l-8.76-4.51c-.81-.42-1.7-.63-2.59-.63-.89,0-1.78.21-2.59.63l-8.76,4.51c-.31.16-.62.23-.93.23-1.16,0-2.19-1.02-2.02-2.31l1.42-10.8c.22-1.66-.3-3.33-1.43-4.56l-7.3-8.01c-1.08-1.18-.44-3.09,1.13-3.38l10.02-1.88c1.73-.32,3.21-1.44,4.01-3.02l4.63-9.19c.38-.75,1.1-1.12,1.82-1.12M28,0C25,0,22.3,1.66,20.95,4.34l-4.59,9.11-9.92,1.86c-2.81.53-5.12,2.54-6.03,5.26-.91,2.72-.28,5.72,1.65,7.84l7.24,7.94-1.41,10.72c-.3,2.26.39,4.53,1.89,6.24,1.5,1.72,3.67,2.7,5.94,2.7,1.25,0,2.5-.3,3.61-.88l8.67-4.46,8.67,4.46c1.12.58,2.37.88,3.61.88,2.27,0,4.44-.98,5.94-2.7,1.5-1.71,2.18-3.98,1.89-6.24l-1.41-10.72,7.24-7.95c1.93-2.12,2.56-5.12,1.65-7.83-.91-2.71-3.22-4.73-6.03-5.25l-9.92-1.86-4.59-9.11C33.7,1.66,31,0,28,0h0Z"/>
</svg>