<?xml version="1.0" encoding="UTF-8"?>
<svg id="Layer_1" xmlns="http://www.w3.org/2000/svg" version="1.1" viewBox="0 0 56 56">
  <!-- Generator: Adobe Illustrator 30.1.0, SVG Export Plug-In . SVG Version: 2.1.1 Build 136)  -->
  <path d="M28,7.84c.66,0,1.31.34,1.65,1.02l4.22,8.37c.72,1.44,2.07,2.45,3.65,2.75l9.12,1.71c1.43.27,2.01,2,1.03,3.08l-6.65,7.3c-1.03,1.13-1.5,2.65-1.3,4.16l1.3,9.84c.15,1.17-.78,2.1-1.84,2.1-.28,0-.57-.07-.85-.21l-7.98-4.11c-.74-.38-1.55-.57-2.36-.57-.81,0-1.62.19-2.36.57l-7.98,4.11c-.28.14-.57.21-.85.21-1.06,0-1.99-.93-1.84-2.1l1.3-9.84c.2-1.51-.28-3.03-1.3-4.15l-6.65-7.3c-.98-1.07-.4-2.81,1.03-3.08l9.12-1.71c1.58-.3,2.93-1.31,3.65-2.75l4.22-8.37c.34-.68,1-1.02,1.65-1.02M28,0C24.32,0,21,2.04,19.34,5.33l-3.62,7.19-7.81,1.46c-3.45.65-6.29,3.12-7.41,6.45-1.12,3.33-.34,7.02,2.03,9.61l5.81,6.38-1.14,8.61c-.37,2.77.48,5.56,2.32,7.66,1.85,2.1,4.5,3.31,7.29,3.31,1.53,0,3.07-.37,4.44-1.08l6.75-3.48,6.75,3.48c1.37.71,2.9,1.08,4.44,1.08,2.79,0,5.45-1.21,7.29-3.31,1.84-2.1,2.68-4.89,2.32-7.66l-1.14-8.61,5.81-6.38c2.37-2.6,3.14-6.28,2.03-9.61-1.12-3.33-3.95-5.8-7.4-6.45l-7.82-1.47-3.62-7.19C35,2.04,31.68,0,28,0h0Z"/>
</svg>