<?xml version="1.0" encoding="UTF-8"?>
<svg id="Layer_1" xmlns="http://www.w3.org/2000/svg" version="1.1" viewBox="0 0 56 56">
  <!-- Generator: Adobe Illustrator 30.1.0, SVG Export Plug-In . SVG Version: 2.1.1 Build 136)  -->
  <path d="M28,9.82c.59,0,1.18.31,1.49.92l3.8,7.55c.65,1.3,1.87,2.21,3.29,2.48l8.23,1.54c1.29.24,1.81,1.81.93,2.77l-6,6.58c-.93,1.02-1.36,2.39-1.18,3.75l1.17,8.87c.14,1.06-.7,1.9-1.66,1.9-.25,0-.51-.06-.76-.19l-7.2-3.71c-.67-.34-1.4-.52-2.13-.52-.73,0-1.46.17-2.13.52l-7.2,3.71c-.25.13-.51.19-.76.19-.95,0-1.8-.84-1.66-1.9l1.17-8.87c.18-1.36-.25-2.73-1.17-3.75l-6-6.58c-.88-.97-.36-2.53.93-2.78l8.23-1.54c1.42-.27,2.64-1.18,3.29-2.48l3.8-7.55c.31-.61.9-.92,1.49-.92M28,0C23.64,0,19.7,2.42,17.74,6.32l-2.65,5.27-5.71,1.07c-4.09.77-7.45,3.7-8.78,7.64-1.32,3.95-.4,8.32,2.4,11.39l4.38,4.81-.86,6.5c-.43,3.28.57,6.59,2.75,9.08,2.19,2.49,5.34,3.92,8.64,3.92,1.82,0,3.64-.44,5.26-1.28l4.83-2.49,4.83,2.49c1.62.84,3.44,1.28,5.26,1.28,3.31,0,6.46-1.43,8.64-3.92,2.18-2.48,3.18-5.79,2.75-9.08l-.86-6.5,4.38-4.81c2.8-3.08,3.73-7.44,2.4-11.39-1.32-3.95-4.69-6.88-8.78-7.64l-5.71-1.07-2.65-5.27C36.29,2.42,32.36,0,28,0h0Z"/>
</svg>