<?xml version="1.0" encoding="UTF-8"?>
<svg id="Layer_1" xmlns="http://www.w3.org/2000/svg" version="1.1" viewBox="0 0 50 50">
  <!-- Generator: Adobe Illustrator 30.1.0, SVG Export Plug-In . SVG Version: 2.1.1 Build 136)  -->
  <circle id="Outer" cx="25" cy="25" r="20.62" fill="none" stroke="#000" stroke-width="8.77"/>
  <g>
    <g>
      <rect x="23.4" y="31.58" width="3.17" height="3.17"/>
      <path d="M25.87,32.28v1.76h-1.76v-1.76h1.76M27.27,30.87h-4.57v4.57h4.57v-4.57h0Z"/>
    </g>
    <g>
      <path d="M23.41,28.49v-1.36c0-1.01.37-1.98,1.04-2.73l1.74-1.93c.36-.4.56-.91.56-1.45,0-.65-.54-1.18-1.2-1.18h-1.12c-.66,0-1.2.53-1.2,1.18v.7h-3.18v-.7c0-2.4,1.97-4.36,4.38-4.36h1.12c2.42,0,4.38,1.95,4.38,4.36,0,1.32-.49,2.59-1.38,3.57l-1.75,1.93c-.16.17-.24.38-.24.6v1.37h-3.17Z"/>
      <path d="M25.56,17.36c2.03,0,3.68,1.64,3.68,3.65,0,1.15-.42,2.25-1.19,3.1l-1.74,1.93c-.27.3-.42.67-.42,1.07v.67h-1.77v-.67c0-.83.3-1.63.87-2.25l1.74-1.93c.48-.53.74-1.21.74-1.92,0-1.04-.85-1.89-1.9-1.89h-1.12c-1.05,0-1.9.85-1.9,1.89h-1.78c0-2.01,1.65-3.65,3.68-3.65h1.12M25.56,15.96h-1.12c-2.8,0-5.08,2.27-5.08,5.06v1.41h4.59v-1.41c0-.27.22-.48.49-.48h1.12c.27,0,.49.22.49.48,0,.36-.13.71-.38.98l-1.74,1.93c-.79.88-1.23,2.01-1.23,3.19v.68s.02,1.39.02,1.39h4.55v-1.39s.02-.67.02-.67c0-.05,0-.09.06-.14l1.75-1.93c1-1.11,1.56-2.55,1.56-4.04,0-2.79-2.28-5.06-5.08-5.06h0Z"/>
    </g>
  </g>
</svg>