<?xml version="1.0" encoding="UTF-8"?>
<svg id="Layer_1" xmlns="http://www.w3.org/2000/svg" version="1.1" viewBox="0 0 50 50">
  <!-- Generator: Adobe Illustrator 30.1.0, SVG Export Plug-In . SVG Version: 2.1.1 Build 136)  -->
  <circle id="Outer" cx="25" cy="25" r="22.38" fill="none" stroke="#000" stroke-width="5.23"/>
  <g>
    <g>
      <rect x="23.42" y="32.92" width="3.13" height="3.13"/>
      <path d="M26.16,33.31v2.35h-2.35v-2.35h2.35M26.94,32.53h-3.91v3.91h3.91v-3.91h0Z"/>
    </g>
    <g>
      <path d="M23.43,29.52v-1.28c0-1.21.44-2.37,1.25-3.27l2.33-2.58c.57-.63.89-1.45.89-2.3,0-1.17-.96-2.13-2.14-2.13h-1.49c-1.18,0-2.14.95-2.14,2.13v.39h-3.15v-.39c0-2.9,2.38-5.26,5.29-5.26h1.49c2.92,0,5.29,2.36,5.29,5.26,0,1.62-.6,3.18-1.69,4.39l-2.33,2.58c-.3.33-.46.74-.46,1.17v1.28h-3.13Z"/>
      <path d="M25.75,15.23c2.7,0,4.9,2.18,4.9,4.87,0,1.53-.57,2.99-1.59,4.13l-2.33,2.58c-.36.4-.56.89-.56,1.43v.89h-2.36v-.89c0-1.11.41-2.17,1.16-3l2.33-2.58c.64-.71.99-1.61.99-2.56,0-1.39-1.14-2.52-2.53-2.52h-1.49c-1.4,0-2.53,1.13-2.53,2.52h-2.37c0-2.68,2.2-4.87,4.9-4.87h1.49M25.75,14.45h-1.49c-3.13,0-5.68,2.53-5.68,5.65v.78h3.93v-.78c0-.96.79-1.74,1.75-1.74h1.49c.97,0,1.75.78,1.75,1.74,0,.75-.28,1.48-.79,2.04l-2.33,2.58c-.87.97-1.36,2.22-1.36,3.52v.9s.01.77.01.77h3.9v-.77s.02-.89.02-.89c0-.34.13-.66.36-.91l2.33-2.58c1.16-1.28,1.79-2.93,1.79-4.65,0-3.12-2.55-5.65-5.68-5.65h0Z"/>
    </g>
  </g>
</svg>