<?xml version="1.0" encoding="UTF-8"?>
<svg id="Layer_1" xmlns="http://www.w3.org/2000/svg" version="1.1" viewBox="0 0 111 111">
  <!-- Generator: Adobe Illustrator 30.1.0, SVG Export Plug-In . SVG Version: 2.1.1 Build 136)  -->
  <path d="M55.5,19.46c1.17,0,2.34.61,2.96,1.82l7.54,14.97c1.29,2.57,3.71,4.39,6.53,4.91l16.31,3.06c2.55.48,3.58,3.58,1.84,5.5l-11.88,13.04c-1.83,2.01-2.69,4.73-2.33,7.44l2.32,17.58c.28,2.1-1.4,3.76-3.28,3.76-.5,0-1.02-.12-1.51-.37l-14.27-7.35c-1.32-.68-2.77-1.02-4.21-1.02s-2.89.34-4.21,1.02l-14.27,7.35c-.5.26-1.01.37-1.51.37-1.89,0-3.56-1.66-3.28-3.76l2.32-17.59c.36-2.7-.5-5.42-2.33-7.43l-11.89-13.04c-1.75-1.92-.72-5.02,1.84-5.5l16.31-3.06c2.82-.53,5.23-2.34,6.53-4.91l7.54-14.97c.61-1.22,1.78-1.82,2.96-1.82M55.5,0C46.85,0,39.06,4.8,35.16,12.53l-5.26,10.44-11.32,2.12c-8.11,1.52-14.78,7.33-17.4,15.15-2.62,7.83-.8,16.48,4.76,22.58l8.68,9.53-1.7,12.88c-.86,6.51,1.13,13.06,5.44,17.99,4.33,4.94,10.58,7.77,17.13,7.77,3.6,0,7.21-.88,10.42-2.53l9.57-4.93,9.57,4.93c3.22,1.66,6.82,2.53,10.42,2.53,6.55,0,12.8-2.83,17.13-7.77,4.32-4.93,6.3-11.48,5.44-17.99l-1.7-12.88,8.69-9.53c5.56-6.1,7.38-14.75,4.76-22.58-2.62-7.82-9.29-13.63-17.4-15.15l-11.33-2.12-5.26-10.44C71.94,4.8,64.15,0,55.5,0h0Z"/>
</svg>