<?xml version="1.0" encoding="UTF-8"?>
<svg id="Layer_1" xmlns="http://www.w3.org/2000/svg" version="1.1" viewBox="0 0 111 111">
  <!-- Generator: Adobe Illustrator 30.1.0, SVG Export Plug-In . SVG Version: 2.1.1 Build 136)  -->
  <path d="M55.5,11.62c1.43,0,2.85.74,3.6,2.22l9.18,18.22c1.58,3.13,4.51,5.34,7.95,5.98l19.86,3.72c3.11.58,4.36,4.36,2.23,6.69l-14.47,15.88c-2.23,2.45-3.27,5.76-2.84,9.05l2.82,21.41c.34,2.55-1.7,4.58-3.99,4.58-.61,0-1.24-.14-1.84-.45l-17.37-8.95c-1.61-.83-3.37-1.24-5.13-1.24-1.76,0-3.52.41-5.13,1.24l-17.37,8.95c-.61.31-1.23.45-1.84.45-2.3,0-4.33-2.02-4-4.58l2.82-21.42c.43-3.29-.6-6.59-2.83-9.04l-14.47-15.88c-2.13-2.34-.87-6.12,2.24-6.7l19.86-3.72c3.43-.64,6.37-2.85,7.95-5.98l9.18-18.23c.75-1.48,2.17-2.22,3.6-2.22M55.5,0h0c-5.94,0-11.3,3.3-13.98,8.61l-9.09,18.05-19.66,3.68c-5.57,1.04-10.16,5.04-11.96,10.42-1.8,5.38-.55,11.33,3.27,15.53l14.35,15.75-2.8,21.24c-.59,4.48.77,8.98,3.74,12.36,2.98,3.4,7.28,5.35,11.78,5.35,2.47,0,4.95-.6,7.16-1.74l17.18-8.85,17.18,8.85c2.22,1.14,4.69,1.74,7.16,1.74,4.5,0,8.8-1.95,11.78-5.35,2.97-3.38,4.33-7.89,3.74-12.36l-2.8-21.24,14.35-15.75c3.82-4.19,5.08-10.14,3.27-15.53-1.8-5.38-6.38-9.37-11.96-10.41l-19.66-3.69-9.09-18.05C66.8,3.3,61.44,0,55.5,0h0Z"/>
</svg>