<?xml version="1.0" encoding="UTF-8"?>
<svg id="Layer_1" xmlns="http://www.w3.org/2000/svg" version="1.1" viewBox="0 0 22 22">
  <!-- Generator: Adobe Illustrator 30.1.0, SVG Export Plug-In . SVG Version: 2.1.1 Build 136)  -->
  <g>
    <g>
      <rect x="10.21" y="6.13" width="1.58" height="1.58"/>
      <path d="M11.55,6.37v1.1h-1.1v-1.1h1.1M12.03,5.89h-2.07v2.07h2.07v-2.07h0Z"/>
    </g>
    <g>
      <polygon points="9.1 15.74 9.1 14.16 10.21 14.16 10.21 11.2 9.1 11.2 9.1 9.61 11.79 9.61 11.79 14.16 12.89 14.16 12.89 15.74 9.1 15.74"/>
      <path d="M11.55,9.85v4.55h1.1v1.1h-3.31v-1.1h1.1v-3.44h-1.1v-1.1h2.21M12.03,9.37h-3.17v2.07h1.1v2.48h-1.1v2.07h4.27v-2.07h-1.1v-4.55h0Z"/>
    </g>
  </g>
  <circle id="Outer" cx="11" cy="11" r="9.46" fill="none" stroke="#000" stroke-width="3.08"/>
</svg>