<?xml version="1.0" encoding="UTF-8"?>
<svg id="Layer_1" xmlns="http://www.w3.org/2000/svg" version="1.1" viewBox="0 0 22 22">
  <!-- Generator: Adobe Illustrator 30.1.0, SVG Export Plug-In . SVG Version: 2.1.1 Build 136)  -->
  <g>
    <g>
      <rect x="10.22" y="5.85" width="1.56" height="1.56"/>
      <path d="M11.61,6.02v1.22h-1.22v-1.22h1.22M11.95,5.68h-1.9v1.9h1.9v-1.9h0Z"/>
    </g>
    <g>
      <polygon points="9 16.08 9 14.52 10.22 14.52 10.22 11.07 9 11.07 9 9.51 11.78 9.51 11.78 14.52 13 14.52 13 16.08 9 16.08"/>
      <path d="M11.61,9.68v5.01h1.22v1.22h-3.65v-1.22h1.22v-3.8h-1.22v-1.22h2.43M11.95,9.34h-3.12v1.9h1.22v3.11h-1.22v1.9h4.34v-1.9h-1.22v-5.01h0Z"/>
    </g>
  </g>
  <circle id="Outer" cx="11" cy="11" r="9.85" fill="none" stroke="#000" stroke-width="2.3"/>
</svg>