<?xml version="1.0" encoding="UTF-8"?>
<svg id="Layer_1" xmlns="http://www.w3.org/2000/svg" version="1.1" viewBox="0 0 93 93">
  <!-- Generator: Adobe Illustrator 30.1.0, SVG Export Plug-In . SVG Version: 2.1.1 Build 136)  -->
  <g>
    <g>
      <rect x="43.1" y="27.1" width="6.81" height="6.81"/>
      <path d="M48.6,28.4v4.19h-4.19v-4.19h4.19M51.21,25.79h-9.42v9.42h9.42v-9.42h0Z"/>
    </g>
    <g>
      <polygon points="38.91 65.12 38.91 58.31 43.1 58.31 43.1 47.85 38.91 47.85 38.91 41.04 49.9 41.04 49.9 58.31 54.09 58.31 54.09 65.12 38.91 65.12"/>
      <path d="M48.6,42.35v17.27h4.19v4.19h-12.57v-4.19h4.19v-13.08h-4.19v-4.19h8.38M51.21,39.73h-13.61v9.42h4.19v7.85h-4.19v9.42h17.8v-9.42h-4.19v-17.27h0Z"/>
    </g>
  </g>
  <circle id="Outer" cx="46.5" cy="46.5" r="38.35" fill="none" stroke="#000" stroke-width="16.3"/>
</svg>