<?xml version="1.0" encoding="UTF-8"?>
<svg id="Layer_1" xmlns="http://www.w3.org/2000/svg" version="1.1" viewBox="0 0 49 49">
  <!-- Generator: Adobe Illustrator 30.1.0, SVG Export Plug-In . SVG Version: 2.1.1 Build 136)  -->
  <g>
    <g>
      <rect x="22.74" y="13.65" width="3.53" height="3.53"/>
      <path d="M25.73,14.19v2.46h-2.46v-2.46h2.46M26.8,13.12h-4.6v4.6h4.6v-4.6h0Z"/>
    </g>
    <g>
      <polygon points="20.28 35.06 20.28 31.53 22.74 31.53 22.74 24.94 20.28 24.94 20.28 21.41 26.26 21.41 26.26 31.53 28.72 31.53 28.72 35.06 20.28 35.06"/>
      <path d="M25.73,21.94v10.12h2.46v2.46h-7.37v-2.46h2.46v-7.67h-2.46v-2.46h4.91M26.8,20.87h-7.06v4.6h2.46v5.52h-2.46v4.6h9.51v-4.6h-2.46v-10.12h0Z"/>
    </g>
  </g>
  <circle id="Outer" cx="24.5" cy="24.5" r="21.07" fill="none" stroke="#000" stroke-width="6.86"/>
</svg>