<?xml version="1.0" encoding="UTF-8"?>
<svg id="Layer_1" xmlns="http://www.w3.org/2000/svg" version="1.1" viewBox="0 0 49 49">
  <!-- Generator: Adobe Illustrator 30.1.0, SVG Export Plug-In . SVG Version: 2.1.1 Build 136)  -->
  <g>
    <g>
      <rect x="22.76" y="13.03" width="3.47" height="3.47"/>
      <path d="M25.85,13.41v2.71h-2.71v-2.71h2.71M26.62,12.65h-4.24v4.24h4.24v-4.24h0Z"/>
    </g>
    <g>
      <polygon points="20.05 35.82 20.05 32.35 22.76 32.35 22.76 24.66 20.05 24.66 20.05 21.18 26.24 21.18 26.24 32.35 28.95 32.35 28.95 35.82 20.05 35.82"/>
      <path d="M25.85,21.56v11.17h2.71v2.71h-8.13v-2.71h2.71v-8.46h-2.71v-2.71h5.42M26.62,20.8h-6.95v4.24h2.71v6.93h-2.71v4.24h9.66v-4.24h-2.71v-11.17h0Z"/>
    </g>
  </g>
  <circle id="Outer" cx="24.5" cy="24.5" r="21.94" fill="none" stroke="#000" stroke-width="5.13"/>
</svg>