<?xml version="1.0" encoding="UTF-8"?>
<svg id="Layer_1" xmlns="http://www.w3.org/2000/svg" version="1.1" viewBox="0 0 101 101">
  <!-- Generator: Adobe Illustrator 30.1.0, SVG Export Plug-In . SVG Version: 2.1.1 Build 136)  -->
  <path d="M50.5,10.57c1.3,0,2.6.67,3.27,2.02l8.35,16.58c1.43,2.85,4.11,4.86,7.23,5.44l18.07,3.39c2.83.53,3.97,3.96,2.03,6.09l-13.17,14.45c-2.03,2.23-2.98,5.24-2.58,8.24l2.57,19.48c.31,2.32-1.55,4.16-3.64,4.16-.55,0-1.12-.13-1.68-.41l-15.81-8.14c-1.47-.75-3.07-1.13-4.67-1.13-1.6,0-3.2.38-4.67,1.13l-15.81,8.14c-.55.28-1.12.41-1.68.41-2.09,0-3.94-1.84-3.64-4.16l2.57-19.49c.39-2.99-.55-6-2.58-8.23l-13.17-14.45c-1.94-2.13-.79-5.56,2.03-6.09l18.07-3.39c3.12-.59,5.8-2.6,7.23-5.44l8.35-16.58c.68-1.35,1.98-2.02,3.27-2.02M50.5,0C45.09,0,40.22,3,37.78,7.84l-8.27,16.42-17.88,3.35c-5.07.95-9.24,4.58-10.88,9.48-1.64,4.9-.5,10.31,2.98,14.13l13.06,14.33-2.55,19.33c-.54,4.07.7,8.17,3.4,11.25,2.71,3.1,6.62,4.87,10.72,4.87,2.25,0,4.5-.55,6.52-1.59l15.63-8.05,15.63,8.05c2.02,1.04,4.27,1.59,6.52,1.59,4.1,0,8-1.78,10.72-4.87,2.7-3.08,3.94-7.18,3.4-11.25l-2.55-19.33,13.06-14.33c3.48-3.82,4.62-9.23,2.98-14.13-1.64-4.89-5.81-8.53-10.88-9.48l-17.89-3.35-8.27-16.42C60.78,3,55.91,0,50.5,0h0Z"/>
</svg>