<?xml version="1.0" encoding="UTF-8"?>
<svg id="Layer_1" xmlns="http://www.w3.org/2000/svg" version="1.1" viewBox="0 0 101 101">
  <!-- Generator: Adobe Illustrator 30.1.0, SVG Export Plug-In . SVG Version: 2.1.1 Build 136)  -->
  <path d="M50.5,14.14c1.18,0,2.36.61,2.98,1.84l7.61,15.1c1.31,2.59,3.74,4.42,6.59,4.96l16.46,3.08c2.57.48,3.62,3.61,1.85,5.55l-11.99,13.16c-1.85,2.03-2.71,4.78-2.35,7.5l2.34,17.74c.28,2.12-1.41,3.79-3.31,3.79-.5,0-1.02-.12-1.53-.38l-14.39-7.41c-1.33-.69-2.79-1.03-4.25-1.03s-2.92.34-4.25,1.03l-14.39,7.41c-.5.26-1.02.38-1.53.38-1.9,0-3.59-1.68-3.31-3.79l2.34-17.75c.36-2.72-.5-5.46-2.35-7.49l-11.99-13.16c-1.77-1.94-.72-5.07,1.85-5.55l16.45-3.08c2.84-.53,5.28-2.37,6.58-4.95l7.61-15.1c.62-1.23,1.8-1.84,2.98-1.84M50.5,0C43.86,0,37.88,3.69,34.89,9.62l-6.53,12.96-14.09,2.64c-6.23,1.17-11.34,5.62-13.36,11.63-2.01,6.01-.61,12.66,3.66,17.34l10.48,11.5-2.05,15.52c-.66,5,.86,10.03,4.18,13.81,3.33,3.8,8.12,5.97,13.15,5.97,2.76,0,5.53-.67,8-1.95l12.17-6.27,12.17,6.27c2.47,1.27,5.24,1.95,8,1.95,5.03,0,9.82-2.18,13.15-5.97,3.31-3.78,4.84-8.81,4.18-13.81l-2.05-15.52,10.48-11.5c4.27-4.68,5.67-11.33,3.66-17.34-2.01-6.01-7.13-10.46-13.35-11.63l-14.1-2.64-6.53-12.96C63.12,3.69,57.14,0,50.5,0h0Z"/>
</svg>