<?xml version="1.0" encoding="UTF-8"?>
<svg id="Layer_1" xmlns="http://www.w3.org/2000/svg" version="1.1" viewBox="0 0 91 91">
  <!-- Generator: Adobe Illustrator 30.1.0, SVG Export Plug-In . SVG Version: 2.1.1 Build 136)  -->
  <path d="M45.5,12.74c1.07,0,2.13.55,2.69,1.66l6.85,13.6c1.18,2.33,3.37,3.99,5.94,4.47l14.83,2.78c2.32.43,3.26,3.25,1.67,5l-10.8,11.85c-1.67,1.83-2.44,4.3-2.12,6.76l2.11,15.98c.25,1.91-1.27,3.42-2.98,3.42-.45,0-.92-.11-1.38-.34l-12.97-6.68c-1.2-.62-2.52-.93-3.83-.93s-2.63.31-3.83.93l-12.97,6.68c-.45.23-.92.34-1.38.34-1.71,0-3.23-1.51-2.98-3.42l2.11-15.99c.32-2.45-.45-4.92-2.12-6.75l-10.8-11.86c-1.59-1.75-.65-4.57,1.67-5l14.83-2.78c2.56-.48,4.76-2.13,5.93-4.46l6.85-13.61c.56-1.1,1.62-1.66,2.69-1.66M45.5,0C39.52,0,34.13,3.32,31.43,8.67l-5.88,11.68-12.7,2.38c-5.61,1.05-10.22,5.07-12.03,10.48-1.81,5.42-.55,11.4,3.29,15.62l9.44,10.36-1.84,13.99c-.59,4.5.78,9.04,3.76,12.44,3,3.42,7.32,5.38,11.85,5.38,2.49,0,4.98-.61,7.21-1.75l10.97-5.65,10.97,5.65c2.23,1.15,4.72,1.75,7.21,1.75,4.53,0,8.85-1.96,11.85-5.38,2.99-3.41,4.36-7.94,3.76-12.44l-1.84-13.99,9.44-10.36c3.85-4.22,5.11-10.21,3.29-15.62-1.81-5.41-6.42-9.43-12.03-10.48l-12.7-2.38-5.88-11.68C56.87,3.32,51.48,0,45.5,0h0Z"/>
</svg>