<?xml version="1.0" encoding="UTF-8"?>
<svg id="Layer_1" xmlns="http://www.w3.org/2000/svg" version="1.1" viewBox="0 0 91 91">
  <!-- Generator: Adobe Illustrator 30.1.0, SVG Export Plug-In . SVG Version: 2.1.1 Build 136)  -->
  <path d="M45.5,15.95c.96,0,1.92.5,2.42,1.49l6.18,12.27c1.06,2.11,3.04,3.6,5.35,4.03l13.37,2.51c2.09.39,2.94,2.93,1.5,4.51l-9.74,10.69c-1.5,1.65-2.2,3.88-1.91,6.1l1.9,14.42c.23,1.72-1.14,3.08-2.69,3.08-.41,0-.83-.1-1.24-.31l-11.7-6.02c-1.08-.56-2.27-.84-3.46-.84-1.19,0-2.37.28-3.46.84l-11.7,6.02c-.41.21-.83.31-1.24.31-1.55,0-2.92-1.36-2.69-3.08l1.9-14.42c.29-2.21-.41-4.44-1.91-6.09l-9.74-10.69c-1.44-1.58-.59-4.12,1.51-4.51l13.37-2.51c2.31-.43,4.29-1.92,5.35-4.03l6.18-12.27c.5-1,1.46-1.49,2.42-1.49M45.5,0C38.41,0,32.02,3.94,28.83,10.27l-4.31,8.56-9.28,1.74c-6.65,1.25-12.11,6.01-14.26,12.42-2.15,6.42-.65,13.51,3.9,18.51l7.12,7.81-1.39,10.56c-.7,5.33.92,10.71,4.46,14.75,3.55,4.05,8.67,6.37,14.04,6.37,2.95,0,5.91-.72,8.54-2.08l7.85-4.04,7.85,4.04c2.64,1.36,5.59,2.08,8.54,2.08,5.37,0,10.49-2.32,14.04-6.37,3.54-4.04,5.17-9.41,4.46-14.75l-1.39-10.56,7.12-7.81c4.56-5,6.05-12.1,3.9-18.51-2.15-6.42-7.61-11.17-14.26-12.42l-9.29-1.74-4.31-8.56C58.98,3.94,52.59,0,45.5,0h0Z"/>
</svg>