<?xml version="1.0" encoding="UTF-8"?>
<svg id="Layer_1" xmlns="http://www.w3.org/2000/svg" version="1.1" viewBox="0 0 91 91">
  <!-- Generator: Adobe Illustrator 30.1.0, SVG Export Plug-In . SVG Version: 2.1.1 Build 136)  -->
  <path d="M45.5,9.53c1.17,0,2.34.61,2.95,1.82l7.53,14.94c1.29,2.56,3.7,4.38,6.52,4.9l16.28,3.05c2.55.48,3.58,3.57,1.83,5.49l-11.86,13.02c-1.83,2.01-2.68,4.72-2.33,7.42l2.31,17.55c.28,2.09-1.39,3.75-3.28,3.75-.5,0-1.01-.12-1.51-.37l-14.24-7.33c-1.32-.68-2.76-1.02-4.21-1.02-1.44,0-2.89.34-4.21,1.02l-14.24,7.33c-.5.26-1.01.37-1.51.37-1.88,0-3.55-1.66-3.28-3.75l2.32-17.56c.36-2.69-.5-5.41-2.32-7.41l-11.86-13.02c-1.75-1.92-.71-5.01,1.83-5.49l16.28-3.05c2.81-.53,5.22-2.34,6.51-4.9l7.53-14.94c.61-1.21,1.78-1.82,2.95-1.82M45.5,0C40.63,0,36.23,2.71,34.04,7.06l-7.45,14.8-16.11,3.02c-4.57.86-8.33,4.13-9.8,8.54-1.48,4.41-.45,9.29,2.68,12.73l11.76,12.91-2.3,17.42c-.48,3.67.63,7.36,3.06,10.14,2.45,2.79,5.96,4.39,9.66,4.39,2.03,0,4.06-.49,5.87-1.43l14.09-7.25,14.09,7.25c1.82.94,3.85,1.43,5.87,1.43,3.69,0,7.21-1.6,9.66-4.39,2.43-2.77,3.55-6.47,3.06-10.14l-2.3-17.42,11.77-12.91c3.13-3.44,4.16-8.32,2.68-12.73-1.48-4.41-5.23-7.68-9.8-8.54l-16.12-3.02-7.45-14.8C54.76,2.71,50.37,0,45.5,0h0Z"/>
</svg>