<?xml version="1.0" encoding="UTF-8"?>
<svg id="Layer_1" xmlns="http://www.w3.org/2000/svg" version="1.1" viewBox="0 0 18 18">
  <!-- Generator: Adobe Illustrator 30.1.0, SVG Export Plug-In . SVG Version: 2.1.1 Build 136)  -->
  <g>
    <g>
      <rect x="8.36" y="4.79" width="1.28" height="1.28"/>
      <path d="M9.5,4.93v1h-1v-1h1M9.78,4.65h-1.56v1.56h1.56v-1.56h0Z"/>
    </g>
    <g>
      <polygon points="7.37 13.16 7.37 11.88 8.36 11.88 8.36 9.06 7.37 9.06 7.37 7.78 9.64 7.78 9.64 11.88 10.63 11.88 10.63 13.16 7.37 13.16"/>
      <path d="M9.5,7.92v4.1h1v1h-2.99v-1h1v-3.11h-1v-1h1.99M9.78,7.64h-2.55v1.56h1v2.54h-1v1.56h3.55v-1.56h-1v-4.1h0Z"/>
    </g>
  </g>
  <circle id="Outer" cx="9" cy="9" r="8.06" fill="none" stroke="#000" stroke-width="1.88"/>
</svg>