<?xml version="1.0" encoding="UTF-8"?>
<svg id="Layer_1" xmlns="http://www.w3.org/2000/svg" version="1.1" viewBox="0 0 18 18">
  <!-- Generator: Adobe Illustrator 30.1.0, SVG Export Plug-In . SVG Version: 2.1.1 Build 136)  -->
  <g>
    <g>
      <rect x="8.35" y="5.02" width="1.3" height="1.3"/>
      <path d="M9.45,5.21v.9h-.9v-.9h.9M9.84,4.82h-1.69v1.69h1.69v-1.69h0Z"/>
    </g>
    <g>
      <polygon points="7.45 12.88 7.45 11.58 8.35 11.58 8.35 9.16 7.45 9.16 7.45 7.86 9.65 7.86 9.65 11.58 10.55 11.58 10.55 12.88 7.45 12.88"/>
      <path d="M9.45,8.06v3.72h.9v.9h-2.71v-.9h.9v-2.82h-.9v-.9h1.8M9.84,7.67h-2.59v1.69h.9v2.03h-.9v1.69h3.49v-1.69h-.9v-3.72h0Z"/>
    </g>
  </g>
  <circle id="Outer" cx="9" cy="9" r="7.74" fill="none" stroke="#000" stroke-width="2.52"/>
</svg>