<?xml version="1.0" encoding="UTF-8"?>
<svg id="Layer_1" xmlns="http://www.w3.org/2000/svg" version="1.1" viewBox="0 0 44 44">
  <!-- Generator: Adobe Illustrator 30.1.0, SVG Export Plug-In . SVG Version: 2.1.1 Build 136)  -->
  <path d="M22,7.71c.46,0,.93.24,1.17.72l2.99,5.93c.51,1.02,1.47,1.74,2.59,1.95l6.47,1.21c1.01.19,1.42,1.42.73,2.18l-4.71,5.17c-.73.8-1.06,1.88-.92,2.95l.92,6.97c.11.83-.55,1.49-1.3,1.49-.2,0-.4-.05-.6-.15l-5.66-2.91c-.52-.27-1.1-.41-1.67-.41s-1.15.14-1.67.41l-5.66,2.91c-.2.1-.4.15-.6.15-.75,0-1.41-.66-1.3-1.49l.92-6.97c.14-1.07-.2-2.15-.92-2.94l-4.71-5.17c-.69-.76-.28-1.99.73-2.18l6.47-1.21c1.12-.21,2.07-.93,2.59-1.95l2.99-5.93c.24-.48.71-.72,1.17-.72M22,0C18.57,0,15.48,1.9,13.94,4.97l-2.09,4.14-4.49.84c-3.21.6-5.86,2.9-6.9,6.01-1.04,3.1-.32,6.53,1.89,8.95l3.44,3.78-.67,5.11c-.34,2.58.45,5.18,2.16,7.13,1.72,1.96,4.19,3.08,6.79,3.08,1.43,0,2.86-.35,4.13-1l3.79-1.95,3.79,1.95c1.28.66,2.7,1,4.13,1,2.6,0,5.07-1.12,6.79-3.08,1.71-1.95,2.5-4.55,2.16-7.13l-.67-5.11,3.44-3.78c2.2-2.42,2.93-5.85,1.89-8.95-1.04-3.1-3.68-5.4-6.9-6.01l-4.49-.84-2.09-4.14C28.52,1.9,25.43,0,22,0h0Z"/>
</svg>