<?xml version="1.0" encoding="UTF-8"?>
<svg id="Layer_1" xmlns="http://www.w3.org/2000/svg" version="1.1" viewBox="0 0 37 37">
  <!-- Generator: Adobe Illustrator 30.1.0, SVG Export Plug-In . SVG Version: 2.1.1 Build 136)  -->
  <path d="M18.5,6.49c.39,0,.78.2.99.61l2.51,4.99c.43.86,1.24,1.46,2.18,1.64l5.44,1.02c.85.16,1.2,1.19.61,1.83l-3.96,4.35c-.61.67-.9,1.58-.78,2.48l.77,5.86c.09.7-.47,1.25-1.09,1.25-.17,0-.34-.04-.5-.12l-4.76-2.45c-.44-.23-.92-.34-1.4-.34-.48,0-.96.11-1.4.34l-4.76,2.45c-.17.09-.34.12-.5.12-.63,0-1.19-.55-1.09-1.25l.77-5.86c.12-.9-.17-1.81-.78-2.48l-3.96-4.35c-.58-.64-.24-1.67.61-1.83l5.44-1.02c.94-.18,1.74-.78,2.18-1.64l2.51-4.99c.2-.41.59-.61.99-.61M18.5,0c-2.88,0-5.48,1.6-6.78,4.18l-1.75,3.48-3.77.71c-2.7.51-4.93,2.44-5.8,5.05-.87,2.61-.27,5.49,1.59,7.53l2.89,3.18-.57,4.29c-.29,2.17.38,4.35,1.81,6,1.44,1.65,3.53,2.59,5.71,2.59,1.2,0,2.4-.29,3.47-.84l3.19-1.64,3.19,1.64c1.07.55,2.27.84,3.47.84,2.18,0,4.27-.94,5.71-2.59,1.44-1.64,2.1-3.83,1.81-6l-.57-4.29,2.9-3.18c1.85-2.03,2.46-4.92,1.59-7.53-.87-2.61-3.1-4.54-5.8-5.05l-3.78-.71-1.75-3.48c-1.3-2.58-3.89-4.18-6.78-4.18h0Z"/>
</svg>