<?xml version="1.0" encoding="UTF-8"?>
<svg id="Layer_1" xmlns="http://www.w3.org/2000/svg" version="1.1" viewBox="0 0 13 13">
  <!-- Generator: Adobe Illustrator 30.1.0, SVG Export Plug-In . SVG Version: 2.1.1 Build 136)  -->
  <g>
    <g>
      <rect x="6.04" y="3.46" width=".92" height=".92"/>
      <path d="M6.86,3.56v.72h-.72v-.72h.72M7.06,3.36h-1.12v1.12h1.12v-1.12h0Z"/>
    </g>
    <g>
      <polygon points="5.32 9.5 5.32 8.58 6.04 8.58 6.04 6.54 5.32 6.54 5.32 5.62 6.96 5.62 6.96 8.58 7.68 8.58 7.68 9.5 5.32 9.5"/>
      <path d="M6.86,5.72v2.96h.72v.72h-2.16v-.72h.72v-2.24h-.72v-.72h1.44M7.06,5.52h-1.84v1.12h.72v1.84h-.72v1.12h2.56v-1.12h-.72v-2.96h0Z"/>
    </g>
  </g>
  <circle id="Outer" cx="6.5" cy="6.5" r="5.82" fill="none" stroke="#000" stroke-width="1.36"/>
</svg>