<?xml version="1.0" encoding="UTF-8"?>
<svg id="Layer_1" xmlns="http://www.w3.org/2000/svg" version="1.1" viewBox="0 0 13 13">
  <!-- Generator: Adobe Illustrator 30.1.0, SVG Export Plug-In . SVG Version: 2.1.1 Build 136)  -->
  <g>
    <g>
      <rect x="6.03" y="3.62" width=".94" height=".94"/>
      <path d="M6.83,3.76v.65h-.65v-.65h.65M7.11,3.48h-1.22v1.22h1.22v-1.22h0Z"/>
    </g>
    <g>
      <polygon points="5.38 9.3 5.38 8.37 6.03 8.37 6.03 6.62 5.38 6.62 5.38 5.68 6.97 5.68 6.97 8.37 7.62 8.37 7.62 9.3 5.38 9.3"/>
      <path d="M6.83,5.82v2.69h.65v.65h-1.95v-.65h.65v-2.03h-.65v-.65h1.3M7.11,5.54h-1.87v1.22h.65v1.47h-.65v1.22h2.52v-1.22h-.65v-2.69h0Z"/>
    </g>
  </g>
  <circle id="Outer" cx="6.5" cy="6.5" r="5.59" fill="none" stroke="#000" stroke-width="1.82"/>
</svg>