<?xml version="1.0" encoding="UTF-8"?>
<svg id="Layer_1" xmlns="http://www.w3.org/2000/svg" version="1.1" viewBox="0 0 78 78">
  <!-- Generator: Adobe Illustrator 30.1.0, SVG Export Plug-In . SVG Version: 2.1.1 Build 136)  -->
  <circle id="Outer" cx="39" cy="39" r="34.92" fill="none" stroke="#000" stroke-width="8.17"/>
  <g>
    <g>
      <rect x="36.54" y="51.36" width="4.88" height="4.88"/>
      <path d="M40.81,51.97v3.66h-3.66v-3.66h3.66M42.03,50.75h-6.1v6.1h6.1v-6.1h0Z"/>
    </g>
    <g>
      <path d="M36.54,46.05l-.02-1.99c0-1.89.71-3.7,1.97-5.1l3.63-4.02c.89-.99,1.38-2.26,1.38-3.59,0-1.83-1.5-3.32-3.34-3.32h-2.33c-1.84,0-3.34,1.49-3.34,3.32v.61h-4.91v-.61c0-4.52,3.71-8.21,8.26-8.21h2.33c4.55,0,8.26,3.68,8.26,8.21,0,2.53-.94,4.97-2.64,6.85l-3.63,4.02c-.47.52-.72,1.15-.72,1.83l-.02,1.99h-4.87Z"/>
      <path d="M40.17,23.76c4.22,0,7.65,3.41,7.65,7.6,0,2.38-.88,4.67-2.48,6.45l-3.63,4.02c-.56.62-.87,1.39-.88,2.23v1.39h-3.68v-1.39c0-1.74.63-3.39,1.8-4.68l3.63-4.02c.99-1.1,1.54-2.52,1.54-4,0-2.16-1.77-3.93-3.95-3.93h-2.33c-2.18,0-3.95,1.76-3.95,3.93h-3.7c0-4.19,3.43-7.6,7.65-7.6h2.33M40.17,22.54h-2.33c-4.89,0-8.87,3.95-8.87,8.81v1.22h6.13v-1.22c0-1.49,1.23-2.71,2.73-2.71h2.33c1.51,0,2.73,1.21,2.73,2.71,0,1.17-.44,2.3-1.23,3.18l-3.63,4.02c-1.36,1.51-2.12,3.46-2.13,5.49v1.4s.02,1.21.02,1.21h6.08v-1.21s.03-1.39.03-1.39c0-.53.2-1.02.56-1.43l3.63-4.02c1.8-2,2.8-4.58,2.8-7.26,0-4.86-3.98-8.81-8.87-8.81h0Z"/>
    </g>
  </g>
</svg>