<?xml version="1.0" encoding="UTF-8"?>
<svg id="Layer_1" xmlns="http://www.w3.org/2000/svg" version="1.1" viewBox="0 0 78 78">
  <!-- Generator: Adobe Illustrator 30.1.0, SVG Export Plug-In . SVG Version: 2.1.1 Build 136)  -->
  <circle id="Outer" cx="39" cy="39" r="32.16" fill="none" stroke="#000" stroke-width="13.67"/>
  <g>
    <g>
      <rect x="36.51" y="49.26" width="4.94" height="4.94"/>
      <path d="M40.35,50.35v2.75h-2.75v-2.75h2.75M42.55,48.16h-7.14v7.14h7.14v-7.14h0Z"/>
    </g>
    <g>
      <path d="M36.52,44.44l-.02-2.13c0-1.58.59-3.09,1.64-4.26l2.72-3.01c.56-.62.87-1.43.87-2.26,0-1.02-.84-1.85-1.87-1.85h-1.75c-1.03,0-1.87.83-1.87,1.85v1.1h-4.97v-1.1c0-3.75,3.07-6.79,6.83-6.79h1.75c3.77,0,6.83,3.05,6.83,6.79,0,2.06-.76,4.04-2.14,5.57l-2.72,3.02c-.25.27-.37.59-.38.94l-.02,2.13h-4.92Z"/>
      <path d="M39.87,27.08c3.16,0,5.74,2.56,5.74,5.7,0,1.79-.66,3.5-1.86,4.83l-2.72,3.02c-.42.47-.66,1.05-.66,1.67v1.04h-2.76v-1.04c0-1.3.48-2.54,1.35-3.51l2.72-3.01c.75-.83,1.16-1.89,1.16-3,0-1.62-1.33-2.94-2.97-2.94h-1.75c-1.64,0-2.97,1.32-2.97,2.94h-2.77c0-3.14,2.57-5.7,5.74-5.7h1.75M39.87,24.89h-1.75c-4.37,0-7.93,3.54-7.93,7.89v2.19h7.16v-2.19c0-.41.35-.75.77-.75h1.75c.43,0,.77.34.77.75,0,.56-.21,1.11-.59,1.53l-2.72,3.01c-1.24,1.37-1.92,3.13-1.93,4.97v1.07s.03,2.17.03,2.17h7.09l.02-2.17v-1.04c.01-.07.02-.14.1-.22l2.72-3.02c1.57-1.73,2.43-3.97,2.43-6.3,0-4.35-3.56-7.89-7.93-7.89h0Z"/>
    </g>
  </g>
</svg>