<?xml version="1.0" encoding="UTF-8"?>
<svg id="Layer_1" xmlns="http://www.w3.org/2000/svg" version="1.1" viewBox="0 0 113 113">
  <!-- Generator: Adobe Illustrator 30.1.0, SVG Export Plug-In . SVG Version: 2.1.1 Build 136)  -->
  <g>
    <g>
      <rect x="52.37" y="32.92" width="8.27" height="8.27"/>
      <path d="M59.05,34.51v5.09h-5.09v-5.09h5.09M62.22,31.33h-11.45v11.45h11.45v-11.45h0Z"/>
    </g>
    <g>
      <polygon points="47.27 79.12 47.27 70.85 52.37 70.85 52.37 58.14 47.27 58.14 47.27 49.87 60.63 49.87 60.63 70.85 65.73 70.85 65.73 79.12 47.27 79.12"/>
      <path d="M59.05,51.46v20.99h5.09v5.09h-15.27v-5.09h5.09v-15.89h-5.09v-5.09h10.18M62.22,48.28h-16.54v11.45h5.09v9.54h-5.09v11.45h21.63v-11.45h-5.09v-20.99h0Z"/>
    </g>
  </g>
  <circle id="Outer" cx="56.5" cy="56.5" r="46.59" fill="none" stroke="#000" stroke-width="19.81"/>
</svg>