<?xml version="1.0" encoding="UTF-8"?>
<svg id="Layer_1" xmlns="http://www.w3.org/2000/svg" version="1.1" viewBox="0 0 127 127">
  <!-- Generator: Adobe Illustrator 30.1.0, SVG Export Plug-In . SVG Version: 2.1.1 Build 136)  -->
  <g>
    <g>
      <rect x="58.85" y="37" width="9.29" height="9.29"/>
      <path d="M66.36,38.79v5.72h-5.72v-5.72h5.72M69.93,35.21h-12.87v12.87h12.87v-12.87h0Z"/>
    </g>
    <g>
      <polygon points="53.13 88.92 53.13 79.63 58.85 79.63 58.85 65.34 53.13 65.34 53.13 56.04 68.15 56.04 68.15 79.63 73.87 79.63 73.87 88.92 53.13 88.92"/>
      <path d="M66.36,57.83v23.59h5.72v5.72h-17.17v-5.72h5.72v-17.86h-5.72v-5.72h11.44M69.93,54.26h-18.59v12.87h5.72v10.72h-5.72v12.87h24.31v-12.87h-5.72v-23.59h0Z"/>
    </g>
  </g>
  <circle id="Outer" cx="63.5" cy="63.5" r="52.37" fill="none" stroke="#000" stroke-width="22.26"/>
</svg>