<?xml version="1.0" encoding="UTF-8"?>
<svg id="Layer_1" xmlns="http://www.w3.org/2000/svg" version="1.1" viewBox="0 0 8 8">
  <!-- Generator: Adobe Illustrator 30.1.0, SVG Export Plug-In . SVG Version: 2.1.1 Build 136)  -->
  <circle id="Outer" cx="4" cy="4" r="3.3" fill="none" stroke="#000" stroke-width="1.4"/>
  <g>
    <g>
      <rect x="3.74" y="5.05" width=".51" height=".51"/>
      <path d="M4.14,5.16v.28h-.28v-.28h.28M4.36,4.94h-.73v.73h.73v-.73h0Z"/>
    </g>
    <g>
      <path d="M3.75,4.56v-.22c0-.16.06-.32.17-.44l.28-.31c.06-.06.09-.15.09-.23,0-.1-.09-.19-.19-.19h-.18c-.11,0-.19.09-.19.19v.11h-.51v-.11c0-.38.31-.7.7-.7h.18c.39,0,.7.31.7.7,0,.21-.08.41-.22.57l-.28.31s-.04.06-.04.1v.22h-.51Z"/>
      <path d="M4.09,2.78c.32,0,.59.26.59.58,0,.18-.07.36-.19.5l-.28.31s-.07.11-.07.17v.11h-.28v-.11c0-.13.05-.26.14-.36l.28-.31c.08-.08.12-.19.12-.31,0-.17-.14-.3-.3-.3h-.18c-.17,0-.3.14-.3.3h-.28c0-.32.26-.58.59-.58h.18M4.09,2.55h-.18c-.45,0-.81.36-.81.81v.22h.73v-.22s.04-.08.08-.08h.18s.08.03.08.08c0,.06-.02.11-.06.16l-.28.31c-.13.14-.2.32-.2.51v.11s0,.22,0,.22h.73v-.22s0-.11,0-.11l.29-.33c.16-.18.25-.41.25-.65,0-.45-.36-.81-.81-.81h0Z"/>
    </g>
  </g>
</svg>