<?xml version="1.0" encoding="UTF-8"?>
<svg id="Layer_1" xmlns="http://www.w3.org/2000/svg" version="1.1" viewBox="0 0 32 32">
  <!-- Generator: Adobe Illustrator 30.1.0, SVG Export Plug-In . SVG Version: 2.1.1 Build 136)  -->
  <circle id="Outer" cx="16" cy="16" r="14.33" fill="none" stroke="#000" stroke-width="3.35"/>
  <g>
    <g>
      <rect x="14.99" y="21.07" width="2" height="2"/>
      <path d="M16.74,21.32v1.5h-1.5v-1.5h1.5M17.24,20.82h-2.5v2.5h2.5v-2.5h0Z"/>
    </g>
    <g>
      <path d="M14.99,18.89v-.82c0-.78.28-1.52.8-2.09l1.49-1.65c.37-.4.57-.93.57-1.47,0-.75-.62-1.36-1.37-1.36h-.96c-.76,0-1.37.61-1.37,1.36v.25h-2.02v-.25c0-1.86,1.52-3.37,3.39-3.37h.96c1.87,0,3.39,1.51,3.39,3.37,0,1.04-.38,2.04-1.08,2.81l-1.49,1.65c-.19.21-.29.47-.29.75v.82h-2.01Z"/>
      <path d="M16.48,9.75c1.73,0,3.14,1.4,3.14,3.12,0,.98-.36,1.92-1.02,2.64l-1.49,1.65c-.23.26-.36.57-.36.92v.57h-1.51v-.57c0-.71.26-1.39.74-1.92l1.49-1.65c.41-.45.63-1.03.63-1.64,0-.89-.73-1.61-1.62-1.61h-.96c-.89,0-1.62.72-1.62,1.61h-1.52c0-1.72,1.41-3.12,3.14-3.12h.96M16.48,9.25h-.96c-2.01,0-3.64,1.62-3.64,3.62v.5h2.52v-.5c0-.61.5-1.11,1.12-1.11h.96c.62,0,1.12.5,1.12,1.11,0,.48-.18.94-.5,1.3l-1.49,1.65c-.56.62-.87,1.42-.87,2.25v.57s0,.5,0,.5h2.49v-.49s.01-.57.01-.57c0-.22.08-.42.23-.59l1.49-1.65c.74-.82,1.15-1.88,1.15-2.98,0-1.99-1.63-3.62-3.64-3.62h0Z"/>
    </g>
  </g>
</svg>