<?xml version="1.0" encoding="UTF-8"?>
<svg id="Layer_1" xmlns="http://www.w3.org/2000/svg" version="1.1" viewBox="0 0 106 106">
  <!-- Generator: Adobe Illustrator 30.1.0, SVG Export Plug-In . SVG Version: 2.1.1 Build 136)  -->
  <circle id="Outer" cx="53" cy="53" r="45.58" fill="none" stroke="#000" stroke-width="14.84"/>
  <g>
    <g>
      <rect x="49.64" y="68.37" width="6.66" height="6.66"/>
      <path d="M55.14,69.53v4.34h-4.34v-4.34h4.34M57.46,67.21h-8.98v8.98h8.98v-8.98h0Z"/>
    </g>
    <g>
      <path d="M49.66,61.44l-.02-2.79c0-2.35.88-4.6,2.45-6.34l4.3-4.76c.98-1.09,1.53-2.5,1.53-3.96,0-1.93-1.58-3.49-3.53-3.49h-2.76c-1.94,0-3.53,1.57-3.53,3.49v1.16h-6.7v-1.16c0-5.6,4.59-10.16,10.22-10.16h2.76c5.64,0,10.22,4.56,10.22,10.16,0,3.11-1.15,6.1-3.24,8.41l-4.3,4.76c-.48.53-.74,1.18-.74,1.87l-.03,2.8h-6.64Z"/>
      <path d="M54.38,34.59c5,0,9.06,4.04,9.06,9,0,2.82-1.05,5.54-2.94,7.64l-4.3,4.76c-.67.74-1.03,1.65-1.04,2.64l-.02,1.64h-4.34v-1.64c0-2.06.75-4.02,2.14-5.55l4.3-4.76c1.18-1.3,1.83-2.99,1.83-4.74,0-2.56-2.1-4.65-4.69-4.65h-2.76c-2.58,0-4.69,2.09-4.69,4.65h-4.38c0-4.96,4.07-9,9.06-9h2.76M54.38,32.27h-2.76c-6.28,0-11.38,5.08-11.38,11.32v2.32h9.02v-2.32c0-1.29,1.06-2.33,2.37-2.33h2.76c1.3,0,2.37,1.05,2.37,2.33,0,1.17-.44,2.3-1.23,3.18l-4.3,4.76c-1.76,1.95-2.74,4.47-2.75,7.09v1.67s.03,2.3.03,2.3h8.93l.02-2.3.02-1.64c0-.42.15-.79.44-1.11l4.3-4.77c2.28-2.53,3.54-5.79,3.54-9.19,0-6.24-5.11-11.32-11.38-11.32h0Z"/>
    </g>
  </g>
</svg>