<?xml version="1.0" encoding="UTF-8"?>
<svg id="Layer_1" xmlns="http://www.w3.org/2000/svg" version="1.1" viewBox="0 0 106 106">
  <!-- Generator: Adobe Illustrator 30.1.0, SVG Export Plug-In . SVG Version: 2.1.1 Build 136)  -->
  <circle id="Outer" cx="53" cy="53" r="43.71" fill="none" stroke="#000" stroke-width="18.58"/>
  <g>
    <g>
      <rect x="49.62" y="66.94" width="6.71" height="6.71"/>
      <path d="M54.84,68.43v3.73h-3.73v-3.73h3.73M57.82,65.45h-9.7v9.7h9.7v-9.7h0Z"/>
    </g>
    <g>
      <path d="M49.64,60.39l-.03-2.89c0-2.15.8-4.2,2.23-5.79l3.7-4.1c.76-.85,1.19-1.94,1.19-3.07,0-1.38-1.14-2.51-2.54-2.51h-2.38c-1.4,0-2.54,1.13-2.54,2.51v1.49h-6.75v-1.49c0-5.09,4.17-9.23,9.29-9.23h2.38c5.12,0,9.29,4.14,9.29,9.23,0,2.8-1.04,5.49-2.92,7.57l-3.7,4.1c-.34.37-.51.8-.51,1.28l-.03,2.9h-6.69Z"/>
      <path d="M54.19,36.81c4.3,0,7.8,3.47,7.8,7.74,0,2.43-.9,4.76-2.53,6.57l-3.7,4.1c-.57.63-.89,1.42-.89,2.27v1.41h-3.75v-1.41c0-1.77.65-3.46,1.84-4.77l3.7-4.1c1.01-1.12,1.57-2.57,1.57-4.07,0-2.21-1.81-4-4.03-4h-2.38c-2.22,0-4.03,1.8-4.03,4h-3.77c0-4.27,3.5-7.74,7.8-7.74h2.38M54.19,33.83h-2.38c-5.94,0-10.78,4.81-10.78,10.72v2.98h9.73v-2.98c0-.56.47-1.02,1.05-1.02h2.38c.58,0,1.05.46,1.05,1.02,0,.77-.28,1.5-.8,2.08l-3.7,4.1c-1.68,1.86-2.61,4.26-2.62,6.76v1.45s.04,2.95.04,2.95h9.64l.03-2.95v-1.41c.01-.1.03-.19.14-.31l3.7-4.1c2.13-2.36,3.3-5.4,3.3-8.57,0-5.91-4.84-10.72-10.78-10.72h0Z"/>
    </g>
  </g>
</svg>