<?xml version="1.0" encoding="UTF-8"?>
<svg id="Layer_1" xmlns="http://www.w3.org/2000/svg" version="1.1" viewBox="0 0 114 114">
  <!-- Generator: Adobe Illustrator 30.1.0, SVG Export Plug-In . SVG Version: 2.1.1 Build 136)  -->
  <g>
    <g>
      <rect x="52.96" y="30.32" width="8.08" height="8.08"/>
      <path d="M60.15,31.21v6.3h-6.3v-6.3h6.3M61.93,29.43h-9.87v9.87h9.87v-9.87h0Z"/>
    </g>
    <g>
      <polygon points="46.66 83.34 46.66 75.26 52.96 75.26 52.96 57.36 46.66 57.36 46.66 49.28 61.04 49.28 61.04 75.26 67.34 75.26 67.34 83.34 46.66 83.34"/>
      <path d="M60.15,50.17v25.98h6.3v6.3h-18.91v-6.3h6.3v-19.68h-6.3v-6.3h12.61M61.93,48.39h-16.17v9.87h6.3v16.11h-6.3v9.87h22.47v-9.87h-6.3v-25.98h0Z"/>
    </g>
  </g>
  <circle id="Outer" cx="57" cy="57" r="51.03" fill="none" stroke="#000" stroke-width="11.93"/>
</svg>