<?xml version="1.0" encoding="UTF-8"?>
<svg id="Layer_1" xmlns="http://www.w3.org/2000/svg" version="1.1" viewBox="0 0 70 70">
  <!-- Generator: Adobe Illustrator 30.1.0, SVG Export Plug-In . SVG Version: 2.1.1 Build 136)  -->
  <g>
    <g>
      <rect x="32.48" y="19.51" width="5.04" height="5.04"/>
      <path d="M36.75,20.27v3.51h-3.51v-3.51h3.51M38.29,18.74h-6.57v6.57h6.57v-6.57h0Z"/>
    </g>
    <g>
      <polygon points="28.97 50.08 28.97 45.04 32.48 45.04 32.48 35.62 28.97 35.62 28.97 30.58 37.52 30.58 37.52 45.04 41.03 45.04 41.03 50.08 28.97 50.08"/>
      <path d="M36.75,31.35v14.46h3.51v3.51h-10.53v-3.51h3.51v-10.95h-3.51v-3.51h7.02M38.29,29.82h-10.08v6.57h3.51v7.89h-3.51v6.57h13.59v-6.57h-3.51v-14.46h0Z"/>
    </g>
  </g>
  <circle id="Outer" cx="35" cy="35" r="30.1" fill="none" stroke="#000" stroke-width="9.8"/>
</svg>