<?xml version="1.0" encoding="UTF-8"?>
<svg id="Layer_1" xmlns="http://www.w3.org/2000/svg" version="1.1" viewBox="0 0 89 89">
  <!-- Generator: Adobe Illustrator 30.1.0, SVG Export Plug-In . SVG Version: 2.1.1 Build 136)  -->
  <circle id="Outer" cx="44.5" cy="44.5" r="38.27" fill="none" stroke="#000" stroke-width="12.46"/>
  <g>
    <g>
      <rect x="41.68" y="57.41" width="5.59" height="5.59"/>
      <path d="M46.3,58.38v3.64h-3.64v-3.64h3.64M48.24,56.43h-7.54v7.54h7.54v-7.54h0Z"/>
    </g>
    <g>
      <path d="M41.69,51.59l-.02-2.34c0-1.98.74-3.86,2.06-5.32l3.61-4c.83-.92,1.28-2.1,1.28-3.32,0-1.62-1.33-2.93-2.96-2.93h-2.32c-1.63,0-2.96,1.32-2.96,2.93v.97h-5.62v-.97c0-4.7,3.85-8.53,8.58-8.53h2.32c4.73,0,8.58,3.83,8.58,8.53,0,2.61-.97,5.12-2.72,7.06l-3.61,4c-.4.45-.62.99-.62,1.57l-.02,2.35h-5.57Z"/>
      <path d="M45.66,29.04c4.2,0,7.61,3.39,7.61,7.56,0,2.37-.88,4.65-2.47,6.41l-3.61,4c-.56.62-.87,1.39-.87,2.22v1.38h-3.66v-1.38c0-1.73.63-3.37,1.79-4.66l3.61-4c.99-1.09,1.53-2.51,1.53-3.98,0-2.15-1.76-3.91-3.93-3.91h-2.32c-2.17,0-3.93,1.75-3.93,3.91h-3.68c0-4.17,3.41-7.56,7.61-7.56h2.32M45.66,27.1h-2.32c-5.27,0-9.56,4.26-9.56,9.5v1.95h7.57v-1.95c0-1.08.89-1.96,1.99-1.96h2.32c1.1,0,1.99.88,1.99,1.96,0,.99-.37,1.93-1.03,2.67l-3.61,4c-1.48,1.64-2.3,3.75-2.31,5.96v1.4s.03,1.93.03,1.93h7.5l.02-1.93v-1.38c.02-.35.14-.66.38-.93l3.61-4c1.92-2.12,2.97-4.86,2.97-7.72,0-5.24-4.29-9.5-9.56-9.5h0Z"/>
    </g>
  </g>
</svg>