<?xml version="1.0" encoding="UTF-8"?>
<svg id="Layer_1" xmlns="http://www.w3.org/2000/svg" version="1.1" viewBox="0 0 29 29">
  <!-- Generator: Adobe Illustrator 30.1.0, SVG Export Plug-In . SVG Version: 2.1.1 Build 136)  -->
  <path d="M14.5,5.08c.31,0,.61.16.77.48l1.97,3.91c.34.67.97,1.15,1.71,1.28l4.26.8c.67.12.94.93.48,1.44l-3.11,3.41c-.48.53-.7,1.24-.61,1.94l.61,4.59c.07.55-.36.98-.86.98-.13,0-.27-.03-.4-.1l-3.73-1.92c-.35-.18-.72-.27-1.1-.27s-.76.09-1.1.27l-3.73,1.92c-.13.07-.26.1-.4.1-.49,0-.93-.43-.86-.98l.61-4.6c.09-.71-.13-1.42-.61-1.94l-3.11-3.41c-.46-.5-.19-1.31.48-1.44l4.26-.8c.74-.14,1.37-.61,1.7-1.28l1.97-3.91c.16-.32.47-.48.77-.48M14.5,0C12.24,0,10.2,1.25,9.19,3.27l-1.37,2.73-2.96.55c-2.12.4-3.86,1.91-4.55,3.96-.69,2.05-.21,4.31,1.24,5.9l2.27,2.49-.44,3.36c-.22,1.7.29,3.41,1.42,4.7,1.13,1.29,2.76,2.03,4.48,2.03.94,0,1.88-.23,2.72-.66l2.5-1.29,2.5,1.29c.84.43,1.78.66,2.72.66,1.71,0,3.34-.74,4.48-2.03,1.13-1.29,1.65-3,1.42-4.7l-.44-3.36,2.27-2.49c1.45-1.59,1.93-3.85,1.24-5.9-.68-2.04-2.43-3.56-4.54-3.96l-2.96-.55-1.37-2.73C18.8,1.25,16.76,0,14.5,0h0Z"/>
</svg>