<?xml version="1.0" encoding="UTF-8"?>
<svg id="Layer_1" xmlns="http://www.w3.org/2000/svg" version="1.1" viewBox="0 0 29 29">
  <!-- Generator: Adobe Illustrator 30.1.0, SVG Export Plug-In . SVG Version: 2.1.1 Build 136)  -->
  <path d="M14.5,4.06c.34,0,.68.18.86.53l2.18,4.34c.37.74,1.07,1.27,1.89,1.42l4.73.89c.74.14,1.04,1.04.53,1.59l-3.44,3.78c-.53.58-.78,1.37-.68,2.15l.67,5.09c.08.61-.4,1.09-.95,1.09-.14,0-.29-.03-.44-.11l-4.13-2.13c-.38-.2-.8-.3-1.22-.3-.42,0-.84.1-1.22.3l-4.13,2.13c-.14.07-.29.11-.44.11-.55,0-1.03-.48-.95-1.09l.67-5.1c.1-.78-.14-1.57-.67-2.15l-3.44-3.78c-.51-.56-.21-1.46.53-1.59l4.72-.89c.82-.15,1.52-.68,1.89-1.42l2.18-4.34c.18-.35.52-.53.86-.53M14.5,0C12.59,0,10.88,1.06,10.02,2.76l-1.88,3.72-4.05.76c-1.79.34-3.26,1.61-3.83,3.34-.58,1.73-.18,3.63,1.05,4.98l3.01,3.3-.59,4.46c-.19,1.43.25,2.88,1.2,3.96.96,1.09,2.33,1.71,3.78,1.71.79,0,1.59-.19,2.3-.56l3.49-1.8,3.49,1.8c.71.37,1.5.56,2.3.56,1.44,0,2.82-.63,3.78-1.71.95-1.09,1.39-2.53,1.2-3.96l-.59-4.46,3.01-3.3c1.23-1.34,1.63-3.25,1.05-4.98-.58-1.72-2.05-3-3.83-3.34l-4.05-.76-1.88-3.72C18.12,1.06,16.41,0,14.5,0h0Z"/>
</svg>