<?xml version="1.0" encoding="UTF-8"?>
<svg id="Layer_1" xmlns="http://www.w3.org/2000/svg" version="1.1" viewBox="0 0 97 97">
  <!-- Generator: Adobe Illustrator 30.1.0, SVG Export Plug-In . SVG Version: 2.1.1 Build 136)  -->
  <g>
    <g>
      <rect x="44.95" y="28.26" width="7.1" height="7.1"/>
      <path d="M50.69,29.62v4.37h-4.37v-4.37h4.37M53.41,26.9h-9.83v9.83h9.83v-9.83h0Z"/>
    </g>
    <g>
      <polygon points="40.58 67.92 40.58 60.82 44.95 60.82 44.95 49.9 40.58 49.9 40.58 42.81 52.05 42.81 52.05 60.82 56.42 60.82 56.42 67.92 40.58 67.92"/>
      <path d="M50.69,44.17v18.01h4.37v4.37h-13.11v-4.37h4.37v-13.64h-4.37v-4.37h8.74M53.41,41.44h-14.2v9.83h4.37v8.19h-4.37v9.83h18.57v-9.83h-4.37v-18.01h0Z"/>
    </g>
  </g>
  <circle id="Outer" cx="48.5" cy="48.5" r="40" fill="none" stroke="#000" stroke-width="17.01"/>
</svg>