<?xml version="1.0" encoding="UTF-8"?>
<svg id="Layer_1" xmlns="http://www.w3.org/2000/svg" version="1.1" viewBox="0 0 8 8">
  <!-- Generator: Adobe Illustrator 30.1.0, SVG Export Plug-In . SVG Version: 2.1.1 Build 136)  -->
  <g>
    <g>
      <rect x="3.71" y="2.33" width=".58" height=".58"/>
      <path d="M4.18,2.44v.36h-.36v-.36h.36M4.41,2.22h-.81v.81h.81v-.81h0Z"/>
    </g>
    <g>
      <polygon points="3.35 5.6 3.35 5.02 3.71 5.02 3.71 4.12 3.35 4.12 3.35 3.53 4.29 3.53 4.29 5.02 4.65 5.02 4.65 5.6 3.35 5.6"/>
      <path d="M4.18,3.64v1.49h.36v.36h-1.08v-.36h.36v-1.13h-.36v-.36h.72M4.41,3.42h-1.17v.81h.36v.68h-.36v.81h1.53v-.81h-.36v-1.49h0Z"/>
    </g>
  </g>
  <circle id="Outer" cx="4" cy="4" r="3.3" fill="none" stroke="#000" stroke-width="1.4"/>
</svg>