<?xml version="1.0" encoding="UTF-8"?>
<svg id="Layer_1" xmlns="http://www.w3.org/2000/svg" version="1.1" viewBox="0 0 118 118">
  <!-- Generator: Adobe Illustrator 30.1.0, SVG Export Plug-In . SVG Version: 2.1.1 Build 136)  -->
  <path d="M59,20.69c1.25,0,2.49.65,3.14,1.94l8.02,15.91c1.38,2.73,3.94,4.66,6.94,5.22l17.34,3.25c2.71.51,3.81,3.8,1.95,5.84l-12.63,13.86c-1.95,2.14-2.86,5.03-2.48,7.9l2.47,18.69c.29,2.23-1.48,4-3.49,4-.53,0-1.08-.12-1.61-.4l-15.17-7.81c-1.41-.72-2.94-1.09-4.48-1.09s-3.07.36-4.48,1.09l-15.17,7.81c-.53.27-1.08.4-1.61.4-2.01,0-3.78-1.77-3.49-4l2.47-18.7c.38-2.87-.53-5.76-2.47-7.89l-12.63-13.86c-1.86-2.04-.76-5.34,1.95-5.85l17.34-3.25c3-.56,5.56-2.49,6.94-5.22l8.02-15.91c.65-1.29,1.9-1.94,3.14-1.94M59,0c-9.2,0-17.48,5.1-21.62,13.32l-5.59,11.1-12.04,2.26c-8.62,1.62-15.71,7.79-18.49,16.11-2.79,8.32-.85,17.52,5.06,24.01l9.23,10.13-1.81,13.69c-.91,6.92,1.2,13.89,5.79,19.12,4.61,5.25,11.24,8.27,18.21,8.27,3.83,0,7.66-.93,11.08-2.69l10.18-5.24,10.18,5.24c3.42,1.76,7.25,2.69,11.08,2.69,6.97,0,13.6-3.01,18.21-8.27,4.59-5.24,6.7-12.21,5.79-19.12l-1.81-13.69,9.23-10.13c5.91-6.49,7.85-15.68,5.06-24.01-2.79-8.32-9.87-14.49-18.49-16.11l-12.04-2.26-5.59-11.1C76.48,5.1,68.19,0,59,0h0Z"/>
</svg>