<?xml version="1.0" encoding="UTF-8"?>
<svg id="Layer_1" xmlns="http://www.w3.org/2000/svg" version="1.1" viewBox="0 0 28 28">
  <!-- Generator: Adobe Illustrator 30.1.0, SVG Export Plug-In . SVG Version: 2.1.1 Build 136)  -->
  <path d="M14,4.91c.3,0,.59.15.75.46l1.9,3.78c.33.65.94,1.11,1.65,1.24l4.11.77c.64.12.9.9.46,1.39l-3,3.29c-.46.51-.68,1.19-.59,1.88l.59,4.44c.07.53-.35.95-.83.95-.13,0-.26-.03-.38-.09l-3.6-1.85c-.33-.17-.7-.26-1.06-.26s-.73.09-1.06.26l-3.6,1.85c-.13.06-.26.09-.38.09-.48,0-.9-.42-.83-.95l.59-4.44c.09-.68-.13-1.37-.59-1.87l-3-3.29c-.44-.48-.18-1.27.46-1.39l4.11-.77c.71-.13,1.32-.59,1.65-1.24l1.9-3.78c.15-.31.45-.46.75-.46M14,0C11.82,0,9.85,1.21,8.87,3.16l-1.33,2.63-2.86.54c-2.05.38-3.73,1.85-4.39,3.82-.66,1.97-.2,4.16,1.2,5.7l2.19,2.4-.43,3.25c-.22,1.64.28,3.3,1.37,4.54,1.09,1.25,2.67,1.96,4.32,1.96.91,0,1.82-.22,2.63-.64l2.41-1.24,2.41,1.24c.81.42,1.72.64,2.63.64,1.65,0,3.23-.71,4.32-1.96,1.09-1.24,1.59-2.9,1.37-4.54l-.43-3.25,2.19-2.4c1.4-1.54,1.86-3.72,1.2-5.7-.66-1.97-2.34-3.44-4.39-3.82l-2.86-.54-1.33-2.63C18.15,1.21,16.18,0,14,0h0Z"/>
</svg>