<?xml version="1.0" encoding="UTF-8"?>
<svg id="Layer_1" xmlns="http://www.w3.org/2000/svg" version="1.1" viewBox="0 0 28 28">
  <!-- Generator: Adobe Illustrator 30.1.0, SVG Export Plug-In . SVG Version: 2.1.1 Build 136)  -->
  <path d="M14,3.92c.33,0,.66.17.83.51l2.11,4.19c.36.72,1.04,1.23,1.83,1.37l4.56.86c.71.13,1,1,.51,1.54l-3.32,3.65c-.51.56-.75,1.32-.65,2.08l.65,4.92c.08.59-.39,1.05-.92,1.05-.14,0-.28-.03-.42-.1l-3.99-2.06c-.37-.19-.77-.29-1.18-.29-.4,0-.81.1-1.18.29l-3.99,2.06c-.14.07-.28.1-.42.1-.53,0-1-.46-.92-1.05l.65-4.92c.1-.75-.14-1.51-.65-2.08l-3.32-3.65c-.49-.54-.2-1.4.51-1.54l4.56-.86c.79-.15,1.46-.66,1.83-1.37l2.11-4.19c.17-.34.5-.51.83-.51M14,0C12.16,0,10.5,1.02,9.67,2.67l-1.81,3.59-3.91.73c-1.73.32-3.14,1.56-3.7,3.22-.56,1.67-.17,3.51,1.01,4.81l2.9,3.19-.57,4.3c-.18,1.39.24,2.78,1.16,3.83.92,1.05,2.25,1.66,3.65,1.66.77,0,1.53-.19,2.22-.54l3.37-1.74,3.37,1.74c.69.35,1.45.54,2.22.54,1.39,0,2.72-.6,3.65-1.66.92-1.05,1.34-2.44,1.16-3.83l-.57-4.3,2.91-3.19c1.18-1.3,1.57-3.14,1.01-4.81-.56-1.67-1.98-2.9-3.7-3.22l-3.91-.73-1.81-3.59C17.5,1.02,15.84,0,14,0h0Z"/>
</svg>