<?xml version="1.0" encoding="UTF-8"?>
<svg id="Layer_1" xmlns="http://www.w3.org/2000/svg" version="1.1" viewBox="0 0 29 29">
  <!-- Generator: Adobe Illustrator 30.1.0, SVG Export Plug-In . SVG Version: 2.1.1 Build 136)  -->
  <g>
    <g>
      <rect x="13.47" y="7.71" width="2.06" height="2.06"/>
      <path d="M15.3,7.94v1.6h-1.6v-1.6h1.6M15.75,7.49h-2.51v2.51h2.51v-2.51h0Z"/>
    </g>
    <g>
      <polygon points="11.87 21.2 11.87 19.14 13.47 19.14 13.47 14.59 11.87 14.59 11.87 12.54 15.53 12.54 15.53 19.14 17.13 19.14 17.13 21.2 11.87 21.2"/>
      <path d="M15.3,12.76v6.61h1.6v1.6h-4.81v-1.6h1.6v-5.01h-1.6v-1.6h3.21M15.75,12.31h-4.11v2.51h1.6v4.1h-1.6v2.51h5.72v-2.51h-1.6v-6.61h0Z"/>
    </g>
  </g>
  <circle id="Outer" cx="14.5" cy="14.5" r="12.98" fill="none" stroke="#000" stroke-width="3.04"/>
</svg>