<?xml version="1.0" encoding="UTF-8"?>
<svg id="Layer_1" xmlns="http://www.w3.org/2000/svg" version="1.1" viewBox="0 0 29 29">
  <!-- Generator: Adobe Illustrator 30.1.0, SVG Export Plug-In . SVG Version: 2.1.1 Build 136)  -->
  <g>
    <g>
      <rect x="13.44" y="8.45" width="2.12" height="2.12"/>
      <path d="M15.15,8.86v1.31h-1.31v-1.31h1.31M15.97,8.04h-2.94v2.94h2.94v-2.94h0Z"/>
    </g>
    <g>
      <polygon points="12.13 20.31 12.13 18.18 13.44 18.18 13.44 14.92 12.13 14.92 12.13 12.8 15.56 12.8 15.56 18.18 16.87 18.18 16.87 20.31 12.13 20.31"/>
      <path d="M15.15,13.21v5.39h1.31v1.31h-3.92v-1.31h1.31v-4.08h-1.31v-1.31h2.61M15.97,12.39h-4.24v2.94h1.31v2.45h-1.31v2.94h5.55v-2.94h-1.31v-5.39h0Z"/>
    </g>
  </g>
  <circle id="Outer" cx="14.5" cy="14.5" r="11.96" fill="none" stroke="#000" stroke-width="5.08"/>
</svg>