<?xml version="1.0" encoding="UTF-8"?>
<svg id="Layer_1" xmlns="http://www.w3.org/2000/svg" version="1.1" viewBox="0 0 125 125">
  <!-- Generator: Adobe Illustrator 30.1.0, SVG Export Plug-In . SVG Version: 2.1.1 Build 136)  -->
  <circle id="Outer" cx="62.5" cy="62.5" r="55.96" fill="none" stroke="#000" stroke-width="13.09"/>
  <g>
    <g>
      <rect x="58.55" y="82.3" width="7.82" height="7.82"/>
      <path d="M65.4,83.28v5.87h-5.87v-5.87h5.87M67.35,81.33h-9.78v9.78h9.78v-9.78h0Z"/>
    </g>
    <g>
      <path d="M58.56,73.79l-.03-3.19c.01-3.03,1.13-5.93,3.16-8.17l5.81-6.44c1.43-1.58,2.22-3.62,2.22-5.75,0-2.93-2.4-5.31-5.36-5.31h-3.73c-2.96,0-5.36,2.38-5.36,5.31v.98h-7.88v-.98c0-7.25,5.94-13.15,13.23-13.15h3.73c7.3,0,13.24,5.9,13.24,13.15,0,4.06-1.5,7.96-4.23,10.98l-5.82,6.44c-.75.83-1.15,1.84-1.15,2.92l-.03,3.19h-7.81Z"/>
      <path d="M64.37,38.08c6.76,0,12.26,5.46,12.26,12.17,0,3.82-1.41,7.49-3.98,10.33l-5.82,6.44c-.9,1-1.4,2.23-1.4,3.58l-.02,2.22h-5.87l-.02-2.22c.01-2.78,1.04-5.43,2.91-7.5l5.81-6.44c1.59-1.76,2.47-4.04,2.47-6.4,0-3.47-2.84-6.29-6.34-6.29h-3.73c-3.49,0-6.34,2.82-6.34,6.29h-5.92c0-6.71,5.5-12.17,12.26-12.17h3.73M64.37,36.12h-3.73c-7.84,0-14.21,6.34-14.21,14.13v1.95h9.83v-1.95c0-2.39,1.97-4.34,4.38-4.34h3.73c2.42,0,4.38,1.95,4.38,4.34,0,1.88-.7,3.69-1.96,5.09l-5.81,6.44c-2.19,2.42-3.4,5.55-3.41,8.81l.02,2.24.02,1.94h9.74l.02-1.93.02-2.22c0-.85.31-1.64.9-2.29l5.82-6.44c2.89-3.2,4.48-7.34,4.48-11.64,0-7.79-6.38-14.13-14.21-14.13h0Z"/>
    </g>
  </g>
</svg>