<?xml version="1.0" encoding="UTF-8"?>
<svg id="Layer_1" xmlns="http://www.w3.org/2000/svg" version="1.1" viewBox="0 0 75 75">
  <!-- Generator: Adobe Illustrator 30.1.0, SVG Export Plug-In . SVG Version: 2.1.1 Build 136)  -->
  <circle id="Outer" cx="37.5" cy="37.5" r="32.25" fill="none" stroke="#000" stroke-width="10.5"/>
  <g>
    <g>
      <rect x="35.12" y="48.38" width="4.71" height="4.71"/>
      <path d="M39.02,49.2v3.07h-3.07v-3.07h3.07M40.66,47.56h-6.35v6.35h6.35v-6.35h0Z"/>
    </g>
    <g>
      <path d="M35.13,43.47l-.02-1.98c0-1.67.62-3.25,1.73-4.48l3.04-3.37c.7-.77,1.08-1.77,1.08-2.8,0-1.36-1.12-2.47-2.5-2.47h-1.95c-1.38,0-2.49,1.11-2.49,2.47v.82h-4.74v-.82c0-3.96,3.25-7.19,7.23-7.19h1.95c3.99,0,7.23,3.22,7.23,7.19,0,2.2-.81,4.31-2.29,5.95l-3.04,3.37c-.34.38-.52.83-.52,1.32l-.02,1.98h-4.7Z"/>
      <path d="M38.48,24.48c3.54,0,6.41,2.86,6.41,6.37,0,2-.74,3.92-2.08,5.4l-3.04,3.37c-.47.52-.73,1.17-.73,1.87v1.16h-3.08v-1.16c0-1.46.53-2.84,1.51-3.93l3.04-3.37c.83-.92,1.29-2.11,1.29-3.35,0-1.81-1.49-3.29-3.31-3.29h-1.95c-1.83,0-3.31,1.48-3.31,3.29h-3.1c0-3.51,2.88-6.37,6.41-6.37h1.95M38.48,22.84h-1.95c-4.44,0-8.05,3.59-8.05,8.01v1.64h6.38v-1.64c0-.91.75-1.65,1.67-1.65h1.95c.92,0,1.67.74,1.67,1.65,0,.83-.31,1.63-.87,2.25l-3.04,3.37c-1.25,1.38-1.94,3.16-1.94,5.02v1.18s.02,1.63.02,1.63h6.32l.02-1.62v-1.16c.01-.3.12-.56.32-.79l3.04-3.37c1.62-1.79,2.51-4.1,2.51-6.5,0-4.42-3.61-8.01-8.05-8.01h0Z"/>
    </g>
  </g>
</svg>