<?xml version="1.0" encoding="UTF-8"?>
<svg id="Layer_1" xmlns="http://www.w3.org/2000/svg" version="1.1" viewBox="0 0 109 109">
  <!-- Generator: Adobe Illustrator 30.1.0, SVG Export Plug-In . SVG Version: 2.1.1 Build 136)  -->
  <circle id="Outer" cx="54.5" cy="54.5" r="44.95" fill="none" stroke="#000" stroke-width="19.11"/>
  <g>
    <g>
      <rect x="51.02" y="68.83" width="6.91" height="6.91"/>
      <path d="M56.39,70.37v3.84h-3.84v-3.84h3.84M59.46,67.3h-9.97v9.97h9.97v-9.97h0Z"/>
    </g>
    <g>
      <path d="M51.04,62.1l-.03-2.97c0-2.21.82-4.32,2.3-5.95l3.8-4.21c.79-.87,1.22-1.99,1.22-3.16,0-1.42-1.17-2.58-2.61-2.58h-2.44c-1.44,0-2.61,1.16-2.61,2.58v1.53h-6.94v-1.53c0-5.24,4.28-9.49,9.55-9.49h2.44c5.27,0,9.55,4.26,9.55,9.49,0,2.88-1.07,5.64-3,7.78l-3.8,4.21c-.35.38-.52.83-.52,1.32l-.03,2.98h-6.88Z"/>
      <path d="M55.72,37.85c4.42,0,8.02,3.57,8.02,7.96,0,2.5-.92,4.9-2.6,6.76l-3.8,4.21c-.59.65-.92,1.46-.92,2.34v1.45h-3.85v-1.45c0-1.82.66-3.55,1.89-4.91l3.8-4.21c1.04-1.15,1.61-2.64,1.61-4.19,0-2.27-1.86-4.12-4.14-4.12h-2.44c-2.28,0-4.14,1.85-4.14,4.12h-3.87c0-4.39,3.6-7.96,8.02-7.96h2.44M55.72,34.78h-2.44c-6.11,0-11.08,4.95-11.08,11.03v3.07h10v-3.07c0-.58.48-1.05,1.08-1.05h2.44c.59,0,1.08.47,1.08,1.05,0,.79-.29,1.55-.82,2.13l-3.8,4.21c-1.73,1.91-2.68,4.38-2.69,6.95v1.49s.04,3.04.04,3.04h9.91l.03-3.03v-1.45c.02-.1.03-.19.14-.31l3.81-4.22c2.19-2.42,3.39-5.55,3.39-8.81,0-6.08-4.97-11.03-11.08-11.03h0Z"/>
    </g>
  </g>
</svg>