<?xml version="1.0" encoding="UTF-8"?>
<svg id="Layer_1" xmlns="http://www.w3.org/2000/svg" version="1.1" viewBox="0 0 107 107">
  <!-- Generator: Adobe Illustrator 30.1.0, SVG Export Plug-In . SVG Version: 2.1.1 Build 136)  -->
  <path d="M53.5,11.2c1.38,0,2.75.71,3.47,2.14l8.85,17.57c1.52,3.01,4.35,5.15,7.66,5.77l19.14,3.59c2.99.56,4.21,4.2,2.15,6.45l-13.95,15.31c-2.15,2.36-3.15,5.56-2.73,8.73l2.72,20.64c.32,2.46-1.64,4.41-3.85,4.41-.59,0-1.19-.14-1.78-.44l-16.75-8.62c-1.55-.8-3.25-1.2-4.95-1.2-1.7,0-3.39.4-4.95,1.2l-16.75,8.62c-.58.3-1.19.44-1.78.44-2.21,0-4.18-1.95-3.85-4.41l2.72-20.64c.42-3.17-.58-6.36-2.73-8.72l-13.95-15.31c-2.06-2.26-.84-5.9,2.16-6.46l19.14-3.59c3.31-.62,6.14-2.75,7.66-5.76l8.85-17.57c.72-1.43,2.09-2.14,3.47-2.14M53.5,0C47.77,0,42.61,3.18,40.03,8.3l-8.77,17.4-18.95,3.55c-5.37,1.01-9.79,4.85-11.53,10.04-1.74,5.19-.53,10.93,3.16,14.97l13.83,15.18-2.7,20.48c-.57,4.31.74,8.66,3.6,11.92,2.87,3.28,7.01,5.16,11.35,5.16,2.38,0,4.77-.58,6.9-1.68l16.56-8.53,16.56,8.53c2.14,1.1,4.52,1.68,6.9,1.68,4.34,0,8.48-1.88,11.35-5.16,2.86-3.26,4.17-7.6,3.6-11.92l-2.7-20.48,13.84-15.18c3.69-4.04,4.89-9.78,3.16-14.97-1.74-5.19-6.15-9.03-11.53-10.04l-18.95-3.55-8.77-17.4C64.39,3.18,59.23,0,53.5,0h0Z"/>
</svg>