<?xml version="1.0" encoding="UTF-8"?>
<svg id="Layer_1" xmlns="http://www.w3.org/2000/svg" version="1.1" viewBox="0 0 107 107">
  <!-- Generator: Adobe Illustrator 30.1.0, SVG Export Plug-In . SVG Version: 2.1.1 Build 136)  -->
  <path d="M53.5,18.76c1.13,0,2.26.59,2.85,1.76l7.27,14.43c1.25,2.48,3.57,4.23,6.29,4.74l15.72,2.95c2.46.46,3.46,3.45,1.77,5.3l-11.46,12.57c-1.77,1.94-2.59,4.56-2.25,7.17l2.24,16.95c.27,2.02-1.34,3.62-3.16,3.62-.48,0-.98-.11-1.46-.36l-13.75-7.08c-1.27-.66-2.67-.98-4.06-.98-1.39,0-2.79.33-4.06.98l-13.75,7.08c-.48.25-.98.36-1.46.36-1.82,0-3.43-1.6-3.16-3.62l2.24-16.96c.34-2.6-.48-5.22-2.24-7.16l-11.46-12.57c-1.69-1.85-.69-4.84,1.77-5.3l15.72-2.95c2.72-.51,5.04-2.26,6.29-4.73l7.27-14.43c.59-1.17,1.72-1.76,2.85-1.76M53.5,0C45.16,0,37.65,4.63,33.9,12.08l-5.07,10.07-10.91,2.05c-7.82,1.47-14.24,7.06-16.77,14.61-2.53,7.55-.77,15.89,4.59,21.77l8.37,9.18-1.64,12.42c-.83,6.27,1.09,12.59,5.25,17.34,4.18,4.76,10.19,7.49,16.51,7.49,3.47,0,6.95-.84,10.05-2.44l9.23-4.75,9.23,4.75c3.1,1.6,6.58,2.44,10.05,2.44,6.32,0,12.34-2.73,16.51-7.49,4.16-4.75,6.08-11.07,5.25-17.34l-1.64-12.42,8.37-9.19c5.36-5.88,7.12-14.22,4.59-21.77-2.53-7.54-8.95-13.14-16.77-14.6l-10.92-2.05-5.07-10.07C69.35,4.63,61.84,0,53.5,0h0Z"/>
</svg>