<?xml version="1.0" encoding="UTF-8"?>
<svg id="Layer_1" xmlns="http://www.w3.org/2000/svg" version="1.1" viewBox="0 0 67 67">
  <!-- Generator: Adobe Illustrator 30.1.0, SVG Export Plug-In . SVG Version: 2.1.1 Build 136)  -->
  <path d="M33.5,9.38c.78,0,1.57.41,1.98,1.22l5.05,10.02c.87,1.72,2.48,2.93,4.37,3.29l10.92,2.05c1.71.32,2.4,2.39,1.23,3.68l-7.95,8.73c-1.23,1.35-1.8,3.17-1.56,4.98l1.55,11.77c.19,1.4-.93,2.52-2.2,2.52-.33,0-.68-.08-1.01-.25l-9.55-4.92c-.89-.46-1.85-.68-2.82-.68-.97,0-1.94.23-2.82.68l-9.55,4.92c-.33.17-.68.25-1.01.25-1.26,0-2.38-1.11-2.2-2.52l1.55-11.77c.24-1.81-.33-3.63-1.56-4.97l-7.95-8.73c-1.17-1.29-.48-3.36,1.23-3.68l10.92-2.05c1.89-.35,3.5-1.57,4.37-3.29l5.05-10.02c.41-.81,1.19-1.22,1.98-1.22M33.5,0C29.09,0,25.13,2.44,23.14,6.38l-4.33,8.6-9.35,1.75c-4.13.77-7.52,3.73-8.86,7.72-1.34,3.99-.41,8.4,2.43,11.5l6.95,7.63-1.36,10.3c-.44,3.31.57,6.65,2.77,9.16,2.21,2.52,5.39,3.96,8.72,3.96,1.83,0,3.67-.45,5.31-1.29l8.07-4.16,8.07,4.16c1.64.84,3.47,1.29,5.31,1.29,3.34,0,6.52-1.44,8.72-3.96,2.2-2.51,3.21-5.85,2.77-9.16l-1.36-10.3,6.95-7.63c2.83-3.11,3.76-7.51,2.43-11.5-1.33-3.99-4.73-6.94-8.86-7.72l-9.35-1.75-4.33-8.6C41.87,2.44,37.9,0,33.5,0h0Z"/>
</svg>