<?xml version="1.0" encoding="UTF-8"?>
<svg id="Layer_1" xmlns="http://www.w3.org/2000/svg" version="1.1" viewBox="0 0 67 67">
  <!-- Generator: Adobe Illustrator 30.1.0, SVG Export Plug-In . SVG Version: 2.1.1 Build 136)  -->
  <path d="M33.5,7.01c.86,0,1.72.45,2.17,1.34l5.54,11c.95,1.89,2.73,3.22,4.8,3.61l11.99,2.25c1.87.35,2.63,2.63,1.35,4.04l-8.73,9.58c-1.35,1.48-1.97,3.48-1.71,5.46l1.7,12.92c.2,1.54-1.03,2.76-2.41,2.76-.37,0-.75-.09-1.11-.27l-10.49-5.4c-.97-.5-2.03-.75-3.1-.75-1.06,0-2.13.25-3.1.75l-10.49,5.4c-.37.19-.74.27-1.11.27-1.39,0-2.61-1.22-2.41-2.76l1.7-12.93c.26-1.98-.36-3.98-1.71-5.46l-8.73-9.58c-1.29-1.41-.53-3.69,1.35-4.04l11.99-2.25c2.07-.39,3.85-1.72,4.8-3.61l5.54-11c.45-.89,1.31-1.34,2.17-1.34M33.5,0c-3.59,0-6.82,1.99-8.44,5.2l-5.49,10.89-11.86,2.22c-3.36.63-6.13,3.04-7.22,6.29-1.09,3.25-.33,6.84,1.98,9.37l8.66,9.5-1.69,12.82c-.36,2.7.47,5.42,2.26,7.46,1.8,2.05,4.39,3.23,7.11,3.23,1.49,0,2.99-.36,4.32-1.05l10.37-5.34,10.37,5.34c1.34.69,2.83,1.05,4.32,1.05,2.72,0,5.31-1.18,7.11-3.23,1.79-2.04,2.61-4.76,2.26-7.46l-1.69-12.82,8.66-9.51c2.31-2.53,3.06-6.12,1.98-9.37-1.09-3.25-3.85-5.66-7.22-6.29l-11.87-2.22-5.49-10.89c-1.62-3.21-4.85-5.2-8.44-5.2h0Z"/>
</svg>