<?xml version="1.0" encoding="UTF-8"?>
<svg id="Layer_1" xmlns="http://www.w3.org/2000/svg" version="1.1" viewBox="0 0 18 18">
  <!-- Generator: Adobe Illustrator 30.1.0, SVG Export Plug-In . SVG Version: 2.1.1 Build 136)  -->
  <g>
    <g>
      <rect x="8.34" y="5.24" width="1.32" height="1.32"/>
      <path d="M9.41,5.5v.81h-.81v-.81h.81M9.91,4.99h-1.82v1.82h1.82v-1.82h0Z"/>
    </g>
    <g>
      <polygon points="7.53 12.6 7.53 11.29 8.34 11.29 8.34 9.26 7.53 9.26 7.53 7.94 9.66 7.94 9.66 11.29 10.47 11.29 10.47 12.6 7.53 12.6"/>
      <path d="M9.41,8.2v3.34h.81v.81h-2.43v-.81h.81v-2.53h-.81v-.81h1.62M9.91,7.69h-2.63v1.82h.81v1.52h-.81v1.82h3.45v-1.82h-.81v-3.34h0Z"/>
    </g>
  </g>
  <circle id="Outer" cx="9" cy="9" r="7.42" fill="none" stroke="#000" stroke-width="3.16"/>
</svg>