<?xml version="1.0" encoding="UTF-8"?>
<svg id="Layer_1" xmlns="http://www.w3.org/2000/svg" version="1.1" viewBox="0 0 21 21">
  <!-- Generator: Adobe Illustrator 30.1.0, SVG Export Plug-In . SVG Version: 2.1.1 Build 136)  -->
  <g>
    <g>
      <rect x="9.73" y="6.12" width="1.54" height="1.54"/>
      <path d="M10.97,6.41v.95h-.95v-.95h.95M11.56,5.82h-2.13v2.13h2.13v-2.13h0Z"/>
    </g>
    <g>
      <polygon points="8.79 14.7 8.79 13.17 9.73 13.17 9.73 10.8 8.79 10.8 8.79 9.27 11.27 9.27 11.27 13.17 12.21 13.17 12.21 14.7 8.79 14.7"/>
      <path d="M10.97,9.56v3.9h.95v.95h-2.84v-.95h.95v-2.95h-.95v-.95h1.89M11.56,8.97h-3.07v2.13h.95v1.77h-.95v2.13h4.02v-2.13h-.95v-3.9h0Z"/>
    </g>
  </g>
  <circle id="Outer" cx="10.5" cy="10.5" r="8.66" fill="none" stroke="#000" stroke-width="3.68"/>
</svg>