<?xml version="1.0" encoding="UTF-8"?>
<svg id="Layer_1" xmlns="http://www.w3.org/2000/svg" version="1.1" viewBox="0 0 21 21">
  <!-- Generator: Adobe Illustrator 30.1.0, SVG Export Plug-In . SVG Version: 2.1.1 Build 136)  -->
  <g>
    <g>
      <rect x="9.74" y="5.85" width="1.51" height="1.51"/>
      <path d="M11.03,6.08v1.05h-1.05v-1.05h1.05M11.49,5.62h-1.97v1.97h1.97v-1.97h0Z"/>
    </g>
    <g>
      <polygon points="8.69 15.03 8.69 13.51 9.74 13.51 9.74 10.69 8.69 10.69 8.69 9.17 11.26 9.17 11.26 13.51 12.31 13.51 12.31 15.03 8.69 15.03"/>
      <path d="M11.03,9.4v4.34h1.05v1.05h-3.16v-1.05h1.05v-3.29h-1.05v-1.05h2.11M11.49,8.95h-3.02v1.97h1.05v2.37h-1.05v1.97h4.08v-1.97h-1.05v-4.34h0Z"/>
    </g>
  </g>
  <circle id="Outer" cx="10.5" cy="10.5" r="9.03" fill="none" stroke="#000" stroke-width="2.94"/>
</svg>