<?xml version="1.0" encoding="UTF-8"?>
<svg id="Layer_1" xmlns="http://www.w3.org/2000/svg" version="1.1" viewBox="0 0 21 21">
  <!-- Generator: Adobe Illustrator 30.1.0, SVG Export Plug-In . SVG Version: 2.1.1 Build 136)  -->
  <g>
    <g>
      <rect x="9.76" y="5.58" width="1.49" height="1.49"/>
      <path d="M11.08,5.75v1.16h-1.16v-1.16h1.16M11.41,5.42h-1.82v1.82h1.82v-1.82h0Z"/>
    </g>
    <g>
      <polygon points="8.59 15.35 8.59 13.86 9.76 13.86 9.76 10.57 8.59 10.57 8.59 9.08 11.24 9.08 11.24 13.86 12.41 13.86 12.41 15.35 8.59 15.35"/>
      <path d="M11.08,9.24v4.79h1.16v1.16h-3.48v-1.16h1.16v-3.62h-1.16v-1.16h2.32M11.41,8.91h-2.98v1.82h1.16v2.97h-1.16v1.82h4.14v-1.82h-1.16v-4.79h0Z"/>
    </g>
  </g>
  <circle id="Outer" cx="10.5" cy="10.5" r="9.4" fill="none" stroke="#000" stroke-width="2.2"/>
</svg>