<?xml version="1.0" encoding="UTF-8"?>
<svg id="Layer_1" xmlns="http://www.w3.org/2000/svg" version="1.1" viewBox="0 0 104 104">
  <!-- Generator: Adobe Illustrator 30.1.0, SVG Export Plug-In . SVG Version: 2.1.1 Build 136)  -->
  <circle id="Outer" cx="52" cy="52" r="42.88" fill="none" stroke="#000" stroke-width="18.23"/>
  <g>
    <g>
      <rect x="48.68" y="65.68" width="6.59" height="6.59"/>
      <path d="M53.81,67.14v3.66h-3.66v-3.66h3.66M56.73,64.21h-9.51v9.51h9.51v-9.51h0Z"/>
    </g>
    <g>
      <path d="M48.7,59.26l-.02-2.84c0-2.11.79-4.12,2.19-5.68l3.63-4.02c.75-.83,1.16-1.9,1.16-3.02,0-1.36-1.12-2.46-2.49-2.46h-2.33c-1.37,0-2.49,1.11-2.49,2.46v1.46h-6.62v-1.46c0-5,4.09-9.06,9.11-9.06h2.33c5.02,0,9.11,4.06,9.11,9.06,0,2.75-1.02,5.38-2.86,7.43l-3.63,4.02c-.33.37-.5.79-.5,1.26l-.03,2.84h-6.56Z"/>
      <path d="M53.17,36.11c4.22,0,7.65,3.41,7.65,7.6,0,2.38-.88,4.67-2.48,6.45l-3.63,4.02c-.56.62-.87,1.39-.88,2.23v1.39h-3.68v-1.39c0-1.74.63-3.39,1.8-4.68l3.63-4.02c.99-1.1,1.54-2.52,1.54-4,0-2.16-1.77-3.93-3.95-3.93h-2.33c-2.18,0-3.95,1.76-3.95,3.93h-3.7c0-4.19,3.43-7.6,7.65-7.6h2.33M53.17,33.19h-2.33c-5.83,0-10.58,4.72-10.58,10.52v2.92h9.55v-2.92c0-.55.46-1,1.03-1h2.33c.57,0,1.03.45,1.03,1,0,.75-.28,1.47-.79,2.04l-3.63,4.02c-1.65,1.82-2.56,4.18-2.57,6.63v1.42s.04,2.9.04,2.9h9.46l.03-2.9v-1.39c.01-.1.03-.18.14-.3l3.63-4.02c2.09-2.31,3.24-5.3,3.24-8.41,0-5.8-4.74-10.52-10.58-10.52h0Z"/>
    </g>
  </g>
</svg>