<?xml version="1.0" encoding="UTF-8"?>
<svg id="Layer_1" xmlns="http://www.w3.org/2000/svg" version="1.1" viewBox="0 0 104 104">
  <!-- Generator: Adobe Illustrator 30.1.0, SVG Export Plug-In . SVG Version: 2.1.1 Build 136)  -->
  <circle id="Outer" cx="52" cy="52" r="46.56" fill="none" stroke="#000" stroke-width="10.89"/>
  <g>
    <g>
      <rect x="48.71" y="68.48" width="6.51" height="6.51"/>
      <path d="M54.41,69.29v4.88h-4.88v-4.88h4.88M56.04,67.66h-8.13v8.13h8.13v-8.13h0Z"/>
    </g>
    <g>
      <path d="M48.73,61.4l-.02-2.65c0-2.52.94-4.93,2.63-6.79l4.84-5.36c1.19-1.32,1.84-3.02,1.84-4.78,0-2.44-2-4.42-4.46-4.42h-3.11c-2.46,0-4.46,1.98-4.46,4.42v.81h-6.55v-.81c0-6.03,4.94-10.94,11.01-10.94h3.11c6.07,0,11.01,4.91,11.01,10.94,0,3.38-1.25,6.62-3.52,9.14l-4.84,5.36c-.62.69-.96,1.53-.96,2.43l-.03,2.66h-6.5Z"/>
      <path d="M53.55,31.68c5.62,0,10.2,4.54,10.2,10.13,0,3.18-1.18,6.23-3.31,8.59l-4.84,5.36c-.75.83-1.16,1.86-1.17,2.97l-.02,1.85h-4.88l-.02-1.85c0-2.32.86-4.52,2.42-6.24l4.84-5.36c1.32-1.47,2.05-3.36,2.05-5.33,0-2.89-2.37-5.23-5.27-5.23h-3.11c-2.91,0-5.27,2.35-5.27,5.23h-4.93c0-5.58,4.57-10.13,10.2-10.13h3.11M53.55,30.05h-3.11c-6.52,0-11.82,5.27-11.82,11.75v1.62h8.18v-1.62c0-1.99,1.64-3.61,3.65-3.61h3.11c2.01,0,3.65,1.62,3.65,3.61,0,1.57-.58,3.07-1.63,4.24l-4.84,5.36c-1.82,2.01-2.83,4.61-2.84,7.33l.02,1.87v1.61h8.12l.02-1.61.02-1.85c0-.71.26-1.36.75-1.9l4.84-5.36c2.41-2.66,3.73-6.1,3.73-9.68,0-6.48-5.3-11.75-11.82-11.75h0Z"/>
    </g>
  </g>
</svg>