<?xml version="1.0" encoding="UTF-8"?>
<svg id="Layer_1" xmlns="http://www.w3.org/2000/svg" version="1.1" viewBox="0 0 104 104">
  <!-- Generator: Adobe Illustrator 30.1.0, SVG Export Plug-In . SVG Version: 2.1.1 Build 136)  -->
  <circle id="Outer" cx="52" cy="52" r="44.72" fill="none" stroke="#000" stroke-width="14.56"/>
  <g>
    <g>
      <rect x="48.7" y="67.08" width="6.53" height="6.54"/>
      <path d="M54.1,68.22v4.26h-4.26v-4.26h4.26M56.38,65.95h-8.81v8.81h8.81v-8.81h0Z"/>
    </g>
    <g>
      <path d="M48.72,60.28l-.02-2.74c0-2.31.86-4.51,2.4-6.22l4.22-4.67c.97-1.07,1.5-2.45,1.5-3.88,0-1.89-1.55-3.43-3.46-3.43h-2.71c-1.91,0-3.46,1.54-3.46,3.43v1.14h-6.57v-1.14c0-5.5,4.5-9.97,10.03-9.97h2.71c5.53,0,10.03,4.47,10.03,9.97,0,3.05-1.13,5.98-3.18,8.26l-4.22,4.67c-.47.52-.72,1.16-.73,1.84l-.03,2.75h-6.51Z"/>
      <path d="M53.35,33.94c4.9,0,8.89,3.96,8.89,8.83,0,2.77-1.03,5.43-2.89,7.49l-4.22,4.67c-.65.72-1.02,1.62-1.02,2.59l-.02,1.61h-4.26v-1.61c0-2.02.74-3.94,2.1-5.44l4.22-4.67c1.15-1.28,1.79-2.93,1.79-4.65,0-2.52-2.06-4.56-4.6-4.56h-2.71c-2.53,0-4.6,2.05-4.6,4.56h-4.3c0-4.87,3.99-8.83,8.89-8.83h2.71M53.35,31.66h-2.71c-6.16,0-11.17,4.98-11.17,11.11v2.27h8.85v-2.27c0-1.26,1.04-2.29,2.32-2.29h2.71c1.28,0,2.32,1.03,2.32,2.29,0,1.15-.43,2.26-1.2,3.12l-4.22,4.67c-1.73,1.91-2.69,4.38-2.7,6.96v1.64s.03,2.25.03,2.25h8.77l.02-2.25.02-1.61c0-.41.15-.78.43-1.09l4.22-4.68c2.24-2.48,3.47-5.68,3.47-9.02,0-6.12-5.01-11.11-11.17-11.11h0Z"/>
    </g>
  </g>
</svg>