<?xml version="1.0" encoding="UTF-8"?>
<svg id="Layer_1" xmlns="http://www.w3.org/2000/svg" version="1.1" viewBox="0 0 32 32">
  <!-- Generator: Adobe Illustrator 30.1.0, SVG Export Plug-In . SVG Version: 2.1.1 Build 136)  -->
  <g>
    <g>
      <rect x="14.87" y="8.51" width="2.27" height="2.27"/>
      <path d="M16.88,8.76v1.77h-1.77v-1.77h1.77M17.38,8.26h-2.77v2.77h2.77v-2.77h0Z"/>
    </g>
    <g>
      <polygon points="13.1 23.39 13.1 21.12 14.87 21.12 14.87 16.1 13.1 16.1 13.1 13.83 17.13 13.83 17.13 21.12 18.9 21.12 18.9 23.39 13.1 23.39"/>
      <path d="M16.88,14.08v7.29h1.77v1.77h-5.31v-1.77h1.77v-5.52h-1.77v-1.77h3.54M17.38,13.58h-4.54v2.77h1.77v4.52h-1.77v2.77h6.31v-2.77h-1.77v-7.29h0Z"/>
    </g>
  </g>
  <circle id="Outer" cx="16" cy="16" r="14.33" fill="none" stroke="#000" stroke-width="3.35"/>
</svg>