<?xml version="1.0" encoding="UTF-8"?>
<svg id="Layer_1" xmlns="http://www.w3.org/2000/svg" version="1.1" viewBox="0 0 32 32">
  <!-- Generator: Adobe Illustrator 30.1.0, SVG Export Plug-In . SVG Version: 2.1.1 Build 136)  -->
  <g>
    <g>
      <rect x="14.85" y="8.92" width="2.3" height="2.3"/>
      <path d="M16.8,9.27v1.6h-1.6v-1.6h1.6M17.5,8.57h-3v3h3v-3h0Z"/>
    </g>
    <g>
      <polygon points="13.24 22.9 13.24 20.59 14.85 20.59 14.85 16.28 13.24 16.28 13.24 13.98 17.15 13.98 17.15 20.59 18.76 20.59 18.76 22.9 13.24 22.9"/>
      <path d="M16.8,14.33v6.61h1.6v1.6h-4.81v-1.6h1.6v-5.01h-1.6v-1.6h3.21M17.5,13.63h-4.61v3h1.6v3.61h-1.6v3h6.21v-3h-1.6v-6.61h0Z"/>
    </g>
  </g>
  <circle id="Outer" cx="16" cy="16" r="13.76" fill="none" stroke="#000" stroke-width="4.48"/>
</svg>