<?xml version="1.0" encoding="UTF-8"?>
<svg id="Layer_1" xmlns="http://www.w3.org/2000/svg" version="1.1" viewBox="0 0 123 123">
  <!-- Generator: Adobe Illustrator 30.1.0, SVG Export Plug-In . SVG Version: 2.1.1 Build 136)  -->
  <circle id="Outer" cx="61.5" cy="61.5" r="50.72" fill="none" stroke="#000" stroke-width="21.56"/>
  <g>
    <g>
      <rect x="57.57" y="77.68" width="7.79" height="7.79"/>
      <path d="M63.64,79.41v4.33h-4.33v-4.33h4.33M67.09,75.95h-11.25v11.25h11.25v-11.25h0Z"/>
    </g>
    <g>
      <path d="M57.6,70.08l-.03-3.35c0-2.5.93-4.88,2.59-6.71l4.29-4.75c.89-.98,1.38-2.25,1.38-3.57,0-1.61-1.32-2.91-2.95-2.91h-2.76c-1.62,0-2.95,1.31-2.95,2.91v1.73h-7.83v-1.73c0-5.91,4.83-10.71,10.78-10.71h2.76c5.94,0,10.78,4.81,10.78,10.71,0,3.25-1.2,6.37-3.38,8.78l-4.29,4.76c-.39.43-.59.93-.59,1.49l-.03,3.36h-7.76Z"/>
      <path d="M62.88,42.71c4.99,0,9.05,4.03,9.05,8.98,0,2.82-1.04,5.53-2.94,7.62l-4.29,4.76c-.66.74-1.03,1.65-1.04,2.64l-.02,1.64h-4.33v-1.64c0-2.05.75-4.01,2.13-5.54l4.29-4.75c1.18-1.3,1.82-2.98,1.82-4.73,0-2.56-2.1-4.64-4.68-4.64h-2.76c-2.58,0-4.68,2.08-4.68,4.64h-4.37c0-4.95,4.06-8.98,9.05-8.98h2.76M62.88,39.25h-2.76c-6.9,0-12.51,5.58-12.51,12.44v3.46h11.29v-3.46c0-.65.55-1.18,1.22-1.18h2.76c.67,0,1.22.53,1.22,1.18,0,.89-.33,1.74-.93,2.41l-4.29,4.75c-1.95,2.15-3.03,4.94-3.04,7.84v1.68s.04,3.43.04,3.43h11.19l.03-3.42.02-1.64c0-.11.02-.22.14-.35l4.29-4.76c2.47-2.74,3.83-6.27,3.83-9.94,0-6.86-5.61-12.44-12.51-12.44h0Z"/>
    </g>
  </g>
</svg>