<?xml version="1.0" encoding="UTF-8"?>
<svg id="Layer_1" xmlns="http://www.w3.org/2000/svg" version="1.1" viewBox="0 0 123 123">
  <!-- Generator: Adobe Illustrator 30.1.0, SVG Export Plug-In . SVG Version: 2.1.1 Build 136)  -->
  <circle id="Outer" cx="61.5" cy="61.5" r="52.89" fill="none" stroke="#000" stroke-width="17.22"/>
  <g>
    <g>
      <rect x="57.6" y="79.34" width="7.73" height="7.73"/>
      <path d="M63.98,80.68v5.04h-5.04v-5.04h5.04M66.68,77.99h-10.42v10.42h10.42v-10.42h0Z"/>
    </g>
    <g>
      <path d="M57.62,71.29l-.03-3.24c0-2.73,1.02-5.34,2.84-7.35l4.99-5.53c1.14-1.27,1.77-2.9,1.77-4.59,0-2.23-1.83-4.05-4.09-4.05h-3.21c-2.26,0-4.09,1.82-4.09,4.05v1.35h-7.77v-1.35c0-6.5,5.32-11.79,11.86-11.79h3.21c6.54,0,11.86,5.29,11.86,11.79,0,3.61-1.34,7.08-3.76,9.76l-4.99,5.53c-.56.62-.86,1.37-.86,2.17l-.03,3.25h-7.7Z"/>
      <path d="M63.1,40.14c5.8,0,10.52,4.69,10.52,10.44,0,3.28-1.21,6.42-3.42,8.86l-4.99,5.53c-.77.85-1.2,1.92-1.2,3.07l-.02,1.9h-5.04l-.02-1.9c0-2.39.89-4.66,2.5-6.44l4.99-5.53c1.37-1.51,2.12-3.46,2.12-5.49,0-2.98-2.44-5.4-5.44-5.4h-3.2c-3,0-5.44,2.42-5.44,5.4h-5.08c0-5.76,4.72-10.44,10.52-10.44h3.2M63.1,37.45h-3.2c-7.28,0-13.21,5.89-13.21,13.13v2.69h10.46v-2.69c0-1.49,1.23-2.71,2.75-2.71h3.2c1.51,0,2.75,1.21,2.75,2.71,0,1.36-.51,2.67-1.42,3.69l-4.99,5.53c-2.04,2.26-3.18,5.18-3.19,8.23l.02,1.94.02,2.67h10.37l.03-2.66.02-1.9c0-.49.17-.92.51-1.29l4.99-5.53c2.65-2.93,4.11-6.72,4.11-10.67,0-7.24-5.93-13.13-13.21-13.13h0Z"/>
    </g>
  </g>
</svg>