<?xml version="1.0" encoding="UTF-8"?>
<svg id="Layer_1" xmlns="http://www.w3.org/2000/svg" version="1.1" viewBox="0 0 10 10">
  <!-- Generator: Adobe Illustrator 30.1.0, SVG Export Plug-In . SVG Version: 2.1.1 Build 136)  -->
  <path d="M5,1.05c.13,0,.26.07.32.2l.83,1.64c.14.28.41.48.72.54l1.79.34c.28.05.39.39.2.6l-1.3,1.43c-.2.22-.29.52-.26.82l.25,1.93c.03.23-.15.41-.36.41-.05,0-.11-.01-.17-.04l-1.56-.81c-.15-.07-.3-.11-.46-.11s-.32.04-.46.11l-1.56.81c-.05.03-.11.04-.17.04-.21,0-.39-.18-.36-.41l.25-1.93c.04-.3-.05-.59-.26-.81l-1.3-1.43c-.19-.21-.08-.55.2-.6l1.79-.34c.31-.06.57-.26.72-.54l.83-1.64c.07-.13.2-.2.32-.2M5,0C4.46,0,3.98.3,3.74.78l-.83,1.64-1.76.32c-.5.09-.92.45-1.08.94-.16.49-.05,1.02.3,1.4l1.3,1.43-.26,1.9c-.05.4.07.81.34,1.11.27.31.66.48,1.06.48.22,0,.45-.05.65-.16l1.56-.81,1.53.81c.2.1.42.16.65.16.41,0,.79-.18,1.06-.48.27-.3.39-.71.34-1.11l-.25-1.93,1.3-1.4c.34-.38.46-.91.3-1.4-.16-.48-.58-.84-1.08-.94l-1.79-.34-.8-1.62C6.02.3,5.54,0,5,0h0Z"/>
</svg>