<?xml version="1.0" encoding="UTF-8"?>
<svg id="Layer_1" xmlns="http://www.w3.org/2000/svg" version="1.1" viewBox="0 0 10 10">
  <!-- Generator: Adobe Illustrator 30.1.0, SVG Export Plug-In . SVG Version: 2.1.1 Build 136)  -->
  <path d="M5,1.4c.12,0,.23.06.3.18l.75,1.5c.13.26.37.44.65.49l1.63.31c.25.05.36.36.18.55l-1.19,1.3c-.18.2-.27.47-.23.74l.23,1.76c.03.21-.14.38-.33.38-.05,0-.1-.01-.15-.04l-1.43-.73c-.13-.07-.28-.1-.42-.1s-.29.03-.42.1l-1.43.73s-.1.04-.15.04c-.19,0-.36-.17-.33-.38l.23-1.76c.04-.27-.05-.54-.23-.74l-1.19-1.3c-.17-.19-.07-.5.18-.55l1.63-.31c.28-.05.52-.23.65-.49l.75-1.5c.06-.12.18-.18.3-.18M5,0C4.34,0,3.75.36,3.45.95l-.65,1.28-1.4.26c-.62.12-1.12.56-1.32,1.15-.2.6-.06,1.25.36,1.72l1.04,1.14-.2,1.54c-.07.49.09.99.41,1.37.33.38.8.59,1.3.59.27,0,.55-.07.79-.19l1.21-.62,1.21.62c.24.13.52.19.79.19.5,0,.97-.22,1.3-.59.33-.37.48-.87.41-1.37l-.2-1.54,1.04-1.14c.42-.46.56-1.12.36-1.72-.2-.59-.71-1.04-1.32-1.15l-1.4-.26-.65-1.28C6.25.36,5.66,0,5,0h0Z"/>
</svg>