<?xml version="1.0" encoding="UTF-8"?>
<svg id="Layer_1" xmlns="http://www.w3.org/2000/svg" version="1.1" viewBox="0 0 85 85">
  <!-- Generator: Adobe Illustrator 30.1.0, SVG Export Plug-In . SVG Version: 2.1.1 Build 136)  -->
  <path d="M42.5,8.9c1.09,0,2.19.57,2.76,1.7l7.03,13.95c1.21,2.39,3.46,4.09,6.09,4.58l15.21,2.85c2.38.45,3.34,3.34,1.71,5.13l-11.08,12.16c-1.71,1.88-2.5,4.41-2.17,6.93l2.16,16.39c.26,1.96-1.3,3.5-3.06,3.5-.47,0-.95-.11-1.41-.35l-13.3-6.85c-1.23-.64-2.58-.95-3.93-.95s-2.7.32-3.93.95l-13.3,6.85c-.46.24-.94.35-1.41.35-1.76,0-3.32-1.55-3.06-3.5l2.16-16.4c.33-2.52-.46-5.05-2.17-6.92l-11.08-12.16c-1.63-1.79-.67-4.68,1.71-5.13l15.21-2.85c2.63-.49,4.88-2.19,6.08-4.58l7.03-13.96c.57-1.13,1.66-1.7,2.76-1.7M42.5,0C37.95,0,33.85,2.53,31.8,6.59l-6.96,13.82-15.05,2.82c-4.27.8-7.78,3.86-9.16,7.98-1.38,4.12-.42,8.68,2.51,11.89l10.99,12.06-2.15,16.27c-.45,3.43.59,6.88,2.86,9.47,2.28,2.6,5.57,4.1,9.02,4.1,1.89,0,3.79-.46,5.48-1.34l13.16-6.78,13.16,6.78c1.7.87,3.59,1.34,5.48,1.34,3.45,0,6.74-1.49,9.02-4.1,2.27-2.59,3.31-6.04,2.86-9.47l-2.15-16.27,10.99-12.06c2.93-3.21,3.89-7.77,2.51-11.89-1.38-4.12-4.89-7.18-9.16-7.98l-15.05-2.82-6.96-13.82C51.15,2.53,47.05,0,42.5,0h0Z"/>
</svg>