<?xml version="1.0" encoding="UTF-8"?>
<svg id="Layer_1" xmlns="http://www.w3.org/2000/svg" version="1.1" viewBox="0 0 85 85">
  <!-- Generator: Adobe Illustrator 30.1.0, SVG Export Plug-In . SVG Version: 2.1.1 Build 136)  -->
  <path d="M42.5,14.9c.9,0,1.79.47,2.26,1.4l5.77,11.46c.99,1.97,2.84,3.36,5,3.76l12.49,2.34c1.95.37,2.75,2.74,1.41,4.21l-9.1,9.99c-1.4,1.54-2.06,3.62-1.78,5.69l1.78,13.47c.21,1.61-1.07,2.88-2.51,2.88-.38,0-.78-.09-1.16-.29l-10.93-5.63c-1.01-.52-2.12-.78-3.23-.78s-2.21.26-3.23.78l-10.93,5.63c-.38.2-.78.29-1.16.29-1.44,0-2.72-1.27-2.51-2.88l1.78-13.47c.27-2.07-.38-4.15-1.78-5.69l-9.1-9.99c-1.34-1.47-.55-3.85,1.41-4.21l12.49-2.34c2.16-.4,4.01-1.8,5-3.76l5.77-11.46c.47-.93,1.37-1.4,2.26-1.4M42.5,0C35.88,0,29.91,3.68,26.93,9.59l-4.03,8-8.67,1.63c-6.21,1.16-11.31,5.61-13.32,11.6-2.01,5.99-.61,12.62,3.65,17.29l6.65,7.3-1.3,9.86c-.66,4.98.86,10,4.17,13.78,3.32,3.78,8.1,5.95,13.12,5.95,2.76,0,5.52-.67,7.98-1.94l7.33-3.78,7.33,3.78c2.46,1.27,5.22,1.94,7.98,1.94,5.02,0,9.8-2.17,13.12-5.95,3.31-3.77,4.83-8.79,4.17-13.77l-1.3-9.86,6.65-7.3c4.26-4.67,5.66-11.3,3.65-17.29-2.01-5.99-7.11-10.44-13.32-11.6l-8.67-1.63-4.03-8C55.09,3.68,49.12,0,42.5,0h0Z"/>
</svg>