<?xml version="1.0" encoding="UTF-8"?>
<svg id="Layer_1" xmlns="http://www.w3.org/2000/svg" version="1.1" viewBox="0 0 61 61">
  <!-- Generator: Adobe Illustrator 30.1.0, SVG Export Plug-In . SVG Version: 2.1.1 Build 136)  -->
  <path d="M30.5,8.54c.71,0,1.43.37,1.8,1.11l4.59,9.12c.79,1.56,2.26,2.67,3.98,2.99l9.94,1.86c1.55.29,2.18,2.18,1.12,3.35l-7.24,7.95c-1.12,1.23-1.64,2.88-1.42,4.53l1.41,10.71c.17,1.28-.85,2.29-2,2.29-.3,0-.62-.07-.92-.23l-8.69-4.48c-.81-.42-1.69-.62-2.57-.62s-1.76.21-2.57.62l-8.69,4.48c-.3.16-.62.23-.92.23-1.15,0-2.17-1.01-2-2.29l1.41-10.72c.22-1.64-.3-3.3-1.42-4.53l-7.24-7.95c-1.07-1.17-.44-3.06,1.12-3.35l9.94-1.86c1.72-.32,3.19-1.43,3.98-2.99l4.59-9.12c.37-.74,1.09-1.11,1.8-1.11M30.5,0C26.49,0,22.88,2.23,21.07,5.81l-3.94,7.83-8.51,1.6c-3.76.7-6.85,3.4-8.07,7.03-1.22,3.63-.37,7.64,2.21,10.47l6.33,6.94-1.24,9.38c-.4,3.02.52,6.06,2.52,8.34,2.01,2.29,4.91,3.61,7.94,3.61,1.67,0,3.34-.41,4.83-1.18l7.35-3.79,7.35,3.79c1.49.77,3.16,1.18,4.83,1.18,3.04,0,5.93-1.31,7.94-3.61,2-2.28,2.92-5.32,2.52-8.34l-1.24-9.38,6.33-6.95c2.58-2.83,3.42-6.84,2.21-10.47-1.22-3.63-4.31-6.32-8.07-7.02l-8.51-1.6-3.94-7.83C38.12,2.23,34.51,0,30.5,0h0Z"/>
</svg>