<?xml version="1.0" encoding="UTF-8"?>
<svg id="Layer_1" xmlns="http://www.w3.org/2000/svg" version="1.1" viewBox="0 0 61 61">
  <!-- Generator: Adobe Illustrator 30.1.0, SVG Export Plug-In . SVG Version: 2.1.1 Build 136)  -->
  <path d="M30.5,6.39c.78,0,1.57.41,1.98,1.22l5.04,10.01c.87,1.72,2.48,2.93,4.37,3.29l10.91,2.05c1.71.32,2.4,2.39,1.23,3.68l-7.95,8.73c-1.23,1.35-1.8,3.17-1.56,4.97l1.55,11.77c.19,1.4-.93,2.52-2.2,2.52-.33,0-.68-.08-1.01-.25l-9.55-4.92c-.88-.46-1.85-.68-2.82-.68-.97,0-1.93.23-2.82.68l-9.55,4.92c-.33.17-.68.25-1.01.25-1.26,0-2.38-1.11-2.2-2.52l1.55-11.77c.24-1.81-.33-3.62-1.56-4.97l-7.95-8.73c-1.17-1.29-.48-3.36,1.23-3.68l10.91-2.05c1.89-.35,3.5-1.57,4.37-3.29l5.05-10.02c.41-.81,1.19-1.22,1.98-1.22M30.5,0C27.23,0,24.29,1.81,22.82,4.73l-5,9.92-10.8,2.02c-3.06.57-5.58,2.77-6.57,5.72-.99,2.96-.3,6.23,1.8,8.53l7.89,8.65-1.54,11.67c-.32,2.46.42,4.94,2.05,6.79,1.64,1.87,4,2.94,6.47,2.94,1.36,0,2.72-.33,3.94-.96l9.44-4.86,9.44,4.86c1.22.63,2.58.96,3.94.96,2.47,0,4.83-1.07,6.47-2.94,1.63-1.86,2.38-4.34,2.05-6.79l-1.54-11.67,7.89-8.66c2.1-2.31,2.79-5.58,1.8-8.53-.99-2.96-3.51-5.15-6.57-5.72l-10.8-2.03-5-9.92C36.71,1.81,33.77,0,30.5,0h0Z"/>
</svg>