<?xml version="1.0" encoding="UTF-8"?>
<svg id="Layer_1" xmlns="http://www.w3.org/2000/svg" version="1.1" viewBox="0 0 71 71">
  <!-- Generator: Adobe Illustrator 30.1.0, SVG Export Plug-In . SVG Version: 2.1.1 Build 136)  -->
  <path d="M35.5,9.94c.83,0,1.66.43,2.1,1.29l5.35,10.61c.92,1.82,2.63,3.11,4.63,3.49l11.57,2.17c1.81.34,2.54,2.54,1.3,3.9l-8.43,9.25c-1.3,1.43-1.91,3.36-1.65,5.27l1.64,12.47c.2,1.49-.99,2.67-2.33,2.67-.35,0-.72-.08-1.07-.26l-10.12-5.21c-.94-.48-1.96-.72-2.99-.72-1.03,0-2.05.24-2.99.72l-10.12,5.21c-.35.18-.72.26-1.07.26-1.34,0-2.52-1.18-2.33-2.67l1.65-12.47c.25-1.91-.35-3.84-1.65-5.27l-8.43-9.25c-1.24-1.36-.51-3.56,1.3-3.9l11.57-2.17c2-.37,3.71-1.66,4.63-3.48l5.35-10.62c.43-.86,1.27-1.29,2.1-1.29M35.5,0C30.83,0,26.63,2.59,24.53,6.76l-4.59,9.11-9.91,1.86c-4.38.82-7.97,3.95-9.39,8.18-1.42,4.23-.43,8.9,2.57,12.19l7.37,8.08-1.44,10.91c-.46,3.51.61,7.05,2.94,9.71,2.34,2.67,5.71,4.2,9.25,4.2,1.94,0,3.89-.47,5.62-1.37l8.56-4.41,8.56,4.41c1.74.89,3.68,1.37,5.62,1.37,3.54,0,6.91-1.53,9.25-4.2,2.33-2.66,3.4-6.19,2.94-9.71l-1.44-10.91,7.37-8.09c3-3.29,3.99-7.96,2.57-12.19-1.41-4.22-5.01-7.36-9.39-8.18l-9.91-1.86-4.59-9.11C44.37,2.59,40.17,0,35.5,0h0Z"/>
</svg>