<?xml version="1.0" encoding="UTF-8"?>
<svg id="Layer_1" xmlns="http://www.w3.org/2000/svg" version="1.1" viewBox="0 0 19 19">
  <!-- Generator: Adobe Illustrator 30.1.0, SVG Export Plug-In . SVG Version: 2.1.1 Build 136)  -->
  <circle id="Outer" cx="9.5" cy="9.5" r="8.17" fill="none" stroke="#000" stroke-width="2.66"/>
  <g>
    <g>
      <rect x="8.9" y="12.26" width="1.19" height="1.19"/>
      <path d="M9.88,12.46v.78h-.78v-.78h.78M10.3,12.05h-1.61v1.61h1.61v-1.61h0Z"/>
    </g>
    <g>
      <path d="M8.9,11.01v-.5c0-.42.15-.83.43-1.14l.77-.85c.18-.2.27-.45.27-.71,0-.35-.28-.63-.63-.63h-.5c-.35,0-.63.28-.63.63v.21h-1.2v-.21c0-1,.82-1.82,1.83-1.82h.5c1.01,0,1.83.82,1.83,1.82,0,.56-.21,1.09-.58,1.51l-.77.85c-.09.1-.13.21-.13.33v.5h-1.19Z"/>
      <path d="M9.75,6.2c.9,0,1.62.72,1.62,1.61,0,.51-.19.99-.53,1.37l-.77.85c-.12.13-.19.3-.19.47v.29h-.78v-.29c0-.37.13-.72.38-.99l.77-.85c.21-.23.33-.54.33-.85,0-.46-.38-.83-.84-.83h-.5c-.46,0-.84.37-.84.83h-.78c0-.89.73-1.61,1.62-1.61h.5M9.75,5.78h-.5c-1.13,0-2.04.91-2.04,2.03v.42h1.62v-.42c0-.23.19-.42.42-.42h.5c.23,0,.42.19.42.42,0,.21-.08.41-.22.57l-.77.85c-.32.35-.49.8-.49,1.27v.3s0,.41,0,.41h1.6v-.41s0-.29,0-.29c0-.08.03-.14.08-.2l.77-.85c.41-.45.63-1.04.63-1.65,0-1.12-.92-2.03-2.04-2.03h0Z"/>
    </g>
  </g>
</svg>