<?xml version="1.0" encoding="UTF-8"?>
<svg id="Layer_1" xmlns="http://www.w3.org/2000/svg" version="1.1" viewBox="0 0 100 100">
  <!-- Generator: Adobe Illustrator 30.1.0, SVG Export Plug-In . SVG Version: 2.1.1 Build 136)  -->
  <path d="M50,17.53c1.06,0,2.11.55,2.66,1.64l6.79,13.48c1.17,2.31,3.34,3.95,5.88,4.43l14.7,2.75c2.3.43,3.23,3.22,1.65,4.95l-10.71,11.75c-1.65,1.81-2.42,4.26-2.1,6.7l2.09,15.84c.25,1.89-1.26,3.39-2.96,3.39-.45,0-.91-.11-1.36-.34l-12.85-6.62c-1.19-.61-2.49-.92-3.8-.92s-2.61.31-3.8.92l-12.85,6.62c-.45.23-.91.34-1.36.34-1.7,0-3.21-1.5-2.96-3.39l2.09-15.85c.32-2.43-.45-4.88-2.1-6.69l-10.71-11.75c-1.58-1.73-.64-4.53,1.65-4.96l14.69-2.75c2.54-.48,4.71-2.11,5.88-4.42l6.79-13.49c.55-1.09,1.61-1.64,2.66-1.64M50,0c-7.79,0-14.81,4.32-18.32,11.29l-4.74,9.41-10.2,1.91c-7.31,1.37-13.31,6.6-15.67,13.65-2.36,7.05-.72,14.85,4.29,20.35l7.82,8.58-1.53,11.6c-.77,5.86,1.01,11.77,4.9,16.21,3.9,4.45,9.53,7,15.43,7,3.24,0,6.49-.79,9.39-2.28l8.62-4.44,8.62,4.44c2.9,1.49,6.15,2.28,9.39,2.28,5.9,0,11.53-2.55,15.43-7,3.89-4.44,5.68-10.34,4.9-16.21l-1.53-11.6,7.82-8.59c5.01-5.5,6.65-13.29,4.29-20.34-2.36-7.05-8.37-12.28-15.67-13.65l-10.2-1.91-4.74-9.41c-3.51-6.96-10.53-11.29-18.32-11.29h0Z"/>
</svg>