<?xml version="1.0" encoding="UTF-8"?>
<svg id="Layer_1" xmlns="http://www.w3.org/2000/svg" version="1.1" viewBox="0 0 100 100">
  <!-- Generator: Adobe Illustrator 30.1.0, SVG Export Plug-In . SVG Version: 2.1.1 Build 136)  -->
  <path d="M50,10.47c1.29,0,2.57.67,3.24,2l8.27,16.42c1.42,2.82,4.07,4.81,7.16,5.39l17.89,3.35c2.8.52,3.93,3.92,2.01,6.03l-13.04,14.3c-2.01,2.21-2.95,5.19-2.56,8.16l2.54,19.29c.3,2.3-1.53,4.12-3.6,4.12-.55,0-1.11-.13-1.66-.41l-15.65-8.06c-1.45-.75-3.04-1.12-4.62-1.12-1.59,0-3.17.37-4.62,1.12l-15.65,8.06c-.55.28-1.11.41-1.66.41-2.07,0-3.9-1.82-3.6-4.12l2.54-19.29c.39-2.96-.54-5.94-2.55-8.15l-13.04-14.31c-1.92-2.11-.78-5.51,2.01-6.03l17.89-3.35c3.09-.58,5.74-2.57,7.16-5.39l8.27-16.42c.67-1.33,1.96-2,3.24-2M50,0C44.64,0,39.82,2.97,37.41,7.76l-8.19,16.26-17.71,3.32c-5.02.94-9.15,4.54-10.77,9.38-1.62,4.85-.49,10.21,2.95,13.99l12.93,14.19-2.52,19.14c-.53,4.03.7,8.09,3.37,11.14,2.69,3.06,6.55,4.82,10.61,4.82,2.23,0,4.46-.54,6.45-1.57l15.48-7.97,15.48,7.97c2,1.03,4.23,1.57,6.45,1.57,4.06,0,7.92-1.76,10.61-4.82,2.67-3.05,3.9-7.11,3.37-11.14l-2.52-19.14,12.93-14.19c3.44-3.78,4.57-9.14,2.95-13.99-1.62-4.85-5.75-8.44-10.77-9.38l-17.71-3.32-8.19-16.26C60.18,2.97,55.35,0,50,0h0Z"/>
</svg>