<?xml version="1.0" encoding="UTF-8"?>
<svg id="Layer_1" xmlns="http://www.w3.org/2000/svg" version="1.1" viewBox="0 0 110 110">
  <!-- Generator: Adobe Illustrator 30.1.0, SVG Export Plug-In . SVG Version: 2.1.1 Build 136)  -->
  <path d="M55,11.52c1.41,0,2.83.73,3.57,2.2l9.1,18.06c1.56,3.1,4.47,5.29,7.88,5.93l19.68,3.69c3.08.58,4.33,4.32,2.21,6.63l-14.34,15.74c-2.21,2.43-3.24,5.71-2.81,8.97l2.8,21.22c.33,2.53-1.68,4.54-3.96,4.54-.6,0-1.22-.14-1.83-.45l-17.21-8.87c-1.6-.82-3.34-1.23-5.08-1.23s-3.49.41-5.08,1.23l-17.21,8.87c-.6.31-1.22.45-1.83.45-2.28,0-4.29-2-3.96-4.54l2.8-21.22c.43-3.26-.6-6.54-2.81-8.96l-14.34-15.74c-2.11-2.32-.86-6.06,2.22-6.64l19.68-3.69c3.4-.64,6.31-2.83,7.87-5.93l9.1-18.06c.74-1.47,2.15-2.2,3.57-2.2M55,0C49.11,0,43.8,3.27,41.15,8.53l-9.01,17.89-19.48,3.65c-5.52,1.04-10.06,4.99-11.85,10.32-1.79,5.34-.54,11.23,3.25,15.39l14.22,15.6-2.78,21.05c-.58,4.44.76,8.9,3.7,12.25,2.96,3.37,7.21,5.3,11.67,5.3,2.45,0,4.9-.6,7.1-1.73l17.03-8.77,17.03,8.77c2.2,1.13,4.65,1.73,7.1,1.73,4.46,0,8.72-1.93,11.67-5.3,2.94-3.35,4.29-7.82,3.7-12.25l-2.78-21.05,14.22-15.61c3.79-4.16,5.03-10.05,3.24-15.39-1.79-5.33-6.33-9.29-11.85-10.32l-19.48-3.65-9.01-17.89C66.2,3.27,60.89,0,55,0h0Z"/>
</svg>