<?xml version="1.0" encoding="UTF-8"?>
<svg id="Layer_1" xmlns="http://www.w3.org/2000/svg" version="1.1" viewBox="0 0 110 110">
  <!-- Generator: Adobe Illustrator 30.1.0, SVG Export Plug-In . SVG Version: 2.1.1 Build 136)  -->
  <path d="M55,19.28c1.16,0,2.32.6,2.93,1.81l7.47,14.83c1.28,2.55,3.67,4.35,6.47,4.87l16.16,3.03c2.53.47,3.55,3.55,1.82,5.45l-11.78,12.92c-1.82,1.99-2.66,4.69-2.31,7.37l2.3,17.43c.27,2.08-1.38,3.73-3.25,3.73-.5,0-1.01-.12-1.5-.37l-14.14-7.28c-1.31-.68-2.74-1.01-4.18-1.01s-2.87.34-4.18,1.01l-14.14,7.28c-.49.25-1,.37-1.5.37-1.87,0-3.53-1.65-3.25-3.73l2.3-17.43c.35-2.67-.49-5.37-2.31-7.36l-11.78-12.92c-1.74-1.9-.71-4.98,1.82-5.45l16.16-3.03c2.79-.52,5.19-2.32,6.47-4.87l7.47-14.83c.61-1.2,1.77-1.81,2.93-1.81M55,0C46.43,0,38.71,4.76,34.85,12.41l-5.21,10.35-11.22,2.1c-8.04,1.51-14.64,7.26-17.24,15.02-2.6,7.76-.79,16.33,4.72,22.38l8.6,9.44-1.68,12.76c-.85,6.45,1.12,12.95,5.4,17.83,4.29,4.9,10.48,7.7,16.98,7.7,3.57,0,7.14-.87,10.33-2.51l9.49-4.89,9.49,4.89c3.19,1.64,6.76,2.51,10.33,2.51,6.49,0,12.68-2.81,16.98-7.7,4.28-4.88,6.25-11.38,5.4-17.83l-1.68-12.76,8.61-9.44c5.51-6.05,7.32-14.62,4.72-22.38-2.6-7.75-9.2-13.51-17.24-15.01l-11.22-2.1-5.21-10.35C71.29,4.76,63.57,0,55,0h0Z"/>
</svg>