<?xml version="1.0" encoding="UTF-8"?>
<svg id="Layer_1" xmlns="http://www.w3.org/2000/svg" version="1.1" viewBox="0 0 114 114">
  <!-- Generator: Adobe Illustrator 30.1.0, SVG Export Plug-In . SVG Version: 2.1.1 Build 136)  -->
  <path d="M57,15.96c1.33,0,2.67.69,3.37,2.08l8.59,17.04c1.47,2.92,4.22,4.99,7.44,5.6l18.57,3.48c2.9.54,4.08,4.07,2.09,6.26l-13.53,14.85c-2.09,2.29-3.06,5.39-2.65,8.47l2.64,20.02c.32,2.39-1.59,4.28-3.74,4.28-.57,0-1.16-.13-1.72-.42l-16.25-8.37c-1.51-.78-3.15-1.16-4.8-1.16s-3.29.39-4.8,1.16l-16.25,8.37c-.57.29-1.15.43-1.72.43-2.15,0-4.05-1.89-3.74-4.28l2.64-20.03c.41-3.07-.56-6.17-2.65-8.46l-13.53-14.85c-1.99-2.19-.81-5.72,2.09-6.26l18.57-3.48c3.21-.6,5.96-2.67,7.43-5.59l8.59-17.05c.7-1.38,2.03-2.08,3.37-2.08M57,0C49.5,0,42.75,4.16,39.38,10.86l-7.37,14.63-15.91,2.98c-7.03,1.32-12.8,6.35-15.07,13.13-2.27,6.78-.69,14.28,4.13,19.57l11.83,12.98-2.31,17.52c-.74,5.64.97,11.32,4.71,15.59,3.76,4.28,9.17,6.74,14.84,6.74,3.12,0,6.24-.76,9.03-2.2l13.74-7.08,13.74,7.08c2.79,1.44,5.91,2.2,9.03,2.2,5.68,0,11.09-2.46,14.84-6.74,3.74-4.27,5.46-9.95,4.71-15.59l-2.31-17.52,11.83-12.98c4.82-5.29,6.4-12.79,4.13-19.57-2.27-6.78-8.05-11.81-15.07-13.13l-15.91-2.98-7.37-14.63C71.25,4.16,64.49,0,57,0h0Z"/>
</svg>