<?xml version="1.0" encoding="UTF-8"?>
<svg id="Layer_1" xmlns="http://www.w3.org/2000/svg" version="1.1" viewBox="0 0 114 114">
  <!-- Generator: Adobe Illustrator 30.1.0, SVG Export Plug-In . SVG Version: 2.1.1 Build 136)  -->
  <path d="M57,19.99c1.2,0,2.41.62,3.04,1.87l7.74,15.37c1.33,2.64,3.81,4.5,6.71,5.05l16.75,3.14c2.62.49,3.68,3.67,1.88,5.65l-12.21,13.39c-1.88,2.07-2.76,4.86-2.39,7.64l2.38,18.06c.28,2.15-1.43,3.86-3.37,3.86-.51,0-1.04-.12-1.55-.38l-14.65-7.55c-1.36-.7-2.84-1.05-4.33-1.05s-2.97.35-4.33,1.05l-14.65,7.55c-.51.26-1.04.38-1.55.38-1.94,0-3.65-1.71-3.37-3.86l2.38-18.07c.37-2.77-.51-5.56-2.39-7.63l-12.21-13.39c-1.8-1.97-.73-5.16,1.89-5.65l16.75-3.14c2.9-.54,5.37-2.41,6.7-5.04l7.74-15.37c.63-1.25,1.83-1.87,3.04-1.87M57,0C48.11,0,40.11,4.93,36.11,12.87l-5.4,10.73-11.63,2.18c-8.33,1.56-15.18,7.52-17.87,15.56-2.69,8.04-.82,16.93,4.89,23.19l8.92,9.78-1.74,13.23c-.88,6.68,1.16,13.42,5.59,18.47,4.45,5.07,10.86,7.98,17.59,7.98,3.7,0,7.4-.9,10.7-2.6l9.83-5.06,9.83,5.06c3.3,1.7,7.01,2.6,10.7,2.6,6.73,0,13.14-2.91,17.59-7.99,4.43-5.06,6.47-11.79,5.59-18.47l-1.74-13.23,8.92-9.79c5.71-6.27,7.58-15.15,4.89-23.19-2.69-8.04-9.54-14-17.87-15.56l-11.63-2.18-5.4-10.73C73.89,4.93,65.88,0,57,0h0Z"/>
</svg>