<?xml version="1.0" encoding="UTF-8"?>
<svg id="Layer_1" xmlns="http://www.w3.org/2000/svg" version="1.1" viewBox="0 0 114 114">
  <!-- Generator: Adobe Illustrator 30.1.0, SVG Export Plug-In . SVG Version: 2.1.1 Build 136)  -->
  <path d="M57,11.93c1.47,0,2.93.76,3.7,2.28l9.43,18.72c1.62,3.21,4.64,5.48,8.16,6.14l20.4,3.82c3.19.6,4.48,4.47,2.29,6.87l-14.86,16.31c-2.29,2.52-3.36,5.92-2.91,9.3l2.9,21.99c.35,2.62-1.74,4.7-4.1,4.7-.63,0-1.27-.15-1.89-.47l-17.84-9.19c-1.65-.85-3.46-1.28-5.27-1.28s-3.62.43-5.27,1.28l-17.84,9.19c-.62.32-1.27.47-1.89.47-2.36,0-4.45-2.08-4.1-4.7l2.9-22c.44-3.37-.62-6.77-2.91-9.29l-14.86-16.31c-2.19-2.4-.89-6.28,2.3-6.88l20.39-3.82c3.53-.66,6.54-2.93,8.16-6.14l9.43-18.72c.77-1.52,2.23-2.28,3.7-2.28M57,0C50.89,0,45.39,3.39,42.64,8.84l-9.34,18.54-20.19,3.78c-5.72,1.07-10.43,5.17-12.28,10.7-1.85,5.53-.56,11.64,3.36,15.95l14.74,16.17-2.88,21.82c-.61,4.6.79,9.22,3.84,12.7,3.06,3.49,7.47,5.5,12.1,5.5,2.54,0,5.08-.62,7.36-1.79l17.65-9.09,17.65,9.09c2.28,1.17,4.82,1.79,7.36,1.79,4.62,0,9.03-2,12.1-5.5,3.05-3.47,4.44-8.1,3.84-12.7l-2.88-21.82,14.74-16.18c3.93-4.31,5.21-10.42,3.36-15.95-1.85-5.52-6.56-9.62-12.28-10.7l-20.19-3.78-9.34-18.54C68.6,3.39,63.1,0,57,0h0Z"/>
</svg>