<?xml version="1.0" encoding="UTF-8"?>
<svg id="Layer_1" xmlns="http://www.w3.org/2000/svg" version="1.1" viewBox="0 0 9 9">
  <!-- Generator: Adobe Illustrator 30.1.0, SVG Export Plug-In . SVG Version: 2.1.1 Build 136)  -->
  <path d="M4.5,1.58c.1,0,.19.05.24.15l.61,1.21c.1.21.3.36.53.4l1.32.25c.21.04.29.29.15.45l-.96,1.06c-.15.16-.22.38-.19.6l.19,1.43c.02.17-.11.3-.27.3-.04,0-.08,0-.12-.03l-1.16-.6c-.11-.06-.22-.08-.34-.08s-.23.03-.34.08l-1.16.6s-.08.03-.12.03c-.15,0-.29-.13-.27-.3l.19-1.43c.03-.22-.04-.44-.19-.6l-.96-1.06c-.14-.16-.06-.41.15-.45l1.32-.25c.23-.04.42-.19.53-.4l.61-1.21c.05-.1.14-.15.24-.15M4.5,0C3.8,0,3.17.39,2.85,1.02l-.43.85-.92.17c-.66.12-1.2.59-1.41,1.23-.21.63-.06,1.34.39,1.83l.7.77-.14,1.04c-.07.53.09,1.06.44,1.46.35.4.86.63,1.39.63.29,0,.58-.07.85-.21l.78-.4.78.4c.26.13.55.21.85.21.53,0,1.04-.23,1.39-.63.35-.4.51-.93.44-1.46l-.14-1.04.7-.77c.45-.49.6-1.2.39-1.83-.21-.63-.75-1.11-1.41-1.23l-.92-.17-.43-.85C5.83.39,5.2,0,4.5,0h0Z"/>
</svg>