<?xml version="1.0" encoding="UTF-8"?>
<svg id="Layer_1" xmlns="http://www.w3.org/2000/svg" version="1.1" viewBox="0 0 9 9">
  <!-- Generator: Adobe Illustrator 30.1.0, SVG Export Plug-In . SVG Version: 2.1.1 Build 136)  -->
  <path d="M4.5.94c.12,0,.23.06.29.18l.74,1.48c.13.25.37.43.64.49l1.61.3c.25.05.35.35.18.54l-1.17,1.29c-.18.2-.27.47-.23.73l.23,1.74c.03.21-.14.37-.32.37-.05,0-.1-.01-.15-.04l-1.41-.73c-.13-.07-.27-.1-.42-.1s-.29.03-.42.1l-1.41.73s-.1.04-.15.04c-.19,0-.35-.16-.32-.37l.23-1.74c.04-.27-.05-.53-.23-.73l-1.17-1.29c-.17-.19-.07-.5.18-.54l1.61-.3c.28-.05.52-.23.64-.48l.74-1.48c.06-.12.18-.18.29-.18M4.5,0C4.02,0,3.58.27,3.37.7l-.74,1.48-1.59.28c-.45.08-.82.41-.97.84-.15.44-.04.92.27,1.26l1.17,1.29-.24,1.71c-.05.36.06.73.3,1,.24.28.59.43.96.43.2,0,.4-.05.58-.14l1.41-.73,1.38.73c.18.09.38.14.58.14.37,0,.71-.16.96-.43.24-.27.35-.64.3-1l-.23-1.74,1.17-1.26c.31-.34.41-.82.27-1.26-.15-.44-.52-.76-.97-.84l-1.61-.3-.72-1.46C5.42.27,4.98,0,4.5,0h0Z"/>
</svg>