<?xml version="1.0" encoding="UTF-8"?>
<svg id="Layer_1" xmlns="http://www.w3.org/2000/svg" version="1.1" viewBox="0 0 111 111">
  <!-- Generator: Adobe Illustrator 30.1.0, SVG Export Plug-In . SVG Version: 2.1.1 Build 136)  -->
  <circle id="Outer" cx="55.5" cy="55.5" r="47.73" fill="none" stroke="#000" stroke-width="15.54"/>
  <g>
    <g>
      <rect x="51.98" y="71.6" width="6.97" height="6.97"/>
      <path d="M57.74,72.81v4.55h-4.55v-4.55h4.55M60.17,70.38h-9.4v9.4h9.4v-9.4h0Z"/>
    </g>
    <g>
      <path d="M52,64.34l-.03-2.92c0-2.47.92-4.82,2.56-6.64l4.5-4.99c1.03-1.14,1.6-2.61,1.6-4.15,0-2.02-1.66-3.66-3.69-3.66h-2.89c-2.04,0-3.69,1.64-3.69,3.66v1.21h-7.01v-1.21c0-5.87,4.8-10.64,10.71-10.64h2.89c5.9,0,10.71,4.77,10.71,10.64,0,3.26-1.21,6.39-3.4,8.81l-4.5,4.99c-.5.56-.77,1.24-.77,1.96l-.03,2.93h-6.95Z"/>
      <path d="M56.95,36.22c5.23,0,9.49,4.23,9.49,9.43,0,2.96-1.09,5.8-3.08,8l-4.5,4.99c-.7.77-1.08,1.73-1.09,2.77l-.02,1.72h-4.55l-.02-1.72c0-2.15.8-4.21,2.25-5.81l4.5-4.99c1.23-1.37,1.91-3.13,1.91-4.96,0-2.69-2.2-4.87-4.91-4.87h-2.89c-2.7,0-4.91,2.19-4.91,4.87h-4.59c0-5.2,4.26-9.43,9.49-9.43h2.89M56.95,33.8h-2.89c-6.57,0-11.92,5.32-11.92,11.85v2.43h9.44v-2.43c0-1.35,1.11-2.44,2.48-2.44h2.89c1.37,0,2.48,1.1,2.48,2.44,0,1.23-.46,2.41-1.29,3.33l-4.5,4.99c-1.84,2.04-2.87,4.68-2.88,7.43l.02,1.75.02,2.41h9.36l.02-2.4.02-1.72c0-.44.16-.83.46-1.16l4.5-4.99c2.39-2.65,3.71-6.07,3.71-9.62,0-6.54-5.35-11.85-11.92-11.85h0Z"/>
    </g>
  </g>
</svg>