<?xml version="1.0" encoding="UTF-8"?>
<svg id="Layer_1" xmlns="http://www.w3.org/2000/svg" version="1.1" viewBox="0 0 35 35">
  <!-- Generator: Adobe Illustrator 30.1.0, SVG Export Plug-In . SVG Version: 2.1.1 Build 136)  -->
  <g>
    <g>
      <rect x="16.22" y="10.2" width="2.56" height="2.56"/>
      <path d="M18.29,10.69v1.58h-1.58v-1.58h1.58M19.27,9.7h-3.55v3.55h3.55v-3.55h0Z"/>
    </g>
    <g>
      <polygon points="14.64 24.51 14.64 21.95 16.22 21.95 16.22 18.01 14.64 18.01 14.64 15.45 18.78 15.45 18.78 21.95 20.36 21.95 20.36 24.51 14.64 24.51"/>
      <path d="M18.29,15.94v6.5h1.58v1.58h-4.73v-1.58h1.58v-4.92h-1.58v-1.58h3.15M19.27,14.95h-5.12v3.55h1.58v2.95h-1.58v3.55h6.7v-3.55h-1.58v-6.5h0Z"/>
    </g>
  </g>
  <circle id="Outer" cx="17.5" cy="17.5" r="14.43" fill="none" stroke="#000" stroke-width="6.14"/>
</svg>