<?xml version="1.0" encoding="UTF-8"?>
<svg id="Layer_1" xmlns="http://www.w3.org/2000/svg" version="1.1" viewBox="0 0 80 80">
  <!-- Generator: Adobe Illustrator 30.1.0, SVG Export Plug-In . SVG Version: 2.1.1 Build 136)  -->
  <g>
    <g>
      <rect x="37.07" y="23.31" width="5.85" height="5.85"/>
      <path d="M41.8,24.43v3.6h-3.6v-3.6h3.6M44.05,22.18h-8.1v8.1h8.1v-8.1h0Z"/>
    </g>
    <g>
      <polygon points="33.47 56.02 33.47 50.16 37.07 50.16 37.07 41.16 33.47 41.16 33.47 35.3 42.93 35.3 42.93 50.16 46.53 50.16 46.53 56.02 33.47 56.02"/>
      <path d="M41.8,36.43v14.86h3.6v3.6h-10.81v-3.6h3.6v-11.25h-3.6v-3.6h7.21M44.05,34.18h-11.71v8.1h3.6v6.75h-3.6v8.1h15.31v-8.1h-3.6v-14.86h0Z"/>
    </g>
  </g>
  <circle id="Outer" cx="40" cy="40" r="32.99" fill="none" stroke="#000" stroke-width="14.02"/>
</svg>