<?xml version="1.0" encoding="UTF-8"?>
<svg id="Layer_1" xmlns="http://www.w3.org/2000/svg" version="1.1" viewBox="0 0 36 36">
  <!-- Generator: Adobe Illustrator 30.1.0, SVG Export Plug-In . SVG Version: 2.1.1 Build 136)  -->
  <path d="M18,5.04c.42,0,.84.22,1.06.66l2.71,5.38c.47.92,1.33,1.58,2.35,1.77l5.87,1.1c.92.17,1.29,1.29.66,1.98l-4.27,4.69c-.66.72-.97,1.7-.84,2.67l.83,6.32c.1.75-.5,1.35-1.18,1.35-.18,0-.37-.04-.54-.13l-5.13-2.64c-.48-.24-1-.37-1.52-.37s-1.04.12-1.52.37l-5.13,2.64c-.18.09-.36.13-.54.13-.68,0-1.28-.6-1.18-1.35l.83-6.33c.13-.97-.18-1.95-.84-2.67l-4.27-4.69c-.63-.69-.26-1.81.66-1.98l5.87-1.1c1.01-.19,1.88-.84,2.35-1.77l2.71-5.38c.22-.44.64-.66,1.06-.66M18,0C15.63,0,13.5,1.31,12.44,3.43l-2.33,4.62-5.02.94c-2.22.42-4.04,2-4.76,4.15-.72,2.14-.22,4.51,1.3,6.18l3.73,4.1-.73,5.53c-.23,1.78.31,3.58,1.49,4.92,1.19,1.35,2.89,2.13,4.69,2.13.98,0,1.97-.24,2.85-.69l4.34-2.23,4.34,2.23c.88.45,1.87.69,2.85.69,1.79,0,3.5-.78,4.69-2.13,1.18-1.35,1.72-3.14,1.49-4.92l-.73-5.53,3.74-4.1c1.52-1.67,2.02-4.04,1.3-6.18-.72-2.14-2.54-3.73-4.76-4.15l-5.02-.94-2.33-4.62C22.5,1.31,20.37,0,18,0h0Z"/>
</svg>