<?xml version="1.0" encoding="UTF-8"?>
<svg id="Layer_1" xmlns="http://www.w3.org/2000/svg" version="1.1" viewBox="0 0 66 66">
  <!-- Generator: Adobe Illustrator 30.1.0, SVG Export Plug-In . SVG Version: 2.1.1 Build 136)  -->
  <path d="M33,11.57c.7,0,1.39.36,1.76,1.08l4.48,8.9c.77,1.53,2.2,2.61,3.88,2.92l9.7,1.82c1.52.28,2.13,2.13,1.09,3.27l-7.07,7.75c-1.09,1.2-1.6,2.81-1.39,4.42l1.38,10.46c.16,1.25-.83,2.24-1.95,2.24-.3,0-.6-.07-.9-.22l-8.48-4.37c-.79-.41-1.65-.61-2.51-.61s-1.72.2-2.51.61l-8.48,4.37c-.3.15-.6.22-.9.22-1.12,0-2.12-.99-1.95-2.24l1.38-10.46c.21-1.6-.29-3.22-1.38-4.42l-7.07-7.75c-1.04-1.14-.43-2.99,1.09-3.27l9.7-1.82c1.68-.31,3.11-1.39,3.88-2.92l4.48-8.9c.36-.72,1.06-1.08,1.76-1.08M33,0C27.86,0,23.22,2.85,20.91,7.45l-3.13,6.21-6.73,1.26c-4.82.9-8.79,4.36-10.34,9.01-1.56,4.65-.47,9.8,2.83,13.43l5.16,5.66-1.01,7.66c-.51,3.87.67,7.77,3.24,10.7,2.58,2.94,6.29,4.62,10.19,4.62,2.14,0,4.28-.52,6.2-1.51l5.69-2.93,5.69,2.93c1.91.99,4.06,1.51,6.2,1.51,3.9,0,7.61-1.68,10.19-4.62,2.57-2.93,3.75-6.83,3.24-10.7l-1.01-7.66,5.16-5.67c3.31-3.63,4.39-8.77,2.83-13.43-1.56-4.65-5.52-8.1-10.34-9.01l-6.73-1.26-3.13-6.21C42.78,2.85,38.14,0,33,0h0Z"/>
</svg>