<?xml version="1.0" encoding="UTF-8"?>
<svg id="Layer_1" xmlns="http://www.w3.org/2000/svg" version="1.1" viewBox="0 0 66 66">
  <!-- Generator: Adobe Illustrator 30.1.0, SVG Export Plug-In . SVG Version: 2.1.1 Build 136)  -->
  <path d="M33,9.24c.77,0,1.55.4,1.95,1.2l4.97,9.87c.85,1.69,2.44,2.89,4.3,3.24l10.75,2.02c1.68.32,2.36,2.36,1.21,3.62l-7.84,8.6c-1.21,1.33-1.77,3.12-1.54,4.9l1.53,11.59c.18,1.38-.92,2.48-2.16,2.48-.33,0-.67-.08-1-.25l-9.41-4.84c-.87-.45-1.83-.67-2.78-.67-.95,0-1.91.22-2.78.67l-9.41,4.84c-.33.17-.67.25-1,.25-1.24,0-2.35-1.1-2.16-2.48l1.53-11.6c.23-1.78-.33-3.57-1.53-4.9l-7.84-8.6c-1.15-1.27-.47-3.31,1.21-3.63l10.75-2.02c1.86-.35,3.45-1.55,4.3-3.24l4.97-9.87c.4-.8,1.18-1.2,1.95-1.2M33,0c-4.34,0-8.25,2.41-10.2,6.28l-4.27,8.47-9.21,1.73c-4.07.76-7.41,3.68-8.73,7.6-1.32,3.93-.4,8.27,2.39,11.33l6.85,7.51-1.34,10.14c-.43,3.27.56,6.55,2.73,9.02,2.17,2.48,5.31,3.9,8.59,3.9,1.81,0,3.61-.44,5.23-1.27l7.95-4.1,7.95,4.1c1.62.83,3.42,1.27,5.23,1.27,3.29,0,6.42-1.42,8.59-3.9,2.17-2.47,3.16-5.76,2.73-9.02l-1.34-10.14,6.85-7.52c2.79-3.06,3.71-7.4,2.39-11.33-1.32-3.93-4.66-6.84-8.73-7.6l-9.21-1.73-4.27-8.47c-1.95-3.88-5.86-6.28-10.2-6.28h0Z"/>
</svg>