<?xml version="1.0" encoding="UTF-8"?>
<svg id="Layer_1" xmlns="http://www.w3.org/2000/svg" version="1.1" viewBox="0 0 84 84">
  <!-- Generator: Adobe Illustrator 30.1.0, SVG Export Plug-In . SVG Version: 2.1.1 Build 136)  -->
  <g>
    <g>
      <rect x="38.93" y="24.47" width="6.15" height="6.15"/>
      <path d="M43.89,25.65v3.78h-3.78v-3.78h3.78M46.25,23.29h-8.51v8.51h8.51v-8.51h0Z"/>
    </g>
    <g>
      <polygon points="35.14 58.82 35.14 52.67 38.93 52.67 38.93 43.22 35.14 43.22 35.14 37.07 45.07 37.07 45.07 52.67 48.86 52.67 48.86 58.82 35.14 58.82"/>
      <path d="M43.89,38.25v15.6h3.78v3.78h-11.35v-3.78h3.78v-11.82h-3.78v-3.78h7.57M46.25,35.89h-12.29v8.51h3.78v7.09h-3.78v8.51h16.08v-8.51h-3.78v-15.6h0Z"/>
    </g>
  </g>
  <circle id="Outer" cx="42" cy="42" r="34.64" fill="none" stroke="#000" stroke-width="14.73"/>
</svg>