<?xml version="1.0" encoding="UTF-8"?>
<svg id="Layer_1" xmlns="http://www.w3.org/2000/svg" version="1.1" viewBox="0 0 100 100">
  <!-- Generator: Adobe Illustrator 30.1.0, SVG Export Plug-In . SVG Version: 2.1.1 Build 136)  -->
  <path d="M50,14c1.17,0,2.34.61,2.95,1.82l7.53,14.95c1.29,2.57,3.7,4.38,6.52,4.91l16.29,3.05c2.55.48,3.58,3.57,1.83,5.49l-11.87,13.03c-1.83,2.01-2.68,4.73-2.33,7.43l2.32,17.56c.28,2.1-1.39,3.76-3.28,3.76-.5,0-1.01-.12-1.51-.37l-14.25-7.34c-1.32-.68-2.77-1.02-4.21-1.02s-2.89.34-4.21,1.02l-14.25,7.34c-.5.26-1.01.37-1.51.37-1.88,0-3.55-1.66-3.28-3.76l2.32-17.57c.36-2.7-.5-5.41-2.32-7.42l-11.87-13.03c-1.75-1.92-.71-5.02,1.83-5.5l16.29-3.05c2.82-.53,5.23-2.34,6.52-4.91l7.53-14.95c.61-1.21,1.78-1.82,2.95-1.82M50,0c-6.57,0-12.5,3.65-15.46,9.52l-6.47,12.84-13.95,2.62c-6.16,1.16-11.23,5.57-13.22,11.52-1.99,5.95-.61,12.53,3.62,17.17l10.37,11.38-2.03,15.37c-.65,4.95.86,9.93,4.14,13.67,3.29,3.76,8.04,5.91,13.02,5.91,2.74,0,5.47-.67,7.92-1.93l12.05-6.21,12.05,6.21c2.45,1.26,5.19,1.93,7.92,1.93,4.98,0,9.73-2.16,13.02-5.91,3.28-3.74,4.79-8.73,4.14-13.67l-2.03-15.37,10.38-11.39c4.23-4.64,5.61-11.22,3.62-17.17-1.99-5.95-7.06-10.36-13.22-11.52l-13.96-2.62-6.47-12.84C62.5,3.65,56.57,0,50,0h0Z"/>
</svg>