<?xml version="1.0" encoding="UTF-8"?>
<svg id="Layer_1" xmlns="http://www.w3.org/2000/svg" version="1.1" viewBox="0 0 38 38">
  <!-- Generator: Adobe Illustrator 30.1.0, SVG Export Plug-In . SVG Version: 2.1.1 Build 136)  -->
  <path d="M19,6.66c.4,0,.8.21,1.01.62l2.58,5.12c.44.88,1.27,1.5,2.24,1.68l5.58,1.05c.87.16,1.23,1.22.63,1.88l-4.07,4.46c-.63.69-.92,1.62-.8,2.55l.79,6.02c.09.72-.48,1.29-1.12,1.29-.17,0-.35-.04-.52-.13l-4.88-2.52c-.45-.23-.95-.35-1.44-.35-.5,0-.99.12-1.44.35l-4.88,2.52c-.17.09-.35.13-.52.13-.65,0-1.22-.57-1.12-1.29l.79-6.02c.12-.92-.17-1.85-.8-2.54l-4.07-4.46c-.6-.66-.24-1.72.63-1.88l5.58-1.05c.97-.18,1.79-.8,2.23-1.68l2.58-5.12c.21-.42.61-.62,1.01-.62M19,0C16.04,0,13.37,1.64,12.04,4.29l-1.8,3.58-3.88.73c-2.78.52-5.06,2.51-5.96,5.19-.9,2.68-.27,5.64,1.63,7.73l2.97,3.26-.58,4.41c-.29,2.23.39,4.47,1.86,6.16,1.48,1.69,3.62,2.66,5.86,2.66,1.23,0,2.47-.3,3.57-.87l3.28-1.69,3.28,1.69c1.1.57,2.34.87,3.57.87,0,0,0,0,0,0,2.24,0,4.38-.97,5.86-2.66,1.48-1.69,2.16-3.93,1.86-6.16l-.58-4.41,2.97-3.26c1.9-2.09,2.53-5.05,1.63-7.73-.9-2.68-3.18-4.67-5.96-5.19l-3.88-.73-1.8-3.58C24.63,1.64,21.96,0,19,0h0Z"/>
</svg>