<?xml version="1.0" encoding="UTF-8"?>
<svg id="Layer_1" xmlns="http://www.w3.org/2000/svg" version="1.1" viewBox="0 0 117 117">
  <!-- Generator: Adobe Illustrator 30.1.0, SVG Export Plug-In . SVG Version: 2.1.1 Build 136)  -->
  <path d="M58.5,16.38c1.37,0,2.74.71,3.45,2.13l8.81,17.49c1.51,3,4.33,5.12,7.63,5.74l19.06,3.57c2.98.56,4.19,4.18,2.14,6.43l-13.89,15.24c-2.14,2.35-3.14,5.53-2.72,8.69l2.71,20.55c.32,2.45-1.63,4.39-3.83,4.39-.58,0-1.19-.14-1.77-.44l-16.67-8.59c-1.55-.8-3.24-1.19-4.93-1.19-1.69,0-3.38.4-4.93,1.19l-16.67,8.59c-.58.3-1.18.44-1.77.44-2.2,0-4.16-1.94-3.83-4.39l2.71-20.56c.42-3.15-.58-6.33-2.72-8.68l-13.89-15.24c-2.05-2.25-.84-5.87,2.15-6.43l19.06-3.57c3.3-.62,6.12-2.74,7.63-5.74l8.81-17.49c.72-1.42,2.09-2.13,3.45-2.13M58.5,0C50.81,0,43.88,4.27,40.42,11.14l-7.57,15.02-16.33,3.06c-7.21,1.35-13.14,6.52-15.47,13.48-2.33,6.96-.71,14.66,4.24,20.09l12.14,13.32-2.37,17.98c-.76,5.79,1,11.62,4.84,16,3.86,4.4,9.41,6.92,15.24,6.92,3.2,0,6.41-.78,9.27-2.25l14.1-7.26,14.1,7.26c2.86,1.47,6.07,2.25,9.27,2.25,5.83,0,11.38-2.52,15.24-6.92,3.84-4.38,5.6-10.21,4.84-16l-2.37-17.98,12.14-13.32c4.94-5.43,6.57-13.12,4.24-20.08-2.33-6.96-8.26-12.12-15.47-13.47l-16.33-3.06-7.57-15.02C73.12,4.27,66.19,0,58.5,0h0Z"/>
</svg>