<?xml version="1.0" encoding="UTF-8"?>
<svg id="Layer_1" xmlns="http://www.w3.org/2000/svg" version="1.1" viewBox="0 0 126 126">
  <!-- Generator: Adobe Illustrator 30.1.0, SVG Export Plug-In . SVG Version: 2.1.1 Build 136)  -->
  <g>
    <g>
      <rect x="58.53" y="33.51" width="8.94" height="8.94"/>
      <path d="M66.48,34.49v6.97h-6.97v-6.97h6.97M68.45,32.53h-10.9v10.9h10.9v-10.9h0Z"/>
    </g>
    <g>
      <polygon points="51.57 92.11 51.57 83.18 58.53 83.18 58.53 63.4 51.57 63.4 51.57 54.46 67.47 54.46 67.47 83.18 74.43 83.18 74.43 92.11 51.57 92.11"/>
      <path d="M66.48,55.45v28.71h6.97v6.97h-20.9v-6.97h6.97v-21.75h-6.97v-6.97h13.93M68.45,53.48h-17.87v10.9h6.97v17.81h-6.97v10.9h24.84v-10.9h-6.97v-28.71h0Z"/>
    </g>
  </g>
  <circle id="Outer" cx="63" cy="63" r="56.4" fill="none" stroke="#000" stroke-width="13.19"/>
</svg>