<?xml version="1.0" encoding="UTF-8"?>
<svg id="Layer_1" xmlns="http://www.w3.org/2000/svg" version="1.1" viewBox="0 0 28 28">
  <!-- Generator: Adobe Illustrator 30.1.0, SVG Export Plug-In . SVG Version: 2.1.1 Build 136)  -->
  <path d="M14,2.93c.36,0,.72.19.91.56l2.32,4.6c.4.79,1.14,1.35,2.01,1.51l5.01.94c.78.15,1.1,1.1.56,1.69l-3.65,4.01c-.56.62-.83,1.45-.72,2.28l.71,5.4c.08.64-.43,1.15-1.01,1.15-.15,0-.31-.04-.46-.11l-4.38-2.26c-.41-.21-.85-.31-1.29-.31-.44,0-.89.1-1.29.31l-4.38,2.26c-.15.08-.31.11-.46.11-.58,0-1.09-.51-1.01-1.15l.71-5.4c.11-.83-.15-1.66-.71-2.28l-3.65-4.01c-.54-.59-.22-1.54.56-1.69l5.01-.94c.87-.16,1.61-.72,2-1.51l2.32-4.6c.19-.37.55-.56.91-.56M14,0c-1.5,0-2.85.83-3.53,2.17l-2.29,4.55-4.96.93c-1.41.26-2.56,1.27-3.02,2.63-.45,1.36-.14,2.86.83,3.92l3.62,3.97-.71,5.36c-.15,1.13.19,2.27.94,3.12.75.86,1.84,1.35,2.97,1.35.62,0,1.25-.15,1.81-.44l4.33-2.23,4.33,2.23c.56.29,1.18.44,1.81.44,1.14,0,2.22-.49,2.97-1.35.75-.85,1.09-1.99.94-3.12l-.71-5.36,3.62-3.97c.96-1.06,1.28-2.56.83-3.92-.45-1.36-1.61-2.36-3.02-2.63l-4.96-.93-2.29-4.55c-.68-1.34-2.03-2.17-3.53-2.17h0Z"/>
</svg>