<?xml version="1.0" encoding="UTF-8"?>
<svg id="Layer_1" xmlns="http://www.w3.org/2000/svg" version="1.1" viewBox="0 0 101 101">
  <!-- Generator: Adobe Illustrator 30.1.0, SVG Export Plug-In . SVG Version: 2.1.1 Build 136)  -->
  <circle id="Outer" cx="50.5" cy="50.5" r="43.43" fill="none" stroke="#000" stroke-width="14.14"/>
  <g>
    <g>
      <rect x="47.3" y="65.15" width="6.34" height="6.35"/>
      <path d="M52.54,66.25v4.14h-4.14v-4.14h4.14M54.75,64.04h-8.55v8.55h8.55v-8.55h0Z"/>
    </g>
    <g>
      <path d="M47.31,58.54l-.02-2.66c0-2.24.84-4.38,2.33-6.04l4.1-4.54c.94-1.04,1.46-2.38,1.46-3.77,0-1.83-1.51-3.33-3.36-3.33h-2.63c-1.85,0-3.36,1.49-3.36,3.33v1.1h-6.38v-1.1c0-5.34,4.37-9.68,9.74-9.68h2.63c5.37,0,9.74,4.34,9.74,9.68,0,2.96-1.1,5.81-3.09,8.02l-4.1,4.54c-.46.51-.7,1.12-.71,1.78l-.03,2.67h-6.32Z"/>
      <path d="M51.82,32.96c4.76,0,8.64,3.85,8.64,8.58,0,2.69-1,5.27-2.8,7.28l-4.1,4.54c-.63.7-.99,1.57-.99,2.52l-.02,1.56h-4.14v-1.56c0-1.96.72-3.83,2.04-5.29l4.1-4.54c1.12-1.24,1.74-2.84,1.74-4.51,0-2.44-2-4.43-4.46-4.43h-2.63c-2.46,0-4.46,1.99-4.46,4.43h-4.17c0-4.73,3.87-8.58,8.64-8.58h2.63M51.82,30.75h-2.63c-5.98,0-10.85,4.84-10.85,10.79v2.21h8.59v-2.21c0-1.23,1.01-2.22,2.25-2.22h2.63c1.24,0,2.25,1,2.25,2.22,0,1.12-.42,2.2-1.17,3.03l-4.1,4.54c-1.68,1.86-2.61,4.26-2.62,6.76v1.59s.03,2.19.03,2.19h8.51l.02-2.19.02-1.56c0-.4.14-.75.42-1.06l4.1-4.54c2.18-2.41,3.37-5.52,3.37-8.76,0-5.95-4.87-10.79-10.85-10.79h0Z"/>
    </g>
  </g>
</svg>