<?xml version="1.0" encoding="UTF-8"?>
<svg id="Layer_1" xmlns="http://www.w3.org/2000/svg" version="1.1" viewBox="0 0 101 101">
  <!-- Generator: Adobe Illustrator 30.1.0, SVG Export Plug-In . SVG Version: 2.1.1 Build 136)  -->
  <circle id="Outer" cx="50.5" cy="50.5" r="45.21" fill="none" stroke="#000" stroke-width="10.57"/>
  <g>
    <g>
      <rect x="47.31" y="66.5" width="6.32" height="6.32"/>
      <path d="M52.84,67.29v4.74h-4.74v-4.74h4.74M54.42,65.71h-7.9v7.9h7.9v-7.9h0Z"/>
    </g>
    <g>
      <path d="M47.32,59.62l-.02-2.58c0-2.45.92-4.79,2.55-6.6l4.7-5.2c1.16-1.28,1.79-2.93,1.79-4.65,0-2.37-1.94-4.29-4.33-4.29h-3.02c-2.39,0-4.33,1.93-4.33,4.29v.79h-6.36v-.79c0-5.86,4.8-10.62,10.69-10.62h3.02c5.9,0,10.69,4.77,10.69,10.62,0,3.28-1.21,6.43-3.42,8.87l-4.7,5.21c-.61.67-.93,1.49-.93,2.36l-.03,2.58h-6.31Z"/>
      <path d="M52.01,30.77c5.46,0,9.9,4.41,9.9,9.84,0,3.09-1.14,6.05-3.22,8.35l-4.7,5.21c-.73.81-1.13,1.81-1.13,2.89l-.02,1.79h-4.74l-.02-1.79c0-2.25.84-4.39,2.35-6.06l4.7-5.2c1.29-1.42,1.99-3.26,1.99-5.17,0-2.8-2.3-5.08-5.12-5.08h-3.02c-2.82,0-5.12,2.28-5.12,5.08h-4.79c0-5.42,4.44-9.84,9.9-9.84h3.02M52.01,29.19h-3.02c-6.33,0-11.48,5.12-11.48,11.41v1.58h7.94v-1.58c0-1.93,1.59-3.51,3.54-3.51h3.02c1.95,0,3.54,1.57,3.54,3.51,0,1.52-.56,2.98-1.59,4.12l-4.7,5.2c-1.77,1.95-2.75,4.48-2.76,7.11l.02,1.81v1.56h7.88l.02-1.56.02-1.79c0-.69.25-1.32.73-1.85l4.7-5.21c2.34-2.59,3.62-5.93,3.62-9.4,0-6.29-5.15-11.41-11.48-11.41h0Z"/>
    </g>
  </g>
</svg>