<?xml version="1.0" encoding="UTF-8"?>
<svg id="Layer_1" xmlns="http://www.w3.org/2000/svg" version="1.1" viewBox="0 0 101 101">
  <!-- Generator: Adobe Illustrator 30.1.0, SVG Export Plug-In . SVG Version: 2.1.1 Build 136)  -->
  <circle id="Outer" cx="50.5" cy="50.5" r="41.65" fill="none" stroke="#000" stroke-width="17.71"/>
  <g>
    <g>
      <rect x="47.27" y="63.78" width="6.4" height="6.4"/>
      <path d="M52.25,65.2v3.56h-3.56v-3.56h3.56M55.09,62.36h-9.24v9.24h9.24v-9.24h0Z"/>
    </g>
    <g>
      <path d="M47.29,57.55l-.02-2.75c0-2.05.76-4,2.13-5.51l3.52-3.9c.73-.81,1.13-1.85,1.13-2.93,0-1.32-1.09-2.39-2.42-2.39h-2.26c-1.33,0-2.42,1.07-2.42,2.39v1.42h-6.43v-1.42c0-4.85,3.97-8.8,8.85-8.8h2.26c4.88,0,8.85,3.95,8.85,8.8,0,2.67-.99,5.23-2.78,7.21l-3.52,3.9c-.32.35-.48.77-.49,1.22l-.03,2.76h-6.37Z"/>
      <path d="M51.63,35.07c4.1,0,7.43,3.31,7.43,7.38,0,2.31-.86,4.54-2.41,6.26l-3.52,3.91c-.55.6-.85,1.35-.85,2.17v1.35h-3.57v-1.35c0-1.69.62-3.29,1.75-4.55l3.52-3.9c.96-1.07,1.5-2.45,1.5-3.88,0-2.1-1.72-3.81-3.84-3.81h-2.26c-2.12,0-3.84,1.71-3.84,3.81h-3.59c0-4.07,3.33-7.38,7.43-7.38h2.26M51.63,32.23h-2.26c-5.66,0-10.27,4.58-10.27,10.22v2.84h9.27v-2.84c0-.54.45-.97,1-.97h2.26c.55,0,1,.44,1,.97,0,.73-.27,1.43-.76,1.98l-3.52,3.9c-1.6,1.77-2.49,4.06-2.49,6.44v1.38s.04,2.82.04,2.82h2.82s3.56,0,3.56,0h2.81l.03-2.81v-1.35c.01-.09.03-.18.13-.29l3.53-3.91c2.03-2.25,3.14-5.15,3.14-8.16,0-5.63-4.61-10.22-10.27-10.22h0Z"/>
    </g>
  </g>
</svg>