<?xml version="1.0" encoding="UTF-8"?>
<svg id="Layer_1" xmlns="http://www.w3.org/2000/svg" version="1.1" viewBox="0 0 26 26">
  <!-- Generator: Adobe Illustrator 30.1.0, SVG Export Plug-In . SVG Version: 2.1.1 Build 136)  -->
  <path d="M13,4.56c.27,0,.55.14.69.43l1.77,3.51c.3.6.87,1.03,1.53,1.15l3.82.72c.6.11.84.84.43,1.29l-2.78,3.05c-.43.47-.63,1.11-.55,1.74l.54,4.12c.06.49-.33.88-.77.88-.12,0-.24-.03-.35-.09l-3.34-1.72c-.31-.16-.65-.24-.99-.24s-.68.08-.99.24l-3.34,1.72c-.12.06-.24.09-.35.09-.44,0-.83-.39-.77-.88l.54-4.12c.08-.63-.12-1.27-.55-1.74l-2.78-3.05c-.41-.45-.17-1.18.43-1.29l3.82-.72c.66-.12,1.23-.55,1.53-1.15l1.77-3.51c.14-.28.42-.43.69-.43M13,0C10.97,0,9.15,1.12,8.24,2.93l-1.23,2.45-2.65.5c-1.9.36-3.46,1.72-4.08,3.55-.61,1.83-.19,3.86,1.12,5.29l2.03,2.23-.4,3.02c-.2,1.52.26,3.06,1.28,4.21,1.01,1.16,2.48,1.82,4.01,1.82.84,0,1.69-.21,2.44-.59l2.24-1.15,2.24,1.15c.75.39,1.6.59,2.44.59,1.54,0,3-.66,4.01-1.82,1.01-1.15,1.48-2.69,1.28-4.21l-.4-3.02,2.03-2.23c1.3-1.43,1.73-3.46,1.12-5.29-.61-1.83-2.18-3.19-4.07-3.55l-2.65-.5-1.23-2.45C16.85,1.12,15.03,0,13,0h0Z"/>
</svg>