<?xml version="1.0" encoding="UTF-8"?>
<svg id="Layer_1" xmlns="http://www.w3.org/2000/svg" version="1.1" viewBox="0 0 26 26">
  <!-- Generator: Adobe Illustrator 30.1.0, SVG Export Plug-In . SVG Version: 2.1.1 Build 136)  -->
  <path d="M13,2.72c.33,0,.67.17.84.52l2.15,4.27c.37.73,1.06,1.25,1.86,1.4l4.65.87c.73.14,1.02,1.02.52,1.57l-3.39,3.72c-.52.57-.77,1.35-.66,2.12l.66,5.01c.08.6-.4,1.07-.94,1.07-.14,0-.29-.03-.43-.11l-4.07-2.1c-.38-.19-.79-.29-1.2-.29-.41,0-.82.1-1.2.29l-4.07,2.1c-.14.07-.29.11-.43.11-.54,0-1.01-.47-.94-1.07l.66-5.02c.1-.77-.14-1.54-.66-2.12l-3.39-3.72c-.5-.55-.2-1.43.52-1.57l4.65-.87c.8-.15,1.49-.67,1.86-1.4l2.15-4.27c.17-.35.51-.52.84-.52M13,0c-1.39,0-2.65.77-3.27,2.02l-2.13,4.23-4.6.86c-1.31.24-2.38,1.18-2.8,2.44-.42,1.26-.13,2.65.77,3.64l3.36,3.69-.66,4.98c-.14,1.05.18,2.1.88,2.9.7.8,1.7,1.25,2.76,1.25.58,0,1.16-.14,1.68-.41l4.02-2.07,4.02,2.07c.52.27,1.1.41,1.68.41,1.05,0,2.06-.46,2.76-1.25.69-.79,1.01-1.85.88-2.9l-.66-4.98,3.36-3.69c.9-.98,1.19-2.38.77-3.64-.42-1.26-1.5-2.19-2.8-2.44l-4.61-.86-2.13-4.23c-.63-1.24-1.88-2.02-3.27-2.02h0Z"/>
</svg>