<?xml version="1.0" encoding="UTF-8"?>
<svg id="Layer_1" xmlns="http://www.w3.org/2000/svg" version="1.1" viewBox="0 0 26 26">
  <!-- Generator: Adobe Illustrator 30.1.0, SVG Export Plug-In . SVG Version: 2.1.1 Build 136)  -->
  <path d="M13,3.64c.3,0,.61.16.77.47l1.96,3.89c.34.67.96,1.14,1.7,1.28l4.24.79c.66.12.93.93.48,1.43l-3.09,3.39c-.48.52-.7,1.23-.61,1.93l.6,4.57c.07.54-.36.98-.85.98-.13,0-.26-.03-.39-.1l-3.71-1.91c-.34-.18-.72-.27-1.09-.27s-.75.09-1.09.27l-3.71,1.91c-.13.07-.26.1-.39.1-.49,0-.92-.43-.85-.98l.6-4.57c.09-.7-.13-1.41-.6-1.93l-3.09-3.39c-.45-.5-.19-1.3.48-1.43l4.24-.79c.73-.14,1.36-.61,1.69-1.28l1.96-3.89c.16-.32.46-.47.77-.47M13,0C11.29,0,9.75.95,8.98,2.48l-1.68,3.34-3.63.68c-1.6.3-2.92,1.45-3.44,2.99-.52,1.55-.16,3.26.94,4.46l2.7,2.96-.53,4c-.17,1.29.22,2.58,1.08,3.55.86.98,2.09,1.54,3.39,1.54.71,0,1.42-.17,2.06-.5l3.13-1.61,3.13,1.61c.64.33,1.35.5,2.06.5,1.29,0,2.53-.56,3.39-1.54.85-.97,1.24-2.27,1.08-3.55l-.53-4,2.7-2.96c1.1-1.21,1.46-2.92.94-4.46-.52-1.55-1.84-2.69-3.44-2.99l-3.63-.68-1.68-3.34C16.25.95,14.71,0,13,0h0Z"/>
</svg>