<?xml version="1.0" encoding="UTF-8"?>
<svg id="Layer_1" xmlns="http://www.w3.org/2000/svg" version="1.1" viewBox="0 0 22 22">
  <!-- Generator: Adobe Illustrator 30.1.0, SVG Export Plug-In . SVG Version: 2.1.1 Build 136)  -->
  <circle id="Outer" cx="11" cy="11" r="9.07" fill="none" stroke="#000" stroke-width="3.86"/>
  <g>
    <g>
      <rect x="10.3" y="13.89" width="1.39" height="1.39"/>
      <path d="M11.38,14.2v.77h-.77v-.77h.77M12,13.58h-2.01v2.01h2.01v-2.01h0Z"/>
    </g>
    <g>
      <path d="M10.3,12.54v-.6c0-.45.16-.87.46-1.2l.77-.85c.16-.18.25-.4.25-.64,0-.29-.24-.52-.53-.52h-.49c-.29,0-.53.23-.53.52v.31h-1.4v-.31c0-1.06.86-1.92,1.93-1.92h.49c1.06,0,1.93.86,1.93,1.92,0,.58-.22,1.14-.61,1.57l-.77.85c-.07.08-.11.17-.11.27v.6h-1.39Z"/>
      <path d="M11.25,7.64c.89,0,1.62.72,1.62,1.61,0,.5-.19.99-.53,1.36l-.77.85c-.12.13-.18.3-.19.47v.29h-.78v-.29c0-.37.13-.72.38-.99l.77-.85c.21-.23.33-.53.33-.85,0-.46-.38-.83-.84-.83h-.49c-.46,0-.84.37-.84.83h-.78c0-.89.73-1.61,1.62-1.61h.49M11.25,7.02h-.49c-1.23,0-2.24,1-2.24,2.23v.62h2.02v-.62c0-.12.1-.21.22-.21h.49c.12,0,.22.1.22.21,0,.16-.06.31-.17.43l-.77.85c-.35.39-.54.88-.54,1.4v.3s0,.61,0,.61h2v-.61s0-.29,0-.29c0-.02,0-.04.03-.06l.77-.85c.44-.49.68-1.12.68-1.78,0-1.23-1-2.23-2.24-2.23h0Z"/>
    </g>
  </g>
</svg>