<?xml version="1.0" encoding="UTF-8"?>
<svg id="Layer_1" xmlns="http://www.w3.org/2000/svg" version="1.1" viewBox="0 0 22 22">
  <!-- Generator: Adobe Illustrator 30.1.0, SVG Export Plug-In . SVG Version: 2.1.1 Build 136)  -->
  <circle id="Outer" cx="11" cy="11" r="9.85" fill="none" stroke="#000" stroke-width="2.3"/>
  <g>
    <g>
      <rect x="10.31" y="14.49" width="1.38" height="1.38"/>
      <path d="M11.51,14.66v1.03h-1.03v-1.03h1.03M11.85,14.31h-1.72v1.72h1.72v-1.72h0Z"/>
    </g>
    <g>
      <path d="M10.31,12.99v-.56c0-.53.19-1.04.55-1.44l1.02-1.13c.25-.28.39-.64.39-1.01,0-.52-.42-.94-.94-.94h-.66c-.52,0-.94.42-.94.94v.17h-1.39v-.17c0-1.28,1.04-2.31,2.33-2.31h.66c1.28,0,2.33,1.04,2.33,2.31,0,.71-.26,1.4-.75,1.93l-1.02,1.13c-.13.15-.2.32-.2.51v.56h-1.38Z"/>
      <path d="M11.33,6.7c1.19,0,2.16.96,2.16,2.14,0,.67-.25,1.32-.7,1.82l-1.02,1.13c-.16.18-.25.39-.25.63v.39h-1.04v-.39c0-.49.18-.96.51-1.32l1.02-1.13c.28-.31.43-.71.43-1.13,0-.61-.5-1.11-1.12-1.11h-.66c-.61,0-1.12.5-1.12,1.11h-1.04c0-1.18.97-2.14,2.16-2.14h.66M11.33,6.36h-.66c-1.38,0-2.5,1.12-2.5,2.49v.34h1.73v-.34c0-.42.35-.76.77-.76h.66c.43,0,.77.34.77.76,0,.33-.12.65-.35.9l-1.02,1.13c-.38.43-.6.98-.6,1.55v.4s0,.34,0,.34h1.71v-.34s0-.39,0-.39c0-.15.06-.29.16-.4l1.02-1.13c.51-.56.79-1.29.79-2.05,0-1.37-1.12-2.49-2.5-2.49h0Z"/>
    </g>
  </g>
</svg>