<?xml version="1.0" encoding="UTF-8"?>
<svg id="Layer_1" xmlns="http://www.w3.org/2000/svg" version="1.1" viewBox="0 0 55 55">
  <!-- Generator: Adobe Illustrator 30.1.0, SVG Export Plug-In . SVG Version: 2.1.1 Build 136)  -->
  <circle id="Outer" cx="27.5" cy="27.5" r="23.65" fill="none" stroke="#000" stroke-width="7.7"/>
  <g>
    <g>
      <rect x="25.76" y="35.48" width="3.46" height="3.46"/>
      <path d="M28.61,36.08v2.25h-2.25v-2.25h2.25M29.81,34.88h-4.66v4.66h4.66v-4.66h0Z"/>
    </g>
    <g>
      <path d="M25.77,31.88v-1.45c0-1.22.44-2.39,1.26-3.29l2.23-2.47c.51-.57.79-1.3.79-2.05,0-1-.82-1.81-1.83-1.81h-1.43c-1.01,0-1.83.81-1.83,1.81v.6h-3.48v-.6c0-2.91,2.38-5.27,5.31-5.27h1.43c2.92,0,5.3,2.36,5.3,5.27,0,1.61-.6,3.16-1.68,4.37l-2.23,2.47c-.25.28-.38.61-.38.97v1.45h-3.46Z"/>
      <path d="M28.22,17.95c2.59,0,4.7,2.1,4.7,4.67,0,1.47-.54,2.87-1.53,3.96l-2.23,2.47c-.35.38-.54.86-.54,1.37v.85h-2.26v-.85c0-1.07.39-2.08,1.11-2.88l2.23-2.47c.61-.68.95-1.55.95-2.46,0-1.33-1.09-2.41-2.43-2.41h-1.43c-1.34,0-2.43,1.08-2.43,2.41h-2.27c0-2.57,2.11-4.67,4.7-4.67h1.43M28.22,16.75h-1.43c-3.26,0-5.91,2.63-5.91,5.87v1.2h4.68v-1.2c0-.67.55-1.21,1.23-1.21h1.43c.68,0,1.23.54,1.23,1.21,0,.61-.23,1.2-.64,1.65l-2.23,2.47c-.91,1.01-1.42,2.32-1.43,3.68v.87s.02,1.19.02,1.19h4.64v-1.19s.02-.85.02-.85c0-.22.08-.41.23-.58l2.23-2.47c1.18-1.31,1.84-3.01,1.84-4.77,0-3.24-2.65-5.87-5.91-5.87h0Z"/>
    </g>
  </g>
</svg>