<?xml version="1.0" encoding="UTF-8"?>
<svg id="Layer_1" xmlns="http://www.w3.org/2000/svg" version="1.1" viewBox="0 0 55 55">
  <!-- Generator: Adobe Illustrator 30.1.0, SVG Export Plug-In . SVG Version: 2.1.1 Build 136)  -->
  <circle id="Outer" cx="27.5" cy="27.5" r="24.62" fill="none" stroke="#000" stroke-width="5.76"/>
  <g>
    <g>
      <rect x="25.76" y="36.21" width="3.44" height="3.44"/>
      <path d="M28.78,36.64v2.58h-2.58v-2.58h2.58M29.63,35.78h-4.3v4.3h4.3v-4.3h0Z"/>
    </g>
    <g>
      <path d="M25.77,32.47v-1.4c0-1.33.49-2.61,1.38-3.59l2.56-2.83c.63-.7.98-1.6.98-2.53,0-1.29-1.06-2.34-2.36-2.34h-1.64c-1.3,0-2.36,1.05-2.36,2.34v.43h-3.47v-.43c0-3.19,2.61-5.79,5.82-5.79h1.64c3.21,0,5.82,2.6,5.82,5.79,0,1.79-.66,3.5-1.86,4.83l-2.56,2.83c-.33.37-.51.81-.51,1.29v1.41h-3.45Z"/>
      <path d="M28.32,16.75c2.97,0,5.39,2.4,5.39,5.36,0,1.68-.62,3.29-1.75,4.54l-2.56,2.84c-.4.44-.62.98-.62,1.57v.98h-2.59v-.98c0-1.22.45-2.39,1.27-3.3l2.56-2.83c.7-.78,1.09-1.78,1.09-2.82,0-1.53-1.25-2.77-2.79-2.77h-1.64c-1.54,0-2.79,1.24-2.79,2.77h-2.61c0-2.95,2.42-5.36,5.39-5.36h1.64M28.32,15.89h-1.64c-3.45,0-6.25,2.79-6.25,6.22v.86h4.32v-.86c0-1.05.87-1.91,1.93-1.91h1.64c1.06,0,1.93.86,1.93,1.91,0,.83-.31,1.62-.86,2.24l-2.56,2.83c-.96,1.06-1.5,2.44-1.5,3.87v.99s.02.85.02.85h4.29v-.85s.02-.98.02-.98c0-.37.14-.72.4-1.01l2.56-2.84c1.27-1.41,1.97-3.23,1.97-5.12,0-3.43-2.81-6.22-6.25-6.22h0Z"/>
    </g>
  </g>
</svg>