<?xml version="1.0" encoding="UTF-8"?>
<svg id="Layer_1" xmlns="http://www.w3.org/2000/svg" version="1.1" viewBox="0 0 55 55">
  <!-- Generator: Adobe Illustrator 30.1.0, SVG Export Plug-In . SVG Version: 2.1.1 Build 136)  -->
  <circle id="Outer" cx="27.5" cy="27.5" r="22.68" fill="none" stroke="#000" stroke-width="9.64"/>
  <g>
    <g>
      <rect x="25.74" y="34.73" width="3.48" height="3.48"/>
      <path d="M28.45,35.51v1.94h-1.94v-1.94h1.94M30,33.96h-5.03v5.03h5.03v-5.03h0Z"/>
    </g>
    <g>
      <path d="M25.75,31.34v-1.5c0-1.12.4-2.18,1.15-3l1.92-2.12c.4-.44.62-1.01.62-1.6,0-.72-.59-1.3-1.32-1.3h-1.23c-.73,0-1.32.58-1.32,1.3v.77h-3.5v-.77c0-2.64,2.16-4.79,4.82-4.79h1.23c2.66,0,4.82,2.15,4.82,4.79,0,1.45-.54,2.85-1.51,3.93l-1.92,2.13c-.17.19-.26.42-.26.66l-.02,1.5h-3.47Z"/>
      <path d="M28.12,19.1c2.23,0,4.05,1.8,4.05,4.02,0,1.26-.47,2.47-1.31,3.41l-1.92,2.13c-.3.33-.46.74-.46,1.18v.73h-1.94v-.73c0-.92.34-1.79.95-2.48l1.92-2.13c.53-.58.81-1.33.81-2.11,0-1.14-.94-2.08-2.09-2.08h-1.23c-1.15,0-2.09.93-2.09,2.08h-1.95c0-2.21,1.81-4.02,4.05-4.02h1.23M28.12,17.55h-1.23c-3.08,0-5.59,2.5-5.59,5.56v1.55h5.05v-1.55c0-.29.24-.53.54-.53h1.23c.3,0,.54.24.54.53,0,.4-.15.78-.42,1.08l-1.92,2.13c-.87.96-1.35,2.21-1.36,3.51v.75s.02,1.53.02,1.53h5l.02-1.53v-.73c0-.05.02-.1.07-.16l1.92-2.13c1.1-1.22,1.71-2.8,1.71-4.45,0-3.07-2.51-5.56-5.59-5.56h0Z"/>
    </g>
  </g>
</svg>