<?xml version="1.0" encoding="UTF-8"?>
<svg id="Layer_1" xmlns="http://www.w3.org/2000/svg" version="1.1" viewBox="0 0 53 53">
  <!-- Generator: Adobe Illustrator 30.1.0, SVG Export Plug-In . SVG Version: 2.1.1 Build 136)  -->
  <circle id="Outer" cx="26.5" cy="26.5" r="23.73" fill="none" stroke="#000" stroke-width="5.55"/>
  <g>
    <g>
      <rect x="24.83" y="34.9" width="3.32" height="3.32"/>
      <path d="M27.73,35.31v2.49h-2.49v-2.49h2.49M28.56,34.48h-4.15v4.15h4.15v-4.15h0Z"/>
    </g>
    <g>
      <path d="M24.83,31.29v-1.35c0-1.29.47-2.51,1.33-3.46l2.46-2.73c.61-.67.94-1.54.94-2.44,0-1.24-1.02-2.25-2.27-2.25h-1.58c-1.25,0-2.27,1.01-2.27,2.25v.41h-3.34v-.41c0-3.07,2.52-5.58,5.61-5.58h1.58c3.09,0,5.61,2.5,5.61,5.58,0,1.72-.64,3.37-1.79,4.66l-2.47,2.73c-.32.35-.49.78-.49,1.24v1.35h-3.32Z"/>
      <path d="M27.29,16.14c2.87,0,5.2,2.32,5.2,5.16,0,1.62-.6,3.17-1.69,4.38l-2.47,2.73c-.38.42-.59.95-.6,1.52v.94h-2.5v-.94c0-1.18.43-2.3,1.22-3.18l2.47-2.73c.67-.75,1.05-1.71,1.05-2.72,0-1.47-1.21-2.67-2.69-2.67h-1.58c-1.48,0-2.69,1.2-2.69,2.67h-2.51c0-2.85,2.33-5.16,5.2-5.16h1.58M27.29,15.32h-1.58c-3.32,0-6.03,2.69-6.03,5.99v.83h4.17v-.83c0-1.01.83-1.84,1.86-1.84h1.58c1.02,0,1.86.83,1.86,1.84,0,.8-.3,1.57-.83,2.16l-2.47,2.73c-.93,1.03-1.44,2.35-1.45,3.73v.95s.02.82.02.82h4.13v-.82s.02-.94.02-.94c0-.36.13-.69.38-.97l2.47-2.73c1.23-1.36,1.9-3.11,1.9-4.93,0-3.3-2.7-5.99-6.03-5.99h0Z"/>
    </g>
  </g>
</svg>