<?xml version="1.0" encoding="UTF-8"?>
<svg id="Layer_1" xmlns="http://www.w3.org/2000/svg" version="1.1" viewBox="0 0 53 53">
  <!-- Generator: Adobe Illustrator 30.1.0, SVG Export Plug-In . SVG Version: 2.1.1 Build 136)  -->
  <circle id="Outer" cx="26.5" cy="26.5" r="21.85" fill="none" stroke="#000" stroke-width="9.29"/>
  <g>
    <g>
      <rect x="24.81" y="33.47" width="3.36" height="3.36"/>
      <path d="M27.42,34.22v1.87h-1.87v-1.87h1.87M28.91,32.72h-4.85v4.85h4.85v-4.85h0Z"/>
    </g>
    <g>
      <path d="M24.82,30.2v-1.45c0-1.08.39-2.1,1.11-2.89l1.85-2.05c.38-.42.59-.97.59-1.54,0-.69-.57-1.26-1.27-1.26h-1.19c-.7,0-1.27.56-1.27,1.26v.75h-3.37v-.75c0-2.55,2.08-4.62,4.64-4.62h1.19c2.56,0,4.64,2.07,4.64,4.62,0,1.4-.52,2.74-1.46,3.78l-1.85,2.05c-.17.19-.25.4-.25.64v1.45h-3.36Z"/>
      <path d="M27.09,18.4c2.15,0,3.9,1.74,3.9,3.87,0,1.21-.45,2.38-1.27,3.28l-1.85,2.05c-.29.32-.45.71-.45,1.14v.71h-1.87v-.71c0-.88.32-1.73.92-2.39l1.85-2.05c.51-.56.78-1.28.78-2.04,0-1.1-.9-2-2.02-2h-1.19c-1.11,0-2.02.9-2.02,2h-1.88c0-2.13,1.75-3.87,3.9-3.87h1.19M27.09,16.91h-1.19c-2.97,0-5.39,2.41-5.39,5.36v1.49h4.86v-1.49c0-.28.24-.51.52-.51h1.19c.29,0,.52.23.52.51,0,.38-.14.75-.4,1.04l-1.85,2.05c-.84.93-1.3,2.13-1.31,3.38v.72s.02,1.48.02,1.48h4.82v-1.48s.02-.71.02-.71c0-.05,0-.09.06-.15l1.85-2.05c1.06-1.18,1.65-2.7,1.65-4.28,0-2.96-2.42-5.36-5.39-5.36h0Z"/>
    </g>
  </g>
</svg>