<?xml version="1.0" encoding="UTF-8"?>
<svg id="Layer_1" xmlns="http://www.w3.org/2000/svg" version="1.1" viewBox="0 0 53 53">
  <!-- Generator: Adobe Illustrator 30.1.0, SVG Export Plug-In . SVG Version: 2.1.1 Build 136)  -->
  <circle id="Outer" cx="26.5" cy="26.5" r="22.79" fill="none" stroke="#000" stroke-width="7.42"/>
  <g>
    <g>
      <rect x="24.82" y="34.19" width="3.33" height="3.33"/>
      <path d="M27.57,34.77v2.17h-2.17v-2.17h2.17M28.73,33.61h-4.49v4.49h4.49v-4.49h0Z"/>
    </g>
    <g>
      <path d="M24.83,30.72v-1.4c0-1.18.43-2.3,1.21-3.17l2.15-2.38c.49-.55.76-1.25.76-1.98,0-.96-.79-1.75-1.76-1.75h-1.38c-.97,0-1.76.78-1.76,1.75v.58h-3.35v-.58c0-2.8,2.29-5.08,5.11-5.08h1.38c2.82,0,5.11,2.28,5.11,5.08,0,1.56-.58,3.05-1.62,4.21l-2.15,2.38c-.24.27-.37.59-.37.93l-.02,1.4h-3.32Z"/>
      <path d="M27.19,17.3c2.5,0,4.53,2.02,4.53,4.5,0,1.41-.52,2.77-1.47,3.82l-2.15,2.38c-.33.37-.52.83-.52,1.32v.82h-2.18v-.82c0-1.03.38-2.01,1.07-2.77l2.15-2.38c.59-.65.91-1.49.91-2.37,0-1.28-1.05-2.33-2.34-2.33h-1.38c-1.29,0-2.34,1.04-2.34,2.33h-2.19c0-2.48,2.03-4.5,4.53-4.5h1.38M27.19,16.14h-1.38c-3.14,0-5.69,2.54-5.69,5.66v1.16h4.51v-1.16c0-.64.53-1.17,1.18-1.17h1.38c.65,0,1.18.52,1.18,1.17,0,.59-.22,1.15-.61,1.59l-2.15,2.38c-.88.97-1.37,2.23-1.37,3.55v.84s.02,1.15.02,1.15h4.47v-1.15s.02-.82.02-.82c0-.21.07-.4.22-.56l2.15-2.38c1.14-1.26,1.77-2.9,1.77-4.6,0-3.12-2.55-5.66-5.69-5.66h0Z"/>
    </g>
  </g>
</svg>