<?xml version="1.0" encoding="UTF-8"?>
<svg id="Layer_1" xmlns="http://www.w3.org/2000/svg" version="1.1" viewBox="0 0 49 49">
  <!-- Generator: Adobe Illustrator 30.1.0, SVG Export Plug-In . SVG Version: 2.1.1 Build 136)  -->
  <path d="M24.5,8.59c.52,0,1.03.27,1.3.8l3.33,6.61c.57,1.13,1.64,1.94,2.88,2.17l7.2,1.35c1.13.21,1.58,1.58.81,2.43l-5.25,5.76c-.81.89-1.19,2.09-1.03,3.28l1.02,7.76c.12.93-.62,1.66-1.45,1.66-.22,0-.45-.05-.67-.16l-6.3-3.24c-.58-.3-1.22-.45-1.86-.45-.64,0-1.28.15-1.86.45l-6.3,3.24c-.22.11-.45.16-.67.16-.83,0-1.57-.73-1.45-1.66l1.02-7.76c.16-1.19-.22-2.39-1.03-3.28l-5.25-5.76c-.77-.85-.32-2.22.81-2.43l7.2-1.35c1.24-.23,2.31-1.03,2.88-2.17l3.33-6.61c.27-.54.79-.8,1.3-.8M24.5,0C20.68,0,17.24,2.12,15.52,5.53l-2.32,4.61-5,.94c-3.58.67-6.52,3.23-7.68,6.69-1.16,3.46-.35,7.28,2.1,9.97l3.83,4.21-.75,5.69c-.38,2.87.5,5.77,2.4,7.94,1.91,2.18,4.67,3.43,7.56,3.43,1.59,0,3.18-.39,4.6-1.12l4.23-2.18,4.23,2.18c1.42.73,3.01,1.12,4.6,1.12,2.89,0,5.65-1.25,7.56-3.43,1.91-2.17,2.78-5.07,2.4-7.94l-.75-5.69,3.83-4.21c2.45-2.69,3.26-6.51,2.1-9.97-1.16-3.45-4.1-6.02-7.68-6.69l-5-.94-2.32-4.61C31.76,2.12,28.32,0,24.5,0h0Z"/>
</svg>