<?xml version="1.0" encoding="UTF-8"?>
<svg id="Layer_1" xmlns="http://www.w3.org/2000/svg" version="1.1" viewBox="0 0 49 49">
  <!-- Generator: Adobe Illustrator 30.1.0, SVG Export Plug-In . SVG Version: 2.1.1 Build 136)  -->
  <path d="M24.5,5.13c.63,0,1.26.33,1.59.98l4.05,8.04c.7,1.38,1.99,2.36,3.51,2.64l8.77,1.64c1.37.26,1.93,1.92.99,2.95l-6.39,7.01c-.99,1.08-1.44,2.54-1.25,4l1.25,9.45c.15,1.13-.75,2.02-1.76,2.02-.27,0-.55-.06-.81-.2l-7.67-3.95c-.71-.37-1.49-.55-2.27-.55-.78,0-1.55.18-2.27.55l-7.67,3.95c-.27.14-.54.2-.81.2-1.01,0-1.91-.89-1.76-2.02l1.25-9.45c.19-1.45-.27-2.91-1.25-3.99l-6.39-7.01c-.94-1.03-.38-2.7.99-2.96l8.77-1.64c1.52-.28,2.81-1.26,3.51-2.64l4.05-8.05c.33-.65.96-.98,1.59-.98M24.5,0C21.88,0,19.51,1.46,18.33,3.8l-4.01,7.97-8.68,1.63c-2.46.46-4.48,2.22-5.28,4.6-.8,2.38-.24,5,1.45,6.86l6.33,6.95-1.24,9.38c-.26,1.98.34,3.97,1.65,5.46,1.32,1.5,3.21,2.36,5.2,2.36,1.09,0,2.18-.27,3.16-.77l7.58-3.91,7.58,3.91c.98.5,2.07.77,3.16.77,1.99,0,3.88-.86,5.2-2.36,1.31-1.49,1.91-3.48,1.65-5.46l-1.24-9.38,6.34-6.95c1.69-1.85,2.24-4.48,1.45-6.85-.8-2.37-2.82-4.14-5.28-4.6l-8.68-1.63-4.01-7.97C29.49,1.46,27.12,0,24.5,0h0Z"/>
</svg>