<?xml version="1.0" encoding="UTF-8"?>
<svg id="Layer_1" xmlns="http://www.w3.org/2000/svg" version="1.1" viewBox="0 0 35 35">
  <!-- Generator: Adobe Illustrator 30.1.0, SVG Export Plug-In . SVG Version: 2.1.1 Build 136)  -->
  <circle id="Outer" cx="17.5" cy="17.5" r="15.67" fill="none" stroke="#000" stroke-width="3.66"/>
  <g>
    <g>
      <rect x="16.39" y="23.04" width="2.19" height="2.19"/>
      <path d="M18.31,23.32v1.64h-1.64v-1.64h1.64M18.86,22.77h-2.74v2.74h2.74v-2.74h0Z"/>
    </g>
    <g>
      <path d="M16.4,20.66v-.89c0-.85.31-1.66.88-2.29l1.63-1.8c.4-.44.62-1.01.62-1.61,0-.82-.67-1.49-1.5-1.49h-1.05c-.83,0-1.5.67-1.5,1.49v.27h-2.21v-.27c0-2.03,1.66-3.68,3.71-3.68h1.05c2.04,0,3.71,1.65,3.71,3.68,0,1.14-.42,2.23-1.18,3.08l-1.63,1.8c-.21.23-.32.52-.32.82v.89h-2.19Z"/>
      <path d="M18.02,10.66c1.89,0,3.43,1.53,3.43,3.41,0,1.07-.4,2.1-1.11,2.89l-1.63,1.8c-.25.28-.39.63-.39,1v.62h-1.65v-.62c0-.78.28-1.52.81-2.1l1.63-1.8c.45-.49.69-1.13.69-1.79,0-.97-.8-1.76-1.77-1.76h-1.05c-.98,0-1.77.79-1.77,1.76h-1.66c0-1.88,1.54-3.41,3.43-3.41h1.05M18.02,10.11h-1.05c-2.19,0-3.98,1.77-3.98,3.96v.55h2.75v-.55c0-.67.55-1.21,1.23-1.21h1.05c.68,0,1.23.54,1.23,1.21,0,.53-.2,1.03-.55,1.43l-1.63,1.8c-.61.68-.95,1.55-.96,2.47v.63s.01.54.01.54h2.73v-.54s.01-.62.01-.62c0-.24.09-.46.25-.64l1.63-1.8c.81-.9,1.26-2.05,1.26-3.26,0-2.18-1.79-3.96-3.98-3.96h0Z"/>
    </g>
  </g>
</svg>