<?xml version="1.0" encoding="UTF-8"?>
<svg id="Layer_1" xmlns="http://www.w3.org/2000/svg" version="1.1" viewBox="0 0 35 35">
  <!-- Generator: Adobe Illustrator 30.1.0, SVG Export Plug-In . SVG Version: 2.1.1 Build 136)  -->
  <circle id="Outer" cx="17.5" cy="17.5" r="14.43" fill="none" stroke="#000" stroke-width="6.14"/>
  <g>
    <g>
      <rect x="16.38" y="22.1" width="2.22" height="2.22"/>
      <path d="M18.11,22.59v1.23h-1.23v-1.23h1.23M19.09,21.61h-3.2v3.2h3.2v-3.2h0Z"/>
    </g>
    <g>
      <path d="M16.39,19.94v-.95c0-.71.26-1.39.73-1.91l1.22-1.35c.25-.28.39-.64.39-1.02,0-.46-.38-.83-.84-.83h-.78c-.46,0-.84.37-.84.83v.49h-2.23v-.49c0-1.68,1.38-3.05,3.07-3.05h.78c1.69,0,3.07,1.37,3.07,3.05,0,.92-.34,1.81-.96,2.5l-1.22,1.35c-.11.12-.17.26-.17.42v.96h-2.22Z"/>
      <path d="M17.89,12.15c1.42,0,2.57,1.15,2.57,2.56,0,.8-.3,1.57-.84,2.17l-1.22,1.35c-.19.21-.29.47-.29.75v.47h-1.24v-.47c0-.58.21-1.14.61-1.58l1.22-1.35c.33-.37.52-.85.52-1.34,0-.73-.6-1.32-1.33-1.32h-.78c-.73,0-1.33.59-1.33,1.32h-1.24c0-1.41,1.15-2.56,2.57-2.56h.78M17.89,11.17h-.78c-1.96,0-3.56,1.59-3.56,3.54v.98h.98s1.24,0,1.24,0h.98v-.98c0-.19.16-.34.35-.34h.78c.19,0,.35.15.35.34,0,.25-.09.5-.26.69l-1.22,1.35c-.55.61-.86,1.41-.86,2.23v.48s.01.98.01.98h3.18v-.97s.01-.47.01-.47c0-.03,0-.06.04-.1l1.22-1.35c.7-.78,1.09-1.78,1.09-2.83,0-1.95-1.6-3.54-3.56-3.54h0Z"/>
    </g>
  </g>
</svg>