<?xml version="1.0" encoding="UTF-8"?>
<svg id="Layer_1" xmlns="http://www.w3.org/2000/svg" version="1.1" viewBox="0 0 35 35">
  <!-- Generator: Adobe Illustrator 30.1.0, SVG Export Plug-In . SVG Version: 2.1.1 Build 136)  -->
  <circle id="Outer" cx="17.5" cy="17.5" r="15.05" fill="none" stroke="#000" stroke-width="4.9"/>
  <g>
    <g>
      <rect x="16.39" y="22.58" width="2.2" height="2.2"/>
      <path d="M18.21,22.96v1.43h-1.43v-1.43h1.43M18.97,22.19h-2.96v2.96h2.96v-2.96h0Z"/>
    </g>
    <g>
      <path d="M16.4,20.29v-.92c0-.78.28-1.52.8-2.09l1.42-1.57c.33-.36.5-.82.5-1.31,0-.64-.52-1.15-1.16-1.15h-.91c-.64,0-1.16.52-1.16,1.15v.38h-2.21v-.38c0-1.85,1.51-3.35,3.38-3.35h.91c1.86,0,3.38,1.5,3.38,3.35,0,1.03-.38,2.01-1.07,2.78l-1.42,1.57c-.16.17-.24.39-.24.62v.92h-2.2Z"/>
      <path d="M17.96,11.42c1.65,0,2.99,1.33,2.99,2.97,0,.93-.35,1.83-.97,2.52l-1.42,1.57c-.22.24-.34.55-.34.87v.54h-1.44v-.54c0-.68.25-1.33.71-1.83l1.42-1.57c.39-.43.6-.99.6-1.56,0-.85-.69-1.54-1.55-1.54h-.91c-.85,0-1.55.69-1.55,1.54h-1.45c0-1.64,1.34-2.97,2.99-2.97h.91M17.96,10.66h-.91c-2.07,0-3.76,1.68-3.76,3.74v.77h2.98v-.77c0-.42.35-.77.78-.77h.91c.43,0,.78.35.78.77,0,.39-.14.76-.41,1.05l-1.42,1.57c-.58.64-.9,1.48-.91,2.34v.55s.01.76.01.76h2.95v-.76s.01-.54.01-.54c0-.14.05-.26.15-.37l1.42-1.57c.75-.84,1.17-1.91,1.17-3.03,0-2.06-1.69-3.74-3.76-3.74h0Z"/>
    </g>
  </g>
</svg>