<?xml version="1.0" encoding="UTF-8"?>
<svg id="Layer_1" xmlns="http://www.w3.org/2000/svg" version="1.1" viewBox="0 0 60 60">
  <!-- Generator: Adobe Illustrator 30.1.0, SVG Export Plug-In . SVG Version: 2.1.1 Build 136)  -->
  <g>
    <g>
      <rect x="27.87" y="15.96" width="4.25" height="4.25"/>
      <path d="M31.66,16.43v3.32h-3.32v-3.32h3.32M32.6,15.49h-5.19v5.19h5.19v-5.19h0Z"/>
    </g>
    <g>
      <polygon points="24.56 43.86 24.56 39.61 27.87 39.61 27.87 30.19 24.56 30.19 24.56 25.94 32.13 25.94 32.13 39.61 35.44 39.61 35.44 43.86 24.56 43.86"/>
      <path d="M31.66,26.4v13.67h3.32v3.32h-9.95v-3.32h3.32v-10.36h-3.32v-3.32h6.63M32.6,25.47h-8.51v5.19h3.32v8.48h-3.32v5.19h11.83v-5.19h-3.32v-13.67h0Z"/>
    </g>
  </g>
  <circle id="Outer" cx="30" cy="30" r="26.86" fill="none" stroke="#000" stroke-width="6.28"/>
</svg>