<?xml version="1.0" encoding="UTF-8"?>
<svg id="Layer_1" xmlns="http://www.w3.org/2000/svg" version="1.1" viewBox="0 0 111 111">
  <!-- Generator: Adobe Illustrator 30.1.0, SVG Export Plug-In . SVG Version: 2.1.1 Build 136)  -->
  <path d="M55.5,15.54c1.3,0,2.6.67,3.28,2.02l8.36,16.59c1.43,2.85,4.11,4.86,7.24,5.45l18.09,3.39c2.83.53,3.97,3.97,2.03,6.1l-13.18,14.46c-2.03,2.23-2.98,5.25-2.58,8.24l2.57,19.5c.31,2.33-1.55,4.17-3.64,4.17-.55,0-1.13-.13-1.68-.41l-15.82-8.15c-1.47-.76-3.07-1.13-4.67-1.13-1.6,0-3.21.38-4.67,1.13l-15.82,8.15c-.55.28-1.12.41-1.68.41-2.09,0-3.94-1.84-3.64-4.17l2.57-19.5c.39-2.99-.55-6.01-2.58-8.23l-13.18-14.46c-1.94-2.13-.79-5.57,2.04-6.1l18.08-3.39c3.13-.59,5.8-2.6,7.24-5.45l8.36-16.6c.68-1.35,1.98-2.02,3.28-2.02M55.5,0C48.2,0,41.63,4.05,38.34,10.57l-7.18,14.25-15.49,2.9c-6.84,1.28-12.47,6.18-14.68,12.78-2.21,6.61-.67,13.91,4.02,19.06l11.52,12.64-2.25,17.06c-.72,5.49.95,11.02,4.59,15.18,3.66,4.17,8.93,6.56,14.45,6.56,3.04,0,6.08-.74,8.79-2.14l13.38-6.89,13.38,6.89c2.72,1.4,5.76,2.14,8.79,2.14,5.53,0,10.8-2.39,14.45-6.56,3.64-4.15,5.31-9.69,4.59-15.18l-2.25-17.06,11.52-12.64c4.69-5.15,6.23-12.45,4.02-19.05-2.21-6.6-7.84-11.5-14.68-12.78l-15.49-2.9-7.18-14.25C69.37,4.05,62.8,0,55.5,0h0Z"/>
</svg>