<?xml version="1.0" encoding="UTF-8"?>
<svg id="Layer_1" xmlns="http://www.w3.org/2000/svg" version="1.1" viewBox="0 0 128 128">
  <!-- Generator: Adobe Illustrator 30.1.0, SVG Export Plug-In . SVG Version: 2.1.1 Build 136)  -->
  <path d="M64,13.4c1.65,0,3.29.85,4.15,2.56l10.59,21.01c1.82,3.61,5.21,6.16,9.17,6.9l22.9,4.29c3.58.67,5.03,5.02,2.58,7.72l-16.69,18.31c-2.57,2.83-3.77,6.65-3.27,10.44l3.26,24.69c.39,2.95-1.96,5.28-4.61,5.28-.7,0-1.43-.16-2.12-.52l-20.03-10.32c-1.86-.96-3.89-1.43-5.92-1.43-2.03,0-4.06.48-5.92,1.43l-20.03,10.32c-.7.36-1.42.52-2.12.52-2.65,0-5-2.33-4.61-5.28l3.26-24.7c.5-3.79-.7-7.6-3.27-10.43l-16.69-18.31c-2.46-2.7-1-7.05,2.58-7.72l22.9-4.29c3.96-.74,7.35-3.29,9.16-6.9l10.59-21.02c.86-1.71,2.5-2.56,4.15-2.56M64,0C57.14,0,50.97,3.81,47.88,9.93l-10.49,20.81-22.67,4.25c-6.43,1.2-11.71,5.81-13.79,12.01-2.08,6.21-.63,13.07,3.78,17.91l16.55,18.16-3.23,24.5c-.68,5.16.89,10.36,4.31,14.26,3.44,3.92,8.39,6.17,13.58,6.17,2.85,0,5.71-.7,8.26-2.01l19.81-10.2,19.81,10.2c2.55,1.32,5.41,2.01,8.26,2.01,5.19,0,10.14-2.25,13.58-6.17,3.42-3.9,4.99-9.1,4.31-14.26l-3.23-24.5,16.55-18.16c4.41-4.84,5.86-11.7,3.78-17.91-2.08-6.2-7.36-10.81-13.79-12.01l-22.67-4.25-10.49-20.81C77.03,3.81,70.85,0,64,0h0Z"/>
</svg>