<?xml version="1.0" encoding="UTF-8"?>
<svg id="Layer_1" xmlns="http://www.w3.org/2000/svg" version="1.1" viewBox="0 0 128 128">
  <!-- Generator: Adobe Illustrator 30.1.0, SVG Export Plug-In . SVG Version: 2.1.1 Build 136)  -->
  <path d="M64,17.92c1.5,0,3,.78,3.78,2.33l9.64,19.14c1.65,3.28,4.74,5.61,8.35,6.28l20.86,3.91c3.26.61,4.58,4.57,2.35,7.03l-15.2,16.67c-2.34,2.57-3.44,6.05-2.98,9.51l2.97,22.48c.35,2.68-1.78,4.81-4.2,4.81-.64,0-1.3-.15-1.93-.48l-18.24-9.39c-1.69-.87-3.54-1.31-5.39-1.31-1.85,0-3.7.44-5.39,1.31l-18.24,9.4c-.64.33-1.3.48-1.93.48-2.41,0-4.55-2.12-4.2-4.81l2.97-22.49c.46-3.45-.63-6.93-2.98-9.5l-15.2-16.68c-2.24-2.46-.91-6.42,2.35-7.03l20.85-3.91c3.61-.68,6.69-3,8.34-6.28l9.64-19.14c.78-1.55,2.28-2.33,3.78-2.33M64,0c-8.42,0-16,4.67-19.78,12.19l-8.28,16.43-17.86,3.35c-7.89,1.48-14.38,7.13-16.93,14.74-2.55,7.62-.78,16.04,4.63,21.98l13.28,14.57-2.59,19.67c-.84,6.33,1.09,12.71,5.29,17.5,4.22,4.81,10.29,7.57,16.67,7.57,3.5,0,7.01-.85,10.14-2.47l15.43-7.94,15.43,7.94c3.13,1.61,6.64,2.47,10.14,2.47,6.38,0,12.45-2.76,16.67-7.57,4.2-4.79,6.13-11.17,5.29-17.5l-2.59-19.67,13.28-14.58c5.41-5.94,7.19-14.36,4.63-21.97-2.55-7.61-9.04-13.26-16.92-14.74l-17.87-3.35-8.28-16.43c-3.79-7.52-11.37-12.19-19.78-12.19h0Z"/>
</svg>