<?xml version="1.0" encoding="UTF-8"?>
<svg id="Layer_1" xmlns="http://www.w3.org/2000/svg" version="1.1" viewBox="0 0 102 102">
  <!-- Generator: Adobe Illustrator 30.1.0, SVG Export Plug-In . SVG Version: 2.1.1 Build 136)  -->
  <circle id="Outer" cx="51" cy="51" r="45.66" fill="none" stroke="#000" stroke-width="10.68"/>
  <g>
    <g>
      <rect x="47.78" y="67.16" width="6.38" height="6.38"/>
      <path d="M53.37,67.96v4.79h-4.79v-4.79h4.79M54.96,66.36h-7.98v7.98h7.98v-7.98h0Z"/>
    </g>
    <g>
      <path d="M47.79,60.22l-.02-2.6c0-2.47.92-4.84,2.58-6.67l4.74-5.25c1.17-1.29,1.81-2.96,1.81-4.69,0-2.39-1.96-4.34-4.37-4.34h-3.05c-2.41,0-4.37,1.95-4.37,4.34v.8h-6.43v-.8c0-5.92,4.84-10.73,10.8-10.73h3.05c5.96,0,10.8,4.81,10.8,10.73,0,3.31-1.23,6.5-3.45,8.96l-4.75,5.26c-.61.68-.94,1.5-.94,2.39l-.03,2.61h-6.37Z"/>
      <path d="M52.52,31.07c5.52,0,10,4.46,10,9.93,0,3.12-1.15,6.11-3.25,8.43l-4.75,5.26c-.74.81-1.14,1.82-1.15,2.92l-.02,1.81h-4.79l-.02-1.81c0-2.27.84-4.43,2.37-6.12l4.74-5.26c1.3-1.44,2.01-3.29,2.01-5.23,0-2.83-2.32-5.13-5.17-5.13h-3.05c-2.85,0-5.17,2.3-5.17,5.13h-4.83c0-5.48,4.49-9.93,10-9.93h3.05M52.52,29.48h-3.05c-6.39,0-11.6,5.17-11.6,11.53v1.59h8.02v-1.59c0-1.95,1.6-3.54,3.58-3.54h3.05c1.97,0,3.58,1.59,3.58,3.54,0,1.54-.57,3.01-1.6,4.16l-4.74,5.26c-1.78,1.97-2.77,4.53-2.78,7.19l.02,1.83v1.58h7.96l.02-1.58.02-1.81c0-.7.26-1.34.73-1.87l4.75-5.26c2.36-2.61,3.66-5.99,3.66-9.5,0-6.36-5.2-11.53-11.6-11.53h0Z"/>
    </g>
  </g>
</svg>