<?xml version="1.0" encoding="UTF-8"?>
<svg id="Layer_1" xmlns="http://www.w3.org/2000/svg" version="1.1" viewBox="0 0 60 60">
  <!-- Generator: Adobe Illustrator 30.1.0, SVG Export Plug-In . SVG Version: 2.1.1 Build 136)  -->
  <circle id="Outer" cx="30" cy="30" r="25.8" fill="none" stroke="#000" stroke-width="8.4"/>
  <g>
    <g>
      <rect x="28.1" y="38.7" width="3.77" height="3.77"/>
      <path d="M31.21,39.36v2.46h-2.46v-2.46h2.46M32.52,38.05h-5.08v5.08h5.08v-5.08h0Z"/>
    </g>
    <g>
      <path d="M28.11,34.78v-1.58c0-1.33.48-2.6,1.37-3.59l2.43-2.7c.56-.62.86-1.41.86-2.24,0-1.09-.9-1.98-2-1.98h-1.56c-1.1,0-2,.89-2,1.98v.66h-3.79v-.66c0-3.17,2.6-5.75,5.79-5.75h1.56c3.19,0,5.79,2.58,5.79,5.75,0,1.76-.65,3.45-1.83,4.76l-2.43,2.7c-.27.3-.42.67-.42,1.06l-.02,1.58h-3.76Z"/>
      <path d="M30.78,19.58c2.83,0,5.13,2.29,5.13,5.09,0,1.6-.59,3.13-1.67,4.32l-2.43,2.7c-.38.42-.59.94-.59,1.5v.93h-2.47v-.93c0-1.16.43-2.27,1.21-3.14l2.43-2.7c.67-.74,1.03-1.69,1.03-2.68,0-1.45-1.19-2.63-2.65-2.63h-1.56c-1.46,0-2.65,1.18-2.65,2.63h-2.48c0-2.81,2.3-5.09,5.13-5.09h1.56M30.78,18.27h-1.56c-3.55,0-6.44,2.87-6.44,6.41v1.31h5.1v-1.31c0-.73.6-1.32,1.34-1.32h1.56c.74,0,1.34.59,1.34,1.32,0,.66-.25,1.3-.69,1.8l-2.43,2.7c-1,1.1-1.55,2.53-1.56,4.02v.95s.02,1.3.02,1.3h5.06v-1.3s.02-.93.02-.93c0-.24.08-.45.25-.63l2.43-2.7c1.29-1.43,2-3.28,2-5.2,0-3.53-2.89-6.41-6.44-6.41h0Z"/>
    </g>
  </g>
</svg>