<?xml version="1.0" encoding="UTF-8"?>
<svg id="Layer_1" xmlns="http://www.w3.org/2000/svg" version="1.1" viewBox="0 0 60 60">
  <!-- Generator: Adobe Illustrator 30.1.0, SVG Export Plug-In . SVG Version: 2.1.1 Build 136)  -->
  <circle id="Outer" cx="30" cy="30" r="24.74" fill="none" stroke="#000" stroke-width="10.52"/>
  <g>
    <g>
      <rect x="28.08" y="37.89" width="3.8" height="3.8"/>
      <path d="M31.04,38.73v2.11h-2.11v-2.11h2.11M32.73,37.05h-5.49v5.49h5.49v-5.49h0Z"/>
    </g>
    <g>
      <path d="M28.1,34.19v-1.64c-.01-1.22.44-2.38,1.25-3.27l2.09-2.32c.43-.48.67-1.1.67-1.74,0-.78-.64-1.42-1.44-1.42h-1.34c-.79,0-1.44.64-1.44,1.42v.84h-3.82v-.84c0-2.88,2.36-5.23,5.26-5.23h1.34c2.9,0,5.26,2.34,5.26,5.23,0,1.58-.59,3.11-1.65,4.28l-2.09,2.32c-.19.21-.29.45-.29.72l-.02,1.64h-3.78Z"/>
      <path d="M30.67,20.83c2.43,0,4.41,1.97,4.41,4.38,0,1.38-.51,2.7-1.43,3.72l-2.09,2.32c-.32.36-.5.8-.51,1.29v.8h-2.12v-.8c0-1,.37-1.96,1.04-2.7l2.09-2.32c.57-.63.89-1.45.89-2.31,0-1.25-1.02-2.27-2.28-2.27h-1.34c-1.26,0-2.28,1.02-2.28,2.27h-2.13c0-2.42,1.98-4.38,4.41-4.38h1.34M30.67,19.15h-1.34c-3.36,0-6.1,2.72-6.1,6.07v1.69h5.51v-1.69c0-.32.27-.58.59-.58h1.34c.33,0,.59.26.59.58,0,.43-.16.85-.45,1.17l-2.09,2.32c-.95,1.05-1.48,2.41-1.48,3.83v.82s.02,1.67.02,1.67h5.46l.02-1.67v-.8c0-.06.02-.11.08-.17l2.09-2.32c1.2-1.33,1.87-3.06,1.87-4.85,0-3.35-2.74-6.07-6.1-6.07h0Z"/>
    </g>
  </g>
</svg>