<?xml version="1.0" encoding="UTF-8"?>
<svg id="Layer_1" xmlns="http://www.w3.org/2000/svg" version="1.1" viewBox="0 0 60 60">
  <!-- Generator: Adobe Illustrator 30.1.0, SVG Export Plug-In . SVG Version: 2.1.1 Build 136)  -->
  <circle id="Outer" cx="30" cy="30" r="26.86" fill="none" stroke="#000" stroke-width="6.28"/>
  <g>
    <g>
      <rect x="28.1" y="39.5" width="3.76" height="3.76"/>
      <path d="M31.39,39.97v2.82h-2.82v-2.82h2.82M32.33,39.04h-4.69v4.69h4.69v-4.69h0Z"/>
    </g>
    <g>
      <path d="M28.11,35.42v-1.53c0-1.45.53-2.84,1.5-3.92l2.79-3.09c.69-.76,1.06-1.74,1.06-2.76,0-1.41-1.15-2.55-2.57-2.55h-1.79c-1.42,0-2.57,1.14-2.57,2.55v.47h-3.78v-.47c0-3.48,2.85-6.31,6.35-6.31h1.79c3.5,0,6.35,2.83,6.35,6.31,0,1.95-.72,3.82-2.03,5.27l-2.79,3.09c-.36.4-.55.88-.55,1.4l-.02,1.53h-3.75Z"/>
      <path d="M30.9,18.28c3.24,0,5.88,2.62,5.88,5.84,0,1.83-.68,3.59-1.91,4.96l-2.79,3.09c-.43.48-.67,1.07-.67,1.72v1.07h-2.83v-1.07c0-1.34.49-2.61,1.39-3.6l2.79-3.09c.76-.85,1.18-1.94,1.18-3.07,0-1.66-1.36-3.02-3.04-3.02h-1.79c-1.68,0-3.04,1.35-3.04,3.02h-2.84c0-3.22,2.64-5.84,5.88-5.84h1.79M30.9,17.34h-1.79c-3.76,0-6.82,3.04-6.82,6.78v.94h4.72v-.94c0-1.15.94-2.08,2.1-2.08h1.79c1.16,0,2.1.93,2.1,2.08,0,.9-.33,1.77-.94,2.45l-2.79,3.09c-1.05,1.16-1.63,2.66-1.64,4.23v1.08s.02.93.02.93h4.68v-.93s.02-1.07.02-1.07c0-.41.15-.79.43-1.1l2.79-3.09c1.39-1.54,2.15-3.52,2.15-5.59,0-3.74-3.06-6.78-6.82-6.78h0Z"/>
    </g>
  </g>
</svg>