<?xml version="1.0" encoding="UTF-8"?>
<svg id="Layer_1" xmlns="http://www.w3.org/2000/svg" version="1.1" viewBox="0 0 107 107">
  <!-- Generator: Adobe Illustrator 30.1.0, SVG Export Plug-In . SVG Version: 2.1.1 Build 136)  -->
  <path d="M53.5,14.98c1.25,0,2.5.65,3.16,1.95l8.06,16c1.38,2.74,3.96,4.69,6.98,5.25l17.43,3.27c2.73.51,3.83,3.82,1.96,5.88l-12.7,13.94c-1.96,2.15-2.87,5.06-2.49,7.95l2.48,18.79c.3,2.24-1.49,4.02-3.51,4.02-.53,0-1.09-.12-1.62-.4l-15.25-7.85c-1.41-.73-2.96-1.09-4.5-1.09-1.55,0-3.09.36-4.5,1.09l-15.25,7.85c-.53.27-1.08.4-1.62.4-2.02,0-3.8-1.78-3.51-4.02l2.48-18.8c.38-2.88-.53-5.79-2.49-7.94l-12.7-13.94c-1.87-2.05-.76-5.37,1.96-5.88l17.43-3.27c3.01-.56,5.59-2.51,6.97-5.25l8.06-16c.65-1.3,1.91-1.95,3.16-1.95M53.5,0C46.46,0,40.13,3.9,36.96,10.19l-6.92,13.73-14.93,2.8c-6.6,1.24-12.02,5.96-14.15,12.32-2.13,6.37-.65,13.41,3.87,18.37l11.1,12.18-2.17,16.45c-.7,5.29.91,10.63,4.43,14.63,3.53,4.02,8.6,6.33,13.93,6.33,2.93,0,5.86-.71,8.48-2.06l12.9-6.64,12.9,6.64c2.62,1.35,5.55,2.06,8.48,2.06,5.33,0,10.41-2.31,13.93-6.33,3.51-4,5.12-9.34,4.43-14.63l-2.17-16.45,11.1-12.19c4.52-4.96,6.01-12,3.87-18.37-2.13-6.36-7.55-11.09-14.15-12.32l-14.93-2.8-6.92-13.73C66.87,3.9,60.53,0,53.5,0h0Z"/>
</svg>