<?xml version="1.0" encoding="UTF-8"?>
<svg id="Layer_1" xmlns="http://www.w3.org/2000/svg" version="1.1" viewBox="0 0 104 104">
  <!-- Generator: Adobe Illustrator 30.1.0, SVG Export Plug-In . SVG Version: 2.1.1 Build 136)  -->
  <g>
    <g>
      <rect x="48.26" y="28.98" width="7.49" height="7.49"/>
      <path d="M54.61,30.12v5.21h-5.21v-5.21h5.21M56.88,27.84h-9.76v9.76h9.76v-9.76h0Z"/>
    </g>
    <g>
      <polygon points="43.04 74.41 43.04 66.92 48.26 66.92 48.26 52.92 43.04 52.92 43.04 45.44 55.74 45.44 55.74 66.92 60.96 66.92 60.96 74.41 43.04 74.41"/>
      <path d="M54.61,46.57v21.49h5.21v5.21h-15.64v-5.21h5.21v-16.27h-5.21v-5.21h10.43M56.88,44.3h-14.98v9.76h5.21v11.72h-5.21v9.76h20.19v-9.76h-5.21v-21.49h0Z"/>
    </g>
  </g>
  <circle id="Outer" cx="52" cy="52" r="44.72" fill="none" stroke="#000" stroke-width="14.56"/>
</svg>