<?xml version="1.0" encoding="UTF-8"?>
<svg id="Layer_1" xmlns="http://www.w3.org/2000/svg" version="1.1" viewBox="0 0 104 104">
  <!-- Generator: Adobe Illustrator 30.1.0, SVG Export Plug-In . SVG Version: 2.1.1 Build 136)  -->
  <g>
    <g>
      <rect x="48.31" y="27.66" width="7.38" height="7.37"/>
      <path d="M54.87,28.47v5.75h-5.75v-5.75h5.75M56.5,26.85h-9v9h9v-9h0Z"/>
    </g>
    <g>
      <polygon points="42.56 76.03 42.56 68.65 48.31 68.65 48.31 52.33 42.56 52.33 42.56 44.95 55.69 44.95 55.69 68.65 61.44 68.65 61.44 76.03 42.56 76.03"/>
      <path d="M54.87,45.77v23.7h5.75v5.75h-17.25v-5.75h5.75v-17.95h-5.75v-5.75h11.5M56.5,44.14h-14.75v9h5.75v14.7h-5.75v9h20.5v-9h-5.75v-23.7h0Z"/>
    </g>
  </g>
  <circle id="Outer" cx="52" cy="52" r="46.56" fill="none" stroke="#000" stroke-width="10.89"/>
</svg>