<?xml version="1.0" encoding="UTF-8"?>
<svg id="Layer_1" xmlns="http://www.w3.org/2000/svg" version="1.1" viewBox="0 0 58 58">
  <!-- Generator: Adobe Illustrator 30.1.0, SVG Export Plug-In . SVG Version: 2.1.1 Build 136)  -->
  <path d="M29,10.17c.61,0,1.22.32,1.54.95l3.94,7.82c.68,1.34,1.94,2.29,3.41,2.57l8.52,1.6c1.33.25,1.87,1.87.96,2.87l-6.21,6.81c-.96,1.05-1.4,2.47-1.22,3.89l1.21,9.19c.14,1.1-.73,1.96-1.71,1.96-.26,0-.53-.06-.79-.2l-7.46-3.84c-.69-.36-1.45-.53-2.2-.53-.76,0-1.51.18-2.2.53l-7.46,3.84c-.26.13-.53.2-.79.2-.99,0-1.86-.87-1.71-1.96l1.21-9.19c.19-1.41-.26-2.83-1.22-3.88l-6.21-6.81c-.91-1-.37-2.62.96-2.87l8.52-1.6c1.47-.28,2.73-1.23,3.41-2.57l3.94-7.82c.32-.64.93-.95,1.54-.95M29,0C24.48,0,20.41,2.51,18.37,6.55l-2.75,5.46-5.92,1.11c-4.24.79-7.72,3.83-9.09,7.92-1.37,4.09-.42,8.61,2.49,11.8l4.54,4.98-.89,6.73c-.45,3.4.59,6.83,2.84,9.4,2.26,2.58,5.53,4.06,8.95,4.06,1.88,0,3.77-.46,5.45-1.32l5-2.58,5,2.58c1.68.87,3.56,1.32,5.45,1.32,3.42,0,6.69-1.48,8.95-4.06,2.26-2.57,3.29-6,2.84-9.4l-.89-6.73,4.54-4.98c2.91-3.19,3.86-7.71,2.49-11.8-1.37-4.09-4.85-7.12-9.09-7.92l-5.92-1.11-2.75-5.46C37.59,2.51,33.52,0,29,0h0Z"/>
</svg>