<?xml version="1.0" encoding="UTF-8"?>
<svg id="Layer_1" xmlns="http://www.w3.org/2000/svg" version="1.1" viewBox="0 0 58 58">
  <!-- Generator: Adobe Illustrator 30.1.0, SVG Export Plug-In . SVG Version: 2.1.1 Build 136)  -->
  <path d="M29,6.07c.75,0,1.49.39,1.88,1.16l4.8,9.52c.82,1.63,2.36,2.79,4.15,3.13l10.38,1.95c1.62.3,2.28,2.28,1.17,3.5l-7.56,8.3c-1.17,1.28-1.71,3.01-1.48,4.73l1.48,11.19c.18,1.33-.89,2.39-2.09,2.39-.32,0-.65-.07-.96-.24l-9.08-4.67c-.84-.43-1.76-.65-2.68-.65-.92,0-1.84.22-2.68.65l-9.08,4.67c-.32.16-.64.24-.96.24-1.2,0-2.26-1.06-2.09-2.39l1.48-11.19c.23-1.72-.32-3.45-1.48-4.72l-7.56-8.3c-1.11-1.22-.46-3.2,1.17-3.5l10.38-1.94c1.79-.34,3.33-1.49,4.15-3.12l4.8-9.52c.39-.77,1.13-1.16,1.88-1.16M29,0C25.89,0,23.09,1.72,21.7,4.5l-4.75,9.43-10.27,1.93c-2.91.55-5.31,2.63-6.25,5.44-.94,2.81-.29,5.92,1.71,8.11l7.5,8.23-1.46,11.1c-.31,2.34.4,4.69,1.95,6.46,1.56,1.78,3.8,2.8,6.15,2.8,1.29,0,2.59-.32,3.74-.91l8.98-4.62,8.98,4.62c1.16.6,2.45.91,3.74.91,2.35,0,4.6-1.02,6.15-2.8,1.55-1.77,2.26-4.12,1.95-6.46l-1.46-11.1,7.5-8.23c2-2.19,2.65-5.3,1.71-8.11-.94-2.81-3.34-4.9-6.25-5.44l-10.27-1.93-4.75-9.43C34.9,1.72,32.11,0,29,0h0Z"/>
</svg>