<?xml version="1.0" encoding="UTF-8"?>
<svg id="Layer_1" xmlns="http://www.w3.org/2000/svg" version="1.1" viewBox="0 0 11 11">
  <!-- Generator: Adobe Illustrator 30.1.0, SVG Export Plug-In . SVG Version: 2.1.1 Build 136)  -->
  <path d="M5.5,1.54c.13,0,.26.07.32.2l.83,1.64c.14.28.41.48.72.54l1.79.34c.28.05.39.39.2.6l-1.31,1.43c-.2.22-.3.52-.26.82l.25,1.93c.03.23-.15.41-.36.41-.05,0-.11-.01-.17-.04l-1.57-.81c-.15-.07-.3-.11-.46-.11s-.32.04-.46.11l-1.57.81c-.05.03-.11.04-.17.04-.21,0-.39-.18-.36-.41l.25-1.93c.04-.3-.05-.6-.26-.82l-1.31-1.43c-.19-.21-.08-.55.2-.6l1.79-.34c.31-.06.57-.26.72-.54l.83-1.64c.07-.13.2-.2.32-.2M5.5,0c-.72,0-1.37.4-1.7,1.05l-.71,1.41-1.53.29c-.68.13-1.24.61-1.45,1.27-.22.65-.07,1.38.4,1.89l1.14,1.25-.22,1.69c-.07.54.09,1.09.45,1.5.36.41.88.65,1.43.65.3,0,.6-.07.87-.21l1.33-.68,1.33.68c.27.14.57.21.87.21.55,0,1.07-.24,1.43-.65.36-.41.53-.96.45-1.5l-.22-1.69,1.14-1.25c.46-.51.62-1.23.4-1.89-.22-.65-.78-1.14-1.45-1.27l-1.54-.29-.71-1.41c-.33-.65-.98-1.05-1.7-1.05h0Z"/>
</svg>