<?xml version="1.0" encoding="UTF-8"?>
<svg id="Layer_1" xmlns="http://www.w3.org/2000/svg" version="1.1" viewBox="0 0 15 15">
  <!-- Generator: Adobe Illustrator 30.1.0, SVG Export Plug-In . SVG Version: 2.1.1 Build 136)  -->
  <path d="M7.5,2.1c.18,0,.35.09.44.27l1.13,2.24c.19.38.56.66.98.74l2.44.46c.38.07.54.54.27.82l-1.78,1.95c-.27.3-.4.71-.35,1.11l.35,2.63c.04.31-.21.56-.49.56-.07,0-.15-.02-.23-.06l-2.14-1.1c-.2-.1-.41-.15-.63-.15s-.43.05-.63.15l-2.14,1.1c-.07.04-.15.06-.23.06-.28,0-.53-.25-.49-.56l.35-2.64c.05-.4-.07-.81-.35-1.11l-1.78-1.95c-.26-.29-.11-.75.28-.82l2.44-.46c.42-.08.78-.35.98-.74l1.13-2.24c.09-.18.27-.27.44-.27M7.5,0C6.51,0,5.63.55,5.18,1.43l-.97,1.93-2.09.39c-.92.17-1.68.84-1.98,1.73-.3.89-.09,1.88.54,2.58l1.56,1.71-.3,2.31c-.1.74.13,1.49.62,2.05.49.56,1.21.89,1.95.89.41,0,.82-.1,1.19-.29l1.81-.93,1.81.93c.37.19.78.29,1.19.29.75,0,1.46-.32,1.95-.89.49-.56.72-1.31.62-2.05l-.3-2.31,1.56-1.71c.63-.7.84-1.68.54-2.57-.3-.89-1.06-1.55-1.98-1.73l-2.09-.39-.97-1.93C9.37.55,8.49,0,7.5,0h0Z"/>
</svg>