<?xml version="1.0" encoding="UTF-8"?>
<svg id="Layer_1" xmlns="http://www.w3.org/2000/svg" version="1.1" viewBox="0 0 15 15">
  <!-- Generator: Adobe Illustrator 30.1.0, SVG Export Plug-In . SVG Version: 2.1.1 Build 136)  -->
  <path d="M7.5,2.63c.16,0,.32.08.4.25l1.02,2.02c.17.35.5.59.88.66l2.2.41c.34.06.48.48.25.74l-1.61,1.76c-.25.27-.36.64-.31,1l.31,2.38c.04.28-.19.51-.44.51-.07,0-.14-.02-.2-.05l-1.93-.99c-.18-.09-.37-.14-.57-.14s-.39.05-.57.14l-1.93.99c-.07.03-.14.05-.2.05-.25,0-.48-.22-.44-.51l.31-2.38c.05-.36-.07-.73-.31-1l-1.61-1.76c-.24-.26-.1-.68.25-.74l2.2-.41c.38-.07.71-.32.88-.66l1.02-2.02c.08-.16.24-.25.4-.25M7.5,0C6.33,0,5.28.65,4.75,1.69l-.71,1.41-1.53.29c-1.1.21-2,.99-2.35,2.05-.35,1.06-.11,2.23.64,3.05l1.17,1.29-.23,1.74c-.12.88.15,1.77.74,2.43.59.67,1.43,1.05,2.31,1.05.49,0,.97-.12,1.41-.34l1.29-.67,1.29.67c.43.22.92.34,1.41.34.89,0,1.73-.38,2.31-1.05.58-.67.85-1.55.74-2.43l-.23-1.74,1.17-1.29c.75-.82,1-1.99.64-3.05-.35-1.06-1.25-1.84-2.35-2.05l-1.53-.29-.71-1.41C9.72.65,8.67,0,7.5,0h0Z"/>
</svg>