<?xml version="1.0" encoding="UTF-8"?>
<svg id="Layer_1" xmlns="http://www.w3.org/2000/svg" version="1.1" viewBox="0 0 93 93">
  <!-- Generator: Adobe Illustrator 30.1.0, SVG Export Plug-In . SVG Version: 2.1.1 Build 136)  -->
  <path d="M46.5,16.3c.98,0,1.96.51,2.48,1.53l6.32,12.54c1.08,2.15,3.11,3.67,5.47,4.12l13.67,2.56c2.14.4,3,3,1.54,4.61l-9.96,10.93c-1.54,1.69-2.25,3.97-1.95,6.23l1.94,14.73c.23,1.76-1.17,3.15-2.75,3.15-.42,0-.85-.1-1.27-.31l-11.95-6.16c-1.11-.57-2.32-.86-3.53-.86s-2.42.29-3.53.86l-11.95,6.16c-.42.21-.85.31-1.27.31-1.58,0-2.98-1.39-2.75-3.15l1.94-14.74c.3-2.26-.42-4.54-1.95-6.22l-9.96-10.93c-1.47-1.61-.6-4.21,1.54-4.61l13.67-2.56c2.36-.44,4.38-1.96,5.47-4.11l6.32-12.54c.51-1.02,1.49-1.53,2.48-1.53M46.5,0c-7.25,0-13.78,4.02-17.04,10.5l-4.41,8.75-9.49,1.78c-6.79,1.27-12.38,6.14-14.58,12.69-2.2,6.56-.67,13.81,3.99,18.92l7.27,7.98-1.42,10.79c-.72,5.45.94,10.95,4.56,15.07,3.63,4.14,8.86,6.51,14.35,6.51,3.02,0,6.04-.73,8.73-2.12l8.02-4.13,8.02,4.13c2.7,1.39,5.72,2.12,8.73,2.12,5.49,0,10.72-2.37,14.35-6.51,3.62-4.13,5.28-9.62,4.56-15.07l-1.42-10.79,7.28-7.99c4.66-5.11,6.19-12.36,3.99-18.92-2.2-6.56-7.78-11.42-14.57-12.69l-9.49-1.78-4.41-8.75C60.27,4.02,53.75,0,46.5,0h0Z"/>
</svg>