<?xml version="1.0" encoding="UTF-8"?>
<svg id="Layer_1" xmlns="http://www.w3.org/2000/svg" version="1.1" viewBox="0 0 93 93">
  <!-- Generator: Adobe Illustrator 30.1.0, SVG Export Plug-In . SVG Version: 2.1.1 Build 136)  -->
  <path d="M46.5,9.74c1.2,0,2.39.62,3.02,1.86l7.69,15.27c1.32,2.62,3.78,4.47,6.66,5.01l16.64,3.12c2.6.49,3.66,3.65,1.87,5.61l-12.12,13.3c-1.87,2.05-2.74,4.83-2.38,7.58l2.37,17.94c.28,2.14-1.42,3.83-3.35,3.83-.51,0-1.04-.12-1.54-.38l-14.55-7.5c-1.35-.69-2.82-1.04-4.3-1.04s-2.95.35-4.3,1.04l-14.55,7.5c-.51.26-1.03.38-1.54.38-1.92,0-3.63-1.69-3.35-3.83l2.37-17.94c.36-2.75-.51-5.53-2.37-7.58l-12.12-13.3c-1.79-1.96-.73-5.12,1.87-5.61l16.64-3.12c2.88-.54,5.34-2.39,6.66-5.01l7.69-15.27c.62-1.24,1.82-1.86,3.02-1.86M46.5,0c-4.98,0-9.47,2.76-11.71,7.22l-7.62,15.12-16.47,3.09c-4.67.88-8.51,4.22-10.02,8.73-1.51,4.51-.46,9.5,2.74,13.01l12.02,13.19-2.35,17.8c-.49,3.75.65,7.53,3.13,10.36,2.5,2.85,6.1,4.48,9.87,4.48,2.07,0,4.15-.51,6-1.46l14.4-7.41,14.4,7.41c1.86.96,3.93,1.46,6,1.46,3.77,0,7.37-1.63,9.87-4.48,2.48-2.83,3.63-6.61,3.13-10.36l-2.35-17.8,12.03-13.2c3.2-3.51,4.25-8.5,2.74-13.01-1.51-4.51-5.35-7.85-10.02-8.73l-16.47-3.09-7.62-15.12c-2.24-4.45-6.73-7.22-11.71-7.22h0Z"/>
</svg>