<?xml version="1.0" encoding="UTF-8"?>
<svg id="Layer_1" xmlns="http://www.w3.org/2000/svg" version="1.1" viewBox="0 0 102 102">
  <!-- Generator: Adobe Illustrator 30.1.0, SVG Export Plug-In . SVG Version: 2.1.1 Build 136)  -->
  <path d="M51,17.88c1.08,0,2.15.56,2.72,1.68l6.93,13.75c1.19,2.36,3.41,4.03,6,4.52l14.99,2.81c2.34.44,3.29,3.29,1.69,5.05l-10.92,11.98c-1.68,1.85-2.47,4.35-2.14,6.83l2.13,16.16c.25,1.93-1.28,3.45-3.02,3.45-.46,0-.93-.11-1.39-.34l-13.11-6.75c-1.22-.63-2.54-.94-3.87-.94s-2.66.31-3.87.94l-13.11,6.75c-.46.24-.93.34-1.39.34-1.73,0-3.27-1.53-3.02-3.45l2.13-16.16c.33-2.48-.46-4.98-2.14-6.82l-10.92-11.98c-1.61-1.77-.66-4.62,1.69-5.06l14.99-2.81c2.59-.49,4.81-2.15,6-4.51l6.93-13.76c.56-1.12,1.64-1.68,2.72-1.68M51,0C43.05,0,35.89,4.41,32.31,11.51l-4.83,9.6-10.4,1.95c-7.45,1.4-13.58,6.73-15.99,13.92-2.41,7.19-.73,15.15,4.38,20.75l7.98,8.75-1.56,11.84c-.79,5.98,1.03,12,5,16.53,3.98,4.54,9.72,7.14,15.74,7.14,3.31,0,6.62-.8,9.58-2.33l8.8-4.53,8.8,4.53c2.96,1.52,6.27,2.33,9.58,2.33,6.02,0,11.76-2.6,15.74-7.14,3.97-4.53,5.79-10.55,5-16.53l-1.56-11.83,7.98-8.76c5.11-5.61,6.79-13.56,4.38-20.75-2.41-7.19-8.53-12.53-15.99-13.92l-10.41-1.95-4.83-9.6C66.11,4.41,58.95,0,51,0h0Z"/>
</svg>