<?xml version="1.0" encoding="UTF-8"?>
<svg id="Layer_1" xmlns="http://www.w3.org/2000/svg" version="1.1" viewBox="0 0 116 116">
  <!-- Generator: Adobe Illustrator 30.1.0, SVG Export Plug-In . SVG Version: 2.1.1 Build 136)  -->
  <g>
    <g>
      <rect x="53.89" y="30.85" width="8.23" height="8.23"/>
      <path d="M61.21,31.76v6.41h-6.41v-6.41h6.41M63.02,29.94h-10.04v10.04h10.04v-10.04h0Z"/>
    </g>
    <g>
      <polygon points="47.47 84.8 47.47 76.58 53.89 76.58 53.89 58.37 47.47 58.37 47.47 50.14 62.11 50.14 62.11 76.58 68.53 76.58 68.53 84.8 47.47 84.8"/>
      <path d="M61.21,51.05v26.43h6.41v6.41h-19.24v-6.41h6.41v-20.02h-6.41v-6.41h12.83M63.02,49.24h-16.45v10.04h6.41v16.4h-6.41v10.04h22.86v-10.04h-6.41v-26.43h0Z"/>
    </g>
  </g>
  <circle id="Outer" cx="58" cy="58" r="51.93" fill="none" stroke="#000" stroke-width="12.14"/>
</svg>