<?xml version="1.0" encoding="UTF-8"?>
<svg id="Layer_1" xmlns="http://www.w3.org/2000/svg" version="1.1" viewBox="0 0 9 9">
  <!-- Generator: Adobe Illustrator 30.1.0, SVG Export Plug-In . SVG Version: 2.1.1 Build 136)  -->
  <path d="M4.5,1.26c.11,0,.21.05.27.16l.68,1.35c.12.23.33.39.59.44l1.47.27c.23.04.32.32.16.49l-1.07,1.17c-.16.18-.24.43-.21.67l.21,1.58c.02.19-.13.34-.29.34-.04,0-.09-.01-.14-.03l-1.28-.66c-.12-.06-.25-.09-.38-.09s-.26.03-.38.09l-1.28.66s-.09.03-.14.03c-.17,0-.32-.15-.29-.34l.21-1.58c.03-.24-.04-.49-.21-.67l-1.07-1.17c-.16-.17-.06-.45.17-.49l1.47-.27c.25-.05.47-.21.59-.44l.68-1.35c.06-.11.16-.16.27-.16M4.5,0C3.91,0,3.38.33,3.11.86l-.58,1.16-1.26.24c-.55.1-1.01.5-1.19,1.04-.18.54-.05,1.13.33,1.55l.93,1.02-.18,1.38c-.06.45.08.89.37,1.23.3.34.72.53,1.17.53.25,0,.49-.06.71-.17l1.08-.56,1.08.56c.22.11.47.17.71.17.45,0,.88-.19,1.17-.53.3-.34.43-.79.37-1.23l-.18-1.38.93-1.02c.38-.42.51-1.01.33-1.54-.18-.54-.64-.93-1.19-1.04l-1.26-.24-.58-1.16C5.62.33,5.09,0,4.5,0h0Z"/>
</svg>