<?xml version="1.0" encoding="UTF-8"?>
<svg id="Layer_1" xmlns="http://www.w3.org/2000/svg" version="1.1" viewBox="0 0 71 71">
  <!-- Generator: Adobe Illustrator 30.1.0, SVG Export Plug-In . SVG Version: 2.1.1 Build 136)  -->
  <circle id="Outer" cx="35.5" cy="35.5" r="29.28" fill="none" stroke="#000" stroke-width="12.45"/>
  <g>
    <g>
      <rect x="33.23" y="44.84" width="4.5" height="4.5"/>
      <path d="M36.73,45.84v2.5h-2.5v-2.5h2.5M38.73,43.84h-6.49v6.49h6.49v-6.49h0Z"/>
    </g>
    <g>
      <path d="M33.25,40.45l-.02-1.94c0-1.44.54-2.81,1.5-3.88l2.48-2.74c.51-.57.79-1.3.79-2.06,0-.93-.76-1.68-1.7-1.68h-1.59c-.94,0-1.7.75-1.7,1.68v1h-4.52v-1c0-3.41,2.79-6.18,6.22-6.18h1.59c3.43,0,6.22,2.77,6.22,6.18,0,1.87-.69,3.67-1.95,5.07l-2.48,2.75c-.23.25-.34.54-.34.86l-.02,1.94h-4.48Z"/>
      <path d="M36.3,24.65c2.88,0,5.22,2.33,5.22,5.19,0,1.63-.6,3.19-1.7,4.4l-2.48,2.75c-.38.42-.6.95-.6,1.52v.95h-2.51v-.95c0-1.19.43-2.31,1.23-3.2l2.48-2.74c.68-.75,1.05-1.72,1.05-2.73,0-1.48-1.21-2.68-2.7-2.68h-1.59c-1.49,0-2.7,1.2-2.7,2.68h-2.52c0-2.86,2.34-5.19,5.22-5.19h1.59M36.3,22.66h-1.59c-3.98,0-7.22,3.22-7.22,7.18v2h6.52v-2c0-.38.32-.68.7-.68h1.59c.39,0,.7.31.7.68,0,.51-.19,1.01-.54,1.39l-2.48,2.74c-1.12,1.24-1.75,2.85-1.75,4.53v.97s.03,1.98.03,1.98h1.98s2.5,0,2.5,0h1.98l.02-1.98v-.95c0-.07.02-.12.09-.2l2.48-2.75c1.43-1.58,2.21-3.62,2.21-5.74,0-3.96-3.24-7.18-7.22-7.18h0Z"/>
    </g>
  </g>
</svg>