<?xml version="1.0" encoding="UTF-8"?>
<svg id="Layer_1" xmlns="http://www.w3.org/2000/svg" version="1.1" viewBox="0 0 77 77">
  <!-- Generator: Adobe Illustrator 30.1.0, SVG Export Plug-In . SVG Version: 2.1.1 Build 136)  -->
  <circle id="Outer" cx="38.5" cy="38.5" r="34.47" fill="none" stroke="#000" stroke-width="8.06"/>
  <g>
    <g>
      <rect x="36.07" y="50.7" width="4.82" height="4.82"/>
      <path d="M40.29,51.3v3.62h-3.62v-3.62h3.62M41.49,50.1h-6.02v6.02h6.02v-6.02h0Z"/>
    </g>
    <g>
      <path d="M36.08,45.46l-.02-1.96c0-1.87.7-3.65,1.95-5.03l3.58-3.97c.88-.97,1.36-2.23,1.36-3.54,0-1.81-1.48-3.27-3.3-3.27h-2.3c-1.82,0-3.3,1.47-3.3,3.27v.6h-4.85v-.6c0-4.47,3.66-8.1,8.15-8.1h2.3c4.5,0,8.15,3.63,8.15,8.1,0,2.5-.93,4.9-2.61,6.77l-3.58,3.97c-.46.51-.71,1.13-.71,1.8l-.02,1.97h-4.81Z"/>
      <path d="M39.65,23.46c4.16,0,7.55,3.36,7.55,7.5,0,2.35-.87,4.61-2.45,6.36l-3.58,3.97c-.55.61-.86,1.38-.86,2.2v1.37h-3.63v-1.37c0-1.71.63-3.35,1.78-4.62l3.58-3.97c.98-1.09,1.52-2.49,1.52-3.94,0-2.14-1.75-3.88-3.9-3.88h-2.3c-2.15,0-3.9,1.74-3.9,3.88h-3.65c0-4.13,3.39-7.5,7.55-7.5h2.3M39.65,22.25h-2.3c-4.83,0-8.75,3.9-8.75,8.7v1.2h6.05v-1.2c0-1.47,1.21-2.67,2.7-2.67h2.3c1.49,0,2.7,1.2,2.7,2.67,0,1.16-.43,2.27-1.21,3.14l-3.58,3.97c-1.35,1.49-2.09,3.42-2.1,5.42v1.38s.02,1.19.02,1.19h6v-1.19s.03-1.37.03-1.37c0-.52.19-1.01.55-1.41l3.58-3.97c1.78-1.97,2.76-4.52,2.76-7.17,0-4.8-3.93-8.7-8.75-8.7h0Z"/>
    </g>
  </g>
</svg>