<?xml version="1.0" encoding="UTF-8"?>
<svg id="Layer_1" xmlns="http://www.w3.org/2000/svg" version="1.1" viewBox="0 0 15 15">
  <!-- Generator: Adobe Illustrator 30.1.0, SVG Export Plug-In . SVG Version: 2.1.1 Build 136)  -->
  <g>
    <g>
      <rect x="6.96" y="4.18" width="1.08" height="1.08"/>
      <path d="M7.88,4.34v.75h-.75v-.75h.75M8.2,4.02h-1.41v1.41h1.41v-1.41h0Z"/>
    </g>
    <g>
      <polygon points="6.21 10.73 6.21 9.65 6.96 9.65 6.96 7.63 6.21 7.63 6.21 6.55 8.04 6.55 8.04 9.65 8.79 9.65 8.79 10.73 6.21 10.73"/>
      <path d="M7.88,6.72v3.1h.75v.75h-2.26v-.75h.75v-2.35h-.75v-.75h1.5M8.2,6.39h-2.16v1.41h.75v1.69h-.75v1.41h2.91v-1.41h-.75v-3.1h0Z"/>
    </g>
  </g>
  <circle id="Outer" cx="7.5" cy="7.5" r="6.45" fill="none" stroke="#000" stroke-width="2.1"/>
</svg>