<?xml version="1.0" encoding="UTF-8"?>
<svg id="Layer_1" xmlns="http://www.w3.org/2000/svg" version="1.1" viewBox="0 0 15 15">
  <!-- Generator: Adobe Illustrator 30.1.0, SVG Export Plug-In . SVG Version: 2.1.1 Build 136)  -->
  <g>
    <g>
      <rect x="6.97" y="3.99" width="1.06" height="1.06"/>
      <path d="M7.91,4.11v.83h-.83v-.83h.83M8.15,3.87h-1.3v1.3h1.3v-1.3h0Z"/>
    </g>
    <g>
      <polygon points="6.14 10.97 6.14 9.9 6.97 9.9 6.97 7.55 6.14 7.55 6.14 6.48 8.03 6.48 8.03 9.9 8.86 9.9 8.86 10.97 6.14 10.97"/>
      <path d="M7.91,6.6v3.42h.83v.83h-2.49v-.83h.83v-2.59h-.83v-.83h1.66M8.15,6.37h-2.13v1.3h.83v2.12h-.83v1.3h2.96v-1.3h-.83v-3.42h0Z"/>
    </g>
  </g>
  <circle id="Outer" cx="7.5" cy="7.5" r="6.71" fill="none" stroke="#000" stroke-width="1.57"/>
</svg>