<?xml version="1.0" encoding="UTF-8"?>
<svg id="Layer_1" xmlns="http://www.w3.org/2000/svg" version="1.1" viewBox="0 0 119 119">
  <!-- Generator: Adobe Illustrator 30.1.0, SVG Export Plug-In . SVG Version: 2.1.1 Build 136)  -->
  <g>
    <g>
      <rect x="55.28" y="31.65" width="8.44" height="8.44"/>
      <path d="M62.79,32.58v6.58h-6.58v-6.58h6.58M64.65,30.72h-10.3v10.3h10.3v-10.3h0Z"/>
    </g>
    <g>
      <polygon points="48.7 87 48.7 78.56 55.28 78.56 55.28 59.88 48.7 59.88 48.7 51.44 63.72 51.44 63.72 78.56 70.3 78.56 70.3 87 48.7 87"/>
      <path d="M62.79,52.37v27.12h6.58v6.58h-19.74v-6.58h6.58v-20.54h-6.58v-6.58h13.16M64.65,50.51h-16.88v10.3h6.58v16.82h-6.58v10.3h23.46v-10.3h-6.58v-27.12h0Z"/>
    </g>
  </g>
  <circle id="Outer" cx="59.5" cy="59.5" r="53.27" fill="none" stroke="#000" stroke-width="12.46"/>
</svg>