<?xml version="1.0" encoding="UTF-8"?>
<svg id="Layer_1" xmlns="http://www.w3.org/2000/svg" version="1.1" viewBox="0 0 119 119">
  <!-- Generator: Adobe Illustrator 30.1.0, SVG Export Plug-In . SVG Version: 2.1.1 Build 136)  -->
  <g>
    <g>
      <rect x="55.22" y="33.16" width="8.57" height="8.57"/>
      <path d="M62.48,34.46v5.96h-5.96v-5.96h5.96M65.09,31.86h-11.17v11.17h11.17v-11.17h0Z"/>
    </g>
    <g>
      <polygon points="49.25 85.14 49.25 76.58 55.22 76.58 55.22 60.56 49.25 60.56 49.25 51.99 63.78 51.99 63.78 76.58 69.75 76.58 69.75 85.14 49.25 85.14"/>
      <path d="M62.48,53.29v24.59h5.96v5.96h-17.89v-5.96h5.96v-18.62h-5.96v-5.96h11.93M65.09,50.69h-17.14v11.17h5.96v13.42h-5.96v11.17h23.1v-11.17h-5.96v-24.59h0Z"/>
    </g>
  </g>
  <circle id="Outer" cx="59.5" cy="59.5" r="51.17" fill="none" stroke="#000" stroke-width="16.66"/>
</svg>