<?xml version="1.0" encoding="UTF-8"?>
<svg id="Layer_1" xmlns="http://www.w3.org/2000/svg" version="1.1" viewBox="0 0 85 85">
  <!-- Generator: Adobe Illustrator 30.1.0, SVG Export Plug-In . SVG Version: 2.1.1 Build 136)  -->
  <g>
    <g>
      <rect x="39.44" y="23.69" width="6.12" height="6.12"/>
      <path d="M44.63,24.62v4.26h-4.26v-4.26h4.26M46.49,22.76h-7.98v7.98h7.98v-7.98h0Z"/>
    </g>
    <g>
      <polygon points="35.18 60.82 35.18 54.7 39.44 54.7 39.44 43.26 35.18 43.26 35.18 37.14 45.56 37.14 45.56 54.7 49.82 54.7 49.82 60.82 35.18 60.82"/>
      <path d="M44.63,38.07v17.56h4.26v4.26h-12.78v-4.26h4.26v-13.3h-4.26v-4.26h8.52M46.49,36.21h-12.24v7.98h4.26v9.58h-4.26v7.98h16.5v-7.98h-4.26v-17.56h0Z"/>
    </g>
  </g>
  <circle id="Outer" cx="42.5" cy="42.5" r="36.55" fill="none" stroke="#000" stroke-width="11.9"/>
</svg>