<?xml version="1.0" encoding="UTF-8"?>
<svg id="Layer_1" xmlns="http://www.w3.org/2000/svg" version="1.1" viewBox="0 0 85 85">
  <!-- Generator: Adobe Illustrator 30.1.0, SVG Export Plug-In . SVG Version: 2.1.1 Build 136)  -->
  <g>
    <g>
      <rect x="39.49" y="22.61" width="6.03" height="6.03"/>
      <path d="M44.85,23.27v4.7h-4.7v-4.7h4.7M46.18,21.94h-7.36v7.36h7.36v-7.36h0Z"/>
    </g>
    <g>
      <polygon points="34.79 62.14 34.79 56.11 39.49 56.11 39.49 42.77 34.79 42.77 34.79 36.74 45.51 36.74 45.51 56.11 50.21 56.11 50.21 62.14 34.79 62.14"/>
      <path d="M44.85,37.41v19.37h4.7v4.7h-14.1v-4.7h4.7v-14.67h-4.7v-4.7h9.4M46.18,36.08h-12.05v7.36h4.7v12.01h-4.7v7.36h16.75v-7.36h-4.7v-19.37h0Z"/>
    </g>
  </g>
  <circle id="Outer" cx="42.5" cy="42.5" r="38.05" fill="none" stroke="#000" stroke-width="8.9"/>
</svg>