<?xml version="1.0" encoding="UTF-8"?>
<svg id="Layer_1" xmlns="http://www.w3.org/2000/svg" version="1.1" viewBox="0 0 114 114">
  <!-- Generator: Adobe Illustrator 30.1.0, SVG Export Plug-In . SVG Version: 2.1.1 Build 136)  -->
  <circle id="Outer" cx="57" cy="57" r="51.03" fill="none" stroke="#000" stroke-width="11.93"/>
  <g>
    <g>
      <rect x="53.4" y="75.06" width="7.14" height="7.13"/>
      <path d="M59.64,75.95v5.35h-5.35v-5.35h5.35M61.42,74.17h-8.92v8.92h8.92v-8.92h0Z"/>
    </g>
    <g>
      <path d="M53.41,67.3l-.03-2.91c0-2.76,1.03-5.41,2.88-7.45l5.3-5.87c1.3-1.44,2.02-3.31,2.02-5.24,0-2.67-2.19-4.85-4.89-4.85h-3.41c-2.7,0-4.89,2.17-4.89,4.85v.89h-7.18v-.89c0-6.61,5.41-11.99,12.07-11.99h3.41c6.66,0,12.07,5.38,12.07,11.99,0,3.7-1.37,7.26-3.86,10.02l-5.3,5.88c-.68.76-1.05,1.68-1.05,2.67l-.03,2.91h-7.12Z"/>
      <path d="M58.7,34.73c6.16,0,11.18,4.98,11.18,11.1,0,3.48-1.29,6.83-3.63,9.42l-5.3,5.88c-.82.91-1.28,2.04-1.28,3.26l-.02,2.02h-5.35l-.02-2.02c0-2.54.94-4.96,2.65-6.84l5.3-5.87c1.45-1.61,2.25-3.68,2.25-5.84,0-3.16-2.59-5.74-5.78-5.74h-3.41c-3.19,0-5.78,2.57-5.78,5.74h-5.4c0-6.12,5.01-11.1,11.18-11.1h3.41M58.7,32.94h-3.41c-7.15,0-12.96,5.78-12.96,12.88v1.78h8.96v-1.78c0-2.18,1.79-3.96,4-3.96h3.41c2.2,0,4,1.77,4,3.96,0,1.72-.64,3.37-1.79,4.65l-5.3,5.87c-1.99,2.21-3.1,5.06-3.11,8.03l.02,2.05.02,1.77h8.88l.02-1.76.02-2.02c0-.78.29-1.49.82-2.08l5.3-5.88c2.64-2.92,4.09-6.69,4.09-10.61,0-7.1-5.81-12.88-12.96-12.88h0Z"/>
    </g>
  </g>
</svg>