<?xml version="1.0" encoding="UTF-8"?>
<svg id="Layer_1" xmlns="http://www.w3.org/2000/svg" version="1.1" viewBox="0 0 114 114">
  <!-- Generator: Adobe Illustrator 30.1.0, SVG Export Plug-In . SVG Version: 2.1.1 Build 136)  -->
  <circle id="Outer" cx="57" cy="57" r="49.02" fill="none" stroke="#000" stroke-width="15.96"/>
  <g>
    <g>
      <rect x="53.39" y="73.53" width="7.16" height="7.16"/>
      <path d="M59.3,74.78v4.67h-4.67v-4.67h4.67M61.8,72.29h-9.66v9.66h9.66v-9.66h0Z"/>
    </g>
    <g>
      <path d="M53.4,66.08l-.03-3c0-2.53.94-4.95,2.63-6.81l4.62-5.12c1.06-1.17,1.64-2.68,1.64-4.26,0-2.07-1.7-3.76-3.79-3.76h-2.97c-2.09,0-3.79,1.69-3.79,3.76v1.25h-7.2v-1.25c0-6.03,4.93-10.93,11-10.93h2.97c6.06,0,11,4.9,11,10.93,0,3.35-1.24,6.56-3.49,9.05l-4.62,5.12c-.52.57-.79,1.27-.79,2.01l-.03,3.01h-7.14Z"/>
      <path d="M58.49,37.2c5.38,0,9.75,4.34,9.75,9.68,0,3.04-1.12,5.95-3.17,8.21l-4.62,5.12c-.72.79-1.11,1.78-1.12,2.84l-.02,1.77h-4.67l-.02-1.77c0-2.21.82-4.32,2.31-5.97l4.62-5.12c1.27-1.4,1.96-3.21,1.96-5.09,0-2.76-2.26-5-5.04-5h-2.97c-2.78,0-5.04,2.24-5.04,5h-4.71c0-5.34,4.37-9.68,9.75-9.68h2.97M58.49,34.71h-2.97c-6.75,0-12.24,5.46-12.24,12.17v2.49h9.7v-2.49c0-1.38,1.14-2.51,2.54-2.51h2.97c1.4,0,2.54,1.13,2.54,2.51,0,1.26-.47,2.48-1.32,3.42l-4.62,5.12c-1.89,2.1-2.94,4.81-2.96,7.63l.02,1.8.02,2.47h9.61l.02-2.47.02-1.77c0-.45.16-.85.47-1.2l4.63-5.13c2.46-2.72,3.81-6.23,3.81-9.88,0-6.71-5.49-12.17-12.24-12.17h0Z"/>
    </g>
  </g>
</svg>