<?xml version="1.0" encoding="UTF-8"?>
<svg id="Layer_1" xmlns="http://www.w3.org/2000/svg" version="1.1" viewBox="0 0 10 10">
  <!-- Generator: Adobe Illustrator 30.1.0, SVG Export Plug-In . SVG Version: 2.1.1 Build 136)  -->
  <circle id="Outer" cx="5" cy="5" r="4.48" fill="none" stroke="#000" stroke-width="1.05"/>
  <g>
    <g>
      <rect x="4.68" y="6.58" width=".63" height=".63"/>
      <path d="M5.23,6.66v.47h-.47v-.47h.47M5.39,6.51h-.78v.78h.78v-.78h0Z"/>
    </g>
    <g>
      <path d="M4.69,5.9v-.25c0-.24.09-.47.25-.65l.47-.52c.11-.13.18-.29.18-.46,0-.23-.19-.43-.43-.43h-.3c-.24,0-.43.19-.43.43v.08h-.63v-.08c0-.58.48-1.05,1.06-1.05h.3c.58,0,1.06.47,1.06,1.05,0,.32-.12.64-.34.88l-.47.52c-.06.07-.09.15-.09.23v.25h-.63Z"/>
      <path d="M5.15,3.05c.54,0,.98.44.98.97,0,.31-.11.6-.32.83l-.47.52c-.07.08-.11.18-.11.29v.18h-.47v-.18c0-.22.08-.43.23-.6l.47-.52c.13-.14.2-.32.2-.51,0-.28-.23-.5-.51-.5h-.3c-.28,0-.51.23-.51.5h-.47c0-.54.44-.97.98-.97h.3M5.15,2.89h-.3c-.63,0-1.14.51-1.14,1.13v.16h.79v-.16c0-.19.16-.35.35-.35h.3c.19,0,.35.16.35.35,0,.15-.06.3-.16.41l-.47.52c-.17.19-.27.44-.27.7v.18s0,.15,0,.15h.78v-.15s0-.18,0-.18c0-.07.03-.13.07-.18l.47-.52c.23-.26.36-.59.36-.93,0-.62-.51-1.13-1.14-1.13h0Z"/>
    </g>
  </g>
</svg>