<?xml version="1.0" encoding="UTF-8"?>
<svg id="Layer_1" xmlns="http://www.w3.org/2000/svg" version="1.1" viewBox="0 0 10 10">
  <!-- Generator: Adobe Illustrator 30.1.0, SVG Export Plug-In . SVG Version: 2.1.1 Build 136)  -->
  <circle id="Outer" cx="5" cy="5" r="4.12" fill="none" stroke="#000" stroke-width="1.75"/>
  <g>
    <g>
      <rect x="4.68" y="6.32" width=".63" height=".63"/>
      <path d="M5.17,6.46v.35h-.35v-.35h.35M5.45,6.17h-.91v.91h.91v-.91h0Z"/>
    </g>
    <g>
      <path d="M4.68,5.7v-.27c0-.2.07-.4.21-.55l.35-.39c.07-.08.11-.18.11-.29,0-.13-.11-.24-.24-.24h-.22c-.13,0-.24.11-.24.24v.14h-.64v-.14c0-.48.39-.87.88-.87h.22c.48,0,.88.39.88.87,0,.26-.1.52-.27.71l-.35.39s-.05.08-.05.12v.27h-.63Z"/>
      <path d="M5.11,3.47c.41,0,.74.33.74.73,0,.23-.08.45-.24.62l-.35.39c-.05.06-.08.13-.08.21v.13h-.35v-.13c0-.17.06-.33.17-.45l.35-.39c.1-.11.15-.24.15-.38,0-.21-.17-.38-.38-.38h-.22c-.21,0-.38.17-.38.38h-.36c0-.4.33-.73.74-.73h.22M5.11,3.19h-.22c-.56,0-1.02.45-1.02,1.01v.28h.92v-.28c0-.05.04-.1.1-.1h.22c.05,0,.1.04.1.1,0,.07-.03.14-.08.2l-.35.39c-.16.18-.25.4-.25.64v.14s0,.28,0,.28h.91v-.28s0-.13,0-.13l.36-.42c.2-.22.31-.51.31-.81,0-.56-.46-1.01-1.02-1.01h0Z"/>
    </g>
  </g>
</svg>