<?xml version="1.0" encoding="UTF-8"?>
<svg id="Layer_1" xmlns="http://www.w3.org/2000/svg" version="1.1" viewBox="0 0 52 52">
  <!-- Generator: Adobe Illustrator 30.1.0, SVG Export Plug-In . SVG Version: 2.1.1 Build 136)  -->
  <path d="M26,7.28c.61,0,1.22.32,1.54.95l3.92,7.77c.67,1.33,1.93,2.28,3.39,2.55l8.47,1.59c1.32.25,1.86,1.86.95,2.86l-6.17,6.77c-.95,1.05-1.4,2.46-1.21,3.86l1.2,9.13c.14,1.09-.72,1.95-1.7,1.95-.26,0-.53-.06-.79-.19l-7.41-3.82c-.69-.35-1.44-.53-2.19-.53-.75,0-1.5.18-2.19.53l-7.41,3.82c-.26.13-.53.19-.79.19-.98,0-1.85-.86-1.7-1.95l1.2-9.14c.18-1.4-.26-2.81-1.21-3.86l-6.17-6.77c-.91-1-.37-2.61.95-2.86l8.47-1.59c1.46-.27,2.72-1.22,3.39-2.55l3.92-7.78c.32-.63.93-.95,1.54-.95M26,0C22.58,0,19.5,1.9,17.96,4.95l-3.36,6.67-7.26,1.36c-3.21.6-5.84,2.9-6.88,5.99-1.04,3.09-.32,6.52,1.88,8.93l5.39,5.92-1.05,7.99c-.34,2.57.44,5.16,2.15,7.11,1.71,1.95,4.18,3.07,6.77,3.07,1.42,0,2.85-.35,4.12-1l6.27-3.23,6.27,3.23c1.27.66,2.7,1,4.12,1,2.59,0,5.06-1.12,6.77-3.07,1.71-1.95,2.49-4.54,2.15-7.11l-1.05-7.99,5.4-5.92c2.2-2.41,2.92-5.83,1.88-8.93-1.04-3.09-3.67-5.39-6.88-5.99l-7.26-1.36-3.36-6.67C32.5,1.9,29.42,0,26,0h0Z"/>
</svg>