<?xml version="1.0" encoding="UTF-8"?>
<svg id="Layer_1" xmlns="http://www.w3.org/2000/svg" version="1.1" viewBox="0 0 12 12">
  <!-- Generator: Adobe Illustrator 30.1.0, SVG Export Plug-In . SVG Version: 2.1.1 Build 136)  -->
  <circle id="Outer" cx="6" cy="6" r="4.95" fill="none" stroke="#000" stroke-width="2.1"/>
  <g>
    <g>
      <rect x="5.62" y="7.58" width=".76" height=".76"/>
      <path d="M6.21,7.75v.42h-.42v-.42h.42M6.55,7.41h-1.1v1.1h1.1v-1.1h0Z"/>
    </g>
    <g>
      <path d="M5.62,6.84v-.33c0-.24.09-.48.25-.65l.42-.46c.09-.1.13-.22.13-.35,0-.16-.13-.28-.29-.28h-.27c-.16,0-.29.13-.29.28v.17h-.76v-.17c0-.58.47-1.05,1.05-1.05h.27c.58,0,1.05.47,1.05,1.05,0,.32-.12.62-.33.86l-.42.46s-.06.09-.06.15v.33h-.76Z"/>
      <path d="M6.13,4.17c.49,0,.88.39.88.88,0,.28-.1.54-.29.74l-.42.46c-.06.07-.1.16-.1.26v.16h-.42v-.16c0-.2.07-.39.21-.54l.42-.46c.11-.13.18-.29.18-.46,0-.25-.2-.45-.46-.45h-.27c-.25,0-.46.2-.46.45h-.43c0-.48.4-.88.88-.88h.27M6.13,3.83h-.27c-.67,0-1.22.54-1.22,1.21v.34h1.1v-.34c0-.06.05-.12.12-.12h.27c.07,0,.12.05.12.12,0,.09-.03.17-.09.23l-.42.46c-.19.21-.3.48-.3.77v.16s0,.33,0,.33h1.09v-.33s0-.16,0-.16l.43-.5c.24-.27.37-.61.37-.97,0-.67-.55-1.21-1.22-1.21h0Z"/>
    </g>
  </g>
</svg>