<?xml version="1.0" encoding="UTF-8"?>
<svg id="Layer_1" xmlns="http://www.w3.org/2000/svg" version="1.1" viewBox="0 0 12 12">
  <!-- Generator: Adobe Illustrator 30.1.0, SVG Export Plug-In . SVG Version: 2.1.1 Build 136)  -->
  <circle id="Outer" cx="6" cy="6" r="5.16" fill="none" stroke="#000" stroke-width="1.68"/>
  <g>
    <g>
      <rect x="5.62" y="7.74" width=".75" height=".75"/>
      <path d="M6.24,7.87v.49h-.49v-.49h.49M6.5,7.61h-1.02v1.02h1.02v-1.02h0Z"/>
    </g>
    <g>
      <path d="M5.62,6.96v-.32c0-.27.1-.52.27-.72l.49-.54c.11-.12.17-.28.17-.45,0-.22-.18-.4-.4-.4h-.31c-.22,0-.4.18-.4.4v.13h-.76v-.13c0-.63.52-1.15,1.16-1.15h.31c.64,0,1.16.52,1.16,1.15,0,.35-.13.69-.37.95l-.49.54c-.05.06-.08.13-.08.21v.32h-.76Z"/>
      <path d="M6.16,3.92c.57,0,1.03.46,1.03,1.02,0,.32-.12.63-.33.86l-.49.54c-.08.08-.12.19-.12.3v.19h-.49v-.19c0-.23.09-.45.24-.63l.49-.54c.13-.15.21-.34.21-.54,0-.29-.24-.53-.53-.53h-.31c-.29,0-.53.24-.53.53h-.5c0-.56.46-1.02,1.03-1.02h.31M6.16,3.65h-.31c-.71,0-1.29.57-1.29,1.28v.26h1.02v-.26c0-.15.12-.26.27-.26h.31c.15,0,.27.12.27.26,0,.13-.05.26-.14.36l-.49.54c-.2.22-.31.51-.31.8v.19s0,.26,0,.26h1.01v-.26s0-.19,0-.19c0-.05.02-.09.05-.13l.49-.54c.26-.29.4-.66.4-1.04,0-.71-.58-1.28-1.29-1.28h0Z"/>
    </g>
  </g>
</svg>