<?xml version="1.0" encoding="UTF-8"?>
<svg id="Layer_1" xmlns="http://www.w3.org/2000/svg" version="1.1" viewBox="0 0 30 30">
  <!-- Generator: Adobe Illustrator 30.1.0, SVG Export Plug-In . SVG Version: 2.1.1 Build 136)  -->
  <path d="M15,3.14c.39,0,.77.2.97.6l2.48,4.93c.43.85,1.22,1.44,2.15,1.62l5.37,1.01c.84.16,1.18,1.18.6,1.81l-3.91,4.29c-.6.66-.88,1.56-.77,2.45l.76,5.79c.09.69-.46,1.24-1.08,1.24-.16,0-.33-.04-.5-.12l-4.69-2.42c-.44-.22-.91-.34-1.39-.34-.48,0-.95.11-1.39.34l-4.69,2.42c-.16.08-.33.12-.5.12-.62,0-1.17-.55-1.08-1.24l.76-5.79c.12-.89-.16-1.78-.77-2.44l-3.91-4.29c-.58-.63-.24-1.65.6-1.81l5.37-1.01c.93-.17,1.72-.77,2.15-1.62l2.48-4.93c.2-.4.59-.6.97-.6M15,0C13.39,0,11.95.89,11.22,2.33l-2.46,4.88-5.31,1c-1.51.28-2.74,1.36-3.23,2.82-.49,1.46-.15,3.06.89,4.2l3.88,4.26-.76,5.74c-.16,1.21.21,2.43,1.01,3.34.81.92,1.97,1.45,3.18,1.45.67,0,1.34-.16,1.94-.47l4.64-2.39,4.64,2.39c.6.31,1.27.47,1.94.47,1.22,0,2.38-.53,3.18-1.45.8-.91,1.17-2.13,1.01-3.34l-.76-5.74,3.88-4.26c1.03-1.13,1.37-2.74.88-4.2-.49-1.45-1.73-2.53-3.23-2.81l-5.31-1-2.46-4.88C18.05.89,16.61,0,15,0h0Z"/>
</svg>