<?xml version="1.0" encoding="UTF-8"?>
<svg id="Layer_1" xmlns="http://www.w3.org/2000/svg" version="1.1" viewBox="0 0 30 30">
  <!-- Generator: Adobe Illustrator 30.1.0, SVG Export Plug-In . SVG Version: 2.1.1 Build 136)  -->
  <path d="M15,5.26c.32,0,.63.16.8.49l2.04,4.05c.35.69,1,1.19,1.76,1.33l4.41.83c.69.13.97.97.5,1.49l-3.21,3.52c-.5.54-.73,1.28-.63,2.01l.63,4.75c.07.57-.38,1.02-.89,1.02-.14,0-.27-.03-.41-.1l-3.86-1.99c-.36-.18-.75-.28-1.14-.28s-.78.09-1.14.28l-3.86,1.99c-.13.07-.27.1-.41.1-.51,0-.96-.45-.89-1.02l.63-4.75c.1-.73-.13-1.46-.63-2.01l-3.21-3.52c-.47-.52-.19-1.36.5-1.49l4.41-.83c.76-.14,1.41-.63,1.76-1.33l2.04-4.05c.17-.33.48-.49.8-.49M15,0c-2.34,0-4.44,1.3-5.5,3.39l-1.42,2.82-3.06.57c-2.19.41-3.99,1.98-4.7,4.1-.71,2.12-.22,4.45,1.29,6.1l2.35,2.57-.46,3.48c-.23,1.76.3,3.53,1.47,4.86,1.17,1.34,2.86,2.1,4.63,2.1.97,0,1.95-.24,2.82-.68l2.59-1.33,2.59,1.33c.87.45,1.84.68,2.82.68,1.77,0,3.46-.77,4.63-2.1,1.17-1.33,1.7-3.1,1.47-4.86l-.46-3.48,2.35-2.58c1.5-1.65,2-3.99,1.29-6.1-.71-2.11-2.51-3.68-4.7-4.09l-3.06-.57-1.42-2.82c-1.05-2.09-3.16-3.39-5.5-3.39h0Z"/>
</svg>