<?xml version="1.0" encoding="UTF-8"?>
<svg id="Layer_1" xmlns="http://www.w3.org/2000/svg" version="1.1" viewBox="0 0 14 14">
  <!-- Generator: Adobe Illustrator 30.1.0, SVG Export Plug-In . SVG Version: 2.1.1 Build 136)  -->
  <path d="M7,2.45c.15,0,.3.08.37.23l.95,1.89c.16.32.47.55.82.62l2.06.39c.32.06.45.45.23.69l-1.5,1.64c-.23.25-.34.6-.29.94l.29,2.22c.03.26-.18.47-.41.47-.06,0-.13-.01-.19-.05l-1.8-.93c-.17-.09-.35-.13-.53-.13s-.36.04-.53.13l-1.8.93c-.06.03-.13.05-.19.05-.24,0-.45-.21-.41-.47l.29-2.22c.04-.34-.06-.68-.29-.94l-1.5-1.64c-.22-.24-.09-.63.23-.69l2.06-.39c.36-.07.66-.3.82-.62l.95-1.89c.08-.15.23-.23.37-.23M7,0C5.91,0,4.93.61,4.44,1.58l-.66,1.32-1.43.27c-1.02.19-1.86.92-2.19,1.91-.33.99-.1,2.08.6,2.85l1.1,1.2-.21,1.62c-.11.82.14,1.65.69,2.27.55.62,1.33.98,2.16.98.45,0,.91-.11,1.31-.32l1.21-.62,1.21.62c.41.21.86.32,1.31.32.83,0,1.61-.36,2.16-.98.54-.62.79-1.45.69-2.27l-.21-1.62,1.1-1.2c.7-.77.93-1.86.6-2.85-.33-.99-1.17-1.72-2.19-1.91l-1.43-.27-.66-1.32C9.07.61,8.09,0,7,0h0Z"/>
</svg>