<?xml version="1.0" encoding="UTF-8"?>
<svg id="Layer_1" xmlns="http://www.w3.org/2000/svg" version="1.1" viewBox="0 0 82 82">
  <!-- Generator: Adobe Illustrator 30.1.0, SVG Export Plug-In . SVG Version: 2.1.1 Build 136)  -->
  <path d="M41,8.58c1.05,0,2.11.55,2.66,1.64l6.78,13.46c1.16,2.31,3.34,3.94,5.87,4.42l14.67,2.75c2.29.43,3.22,3.22,1.65,4.95l-10.69,11.73c-1.65,1.81-2.42,4.26-2.1,6.69l2.09,15.82c.25,1.89-1.25,3.38-2.95,3.38-.45,0-.91-.11-1.36-.34l-12.83-6.61c-1.19-.61-2.49-.92-3.79-.92s-2.6.31-3.79.92l-12.83,6.61c-.45.23-.91.34-1.36.34-1.7,0-3.2-1.49-2.95-3.38l2.09-15.82c.32-2.43-.45-4.87-2.09-6.68l-10.69-11.73c-1.57-1.73-.64-4.52,1.65-4.95l14.67-2.75c2.54-.48,4.71-2.11,5.87-4.42l6.78-13.46c.55-1.09,1.6-1.64,2.66-1.64M41,0c-4.39,0-8.35,2.44-10.33,6.36l-6.72,13.33-14.52,2.72c-4.12.77-7.5,3.72-8.83,7.69-1.33,3.98-.41,8.37,2.42,11.47l10.6,11.63-2.07,15.69c-.44,3.31.57,6.64,2.76,9.13,2.2,2.51,5.37,3.95,8.7,3.95,1.83,0,3.65-.45,5.29-1.29l12.69-6.54,12.69,6.54c1.64.84,3.47,1.29,5.29,1.29,3.33,0,6.5-1.44,8.7-3.95,2.19-2.5,3.2-5.83,2.76-9.13l-2.07-15.69,10.6-11.64c2.82-3.1,3.75-7.49,2.42-11.47-1.33-3.97-4.72-6.92-8.83-7.69l-14.52-2.72-6.72-13.33c-1.98-3.92-5.93-6.36-10.33-6.36h0Z"/>
</svg>