<?xml version="1.0" encoding="UTF-8"?>
<svg id="Layer_1" xmlns="http://www.w3.org/2000/svg" version="1.1" viewBox="0 0 82 82">
  <!-- Generator: Adobe Illustrator 30.1.0, SVG Export Plug-In . SVG Version: 2.1.1 Build 136)  -->
  <path d="M41,11.48c.96,0,1.92.5,2.42,1.49l6.18,12.26c1.06,2.1,3.04,3.59,5.35,4.03l13.36,2.5c2.09.39,2.94,2.93,1.5,4.5l-9.73,10.68c-1.5,1.65-2.2,3.88-1.91,6.09l1.9,14.4c.23,1.72-1.14,3.08-2.69,3.08-.41,0-.83-.1-1.24-.31l-11.69-6.02c-1.08-.56-2.27-.84-3.45-.84-1.18,0-2.37.28-3.45.84l-11.69,6.02c-.41.21-.83.31-1.24.31-1.55,0-2.91-1.36-2.69-3.08l1.9-14.41c.29-2.21-.41-4.44-1.91-6.08l-9.74-10.68c-1.43-1.57-.59-4.11,1.5-4.51l13.36-2.5c2.31-.43,4.29-1.92,5.35-4.02l6.18-12.26c.5-1,1.46-1.49,2.42-1.49M41,0C35.61,0,30.75,2.99,28.33,7.81l-5.3,10.52-11.44,2.14c-5.05.95-9.21,4.57-10.84,9.44-1.63,4.88-.5,10.27,2.97,14.08l8.51,9.34-1.66,12.6c-.54,4.06.7,8.14,3.39,11.21,2.7,3.08,6.59,4.85,10.68,4.85,2.24,0,4.49-.55,6.5-1.58l9.88-5.09,9.88,5.09c2.01,1.03,4.25,1.58,6.5,1.58,4.08,0,7.98-1.77,10.68-4.85,2.69-3.07,3.93-7.15,3.39-11.21l-1.66-12.6,8.51-9.34c3.47-3.8,4.6-9.2,2.97-14.08-1.63-4.88-5.79-8.5-10.84-9.44l-11.45-2.15-5.3-10.52C51.25,2.99,46.39,0,41,0h0Z"/>
</svg>