<?xml version="1.0" encoding="UTF-8"?>
<svg id="Layer_1" xmlns="http://www.w3.org/2000/svg" version="1.1" viewBox="0 0 68 68">
  <!-- Generator: Adobe Illustrator 30.1.0, SVG Export Plug-In . SVG Version: 2.1.1 Build 136)  -->
  <path d="M34,11.92c.72,0,1.44.37,1.81,1.12l4.62,9.17c.79,1.57,2.27,2.69,4,3.01l9.99,1.87c1.56.29,2.2,2.19,1.12,3.37l-7.28,7.99c-1.12,1.23-1.65,2.9-1.43,4.56l1.42,10.77c.17,1.29-.85,2.3-2.01,2.3-.31,0-.62-.07-.93-.23l-8.74-4.5c-.81-.42-1.7-.63-2.58-.63-.89,0-1.77.21-2.58.63l-8.74,4.5c-.3.16-.62.23-.93.23-1.16,0-2.18-1.02-2.01-2.3l1.42-10.78c.22-1.65-.3-3.32-1.43-4.55l-7.28-7.99c-1.07-1.18-.44-3.08,1.12-3.37l9.99-1.87c1.73-.32,3.21-1.44,4-3.01l4.62-9.17c.38-.74,1.09-1.12,1.81-1.12M34,0C28.7,0,23.93,2.94,21.54,7.67l-3.22,6.4-6.94,1.3c-4.97.93-9.05,4.49-10.66,9.28-1.61,4.8-.49,10.1,2.92,13.84l5.32,5.84-1.04,7.89c-.53,3.99.69,8,3.34,11.02,2.65,3.03,6.48,4.76,10.49,4.76,2.21,0,4.41-.54,6.39-1.55l5.86-3.02,5.86,3.02c1.97,1.01,4.18,1.55,6.39,1.55,4.02,0,7.84-1.74,10.49-4.76,2.65-3.02,3.86-7.03,3.34-11.02l-1.04-7.89,5.32-5.84c3.41-3.74,4.52-9.04,2.92-13.83-1.61-4.79-5.69-8.35-10.66-9.28l-6.94-1.3-3.22-6.4C44.07,2.94,39.3,0,34,0h0Z"/>
</svg>