<?xml version="1.0" encoding="UTF-8"?>
<svg id="Layer_1" xmlns="http://www.w3.org/2000/svg" version="1.1" viewBox="0 0 68 68">
  <!-- Generator: Adobe Illustrator 30.1.0, SVG Export Plug-In . SVG Version: 2.1.1 Build 136)  -->
  <path d="M34,9.52c.8,0,1.59.41,2.01,1.24l5.12,10.17c.88,1.74,2.52,2.98,4.44,3.34l11.08,2.08c1.73.32,2.44,2.43,1.25,3.73l-8.07,8.86c-1.25,1.37-1.82,3.22-1.58,5.05l1.58,11.94c.19,1.42-.95,2.55-2.23,2.55-.34,0-.69-.08-1.03-.25l-9.69-4.99c-.9-.46-1.88-.69-2.86-.69-.98,0-1.96.23-2.86.69l-9.69,4.99c-.34.17-.69.25-1.03.25-1.28,0-2.42-1.13-2.23-2.55l1.58-11.95c.24-1.83-.34-3.68-1.58-5.04l-8.07-8.86c-1.19-1.31-.49-3.41,1.25-3.74l11.08-2.08c1.92-.36,3.55-1.59,4.43-3.34l5.12-10.17c.42-.83,1.21-1.24,2.01-1.24M34,0C29.53,0,25.5,2.48,23.49,6.48l-4.4,8.73-9.49,1.78c-4.19.79-7.64,3.79-8.99,7.83-1.36,4.05-.41,8.52,2.46,11.67l7.05,7.74-1.38,10.45c-.44,3.36.58,6.75,2.81,9.3,2.24,2.56,5.47,4.02,8.85,4.02,1.86,0,3.72-.45,5.39-1.31l8.2-4.22,8.2,4.22c1.66.86,3.53,1.31,5.39,1.31,3.39,0,6.61-1.47,8.85-4.02,2.23-2.54,3.26-5.93,2.81-9.3l-1.38-10.45,7.06-7.74c2.87-3.15,3.82-7.63,2.46-11.67-1.35-4.04-4.8-7.05-8.99-7.83l-9.49-1.78-4.4-8.73C42.5,2.48,38.47,0,34,0h0Z"/>
</svg>