<?xml version="1.0" encoding="UTF-8"?>
<svg id="Layer_1" xmlns="http://www.w3.org/2000/svg" version="1.1" viewBox="0 0 100 100">
  <!-- Generator: Adobe Illustrator 30.1.0, SVG Export Plug-In . SVG Version: 2.1.1 Build 136)  -->
  <circle id="Outer" cx="50" cy="50" r="44.77" fill="none" stroke="#000" stroke-width="10.47"/>
  <g>
    <g>
      <rect x="46.84" y="65.84" width="6.26" height="6.26"/>
      <path d="M52.32,66.62v4.7h-4.7v-4.7h4.7M53.88,65.06h-7.82v7.82h7.82v-7.82h0Z"/>
    </g>
    <g>
      <path d="M46.85,59.04l-.02-2.55c0-2.42.91-4.74,2.53-6.53l4.65-5.15c1.14-1.27,1.77-2.9,1.77-4.6,0-2.34-1.92-4.25-4.29-4.25h-2.99c-2.36,0-4.29,1.91-4.29,4.25v.78h-6.3v-.78c0-5.8,4.75-10.52,10.59-10.52h2.99c5.84,0,10.59,4.72,10.59,10.52,0,3.25-1.2,6.37-3.39,8.79l-4.65,5.16c-.6.66-.92,1.47-.92,2.34l-.03,2.56h-6.24Z"/>
      <path d="M51.49,30.46c5.41,0,9.81,4.37,9.81,9.74,0,3.06-1.13,5.99-3.18,8.26l-4.65,5.15c-.72.8-1.12,1.79-1.12,2.86l-.02,1.78h-4.7l-.02-1.78c0-2.23.83-4.35,2.33-6l4.65-5.15c1.27-1.41,1.97-3.23,1.97-5.12,0-2.77-2.27-5.03-5.07-5.03h-2.99c-2.79,0-5.07,2.26-5.07,5.03h-4.74c0-5.37,4.4-9.74,9.81-9.74h2.99M51.49,28.9h-2.99c-6.27,0-11.37,5.07-11.37,11.3v1.56h7.86v-1.56c0-1.91,1.57-3.47,3.51-3.47h2.99c1.93,0,3.51,1.56,3.51,3.47,0,1.51-.56,2.95-1.57,4.08l-4.65,5.15c-1.75,1.93-2.72,4.44-2.73,7.04l.02,1.8v1.55h7.81l.02-1.55.02-1.78c0-.68.25-1.31.72-1.83l4.65-5.16c2.31-2.56,3.59-5.87,3.59-9.31,0-6.23-5.1-11.3-11.37-11.3h0Z"/>
    </g>
  </g>
</svg>