<?xml version="1.0" encoding="UTF-8"?>
<svg id="Layer_1" xmlns="http://www.w3.org/2000/svg" version="1.1" viewBox="0 0 67 67">
  <!-- Generator: Adobe Illustrator 30.1.0, SVG Export Plug-In . SVG Version: 2.1.1 Build 136)  -->
  <circle id="Outer" cx="33.5" cy="33.5" r="28.81" fill="none" stroke="#000" stroke-width="9.38"/>
  <g>
    <g>
      <rect x="31.38" y="43.22" width="4.21" height="4.21"/>
      <path d="M34.85,43.95v2.74h-2.74v-2.74h2.74M36.32,42.48h-5.68v5.68h5.68v-5.68h0Z"/>
    </g>
    <g>
      <path d="M31.39,38.83l-.02-1.76c0-1.49.56-2.91,1.55-4.01l2.72-3.01c.62-.69.96-1.58.96-2.5,0-1.22-1-2.21-2.23-2.21h-1.75c-1.23,0-2.23.99-2.23,2.21v.73h-4.23v-.73c0-3.54,2.9-6.42,6.46-6.42h1.75c3.56,0,6.46,2.88,6.46,6.42,0,1.97-.73,3.85-2.05,5.32l-2.72,3.01c-.3.34-.47.75-.47,1.18l-.02,1.77h-4.2Z"/>
      <path d="M34.37,21.87c3.16,0,5.73,2.55,5.73,5.69,0,1.78-.66,3.5-1.86,4.83l-2.72,3.01c-.42.47-.65,1.04-.66,1.67v1.04h-2.75v-1.04c0-1.3.47-2.54,1.35-3.51l2.72-3.01c.74-.82,1.15-1.89,1.15-2.99,0-1.62-1.33-2.94-2.96-2.94h-1.75c-1.63,0-2.96,1.32-2.96,2.94h-2.77c0-3.14,2.57-5.69,5.73-5.69h1.75M34.37,20.4h-1.75c-3.97,0-7.2,3.21-7.2,7.15v1.47h5.7v-1.47c0-.81.67-1.47,1.5-1.47h1.75c.82,0,1.5.66,1.5,1.47,0,.74-.28,1.46-.78,2.01l-2.72,3.01c-1.11,1.23-1.73,2.82-1.74,4.48v1.06s.02,1.45.02,1.45h5.65v-1.45s.03-1.04.03-1.04c0-.27.09-.5.28-.7l2.72-3.01c1.44-1.6,2.24-3.66,2.24-5.81,0-3.95-3.23-7.15-7.2-7.15h0Z"/>
    </g>
  </g>
</svg>