<?xml version="1.0" encoding="UTF-8"?>
<svg id="Layer_1" xmlns="http://www.w3.org/2000/svg" version="1.1" viewBox="0 0 67 67">
  <!-- Generator: Adobe Illustrator 30.1.0, SVG Export Plug-In . SVG Version: 2.1.1 Build 136)  -->
  <circle id="Outer" cx="33.5" cy="33.5" r="27.63" fill="none" stroke="#000" stroke-width="11.75"/>
  <g>
    <g>
      <rect x="31.36" y="42.31" width="4.25" height="4.25"/>
      <path d="M34.66,43.25v2.36h-2.36v-2.36h2.36M36.55,41.37h-6.13v6.13h6.13v-6.13h0Z"/>
    </g>
    <g>
      <path d="M31.37,38.17l-.02-1.83c0-1.36.51-2.66,1.41-3.66l2.34-2.59c.48-.54.75-1.23.75-1.94,0-.88-.72-1.59-1.6-1.59h-1.5c-.89,0-1.6.71-1.6,1.59v.94h-4.27v-.94c0-3.22,2.63-5.84,5.87-5.84h1.5c3.24,0,5.87,2.62,5.87,5.84,0,1.77-.66,3.47-1.84,4.78l-2.34,2.59c-.21.24-.32.51-.32.81l-.02,1.83h-4.23Z"/>
      <path d="M34.25,23.26c2.72,0,4.93,2.2,4.93,4.89,0,1.54-.57,3.01-1.6,4.15l-2.34,2.59c-.36.4-.56.9-.56,1.44v.89h-2.37v-.89c0-1.12.41-2.18,1.16-3.02l2.34-2.59c.64-.71.99-1.62.99-2.57,0-1.39-1.14-2.53-2.55-2.53h-1.5c-1.4,0-2.55,1.13-2.55,2.53h-2.38c0-2.7,2.21-4.89,4.93-4.89h1.5M34.25,21.38h-1.5c-3.76,0-6.81,3.04-6.81,6.78v1.88h6.15v-1.88c0-.36.3-.65.66-.65h1.5c.37,0,.66.29.66.65,0,.48-.18.95-.51,1.31l-2.34,2.59c-1.06,1.17-1.65,2.69-1.65,4.27v.92s.02,1.87.02,1.87h6.09l.02-1.87v-.89c0-.06.02-.12.09-.19l2.34-2.59c1.35-1.49,2.09-3.41,2.09-5.42,0-3.74-3.06-6.78-6.81-6.78h0Z"/>
    </g>
  </g>
</svg>