<?xml version="1.0" encoding="UTF-8"?>
<svg id="Layer_1" xmlns="http://www.w3.org/2000/svg" version="1.1" viewBox="0 0 57 57">
  <!-- Generator: Adobe Illustrator 30.1.0, SVG Export Plug-In . SVG Version: 2.1.1 Build 136)  -->
  <circle id="Outer" cx="28.5" cy="28.5" r="23.5" fill="none" stroke="#000" stroke-width="9.99"/>
  <g>
    <g>
      <rect x="26.68" y="36" width="3.61" height="3.61"/>
      <path d="M29.49,36.8v2.01h-2.01v-2.01h2.01M31.09,35.19h-5.21v5.21h5.21v-5.21h0Z"/>
    </g>
    <g>
      <path d="M26.69,32.48v-1.55c0-1.16.42-2.26,1.19-3.11l1.99-2.2c.41-.46.64-1.04.64-1.65,0-.74-.61-1.35-1.37-1.35h-1.28c-.75,0-1.37.61-1.37,1.35v.8h-3.63v-.8c0-2.74,2.24-4.97,4.99-4.97h1.28c2.75,0,5,2.23,5,4.97,0,1.5-.56,2.95-1.57,4.07l-1.99,2.2c-.18.2-.27.43-.27.69l-.02,1.56h-3.6Z"/>
      <path d="M29.14,19.79c2.31,0,4.19,1.87,4.19,4.16,0,1.31-.48,2.56-1.36,3.53l-1.99,2.2c-.31.34-.48.76-.48,1.22v.76h-2.02v-.76c0-.95.35-1.86.99-2.57l1.99-2.2c.54-.6.84-1.38.84-2.19,0-1.19-.97-2.15-2.17-2.15h-1.28c-1.19,0-2.17.97-2.17,2.15h-2.03c0-2.3,1.88-4.16,4.19-4.16h1.28M29.14,18.19h-1.28c-3.2,0-5.8,2.59-5.8,5.77v1.6h5.23v-1.6c0-.3.25-.55.56-.55h1.28c.31,0,.56.25.56.55,0,.41-.15.81-.43,1.12l-1.99,2.2c-.9,1-1.4,2.29-1.41,3.63v.78s.02,1.59.02,1.59h5.18l.02-1.59v-.76c0-.05.02-.1.07-.16l1.99-2.2c1.14-1.27,1.77-2.9,1.77-4.61,0-3.18-2.6-5.77-5.8-5.77h0Z"/>
    </g>
  </g>
</svg>