<?xml version="1.0" encoding="UTF-8"?>
<svg id="Layer_1" xmlns="http://www.w3.org/2000/svg" version="1.1" viewBox="0 0 57 57">
  <!-- Generator: Adobe Illustrator 30.1.0, SVG Export Plug-In . SVG Version: 2.1.1 Build 136)  -->
  <circle id="Outer" cx="28.5" cy="28.5" r="24.51" fill="none" stroke="#000" stroke-width="7.98"/>
  <g>
    <g>
      <rect x="26.69" y="36.77" width="3.58" height="3.58"/>
      <path d="M29.65,37.39v2.33h-2.33v-2.33h2.33M30.9,36.14h-4.83v4.83h4.83v-4.83h0Z"/>
    </g>
    <g>
      <path d="M26.7,33.04v-1.5c0-1.27.46-2.47,1.3-3.41l2.31-2.56c.53-.59.82-1.34.82-2.13,0-1.04-.85-1.88-1.9-1.88h-1.48c-1.05,0-1.9.84-1.9,1.88v.62h-3.6v-.62c0-3.01,2.47-5.46,5.5-5.46h1.48c3.03,0,5.5,2.45,5.5,5.46,0,1.67-.62,3.28-1.74,4.52l-2.31,2.56c-.26.29-.4.63-.4,1.01v1.5h-3.58Z"/>
      <path d="M29.24,18.6c2.69,0,4.87,2.17,4.87,4.84,0,1.52-.56,2.98-1.58,4.11l-2.31,2.56c-.36.4-.56.89-.56,1.42v.88h-2.34v-.88c0-1.11.4-2.16,1.15-2.98l2.31-2.56c.63-.7.98-1.61.98-2.55,0-1.38-1.13-2.5-2.52-2.5h-1.49c-1.39,0-2.52,1.12-2.52,2.5h-2.35c0-2.67,2.19-4.84,4.87-4.84h1.49M29.24,17.35h-1.49c-3.38,0-6.12,2.73-6.12,6.09v1.25h4.85v-1.25c0-.69.57-1.25,1.27-1.25h1.49c.7,0,1.27.56,1.27,1.25,0,.63-.23,1.24-.66,1.71l-2.31,2.56c-.95,1.05-1.47,2.4-1.48,3.81v.9s.02,1.24.02,1.24h4.8v-1.23s.02-.88.02-.88c0-.23.08-.43.24-.6l2.31-2.56c1.23-1.36,1.9-3.12,1.9-4.94,0-3.36-2.75-6.09-6.12-6.09h0Z"/>
    </g>
  </g>
</svg>