<?xml version="1.0" encoding="UTF-8"?>
<svg id="Layer_1" xmlns="http://www.w3.org/2000/svg" version="1.1" viewBox="0 0 57 57">
  <!-- Generator: Adobe Illustrator 30.1.0, SVG Export Plug-In . SVG Version: 2.1.1 Build 136)  -->
  <circle id="Outer" cx="28.5" cy="28.5" r="25.52" fill="none" stroke="#000" stroke-width="5.97"/>
  <g>
    <g>
      <rect x="26.7" y="37.53" width="3.57" height="3.57"/>
      <path d="M29.82,37.98v2.68h-2.68v-2.68h2.68M30.71,37.08h-4.46v4.46h4.46v-4.46h0Z"/>
    </g>
    <g>
      <path d="M26.71,33.65v-1.45c0-1.38.5-2.7,1.43-3.72l2.65-2.94c.65-.72,1.01-1.65,1.01-2.62,0-1.34-1.1-2.42-2.44-2.42h-1.7c-1.35,0-2.44,1.09-2.44,2.42v.45h-3.59v-.45c0-3.31,2.71-6,6.04-6h1.7c3.33,0,6.04,2.69,6.04,6,0,1.85-.69,3.63-1.93,5.01l-2.65,2.94c-.34.38-.52.84-.53,1.33v1.46h-3.57Z"/>
      <path d="M29.35,17.36c3.08,0,5.59,2.49,5.59,5.55,0,1.74-.64,3.41-1.82,4.71l-2.65,2.94c-.41.45-.64,1.02-.64,1.63v1.01h-2.69v-1.01c0-1.27.46-2.48,1.32-3.42l2.65-2.94c.73-.8,1.13-1.84,1.13-2.92,0-1.58-1.3-2.87-2.89-2.87h-1.7c-1.59,0-2.89,1.29-2.89,2.87h-2.7c0-3.06,2.51-5.55,5.59-5.55h1.7M29.35,16.47h-1.7c-3.57,0-6.48,2.89-6.48,6.44v.89h4.48v-.89c0-1.09.9-1.98,2-1.98h1.7c1.1,0,2,.89,2,1.98,0,.86-.32,1.68-.9,2.32l-2.65,2.94c-1,1.1-1.55,2.53-1.56,4.02v1.02s.02.88.02.88h4.44v-.88s.02-1.01.02-1.01c0-.39.14-.75.41-1.04l2.65-2.94c1.32-1.46,2.04-3.34,2.04-5.31,0-3.55-2.91-6.44-6.48-6.44h0Z"/>
    </g>
  </g>
</svg>