<?xml version="1.0" encoding="UTF-8"?>
<svg id="Layer_1" xmlns="http://www.w3.org/2000/svg" version="1.1" viewBox="0 0 71 71">
  <!-- Generator: Adobe Illustrator 30.1.0, SVG Export Plug-In . SVG Version: 2.1.1 Build 136)  -->
  <g>
    <g>
      <rect x="32.98" y="18.88" width="5.04" height="5.03"/>
      <path d="M37.46,19.44v3.93h-3.93v-3.93h3.93M38.57,18.33h-6.14v6.14h6.14v-6.14h0Z"/>
    </g>
    <g>
      <polygon points="29.06 51.9 29.06 46.87 32.98 46.87 32.98 35.72 29.06 35.72 29.06 30.69 38.02 30.69 38.02 46.87 41.94 46.87 41.94 51.9 29.06 51.9"/>
      <path d="M37.46,31.24v16.18h3.93v3.93h-11.78v-3.93h3.93v-12.25h-3.93v-3.93h7.85M38.57,30.14h-10.07v6.14h3.93v10.04h-3.93v6.14h13.99v-6.14h-3.93v-16.18h0Z"/>
    </g>
  </g>
  <circle id="Outer" cx="35.5" cy="35.5" r="31.78" fill="none" stroke="#000" stroke-width="7.43"/>
</svg>