<?xml version="1.0" encoding="UTF-8"?>
<svg id="Layer_1" xmlns="http://www.w3.org/2000/svg" version="1.1" viewBox="0 0 106 106">
  <!-- Generator: Adobe Illustrator 30.1.0, SVG Export Plug-In . SVG Version: 2.1.1 Build 136)  -->
  <g>
    <g>
      <rect x="49.24" y="28.19" width="7.52" height="7.52"/>
      <path d="M55.93,29.02v5.86h-5.86v-5.86h5.86M57.59,27.36h-9.17v9.17h9.17v-9.17h0Z"/>
    </g>
    <g>
      <polygon points="43.38 77.49 43.38 69.97 49.24 69.97 49.24 53.34 43.38 53.34 43.38 45.82 56.76 45.82 56.76 69.97 62.62 69.97 62.62 77.49 43.38 77.49"/>
      <path d="M55.93,46.65v24.16h5.86v5.86h-17.58v-5.86h5.86v-18.3h-5.86v-5.86h11.72M57.59,44.99h-15.03v9.17h5.86v14.98h-5.86v9.17h20.89v-9.17h-5.86v-24.16h0Z"/>
    </g>
  </g>
  <circle id="Outer" cx="53" cy="53" r="47.45" fill="none" stroke="#000" stroke-width="11.1"/>
</svg>