<?xml version="1.0" encoding="UTF-8"?>
<svg id="Layer_1" xmlns="http://www.w3.org/2000/svg" version="1.1" viewBox="0 0 106 106">
  <!-- Generator: Adobe Illustrator 30.1.0, SVG Export Plug-In . SVG Version: 2.1.1 Build 136)  -->
  <g>
    <g>
      <rect x="49.12" y="30.88" width="7.76" height="7.76"/>
      <path d="M55.39,32.37v4.78h-4.78v-4.78h4.78M58.37,29.39h-10.74v10.74h10.74v-10.74h0Z"/>
    </g>
    <g>
      <polygon points="44.35 74.22 44.35 66.46 49.12 66.46 49.12 54.53 44.35 54.53 44.35 46.78 56.88 46.78 56.88 66.46 61.65 66.46 61.65 74.22 44.35 74.22"/>
      <path d="M55.39,48.27v19.69h4.78v4.78h-14.33v-4.78h4.78v-14.91h-4.78v-4.78h9.55M58.37,45.29h-15.51v10.74h4.78v8.95h-4.78v10.74h20.29v-10.74h-4.78v-19.69h0Z"/>
    </g>
  </g>
  <circle id="Outer" cx="53" cy="53" r="43.71" fill="none" stroke="#000" stroke-width="18.58"/>
</svg>