<?xml version="1.0" encoding="UTF-8"?>
<svg id="Layer_1" xmlns="http://www.w3.org/2000/svg" version="1.1" viewBox="0 0 105 105">
  <!-- Generator: Adobe Illustrator 30.1.0, SVG Export Plug-In . SVG Version: 2.1.1 Build 136)  -->
  <g>
    <g>
      <rect x="48.78" y="27.92" width="7.45" height="7.45"/>
      <path d="M55.4,28.75v5.81h-5.81v-5.81h5.81M57.04,27.1h-9.09v9.09h9.09v-9.09h0Z"/>
    </g>
    <g>
      <polygon points="42.97 76.76 42.97 69.31 48.78 69.31 48.78 52.83 42.97 52.83 42.97 45.39 56.22 45.39 56.22 69.31 62.03 69.31 62.03 76.76 42.97 76.76"/>
      <path d="M55.4,46.21v23.93h5.8v5.8h-17.42v-5.8h5.8v-18.12h-5.8v-5.8h11.61M57.04,44.57h-14.89v9.09h5.8v14.84h-5.8v9.09h20.7v-9.09h-5.8v-23.93h0Z"/>
    </g>
  </g>
  <circle id="Outer" cx="52.5" cy="52.5" r="47" fill="none" stroke="#000" stroke-width="10.99"/>
</svg>