<?xml version="1.0" encoding="UTF-8"?>
<svg id="Layer_1" xmlns="http://www.w3.org/2000/svg" version="1.1" viewBox="0 0 105 105">
  <!-- Generator: Adobe Illustrator 30.1.0, SVG Export Plug-In . SVG Version: 2.1.1 Build 136)  -->
  <g>
    <g>
      <rect x="48.66" y="30.59" width="7.68" height="7.68"/>
      <path d="M54.87,32.07v4.73h-4.73v-4.73h4.73M57.82,29.11h-10.64v10.64h10.64v-10.64h0Z"/>
    </g>
    <g>
      <polygon points="43.93 73.52 43.93 65.84 48.66 65.84 48.66 54.02 43.93 54.02 43.93 46.34 56.34 46.34 56.34 65.84 61.07 65.84 61.07 73.52 43.93 73.52"/>
      <path d="M54.87,47.81v19.5h4.73v4.73h-14.19v-4.73h4.73v-14.77h-4.73v-4.73h9.46M57.82,44.86h-15.37v10.64h4.73v8.86h-4.73v10.64h20.1v-10.64h-4.73v-19.5h0Z"/>
    </g>
  </g>
  <circle id="Outer" cx="52.5" cy="52.5" r="43.3" fill="none" stroke="#000" stroke-width="18.41"/>
</svg>