<?xml version="1.0" encoding="UTF-8"?>
<svg id="Layer_1" xmlns="http://www.w3.org/2000/svg" version="1.1" viewBox="0 0 81 81">
  <!-- Generator: Adobe Illustrator 30.1.0, SVG Export Plug-In . SVG Version: 2.1.1 Build 136)  -->
  <circle id="Outer" cx="40.5" cy="40.5" r="34.83" fill="none" stroke="#000" stroke-width="11.34"/>
  <g>
    <g>
      <rect x="37.93" y="52.25" width="5.09" height="5.09"/>
      <path d="M42.14,53.13v3.32h-3.32v-3.32h3.32M43.91,51.36h-6.86v6.86h6.86v-6.86h0Z"/>
    </g>
    <g>
      <path d="M37.94,46.95l-.02-2.13c0-1.8.67-3.51,1.87-4.84l3.28-3.64c.75-.83,1.17-1.91,1.17-3.02,0-1.47-1.21-2.67-2.7-2.67h-2.11c-1.49,0-2.69,1.2-2.69,2.67v.89h-5.12v-.89c0-4.28,3.5-7.76,7.81-7.76h2.11c4.31,0,7.81,3.48,7.81,7.76,0,2.38-.88,4.66-2.48,6.43l-3.29,3.64c-.37.41-.56.9-.56,1.43l-.02,2.14h-5.07Z"/>
      <path d="M41.56,26.43c3.82,0,6.93,3.09,6.93,6.88,0,2.16-.8,4.23-2.25,5.84l-3.29,3.64c-.51.56-.79,1.26-.79,2.02v1.25h-3.33v-1.25c0-1.57.57-3.07,1.63-4.24l3.29-3.64c.9-1,1.39-2.28,1.39-3.62,0-1.96-1.61-3.56-3.58-3.56h-2.11c-1.97,0-3.58,1.59-3.58,3.56h-3.35c0-3.79,3.11-6.88,6.93-6.88h2.11M41.56,24.66h-2.11c-4.8,0-8.7,3.88-8.7,8.65v1.77h6.89v-1.77c0-.98.81-1.78,1.81-1.78h2.11c1,0,1.81.8,1.81,1.78,0,.9-.33,1.76-.94,2.43l-3.29,3.64c-1.35,1.49-2.09,3.41-2.1,5.42v1.28s.03,1.76.03,1.76h6.83l.02-1.75v-1.25c.01-.32.13-.6.35-.85l3.29-3.64c1.74-1.93,2.71-4.43,2.71-7.02,0-4.77-3.9-8.65-8.7-8.65h0Z"/>
    </g>
  </g>
</svg>