<?xml version="1.0" encoding="UTF-8"?>
<svg id="Layer_1" xmlns="http://www.w3.org/2000/svg" version="1.1" viewBox="0 0 81 81">
  <!-- Generator: Adobe Illustrator 30.1.0, SVG Export Plug-In . SVG Version: 2.1.1 Build 136)  -->
  <circle id="Outer" cx="40.5" cy="40.5" r="36.26" fill="none" stroke="#000" stroke-width="8.48"/>
  <g>
    <g>
      <rect x="37.94" y="53.33" width="5.07" height="5.07"/>
      <path d="M42.38,53.96v3.8h-3.8v-3.8h3.8M43.64,52.7h-6.34v6.34h6.34v-6.34h0Z"/>
    </g>
    <g>
      <path d="M37.95,47.82l-.02-2.07c0-1.96.73-3.84,2.05-5.29l3.77-4.17c.93-1.03,1.44-2.35,1.44-3.73,0-1.9-1.56-3.44-3.47-3.44h-2.42c-1.92,0-3.47,1.54-3.47,3.44v.63h-5.1v-.63c0-4.7,3.85-8.52,8.58-8.52h2.42c4.73,0,8.58,3.82,8.58,8.52,0,2.63-.97,5.16-2.74,7.12l-3.77,4.18c-.49.54-.75,1.19-.75,1.9l-.02,2.07h-5.06Z"/>
      <path d="M41.71,24.67c4.38,0,7.94,3.54,7.94,7.89,0,2.47-.92,4.85-2.58,6.69l-3.77,4.18c-.58.65-.91,1.45-.91,2.32v1.44h-3.82v-1.44c0-1.8.66-3.52,1.87-4.86l3.77-4.17c1.03-1.14,1.6-2.62,1.6-4.15,0-2.25-1.84-4.08-4.11-4.08h-2.42c-2.26,0-4.11,1.83-4.11,4.08h-3.84c0-4.35,3.56-7.89,7.94-7.89h2.42M41.71,23.41h-2.42c-5.08,0-9.21,4.11-9.21,9.15v1.27h6.37v-1.27c0-1.55,1.27-2.81,2.84-2.81h2.42c1.57,0,2.84,1.26,2.84,2.81,0,1.22-.45,2.39-1.27,3.3l-3.77,4.17c-1.42,1.57-2.2,3.59-2.21,5.71v1.45s.02,1.25.02,1.25h6.31v-1.25s.03-1.44.03-1.44c0-.55.2-1.06.58-1.48l3.77-4.18c1.87-2.08,2.91-4.75,2.91-7.54,0-5.05-4.13-9.15-9.21-9.15h0Z"/>
    </g>
  </g>
</svg>