<?xml version="1.0" encoding="UTF-8"?>
<svg id="Layer_1" xmlns="http://www.w3.org/2000/svg" version="1.1" viewBox="0 0 81 81">
  <!-- Generator: Adobe Illustrator 30.1.0, SVG Export Plug-In . SVG Version: 2.1.1 Build 136)  -->
  <circle id="Outer" cx="40.5" cy="40.5" r="33.4" fill="none" stroke="#000" stroke-width="14.2"/>
  <g>
    <g>
      <rect x="37.91" y="51.15" width="5.13" height="5.13"/>
      <path d="M41.91,52.29v2.85h-2.85v-2.85h2.85M44.18,50.01h-7.41v7.41h7.41v-7.41h0Z"/>
    </g>
    <g>
      <path d="M37.93,46.15l-.02-2.21c0-1.64.61-3.21,1.71-4.42l2.83-3.13c.58-.65.91-1.48.91-2.35,0-1.06-.87-1.92-1.94-1.92h-1.81c-1.07,0-1.94.86-1.94,1.92v1.14h-5.16v-1.14c0-3.89,3.18-7.06,7.1-7.06h1.81c3.91,0,7.1,3.17,7.1,7.06,0,2.14-.79,4.19-2.23,5.78l-2.83,3.13c-.26.28-.39.61-.39.98l-.02,2.21h-5.11Z"/>
      <path d="M41.41,28.13c3.29,0,5.96,2.65,5.96,5.92,0,1.86-.69,3.64-1.93,5.02l-2.83,3.13c-.44.48-.68,1.09-.68,1.74v1.08h-2.86v-1.08c0-1.35.49-2.64,1.4-3.65l2.83-3.13c.77-.86,1.2-1.96,1.2-3.11,0-1.69-1.38-3.06-3.08-3.06h-1.82c-1.7,0-3.08,1.37-3.08,3.06h-2.88c0-3.26,2.67-5.92,5.96-5.92h1.82M41.41,25.85h-1.82c-4.54,0-8.24,3.68-8.24,8.19v2.28h7.43v-2.28c0-.43.36-.78.8-.78h1.82c.44,0,.8.35.8.78,0,.59-.22,1.15-.61,1.59l-2.83,3.13c-1.28,1.42-1.99,3.25-2,5.17v1.11s.03,2.26.03,2.26h7.37l.02-2.26v-1.08c.01-.07.02-.14.11-.23l2.83-3.13c1.63-1.8,2.52-4.13,2.52-6.55,0-4.52-3.69-8.19-8.24-8.19h0Z"/>
    </g>
  </g>
</svg>