<?xml version="1.0" encoding="UTF-8"?>
<svg id="Layer_1" xmlns="http://www.w3.org/2000/svg" version="1.1" viewBox="0 0 45 45">
  <!-- Generator: Adobe Illustrator 30.1.0, SVG Export Plug-In . SVG Version: 2.1.1 Build 136)  -->
  <g>
    <g>
      <rect x="20.88" y="12.54" width="3.24" height="3.24"/>
      <path d="M23.63,13.03v2.26h-2.26v-2.26h2.26M24.61,12.05h-4.22v4.22h4.22v-4.22h0Z"/>
    </g>
    <g>
      <polygon points="18.62 32.2 18.62 28.96 20.88 28.96 20.88 22.9 18.62 22.9 18.62 19.66 24.12 19.66 24.12 28.96 26.38 28.96 26.38 32.2 18.62 32.2"/>
      <path d="M23.63,20.15v9.3h2.26v2.26h-6.77v-2.26h2.26v-7.04h-2.26v-2.26h4.51M24.61,19.17h-6.48v4.22h2.26v5.07h-2.26v4.22h8.74v-4.22h-2.26v-9.3h0Z"/>
    </g>
  </g>
  <circle id="Outer" cx="22.5" cy="22.5" r="19.35" fill="none" stroke="#000" stroke-width="6.3"/>
</svg>