<?xml version="1.0" encoding="UTF-8"?>
<svg id="Layer_1" xmlns="http://www.w3.org/2000/svg" version="1.1" viewBox="0 0 10 10">
  <!-- Generator: Adobe Illustrator 30.1.0, SVG Export Plug-In . SVG Version: 2.1.1 Build 136)  -->
  <path d="M5,1.75c.11,0,.21.05.27.16l.68,1.35c.12.23.33.4.59.44l1.47.28c.23.04.32.32.17.5l-1.07,1.17c-.17.18-.24.43-.21.67l.21,1.58c.02.19-.13.34-.3.34-.05,0-.09-.01-.14-.03l-1.29-.66c-.12-.06-.25-.09-.38-.09s-.26.03-.38.09l-1.29.66s-.09.03-.14.03c-.17,0-.32-.15-.3-.34l.21-1.58c.03-.24-.04-.49-.21-.67l-1.07-1.17c-.16-.17-.06-.45.17-.5l1.47-.28c.25-.05.47-.21.59-.44l.68-1.35c.06-.11.16-.16.27-.16M5,0C4.22,0,3.52.43,3.17,1.13l-.47.94-1.02.19c-.73.14-1.33.66-1.57,1.36-.24.71-.07,1.48.43,2.03l.78.86-.15,1.16c-.08.59.1,1.18.49,1.62.39.45.95.7,1.54.7.32,0,.65-.08.94-.23l.86-.44.86.44c.29.15.61.23.94.23.59,0,1.15-.26,1.54-.7.39-.44.57-1.03.49-1.62l-.15-1.16.78-.86c.5-.55.67-1.33.43-2.03-.24-.7-.84-1.23-1.57-1.36l-1.02-.19-.47-.94C6.48.43,5.78,0,5,0h0Z"/>
</svg>