<?xml version="1.0" encoding="UTF-8"?>
<svg id="Layer_1" xmlns="http://www.w3.org/2000/svg" version="1.1" viewBox="0 0 101 101">
  <!-- Generator: Adobe Illustrator 30.1.0, SVG Export Plug-In . SVG Version: 2.1.1 Build 136)  -->
  <path d="M50.5,17.71c1.07,0,2.13.55,2.69,1.66l6.86,13.62c1.18,2.34,3.37,3.99,5.94,4.47l14.84,2.78c2.32.43,3.26,3.26,1.67,5l-10.81,11.87c-1.67,1.83-2.44,4.31-2.12,6.77l2.11,16c.25,1.91-1.27,3.42-2.99,3.42-.46,0-.92-.11-1.38-.34l-12.98-6.69c-1.2-.62-2.52-.93-3.83-.93s-2.63.31-3.83.93l-12.98,6.69c-.45.23-.92.34-1.38.34-1.72,0-3.24-1.51-2.99-3.42l2.11-16.01c.32-2.46-.45-4.93-2.12-6.76l-10.81-11.87c-1.59-1.75-.65-4.57,1.67-5.01l14.84-2.78c2.57-.48,4.76-2.13,5.94-4.47l6.86-13.62c.56-1.11,1.62-1.66,2.69-1.66M50.5,0C42.63,0,35.54,4.37,32,11.4l-4.79,9.5-10.3,1.93c-7.38,1.38-13.44,6.67-15.83,13.79-2.39,7.12-.73,15,4.33,20.55l7.9,8.67-1.55,11.72c-.78,5.92,1.02,11.89,4.95,16.37,3.94,4.5,9.62,7.07,15.59,7.07,3.28,0,6.56-.8,9.48-2.3l8.71-4.49,8.71,4.49c2.93,1.51,6.21,2.3,9.48,2.3,5.96,0,11.64-2.58,15.59-7.07,3.93-4.48,5.73-10.45,4.95-16.37l-1.55-11.72,7.9-8.67c5.06-5.55,6.72-13.42,4.33-20.55-2.39-7.12-8.45-12.4-15.83-13.79l-10.31-1.93-4.79-9.5C65.46,4.37,58.37,0,50.5,0h0Z"/>
</svg>