<?xml version="1.0" encoding="UTF-8"?>
<svg id="Layer_1" xmlns="http://www.w3.org/2000/svg" version="1.1" viewBox="0 0 37 37">
  <!-- Generator: Adobe Illustrator 30.1.0, SVG Export Plug-In . SVG Version: 2.1.1 Build 136)  -->
  <g>
    <g>
      <rect x="17.19" y="9.84" width="2.62" height="2.62"/>
      <path d="M19.52,10.13v2.05h-2.05v-2.05h2.05M20.1,9.55h-3.2v3.2h3.2v-3.2h0Z"/>
    </g>
    <g>
      <polygon points="15.14 27.05 15.14 24.42 17.19 24.42 17.19 18.62 15.14 18.62 15.14 15.99 19.81 15.99 19.81 24.42 21.86 24.42 21.86 27.05 15.14 27.05"/>
      <path d="M19.52,16.28v8.43h2.05v2.05h-6.14v-2.05h2.05v-6.39h-2.05v-2.05h4.09M20.1,15.7h-5.25v3.2h2.05v5.23h-2.05v3.2h7.29v-3.2h-2.05v-8.43h0Z"/>
    </g>
  </g>
  <circle id="Outer" cx="18.5" cy="18.5" r="16.56" fill="none" stroke="#000" stroke-width="3.87"/>
</svg>