<?xml version="1.0" encoding="UTF-8"?>
<svg id="Layer_1" xmlns="http://www.w3.org/2000/svg" version="1.1" viewBox="0 0 122 122">
  <!-- Generator: Adobe Illustrator 30.1.0, SVG Export Plug-In . SVG Version: 2.1.1 Build 136)  -->
  <g>
    <g>
      <rect x="56.61" y="34" width="8.78" height="8.78"/>
      <path d="M64.06,35.33v6.12h-6.12v-6.12h6.12M66.73,32.66h-11.45v11.45h11.45v-11.45h0Z"/>
    </g>
    <g>
      <polygon points="50.49 87.29 50.49 78.51 56.61 78.51 56.61 62.08 50.49 62.08 50.49 53.3 65.39 53.3 65.39 78.51 71.51 78.51 71.51 87.29 50.49 87.29"/>
      <path d="M64.06,54.64v25.21h6.12v6.12h-18.35v-6.12h6.12v-19.09h-6.12v-6.12h12.23M66.73,51.97h-17.57v11.45h6.12v13.75h-6.12v11.45h23.68v-11.45h-6.12v-25.21h0Z"/>
    </g>
  </g>
  <circle id="Outer" cx="61" cy="61" r="52.46" fill="none" stroke="#000" stroke-width="17.08"/>
</svg>