<?xml version="1.0" encoding="UTF-8"?>
<svg id="Layer_1" xmlns="http://www.w3.org/2000/svg" version="1.1" viewBox="0 0 58 58">
  <!-- Generator: Adobe Illustrator 30.1.0, SVG Export Plug-In . SVG Version: 2.1.1 Build 136)  -->
  <g>
    <g>
      <rect x="26.91" y="16.16" width="4.18" height="4.18"/>
      <path d="M30.45,16.8v2.91h-2.91v-2.91h2.91M31.72,15.53h-5.44v5.44h5.44v-5.44h0Z"/>
    </g>
    <g>
      <polygon points="24 41.5 24 37.32 26.91 37.32 26.91 29.52 24 29.52 24 25.34 31.09 25.34 31.09 37.32 34 37.32 34 41.5 24 41.5"/>
      <path d="M30.45,25.97v11.98h2.91v2.91h-8.72v-2.91h2.91v-9.08h-2.91v-2.91h5.81M31.72,24.71h-8.35v5.44h2.91v6.54h-2.91v5.44h11.26v-5.44h-2.91v-11.98h0Z"/>
    </g>
  </g>
  <circle id="Outer" cx="29" cy="29" r="24.94" fill="none" stroke="#000" stroke-width="8.12"/>
</svg>