<?xml version="1.0" encoding="UTF-8"?>
<svg id="Layer_1" xmlns="http://www.w3.org/2000/svg" version="1.1" viewBox="0 0 64 64">
  <!-- Generator: Adobe Illustrator 30.1.0, SVG Export Plug-In . SVG Version: 2.1.1 Build 136)  -->
  <path d="M32,11.22c.68,0,1.35.35,1.7,1.05l4.35,8.63c.75,1.48,2.14,2.53,3.76,2.83l9.41,1.76c1.47.28,2.07,2.06,1.06,3.17l-6.85,7.52c-1.06,1.16-1.55,2.73-1.34,4.29l1.34,10.14c.16,1.21-.8,2.17-1.89,2.17-.29,0-.59-.07-.87-.22l-8.23-4.24c-.76-.39-1.6-.59-2.43-.59s-1.67.2-2.43.59l-8.23,4.24c-.29.15-.58.22-.87.22-1.09,0-2.05-.96-1.89-2.17l1.34-10.14c.21-1.56-.29-3.12-1.34-4.28l-6.85-7.52c-1.01-1.11-.41-2.9,1.06-3.17l9.4-1.76c1.63-.3,3.02-1.35,3.76-2.83l4.35-8.63c.35-.7,1.03-1.05,1.7-1.05M32,0C27.01,0,22.52,2.77,20.27,7.22l-3.03,6.02-6.53,1.22c-4.68.88-8.52,4.22-10.03,8.74-1.51,4.51-.46,9.5,2.75,13.02l5.01,5.49-.98,7.43c-.49,3.75.65,7.53,3.14,10.37,2.5,2.85,6.1,4.48,9.88,4.48,2.08,0,4.15-.5,6.01-1.46l5.52-2.84,5.52,2.84c1.85.96,3.93,1.46,6.01,1.46,3.78,0,7.38-1.63,9.88-4.48,2.49-2.84,3.63-6.62,3.14-10.37l-.98-7.43,5.01-5.5c3.21-3.52,4.26-8.51,2.75-13.02-1.51-4.51-5.35-7.86-10.03-8.74l-6.53-1.22-3.03-6.02C41.48,2.77,36.99,0,32,0h0Z"/>
</svg>