<?xml version="1.0" encoding="UTF-8"?>
<svg id="Layer_1" xmlns="http://www.w3.org/2000/svg" version="1.1" viewBox="0 0 125 125">
  <!-- Generator: Adobe Illustrator 30.1.0, SVG Export Plug-In . SVG Version: 2.1.1 Build 136)  -->
  <path d="M62.5,21.91c1.32,0,2.64.68,3.33,2.05l8.49,16.85c1.46,2.89,4.18,4.94,7.35,5.53l18.37,3.44c2.87.54,4.04,4.03,2.07,6.19l-13.38,14.69c-2.06,2.27-3.03,5.33-2.62,8.37l2.61,19.8c.31,2.36-1.57,4.23-3.7,4.23-.56,0-1.14-.13-1.7-.42l-16.07-8.27c-1.49-.77-3.12-1.15-4.75-1.15-1.63,0-3.26.38-4.75,1.15l-16.07,8.27c-.56.29-1.14.42-1.7.42-2.12,0-4.01-1.87-3.7-4.23l2.61-19.81c.4-3.04-.56-6.1-2.62-8.36l-13.38-14.69c-1.97-2.16-.81-5.66,2.07-6.2l18.37-3.44c3.18-.6,5.89-2.64,7.35-5.53l8.49-16.86c.69-1.37,2.01-2.05,3.33-2.05M62.5,0C52.76,0,43.98,5.41,39.6,14.11l-5.93,11.76-12.75,2.39c-9.13,1.71-16.64,8.25-19.59,17.06-2.95,8.82-.9,18.56,5.36,25.43l9.78,10.73-1.91,14.5c-.97,7.33,1.27,14.71,6.13,20.26,4.88,5.56,11.91,8.76,19.29,8.76,4.06,0,8.11-.99,11.74-2.85l10.78-5.55,10.78,5.55c3.62,1.87,7.68,2.85,11.74,2.85,7.38,0,14.41-3.19,19.29-8.76,4.86-5.55,7.1-12.93,6.13-20.26l-1.91-14.5,9.78-10.73c6.26-6.87,8.32-16.61,5.36-25.43-2.95-8.81-10.46-15.35-19.59-17.06l-12.75-2.39-5.93-11.76C81.01,5.41,72.24,0,62.5,0h0Z"/>
</svg>