<?xml version="1.0" encoding="UTF-8"?>
<svg id="Layer_1" xmlns="http://www.w3.org/2000/svg" version="1.1" viewBox="0 0 125 125">
  <!-- Generator: Adobe Illustrator 30.1.0, SVG Export Plug-In . SVG Version: 2.1.1 Build 136)  -->
  <path d="M62.5,17.5c1.46,0,2.93.76,3.69,2.28l9.41,18.69c1.62,3.21,4.63,5.48,8.15,6.14l20.37,3.82c3.18.6,4.48,4.47,2.29,6.86l-14.84,16.28c-2.29,2.51-3.35,5.91-2.91,9.28l2.9,21.96c.35,2.62-1.74,4.69-4.1,4.69-.62,0-1.27-.15-1.89-.47l-17.81-9.17c-1.65-.85-3.46-1.28-5.26-1.28s-3.61.43-5.26,1.28l-17.81,9.17c-.62.32-1.27.47-1.89.47-2.36,0-4.44-2.07-4.1-4.69l2.9-21.96c.44-3.37-.62-6.76-2.91-9.27l-14.84-16.28c-2.19-2.4-.89-6.27,2.29-6.87l20.37-3.82c3.52-.66,6.53-2.93,8.15-6.13l9.42-18.69c.76-1.52,2.23-2.28,3.69-2.28M62.5,0C54.28,0,46.88,4.56,43.18,11.9l-8.08,16.04-17.44,3.27c-7.7,1.44-14.04,6.96-16.53,14.4-2.49,7.44-.76,15.66,4.53,21.46l12.97,14.23-2.53,19.21c-.82,6.18,1.07,12.41,5.17,17.09,4.12,4.7,10.05,7.39,16.28,7.39,3.42,0,6.84-.83,9.9-2.41l15.06-7.76,15.06,7.76c3.06,1.58,6.48,2.41,9.9,2.41,6.23,0,12.16-2.69,16.28-7.39,4.1-4.68,5.99-10.91,5.17-17.09l-2.53-19.21,12.97-14.23c5.28-5.8,7.02-14.02,4.53-21.46-2.49-7.43-8.82-12.95-16.53-14.39l-17.45-3.27-8.08-16.04C78.12,4.56,70.72,0,62.5,0h0Z"/>
</svg>