<?xml version="1.0" encoding="UTF-8"?>
<svg id="Layer_1" xmlns="http://www.w3.org/2000/svg" version="1.1" viewBox="0 0 34 34">
  <!-- Generator: Adobe Illustrator 30.1.0, SVG Export Plug-In . SVG Version: 2.1.1 Build 136)  -->
  <circle id="Outer" cx="17" cy="17" r="14.62" fill="none" stroke="#000" stroke-width="4.76"/>
  <g>
    <g>
      <rect x="15.92" y="21.93" width="2.14" height="2.14"/>
      <path d="M17.69,22.3v1.39h-1.39v-1.39h1.39M18.43,21.56h-2.88v2.88h2.88v-2.88h0Z"/>
    </g>
    <g>
      <path d="M15.93,19.71v-.9c0-.76.27-1.48.78-2.03l1.38-1.53c.32-.35.49-.8.49-1.27,0-.62-.51-1.12-1.13-1.12h-.89c-.62,0-1.13.5-1.13,1.12v.37h-2.15v-.37c0-1.8,1.47-3.26,3.28-3.26h.89c1.81,0,3.28,1.46,3.28,3.26,0,1-.37,1.96-1.04,2.7l-1.38,1.53c-.16.17-.24.38-.24.6v.9h-2.14Z"/>
      <path d="M17.44,11.1c1.6,0,2.91,1.3,2.91,2.89,0,.91-.34,1.78-.94,2.45l-1.38,1.53c-.21.24-.33.53-.33.85v.53h-1.4v-.53c0-.66.24-1.29.69-1.78l1.38-1.53c.38-.42.59-.96.59-1.52,0-.82-.67-1.49-1.5-1.49h-.89c-.83,0-1.5.67-1.5,1.49h-1.4c0-1.59,1.3-2.89,2.91-2.89h.89M17.44,10.35h-.89c-2.01,0-3.65,1.63-3.65,3.63v.74h2.89v-.74c0-.41.34-.75.76-.75h.89c.42,0,.76.34.76.75,0,.38-.14.74-.39,1.02l-1.38,1.53c-.57.62-.88,1.43-.88,2.28v.54s.01.74.01.74h2.87v-.74s.01-.53.01-.53c0-.14.05-.25.14-.36l1.38-1.53c.73-.81,1.14-1.86,1.14-2.95,0-2-1.64-3.63-3.65-3.63h0Z"/>
    </g>
  </g>
</svg>