<?xml version="1.0" encoding="UTF-8"?>
<svg id="Layer_1" xmlns="http://www.w3.org/2000/svg" version="1.1" viewBox="0 0 80 80">
  <!-- Generator: Adobe Illustrator 30.1.0, SVG Export Plug-In . SVG Version: 2.1.1 Build 136)  -->
  <path d="M40,11.2c.94,0,1.87.49,2.36,1.46l6.03,11.96c1.03,2.05,2.96,3.5,5.22,3.93l13.03,2.44c2.04.38,2.86,2.86,1.47,4.39l-9.5,10.42c-1.47,1.61-2.15,3.78-1.86,5.94l1.85,14.05c.22,1.68-1.11,3-2.62,3-.4,0-.81-.09-1.21-.3l-11.4-5.87c-1.06-.54-2.21-.82-3.37-.82s-2.31.27-3.37.82l-11.4,5.87c-.4.2-.81.3-1.21.3-1.51,0-2.84-1.33-2.62-3l1.85-14.06c.28-2.16-.4-4.33-1.86-5.93l-9.5-10.42c-1.4-1.54-.57-4.01,1.47-4.4l13.03-2.44c2.25-.42,4.18-1.87,5.21-3.92l6.03-11.96c.49-.97,1.43-1.46,2.36-1.46M40,0C34.74,0,30,2.92,27.63,7.62l-5.17,10.27-11.16,2.09c-4.93.92-8.98,4.45-10.58,9.21-1.59,4.76-.49,10.02,2.9,13.73l8.3,9.11-1.62,12.3c-.52,3.96.68,7.94,3.31,10.94,2.64,3.01,6.43,4.73,10.42,4.73,2.19,0,4.38-.53,6.34-1.54l9.64-4.97,9.64,4.97c1.96,1.01,4.15,1.54,6.34,1.54,3.98,0,7.78-1.72,10.42-4.73,2.62-2.99,3.83-6.98,3.31-10.94l-1.62-12.3,8.3-9.11c3.38-3.71,4.49-8.97,2.9-13.73-1.59-4.76-5.65-8.29-10.58-9.21l-11.17-2.09-5.17-10.27C50,2.92,45.26,0,40,0h0Z"/>
</svg>