<?xml version="1.0" encoding="UTF-8"?>
<svg id="Layer_1" xmlns="http://www.w3.org/2000/svg" version="1.1" viewBox="0 0 29 29">
  <!-- Generator: Adobe Illustrator 30.1.0, SVG Export Plug-In . SVG Version: 2.1.1 Build 136)  -->
  <path d="M14.5,3.04c.37,0,.75.19.94.58l2.4,4.76c.41.82,1.18,1.39,2.08,1.56l5.19.97c.81.15,1.14,1.14.58,1.75l-3.78,4.15c-.58.64-.85,1.51-.74,2.37l.74,5.59c.09.67-.44,1.2-1.04,1.2-.16,0-.32-.04-.48-.12l-4.54-2.34c-.42-.22-.88-.32-1.34-.33-.46,0-.92.11-1.34.33l-4.54,2.34c-.16.08-.32.12-.48.12-.6,0-1.13-.53-1.04-1.2l.74-5.6c.11-.86-.16-1.72-.74-2.36l-3.78-4.15c-.56-.61-.23-1.6.58-1.75l5.19-.97c.9-.17,1.66-.75,2.08-1.56l2.4-4.76c.19-.39.57-.58.94-.58M14.5,0c-1.55,0-2.95.86-3.65,2.25l-2.38,4.72-5.14.96c-1.46.27-2.65,1.32-3.12,2.72-.47,1.41-.14,2.96.86,4.06l3.75,4.11-.73,5.55c-.15,1.17.2,2.35.98,3.23.78.89,1.9,1.4,3.08,1.4.65,0,1.29-.16,1.87-.46l4.49-2.31,4.49,2.31c.58.3,1.23.46,1.87.46,1.18,0,2.3-.51,3.08-1.4.77-.88,1.13-2.06.98-3.23l-.73-5.55,3.75-4.12c1-1.1,1.33-2.65.86-4.06-.47-1.41-1.67-2.45-3.12-2.72l-5.14-.96-2.38-4.72c-.7-1.39-2.1-2.25-3.65-2.25h0Z"/>
</svg>