<?xml version="1.0" encoding="UTF-8"?>
<svg id="Layer_1" xmlns="http://www.w3.org/2000/svg" version="1.1" viewBox="0 0 117 117">
  <!-- Generator: Adobe Illustrator 30.1.0, SVG Export Plug-In . SVG Version: 2.1.1 Build 136)  -->
  <circle id="Outer" cx="58.5" cy="58.5" r="52.38" fill="none" stroke="#000" stroke-width="12.25"/>
  <g>
    <g>
      <rect x="54.8" y="77.04" width="7.32" height="7.32"/>
      <path d="M61.21,77.95v5.49h-5.49v-5.49h5.49M63.04,76.12h-9.15v9.15h9.15v-9.15h0Z"/>
    </g>
    <g>
      <path d="M54.82,69.07l-.03-2.98c.01-2.83,1.06-5.55,2.96-7.65l5.44-6.03c1.34-1.48,2.08-3.39,2.08-5.38,0-2.74-2.25-4.98-5.02-4.98h-3.5c-2.77,0-5.02,2.23-5.02,4.98v.91h-7.37v-.91c0-6.79,5.56-12.31,12.39-12.31h3.5c6.83,0,12.39,5.52,12.39,12.31,0,3.8-1.41,7.45-3.96,10.28l-5.44,6.03c-.7.78-1.08,1.72-1.08,2.74l-.03,2.99h-7.31Z"/>
      <path d="M60.25,35.64c6.33,0,11.47,5.11,11.47,11.39,0,3.57-1.32,7.01-3.73,9.67l-5.44,6.03c-.84.93-1.31,2.09-1.31,3.35l-.02,2.08h-5.49l-.02-2.08c0-2.6.97-5.09,2.72-7.02l5.44-6.03c1.49-1.65,2.31-3.78,2.31-5.99,0-3.25-2.66-5.89-5.93-5.89h-3.5c-3.27,0-5.93,2.64-5.93,5.89h-5.54c0-6.28,5.15-11.39,11.47-11.39h3.5M60.25,33.81h-3.5c-7.33,0-13.3,5.93-13.3,13.22v1.83h9.2v-1.83c0-2.24,1.84-4.06,4.1-4.06h3.5c2.26,0,4.1,1.82,4.1,4.06,0,1.76-.65,3.46-1.84,4.77l-5.44,6.03c-2.05,2.26-3.18,5.19-3.19,8.24l.02,2.1.02,1.81h9.12l.02-1.81.02-2.08c0-.8.29-1.53.84-2.14l5.44-6.03c2.71-3,4.2-6.87,4.2-10.89,0-7.29-5.97-13.22-13.3-13.22h0Z"/>
    </g>
  </g>
</svg>