<?xml version="1.0" encoding="UTF-8"?>
<svg id="Layer_1" xmlns="http://www.w3.org/2000/svg" version="1.1" viewBox="0 0 117 117">
  <!-- Generator: Adobe Illustrator 30.1.0, SVG Export Plug-In . SVG Version: 2.1.1 Build 136)  -->
  <circle id="Outer" cx="58.5" cy="58.5" r="48.24" fill="none" stroke="#000" stroke-width="20.51"/>
  <g>
    <g>
      <rect x="54.76" y="73.89" width="7.41" height="7.41"/>
      <path d="M60.53,75.53v4.12h-4.12v-4.12h4.12M63.82,72.24h-10.7v10.7h10.7v-10.7h0Z"/>
    </g>
    <g>
      <path d="M54.79,66.66l-.03-3.19c0-2.38.88-4.64,2.47-6.39l4.08-4.52c.84-.94,1.31-2.14,1.31-3.39,0-1.53-1.26-2.77-2.8-2.77h-2.62c-1.55,0-2.8,1.24-2.8,2.77v1.65h-7.45v-1.65c0-5.62,4.6-10.19,10.25-10.19h2.62c5.65,0,10.25,4.57,10.25,10.19,0,3.09-1.14,6.05-3.22,8.35l-4.08,4.52c-.37.41-.56.89-.56,1.42l-.03,3.2h-7.38Z"/>
      <path d="M59.81,40.63c4.75,0,8.61,3.83,8.61,8.55,0,2.68-.99,5.26-2.79,7.25l-4.08,4.52c-.63.7-.98,1.57-.99,2.51l-.02,1.56h-4.12v-1.56c0-1.95.71-3.81,2.03-5.27l4.08-4.52c1.12-1.24,1.73-2.83,1.73-4.5,0-2.44-2-4.42-4.45-4.42h-2.62c-2.45,0-4.45,1.98-4.45,4.42h-4.16c0-4.71,3.86-8.55,8.61-8.55h2.62M59.81,37.34h-2.62c-6.56,0-11.9,5.31-11.9,11.84v3.29h10.74v-3.29c0-.62.52-1.13,1.16-1.13h2.62c.64,0,1.16.51,1.16,1.13,0,.85-.31,1.66-.88,2.29l-4.08,4.52c-1.85,2.05-2.88,4.7-2.89,7.46v1.6s.04,3.26.04,3.26h10.64l.03-3.26.02-1.56c0-.11.02-.21.14-.34l4.08-4.53c2.35-2.6,3.64-5.96,3.64-9.46,0-6.53-5.34-11.84-11.9-11.84h0Z"/>
    </g>
  </g>
</svg>