<?xml version="1.0" encoding="UTF-8"?>
<svg id="Layer_1" xmlns="http://www.w3.org/2000/svg" version="1.1" viewBox="0 0 107 107">
  <!-- Generator: Adobe Illustrator 30.1.0, SVG Export Plug-In . SVG Version: 2.1.1 Build 136)  -->
  <g>
    <g>
      <rect x="49.71" y="28.46" width="7.59" height="7.59"/>
      <path d="M56.46,29.29v5.92h-5.92v-5.92h5.92M58.13,27.62h-9.26v9.26h9.26v-9.26h0Z"/>
    </g>
    <g>
      <polygon points="43.79 78.22 43.79 70.63 49.71 70.63 49.71 53.84 43.79 53.84 43.79 46.25 57.29 46.25 57.29 70.63 63.21 70.63 63.21 78.22 43.79 78.22"/>
      <path d="M56.46,47.09v24.38h5.92v5.92h-17.75v-5.92h5.92v-18.47h-5.92v-5.92h11.83M58.13,45.42h-15.18v9.26h5.92v15.12h-5.92v9.26h21.09v-9.26h-5.92v-24.38h0Z"/>
    </g>
  </g>
  <circle id="Outer" cx="53.5" cy="53.5" r="47.9" fill="none" stroke="#000" stroke-width="11.2"/>
</svg>