<?xml version="1.0" encoding="UTF-8"?>
<svg id="Layer_1" xmlns="http://www.w3.org/2000/svg" version="1.1" viewBox="0 0 42 42">
  <!-- Generator: Adobe Illustrator 30.1.0, SVG Export Plug-In . SVG Version: 2.1.1 Build 136)  -->
  <g>
    <g>
      <rect x="19.51" y="11.17" width="2.98" height="2.98"/>
      <path d="M22.16,11.5v2.32h-2.32v-2.32h2.32M22.82,10.84h-3.63v3.63h3.63v-3.63h0Z"/>
    </g>
    <g>
      <polygon points="17.19 30.7 17.19 27.73 19.51 27.73 19.51 21.13 17.19 21.13 17.19 18.15 22.49 18.15 22.49 27.73 24.81 27.73 24.81 30.7 17.19 30.7"/>
      <path d="M22.16,18.48v9.57h2.32v2.32h-6.97v-2.32h2.32v-7.25h-2.32v-2.32h4.64M22.82,17.83h-5.96v3.63h2.32v5.94h-2.32v3.63h8.28v-3.63h-2.32v-9.57h0Z"/>
    </g>
  </g>
  <circle id="Outer" cx="21" cy="21" r="18.8" fill="none" stroke="#000" stroke-width="4.4"/>
</svg>