<?xml version="1.0" encoding="UTF-8"?>
<svg id="Layer_1" xmlns="http://www.w3.org/2000/svg" version="1.1" viewBox="0 0 80 80">
  <!-- Generator: Adobe Illustrator 30.1.0, SVG Export Plug-In . SVG Version: 2.1.1 Build 136)  -->
  <circle id="Outer" cx="40" cy="40" r="34.4" fill="none" stroke="#000" stroke-width="11.2"/>
  <g>
    <g>
      <rect x="37.46" y="51.6" width="5.03" height="5.03"/>
      <path d="M41.62,52.48v3.28h-3.28v-3.28h3.28M43.37,50.73h-6.78v6.78h6.78v-6.78h0Z"/>
    </g>
    <g>
      <path d="M37.48,46.37l-.02-2.11c0-1.78.66-3.47,1.85-4.78l3.24-3.59c.74-.82,1.15-1.88,1.15-2.99,0-1.45-1.19-2.64-2.66-2.64h-2.08c-1.47,0-2.66,1.18-2.66,2.64v.88h-5.06v-.88c0-4.23,3.46-7.67,7.72-7.67h2.08c4.25,0,7.72,3.44,7.72,7.67,0,2.35-.87,4.6-2.45,6.35l-3.25,3.6c-.36.4-.56.89-.56,1.41l-.02,2.11h-5.01Z"/>
      <path d="M41.04,26.11c3.77,0,6.84,3.05,6.84,6.79,0,2.13-.79,4.18-2.22,5.76l-3.25,3.6c-.5.56-.78,1.25-.78,2v1.24h-3.29v-1.24c0-1.55.57-3.03,1.61-4.19l3.24-3.59c.89-.98,1.38-2.25,1.38-3.57,0-1.94-1.59-3.51-3.54-3.51h-2.08c-1.95,0-3.54,1.58-3.54,3.51h-3.31c0-3.75,3.07-6.79,6.84-6.79h2.08M41.04,24.36h-2.08c-4.74,0-8.59,3.83-8.59,8.54v1.75h6.81v-1.75c0-.97.8-1.76,1.79-1.76h2.08c.98,0,1.79.79,1.79,1.76,0,.89-.33,1.74-.93,2.4l-3.24,3.59c-1.33,1.47-2.07,3.37-2.07,5.35v1.26s.03,1.73.03,1.73h6.74l.02-1.73v-1.24c.01-.32.13-.6.34-.84l3.25-3.6c1.72-1.91,2.67-4.37,2.67-6.94,0-4.71-3.85-8.54-8.59-8.54h0Z"/>
    </g>
  </g>
</svg>