<?xml version="1.0" encoding="UTF-8"?>
<svg id="Layer_1" xmlns="http://www.w3.org/2000/svg" version="1.1" viewBox="0 0 80 80">
  <!-- Generator: Adobe Illustrator 30.1.0, SVG Export Plug-In . SVG Version: 2.1.1 Build 136)  -->
  <circle id="Outer" cx="40" cy="40" r="32.99" fill="none" stroke="#000" stroke-width="14.02"/>
  <g>
    <g>
      <rect x="37.45" y="50.52" width="5.07" height="5.07"/>
      <path d="M41.39,51.65v2.82h-2.82v-2.82h2.82M43.64,49.4h-7.32v7.32h7.32v-7.32h0Z"/>
    </g>
    <g>
      <path d="M37.46,45.58l-.02-2.18c0-1.62.6-3.17,1.69-4.37l2.79-3.09c.58-.64.9-1.46.9-2.32,0-1.05-.86-1.9-1.92-1.9h-1.79c-1.06,0-1.92.85-1.92,1.9v1.12h-5.09v-1.12c0-3.84,3.14-6.97,7.01-6.97h1.79c3.87,0,7.01,3.13,7.01,6.97,0,2.11-.78,4.14-2.2,5.71l-2.79,3.09c-.25.28-.38.61-.38.97l-.02,2.19h-5.05Z"/>
      <path d="M40.9,27.78c3.25,0,5.88,2.62,5.88,5.84,0,1.83-.68,3.59-1.91,4.96l-2.79,3.09c-.43.48-.67,1.07-.67,1.72v1.07h-2.83v-1.07c0-1.34.49-2.61,1.39-3.6l2.79-3.09c.76-.85,1.18-1.94,1.18-3.07,0-1.67-1.36-3.02-3.04-3.02h-1.79c-1.68,0-3.04,1.36-3.04,3.02h-2.84c0-3.22,2.64-5.84,5.88-5.84h1.79M40.9,25.53h-1.79c-4.49,0-8.13,3.63-8.13,8.09v2.25h7.34v-2.25c0-.42.36-.77.79-.77h1.79c.44,0,.79.35.79.77,0,.58-.21,1.13-.6,1.57l-2.79,3.09c-1.27,1.4-1.97,3.21-1.98,5.1v1.09s.03,2.23.03,2.23h7.28l.02-2.23v-1.07c.01-.07.02-.14.1-.23l2.79-3.09c1.61-1.78,2.49-4.08,2.49-6.47,0-4.46-3.65-8.09-8.13-8.09h0Z"/>
    </g>
  </g>
</svg>