<?xml version="1.0" encoding="UTF-8"?>
<svg id="Layer_1" xmlns="http://www.w3.org/2000/svg" version="1.1" viewBox="0 0 80 80">
  <!-- Generator: Adobe Illustrator 30.1.0, SVG Export Plug-In . SVG Version: 2.1.1 Build 136)  -->
  <circle id="Outer" cx="40" cy="40" r="35.81" fill="none" stroke="#000" stroke-width="8.38"/>
  <g>
    <g>
      <rect x="37.47" y="52.67" width="5.01" height="5.01"/>
      <path d="M41.85,53.3v3.76h-3.76v-3.76h3.76M43.1,52.05h-6.26v6.26h6.26v-6.26h0Z"/>
    </g>
    <g>
      <path d="M37.48,47.23l-.02-2.04c0-1.94.73-3.79,2.02-5.23l3.72-4.12c.91-1.01,1.42-2.32,1.42-3.68,0-1.88-1.54-3.4-3.43-3.4h-2.39c-1.89,0-3.43,1.53-3.43,3.4v.62h-5.04v-.62c0-4.64,3.8-8.42,8.47-8.42h2.39c4.67,0,8.47,3.77,8.47,8.42,0,2.6-.96,5.1-2.71,7.03l-3.72,4.12c-.48.53-.74,1.18-.74,1.87l-.02,2.04h-5Z"/>
      <path d="M41.2,24.37c4.33,0,7.85,3.5,7.85,7.79,0,2.44-.91,4.79-2.55,6.61l-3.72,4.12c-.58.64-.9,1.43-.9,2.29v1.42h-3.77v-1.42c0-1.78.65-3.48,1.85-4.8l3.72-4.12c1.02-1.13,1.58-2.58,1.58-4.1,0-2.22-1.82-4.03-4.05-4.03h-2.39c-2.24,0-4.05,1.81-4.05,4.03h-3.79c0-4.29,3.52-7.79,7.85-7.79h2.39M41.2,23.12h-2.39c-5.02,0-9.1,4.06-9.1,9.04v1.25h6.29v-1.25c0-1.53,1.26-2.78,2.8-2.78h2.39c1.55,0,2.8,1.25,2.8,2.78,0,1.2-.45,2.36-1.26,3.26l-3.72,4.12c-1.4,1.55-2.18,3.55-2.18,5.64v1.44s.02,1.24.02,1.24h6.23v-1.24s.03-1.42.03-1.42c0-.55.2-1.05.58-1.46l3.72-4.12c1.85-2.05,2.87-4.69,2.87-7.45,0-4.98-4.08-9.04-9.1-9.04h0Z"/>
    </g>
  </g>
</svg>