<?xml version="1.0" encoding="UTF-8"?>
<svg id="Layer_1" xmlns="http://www.w3.org/2000/svg" version="1.1" viewBox="0 0 127 127">
  <!-- Generator: Adobe Illustrator 30.1.0, SVG Export Plug-In . SVG Version: 2.1.1 Build 136)  -->
  <circle id="Outer" cx="63.5" cy="63.5" r="56.85" fill="none" stroke="#000" stroke-width="13.3"/>
  <g>
    <g>
      <rect x="59.49" y="83.62" width="7.95" height="7.95"/>
      <path d="M66.44,84.61v5.96h-5.96v-5.96h5.96M68.43,82.63h-9.93v9.93h9.93v-9.93h0Z"/>
    </g>
    <g>
      <path d="M59.5,74.97l-.03-3.24c.01-3.08,1.15-6.02,3.21-8.3l5.91-6.54c1.45-1.61,2.25-3.68,2.25-5.84,0-2.98-2.44-5.4-5.45-5.4h-3.79c-3,0-5.44,2.42-5.44,5.4v.99h-8v-.99c0-7.37,6.03-13.36,13.45-13.36h3.79c7.41,0,13.45,5.99,13.45,13.36,0,4.12-1.53,8.09-4.3,11.16l-5.91,6.55c-.76.84-1.17,1.87-1.17,2.97l-.03,3.25h-7.93Z"/>
      <path d="M65.4,38.69c6.87,0,12.45,5.55,12.45,12.37,0,3.88-1.44,7.61-4.04,10.49l-5.91,6.55c-.92,1.01-1.42,2.27-1.43,3.63l-.02,2.26h-5.96l-.02-2.26c.01-2.83,1.05-5.52,2.95-7.62l5.91-6.54c1.62-1.79,2.51-4.1,2.51-6.51,0-3.52-2.89-6.39-6.44-6.39h-3.79c-3.55,0-6.44,2.87-6.44,6.39h-6.02c0-6.82,5.59-12.37,12.45-12.37h3.79M65.4,36.7h-3.79c-7.96,0-14.44,6.44-14.44,14.35v1.98h9.99v-1.98c0-2.43,2-4.41,4.45-4.41h3.79c2.46,0,4.45,1.98,4.45,4.41,0,1.91-.71,3.75-2,5.18l-5.91,6.54c-2.22,2.46-3.45,5.63-3.47,8.95l.02,2.28.02,1.97h9.9l.02-1.96.02-2.26c0-.87.32-1.66.91-2.32l5.91-6.55c2.94-3.25,4.56-7.45,4.56-11.82,0-7.91-6.48-14.35-14.44-14.35h0Z"/>
    </g>
  </g>
</svg>