<?xml version="1.0" encoding="UTF-8"?>
<svg id="Layer_1" xmlns="http://www.w3.org/2000/svg" version="1.1" viewBox="0 0 127 127">
  <!-- Generator: Adobe Illustrator 30.1.0, SVG Export Plug-In . SVG Version: 2.1.1 Build 136)  -->
  <circle id="Outer" cx="63.5" cy="63.5" r="54.61" fill="none" stroke="#000" stroke-width="17.78"/>
  <g>
    <g>
      <rect x="59.48" y="81.92" width="7.98" height="7.98"/>
      <path d="M66.07,83.31v5.2h-5.2v-5.2h5.2M68.84,80.53h-10.76v10.76h10.76v-10.76h0Z"/>
    </g>
    <g>
      <path d="M59.49,73.61l-.03-3.34c.01-2.82,1.05-5.51,2.94-7.59l5.15-5.71c1.18-1.31,1.83-2.99,1.83-4.74,0-2.31-1.9-4.18-4.22-4.18h-3.31c-2.33,0-4.22,1.88-4.22,4.18v1.39h-8.03v-1.39c0-6.71,5.5-12.17,12.25-12.17h3.31c6.75,0,12.25,5.46,12.25,12.17,0,3.73-1.38,7.31-3.88,10.08l-5.15,5.71c-.58.64-.88,1.41-.89,2.24l-.03,3.35h-7.95Z"/>
      <path d="M65.15,41.45c5.99,0,10.86,4.84,10.86,10.78,0,3.38-1.25,6.63-3.53,9.15l-5.15,5.71c-.8.88-1.24,1.98-1.24,3.17l-.02,1.97h-5.2l-.02-1.97c0-2.47.92-4.81,2.58-6.65l5.15-5.71c1.41-1.56,2.19-3.58,2.19-5.67,0-3.07-2.52-5.57-5.61-5.57h-3.31c-3.09,0-5.61,2.5-5.61,5.57h-5.25c0-5.95,4.87-10.78,10.86-10.78h3.31M65.15,38.67h-3.31c-7.52,0-13.64,6.08-13.64,13.56v2.78h10.8v-2.78c0-1.54,1.27-2.8,2.84-2.8h3.31c1.56,0,2.84,1.25,2.84,2.8,0,1.41-.52,2.76-1.47,3.81l-5.15,5.71c-2.11,2.33-3.28,5.35-3.29,8.5l.02,2,.02,2.75h10.7l.03-2.75.02-1.97c0-.51.18-.95.53-1.33l5.15-5.71c2.74-3.03,4.24-6.94,4.24-11.01,0-7.48-6.12-13.56-13.64-13.56h0Z"/>
    </g>
  </g>
</svg>