<?xml version="1.0" encoding="UTF-8"?>
<svg id="Layer_1" xmlns="http://www.w3.org/2000/svg" version="1.1" viewBox="0 0 29 29">
  <!-- Generator: Adobe Illustrator 30.1.0, SVG Export Plug-In . SVG Version: 2.1.1 Build 136)  -->
  <circle id="Outer" cx="14.5" cy="14.5" r="12.47" fill="none" stroke="#000" stroke-width="4.06"/>
  <g>
    <g>
      <rect x="13.58" y="18.71" width="1.82" height="1.82"/>
      <path d="M15.09,19.02v1.19h-1.19v-1.19h1.19M15.72,18.39h-2.46v2.46h2.46v-2.46h0Z"/>
    </g>
    <g>
      <path d="M13.59,16.81v-.76c0-.64.23-1.26.66-1.73l1.18-1.3c.27-.3.42-.68.42-1.08,0-.53-.43-.96-.96-.96h-.76c-.53,0-.96.43-.96.96v.32h-1.83v-.32c0-1.53,1.25-2.78,2.8-2.78h.76c1.54,0,2.8,1.25,2.8,2.78,0,.85-.32,1.67-.89,2.3l-1.18,1.3c-.13.15-.2.32-.2.51v.77h-1.82Z"/>
      <path d="M14.88,9.46c1.37,0,2.48,1.1,2.48,2.46,0,.77-.29,1.51-.81,2.09l-1.18,1.3c-.18.2-.28.45-.28.72v.45h-1.19v-.45c0-.56.21-1.1.58-1.52l1.18-1.3c.32-.36.5-.82.5-1.3,0-.7-.58-1.27-1.28-1.27h-.76c-.71,0-1.28.57-1.28,1.27h-1.2c0-1.36,1.11-2.46,2.48-2.46h.76M14.88,8.83h-.76c-1.72,0-3.11,1.39-3.11,3.1v.63h2.47v-.63c0-.35.29-.64.65-.64h.76c.36,0,.65.29.65.64,0,.32-.12.63-.34.87l-1.18,1.3c-.48.53-.75,1.22-.75,1.94v.46s0,.63,0,.63h2.44v-.63s.01-.45.01-.45c0-.12.04-.22.12-.3l1.18-1.3c.62-.69.97-1.58.97-2.51,0-1.71-1.4-3.1-3.11-3.1h0Z"/>
    </g>
  </g>
</svg>