<?xml version="1.0" encoding="UTF-8"?>
<svg id="Layer_1" xmlns="http://www.w3.org/2000/svg" version="1.1" viewBox="0 0 29 29">
  <!-- Generator: Adobe Illustrator 30.1.0, SVG Export Plug-In . SVG Version: 2.1.1 Build 136)  -->
  <circle id="Outer" cx="14.5" cy="14.5" r="11.96" fill="none" stroke="#000" stroke-width="5.08"/>
  <g>
    <g>
      <rect x="13.57" y="18.31" width="1.84" height="1.84"/>
      <path d="M15,18.72v1.02h-1.02v-1.02h1.02M15.82,17.91h-2.65v2.65h2.65v-2.65h0Z"/>
    </g>
    <g>
      <path d="M13.58,16.52v-.79c0-.59.21-1.15.6-1.58l1.01-1.12c.21-.23.32-.53.32-.84,0-.38-.31-.69-.69-.69h-.65c-.38,0-.69.31-.69.69v.41h-1.85v-.41c0-1.39,1.14-2.53,2.54-2.53h.65c1.4,0,2.54,1.13,2.54,2.53,0,.77-.28,1.5-.8,2.07l-1.01,1.12c-.09.1-.14.22-.14.35v.79h-1.84Z"/>
      <path d="M14.82,10.07c1.18,0,2.13.95,2.13,2.12,0,.66-.25,1.3-.69,1.8l-1.01,1.12c-.16.17-.24.39-.24.62v.39h-1.03v-.39c0-.48.18-.95.5-1.31l1.01-1.12c.28-.31.43-.7.43-1.11,0-.6-.49-1.09-1.1-1.09h-.65c-.61,0-1.1.49-1.1,1.09h-1.03c0-1.17.96-2.12,2.13-2.12h.65M14.82,9.25h-.65c-1.63,0-2.95,1.32-2.95,2.93v.82h2.66v-.82c0-.15.13-.28.29-.28h.65c.16,0,.29.13.29.28,0,.21-.08.41-.22.57l-1.01,1.12c-.46.51-.71,1.16-.72,1.85v.4s.01.81.01.81h2.64v-.81s.01-.39.01-.39c0-.03,0-.05.03-.08l1.01-1.12c.58-.64.9-1.48.9-2.34,0-1.62-1.32-2.93-2.95-2.93h0Z"/>
    </g>
  </g>
</svg>