<?xml version="1.0" encoding="UTF-8"?>
<svg id="Layer_1" xmlns="http://www.w3.org/2000/svg" version="1.1" viewBox="0 0 39 39">
  <!-- Generator: Adobe Illustrator 30.1.0, SVG Export Plug-In . SVG Version: 2.1.1 Build 136)  -->
  <circle id="Outer" cx="19.5" cy="19.5" r="16.77" fill="none" stroke="#000" stroke-width="5.46"/>
  <g>
    <g>
      <rect x="18.26" y="25.16" width="2.45" height="2.45"/>
      <path d="M20.29,25.58v1.6h-1.6v-1.6h1.6M21.14,24.73h-3.3v3.3h3.3v-3.3h0Z"/>
    </g>
    <g>
      <path d="M18.27,22.61v-1.03c0-.87.31-1.69.89-2.33l1.58-1.75c.36-.4.56-.92.56-1.46,0-.71-.58-1.28-1.3-1.28h-1.02c-.72,0-1.3.58-1.3,1.28v.43h-2.46v-.43c0-2.06,1.69-3.74,3.76-3.74h1.02c2.07,0,3.76,1.68,3.76,3.74,0,1.14-.42,2.24-1.19,3.1l-1.58,1.75c-.18.2-.27.43-.27.69v1.03h-2.45Z"/>
      <path d="M20.01,12.73c1.84,0,3.34,1.49,3.34,3.31,0,1.04-.38,2.04-1.08,2.81l-1.58,1.75c-.25.27-.38.61-.38.97v.6h-1.6v-.6c0-.76.28-1.48.79-2.04l1.58-1.75c.43-.48.67-1.1.67-1.74,0-.94-.77-1.71-1.72-1.71h-1.02c-.95,0-1.72.77-1.72,1.71h-1.61c0-1.83,1.5-3.31,3.34-3.31h1.02M20.01,11.87h-1.02c-2.31,0-4.19,1.87-4.19,4.16v.85h3.32v-.85c0-.47.39-.86.87-.86h1.02c.48,0,.87.39.87.86,0,.43-.16.85-.45,1.17l-1.58,1.75c-.65.72-1.01,1.64-1.01,2.61v.61s.01.85.01.85h3.29v-.84s.01-.6.01-.6c0-.16.05-.29.16-.41l1.58-1.75c.84-.93,1.3-2.13,1.3-3.38,0-2.3-1.88-4.16-4.19-4.16h0Z"/>
    </g>
  </g>
</svg>