<?xml version="1.0" encoding="UTF-8"?>
<svg id="Layer_1" xmlns="http://www.w3.org/2000/svg" version="1.1" viewBox="0 0 39 39">
  <!-- Generator: Adobe Illustrator 30.1.0, SVG Export Plug-In . SVG Version: 2.1.1 Build 136)  -->
  <circle id="Outer" cx="19.5" cy="19.5" r="17.46" fill="none" stroke="#000" stroke-width="4.08"/>
  <g>
    <g>
      <rect x="18.27" y="25.68" width="2.44" height="2.44"/>
      <path d="M20.4,25.98v1.83h-1.83v-1.83h1.83M21.01,25.37h-3.05v3.05h3.05v-3.05h0Z"/>
    </g>
    <g>
      <path d="M18.27,23.02v-.99c0-.95.35-1.85.98-2.55l1.81-2.01c.45-.49.69-1.13.69-1.79,0-.91-.75-1.66-1.67-1.66h-1.17c-.92,0-1.67.74-1.67,1.66v.3h-2.46v-.3c0-2.26,1.85-4.1,4.13-4.1h1.17c2.28,0,4.13,1.84,4.13,4.1,0,1.27-.47,2.48-1.32,3.43l-1.81,2.01c-.23.26-.36.58-.36.91v1h-2.45Z"/>
      <path d="M20.08,11.88c2.11,0,3.82,1.7,3.82,3.8,0,1.19-.44,2.34-1.24,3.22l-1.81,2.01c-.28.31-.44.7-.44,1.12v.69h-1.84v-.69c0-.87.32-1.7.9-2.34l1.81-2.01c.5-.55.77-1.26.77-2,0-1.08-.89-1.96-1.98-1.96h-1.17c-1.09,0-1.98.88-1.98,1.96h-1.85c0-2.09,1.72-3.8,3.82-3.8h1.17M20.08,11.27h-1.17c-2.44,0-4.43,1.98-4.43,4.41v.61h3.07v-.61c0-.75.61-1.35,1.37-1.35h1.17c.75,0,1.37.61,1.37,1.35,0,.59-.22,1.15-.61,1.59l-1.81,2.01c-.68.75-1.06,1.73-1.06,2.75v.7s.01.6.01.6h3.04v-.6s.01-.69.01-.69c0-.27.1-.51.28-.71l1.81-2.01c.9-1,1.4-2.29,1.4-3.63,0-2.43-1.99-4.41-4.43-4.41h0Z"/>
    </g>
  </g>
</svg>