<?xml version="1.0" encoding="UTF-8"?>
<svg id="Layer_1" xmlns="http://www.w3.org/2000/svg" version="1.1" viewBox="0 0 39 39">
  <!-- Generator: Adobe Illustrator 30.1.0, SVG Export Plug-In . SVG Version: 2.1.1 Build 136)  -->
  <circle id="Outer" cx="19.5" cy="19.5" r="16.08" fill="none" stroke="#000" stroke-width="6.84"/>
  <g>
    <g>
      <rect x="18.25" y="24.63" width="2.47" height="2.47"/>
      <path d="M20.18,25.18v1.37h-1.37v-1.37h1.37M21.27,24.08h-3.57v3.57h3.57v-3.57h0Z"/>
    </g>
    <g>
      <path d="M18.26,22.22v-1.06c0-.79.29-1.54.81-2.13l1.36-1.51c.28-.31.44-.71.44-1.13,0-.51-.42-.92-.93-.92h-.87c-.52,0-.93.41-.93.92v.55h-2.48v-.55c0-1.87,1.53-3.4,3.42-3.4h.87c1.88,0,3.42,1.52,3.42,3.4,0,1.03-.38,2.02-1.07,2.78l-1.36,1.51c-.12.14-.19.3-.19.47v1.07h-2.47Z"/>
      <path d="M19.94,13.54c1.58,0,2.87,1.28,2.87,2.85,0,.89-.33,1.75-.93,2.42l-1.36,1.51c-.21.23-.33.52-.33.84v.52h-1.38v-.52c0-.65.24-1.27.68-1.76l1.36-1.51c.37-.41.58-.94.58-1.5,0-.81-.67-1.47-1.48-1.47h-.87c-.82,0-1.48.66-1.48,1.47h-1.39c0-1.57,1.29-2.85,2.87-2.85h.87M19.94,12.45h-.87c-2.19,0-3.97,1.77-3.97,3.95v1.1h3.58v-1.1c0-.21.17-.38.39-.38h.87c.21,0,.39.17.39.38,0,.28-.1.55-.29.76l-1.36,1.51c-.62.68-.96,1.57-.96,2.49v.53s.01,1.09.01,1.09h3.55v-1.09s.02-.52.02-.52c0-.04,0-.07.05-.11l1.36-1.51c.78-.87,1.21-1.99,1.21-3.15,0-2.18-1.78-3.95-3.97-3.95h0Z"/>
    </g>
  </g>
</svg>