<?xml version="1.0" encoding="UTF-8"?>
<svg id="Layer_1" xmlns="http://www.w3.org/2000/svg" version="1.1" viewBox="0 0 62 62">
  <!-- Generator: Adobe Illustrator 30.1.0, SVG Export Plug-In . SVG Version: 2.1.1 Build 136)  -->
  <g>
    <g>
      <rect x="28.77" y="17.28" width="4.46" height="4.46"/>
      <path d="M32.55,17.96v3.11h-3.11v-3.11h3.11M33.91,16.6h-5.82v5.82h5.82v-5.82h0Z"/>
    </g>
    <g>
      <polygon points="25.66 44.36 25.66 39.9 28.77 39.9 28.77 31.55 25.66 31.55 25.66 27.09 33.23 27.09 33.23 39.9 36.34 39.9 36.34 44.36 25.66 44.36"/>
      <path d="M32.55,27.77v12.81h3.11v3.11h-9.32v-3.11h3.11v-9.7h-3.11v-3.11h6.22M33.91,26.41h-8.93v5.82h3.11v6.99h-3.11v5.82h12.04v-5.82h-3.11v-12.81h0Z"/>
    </g>
  </g>
  <circle id="Outer" cx="31" cy="31" r="26.66" fill="none" stroke="#000" stroke-width="8.68"/>
</svg>