<?xml version="1.0" encoding="UTF-8"?>
<svg id="Layer_1" xmlns="http://www.w3.org/2000/svg" version="1.1" viewBox="0 0 62 62">
  <!-- Generator: Adobe Illustrator 30.1.0, SVG Export Plug-In . SVG Version: 2.1.1 Build 136)  -->
  <g>
    <g>
      <rect x="28.8" y="16.49" width="4.4" height="4.4"/>
      <path d="M32.71,16.97v3.43h-3.43v-3.43h3.43M33.68,16h-5.37v5.37h5.37v-5.37h0Z"/>
    </g>
    <g>
      <polygon points="25.37 45.33 25.37 40.93 28.8 40.93 28.8 31.2 25.37 31.2 25.37 26.8 33.2 26.8 33.2 40.93 36.63 40.93 36.63 45.33 25.37 45.33"/>
      <path d="M32.71,27.28v14.13h3.43v3.43h-10.28v-3.43h3.43v-10.7h-3.43v-3.43h6.86M33.68,26.32h-8.79v5.37h3.43v8.76h-3.43v5.37h12.22v-5.37h-3.43v-14.13h0Z"/>
    </g>
  </g>
  <circle id="Outer" cx="31" cy="31" r="27.75" fill="none" stroke="#000" stroke-width="6.49"/>
</svg>