<?xml version="1.0" encoding="UTF-8"?>
<svg id="Layer_1" xmlns="http://www.w3.org/2000/svg" version="1.1" viewBox="0 0 13 13">
  <!-- Generator: Adobe Illustrator 30.1.0, SVG Export Plug-In . SVG Version: 2.1.1 Build 136)  -->
  <path d="M6.5,1.36c.17,0,.33.09.42.26l1.08,2.13c.18.37.53.63.93.7l2.33.44c.36.07.51.51.26.78l-1.69,1.86c-.26.29-.38.67-.33,1.06l.33,2.51c.04.3-.2.54-.47.54-.07,0-.14-.02-.22-.05l-2.03-1.05c-.19-.1-.39-.15-.6-.15s-.41.05-.6.15l-2.03,1.05c-.07.04-.14.05-.22.05-.27,0-.51-.24-.47-.54l.33-2.51c.05-.38-.07-.77-.33-1.06l-1.69-1.86c-.25-.27-.1-.72.26-.78l2.33-.44c.4-.08.75-.33.93-.7l1.08-2.13c.09-.17.25-.26.42-.26M6.5,0c-.7,0-1.32.39-1.64,1.01l-1.08,2.13-2.29.41c-.65.12-1.19.59-1.4,1.22-.21.63-.06,1.33.38,1.82l1.69,1.86-.34,2.47c-.07.52.09,1.05.44,1.45.35.4.85.63,1.38.63.29,0,.58-.07.84-.2l2.03-1.05,1.99,1.05c.26.13.55.2.84.2.53,0,1.03-.23,1.38-.63.35-.4.51-.92.44-1.45l-.33-2.51,1.68-1.83c.45-.49.59-1.19.38-1.82-.21-.63-.75-1.1-1.4-1.22l-2.33-.44-1.04-2.11c-.31-.62-.94-1.01-1.64-1.01h0Z"/>
</svg>