<?xml version="1.0" encoding="UTF-8"?>
<svg id="Layer_1" xmlns="http://www.w3.org/2000/svg" version="1.1" viewBox="0 0 13 13">
  <!-- Generator: Adobe Illustrator 30.1.0, SVG Export Plug-In . SVG Version: 2.1.1 Build 136)  -->
  <path d="M6.5,1.82c.15,0,.3.08.38.24l.98,1.94c.17.33.48.57.85.64l2.12.4c.33.06.47.46.24.71l-1.54,1.69c-.24.26-.35.61-.3.97l.3,2.28c.04.27-.18.49-.43.49-.06,0-.13-.02-.2-.05l-1.85-.95c-.17-.09-.36-.13-.55-.13s-.38.04-.55.13l-1.85.95c-.06.03-.13.05-.2.05-.24,0-.46-.22-.43-.49l.3-2.28c.05-.35-.06-.7-.3-.96l-1.54-1.69c-.23-.25-.09-.65.24-.71l2.12-.4c.37-.07.68-.3.85-.64l.98-1.94c.08-.16.23-.24.38-.24M6.5,0C5.65,0,4.88.47,4.49,1.24l-.84,1.67-1.81.34c-.8.15-1.46.72-1.72,1.5-.26.77-.08,1.63.47,2.23l1.35,1.48-.26,2c-.08.64.11,1.29.54,1.78.43.49,1.05.77,1.69.77.36,0,.71-.09,1.03-.25l1.57-.81,1.57.81c.32.16.67.25,1.03.25.65,0,1.26-.28,1.69-.77.43-.49.62-1.13.54-1.78l-.26-2,1.35-1.48c.55-.6.73-1.46.47-2.23-.26-.77-.92-1.35-1.72-1.5l-1.81-.34-.84-1.67C8.12.47,7.35,0,6.5,0h0Z"/>
</svg>