<?xml version="1.0" encoding="UTF-8"?>
<svg id="Layer_1" xmlns="http://www.w3.org/2000/svg" version="1.1" viewBox="0 0 73 73">
  <!-- Generator: Adobe Illustrator 30.1.0, SVG Export Plug-In . SVG Version: 2.1.1 Build 136)  -->
  <circle id="Outer" cx="36.5" cy="36.5" r="32.68" fill="none" stroke="#000" stroke-width="7.64"/>
  <g>
    <g>
      <rect x="34.19" y="48.06" width="4.57" height="4.57"/>
      <path d="M38.19,48.63v3.43h-3.43v-3.43h3.43M39.33,47.49h-5.71v5.71h5.71v-5.71h0Z"/>
    </g>
    <g>
      <path d="M34.2,43.1l-.02-1.86c0-1.77.66-3.46,1.85-4.77l3.4-3.76c.83-.92,1.29-2.12,1.29-3.36,0-1.71-1.4-3.1-3.13-3.1h-2.18c-1.73,0-3.13,1.39-3.13,3.1v.57h-4.6v-.57c0-4.23,3.47-7.68,7.73-7.68h2.18c4.26,0,7.73,3.44,7.73,7.68,0,2.37-.88,4.65-2.47,6.41l-3.4,3.76c-.44.49-.67,1.08-.67,1.71l-.02,1.87h-4.56Z"/>
      <path d="M37.59,22.24c3.95,0,7.16,3.19,7.16,7.11,0,2.23-.83,4.37-2.32,6.03l-3.4,3.76c-.53.58-.82,1.31-.82,2.09v1.3h-3.44v-1.3c0-1.62.59-3.17,1.69-4.38l3.4-3.76c.93-1.03,1.44-2.36,1.44-3.74,0-2.03-1.66-3.67-3.7-3.67h-2.18c-2.04,0-3.7,1.65-3.7,3.67h-3.46c0-3.92,3.21-7.11,7.16-7.11h2.18M37.59,21.1h-2.18c-4.58,0-8.3,3.7-8.3,8.25v1.14h5.74v-1.14c0-1.4,1.15-2.53,2.56-2.53h2.18c1.41,0,2.56,1.14,2.56,2.53,0,1.1-.41,2.16-1.15,2.98l-3.4,3.76c-1.28,1.41-1.99,3.24-1.99,5.14v1.31s.02,1.13.02,1.13h5.69v-1.13s.02-1.3.02-1.3c0-.5.18-.96.53-1.33l3.4-3.76c1.69-1.87,2.62-4.28,2.62-6.8,0-4.55-3.72-8.25-8.3-8.25h0Z"/>
    </g>
  </g>
</svg>