<?xml version="1.0" encoding="UTF-8"?>
<svg id="Layer_1" xmlns="http://www.w3.org/2000/svg" version="1.1" viewBox="0 0 73 73">
  <!-- Generator: Adobe Illustrator 30.1.0, SVG Export Plug-In . SVG Version: 2.1.1 Build 136)  -->
  <circle id="Outer" cx="36.5" cy="36.5" r="30.1" fill="none" stroke="#000" stroke-width="12.8"/>
  <g>
    <g>
      <rect x="34.17" y="46.1" width="4.62" height="4.62"/>
      <path d="M37.77,47.13v2.57h-2.57v-2.57h2.57M39.82,45.07h-6.68v6.68h6.68v-6.68h0Z"/>
    </g>
    <g>
      <path d="M34.18,41.59l-.02-1.99c0-1.48.55-2.89,1.54-3.98l2.55-2.82c.53-.58.82-1.33.82-2.12,0-.95-.79-1.73-1.75-1.73h-1.64c-.96,0-1.75.78-1.75,1.73v1.03h-4.65v-1.03c0-3.51,2.87-6.36,6.4-6.36h1.64c3.53,0,6.4,2.85,6.4,6.36,0,1.93-.71,3.78-2.01,5.21l-2.55,2.82c-.23.26-.35.55-.35.88l-.02,2h-4.61Z"/>
      <path d="M37.32,25.35c2.96,0,5.37,2.39,5.37,5.33,0,1.67-.62,3.28-1.74,4.52l-2.55,2.82c-.39.44-.61.98-.62,1.57v.97h-2.58v-.97c0-1.22.44-2.38,1.27-3.29l2.55-2.82c.7-.77,1.08-1.77,1.08-2.81,0-1.52-1.25-2.76-2.78-2.76h-1.64c-1.53,0-2.78,1.24-2.78,2.76h-2.59c0-2.94,2.41-5.33,5.37-5.33h1.64M37.32,23.29h-1.64c-4.09,0-7.42,3.31-7.42,7.39v2.05h6.7v-2.05c0-.39.32-.7.72-.7h1.64c.4,0,.72.32.72.7,0,.53-.2,1.03-.55,1.43l-2.55,2.82c-1.16,1.28-1.8,2.93-1.8,4.66v1s.03,2.03.03,2.03h6.64l.02-2.03v-.97c.01-.07.02-.13.09-.21l2.55-2.82c1.47-1.62,2.27-3.72,2.27-5.9,0-4.07-3.33-7.39-7.42-7.39h0Z"/>
    </g>
  </g>
</svg>