<?xml version="1.0" encoding="UTF-8"?>
<svg id="Layer_1" xmlns="http://www.w3.org/2000/svg" version="1.1" viewBox="0 0 49 49">
  <!-- Generator: Adobe Illustrator 30.1.0, SVG Export Plug-In . SVG Version: 2.1.1 Build 136)  -->
  <circle id="Outer" cx="24.5" cy="24.5" r="21.94" fill="none" stroke="#000" stroke-width="5.13"/>
  <g>
    <g>
      <rect x="22.95" y="32.26" width="3.07" height="3.07"/>
      <path d="M25.64,32.65v2.3h-2.3v-2.3h2.3M26.4,31.88h-3.83v3.83h3.83v-3.83h0Z"/>
    </g>
    <g>
      <path d="M22.96,28.93v-1.25c0-1.19.43-2.32,1.23-3.2l2.28-2.52c.56-.62.87-1.42.87-2.25,0-1.15-.94-2.08-2.1-2.08h-1.46c-1.16,0-2.1.93-2.1,2.08v.38h-3.09v-.38c0-2.84,2.33-5.15,5.19-5.15h1.46c2.86,0,5.19,2.31,5.19,5.15,0,1.59-.59,3.12-1.66,4.31l-2.28,2.53c-.29.33-.45.72-.45,1.15v1.25h-3.07Z"/>
      <path d="M25.23,14.93c2.65,0,4.81,2.14,4.81,4.77,0,1.5-.55,2.93-1.56,4.05l-2.28,2.53c-.35.39-.55.88-.55,1.4v.87h-2.31v-.87c0-1.09.4-2.13,1.13-2.94l2.28-2.52c.62-.69.97-1.58.97-2.51,0-1.36-1.11-2.47-2.48-2.47h-1.46c-1.37,0-2.48,1.11-2.48,2.47h-2.32c0-2.63,2.16-4.77,4.81-4.77h1.46M25.23,14.16h-1.46c-3.07,0-5.57,2.48-5.57,5.54v.77h3.85v-.77c0-.94.77-1.7,1.72-1.7h1.46c.95,0,1.72.76,1.72,1.7,0,.74-.27,1.45-.77,2l-2.28,2.52c-.86.95-1.33,2.17-1.34,3.45v.88s.01.76.01.76h3.82v-.76s.02-.87.02-.87c0-.33.12-.64.35-.9l2.28-2.53c1.13-1.26,1.76-2.88,1.76-4.56,0-3.05-2.5-5.54-5.57-5.54h0Z"/>
    </g>
  </g>
</svg>