<?xml version="1.0" encoding="UTF-8"?>
<svg id="Layer_1" xmlns="http://www.w3.org/2000/svg" version="1.1" viewBox="0 0 51 51">
  <!-- Generator: Adobe Illustrator 30.1.0, SVG Export Plug-In . SVG Version: 2.1.1 Build 136)  -->
  <circle id="Outer" cx="25.5" cy="25.5" r="21.93" fill="none" stroke="#000" stroke-width="7.14"/>
  <g>
    <g>
      <rect x="23.88" y="32.9" width="3.2" height="3.2"/>
      <path d="M26.53,33.45v2.09h-2.09v-2.09h2.09M27.65,32.34h-4.32v4.32h4.32v-4.32h0Z"/>
    </g>
    <g>
      <path d="M23.89,29.56v-1.34c0-1.13.41-2.21,1.17-3.05l2.07-2.29c.47-.53.74-1.2.74-1.9,0-.93-.76-1.68-1.7-1.68h-1.33c-.94,0-1.7.75-1.7,1.68v.56h-3.22v-.56c0-2.7,2.21-4.89,4.92-4.89h1.33c2.71,0,4.92,2.19,4.92,4.89,0,1.5-.55,2.93-1.56,4.05l-2.07,2.29c-.23.26-.35.57-.36.9v1.35h-3.21Z"/>
      <path d="M26.16,16.64c2.4,0,4.36,1.94,4.36,4.33,0,1.36-.5,2.66-1.42,3.67l-2.07,2.29c-.32.35-.5.8-.5,1.27v.79h-2.1v-.79c0-.99.36-1.93,1.03-2.67l2.07-2.29c.57-.63.88-1.44.88-2.28,0-1.23-1.01-2.24-2.25-2.24h-1.33c-1.24,0-2.25,1-2.25,2.24h-2.11c0-2.39,1.96-4.33,4.36-4.33h1.33M26.16,15.53h-1.33c-3.02,0-5.48,2.44-5.48,5.45v1.12h4.34v-1.12c0-.62.51-1.12,1.14-1.12h1.33c.63,0,1.14.5,1.14,1.12,0,.57-.21,1.11-.59,1.53l-2.07,2.29c-.85.94-1.32,2.15-1.32,3.41v.8s.02,1.11.02,1.11h4.3v-1.1s.02-.79.02-.79c0-.2.07-.38.21-.54l2.07-2.29c1.1-1.22,1.7-2.79,1.7-4.42,0-3-2.46-5.45-5.48-5.45h0Z"/>
    </g>
  </g>
</svg>