<?xml version="1.0" encoding="UTF-8"?>
<svg id="Layer_1" xmlns="http://www.w3.org/2000/svg" version="1.1" viewBox="0 0 51 51">
  <!-- Generator: Adobe Illustrator 30.1.0, SVG Export Plug-In . SVG Version: 2.1.1 Build 136)  -->
  <circle id="Outer" cx="25.5" cy="25.5" r="22.83" fill="none" stroke="#000" stroke-width="5.34"/>
  <g>
    <g>
      <rect x="23.89" y="33.58" width="3.19" height="3.19"/>
      <path d="M26.68,33.98v2.4h-2.4v-2.4h2.4M27.48,33.18h-3.99v3.99h3.99v-3.99h0Z"/>
    </g>
    <g>
      <path d="M23.89,30.11v-1.3c0-1.24.45-2.42,1.28-3.33l2.37-2.63c.58-.65.9-1.48.9-2.35,0-1.2-.98-2.17-2.19-2.17h-1.52c-1.21,0-2.19.97-2.19,2.17v.4h-3.21v-.4c0-2.96,2.42-5.36,5.4-5.36h1.52c2.98,0,5.4,2.41,5.4,5.36,0,1.66-.61,3.25-1.73,4.48l-2.37,2.63c-.31.34-.47.75-.47,1.19v1.3h-3.2Z"/>
      <path d="M26.26,15.54c2.76,0,5,2.23,5,4.97,0,1.56-.58,3.05-1.62,4.21l-2.37,2.63c-.37.41-.57.91-.57,1.46v.91h-2.4v-.91c0-1.14.41-2.22,1.18-3.06l2.37-2.63c.65-.72,1.01-1.65,1.01-2.61,0-1.42-1.16-2.57-2.59-2.57h-1.52c-1.43,0-2.59,1.15-2.59,2.57h-2.42c0-2.74,2.24-4.97,5-4.97h1.52M26.26,14.74h-1.52c-3.2,0-5.8,2.59-5.8,5.76v.8h4.01v-.8c0-.98.8-1.77,1.79-1.77h1.52c.99,0,1.79.79,1.79,1.77,0,.77-.28,1.51-.8,2.08l-2.37,2.63c-.89.99-1.39,2.26-1.39,3.59v.92s.02.79.02.79h3.97v-.79s.02-.91.02-.91c0-.35.13-.67.37-.93l2.37-2.63c1.18-1.31,1.83-2.99,1.83-4.75,0-3.18-2.6-5.76-5.8-5.76h0Z"/>
    </g>
  </g>
</svg>