<?xml version="1.0" encoding="UTF-8"?>
<svg id="Layer_1" xmlns="http://www.w3.org/2000/svg" version="1.1" viewBox="0 0 51 51">
  <!-- Generator: Adobe Illustrator 30.1.0, SVG Export Plug-In . SVG Version: 2.1.1 Build 136)  -->
  <circle id="Outer" cx="25.5" cy="25.5" r="21.03" fill="none" stroke="#000" stroke-width="8.94"/>
  <g>
    <g>
      <rect x="23.87" y="32.21" width="3.23" height="3.23"/>
      <path d="M26.39,32.92v1.8h-1.8v-1.8h1.8M27.82,31.49h-4.67v4.67h4.67v-4.67h0Z"/>
    </g>
    <g>
      <path d="M23.88,29.06v-1.39c0-1.04.37-2.02,1.06-2.78l1.78-1.97c.37-.41.57-.93.57-1.48,0-.67-.55-1.21-1.22-1.21h-1.14c-.67,0-1.22.54-1.22,1.21v.72h-3.25v-.72c0-2.45,2-4.44,4.47-4.44h1.14c2.46,0,4.47,1.99,4.47,4.44,0,1.35-.5,2.64-1.4,3.64l-1.78,1.97c-.16.18-.24.39-.25.62v1.39h-3.23Z"/>
      <path d="M26.07,17.71c2.07,0,3.75,1.67,3.75,3.73,0,1.17-.43,2.29-1.22,3.16l-1.78,1.97c-.28.3-.43.68-.43,1.09v.68h-1.8v-.68c0-.85.31-1.66.88-2.3l1.78-1.97c.49-.54.76-1.24.76-1.96,0-1.06-.87-1.93-1.94-1.93h-1.14c-1.07,0-1.94.86-1.94,1.93h-1.81c0-2.05,1.68-3.73,3.75-3.73h1.14M26.07,16.27h-1.14c-2.86,0-5.19,2.31-5.19,5.16v1.43h4.68v-1.43c0-.27.23-.49.5-.49h1.14c.28,0,.5.22.5.49,0,.37-.14.72-.39,1l-1.78,1.97c-.81.89-1.26,2.05-1.26,3.25v.7s.02,1.42.02,1.42h4.64v-1.42s.02-.68.02-.68c0-.05,0-.09.06-.15l1.78-1.97c1.02-1.13,1.59-2.6,1.59-4.12,0-2.84-2.33-5.16-5.19-5.16h0Z"/>
    </g>
  </g>
</svg>