<?xml version="1.0" encoding="UTF-8"?>
<svg id="Layer_1" xmlns="http://www.w3.org/2000/svg" version="1.1" viewBox="0 0 36 36">
  <!-- Generator: Adobe Illustrator 30.1.0, SVG Export Plug-In . SVG Version: 2.1.1 Build 136)  -->
  <g>
    <g>
      <rect x="16.72" y="9.57" width="2.55" height="2.55"/>
      <path d="M19,9.86v1.99h-1.99v-1.99h1.99M19.56,9.29h-3.12v3.12h3.12v-3.12h0Z"/>
    </g>
    <g>
      <polygon points="14.73 26.32 14.73 23.76 16.72 23.76 16.72 18.11 14.73 18.11 14.73 15.56 19.28 15.56 19.28 23.76 21.27 23.76 21.27 26.32 14.73 26.32"/>
      <path d="M19,15.84v8.2h1.99v1.99h-5.97v-1.99h1.99v-6.21h-1.99v-1.99h3.98M19.56,15.28h-5.11v3.12h1.99v5.09h-1.99v3.12h7.1v-3.12h-1.99v-8.2h0Z"/>
    </g>
  </g>
  <circle id="Outer" cx="18" cy="18" r="16.12" fill="none" stroke="#000" stroke-width="3.77"/>
</svg>