<?xml version="1.0" encoding="UTF-8"?>
<svg id="Layer_1" xmlns="http://www.w3.org/2000/svg" version="1.1" viewBox="0 0 113 113">
  <!-- Generator: Adobe Illustrator 30.1.0, SVG Export Plug-In . SVG Version: 2.1.1 Build 136)  -->
  <circle id="Outer" cx="56.5" cy="56.5" r="46.59" fill="none" stroke="#000" stroke-width="19.81"/>
  <g>
    <g>
      <rect x="52.89" y="71.36" width="7.16" height="7.16"/>
      <path d="M58.46,72.95v3.98h-3.98v-3.98h3.98M61.64,69.77h-10.34v10.34h10.34v-10.34h0Z"/>
    </g>
    <g>
      <path d="M52.91,64.38l-.03-3.08c0-2.3.85-4.48,2.38-6.17l3.94-4.37c.82-.9,1.26-2.07,1.26-3.28,0-1.48-1.21-2.68-2.71-2.68h-2.53c-1.49,0-2.71,1.2-2.71,2.68v1.59h-7.19v-1.59c0-5.43,4.44-9.84,9.9-9.84h2.53c5.46,0,9.9,4.42,9.9,9.84,0,2.98-1.1,5.85-3.11,8.07l-3.94,4.37c-.36.4-.54.86-.54,1.37l-.03,3.09h-7.13Z"/>
      <path d="M57.77,39.24c4.58,0,8.31,3.7,8.31,8.25,0,2.59-.96,5.08-2.7,7l-3.94,4.37c-.61.68-.95,1.52-.95,2.42l-.02,1.51h-3.98v-1.51c0-1.89.69-3.68,1.96-5.09l3.94-4.37c1.08-1.2,1.67-2.74,1.67-4.34,0-2.35-1.93-4.27-4.3-4.27h-2.53c-2.37,0-4.3,1.91-4.3,4.27h-4.02c0-4.55,3.73-8.25,8.31-8.25h2.53M57.77,36.06h-2.53c-6.34,0-11.49,5.13-11.49,11.43v3.18h10.37v-3.18c0-.6.5-1.09,1.12-1.09h2.53c.62,0,1.12.49,1.12,1.09,0,.82-.3,1.6-.85,2.21l-3.94,4.37c-1.79,1.98-2.78,4.54-2.79,7.21v1.55s.04,3.15.04,3.15h10.28l.03-3.15.02-1.51c0-.1.02-.2.13-.33l3.95-4.37c2.27-2.51,3.52-5.76,3.52-9.13,0-6.3-5.15-11.43-11.49-11.43h0Z"/>
    </g>
  </g>
</svg>