<?xml version="1.0" encoding="UTF-8"?>
<svg id="Layer_1" xmlns="http://www.w3.org/2000/svg" version="1.1" viewBox="0 0 113 113">
  <!-- Generator: Adobe Illustrator 30.1.0, SVG Export Plug-In . SVG Version: 2.1.1 Build 136)  -->
  <circle id="Outer" cx="56.5" cy="56.5" r="50.59" fill="none" stroke="#000" stroke-width="11.83"/>
  <g>
    <g>
      <rect x="52.93" y="74.4" width="7.07" height="7.07"/>
      <path d="M59.12,75.28v5.31h-5.31v-5.31h5.31M60.89,73.52h-8.84v8.84h8.84v-8.84h0Z"/>
    </g>
    <g>
      <path d="M52.94,66.71l-.03-2.88c0-2.74,1.02-5.36,2.86-7.38l5.26-5.82c1.29-1.43,2-3.28,2-5.2,0-2.65-2.17-4.8-4.84-4.8h-3.38c-2.67,0-4.84,2.16-4.84,4.8v.88h-7.12v-.88c0-6.55,5.37-11.89,11.96-11.89h3.38c6.6,0,11.96,5.33,11.96,11.89,0,3.67-1.36,7.2-3.83,9.93l-5.26,5.82c-.68.75-1.04,1.67-1.04,2.64l-.03,2.89h-7.06Z"/>
      <path d="M58.19,34.42c6.11,0,11.08,4.94,11.08,11,0,3.45-1.28,6.77-3.6,9.34l-5.26,5.83c-.81.9-1.27,2.02-1.27,3.23l-.02,2.01h-5.31l-.02-2.01c0-2.52.94-4.91,2.63-6.78l5.26-5.82c1.44-1.59,2.23-3.65,2.23-5.79,0-3.14-2.57-5.69-5.73-5.69h-3.38c-3.16,0-5.73,2.55-5.73,5.69h-5.35c0-6.07,4.97-11,11.08-11h3.38M58.19,32.66h-3.38c-7.08,0-12.85,5.73-12.85,12.77v1.77h8.89v-1.77c0-2.16,1.78-3.92,3.96-3.92h3.38c2.18,0,3.96,1.76,3.96,3.92,0,1.7-.63,3.34-1.78,4.61l-5.26,5.82c-1.98,2.19-3.07,5.01-3.08,7.96l.02,2.03.02,1.75h8.8l.02-1.75.02-2.01c0-.77.28-1.48.81-2.07l5.26-5.83c2.61-2.9,4.05-6.63,4.05-10.52,0-7.04-5.76-12.77-12.85-12.77h0Z"/>
    </g>
  </g>
</svg>