<?xml version="1.0" encoding="UTF-8"?>
<svg id="Layer_1" xmlns="http://www.w3.org/2000/svg" version="1.1" viewBox="0 0 113 113">
  <!-- Generator: Adobe Illustrator 30.1.0, SVG Export Plug-In . SVG Version: 2.1.1 Build 136)  -->
  <circle id="Outer" cx="56.5" cy="56.5" r="48.59" fill="none" stroke="#000" stroke-width="15.82"/>
  <g>
    <g>
      <rect x="52.92" y="72.89" width="7.1" height="7.1"/>
      <path d="M58.78,74.12v4.63h-4.63v-4.63h4.63M61.25,71.65h-9.57v9.57h9.57v-9.57h0Z"/>
    </g>
    <g>
      <path d="M52.94,65.5l-.03-2.98c0-2.51.94-4.9,2.61-6.76l4.58-5.08c1.05-1.16,1.63-2.66,1.63-4.22,0-2.05-1.69-3.72-3.76-3.72h-2.94c-2.07,0-3.76,1.67-3.76,3.72v1.24h-7.14v-1.24c0-5.97,4.89-10.83,10.9-10.83h2.94c6.01,0,10.9,4.86,10.9,10.83,0,3.32-1.23,6.5-3.46,8.97l-4.58,5.08c-.51.57-.79,1.26-.79,2l-.03,2.98h-7.08Z"/>
      <path d="M57.97,36.88c5.33,0,9.66,4.31,9.66,9.6,0,3.01-1.11,5.9-3.14,8.14l-4.58,5.08c-.71.79-1.1,1.76-1.11,2.82l-.02,1.75h-4.63l-.02-1.75c0-2.19.82-4.28,2.29-5.92l4.58-5.08c1.25-1.39,1.95-3.18,1.95-5.05,0-2.73-2.24-4.96-4.99-4.96h-2.94c-2.75,0-4.99,2.23-4.99,4.96h-4.67c0-5.29,4.33-9.6,9.66-9.6h2.94M57.97,34.41h-2.94c-6.69,0-12.13,5.41-12.13,12.07v2.47h9.61v-2.47c0-1.37,1.13-2.49,2.52-2.49h2.94c1.39,0,2.52,1.12,2.52,2.49,0,1.25-.46,2.46-1.31,3.39l-4.58,5.08c-1.88,2.08-2.92,4.76-2.93,7.56l.02,1.78.02,2.45h9.52l.02-2.45.02-1.75c0-.45.16-.84.47-1.19l4.59-5.08c2.43-2.7,3.77-6.18,3.77-9.8,0-6.65-5.44-12.07-12.13-12.07h0Z"/>
    </g>
  </g>
</svg>