<?xml version="1.0" encoding="UTF-8"?>
<svg id="Layer_1" xmlns="http://www.w3.org/2000/svg" version="1.1" viewBox="0 0 72 72">
  <!-- Generator: Adobe Illustrator 30.1.0, SVG Export Plug-In . SVG Version: 2.1.1 Build 136)  -->
  <circle id="Outer" cx="36" cy="36" r="29.69" fill="none" stroke="#000" stroke-width="12.62"/>
  <g>
    <g>
      <rect x="33.7" y="45.47" width="4.56" height="4.56"/>
      <path d="M37.25,46.48v2.54h-2.54v-2.54h2.54M39.27,44.46h-6.59v6.59h6.59v-6.59h0Z"/>
    </g>
    <g>
      <path d="M33.71,41.02l-.02-1.96c0-1.46.54-2.85,1.52-3.93l2.51-2.78c.52-.58.81-1.32.81-2.09,0-.94-.77-1.71-1.72-1.71h-1.61c-.95,0-1.73.77-1.73,1.71v1.01h-4.58v-1.01c0-3.46,2.83-6.27,6.31-6.27h1.61c3.48,0,6.31,2.81,6.31,6.27,0,1.9-.7,3.73-1.98,5.14l-2.51,2.78c-.23.25-.35.54-.35.87l-.02,1.97h-4.54Z"/>
      <path d="M36.81,25c2.92,0,5.3,2.36,5.3,5.26,0,1.65-.61,3.23-1.72,4.46l-2.51,2.78c-.39.43-.6.97-.61,1.54v.96h-2.55v-.96c0-1.2.44-2.35,1.25-3.24l2.51-2.78c.69-.76,1.07-1.74,1.07-2.77,0-1.5-1.23-2.72-2.74-2.72h-1.61c-1.51,0-2.74,1.22-2.74,2.72h-2.56c0-2.9,2.38-5.26,5.3-5.26h1.61M36.81,22.98h-1.61c-4.04,0-7.32,3.27-7.32,7.28v2.02h6.61v-2.02c0-.38.32-.69.71-.69h1.61c.39,0,.71.31.71.69,0,.52-.19,1.02-.54,1.41l-2.51,2.78c-1.14,1.26-1.77,2.89-1.78,4.59v.98s.03,2.01.03,2.01h6.55l.02-2v-.96c0-.07.02-.13.09-.21l2.51-2.79c1.45-1.6,2.24-3.67,2.24-5.82,0-4.02-3.28-7.28-7.32-7.28h0Z"/>
    </g>
  </g>
</svg>