<?xml version="1.0" encoding="UTF-8"?>
<svg id="Layer_1" xmlns="http://www.w3.org/2000/svg" version="1.1" viewBox="0 0 72 72">
  <!-- Generator: Adobe Illustrator 30.1.0, SVG Export Plug-In . SVG Version: 2.1.1 Build 136)  -->
  <circle id="Outer" cx="36" cy="36" r="32.23" fill="none" stroke="#000" stroke-width="7.54"/>
  <g>
    <g>
      <rect x="33.73" y="47.41" width="4.51" height="4.51"/>
      <path d="M37.67,47.97v3.38h-3.38v-3.38h3.38M38.79,46.84h-5.63v5.63h5.63v-5.63h0Z"/>
    </g>
    <g>
      <path d="M33.73,42.5l-.02-1.84c0-1.75.65-3.41,1.82-4.7l3.35-3.71c.82-.91,1.28-2.09,1.28-3.31,0-1.69-1.38-3.06-3.09-3.06h-2.15c-1.7,0-3.09,1.37-3.09,3.06v.56h-4.54v-.56c0-4.18,3.42-7.57,7.62-7.57h2.15c4.2,0,7.62,3.4,7.62,7.57,0,2.34-.87,4.59-2.44,6.33l-3.35,3.71c-.43.48-.66,1.06-.66,1.68l-.02,1.84h-4.5Z"/>
      <path d="M37.08,21.93c3.89,0,7.06,3.15,7.06,7.01,0,2.2-.81,4.31-2.29,5.95l-3.35,3.71c-.52.57-.81,1.29-.81,2.06v1.28h-3.39v-1.28c0-1.6.59-3.13,1.66-4.32l3.35-3.71c.92-1.02,1.42-2.33,1.42-3.69,0-2-1.64-3.62-3.65-3.62h-2.15c-2.01,0-3.65,1.63-3.65,3.62h-3.41c0-3.87,3.17-7.01,7.06-7.01h2.15M37.08,20.81h-2.15c-4.51,0-8.19,3.65-8.19,8.14v1.12h5.66v-1.12c0-1.38,1.13-2.5,2.52-2.5h2.15c1.39,0,2.52,1.12,2.52,2.5,0,1.08-.4,2.13-1.13,2.93l-3.35,3.71c-1.26,1.39-1.96,3.19-1.96,5.07v1.29s.02,1.12.02,1.12h5.61v-1.11s.02-1.28.02-1.28c0-.49.18-.94.52-1.32l3.35-3.71c1.67-1.84,2.58-4.23,2.58-6.7,0-4.49-3.67-8.14-8.19-8.14h0Z"/>
    </g>
  </g>
</svg>