<?xml version="1.0" encoding="UTF-8"?>
<svg id="Layer_1" xmlns="http://www.w3.org/2000/svg" version="1.1" viewBox="0 0 70 70">
  <!-- Generator: Adobe Illustrator 30.1.0, SVG Export Plug-In . SVG Version: 2.1.1 Build 136)  -->
  <circle id="Outer" cx="35" cy="35" r="30.1" fill="none" stroke="#000" stroke-width="9.8"/>
  <g>
    <g>
      <rect x="32.78" y="45.15" width="4.4" height="4.4"/>
      <path d="M36.41,45.92v2.87h-2.87v-2.87h2.87M37.95,44.39h-5.93v5.93h5.93v-5.93h0Z"/>
    </g>
    <g>
      <path d="M32.79,40.57l-.02-1.84c0-1.55.58-3.04,1.62-4.18l2.84-3.15c.65-.72,1.01-1.65,1.01-2.61,0-1.27-1.04-2.31-2.33-2.31h-1.82c-1.28,0-2.33,1.03-2.33,2.31v.77h-4.42v-.77c0-3.7,3.03-6.71,6.75-6.71h1.82c3.72,0,6.75,3.01,6.75,6.71,0,2.05-.76,4.03-2.14,5.56l-2.84,3.15c-.32.35-.49.78-.49,1.24l-.02,1.85h-4.38Z"/>
      <path d="M35.91,22.84c3.3,0,5.99,2.67,5.99,5.94,0,1.86-.69,3.66-1.94,5.04l-2.84,3.15c-.44.49-.68,1.09-.69,1.75v1.08h-2.88v-1.08c0-1.36.5-2.65,1.41-3.66l2.84-3.15c.78-.86,1.21-1.97,1.21-3.13,0-1.69-1.39-3.07-3.09-3.07h-1.82c-1.71,0-3.09,1.38-3.09,3.07h-2.89c0-3.28,2.69-5.94,5.99-5.94h1.82M35.91,21.31h-1.82c-4.15,0-7.52,3.35-7.52,7.48v1.53h5.95v-1.53c0-.85.7-1.54,1.56-1.54h1.82c.86,0,1.56.69,1.56,1.54,0,.78-.29,1.52-.81,2.1l-2.84,3.15c-1.16,1.29-1.81,2.95-1.81,4.68v1.1s.02,1.52.02,1.52h5.9l.02-1.52v-1.08c.01-.28.11-.52.3-.73l2.84-3.15c1.51-1.67,2.34-3.83,2.34-6.07,0-4.12-3.37-7.48-7.52-7.48h0Z"/>
    </g>
  </g>
</svg>