<?xml version="1.0" encoding="UTF-8"?>
<svg id="Layer_1" xmlns="http://www.w3.org/2000/svg" version="1.1" viewBox="0 0 128 128">
  <!-- Generator: Adobe Illustrator 30.1.0, SVG Export Plug-In . SVG Version: 2.1.1 Build 136)  -->
  <circle id="Outer" cx="64" cy="64" r="52.78" fill="none" stroke="#000" stroke-width="22.44"/>
  <g>
    <g>
      <rect x="59.91" y="80.83" width="8.11" height="8.11"/>
      <path d="M66.22,82.63v4.51h-4.51v-4.51h4.51M69.82,79.03h-11.71v11.71h11.71v-11.71h0Z"/>
    </g>
    <g>
      <path d="M59.94,72.93l-.03-3.49c0-2.6.97-5.07,2.7-6.99l4.46-4.95c.92-1.02,1.43-2.34,1.43-3.71,0-1.67-1.38-3.03-3.07-3.03h-2.87c-1.69,0-3.07,1.36-3.07,3.03v1.8h-8.15v-1.8c0-6.15,5.03-11.15,11.22-11.15h2.87c6.18,0,11.21,5,11.21,11.15,0,3.38-1.25,6.62-3.52,9.14l-4.47,4.95c-.41.45-.61.97-.61,1.55l-.03,3.5h-8.08Z"/>
      <path d="M65.43,44.45c5.19,0,9.42,4.2,9.42,9.35,0,2.93-1.09,5.75-3.06,7.93l-4.47,4.95c-.69.77-1.08,1.72-1.08,2.75l-.02,1.71h-4.51l-.02-1.71c0-2.14.8-4.17,2.23-5.76l4.47-4.95c1.22-1.35,1.9-3.1,1.9-4.92,0-2.66-2.18-4.83-4.87-4.83h-2.87c-2.68,0-4.87,2.17-4.87,4.83h-4.55c0-5.15,4.22-9.35,9.42-9.35h2.87M65.43,40.85h-2.87c-7.18,0-13.02,5.81-13.02,12.95v3.6h11.75v-3.6c0-.68.57-1.23,1.27-1.23h2.87c.7,0,1.27.55,1.27,1.23,0,.92-.34,1.81-.97,2.51l-4.47,4.95c-2.03,2.24-3.15,5.14-3.16,8.16l.02,1.75.03,3.57h11.64l.04-3.56.02-1.71c0-.12.02-.22.15-.37l4.47-4.95c2.57-2.85,3.98-6.52,3.98-10.35,0-7.14-5.84-12.95-13.02-12.95h0Z"/>
    </g>
  </g>
</svg>