<?xml version="1.0" encoding="UTF-8"?>
<svg id="Layer_1" xmlns="http://www.w3.org/2000/svg" version="1.1" viewBox="0 0 14 14">
  <!-- Generator: Adobe Illustrator 30.1.0, SVG Export Plug-In . SVG Version: 2.1.1 Build 136)  -->
  <g>
    <g>
      <rect x="6.5" y="3.72" width=".99" height=".99"/>
      <path d="M7.39,3.83v.77h-.77v-.77h.77M7.61,3.61h-1.21v1.21h1.21v-1.21h0Z"/>
    </g>
    <g>
      <polygon points="5.73 10.23 5.73 9.24 6.5 9.24 6.5 7.04 5.73 7.04 5.73 6.05 7.5 6.05 7.5 9.24 8.27 9.24 8.27 10.23 5.73 10.23"/>
      <path d="M7.39,6.16v3.19h.77v.77h-2.32v-.77h.77v-2.42h-.77v-.77h1.55M7.61,5.94h-1.99v1.21h.77v1.98h-.77v1.21h2.76v-1.21h-.77v-3.19h0Z"/>
    </g>
  </g>
  <circle id="Outer" cx="7" cy="7" r="6.27" fill="none" stroke="#000" stroke-width="1.47"/>
</svg>