<?xml version="1.0" encoding="UTF-8"?>
<svg id="Layer_1" xmlns="http://www.w3.org/2000/svg" version="1.1" viewBox="0 0 80 80">
  <!-- Generator: Adobe Illustrator 30.1.0, SVG Export Plug-In . SVG Version: 2.1.1 Build 136)  -->
  <g>
    <g>
      <rect x="37.16" y="21.28" width="5.67" height="5.67"/>
      <path d="M42.21,21.9v4.42h-4.42v-4.42h4.42M43.46,20.65h-6.92v6.92h6.92v-6.92h0Z"/>
    </g>
    <g>
      <polygon points="32.74 58.48 32.74 52.81 37.16 52.81 37.16 40.25 32.74 40.25 32.74 34.58 42.84 34.58 42.84 52.81 47.26 52.81 47.26 58.48 32.74 58.48"/>
      <path d="M42.21,35.21v18.23h4.42v4.42h-13.27v-4.42h4.42v-13.81h-4.42v-4.42h8.85M43.46,33.96h-11.35v6.92h4.42v11.31h-4.42v6.92h15.77v-6.92h-4.42v-18.23h0Z"/>
    </g>
  </g>
  <circle id="Outer" cx="40" cy="40" r="35.81" fill="none" stroke="#000" stroke-width="8.38"/>
</svg>