<?xml version="1.0" encoding="UTF-8"?>
<svg id="Layer_1" xmlns="http://www.w3.org/2000/svg" version="1.1" viewBox="0 0 53 53">
  <!-- Generator: Adobe Illustrator 30.1.0, SVG Export Plug-In . SVG Version: 2.1.1 Build 136)  -->
  <path d="M26.5,5.55c.68,0,1.36.35,1.72,1.06l4.38,8.7c.75,1.49,2.16,2.55,3.8,2.86l9.48,1.78c1.48.28,2.08,2.08,1.07,3.2l-6.91,7.58c-1.07,1.17-1.56,2.75-1.35,4.32l1.35,10.22c.16,1.22-.81,2.19-1.91,2.19-.29,0-.59-.07-.88-.22l-8.29-4.27c-.77-.4-1.61-.59-2.45-.59-.84,0-1.68.2-2.45.59l-8.29,4.27c-.29.15-.59.22-.88.22-1.1,0-2.07-.97-1.91-2.19l1.35-10.23c.21-1.57-.29-3.15-1.35-4.32l-6.91-7.58c-1.02-1.12-.42-2.92,1.07-3.2l9.48-1.78c1.64-.31,3.04-1.36,3.79-2.86l4.38-8.7c.36-.71,1.04-1.06,1.72-1.06M26.5,0C23.66,0,21.1,1.58,19.83,4.11l-4.34,8.62-9.38,1.76c-2.66.5-4.85,2.4-5.71,4.97-.86,2.57-.26,5.41,1.56,7.42l6.85,7.52-1.34,10.14c-.28,2.14.37,4.29,1.78,5.9,1.42,1.62,3.47,2.56,5.62,2.56,1.18,0,2.36-.29,3.42-.83l8.2-4.23,8.2,4.23c1.06.54,2.24.83,3.42.83,2.15,0,4.2-.93,5.62-2.56,1.42-1.61,2.07-3.77,1.78-5.9l-1.34-10.14,6.85-7.52c1.83-2,2.42-4.84,1.56-7.41-.86-2.57-3.05-4.47-5.71-4.97l-9.39-1.76-4.34-8.62C31.9,1.58,29.34,0,26.5,0h0Z"/>
</svg>