<?xml version="1.0" encoding="UTF-8"?>
<svg id="Layer_1" xmlns="http://www.w3.org/2000/svg" version="1.1" viewBox="0 0 80 80">
  <!-- Generator: Adobe Illustrator 30.1.0, SVG Export Plug-In . SVG Version: 2.1.1 Build 136)  -->
  <path d="M40,8.38c1.03,0,2.06.53,2.59,1.6l6.62,13.13c1.14,2.25,3.25,3.85,5.73,4.31l14.31,2.68c2.24.42,3.15,3.14,1.61,4.82l-10.43,11.44c-1.61,1.77-2.36,4.15-2.04,6.52l2.04,15.43c.24,1.84-1.22,3.3-2.88,3.3-.44,0-.89-.1-1.33-.33l-12.52-6.45c-1.16-.6-2.43-.9-3.7-.9-1.27,0-2.54.3-3.7.9l-12.52,6.45c-.44.22-.89.33-1.33.33-1.66,0-3.12-1.46-2.88-3.3l2.04-15.44c.31-2.37-.44-4.75-2.04-6.52l-10.43-11.44c-1.54-1.69-.63-4.41,1.61-4.83l14.31-2.68c2.47-.46,4.59-2.06,5.73-4.31l6.62-13.14c.54-1.07,1.57-1.6,2.59-1.6M40,0C35.71,0,31.85,2.38,29.93,6.21l-6.55,13.01-14.17,2.66c-4.02.75-7.32,3.63-8.62,7.51-1.3,3.88-.4,8.17,2.36,11.19l10.34,11.35-2.02,15.31c-.43,3.23.56,6.47,2.69,8.91,2.15,2.45,5.24,3.86,8.49,3.86,1.78,0,3.57-.43,5.16-1.26l12.38-6.38,12.38,6.38c1.6.82,3.38,1.26,5.16,1.26,3.25,0,6.34-1.41,8.49-3.86,2.14-2.44,3.12-5.69,2.69-8.91l-2.02-15.31,10.34-11.35c2.76-3.02,3.66-7.31,2.36-11.19-1.3-3.88-4.6-6.75-8.62-7.51l-14.17-2.66-6.55-13.01C48.14,2.38,44.28,0,40,0h0Z"/>
</svg>