<?xml version="1.0" encoding="UTF-8"?>
<svg id="Layer_1" xmlns="http://www.w3.org/2000/svg" version="1.1" viewBox="0 0 80 80">
  <!-- Generator: Adobe Illustrator 30.1.0, SVG Export Plug-In . SVG Version: 2.1.1 Build 136)  -->
  <path d="M40,14.03c.84,0,1.69.44,2.13,1.31l5.43,10.79c.93,1.85,2.67,3.16,4.71,3.54l11.76,2.2c1.84.34,2.58,2.58,1.32,3.96l-8.57,9.4c-1.32,1.45-1.94,3.41-1.68,5.36l1.67,12.67c.2,1.51-1.01,2.71-2.36,2.71-.36,0-.73-.08-1.09-.27l-10.28-5.3c-.95-.49-2-.74-3.04-.74-1.04,0-2.08.25-3.04.74l-10.28,5.3c-.36.18-.73.27-1.09.27-1.36,0-2.56-1.2-2.36-2.71l1.67-12.68c.26-1.94-.36-3.9-1.68-5.35l-8.57-9.4c-1.26-1.38-.52-3.62,1.32-3.97l11.76-2.2c2.03-.38,3.77-1.69,4.7-3.54l5.44-10.79c.44-.88,1.29-1.31,2.13-1.31M40,0c-6.23,0-11.85,3.46-14.66,9.03l-3.79,7.53-8.16,1.53c-5.84,1.1-10.65,5.28-12.54,10.92-1.89,5.64-.57,11.88,3.43,16.28l6.26,6.87-1.22,9.28c-.62,4.69.81,9.42,3.92,12.96,3.12,3.56,7.62,5.6,12.35,5.6,2.6,0,5.19-.63,7.51-1.83l6.9-3.55,6.9,3.55c2.32,1.19,4.92,1.83,7.51,1.83,4.72,0,9.22-2.04,12.35-5.6,3.11-3.55,4.54-8.28,3.92-12.96l-1.22-9.28,6.26-6.87c4.01-4.4,5.32-10.63,3.43-16.28-1.89-5.64-6.69-9.82-12.54-10.92l-8.16-1.53-3.79-7.53C51.85,3.46,46.23,0,40,0h0Z"/>
</svg>