<?xml version="1.0" encoding="UTF-8"?>
<svg id="Layer_1" xmlns="http://www.w3.org/2000/svg" version="1.1" viewBox="0 0 36 36">
  <!-- Generator: Adobe Illustrator 30.1.0, SVG Export Plug-In . SVG Version: 2.1.1 Build 136)  -->
  <circle id="Outer" cx="18" cy="18" r="16.12" fill="none" stroke="#000" stroke-width="3.77"/>
  <g>
    <g>
      <rect x="16.86" y="23.7" width="2.25" height="2.25"/>
      <path d="M18.83,23.98v1.69h-1.69v-1.69h1.69M19.4,23.42h-2.82v2.82h2.82v-2.82h0Z"/>
    </g>
    <g>
      <path d="M16.87,21.25v-.92c0-.87.32-1.71.9-2.35l1.67-1.85c.41-.46.64-1.04.64-1.66,0-.84-.69-1.53-1.54-1.53h-1.08c-.85,0-1.54.69-1.54,1.53v.28h-2.27v-.28c0-2.09,1.71-3.79,3.81-3.79h1.08c2.1,0,3.81,1.7,3.81,3.79,0,1.17-.43,2.29-1.22,3.16l-1.67,1.86c-.22.24-.33.53-.33.84v.92h-2.26Z"/>
      <path d="M18.54,10.97c1.95,0,3.53,1.57,3.53,3.51,0,1.1-.41,2.16-1.15,2.97l-1.67,1.86c-.26.29-.4.64-.4,1.03v.64h-1.7v-.64c0-.8.29-1.56.83-2.16l1.67-1.85c.46-.51.71-1.16.71-1.84,0-1-.82-1.81-1.82-1.81h-1.08c-1.01,0-1.82.81-1.82,1.81h-1.71c0-1.93,1.58-3.51,3.53-3.51h1.08M18.54,10.4h-1.08c-2.26,0-4.09,1.82-4.09,4.07v.56h2.83v-.56c0-.69.57-1.25,1.26-1.25h1.08c.7,0,1.26.56,1.26,1.25,0,.54-.2,1.06-.57,1.47l-1.67,1.85c-.63.7-.98,1.6-.98,2.54v.65s.01.56.01.56h2.81v-.56s.01-.64.01-.64c0-.25.09-.47.26-.66l1.68-1.86c.83-.92,1.29-2.11,1.29-3.35,0-2.24-1.84-4.07-4.09-4.07h0Z"/>
    </g>
  </g>
</svg>