<?xml version="1.0" encoding="UTF-8"?>
<svg id="Layer_1" xmlns="http://www.w3.org/2000/svg" version="1.1" viewBox="0 0 31 31">
  <!-- Generator: Adobe Illustrator 30.1.0, SVG Export Plug-In . SVG Version: 2.1.1 Build 136)  -->
  <circle id="Outer" cx="15.5" cy="15.5" r="13.88" fill="none" stroke="#000" stroke-width="3.25"/>
  <g>
    <g>
      <rect x="14.52" y="20.41" width="1.94" height="1.94"/>
      <path d="M16.22,20.65v1.46h-1.46v-1.46h1.46M16.7,20.17h-2.42v2.42h2.42v-2.42h0Z"/>
    </g>
    <g>
      <path d="M14.52,18.3v-.79c0-.75.27-1.47.78-2.03l1.44-1.6c.35-.39.55-.9.55-1.43,0-.73-.6-1.32-1.33-1.32h-.93c-.73,0-1.33.59-1.33,1.32v.24h-1.95v-.24c0-1.8,1.47-3.26,3.28-3.26h.93c1.81,0,3.28,1.46,3.28,3.26,0,1.01-.37,1.97-1.05,2.72l-1.44,1.6c-.19.21-.29.46-.29.73v.79h-1.94Z"/>
      <path d="M15.96,9.44c1.68,0,3.04,1.35,3.04,3.02,0,.95-.35,1.86-.99,2.56l-1.44,1.6c-.22.25-.35.55-.35.89v.55h-1.46v-.55c0-.69.25-1.35.72-1.86l1.44-1.6c.39-.44.61-1,.61-1.59,0-.86-.7-1.56-1.57-1.56h-.93c-.87,0-1.57.7-1.57,1.56h-1.47c0-1.66,1.36-3.02,3.04-3.02h.93M15.96,8.96h-.93c-1.94,0-3.52,1.57-3.52,3.5v.48h2.44v-.48c0-.59.49-1.08,1.09-1.08h.93c.6,0,1.09.48,1.09,1.08,0,.47-.17.92-.49,1.26l-1.44,1.6c-.54.6-.84,1.38-.85,2.18v.56s0,.48,0,.48h2.42v-.48s.01-.55.01-.55c0-.21.08-.41.22-.57l1.44-1.6c.72-.79,1.11-1.82,1.11-2.89,0-1.93-1.58-3.5-3.52-3.5h0Z"/>
    </g>
  </g>
</svg>