<?xml version="1.0" encoding="UTF-8"?>
<svg id="Layer_1" xmlns="http://www.w3.org/2000/svg" version="1.1" viewBox="0 0 8 8">
  <!-- Generator: Adobe Illustrator 30.1.0, SVG Export Plug-In . SVG Version: 2.1.1 Build 136)  -->
  <circle id="Outer" cx="4" cy="4" r="3.44" fill="none" stroke="#000" stroke-width="1.12"/>
  <g>
    <g>
      <rect x="3.75" y="5.16" width=".5" height=".5"/>
      <path d="M4.16,5.25v.33h-.33v-.33h.33M4.34,5.07h-.68v.68h.68v-.68h0Z"/>
    </g>
    <g>
      <path d="M3.75,4.64v-.21c0-.18.06-.35.18-.48l.32-.36c.07-.08.12-.19.12-.3,0-.15-.12-.26-.27-.26h-.21c-.15,0-.27.12-.27.26v.09h-.5v-.09c0-.42.35-.77.77-.77h.21c.43,0,.77.34.77.77,0,.23-.09.46-.24.64l-.32.36s-.06.09-.06.14v.21h-.5Z"/>
      <path d="M4.1,2.61c.38,0,.68.3.68.68,0,.21-.08.42-.22.58l-.32.36c-.05.06-.08.12-.08.2v.12h-.33v-.12c0-.16.06-.3.16-.42l.32-.36c.09-.1.14-.23.14-.36,0-.19-.16-.35-.35-.35h-.21c-.19,0-.35.16-.35.35h-.33c0-.37.31-.68.68-.68h.21M4.1,2.44h-.21c-.47,0-.86.38-.86.85v.18h.68v-.18c0-.1.08-.18.18-.18h.21c.1,0,.18.08.18.18,0,.09-.03.17-.09.24l-.32.36c-.13.15-.21.34-.21.54v.13s0,.17,0,.17h.67v-.17s0-.12,0-.12c0-.03.01-.06.03-.08l.32-.36c.17-.19.27-.44.27-.69,0-.47-.39-.85-.86-.85h0Z"/>
    </g>
  </g>
</svg>