<?xml version="1.0" encoding="UTF-8"?>
<svg id="Layer_1" xmlns="http://www.w3.org/2000/svg" version="1.1" viewBox="0 0 8 8">
  <!-- Generator: Adobe Illustrator 30.1.0, SVG Export Plug-In . SVG Version: 2.1.1 Build 136)  -->
  <circle id="Outer" cx="4" cy="4" r="3.58" fill="none" stroke="#000" stroke-width=".84"/>
  <g>
    <g>
      <polygon points="3.81 5.77 3.75 5.33 4.19 5.27 4.25 5.71 4.25 5.77 3.81 5.77"/>
      <path d="M4.19,5.33v.38h-.38v-.38h.38M4.31,5.2h-.63v.63h.63v-.63h0Z"/>
    </g>
    <g>
      <path d="M3.81,4.72l-.06-.2c0-.19.07-.38.2-.52l.37-.41c.09-.1.14-.23.14-.37,0-.19-.15-.34-.34-.34h-.24c-.19,0-.34.15-.34.34l-.44.06c-.06-.53.32-.9.78-.9h.24c.47,0,.85.38.85.84,0,.26-.1.51-.27.7l-.37.41c-.05.05-.07.12-.07.19v.2h-.44Z"/>
      <path d="M4.12,2.44c.43,0,.78.35.78.78,0,.24-.09.48-.25.66l-.37.41c-.06.06-.09.14-.09.23v.14h-.38v-.14c0-.18.07-.35.18-.48l.37-.41c.1-.11.16-.26.16-.41,0-.22-.18-.4-.41-.4h-.24c-.22,0-.41.18-.41.4h-.38c0-.43.35-.78.78-.78h.24M4.12,2.31h-.24c-.5,0-.91.41-.91.9v.12h.63v-.12c0-.15.13-.28.28-.28h.24c.15,0,.28.12.28.28,0,.12-.04.24-.13.33l-.37.41c-.14.15-.22.35-.22.56v.14s0,.12,0,.12h.62v-.12s0-.14,0-.14c0-.05.02-.1.06-.15l.37-.41c.19-.2.29-.47.29-.74,0-.5-.41-.9-.91-.9h0Z"/>
    </g>
  </g>
</svg>