<?xml version="1.0" encoding="UTF-8"?>
<svg id="Layer_1" xmlns="http://www.w3.org/2000/svg" version="1.1" viewBox="0 0 30 30">
  <!-- Generator: Adobe Illustrator 30.1.0, SVG Export Plug-In . SVG Version: 2.1.1 Build 136)  -->
  <circle id="Outer" cx="15" cy="15" r="12.37" fill="none" stroke="#000" stroke-width="5.26"/>
  <g>
    <g>
      <rect x="14.04" y="18.95" width="1.9" height="1.9"/>
      <path d="M15.52,19.37v1.06h-1.06v-1.06h1.06M16.36,18.52h-2.74v2.74h2.74v-2.74h0Z"/>
    </g>
    <g>
      <path d="M14.05,17.09v-.82c0-.61.22-1.19.63-1.64l1.05-1.16c.22-.24.34-.55.34-.87,0-.39-.32-.71-.72-.71h-.67c-.4,0-.72.32-.72.71v.42h-1.91v-.42c0-1.44,1.18-2.61,2.63-2.61h.67c1.45,0,2.63,1.17,2.63,2.61,0,.79-.29,1.55-.83,2.14l-1.05,1.16c-.09.1-.14.23-.14.36v.82h-1.9Z"/>
      <path d="M15.34,10.42c1.22,0,2.21.98,2.21,2.19,0,.69-.25,1.35-.72,1.86l-1.05,1.16c-.16.18-.25.4-.25.64v.4h-1.06v-.4c0-.5.18-.98.52-1.35l1.05-1.16c.29-.32.44-.73.44-1.15,0-.62-.51-1.13-1.14-1.13h-.67c-.63,0-1.14.51-1.14,1.13h-1.07c0-1.21.99-2.19,2.21-2.19h.67M15.34,9.57h-.67c-1.68,0-3.05,1.36-3.05,3.04v.84h2.75v-.84c0-.16.13-.29.3-.29h.67c.16,0,.3.13.3.29,0,.22-.08.43-.23.59l-1.05,1.16c-.48.53-.74,1.2-.74,1.91v.41s.01.84.01.84h2.73v-.84s.01-.4.01-.4c0-.03,0-.05.03-.09l1.05-1.16c.6-.67.93-1.53.93-2.42,0-1.67-1.37-3.04-3.05-3.04h0Z"/>
    </g>
  </g>
</svg>