<?xml version="1.0" encoding="UTF-8"?>
<svg id="Layer_1" xmlns="http://www.w3.org/2000/svg" version="1.1" viewBox="0 0 30 30">
  <!-- Generator: Adobe Illustrator 30.1.0, SVG Export Plug-In . SVG Version: 2.1.1 Build 136)  -->
  <circle id="Outer" cx="15" cy="15" r="13.43" fill="none" stroke="#000" stroke-width="3.14"/>
  <g>
    <g>
      <rect x="14.05" y="19.75" width="1.88" height="1.88"/>
      <path d="M15.7,19.99v1.41h-1.41v-1.41h1.41M16.16,19.52h-2.35v2.35h2.35v-2.35h0Z"/>
    </g>
    <g>
      <path d="M14.06,17.71v-.76c0-.73.27-1.42.75-1.96l1.4-1.55c.34-.38.53-.87.53-1.38,0-.7-.58-1.28-1.29-1.28h-.9c-.71,0-1.29.57-1.29,1.28v.23h-1.89v-.23c0-1.74,1.42-3.16,3.18-3.16h.9c1.75,0,3.18,1.42,3.18,3.16,0,.97-.36,1.91-1.02,2.64l-1.4,1.55c-.18.2-.28.44-.28.7v.77h-1.88Z"/>
      <path d="M15.45,9.14c1.62,0,2.94,1.31,2.94,2.92,0,.92-.34,1.8-.96,2.48l-1.4,1.55c-.22.24-.34.54-.34.86v.53h-1.41v-.53c0-.67.24-1.3.69-1.8l1.4-1.55c.38-.42.59-.97.59-1.54,0-.83-.68-1.51-1.52-1.51h-.9c-.84,0-1.52.68-1.52,1.51h-1.42c0-1.61,1.32-2.92,2.94-2.92h.9M15.45,8.67h-.9c-1.88,0-3.41,1.52-3.41,3.39v.47h2.36v-.47c0-.57.47-1.04,1.05-1.04h.9c.58,0,1.05.47,1.05,1.04,0,.45-.17.89-.47,1.22l-1.4,1.55c-.52.58-.82,1.33-.82,2.11v.54s0,.46,0,.46h2.34v-.46s.01-.53.01-.53c0-.2.08-.39.22-.55l1.4-1.55c.69-.77,1.08-1.76,1.08-2.79,0-1.87-1.53-3.39-3.41-3.39h0Z"/>
    </g>
  </g>
</svg>