<?xml version="1.0" encoding="UTF-8"?>
<svg id="Layer_1" xmlns="http://www.w3.org/2000/svg" version="1.1" viewBox="0 0 30 30">
  <!-- Generator: Adobe Illustrator 30.1.0, SVG Export Plug-In . SVG Version: 2.1.1 Build 136)  -->
  <circle id="Outer" cx="15" cy="15" r="12.9" fill="none" stroke="#000" stroke-width="4.2"/>
  <g>
    <g>
      <rect x="14.05" y="19.35" width="1.88" height="1.89"/>
      <path d="M15.61,19.68v1.23h-1.23v-1.23h1.23M16.26,19.02h-2.54v2.54h2.54v-2.54h0Z"/>
    </g>
    <g>
      <path d="M14.05,17.39v-.79c0-.67.24-1.3.69-1.79l1.22-1.35c.28-.31.43-.71.43-1.12,0-.55-.45-.99-1-.99h-.78c-.55,0-1,.44-1,.99v.33h-1.9v-.33c0-1.59,1.3-2.88,2.89-2.88h.78c1.6,0,2.89,1.29,2.89,2.88,0,.88-.33,1.73-.92,2.38l-1.22,1.35c-.14.15-.21.33-.21.53v.79h-1.89Z"/>
      <path d="M15.39,9.79c1.41,0,2.57,1.14,2.57,2.55,0,.8-.3,1.57-.83,2.16l-1.22,1.35c-.19.21-.29.47-.29.75v.46h-1.23v-.46c0-.58.21-1.14.6-1.57l1.22-1.35c.33-.37.52-.84.52-1.34,0-.73-.59-1.32-1.33-1.32h-.78c-.73,0-1.33.59-1.33,1.32h-1.24c0-1.4,1.15-2.55,2.57-2.55h.78M15.39,9.13h-.78c-1.78,0-3.22,1.44-3.22,3.2v.66h2.55v-.66c0-.36.3-.66.67-.66h.78c.37,0,.67.3.67.66,0,.33-.12.65-.35.9l-1.22,1.35c-.5.55-.77,1.26-.78,2.01v.47s0,.65,0,.65h2.53v-.65s.01-.46.01-.46c0-.12.04-.22.12-.31l1.22-1.35c.65-.72,1-1.64,1-2.6,0-1.77-1.45-3.2-3.22-3.2h0Z"/>
    </g>
  </g>
</svg>