<?xml version="1.0" encoding="UTF-8"?>
<svg id="Layer_1" xmlns="http://www.w3.org/2000/svg" version="1.1" viewBox="0 0 47 47">
  <!-- Generator: Adobe Illustrator 30.1.0, SVG Export Plug-In . SVG Version: 2.1.1 Build 136)  -->
  <circle id="Outer" cx="23.5" cy="23.5" r="20.21" fill="none" stroke="#000" stroke-width="6.58"/>
  <g>
    <g>
      <rect x="22.01" y="30.32" width="2.95" height="2.95"/>
      <path d="M24.45,30.83v1.92h-1.92v-1.92h1.92M25.48,29.8h-3.98v3.98h3.98v-3.98h0Z"/>
    </g>
    <g>
      <path d="M22.02,27.24v-1.24c0-1.04.38-2.04,1.07-2.81l1.91-2.11c.44-.48.68-1.11.68-1.75,0-.85-.7-1.55-1.56-1.55h-1.22c-.86,0-1.56.69-1.56,1.55v.51h-2.97v-.51c0-2.48,2.03-4.5,4.53-4.5h1.22c2.5,0,4.53,2.02,4.53,4.5,0,1.38-.51,2.7-1.44,3.73l-1.91,2.11c-.21.24-.33.52-.33.83v1.24h-2.95Z"/>
      <path d="M24.11,15.34c2.22,0,4.02,1.79,4.02,3.99,0,1.25-.46,2.45-1.31,3.39l-1.91,2.11c-.3.33-.46.73-.46,1.17v.73h-1.93v-.73c0-.91.33-1.78.95-2.46l1.91-2.11c.52-.58.81-1.32.81-2.1,0-1.14-.93-2.06-2.08-2.06h-1.22c-1.15,0-2.08.93-2.08,2.06h-1.94c0-2.2,1.8-3.99,4.02-3.99h1.22M24.11,14.31h-1.22c-2.78,0-5.05,2.25-5.05,5.02v1.03h4v-1.03c0-.57.47-1.03,1.05-1.03h1.22c.58,0,1.05.46,1.05,1.03,0,.52-.19,1.02-.54,1.41l-1.91,2.11c-.78.86-1.21,1.98-1.22,3.15v.74s.02,1.02.02,1.02h3.96v-1.02s.02-.73.02-.73c0-.19.07-.35.19-.49l1.91-2.11c1.01-1.12,1.57-2.57,1.57-4.08,0-2.77-2.26-5.02-5.05-5.02h0Z"/>
    </g>
  </g>
</svg>