<?xml version="1.0" encoding="UTF-8"?>
<svg id="Layer_1" xmlns="http://www.w3.org/2000/svg" version="1.1" viewBox="0 0 47 47">
  <!-- Generator: Adobe Illustrator 30.1.0, SVG Export Plug-In . SVG Version: 2.1.1 Build 136)  -->
  <circle id="Outer" cx="23.5" cy="23.5" r="19.38" fill="none" stroke="#000" stroke-width="8.24"/>
  <g>
    <g>
      <rect x="22" y="29.68" width="2.98" height="2.98"/>
      <path d="M24.32,30.34v1.66h-1.66v-1.66h1.66M25.64,29.02h-4.3v4.3h4.3v-4.3h0Z"/>
    </g>
    <g>
      <path d="M22.01,26.78v-1.28c0-.96.34-1.86.98-2.57l1.64-1.82c.34-.38.53-.86.53-1.36,0-.61-.5-1.11-1.13-1.11h-1.05c-.62,0-1.13.5-1.13,1.11v.66h-2.99v-.66c0-2.26,1.85-4.09,4.12-4.09h1.05c2.27,0,4.12,1.84,4.12,4.09,0,1.24-.46,2.43-1.29,3.36l-1.64,1.82c-.15.16-.22.36-.22.57v1.29h-2.98Z"/>
      <path d="M24.03,16.32c1.91,0,3.46,1.54,3.46,3.43,0,1.08-.4,2.11-1.12,2.91l-1.64,1.82c-.25.28-.39.63-.4,1.01v.63h-1.66v-.63c0-.78.29-1.53.81-2.12l1.64-1.82c.45-.5.7-1.14.7-1.81,0-.98-.8-1.77-1.79-1.77h-1.05c-.99,0-1.79.8-1.79,1.77h-1.67c0-1.89,1.55-3.43,3.46-3.43h1.05M24.03,15h-1.05c-2.64,0-4.78,2.13-4.78,4.75v1.32h4.31v-1.32c0-.25.21-.45.47-.45h1.05c.26,0,.47.2.47.45,0,.34-.13.67-.36.92l-1.64,1.82c-.74.82-1.16,1.89-1.16,3v.64s.02,1.31.02,1.31h4.27v-1.31s.02-.63.02-.63c0-.04,0-.08.05-.14l1.64-1.82c.94-1.05,1.46-2.39,1.46-3.8,0-2.62-2.14-4.75-4.78-4.75h0Z"/>
    </g>
  </g>
</svg>