<?xml version="1.0" encoding="UTF-8"?>
<svg id="Layer_1" xmlns="http://www.w3.org/2000/svg" version="1.1" viewBox="0 0 74 74">
  <!-- Generator: Adobe Illustrator 30.1.0, SVG Export Plug-In . SVG Version: 2.1.1 Build 136)  -->
  <circle id="Outer" cx="37" cy="37" r="30.51" fill="none" stroke="#000" stroke-width="12.97"/>
  <g>
    <g>
      <rect x="34.64" y="46.73" width="4.69" height="4.69"/>
      <path d="M38.28,47.77v2.61h-2.61v-2.61h2.61M40.37,45.69h-6.77v6.77h6.77v-6.77h0Z"/>
    </g>
    <g>
      <path d="M34.65,42.16l-.02-2.02c0-1.5.56-2.93,1.56-4.04l2.58-2.86c.53-.59.83-1.35.83-2.15,0-.97-.79-1.75-1.77-1.75h-1.66c-.98,0-1.77.79-1.77,1.75v1.04h-4.71v-1.04c0-3.55,2.91-6.45,6.48-6.45h1.66c3.58,0,6.48,2.89,6.48,6.45,0,1.95-.72,3.83-2.04,5.28l-2.58,2.86c-.24.26-.35.56-.36.89l-.02,2.02h-4.67Z"/>
      <path d="M37.83,25.7c3,0,5.44,2.43,5.44,5.41,0,1.7-.63,3.32-1.77,4.59l-2.58,2.86c-.4.44-.62.99-.62,1.59v.99h-2.62v-.99c0-1.24.45-2.41,1.28-3.33l2.58-2.86c.71-.78,1.1-1.79,1.1-2.84,0-1.54-1.26-2.79-2.81-2.79h-1.66c-1.55,0-2.81,1.25-2.81,2.79h-2.63c0-2.98,2.44-5.41,5.44-5.41h1.66M37.83,23.61h-1.66c-4.15,0-7.52,3.36-7.52,7.49v2.08h6.79v-2.08c0-.39.33-.71.73-.71h1.66c.4,0,.73.32.73.71,0,.53-.2,1.05-.56,1.45l-2.58,2.86c-1.17,1.3-1.82,2.97-1.83,4.72v1.01s.03,2.06.03,2.06h6.73l.02-2.06v-.99c.01-.07.02-.13.1-.21l2.58-2.86c1.49-1.65,2.3-3.77,2.3-5.98,0-4.13-3.38-7.49-7.52-7.49h0Z"/>
    </g>
  </g>
</svg>