<?xml version="1.0" encoding="UTF-8"?>
<svg id="Layer_1" xmlns="http://www.w3.org/2000/svg" version="1.1" viewBox="0 0 74 74">
  <!-- Generator: Adobe Illustrator 30.1.0, SVG Export Plug-In . SVG Version: 2.1.1 Build 136)  -->
  <circle id="Outer" cx="37" cy="37" r="33.13" fill="none" stroke="#000" stroke-width="7.75"/>
  <g>
    <g>
      <rect x="34.66" y="48.72" width="4.63" height="4.63"/>
      <path d="M38.72,49.3v3.48h-3.48v-3.48h3.48M39.87,48.14h-5.79v5.79h5.79v-5.79h0Z"/>
    </g>
    <g>
      <path d="M34.67,43.69l-.02-1.89c0-1.79.67-3.51,1.87-4.83l3.44-3.81c.85-.94,1.31-2.15,1.31-3.4,0-1.73-1.42-3.15-3.17-3.15h-2.21c-1.75,0-3.17,1.41-3.17,3.15v.58h-4.66v-.58c0-4.29,3.51-7.78,7.83-7.78h2.21c4.32,0,7.83,3.49,7.83,7.78,0,2.4-.89,4.71-2.51,6.5l-3.44,3.81c-.45.49-.68,1.09-.68,1.73l-.02,1.89h-4.62Z"/>
      <path d="M38.11,22.54c4,0,7.26,3.23,7.26,7.21,0,2.26-.84,4.43-2.36,6.11l-3.44,3.81c-.53.59-.83,1.32-.83,2.12v1.31h-3.49v-1.31c0-1.65.6-3.22,1.71-4.44l3.44-3.81c.94-1.04,1.46-2.39,1.46-3.79,0-2.05-1.68-3.72-3.75-3.72h-2.21c-2.07,0-3.75,1.67-3.75,3.72h-3.51c0-3.97,3.26-7.21,7.26-7.21h2.21M38.11,21.39h-2.21c-4.64,0-8.41,3.75-8.41,8.36v1.16h5.82v-1.16c0-1.42,1.16-2.57,2.59-2.57h2.21c1.43,0,2.59,1.15,2.59,2.57,0,1.11-.41,2.19-1.16,3.02l-3.44,3.81c-1.29,1.43-2.01,3.28-2.02,5.21v1.33s.02,1.15.02,1.15h5.77v-1.14s.02-1.31.02-1.31c0-.5.19-.97.53-1.35l3.44-3.82c1.71-1.9,2.65-4.34,2.65-6.89,0-4.61-3.77-8.36-8.41-8.36h0Z"/>
    </g>
  </g>
</svg>