<?xml version="1.0" encoding="UTF-8"?>
<svg id="Layer_1" xmlns="http://www.w3.org/2000/svg" version="1.1" viewBox="0 0 92 92">
  <!-- Generator: Adobe Illustrator 30.1.0, SVG Export Plug-In . SVG Version: 2.1.1 Build 136)  -->
  <circle id="Outer" cx="46" cy="46" r="37.94" fill="none" stroke="#000" stroke-width="16.13"/>
  <g>
    <g>
      <rect x="43.06" y="58.1" width="5.83" height="5.83"/>
      <path d="M47.6,59.39v3.24h-3.24v-3.24h3.24M50.18,56.81h-8.42v8.42h8.42v-8.42h0Z"/>
    </g>
    <g>
      <path d="M43.08,52.42l-.02-2.51c0-1.87.7-3.65,1.94-5.02l3.21-3.55c.66-.73,1.03-1.68,1.03-2.67,0-1.2-.99-2.18-2.2-2.18h-2.06c-1.22,0-2.2.98-2.2,2.18v1.29h-5.86v-1.29c0-4.42,3.62-8.01,8.06-8.01h2.06c4.45,0,8.06,3.6,8.06,8.01,0,2.43-.9,4.76-2.53,6.57l-3.21,3.56c-.29.32-.44.7-.44,1.11l-.03,2.52h-5.8Z"/>
      <path d="M47.03,31.95c3.73,0,6.77,3.02,6.77,6.72,0,2.11-.78,4.13-2.2,5.7l-3.21,3.56c-.5.55-.77,1.23-.78,1.97v1.23h-3.25v-1.23c0-1.54.56-3,1.59-4.14l3.21-3.56c.88-.97,1.36-2.23,1.36-3.54,0-1.91-1.57-3.47-3.5-3.47h-2.06c-1.93,0-3.5,1.56-3.5,3.47h-3.27c0-3.7,3.04-6.72,6.77-6.72h2.06M47.03,29.36h-2.06c-5.16,0-9.35,4.18-9.35,9.31v2.59h8.44v-2.59c0-.49.41-.89.91-.89h2.06c.5,0,.91.4.91.89,0,.66-.25,1.3-.7,1.8l-3.21,3.56c-1.46,1.61-2.26,3.69-2.27,5.87v1.26s.03,2.56.03,2.56h8.37l.03-2.56v-1.23c.01-.08.03-.16.12-.26l3.21-3.56c1.85-2.05,2.86-4.69,2.86-7.44,0-5.13-4.2-9.31-9.35-9.31h0Z"/>
    </g>
  </g>
</svg>