<?xml version="1.0" encoding="UTF-8"?>
<svg id="Layer_1" xmlns="http://www.w3.org/2000/svg" version="1.1" viewBox="0 0 40 40">
  <!-- Generator: Adobe Illustrator 30.1.0, SVG Export Plug-In . SVG Version: 2.1.1 Build 136)  -->
  <g>
    <g>
      <rect x="18.58" y="10.64" width="2.84" height="2.84"/>
      <path d="M21.11,10.95v2.21h-2.21v-2.21h2.21M21.73,10.33h-3.46v3.46h3.46v-3.46h0Z"/>
    </g>
    <g>
      <polygon points="16.37 29.24 16.37 26.41 18.58 26.41 18.58 20.13 16.37 20.13 16.37 17.29 21.42 17.29 21.42 26.41 23.63 26.41 23.63 29.24 16.37 29.24"/>
      <path d="M21.11,17.6v9.12h2.21v2.21h-6.63v-2.21h2.21v-6.9h-2.21v-2.21h4.42M21.73,16.98h-5.67v3.46h2.21v5.65h-2.21v3.46h7.88v-3.46h-2.21v-9.12h0Z"/>
    </g>
  </g>
  <circle id="Outer" cx="20" cy="20" r="17.91" fill="none" stroke="#000" stroke-width="4.19"/>
</svg>