<?xml version="1.0" encoding="UTF-8"?>
<svg id="Layer_1" xmlns="http://www.w3.org/2000/svg" version="1.1" viewBox="0 0 40 40">
  <!-- Generator: Adobe Illustrator 30.1.0, SVG Export Plug-In . SVG Version: 2.1.1 Build 136)  -->
  <g>
    <g>
      <rect x="18.56" y="11.15" width="2.88" height="2.88"/>
      <path d="M21,11.58v2.01h-2.01v-2.01h2.01M21.88,10.71h-3.76v3.76h3.76v-3.76h0Z"/>
    </g>
    <g>
      <polygon points="16.56 28.62 16.56 25.74 18.56 25.74 18.56 20.36 16.56 20.36 16.56 17.48 21.44 17.48 21.44 25.74 23.45 25.74 23.45 28.62 16.56 28.62"/>
      <path d="M21,17.91v8.26h2v2h-6.01v-2h2v-6.26h-2v-2h4.01M21.88,17.04h-5.76v3.75h2v4.51h-2v3.75h7.76v-3.75h-2v-8.26h0Z"/>
    </g>
  </g>
  <circle id="Outer" cx="20" cy="20" r="17.2" fill="none" stroke="#000" stroke-width="5.6"/>
</svg>