<?xml version="1.0" encoding="UTF-8"?>
<svg id="Layer_1" xmlns="http://www.w3.org/2000/svg" version="1.1" viewBox="0 0 126 126">
  <!-- Generator: Adobe Illustrator 30.1.0, SVG Export Plug-In . SVG Version: 2.1.1 Build 136)  -->
  <path d="M63,17.64c1.47,0,2.95.76,3.72,2.29l9.49,18.84c1.63,3.23,4.67,5.52,8.22,6.18l20.53,3.85c3.21.6,4.51,4.5,2.31,6.92l-14.96,16.41c-2.31,2.53-3.38,5.96-2.93,9.36l2.92,22.13c.35,2.64-1.76,4.73-4.13,4.73-.63,0-1.28-.15-1.9-.47l-17.96-9.25c-1.66-.86-3.48-1.29-5.3-1.29-1.82,0-3.64.43-5.3,1.29l-17.96,9.25c-.63.32-1.28.47-1.9.47-2.37,0-4.48-2.09-4.13-4.73l2.92-22.14c.45-3.4-.62-6.82-2.93-9.35l-14.96-16.41c-2.2-2.42-.9-6.32,2.31-6.92l20.53-3.85c3.55-.67,6.59-2.95,8.21-6.18l9.49-18.84c.77-1.53,2.25-2.29,3.72-2.29M63,0C54.71,0,47.25,4.6,43.52,12l-8.15,16.17-17.58,3.3c-7.77,1.46-14.15,7.02-16.66,14.51-2.51,7.5-.76,15.79,4.56,21.63l13.07,14.34-2.55,19.37c-.82,6.23,1.08,12.51,5.21,17.23,4.15,4.73,10.13,7.45,16.41,7.45,3.45,0,6.9-.84,9.98-2.43l15.18-7.82,15.18,7.82c3.08,1.59,6.53,2.43,9.98,2.43,6.28,0,12.26-2.72,16.41-7.45,4.13-4.71,6.03-10.99,5.21-17.23l-2.55-19.37,13.08-14.35c5.33-5.84,7.07-14.13,4.56-21.63-2.51-7.49-8.89-13.05-16.66-14.51l-17.59-3.3-8.15-16.17C78.74,4.6,71.28,0,63,0h0Z"/>
</svg>