<?xml version="1.0" encoding="UTF-8"?>
<svg id="Layer_1" xmlns="http://www.w3.org/2000/svg" version="1.1" viewBox="0 0 46 46">
  <!-- Generator: Adobe Illustrator 30.1.0, SVG Export Plug-In . SVG Version: 2.1.1 Build 136)  -->
  <g>
    <g>
      <rect x="21.37" y="12.23" width="3.26" height="3.26"/>
      <path d="M24.27,12.59v2.54h-2.54v-2.54h2.54M24.99,11.87h-3.98v3.98h3.98v-3.98h0Z"/>
    </g>
    <g>
      <polygon points="18.83 33.63 18.83 30.37 21.37 30.37 21.37 23.15 18.83 23.15 18.83 19.88 24.63 19.88 24.63 30.37 27.17 30.37 27.17 33.63 18.83 33.63"/>
      <path d="M24.27,20.24v10.48h2.54v2.54h-7.63v-2.54h2.54v-7.94h-2.54v-2.54h5.09M24.99,19.52h-6.52v3.98h2.54v6.5h-2.54v3.98h9.07v-3.98h-2.54v-10.48h0Z"/>
    </g>
  </g>
  <circle id="Outer" cx="23" cy="23" r="20.59" fill="none" stroke="#000" stroke-width="4.82"/>
</svg>