<?xml version="1.0" encoding="UTF-8"?>
<svg id="Layer_1" xmlns="http://www.w3.org/2000/svg" version="1.1" viewBox="0 0 43 43">
  <!-- Generator: Adobe Illustrator 30.1.0, SVG Export Plug-In . SVG Version: 2.1.1 Build 136)  -->
  <path d="M21.5,4.5c.55,0,1.11.29,1.39.86l3.56,7.06c.61,1.21,1.75,2.07,3.08,2.32l7.69,1.44c1.2.23,1.69,1.69.87,2.59l-5.61,6.15c-.86.95-1.27,2.23-1.1,3.51l1.09,8.29c.13.99-.66,1.77-1.55,1.77-.24,0-.48-.06-.71-.18l-6.73-3.47c-.62-.32-1.31-.48-1.99-.48-.68,0-1.36.16-1.99.48l-6.73,3.47c-.23.12-.48.18-.71.18-.89,0-1.68-.78-1.55-1.77l1.09-8.3c.17-1.27-.23-2.55-1.1-3.5l-5.61-6.15c-.83-.91-.34-2.37.87-2.59l7.69-1.44c1.33-.25,2.47-1.11,3.08-2.32l3.56-7.06c.29-.57.84-.86,1.39-.86M21.5,0c-2.3,0-4.38,1.28-5.41,3.34l-3.52,6.99-7.61,1.43c-2.16.4-3.93,1.95-4.63,4.04-.7,2.09-.21,4.39,1.27,6.02l5.56,6.1-1.09,8.23c-.23,1.73.3,3.48,1.45,4.79,1.16,1.32,2.82,2.07,4.56,2.07.96,0,1.92-.23,2.77-.68l6.66-3.43,6.66,3.43c.86.44,1.82.68,2.77.68,1.74,0,3.41-.76,4.56-2.07,1.15-1.31,1.68-3.06,1.45-4.79l-1.09-8.23,5.56-6.1c1.48-1.63,1.97-3.93,1.27-6.02-.7-2.08-2.47-3.63-4.63-4.03l-7.62-1.43-3.52-6.99c-1.04-2.06-3.11-3.34-5.41-3.34h0Z"/>
</svg>