<?xml version="1.0" encoding="UTF-8"?>
<svg id="Layer_1" xmlns="http://www.w3.org/2000/svg" version="1.1" viewBox="0 0 92 92">
  <!-- Generator: Adobe Illustrator 30.1.0, SVG Export Plug-In . SVG Version: 2.1.1 Build 136)  -->
  <g>
    <g>
      <rect x="42.74" y="24.47" width="6.52" height="6.52"/>
      <path d="M48.54,25.19v5.09h-5.09v-5.09h5.09M49.98,23.75h-7.96v7.96h7.96v-7.96h0Z"/>
    </g>
    <g>
      <polygon points="37.65 67.26 37.65 60.73 42.74 60.73 42.74 46.29 37.65 46.29 37.65 39.77 49.26 39.77 49.26 60.73 54.35 60.73 54.35 67.26 37.65 67.26"/>
      <path d="M48.54,40.49v20.97h5.09v5.09h-15.26v-5.09h5.09v-15.88h-5.09v-5.09h10.17M49.98,39.05h-13.05v7.96h5.09v13h-5.09v7.96h18.13v-7.96h-5.09v-20.97h0Z"/>
    </g>
  </g>
  <circle id="Outer" cx="46" cy="46" r="41.18" fill="none" stroke="#000" stroke-width="9.63"/>
</svg>