<?xml version="1.0" encoding="UTF-8"?>
<svg id="Layer_1" xmlns="http://www.w3.org/2000/svg" version="1.1" viewBox="0 0 82 82">
  <!-- Generator: Adobe Illustrator 30.1.0, SVG Export Plug-In . SVG Version: 2.1.1 Build 136)  -->
  <g>
    <g>
      <rect x="38.09" y="21.81" width="5.81" height="5.81"/>
      <path d="M43.27,22.45v4.53h-4.53v-4.53h4.53M44.55,21.17h-7.1v7.1h7.1v-7.1h0Z"/>
    </g>
    <g>
      <polygon points="33.56 59.95 33.56 54.13 38.09 54.13 38.09 41.26 33.56 41.26 33.56 35.44 43.91 35.44 43.91 54.13 48.44 54.13 48.44 59.95 33.56 59.95"/>
      <path d="M43.27,36.09v18.69h4.53v4.53h-13.6v-4.53h4.53v-14.15h-4.53v-4.53h9.07M44.55,34.8h-11.63v7.1h4.53v11.59h-4.53v7.1h16.16v-7.1h-4.53v-18.69h0Z"/>
    </g>
  </g>
  <circle id="Outer" cx="41" cy="41" r="36.71" fill="none" stroke="#000" stroke-width="8.58"/>
</svg>