<?xml version="1.0" encoding="UTF-8"?>
<svg id="Layer_1" xmlns="http://www.w3.org/2000/svg" version="1.1" viewBox="0 0 82 82">
  <!-- Generator: Adobe Illustrator 30.1.0, SVG Export Plug-In . SVG Version: 2.1.1 Build 136)  -->
  <g>
    <g>
      <rect x="38" y="23.89" width="6" height="6"/>
      <path d="M42.85,25.04v3.69h-3.69v-3.69h3.69M45.15,22.74h-8.31v8.31h8.31v-8.31h0Z"/>
    </g>
    <g>
      <polygon points="34.3 57.42 34.3 51.42 38 51.42 38 42.19 34.3 42.19 34.3 36.19 44 36.19 44 51.42 47.7 51.42 47.7 57.42 34.3 57.42"/>
      <path d="M42.85,37.34v15.23h3.69v3.69h-11.08v-3.69h3.69v-11.53h-3.69v-3.69h7.39M45.15,35.03h-12v8.31h3.69v6.92h-3.69v8.31h15.7v-8.31h-3.69v-15.23h0Z"/>
    </g>
  </g>
  <circle id="Outer" cx="41" cy="41" r="33.81" fill="none" stroke="#000" stroke-width="14.38"/>
</svg>