<?xml version="1.0" encoding="UTF-8"?>
<svg id="Layer_1" xmlns="http://www.w3.org/2000/svg" version="1.1" viewBox="0 0 82 82">
  <!-- Generator: Adobe Illustrator 30.1.0, SVG Export Plug-In . SVG Version: 2.1.1 Build 136)  -->
  <g>
    <g>
      <rect x="38.05" y="22.85" width="5.9" height="5.9"/>
      <path d="M43.06,23.75v4.11h-4.11v-4.11h4.11M44.85,21.95h-7.7v7.7h7.7v-7.7h0Z"/>
    </g>
    <g>
      <polygon points="33.94 58.67 33.94 52.77 38.05 52.77 38.05 41.73 33.94 41.73 33.94 35.83 43.95 35.83 43.95 52.77 48.06 52.77 48.06 58.67 33.94 58.67"/>
      <path d="M43.06,36.72v16.94h4.11v4.11h-12.33v-4.11h4.11v-12.83h-4.11v-4.11h8.22M44.85,34.93h-11.81v7.7h4.11v9.24h-4.11v7.7h15.92v-7.7h-4.11v-16.94h0Z"/>
    </g>
  </g>
  <circle id="Outer" cx="41" cy="41" r="35.26" fill="none" stroke="#000" stroke-width="11.48"/>
</svg>