<?xml version="1.0" encoding="UTF-8"?>
<svg id="Layer_1" xmlns="http://www.w3.org/2000/svg" version="1.1" viewBox="0 0 112 112">
  <!-- Generator: Adobe Illustrator 30.1.0, SVG Export Plug-In . SVG Version: 2.1.1 Build 136)  -->
  <g>
    <g>
      <rect x="51.97" y="31.21" width="8.06" height="8.06"/>
      <path d="M58.81,32.44v5.61h-5.61v-5.61h5.61M61.26,29.99h-10.51v10.51h10.51v-10.51h0Z"/>
    </g>
    <g>
      <polygon points="46.35 80.14 46.35 72.07 51.97 72.07 51.97 57 46.35 57 46.35 48.93 60.03 48.93 60.03 72.07 65.65 72.07 65.65 80.14 46.35 80.14"/>
      <path d="M58.81,50.16v23.14h5.61v5.61h-16.84v-5.61h5.61v-17.53h-5.61v-5.61h11.23M61.26,47.71h-16.13v10.51h5.61v12.63h-5.61v10.51h21.74v-10.51h-5.61v-23.14h0Z"/>
    </g>
  </g>
  <circle id="Outer" cx="56" cy="56" r="48.16" fill="none" stroke="#000" stroke-width="15.68"/>
</svg>