<?xml version="1.0" encoding="UTF-8"?>
<svg id="Layer_1" xmlns="http://www.w3.org/2000/svg" version="1.1" viewBox="0 0 15 15">
  <!-- Generator: Adobe Illustrator 30.1.0, SVG Export Plug-In . SVG Version: 2.1.1 Build 136)  -->
  <path d="M7.5,1.57c.19,0,.39.1.49.3l1.24,2.46c.21.42.61.72,1.07.81l2.68.5c.42.08.59.59.3.9l-1.96,2.15c-.3.33-.44.78-.38,1.22l.38,2.89c.05.35-.23.62-.54.62-.08,0-.17-.02-.25-.06l-2.35-1.21c-.22-.11-.46-.17-.69-.17s-.48.06-.69.17l-2.35,1.21c-.08.04-.17.06-.25.06-.31,0-.59-.27-.54-.62l.38-2.89c.06-.44-.08-.89-.38-1.22l-1.96-2.15c-.29-.32-.12-.83.3-.91l2.68-.5c.46-.09.86-.39,1.07-.81l1.24-2.46c.1-.2.29-.3.49-.3M7.5,0C6.7,0,5.97.45,5.61,1.16l-1.24,2.46-2.64.47c-.75.14-1.37.68-1.62,1.41-.24.73-.07,1.53.44,2.1l1.96,2.15-.39,2.85c-.08.6.1,1.21.51,1.67.4.46.98.72,1.59.72.33,0,.67-.08.97-.24l2.32-1.2,2.32,1.2c.3.15.63.24.97.24.61,0,1.19-.26,1.59-.72.4-.46.58-1.07.51-1.67l-.38-2.89,1.94-2.11c.52-.57.69-1.37.44-2.1-.24-.73-.86-1.27-1.62-1.41l-2.68-.5-1.2-2.43C9.03.45,8.3,0,7.5,0h0Z"/>
</svg>