<?xml version="1.0" encoding="UTF-8"?>
<svg id="Layer_1" xmlns="http://www.w3.org/2000/svg" version="1.1" viewBox="0 0 76 76">
  <!-- Generator: Adobe Illustrator 30.1.0, SVG Export Plug-In . SVG Version: 2.1.1 Build 136)  -->
  <g>
    <g>
      <rect x="35.26" y="21.18" width="5.47" height="5.47"/>
      <path d="M39.9,22.01v3.81h-3.81v-3.81h3.81M41.57,20.35h-7.13v7.13h7.13v-7.13h0Z"/>
    </g>
    <g>
      <polygon points="31.45 54.38 31.45 48.91 35.26 48.91 35.26 38.68 31.45 38.68 31.45 33.2 40.74 33.2 40.74 48.91 44.54 48.91 44.54 54.38 31.45 54.38"/>
      <path d="M39.9,34.04v15.7h3.81v3.81h-11.43v-3.81h3.81v-11.89h-3.81v-3.81h7.62M41.57,32.37h-10.94v7.13h3.81v8.57h-3.81v7.13h14.75v-7.13h-3.81v-15.7h0Z"/>
    </g>
  </g>
  <circle id="Outer" cx="38" cy="38" r="32.68" fill="none" stroke="#000" stroke-width="10.64"/>
</svg>