<?xml version="1.0" encoding="UTF-8"?>
<svg id="Layer_1" xmlns="http://www.w3.org/2000/svg" version="1.1" viewBox="0 0 76 76">
  <!-- Generator: Adobe Illustrator 30.1.0, SVG Export Plug-In . SVG Version: 2.1.1 Build 136)  -->
  <g>
    <g>
      <rect x="35.22" y="22.14" width="5.56" height="5.56"/>
      <path d="M39.71,23.21v3.42h-3.42v-3.42h3.42M41.85,21.07h-7.7v7.7h7.7v-7.7h0Z"/>
    </g>
    <g>
      <polygon points="31.79 53.21 31.79 47.65 35.22 47.65 35.22 39.1 31.79 39.1 31.79 33.54 40.78 33.54 40.78 47.65 44.21 47.65 44.21 53.21 31.79 53.21"/>
      <path d="M39.71,34.61v14.11h3.42v3.42h-10.27v-3.42h3.42v-10.69h-3.42v-3.42h6.85M41.85,32.47h-11.12v7.7h3.42v6.42h-3.42v7.7h14.55v-7.7h-3.42v-14.11h0Z"/>
    </g>
  </g>
  <circle id="Outer" cx="38" cy="38" r="31.34" fill="none" stroke="#000" stroke-width="13.32"/>
</svg>