<?xml version="1.0" encoding="UTF-8"?>
<svg id="Layer_1" xmlns="http://www.w3.org/2000/svg" version="1.1" viewBox="0 0 87 87">
  <!-- Generator: Adobe Illustrator 30.1.0, SVG Export Plug-In . SVG Version: 2.1.1 Build 136)  -->
  <circle id="Outer" cx="43.5" cy="43.5" r="37.41" fill="none" stroke="#000" stroke-width="12.18"/>
  <g>
    <g>
      <rect x="40.74" y="56.12" width="5.47" height="5.47"/>
      <path d="M45.26,57.07v3.56h-3.56v-3.56h3.56M47.16,55.17h-7.37v7.37h7.37v-7.37h0Z"/>
    </g>
    <g>
      <path d="M40.76,50.43l-.02-2.29c0-1.93.72-3.77,2.01-5.2l3.53-3.91c.81-.89,1.25-2.05,1.25-3.25,0-1.58-1.3-2.87-2.89-2.87h-2.27c-1.6,0-2.89,1.29-2.89,2.87v.95h-5.5v-.95c0-4.6,3.76-8.34,8.39-8.34h2.27c4.63,0,8.39,3.74,8.39,8.34,0,2.55-.94,5-2.66,6.91l-3.53,3.91c-.4.44-.61.97-.61,1.54l-.02,2.29h-5.45Z"/>
      <path d="M44.63,28.39c4.1,0,7.44,3.31,7.44,7.39,0,2.32-.86,4.54-2.42,6.27l-3.53,3.91c-.55.6-.85,1.36-.85,2.17v1.35h-3.58v-1.35c0-1.69.62-3.3,1.75-4.55l3.53-3.91c.97-1.07,1.5-2.45,1.5-3.89,0-2.11-1.73-3.82-3.85-3.82h-2.27c-2.12,0-3.85,1.71-3.85,3.82h-3.59c0-4.07,3.34-7.39,7.44-7.39h2.27M44.63,26.49h-2.27c-5.15,0-9.34,4.17-9.34,9.29v1.9h7.4v-1.9c0-1.06.87-1.92,1.94-1.92h2.27c1.07,0,1.94.86,1.94,1.92,0,.96-.36,1.89-1.01,2.61l-3.53,3.91c-1.45,1.6-2.25,3.67-2.26,5.82v1.37s.03,1.89.03,1.89h7.33l.02-1.88v-1.35c.01-.35.14-.65.37-.91l3.53-3.91c1.87-2.08,2.91-4.75,2.91-7.54,0-5.12-4.19-9.29-9.34-9.29h0Z"/>
    </g>
  </g>
</svg>