<?xml version="1.0" encoding="UTF-8"?>
<svg id="Layer_1" xmlns="http://www.w3.org/2000/svg" version="1.1" viewBox="0 0 87 87">
  <!-- Generator: Adobe Illustrator 30.1.0, SVG Export Plug-In . SVG Version: 2.1.1 Build 136)  -->
  <circle id="Outer" cx="43.5" cy="43.5" r="35.87" fill="none" stroke="#000" stroke-width="15.25"/>
  <g>
    <g>
      <rect x="40.72" y="54.94" width="5.51" height="5.51"/>
      <path d="M45.01,56.16v3.06h-3.06v-3.06h3.06M47.46,53.72h-7.96v7.96h7.96v-7.96h0Z"/>
    </g>
    <g>
      <path d="M40.74,49.57l-.02-2.37c0-1.77.66-3.45,1.83-4.75l3.03-3.36c.63-.69.97-1.59.97-2.52,0-1.14-.93-2.06-2.08-2.06h-1.95c-1.15,0-2.08.92-2.08,2.06v1.22h-5.54v-1.22c0-4.18,3.42-7.58,7.62-7.58h1.95c4.2,0,7.62,3.4,7.62,7.58,0,2.3-.85,4.5-2.39,6.21l-3.04,3.36c-.28.31-.42.66-.42,1.05l-.02,2.38h-5.49Z"/>
      <path d="M44.47,30.21c3.53,0,6.4,2.85,6.4,6.35,0,1.99-.74,3.91-2.08,5.39l-3.04,3.36c-.47.52-.73,1.17-.73,1.87v1.16h-3.08v-1.16c0-1.45.53-2.84,1.51-3.92l3.04-3.36c.83-.92,1.29-2.11,1.29-3.34,0-1.81-1.48-3.28-3.31-3.28h-1.95c-1.82,0-3.31,1.47-3.31,3.28h-3.09c0-3.5,2.87-6.35,6.4-6.35h1.95M44.47,27.76h-1.95c-4.88,0-8.85,3.95-8.85,8.8v2.45h7.99v-2.45c0-.46.39-.84.86-.84h1.95c.47,0,.86.38.86.84,0,.63-.23,1.23-.66,1.7l-3.04,3.36c-1.38,1.52-2.14,3.49-2.15,5.55v1.19s.03,2.43.03,2.43h7.91l.02-2.42v-1.16c.01-.08.02-.15.11-.25l3.04-3.37c1.75-1.93,2.71-4.43,2.71-7.03,0-4.85-3.97-8.8-8.85-8.8h0Z"/>
    </g>
  </g>
</svg>