<?xml version="1.0" encoding="UTF-8"?>
<svg id="Layer_1" xmlns="http://www.w3.org/2000/svg" version="1.1" viewBox="0 0 27 27">
  <!-- Generator: Adobe Illustrator 30.1.0, SVG Export Plug-In . SVG Version: 2.1.1 Build 136)  -->
  <path d="M13.5,4.73c.29,0,.57.15.72.44l1.83,3.64c.31.62.9,1.07,1.59,1.2l3.97.74c.62.12.87.87.45,1.34l-2.89,3.17c-.45.49-.65,1.15-.57,1.81l.56,4.28c.07.51-.34.91-.8.91-.12,0-.25-.03-.37-.09l-3.47-1.79c-.32-.17-.67-.25-1.03-.25s-.7.08-1.03.25l-3.47,1.79c-.12.06-.25.09-.37.09-.46,0-.87-.4-.8-.91l.56-4.28c.09-.66-.12-1.32-.57-1.81l-2.89-3.17c-.43-.47-.17-1.22.45-1.34l3.97-.74c.69-.13,1.27-.57,1.59-1.19l1.83-3.64c.15-.3.43-.44.72-.44M13.5,0C11.4,0,9.5,1.17,8.55,3.05l-1.28,2.54-2.75.52c-1.97.37-3.59,1.78-4.23,3.69-.64,1.9-.19,4.01,1.16,5.49l2.11,2.32-.41,3.13c-.21,1.58.27,3.18,1.32,4.38,1.05,1.2,2.57,1.89,4.17,1.89.88,0,1.75-.21,2.54-.62l2.33-1.2,2.33,1.2c.78.4,1.66.62,2.54.62,1.59,0,3.11-.69,4.17-1.89,1.05-1.2,1.53-2.79,1.32-4.38l-.41-3.13,2.11-2.32c1.35-1.48,1.8-3.59,1.16-5.49-.64-1.9-2.26-3.32-4.23-3.69l-2.75-.52-1.28-2.54C17.5,1.17,15.6,0,13.5,0h0Z"/>
</svg>