<?xml version="1.0" encoding="UTF-8"?>
<svg id="Layer_1" xmlns="http://www.w3.org/2000/svg" version="1.1" viewBox="0 0 27 27">
  <!-- Generator: Adobe Illustrator 30.1.0, SVG Export Plug-In . SVG Version: 2.1.1 Build 136)  -->
  <path d="M13.5,3.78c.32,0,.63.16.8.49l2.03,4.04c.35.69,1,1.18,1.76,1.33l4.4.82c.69.13.97.96.49,1.48l-3.21,3.52c-.49.54-.72,1.28-.63,2.01l.63,4.74c.07.57-.38,1.01-.88,1.01-.13,0-.27-.03-.41-.1l-3.85-1.98c-.36-.18-.75-.28-1.14-.28-.39,0-.78.09-1.14.28l-3.85,1.98c-.13.07-.27.1-.41.1-.51,0-.96-.45-.88-1.01l.63-4.74c.1-.73-.13-1.46-.63-2l-3.21-3.52c-.47-.52-.19-1.35.5-1.48l4.4-.82c.76-.14,1.41-.63,1.76-1.32l2.03-4.04c.17-.33.48-.49.8-.49M13.5,0c-1.78,0-3.37.99-4.17,2.57l-1.75,3.47-3.77.71c-1.66.31-3.03,1.5-3.57,3.11-.54,1.61-.16,3.38.98,4.64l2.8,3.07-.55,4.15c-.18,1.34.23,2.68,1.12,3.69.89,1.01,2.17,1.6,3.52,1.6.74,0,1.48-.18,2.14-.52l3.25-1.68,3.25,1.68c.66.34,1.4.52,2.14.52,1.34,0,2.63-.58,3.52-1.6.89-1.01,1.29-2.36,1.12-3.69l-.55-4.15,2.8-3.07c1.14-1.25,1.52-3.03.98-4.63-.54-1.61-1.91-2.8-3.57-3.11l-3.77-.71-1.75-3.47c-.8-1.59-2.4-2.57-4.17-2.57h0Z"/>
</svg>