<?xml version="1.0" encoding="UTF-8"?>
<svg id="Layer_1" xmlns="http://www.w3.org/2000/svg" version="1.1" viewBox="0 0 36 36">
  <!-- Generator: Adobe Illustrator 30.1.0, SVG Export Plug-In . SVG Version: 2.1.1 Build 136)  -->
  <circle id="Outer" cx="18" cy="18" r="15.48" fill="none" stroke="#000" stroke-width="5.04"/>
  <g>
    <g>
      <rect x="16.86" y="23.22" width="2.26" height="2.26"/>
      <path d="M18.73,23.62v1.47h-1.47v-1.47h1.47M19.51,22.83h-3.05v3.05h3.05v-3.05h0Z"/>
    </g>
    <g>
      <path d="M16.86,20.87v-.95c0-.8.29-1.56.82-2.15l1.46-1.62c.33-.37.52-.85.52-1.34,0-.65-.54-1.19-1.2-1.19h-.94c-.66,0-1.2.53-1.2,1.19v.39h-2.27v-.39c0-1.9,1.56-3.45,3.47-3.45h.94c1.92,0,3.47,1.55,3.47,3.45,0,1.06-.39,2.07-1.1,2.86l-1.46,1.62c-.16.18-.25.4-.25.63v.95h-2.26Z"/>
      <path d="M18.47,11.75c1.7,0,3.08,1.37,3.08,3.06,0,.96-.36,1.88-1,2.59l-1.46,1.62c-.23.25-.35.56-.35.9v.56h-1.48v-.56c0-.7.26-1.36.73-1.88l1.46-1.62c.4-.44.62-1.01.62-1.61,0-.87-.71-1.58-1.59-1.58h-.94c-.88,0-1.59.71-1.59,1.58h-1.49c0-1.69,1.38-3.06,3.08-3.06h.94M18.47,10.96h-.94c-2.13,0-3.87,1.72-3.87,3.84v.79h3.06v-.79c0-.44.36-.79.8-.79h.94c.44,0,.8.36.8.79,0,.4-.15.78-.42,1.08l-1.46,1.62c-.6.66-.93,1.52-.93,2.41v.57s.01.78.01.78h3.03v-.78s.01-.56.01-.56c0-.14.05-.27.15-.38l1.46-1.62c.78-.86,1.2-1.97,1.2-3.12,0-2.12-1.73-3.84-3.87-3.84h0Z"/>
    </g>
  </g>
</svg>