<?xml version="1.0" encoding="UTF-8"?>
<svg id="Layer_1" xmlns="http://www.w3.org/2000/svg" version="1.1" viewBox="0 0 36 36">
  <!-- Generator: Adobe Illustrator 30.1.0, SVG Export Plug-In . SVG Version: 2.1.1 Build 136)  -->
  <circle id="Outer" cx="18" cy="18" r="14.84" fill="none" stroke="#000" stroke-width="6.31"/>
  <g>
    <g>
      <rect x="16.85" y="22.73" width="2.28" height="2.28"/>
      <path d="M18.62,23.24v1.27h-1.27v-1.27h1.27M19.64,22.23h-3.29v3.29h3.29v-3.29h0Z"/>
    </g>
    <g>
      <path d="M16.86,20.51v-.98c0-.73.26-1.43.75-1.96l1.26-1.39c.26-.29.4-.66.4-1.04,0-.47-.39-.85-.86-.85h-.81c-.48,0-.86.38-.86.85v.51h-2.29v-.51c0-1.73,1.42-3.14,3.15-3.14h.81c1.74,0,3.15,1.41,3.15,3.14,0,.95-.35,1.86-.99,2.57l-1.26,1.39c-.11.12-.17.28-.17.44v.98h-2.28Z"/>
      <path d="M18.4,12.5c1.46,0,2.65,1.18,2.65,2.63,0,.83-.31,1.62-.86,2.23l-1.26,1.39c-.19.22-.3.48-.3.77v.48h-1.27v-.48c0-.6.22-1.17.62-1.62l1.26-1.39c.34-.38.53-.87.53-1.38,0-.75-.61-1.36-1.37-1.36h-.81c-.75,0-1.37.61-1.37,1.36h-1.28c0-1.45,1.19-2.63,2.65-2.63h.81M18.4,11.49h-.81c-2.02,0-3.66,1.63-3.66,3.64v1.01h3.3v-1.01c0-.19.16-.35.36-.35h.81c.2,0,.36.16.36.35,0,.26-.1.51-.27.7l-1.26,1.39c-.57.63-.89,1.45-.89,2.3v.49s.01,1,.01,1h3.27v-1s.02-.48.02-.48c0-.03,0-.06.04-.1l1.26-1.39c.72-.8,1.12-1.83,1.12-2.91,0-2.01-1.64-3.64-3.66-3.64h0Z"/>
    </g>
  </g>
</svg>