<?xml version="1.0" encoding="UTF-8"?>
<svg id="Layer_1" xmlns="http://www.w3.org/2000/svg" version="1.1" viewBox="0 0 22 22">
  <!-- Generator: Adobe Illustrator 30.1.0, SVG Export Plug-In . SVG Version: 2.1.1 Build 136)  -->
  <path d="M11,2.3c.28,0,.57.15.71.44l1.82,3.61c.31.62.89,1.06,1.58,1.19l3.94.74c.62.12.87.86.44,1.33l-2.87,3.15c-.44.49-.65,1.14-.56,1.79l.56,4.24c.07.51-.34.91-.79.91-.12,0-.24-.03-.37-.09l-3.44-1.77c-.32-.16-.67-.25-1.02-.25s-.7.08-1.02.25l-3.44,1.77c-.12.06-.24.09-.37.09-.46,0-.86-.4-.79-.91l.56-4.24c.09-.65-.12-1.31-.56-1.79l-2.87-3.15c-.42-.46-.17-1.21.44-1.33l3.94-.74c.68-.13,1.26-.57,1.57-1.19l1.82-3.61c.15-.29.43-.44.71-.44M11,0C9.82,0,8.76.65,8.23,1.71l-1.8,3.58-3.9.73c-1.1.21-2.01,1-2.37,2.06-.36,1.07-.11,2.25.65,3.08l2.84,3.12-.56,4.21c-.12.89.15,1.78.74,2.45.59.67,1.44,1.06,2.33,1.06.49,0,.98-.12,1.42-.35l3.41-1.75,3.41,1.75c.44.23.93.35,1.42.35.89,0,1.74-.39,2.33-1.06.59-.67.86-1.56.74-2.45l-.56-4.21,2.84-3.12c.76-.83,1.01-2.01.65-3.08-.36-1.07-1.27-1.86-2.37-2.06l-3.9-.73-1.8-3.58C13.24.65,12.18,0,11,0h0Z"/>
</svg>