<?xml version="1.0" encoding="UTF-8"?>
<svg id="Layer_1" xmlns="http://www.w3.org/2000/svg" version="1.1" viewBox="0 0 84 84">
  <!-- Generator: Adobe Illustrator 30.1.0, SVG Export Plug-In . SVG Version: 2.1.1 Build 136)  -->
  <g>
    <g>
      <rect x="38.98" y="23.41" width="6.05" height="6.05"/>
      <path d="M44.11,24.33v4.21h-4.21v-4.21h4.21M45.94,22.49h-7.89v7.89h7.89v-7.89h0Z"/>
    </g>
    <g>
      <polygon points="34.77 60.1 34.77 54.05 38.98 54.05 38.98 42.75 34.77 42.75 34.77 36.7 45.02 36.7 45.02 54.05 49.23 54.05 49.23 60.1 34.77 60.1"/>
      <path d="M44.11,37.62v17.36h4.21v4.21h-12.63v-4.21h4.21v-13.14h-4.21v-4.21h8.42M45.94,35.78h-12.1v7.89h4.21v9.47h-4.21v7.89h16.31v-7.89h-4.21v-17.36h0Z"/>
    </g>
  </g>
  <circle id="Outer" cx="42" cy="42" r="36.12" fill="none" stroke="#000" stroke-width="11.76"/>
</svg>