<?xml version="1.0" encoding="UTF-8"?>
<svg id="Layer_1" xmlns="http://www.w3.org/2000/svg" version="1.1" viewBox="0 0 54 54">
  <!-- Generator: Adobe Illustrator 30.1.0, SVG Export Plug-In . SVG Version: 2.1.1 Build 136)  -->
  <g>
    <g>
      <rect x="25.09" y="14.36" width="3.83" height="3.83"/>
      <path d="M28.49,14.78v2.99h-2.99v-2.99h2.99M29.34,13.94h-4.67v4.67h4.67v-4.67h0Z"/>
    </g>
    <g>
      <polygon points="22.1 39.48 22.1 35.65 25.09 35.65 25.09 27.17 22.1 27.17 22.1 23.34 28.92 23.34 28.92 35.65 31.9 35.65 31.9 39.48 22.1 39.48"/>
      <path d="M28.49,23.76v12.31h2.99v2.99h-8.96v-2.99h2.99v-9.32h-2.99v-2.99h5.97M29.34,22.92h-7.66v4.67h2.99v7.63h-2.99v4.67h10.64v-4.67h-2.99v-12.31h0Z"/>
    </g>
  </g>
  <circle id="Outer" cx="27" cy="27" r="24.17" fill="none" stroke="#000" stroke-width="5.65"/>
</svg>