<?xml version="1.0" encoding="UTF-8"?>
<svg id="Layer_1" xmlns="http://www.w3.org/2000/svg" version="1.1" viewBox="0 0 54 54">
  <!-- Generator: Adobe Illustrator 30.1.0, SVG Export Plug-In . SVG Version: 2.1.1 Build 136)  -->
  <g>
    <g>
      <rect x="25.02" y="15.73" width="3.95" height="3.95"/>
      <path d="M28.22,16.49v2.43h-2.43v-2.43h2.43M29.74,14.97h-5.47v5.47h5.47v-5.47h0Z"/>
    </g>
    <g>
      <polygon points="22.59 37.81 22.59 33.86 25.02 33.86 25.02 27.78 22.59 27.78 22.59 23.83 28.98 23.83 28.98 33.86 31.41 33.86 31.41 37.81 22.59 37.81"/>
      <path d="M28.22,24.59v10.03h2.43v2.43h-7.3v-2.43h2.43v-7.6h-2.43v-2.43h4.87M29.74,23.07h-7.9v5.47h2.43v4.56h-2.43v5.47h10.34v-5.47h-2.43v-10.03h0Z"/>
    </g>
  </g>
  <circle id="Outer" cx="27" cy="27" r="22.27" fill="none" stroke="#000" stroke-width="9.47"/>
</svg>