<?xml version="1.0" encoding="UTF-8"?>
<svg id="Layer_1" xmlns="http://www.w3.org/2000/svg" version="1.1" viewBox="0 0 110 110">
  <!-- Generator: Adobe Illustrator 30.1.0, SVG Export Plug-In . SVG Version: 2.1.1 Build 136)  -->
  <circle id="Outer" cx="55" cy="55" r="47.3" fill="none" stroke="#000" stroke-width="15.4"/>
  <g>
    <g>
      <rect x="51.51" y="70.95" width="6.91" height="6.91"/>
      <path d="M57.22,72.16v4.5h-4.5v-4.5h4.5M59.63,69.75h-9.32v9.32h9.32v-9.32h0Z"/>
    </g>
    <g>
      <path d="M51.53,63.76l-.03-2.9c0-2.44.91-4.77,2.54-6.58l4.46-4.94c1.02-1.13,1.58-2.59,1.58-4.11,0-2-1.64-3.62-3.66-3.62h-2.87c-2.02,0-3.66,1.63-3.66,3.62v1.2h-6.95v-1.2c0-5.81,4.76-10.54,10.61-10.54h2.87c5.85,0,10.61,4.73,10.61,10.54,0,3.23-1.2,6.33-3.36,8.73l-4.46,4.94c-.5.55-.77,1.22-.77,1.94l-.03,2.9h-6.89Z"/>
      <path d="M56.43,35.9c5.19,0,9.41,4.19,9.41,9.34,0,2.93-1.09,5.74-3.05,7.93l-4.46,4.94c-.69.76-1.07,1.71-1.08,2.74l-.02,1.7h-4.5l-.02-1.7c0-2.14.79-4.17,2.23-5.76l4.46-4.94c1.22-1.35,1.89-3.1,1.89-4.91,0-2.66-2.18-4.83-4.86-4.83h-2.87c-2.68,0-4.86,2.17-4.86,4.83h-4.54c0-5.15,4.22-9.34,9.41-9.34h2.87M56.43,33.49h-2.87c-6.51,0-11.81,5.27-11.81,11.75v2.41h9.36v-2.41c0-1.34,1.1-2.42,2.46-2.42h2.87c1.35,0,2.46,1.09,2.46,2.42,0,1.22-.45,2.39-1.27,3.3l-4.46,4.94c-1.83,2.02-2.84,4.64-2.85,7.36l.02,1.73.02,2.38h9.27l.02-2.38.02-1.7c0-.44.15-.82.46-1.15l4.46-4.95c2.37-2.62,3.67-6.01,3.67-9.54,0-6.48-5.3-11.75-11.81-11.75h0Z"/>
    </g>
  </g>
</svg>