<?xml version="1.0" encoding="UTF-8"?>
<svg id="Layer_1" xmlns="http://www.w3.org/2000/svg" version="1.1" viewBox="0 0 110 110">
  <!-- Generator: Adobe Illustrator 30.1.0, SVG Export Plug-In . SVG Version: 2.1.1 Build 136)  -->
  <circle id="Outer" cx="55" cy="55" r="45.36" fill="none" stroke="#000" stroke-width="19.28"/>
  <g>
    <g>
      <rect x="51.49" y="69.47" width="6.97" height="6.97"/>
      <path d="M56.91,71.01v3.87h-3.87v-3.87h3.87M60,67.92h-10.06v10.06h10.06v-10.06h0Z"/>
    </g>
    <g>
      <path d="M51.51,62.67l-.03-3c0-2.23.83-4.36,2.32-6l3.84-4.25c.79-.88,1.23-2.01,1.23-3.19,0-1.44-1.18-2.61-2.64-2.61h-2.46c-1.45,0-2.64,1.17-2.64,2.61v1.55h-7v-1.55c0-5.28,4.32-9.58,9.64-9.58h2.46c5.31,0,9.64,4.3,9.64,9.58,0,2.9-1.08,5.69-3.03,7.85l-3.84,4.25c-.35.39-.53.83-.53,1.33l-.03,3.01h-6.94Z"/>
      <path d="M56.23,38.2c4.46,0,8.09,3.61,8.09,8.03,0,2.52-.93,4.94-2.63,6.82l-3.84,4.25c-.59.66-.92,1.48-.93,2.36v1.47h-3.89v-1.47c0-1.84.67-3.59,1.91-4.95l3.84-4.25c1.05-1.16,1.63-2.66,1.63-4.23,0-2.29-1.88-4.15-4.18-4.15h-2.47c-2.31,0-4.18,1.86-4.18,4.15h-3.91c0-4.43,3.63-8.03,8.09-8.03h2.47M56.23,35.1h-2.47c-6.17,0-11.19,4.99-11.19,11.13v3.09h10.1v-3.09c0-.58.49-1.06,1.09-1.06h2.47c.6,0,1.09.48,1.09,1.06,0,.79-.3,1.56-.83,2.15l-3.84,4.25c-1.74,1.93-2.71,4.42-2.72,7.01v1.5s.04,3.07.04,3.07h10l.03-3.06v-1.47c.02-.1.03-.19.14-.32l3.84-4.26c2.21-2.45,3.42-5.6,3.42-8.89,0-6.14-5.02-11.13-11.19-11.13h0Z"/>
    </g>
  </g>
</svg>