<?xml version="1.0" encoding="UTF-8"?>
<svg id="Layer_1" xmlns="http://www.w3.org/2000/svg" version="1.1" viewBox="0 0 85 85">
  <!-- Generator: Adobe Illustrator 30.1.0, SVG Export Plug-In . SVG Version: 2.1.1 Build 136)  -->
  <path d="M42.5,11.9c.99,0,1.99.52,2.51,1.55l6.4,12.71c1.1,2.18,3.15,3.72,5.54,4.17l13.85,2.6c2.17.41,3.04,3.04,1.56,4.67l-10.09,11.07c-1.56,1.71-2.28,4.02-1.98,6.31l1.97,14.93c.23,1.78-1.18,3.19-2.79,3.19-.42,0-.86-.1-1.28-.32l-12.11-6.24c-1.12-.58-2.35-.87-3.58-.87s-2.46.29-3.58.87l-12.11,6.24c-.42.22-.86.32-1.28.32-1.6,0-3.02-1.41-2.79-3.19l1.97-14.93c.3-2.29-.42-4.6-1.98-6.31l-10.09-11.07c-1.49-1.63-.61-4.27,1.56-4.67l13.85-2.6c2.39-.45,4.44-1.99,5.54-4.17l6.4-12.71c.52-1.03,1.51-1.55,2.51-1.55M42.5,0C36.91,0,31.88,3.1,29.36,8.09l-5.5,10.91-11.86,2.22c-5.24.98-9.55,4.73-11.24,9.79-1.69,5.06-.52,10.65,3.08,14.59l8.82,9.68-1.72,13.07c-.55,4.21.73,8.44,3.52,11.62,2.8,3.19,6.83,5.03,11.07,5.03,2.32,0,4.65-.57,6.73-1.64l10.24-5.28,10.24,5.28c2.08,1.07,4.41,1.64,6.73,1.64,4.23,0,8.27-1.83,11.07-5.03,2.79-3.18,4.07-7.42,3.52-11.62l-1.72-13.06,8.82-9.68c3.59-3.94,4.77-9.53,3.08-14.59-1.69-5.06-6-8.81-11.24-9.79l-11.86-2.22-5.5-10.91C53.12,3.1,48.09,0,42.5,0h0Z"/>
</svg>