<?xml version="1.0" encoding="UTF-8"?>
<svg id="Layer_1" xmlns="http://www.w3.org/2000/svg" version="1.1" viewBox="0 0 88 88">
  <!-- Generator: Adobe Illustrator 30.1.0, SVG Export Plug-In . SVG Version: 2.1.1 Build 136)  -->
  <path d="M44,15.43c.93,0,1.86.48,2.34,1.45l5.98,11.87c1.03,2.04,2.94,3.48,5.18,3.9l12.93,2.42c2.02.38,2.84,2.84,1.45,4.36l-9.42,10.34c-1.45,1.6-2.13,3.75-1.85,5.89l1.84,13.94c.22,1.66-1.11,2.98-2.6,2.98-.4,0-.8-.09-1.2-.3l-11.31-5.83c-1.05-.54-2.19-.81-3.34-.81s-2.29.27-3.34.81l-11.31,5.83c-.39.2-.8.3-1.2.3-1.5,0-2.82-1.32-2.6-2.98l1.84-13.95c.28-2.14-.39-4.29-1.85-5.89l-9.42-10.34c-1.39-1.52-.57-3.98,1.46-4.36l12.93-2.42c2.24-.42,4.15-1.86,5.17-3.89l5.98-11.87c.49-.96,1.41-1.45,2.34-1.45M44,0c-6.86,0-13.04,3.81-16.12,9.93l-4.17,8.28-8.98,1.68c-6.43,1.21-11.71,5.81-13.79,12.01-2.08,6.21-.63,13.07,3.78,17.9l6.88,7.55-1.35,10.21c-.68,5.16.89,10.36,4.32,14.26,3.43,3.92,8.38,6.16,13.58,6.16,2.86,0,5.71-.69,8.26-2.01l7.59-3.91,7.59,3.91c2.55,1.31,5.41,2.01,8.26,2.01,5.2,0,10.15-2.25,13.58-6.16,3.42-3.9,5-9.1,4.32-14.26l-1.35-10.21,6.89-7.56c4.41-4.84,5.85-11.7,3.78-17.9-2.08-6.2-7.36-10.81-13.79-12.01l-8.98-1.68-4.17-8.28C57.03,3.81,50.86,0,44,0h0Z"/>
</svg>