<?xml version="1.0" encoding="UTF-8"?>
<svg id="Layer_1" xmlns="http://www.w3.org/2000/svg" version="1.1" viewBox="0 0 88 88">
  <!-- Generator: Adobe Illustrator 30.1.0, SVG Export Plug-In . SVG Version: 2.1.1 Build 136)  -->
  <path d="M44,9.21c1.13,0,2.26.59,2.85,1.76l7.28,14.45c1.25,2.48,3.58,4.23,6.3,4.74l15.74,2.95c2.46.46,3.46,3.45,1.77,5.31l-11.47,12.59c-1.77,1.94-2.59,4.57-2.25,7.18l2.24,16.97c.27,2.02-1.35,3.63-3.17,3.63-.48,0-.98-.11-1.46-.36l-13.77-7.09c-1.28-.66-2.67-.99-4.07-.99s-2.79.33-4.07.99l-13.77,7.09c-.48.25-.98.36-1.46.36-1.82,0-3.43-1.6-3.17-3.63l2.24-16.98c.34-2.6-.48-5.23-2.25-7.17l-11.47-12.59c-1.69-1.85-.69-4.85,1.77-5.31l15.74-2.95c2.72-.51,5.05-2.26,6.3-4.74l7.28-14.45c.59-1.17,1.72-1.76,2.85-1.76M44,0C39.29,0,35.04,2.62,32.92,6.83l-7.21,14.31-15.58,2.92c-4.42.83-8.05,3.99-9.48,8.26-1.43,4.27-.43,8.99,2.6,12.31l11.38,12.48-2.22,16.84c-.47,3.55.61,7.12,2.96,9.8,2.36,2.7,5.77,4.24,9.34,4.24,1.96,0,3.92-.48,5.68-1.38l13.62-7.02,13.62,7.02c1.76.9,3.72,1.38,5.68,1.38,3.57,0,6.97-1.55,9.34-4.24,2.35-2.68,3.43-6.25,2.96-9.8l-2.22-16.84,11.38-12.49c3.03-3.33,4.03-8.04,2.6-12.31-1.43-4.26-5.06-7.43-9.48-8.26l-15.59-2.92-7.21-14.31C52.96,2.62,48.71,0,44,0h0Z"/>
</svg>