<?xml version="1.0" encoding="UTF-8"?>
<svg id="Layer_1" xmlns="http://www.w3.org/2000/svg" version="1.1" viewBox="0 0 88 88">
  <!-- Generator: Adobe Illustrator 30.1.0, SVG Export Plug-In . SVG Version: 2.1.1 Build 136)  -->
  <path d="M44,12.32c1.03,0,2.06.53,2.6,1.6l6.63,13.16c1.14,2.26,3.26,3.85,5.74,4.32l14.34,2.69c2.24.42,3.15,3.15,1.61,4.83l-10.45,11.46c-1.61,1.77-2.36,4.16-2.05,6.54l2.04,15.46c.24,1.84-1.23,3.3-2.88,3.3-.44,0-.89-.1-1.33-.33l-12.54-6.46c-1.16-.6-2.43-.9-3.7-.9s-2.54.3-3.7.9l-12.54,6.46c-.44.23-.89.33-1.33.33-1.66,0-3.13-1.46-2.88-3.3l2.04-15.46c.31-2.37-.44-4.76-2.05-6.53l-10.45-11.46c-1.54-1.69-.63-4.42,1.61-4.84l14.34-2.69c2.48-.46,4.6-2.06,5.74-4.32l6.63-13.16c.54-1.07,1.57-1.6,2.6-1.6M44,0c-5.79,0-11,3.21-13.6,8.38l-5.69,11.29-12.28,2.3c-5.42,1.02-9.88,4.9-11.64,10.14-1.75,5.24-.53,11.03,3.19,15.11l9.13,10.02-1.78,13.53c-.57,4.35.75,8.74,3.64,12.03,2.9,3.31,7.08,5.2,11.46,5.2,2.41,0,4.82-.59,6.97-1.7l10.61-5.46,10.61,5.46c2.15,1.11,4.56,1.7,6.97,1.7,4.38,0,8.56-1.9,11.46-5.2,2.89-3.29,4.21-7.68,3.64-12.03l-1.78-13.53,9.13-10.02c3.72-4.08,4.94-9.87,3.19-15.11-1.75-5.23-6.21-9.12-11.64-10.13l-12.28-2.3-5.69-11.29c-2.6-5.17-7.82-8.38-13.6-8.38h0Z"/>
</svg>