<?xml version="1.0" encoding="UTF-8"?>
<svg id="Layer_1" xmlns="http://www.w3.org/2000/svg" version="1.1" viewBox="0 0 48 48">
  <!-- Generator: Adobe Illustrator 30.1.0, SVG Export Plug-In . SVG Version: 2.1.1 Build 136)  -->
  <g>
    <g>
      <rect x="22.3" y="12.77" width="3.4" height="3.4"/>
      <path d="M25.33,13.14v2.65h-2.65v-2.65h2.65M26.08,12.39h-4.15v4.15h4.15v-4.15h0Z"/>
    </g>
    <g>
      <polygon points="19.64 35.09 19.64 31.69 22.3 31.69 22.3 24.15 19.64 24.15 19.64 20.75 25.7 20.75 25.7 31.69 28.36 31.69 28.36 35.09 19.64 35.09"/>
      <path d="M25.33,21.12v10.94h2.65v2.65h-7.96v-2.65h2.65v-8.28h-2.65v-2.65h5.31M26.08,20.37h-6.81v4.15h2.65v6.78h-2.65v4.15h9.46v-4.15h-2.65v-10.94h0Z"/>
    </g>
  </g>
  <circle id="Outer" cx="24" cy="24" r="21.49" fill="none" stroke="#000" stroke-width="5.03"/>
</svg>