<?xml version="1.0" encoding="UTF-8"?>
<svg id="Layer_1" xmlns="http://www.w3.org/2000/svg" version="1.1" viewBox="0 0 115 115">
  <!-- Generator: Adobe Illustrator 30.1.0, SVG Export Plug-In . SVG Version: 2.1.1 Build 136)  -->
  <path d="M57.5,20.16c1.21,0,2.43.63,3.06,1.89l7.81,15.51c1.34,2.66,3.84,4.54,6.76,5.09l16.9,3.17c2.64.5,3.71,3.71,1.9,5.7l-12.31,13.51c-1.9,2.08-2.78,4.9-2.41,7.7l2.4,18.22c.29,2.17-1.45,3.89-3.4,3.89-.52,0-1.05-.12-1.57-.39l-14.78-7.61c-1.37-.71-2.87-1.06-4.37-1.06-1.5,0-3,.35-4.37,1.06l-14.78,7.61c-.52.27-1.05.39-1.57.39-1.95,0-3.69-1.72-3.4-3.89l2.4-18.22c.37-2.8-.51-5.61-2.41-7.69l-12.31-13.51c-1.81-1.99-.74-5.2,1.9-5.7l16.9-3.17c2.92-.55,5.42-2.43,6.76-5.09l7.81-15.51c.63-1.26,1.85-1.89,3.06-1.89M57.5,0C48.54,0,40.46,4.97,36.43,12.98l-5.45,10.82-11.73,2.2c-8.4,1.57-15.31,7.59-18.02,15.7-2.72,8.11-.83,17.08,4.93,23.4l9,9.87-1.76,13.34c-.89,6.74,1.17,13.53,5.64,18.64,4.49,5.12,10.96,8.06,17.75,8.06,3.73,0,7.47-.91,10.8-2.62l9.92-5.11,9.92,5.11c3.33,1.72,7.07,2.62,10.8,2.62,6.79,0,13.26-2.94,17.75-8.06,4.47-5.1,6.53-11.9,5.64-18.64l-1.76-13.34,9-9.87c5.76-6.32,7.65-15.29,4.93-23.4-2.72-8.11-9.62-14.12-18.02-15.7l-11.73-2.2-5.45-10.82C74.53,4.97,66.46,0,57.5,0h0Z"/>
</svg>