<?xml version="1.0" encoding="UTF-8"?>
<svg id="Layer_1" xmlns="http://www.w3.org/2000/svg" version="1.1" viewBox="0 0 128 128">
  <!-- Generator: Adobe Illustrator 30.1.0, SVG Export Plug-In . SVG Version: 2.1.1 Build 136)  -->
  <g>
    <g>
      <rect x="59.32" y="37.29" width="9.37" height="9.37"/>
      <path d="M66.88,39.09v5.77h-5.77v-5.77h5.77M70.48,35.49h-12.97v12.97h12.97v-12.97h0Z"/>
    </g>
    <g>
      <polygon points="53.55 89.62 53.55 80.26 59.32 80.26 59.32 65.85 53.55 65.85 53.55 56.49 68.68 56.49 68.68 80.26 74.45 80.26 74.45 89.62 53.55 89.62"/>
      <path d="M66.88,58.29v23.77h5.77v5.77h-17.3v-5.77h5.77v-18h-5.77v-5.77h11.53M70.48,54.69h-18.73v12.97h5.77v10.8h-5.77v12.97h24.5v-12.97h-5.77v-23.77h0Z"/>
    </g>
  </g>
  <circle id="Outer" cx="64" cy="64" r="52.78" fill="none" stroke="#000" stroke-width="22.44"/>
</svg>