<?xml version="1.0" encoding="UTF-8"?>
<svg id="Layer_1" xmlns="http://www.w3.org/2000/svg" version="1.1" viewBox="0 0 122 122">
  <!-- Generator: Adobe Illustrator 30.1.0, SVG Export Plug-In . SVG Version: 2.1.1 Build 136)  -->
  <circle id="Outer" cx="61" cy="61" r="50.31" fill="none" stroke="#000" stroke-width="21.39"/>
  <g>
    <g>
      <rect x="57.1" y="77.04" width="7.73" height="7.73"/>
      <path d="M63.12,78.76v4.3h-4.3v-4.3h4.3M66.55,75.33h-11.16v11.16h11.16v-11.16h0Z"/>
    </g>
    <g>
      <path d="M57.13,69.51l-.03-3.33c0-2.48.92-4.83,2.57-6.66l4.25-4.71c.88-.98,1.37-2.23,1.37-3.54,0-1.59-1.31-2.89-2.92-2.89h-2.73c-1.61,0-2.92,1.3-2.92,2.89v1.72h-7.77v-1.72c0-5.86,4.8-10.63,10.69-10.63h2.73c5.89,0,10.69,4.77,10.69,10.63,0,3.22-1.19,6.31-3.36,8.71l-4.26,4.72c-.39.43-.58.92-.59,1.47l-.03,3.33h-7.7Z"/>
      <path d="M62.37,42.36c4.95,0,8.97,4,8.97,8.91,0,2.8-1.04,5.48-2.91,7.56l-4.26,4.72c-.66.73-1.02,1.64-1.03,2.62l-.02,1.63h-4.3v-1.63c0-2.04.74-3.98,2.11-5.49l4.26-4.72c1.17-1.29,1.81-2.96,1.81-4.69,0-2.54-2.08-4.61-4.64-4.61h-2.73c-2.56,0-4.64,2.07-4.64,4.61h-4.34c0-4.91,4.03-8.91,8.97-8.91h2.73M62.37,38.93h-2.73c-6.84,0-12.41,5.54-12.41,12.34v3.43h11.2v-3.43c0-.65.54-1.17,1.21-1.17h2.73c.67,0,1.21.53,1.21,1.17,0,.88-.33,1.73-.92,2.39l-4.26,4.72c-1.93,2.14-3,4.9-3.01,7.78v1.67s.04,3.4.04,3.4h11.1l.03-3.4.02-1.63c0-.11.02-.21.14-.35l4.26-4.72c2.45-2.71,3.8-6.21,3.8-9.86,0-6.81-5.57-12.34-12.41-12.34h0Z"/>
    </g>
  </g>
</svg>