<?xml version="1.0" encoding="UTF-8"?>
<svg id="Layer_1" xmlns="http://www.w3.org/2000/svg" version="1.1" viewBox="0 0 79 79">
  <!-- Generator: Adobe Illustrator 30.1.0, SVG Export Plug-In . SVG Version: 2.1.1 Build 136)  -->
  <circle id="Outer" cx="39.5" cy="39.5" r="35.36" fill="none" stroke="#000" stroke-width="8.27"/>
  <g>
    <g>
      <rect x="37" y="52.01" width="4.94" height="4.95"/>
      <path d="M41.33,52.63v3.71h-3.71v-3.71h3.71M42.57,51.4h-6.18v6.18h6.18v-6.18h0Z"/>
    </g>
    <g>
      <path d="M37.01,46.64l-.02-2.01c0-1.92.72-3.75,2-5.16l3.67-4.07c.9-1,1.4-2.29,1.4-3.63,0-1.85-1.52-3.36-3.39-3.36h-2.36c-1.87,0-3.39,1.51-3.39,3.36v.62h-4.98v-.62c0-4.58,3.75-8.31,8.36-8.31h2.36c4.61,0,8.36,3.73,8.36,8.31,0,2.57-.95,5.03-2.67,6.94l-3.68,4.07c-.47.53-.73,1.16-.73,1.85l-.02,2.02h-4.93Z"/>
      <path d="M40.68,24.06c4.27,0,7.75,3.45,7.75,7.69,0,2.41-.89,4.73-2.52,6.53l-3.68,4.07c-.57.63-.88,1.41-.89,2.26v1.4h-3.72v-1.4c0-1.76.64-3.43,1.83-4.74l3.67-4.07c1.01-1.11,1.56-2.55,1.56-4.05,0-2.19-1.8-3.98-4-3.98h-2.36c-2.21,0-4,1.78-4,3.98h-3.74c0-4.24,3.48-7.69,7.75-7.69h2.36M40.68,22.83h-2.36c-4.95,0-8.98,4-8.98,8.93v1.23h6.21v-1.23c0-1.51,1.24-2.74,2.77-2.74h2.36c1.53,0,2.77,1.23,2.77,2.74,0,1.19-.44,2.33-1.24,3.22l-3.67,4.07c-1.38,1.53-2.15,3.51-2.16,5.57v1.42s.02,1.22.02,1.22h6.16v-1.22s.03-1.4.03-1.4c0-.54.2-1.03.57-1.44l3.68-4.07c1.83-2.02,2.83-4.64,2.83-7.35,0-4.92-4.03-8.93-8.98-8.93h0Z"/>
    </g>
  </g>
</svg>