<?xml version="1.0" encoding="UTF-8"?>
<svg id="Layer_1" xmlns="http://www.w3.org/2000/svg" version="1.1" viewBox="0 0 27 27">
  <!-- Generator: Adobe Illustrator 30.1.0, SVG Export Plug-In . SVG Version: 2.1.1 Build 136)  -->
  <circle id="Outer" cx="13.5" cy="13.5" r="12.09" fill="none" stroke="#000" stroke-width="2.83"/>
  <g>
    <g>
      <rect x="12.65" y="17.78" width="1.69" height="1.69"/>
      <path d="M14.13,17.99v1.27h-1.27v-1.27h1.27M14.55,17.57h-2.11v2.11h2.11v-2.11h0Z"/>
    </g>
    <g>
      <path d="M12.65,15.94v-.69c0-.65.24-1.28.68-1.76l1.26-1.39c.31-.34.48-.78.48-1.24,0-.63-.52-1.15-1.16-1.15h-.81c-.64,0-1.16.52-1.16,1.15v.21h-1.7v-.21c0-1.57,1.28-2.84,2.86-2.84h.81c1.58,0,2.86,1.27,2.86,2.84,0,.88-.32,1.72-.91,2.37l-1.26,1.39c-.16.18-.25.4-.25.63v.69h-1.69Z"/>
      <path d="M13.9,8.22c1.46,0,2.65,1.18,2.65,2.63,0,.82-.31,1.62-.86,2.23l-1.26,1.39c-.19.22-.3.48-.3.77v.48h-1.27v-.48c0-.6.22-1.17.62-1.62l1.26-1.39c.34-.38.53-.87.53-1.38,0-.75-.61-1.36-1.37-1.36h-.81c-.75,0-1.37.61-1.37,1.36h-1.28c0-1.45,1.19-2.63,2.65-2.63h.81M13.9,7.8h-.81c-1.69,0-3.07,1.37-3.07,3.05v.42h2.12v-.42c0-.52.42-.94.95-.94h.81c.52,0,.95.42.95.94,0,.41-.15.8-.42,1.1l-1.26,1.39c-.47.52-.73,1.2-.74,1.9v.48s0,.42,0,.42h2.1v-.42s0-.48,0-.48c0-.18.07-.35.19-.49l1.26-1.39c.62-.69.97-1.58.97-2.51,0-1.68-1.38-3.05-3.07-3.05h0Z"/>
    </g>
  </g>
</svg>