<?xml version="1.0" encoding="UTF-8"?>
<svg id="Layer_1" xmlns="http://www.w3.org/2000/svg" version="1.1" viewBox="0 0 27 27">
  <!-- Generator: Adobe Illustrator 30.1.0, SVG Export Plug-In . SVG Version: 2.1.1 Build 136)  -->
  <circle id="Outer" cx="13.5" cy="13.5" r="11.61" fill="none" stroke="#000" stroke-width="3.78"/>
  <g>
    <g>
      <rect x="12.64" y="17.42" width="1.7" height="1.7"/>
      <path d="M14.05,17.71v1.11h-1.11v-1.11h1.11M14.64,17.12h-2.29v2.29h2.29v-2.29h0Z"/>
    </g>
    <g>
      <path d="M12.65,15.65v-.71c0-.6.22-1.17.62-1.61l1.09-1.21c.25-.28.39-.64.39-1.01,0-.49-.4-.89-.9-.89h-.7c-.5,0-.9.4-.9.89v.3h-1.71v-.3c0-1.43,1.17-2.59,2.6-2.59h.7c1.44,0,2.6,1.16,2.6,2.59,0,.79-.29,1.55-.83,2.14l-1.1,1.21c-.12.14-.19.3-.19.48v.71h-1.7Z"/>
      <path d="M13.85,8.81c1.27,0,2.31,1.03,2.31,2.29,0,.72-.27,1.41-.75,1.95l-1.1,1.21c-.17.19-.26.42-.26.67v.42h-1.11v-.42c0-.52.19-1.02.54-1.41l1.1-1.21c.3-.33.46-.76.46-1.21,0-.65-.54-1.18-1.19-1.18h-.7c-.66,0-1.19.53-1.19,1.18h-1.12c0-1.26,1.04-2.29,2.31-2.29h.7M13.85,8.22h-.7c-1.6,0-2.9,1.29-2.9,2.88v.59h2.3v-.59c0-.33.27-.59.6-.59h.7c.33,0,.6.27.6.59,0,.3-.11.59-.31.81l-1.1,1.21c-.45.5-.7,1.14-.7,1.81v.43s0,.59,0,.59h2.28v-.58s.01-.42.01-.42c0-.11.04-.2.11-.28l1.1-1.21c.58-.64.9-1.48.9-2.34,0-1.59-1.3-2.88-2.9-2.88h0Z"/>
    </g>
  </g>
</svg>