<?xml version="1.0" encoding="UTF-8"?>
<svg id="Layer_1" xmlns="http://www.w3.org/2000/svg" version="1.1" viewBox="0 0 27 27">
  <!-- Generator: Adobe Illustrator 30.1.0, SVG Export Plug-In . SVG Version: 2.1.1 Build 136)  -->
  <circle id="Outer" cx="13.5" cy="13.5" r="11.13" fill="none" stroke="#000" stroke-width="4.73"/>
  <g>
    <g>
      <rect x="12.64" y="17.05" width="1.71" height="1.71"/>
      <path d="M13.97,17.43v.95h-.95v-.95h.95M14.73,16.67h-2.47v2.47h2.47v-2.47h0Z"/>
    </g>
    <g>
      <path d="M12.64,15.38v-.74c0-.55.2-1.07.56-1.47l.94-1.04c.2-.22.3-.49.3-.78,0-.35-.29-.64-.65-.64h-.61c-.36,0-.65.29-.65.64v.38h-1.72v-.38c0-1.3,1.06-2.35,2.37-2.35h.61c1.3,0,2.37,1.06,2.37,2.35,0,.71-.26,1.4-.74,1.93l-.94,1.04c-.09.09-.13.21-.13.33v.74h-1.71Z"/>
      <path d="M13.8,9.38c1.1,0,1.99.88,1.99,1.97,0,.62-.23,1.21-.64,1.67l-.94,1.04c-.15.16-.23.36-.23.58v.36h-.95v-.36c0-.45.16-.88.47-1.22l.94-1.04c.26-.29.4-.65.4-1.04,0-.56-.46-1.02-1.03-1.02h-.61c-.57,0-1.03.46-1.03,1.02h-.96c0-1.09.89-1.97,1.99-1.97h.61M13.8,8.62h-.61c-1.51,0-2.75,1.23-2.75,2.73v.76h2.48v-.76c0-.14.12-.26.27-.26h.61c.15,0,.27.12.27.26,0,.2-.07.38-.2.53l-.94,1.04c-.43.47-.66,1.08-.67,1.72v.37s0,.75,0,.75h2.46v-.75s.01-.36.01-.36c0-.02,0-.05.03-.08l.94-1.04c.54-.6.84-1.38.84-2.18,0-1.51-1.23-2.73-2.75-2.73h0Z"/>
    </g>
  </g>
</svg>