<?xml version="1.0" encoding="UTF-8"?>
<svg id="Layer_1" xmlns="http://www.w3.org/2000/svg" version="1.1" viewBox="0 0 116 116">
  <!-- Generator: Adobe Illustrator 30.1.0, SVG Export Plug-In . SVG Version: 2.1.1 Build 136)  -->
  <circle id="Outer" cx="58" cy="58" r="49.88" fill="none" stroke="#000" stroke-width="16.24"/>
  <g>
    <g>
      <rect x="54.32" y="74.82" width="7.29" height="7.29"/>
      <path d="M60.34,76.09v4.75h-4.75v-4.75h4.75M62.88,73.56h-9.83v9.83h9.83v-9.83h0Z"/>
    </g>
    <g>
      <path d="M54.34,67.24l-.03-3.05c0-2.58.96-5.03,2.68-6.94l4.7-5.21c1.08-1.19,1.67-2.73,1.67-4.33,0-2.11-1.73-3.82-3.86-3.82h-3.02c-2.13,0-3.86,1.71-3.86,3.82v1.27h-7.33v-1.27c0-6.13,5.02-11.12,11.19-11.12h3.02c6.17,0,11.19,4.99,11.19,11.12,0,3.4-1.26,6.67-3.55,9.21l-4.71,5.21c-.53.58-.81,1.29-.81,2.05l-.03,3.06h-7.26Z"/>
      <path d="M59.51,37.86c5.47,0,9.92,4.42,9.92,9.85,0,3.09-1.14,6.06-3.22,8.36l-4.71,5.21c-.73.81-1.13,1.81-1.14,2.89l-.02,1.8h-4.75l-.02-1.8c0-2.25.84-4.4,2.35-6.07l4.7-5.21c1.29-1.43,2-3.27,2-5.18,0-2.81-2.3-5.09-5.13-5.09h-3.02c-2.83,0-5.13,2.28-5.13,5.09h-4.79c0-5.43,4.45-9.85,9.92-9.85h3.02M59.51,35.32h-3.02c-6.87,0-12.46,5.56-12.46,12.39v2.54h9.87v-2.54c0-1.41,1.16-2.55,2.59-2.55h3.02c1.43,0,2.59,1.15,2.59,2.55,0,1.29-.48,2.52-1.34,3.48l-4.7,5.21c-1.93,2.13-3,4.89-3.01,7.76l.02,1.83.02,2.52h9.78l.03-2.51.02-1.8c0-.46.16-.87.48-1.22l4.71-5.22c2.5-2.77,3.87-6.34,3.87-10.06,0-6.83-5.59-12.39-12.46-12.39h0Z"/>
    </g>
  </g>
</svg>