<?xml version="1.0" encoding="UTF-8"?>
<svg id="Layer_1" xmlns="http://www.w3.org/2000/svg" version="1.1" viewBox="0 0 83 83">
  <!-- Generator: Adobe Illustrator 30.1.0, SVG Export Plug-In . SVG Version: 2.1.1 Build 136)  -->
  <circle id="Outer" cx="41.5" cy="41.5" r="37.16" fill="none" stroke="#000" stroke-width="8.69"/>
  <g>
    <g>
      <rect x="38.88" y="54.65" width="5.2" height="5.2"/>
      <path d="M43.42,55.3v3.9h-3.9v-3.9h3.9M44.72,54h-6.49v6.49h6.49v-6.49h0Z"/>
    </g>
    <g>
      <path d="M38.89,49l-.02-2.12c0-2.01.75-3.93,2.1-5.42l3.86-4.28c.95-1.05,1.47-2.41,1.47-3.82,0-1.95-1.6-3.53-3.56-3.53h-2.48c-1.96,0-3.56,1.58-3.56,3.53v.65h-5.23v-.65c0-4.81,3.94-8.73,8.79-8.73h2.48c4.85,0,8.79,3.92,8.79,8.73,0,2.7-1,5.29-2.81,7.29l-3.86,4.28c-.5.55-.76,1.22-.77,1.94l-.02,2.12h-5.18Z"/>
      <path d="M42.74,25.28c4.49,0,8.14,3.63,8.14,8.08,0,2.54-.94,4.97-2.64,6.86l-3.86,4.28c-.6.66-.93,1.48-.93,2.37v1.47h-3.91v-1.47c0-1.85.67-3.61,1.92-4.98l3.86-4.28c1.06-1.17,1.64-2.68,1.64-4.25,0-2.3-1.89-4.18-4.21-4.18h-2.48c-2.32,0-4.21,1.87-4.21,4.18h-3.93c0-4.46,3.65-8.08,8.14-8.08h2.48M42.74,23.99h-2.48c-5.2,0-9.44,4.21-9.44,9.38v1.3h6.53v-1.3c0-1.59,1.31-2.88,2.91-2.88h2.48c1.6,0,2.91,1.29,2.91,2.88,0,1.25-.46,2.45-1.3,3.38l-3.86,4.28c-1.45,1.61-2.26,3.68-2.27,5.85v1.49s.02,1.29.02,1.29h6.47v-1.28s.03-1.47.03-1.47c0-.57.21-1.09.6-1.52l3.86-4.28c1.92-2.13,2.98-4.87,2.98-7.73,0-5.17-4.23-9.38-9.44-9.38h0Z"/>
    </g>
  </g>
</svg>