<?xml version="1.0" encoding="UTF-8"?>
<svg id="Layer_1" xmlns="http://www.w3.org/2000/svg" version="1.1" viewBox="0 0 83 83">
  <!-- Generator: Adobe Illustrator 30.1.0, SVG Export Plug-In . SVG Version: 2.1.1 Build 136)  -->
  <circle id="Outer" cx="41.5" cy="41.5" r="34.22" fill="none" stroke="#000" stroke-width="14.55"/>
  <g>
    <g>
      <rect x="38.85" y="52.42" width="5.26" height="5.26"/>
      <path d="M42.94,53.58v2.92h-2.92v-2.92h2.92M45.28,51.25h-7.59v7.59h7.59v-7.59h0Z"/>
    </g>
    <g>
      <path d="M38.87,47.29l-.02-2.26c0-1.69.63-3.29,1.75-4.53l2.9-3.21c.6-.66.93-1.52.93-2.41,0-1.08-.89-1.97-1.99-1.97h-1.86c-1.1,0-1.99.88-1.99,1.97v1.17h-5.28v-1.17c0-3.99,3.26-7.23,7.27-7.23h1.86c4.01,0,7.27,3.24,7.27,7.23,0,2.19-.81,4.3-2.28,5.93l-2.9,3.21c-.26.29-.4.63-.4,1l-.02,2.27h-5.24Z"/>
      <path d="M42.43,28.82c3.37,0,6.11,2.72,6.11,6.06,0,1.9-.7,3.73-1.98,5.14l-2.9,3.21c-.45.5-.7,1.11-.7,1.78v1.11h-2.94v-1.11c0-1.39.51-2.71,1.44-3.74l2.9-3.21c.79-.88,1.23-2.01,1.23-3.19,0-1.73-1.42-3.13-3.16-3.13h-1.86c-1.74,0-3.16,1.41-3.16,3.13h-2.95c0-3.34,2.74-6.06,6.11-6.06h1.86M42.43,26.49h-1.86c-4.65,0-8.44,3.77-8.44,8.4v2.33h7.62v-2.33c0-.44.37-.8.82-.8h1.86c.45,0,.82.36.82.8,0,.6-.22,1.18-.63,1.62l-2.9,3.21c-1.31,1.45-2.04,3.33-2.05,5.29v1.13s.03,2.31.03,2.31h7.55l.02-2.31v-1.11c.01-.08.02-.15.11-.24l2.9-3.21c1.67-1.85,2.58-4.23,2.58-6.71,0-4.63-3.79-8.4-8.44-8.4h0Z"/>
    </g>
  </g>
</svg>