<?xml version="1.0" encoding="UTF-8"?>
<svg id="Layer_1" xmlns="http://www.w3.org/2000/svg" version="1.1" viewBox="0 0 83 83">
  <!-- Generator: Adobe Illustrator 30.1.0, SVG Export Plug-In . SVG Version: 2.1.1 Build 136)  -->
  <circle id="Outer" cx="41.5" cy="41.5" r="35.69" fill="none" stroke="#000" stroke-width="11.62"/>
  <g>
    <g>
      <rect x="38.87" y="53.54" width="5.21" height="5.22"/>
      <path d="M43.18,54.45v3.4h-3.4v-3.4h3.4M44.99,52.63h-7.03v7.03h7.03v-7.03h0Z"/>
    </g>
    <g>
      <path d="M38.88,48.11l-.02-2.19c0-1.84.69-3.6,1.92-4.96l3.37-3.73c.77-.85,1.2-1.95,1.2-3.1,0-1.51-1.24-2.73-2.76-2.73h-2.16c-1.52,0-2.76,1.23-2.76,2.73v.91h-5.24v-.91c0-4.39,3.59-7.96,8.01-7.96h2.16c4.41,0,8.01,3.57,8.01,7.96,0,2.44-.9,4.78-2.54,6.59l-3.37,3.73c-.38.42-.58.92-.58,1.46l-.02,2.19h-5.2Z"/>
      <path d="M42.58,27.09c3.91,0,7.1,3.16,7.1,7.05,0,2.21-.82,4.33-2.3,5.98l-3.37,3.73c-.52.58-.81,1.29-.81,2.07v1.29h-3.41v-1.29c0-1.61.59-3.15,1.67-4.34l3.37-3.73c.92-1.02,1.43-2.34,1.43-3.71,0-2.01-1.65-3.64-3.67-3.64h-2.16c-2.02,0-3.67,1.63-3.67,3.64h-3.43c0-3.89,3.18-7.05,7.1-7.05h2.16M42.58,25.27h-2.16c-4.91,0-8.91,3.98-8.91,8.86v1.82h7.06v-1.82c0-1.01.83-1.83,1.85-1.83h2.16c1.02,0,1.85.82,1.85,1.83,0,.92-.34,1.8-.96,2.49l-3.37,3.73c-1.38,1.53-2.14,3.5-2.15,5.55v1.31s.03,1.8.03,1.8h7l.02-1.8v-1.29c.01-.33.13-.62.36-.87l3.37-3.73c1.79-1.98,2.77-4.54,2.77-7.2,0-4.89-4-8.86-8.91-8.86h0Z"/>
    </g>
  </g>
</svg>