<?xml version="1.0" encoding="UTF-8"?>
<svg id="Layer_1" xmlns="http://www.w3.org/2000/svg" version="1.1" viewBox="0 0 108 108">
  <!-- Generator: Adobe Illustrator 30.1.0, SVG Export Plug-In . SVG Version: 2.1.1 Build 136)  -->
  <g>
    <g>
      <rect x="50.11" y="30.1" width="7.78" height="7.78"/>
      <path d="M56.71,31.28v5.41h-5.41v-5.41h5.41M59.07,28.92h-10.14v10.14h10.14v-10.14h0Z"/>
    </g>
    <g>
      <polygon points="44.7 77.27 44.7 69.5 50.11 69.5 50.11 54.96 44.7 54.96 44.7 47.18 57.89 47.18 57.89 69.5 63.3 69.5 63.3 77.27 44.7 77.27"/>
      <path d="M56.71,48.37v22.31h5.41v5.41h-16.24v-5.41h5.41v-16.9h-5.41v-5.41h10.83M59.07,46h-15.55v10.14h5.41v12.18h-5.41v10.14h20.97v-10.14h-5.41v-22.31h0Z"/>
    </g>
  </g>
  <circle id="Outer" cx="54" cy="54" r="46.44" fill="none" stroke="#000" stroke-width="15.12"/>
</svg>