<?xml version="1.0" encoding="UTF-8"?>
<svg id="Layer_1" xmlns="http://www.w3.org/2000/svg" version="1.1" viewBox="0 0 99 99">
  <!-- Generator: Adobe Illustrator 30.1.0, SVG Export Plug-In . SVG Version: 2.1.1 Build 136)  -->
  <g>
    <g>
      <rect x="45.94" y="27.59" width="7.13" height="7.13"/>
      <path d="M51.98,28.67v4.96h-4.96v-4.96h4.96M54.15,26.51h-9.29v9.29h9.29v-9.29h0Z"/>
    </g>
    <g>
      <polygon points="40.97 70.83 40.97 63.71 45.94 63.71 45.94 50.38 40.97 50.38 40.97 43.25 53.06 43.25 53.06 63.71 58.03 63.71 58.03 70.83 40.97 70.83"/>
      <path d="M51.98,44.34v20.45h4.96v4.96h-14.89v-4.96h4.96v-15.49h-4.96v-4.96h9.92M54.15,42.17h-14.26v9.29h4.96v11.16h-4.96v9.29h19.22v-9.29h-4.96v-20.45h0Z"/>
    </g>
  </g>
  <circle id="Outer" cx="49.5" cy="49.5" r="42.57" fill="none" stroke="#000" stroke-width="13.86"/>
</svg>