<?xml version="1.0" encoding="UTF-8"?>
<svg id="Layer_1" xmlns="http://www.w3.org/2000/svg" version="1.1" viewBox="0 0 31 31">
  <!-- Generator: Adobe Illustrator 30.1.0, SVG Export Plug-In . SVG Version: 2.1.1 Build 136)  -->
  <g>
    <g>
      <rect x="14.38" y="8.64" width="2.23" height="2.23"/>
      <path d="M16.28,8.98v1.55h-1.55v-1.55h1.55M16.96,8.3h-2.91v2.91h2.91v-2.91h0Z"/>
    </g>
    <g>
      <polygon points="12.83 22.18 12.83 19.95 14.38 19.95 14.38 15.78 12.83 15.78 12.83 13.54 16.62 13.54 16.62 19.95 18.17 19.95 18.17 22.18 12.83 22.18"/>
      <path d="M16.28,13.88v6.4h1.55v1.55h-4.66v-1.55h1.55v-4.85h-1.55v-1.55h3.11M16.96,13.2h-4.46v2.91h1.55v3.49h-1.55v2.91h6.02v-2.91h-1.55v-6.4h0Z"/>
    </g>
  </g>
  <circle id="Outer" cx="15.5" cy="15.5" r="13.33" fill="none" stroke="#000" stroke-width="4.34"/>
</svg>