<?xml version="1.0" encoding="UTF-8"?>
<svg id="Layer_1" xmlns="http://www.w3.org/2000/svg" version="1.1" viewBox="0 0 50 50">
  <!-- Generator: Adobe Illustrator 30.1.0, SVG Export Plug-In . SVG Version: 2.1.1 Build 136)  -->
  <circle id="Outer" cx="25" cy="25" r="21.5" fill="none" stroke="#000" stroke-width="7"/>
  <g>
    <g>
      <rect x="23.42" y="32.25" width="3.14" height="3.14"/>
      <path d="M26.01,32.8v2.05h-2.05v-2.05h2.05M27.1,31.7h-4.24v4.24h4.24v-4.24h0Z"/>
    </g>
    <g>
      <path d="M23.42,28.98v-1.32c0-1.11.4-2.17,1.14-2.99l2.03-2.25c.46-.51.72-1.18.72-1.87,0-.91-.75-1.65-1.66-1.65h-1.3c-.92,0-1.66.74-1.66,1.65v.55h-3.16v-.55c0-2.64,2.16-4.79,4.82-4.79h1.3c2.66,0,4.82,2.15,4.82,4.79,0,1.47-.54,2.88-1.53,3.97l-2.03,2.25c-.23.25-.35.56-.35.88v1.32h-3.14Z"/>
      <path d="M25.65,16.32c2.36,0,4.28,1.9,4.28,4.25,0,1.33-.49,2.61-1.39,3.6l-2.03,2.25c-.31.35-.49.78-.49,1.25v.77h-2.06v-.77c0-.97.35-1.9,1.01-2.62l2.03-2.25c.56-.61.86-1.41.86-2.23,0-1.21-.99-2.19-2.21-2.19h-1.3c-1.22,0-2.21.98-2.21,2.19h-2.07c0-2.34,1.92-4.25,4.28-4.25h1.3M25.65,15.22h-1.3c-2.96,0-5.37,2.4-5.37,5.34v1.09h4.25v-1.09c0-.61.5-1.1,1.12-1.1h1.3c.62,0,1.12.49,1.12,1.1,0,.55-.21,1.09-.58,1.5l-2.03,2.25c-.83.92-1.29,2.11-1.3,3.35v.79s.02,1.08.02,1.08h4.21v-1.08s.02-.77.02-.77c0-.2.07-.37.21-.52l2.03-2.25c1.08-1.19,1.67-2.73,1.67-4.34,0-2.94-2.41-5.34-5.37-5.34h0Z"/>
    </g>
  </g>
</svg>