<?xml version="1.0" encoding="UTF-8"?>
<svg id="Layer_1" xmlns="http://www.w3.org/2000/svg" version="1.1" viewBox="0 0 63 63">
  <!-- Generator: Adobe Illustrator 30.1.0, SVG Export Plug-In . SVG Version: 2.1.1 Build 136)  -->
  <circle id="Outer" cx="31.5" cy="31.5" r="27.09" fill="none" stroke="#000" stroke-width="8.82"/>
  <g>
    <g>
      <rect x="29.5" y="40.64" width="3.96" height="3.96"/>
      <path d="M32.77,41.33v2.58h-2.58v-2.58h2.58M34.15,39.95h-5.34v5.34h5.34v-5.34h0Z"/>
    </g>
    <g>
      <path d="M29.51,36.52v-1.66c0-1.4.51-2.73,1.44-3.77l2.55-2.83c.58-.65.91-1.48.91-2.35,0-1.14-.94-2.08-2.1-2.08h-1.64c-1.16,0-2.1.93-2.1,2.08v.69h-3.98v-.69c0-3.33,2.73-6.04,6.08-6.04h1.64c3.35,0,6.08,2.71,6.08,6.04,0,1.85-.68,3.62-1.93,5l-2.56,2.83c-.29.32-.44.7-.44,1.11l-.02,1.66h-3.95Z"/>
      <path d="M32.32,20.56c2.97,0,5.39,2.4,5.39,5.35,0,1.68-.62,3.29-1.75,4.54l-2.56,2.83c-.4.44-.62.98-.62,1.57v.98h-2.59v-.98c0-1.22.45-2.39,1.27-3.3l2.56-2.83c.7-.77,1.08-1.77,1.08-2.81,0-1.52-1.25-2.76-2.78-2.76h-1.64c-1.54,0-2.78,1.24-2.78,2.76h-2.6c0-2.95,2.42-5.35,5.39-5.35h1.64M32.32,19.18h-1.64c-3.73,0-6.77,3.02-6.77,6.73v1.38h5.36v-1.38c0-.76.63-1.39,1.41-1.39h1.64c.78,0,1.41.62,1.41,1.39,0,.7-.26,1.37-.73,1.89l-2.56,2.83c-1.05,1.16-1.63,2.66-1.63,4.22v.99s.02,1.37.02,1.37h5.31v-1.36s.02-.98.02-.98c0-.25.09-.47.26-.66l2.56-2.83c1.36-1.5,2.1-3.44,2.1-5.46,0-3.71-3.03-6.73-6.77-6.73h0Z"/>
    </g>
  </g>
</svg>