<?xml version="1.0" encoding="UTF-8"?>
<svg id="Layer_1" xmlns="http://www.w3.org/2000/svg" version="1.1" viewBox="0 0 63 63">
  <!-- Generator: Adobe Illustrator 30.1.0, SVG Export Plug-In . SVG Version: 2.1.1 Build 136)  -->
  <path d="M31.5,6.6c.81,0,1.62.42,2.04,1.26l5.21,10.34c.89,1.77,2.56,3.03,4.51,3.4l11.27,2.11c1.76.33,2.48,2.47,1.27,3.8l-8.21,9.01c-1.27,1.39-1.86,3.27-1.61,5.14l1.6,12.15c.19,1.45-.96,2.6-2.27,2.6-.35,0-.7-.08-1.05-.26l-9.86-5.08c-.91-.47-1.91-.71-2.91-.71-1,0-2,.24-2.91.71l-9.86,5.08c-.34.18-.7.26-1.05.26-1.3,0-2.46-1.15-2.27-2.6l1.6-12.16c.25-1.86-.34-3.74-1.61-5.13l-8.21-9.01c-1.21-1.33-.49-3.47,1.27-3.8l11.27-2.11c1.95-.37,3.62-1.62,4.51-3.39l5.21-10.34c.42-.84,1.23-1.26,2.04-1.26M31.5,0C28.13,0,25.09,1.87,23.57,4.89l-5.16,10.24-11.16,2.09c-3.16.59-5.76,2.86-6.79,5.91-1.02,3.06-.31,6.43,1.86,8.81l8.14,8.94-1.59,12.06c-.34,2.54.44,5.1,2.12,7.02,1.69,1.93,4.13,3.04,6.69,3.04,1.4,0,2.81-.34,4.07-.99l9.75-5.02,9.75,5.02c1.26.65,2.66.99,4.07.99,2.56,0,4.99-1.11,6.68-3.04,1.68-1.92,2.46-4.48,2.12-7.02l-1.59-12.06,8.15-8.94c2.17-2.38,2.88-5.76,1.86-8.81-1.02-3.05-3.62-5.32-6.79-5.91l-11.16-2.09-5.16-10.24C37.91,1.87,34.87,0,31.5,0h0Z"/>
</svg>