<?xml version="1.0" encoding="UTF-8"?>
<svg id="Layer_1" xmlns="http://www.w3.org/2000/svg" version="1.1" viewBox="0 0 63 63">
  <!-- Generator: Adobe Illustrator 30.1.0, SVG Export Plug-In . SVG Version: 2.1.1 Build 136)  -->
  <path d="M31.5,8.82c.74,0,1.47.38,1.86,1.15l4.74,9.42c.81,1.62,2.33,2.76,4.11,3.09l10.26,1.92c1.6.3,2.26,2.25,1.15,3.46l-7.48,8.21c-1.15,1.27-1.69,2.98-1.47,4.68l1.46,11.07c.17,1.32-.88,2.37-2.06,2.37-.31,0-.64-.07-.95-.23l-8.98-4.62c-.83-.43-1.74-.64-2.65-.64-.91,0-1.82.21-2.65.64l-8.98,4.62c-.31.16-.64.23-.95.23-1.19,0-2.24-1.05-2.06-2.37l1.46-11.07c.22-1.7-.31-3.41-1.46-4.67l-7.48-8.21c-1.1-1.21-.45-3.16,1.16-3.46l10.26-1.92c1.77-.33,3.29-1.48,4.11-3.09l4.75-9.42c.39-.76,1.12-1.15,1.86-1.15M31.5,0C27.36,0,23.63,2.3,21.76,6l-4.07,8.09-8.79,1.65c-3.88.73-7.08,3.51-8.33,7.26-1.26,3.75-.38,7.89,2.28,10.82l6.54,7.17-1.28,9.68c-.41,3.12.54,6.26,2.61,8.61,2.08,2.37,5.07,3.73,8.2,3.73,1.72,0,3.45-.42,4.99-1.21l7.59-3.91,7.59,3.91c1.54.79,3.27,1.21,4.99,1.21,3.14,0,6.13-1.36,8.2-3.73,2.07-2.36,3.02-5.5,2.61-8.61l-1.28-9.68,6.54-7.17c2.66-2.92,3.54-7.07,2.28-10.81-1.26-3.75-4.45-6.53-8.33-7.25l-8.79-1.65-4.07-8.09C39.37,2.3,35.64,0,31.5,0h0Z"/>
</svg>