<?xml version="1.0" encoding="UTF-8"?>
<svg id="Layer_1" xmlns="http://www.w3.org/2000/svg" version="1.1" viewBox="0 0 63 63">
  <!-- Generator: Adobe Illustrator 30.1.0, SVG Export Plug-In . SVG Version: 2.1.1 Build 136)  -->
  <path d="M31.5,11.04c.67,0,1.33.34,1.68,1.03l4.28,8.49c.73,1.46,2.1,2.49,3.71,2.79l9.26,1.74c1.45.27,2.03,2.03,1.04,3.12l-6.75,7.4c-1.04,1.14-1.52,2.69-1.32,4.22l1.32,9.98c.16,1.19-.79,2.13-1.86,2.13-.28,0-.58-.07-.86-.21l-8.1-4.17c-.75-.39-1.57-.58-2.39-.58s-1.64.19-2.39.58l-8.1,4.17c-.28.15-.58.21-.86.21-1.07,0-2.02-.94-1.86-2.13l1.32-9.98c.2-1.53-.28-3.07-1.32-4.21l-6.75-7.4c-.99-1.09-.41-2.85,1.04-3.12l9.26-1.74c1.6-.3,2.97-1.33,3.7-2.79l4.28-8.5c.35-.69,1.01-1.03,1.68-1.03M31.5,0C26.59,0,22.17,2.72,19.96,7.11l-2.99,5.93-6.43,1.2c-4.6.86-8.39,4.16-9.87,8.6-1.49,4.44-.45,9.35,2.7,12.82l4.93,5.41-.96,7.31c-.49,3.69.64,7.41,3.09,10.21,2.46,2.8,6,4.41,9.72,4.41,2.04,0,4.09-.5,5.92-1.44l5.43-2.8,5.43,2.8c1.83.94,3.87,1.44,5.92,1.44,3.72,0,7.26-1.61,9.72-4.41,2.45-2.8,3.58-6.52,3.09-10.21l-.96-7.31,4.93-5.41c3.16-3.46,4.19-8.37,2.7-12.82-1.49-4.44-5.27-7.74-9.87-8.6l-6.43-1.2-2.99-5.93C40.83,2.72,36.41,0,31.5,0h0Z"/>
</svg>