<?xml version="1.0" encoding="UTF-8"?>
<svg id="Layer_1" xmlns="http://www.w3.org/2000/svg" version="1.1" viewBox="0 0 98 98">
  <!-- Generator: Adobe Illustrator 30.1.0, SVG Export Plug-In . SVG Version: 2.1.1 Build 136)  -->
  <g>
    <g>
      <rect x="45.53" y="26.06" width="6.95" height="6.95"/>
      <path d="M51.71,26.83v5.42h-5.42v-5.42h5.42M53.24,25.3h-8.48v8.48h8.48v-8.48h0Z"/>
    </g>
    <g>
      <polygon points="40.11 71.64 40.11 64.69 45.53 64.69 45.53 49.31 40.11 49.31 40.11 42.36 52.47 42.36 52.47 64.69 57.89 64.69 57.89 71.64 40.11 71.64"/>
      <path d="M51.71,43.13v22.33h5.42v5.42h-16.25v-5.42h5.42v-16.91h-5.42v-5.42h10.84M53.24,41.6h-13.9v8.48h5.42v13.85h-5.42v8.48h19.32v-8.48h-5.42v-22.33h0Z"/>
    </g>
  </g>
  <circle id="Outer" cx="49" cy="49" r="43.87" fill="none" stroke="#000" stroke-width="10.26"/>
</svg>