<?xml version="1.0" encoding="UTF-8"?>
<svg id="Layer_1" xmlns="http://www.w3.org/2000/svg" version="1.1" viewBox="0 0 98 98">
  <!-- Generator: Adobe Illustrator 30.1.0, SVG Export Plug-In . SVG Version: 2.1.1 Build 136)  -->
  <g>
    <g>
      <rect x="45.47" y="27.31" width="7.06" height="7.06"/>
      <path d="M51.46,28.38v4.91h-4.91v-4.91h4.91M53.6,26.24h-9.2v9.2h9.2v-9.2h0Z"/>
    </g>
    <g>
      <polygon points="40.56 70.12 40.56 63.06 45.47 63.06 45.47 49.87 40.56 49.87 40.56 42.82 52.53 42.82 52.53 63.06 57.44 63.06 57.44 70.12 40.56 70.12"/>
      <path d="M51.46,43.89v20.25h4.91v4.91h-14.74v-4.91h4.91v-15.34h-4.91v-4.91h9.82M53.6,41.74h-14.11v9.2h4.91v11.05h-4.91v9.2h19.02v-9.2h-4.91v-20.25h0Z"/>
    </g>
  </g>
  <circle id="Outer" cx="49" cy="49" r="42.14" fill="none" stroke="#000" stroke-width="13.72"/>
</svg>