<?xml version="1.0" encoding="UTF-8"?>
<svg id="Layer_1" xmlns="http://www.w3.org/2000/svg" version="1.1" viewBox="0 0 21 21">
  <!-- Generator: Adobe Illustrator 30.1.0, SVG Export Plug-In . SVG Version: 2.1.1 Build 136)  -->
  <circle id="Outer" cx="10.5" cy="10.5" r="9.03" fill="none" stroke="#000" stroke-width="2.94"/>
  <g>
    <g>
      <rect x="9.83" y="13.55" width="1.32" height="1.32"/>
      <path d="M10.92,13.78v.86h-.86v-.86h.86M11.38,13.32h-1.78v1.78h1.78v-1.78h0Z"/>
    </g>
    <g>
      <path d="M9.84,12.17v-.55c0-.47.17-.91.48-1.25l.85-.94c.2-.22.3-.5.3-.78,0-.38-.31-.69-.7-.69h-.55c-.39,0-.7.31-.7.69v.23h-1.33v-.23c0-1.11.91-2.01,2.03-2.01h.55c1.12,0,2.03.9,2.03,2.01,0,.62-.23,1.21-.64,1.67l-.85.94c-.1.1-.15.23-.15.37v.55h-1.32Z"/>
      <path d="M10.77,6.85c.99,0,1.8.8,1.8,1.78,0,.56-.21,1.1-.58,1.51l-.85.94c-.13.15-.21.33-.21.52v.33h-.86v-.33c0-.41.15-.8.42-1.1l.85-.94c.23-.26.36-.59.36-.94,0-.51-.42-.92-.93-.92h-.55c-.51,0-.93.41-.93.92h-.87c0-.98.81-1.78,1.8-1.78h.55M10.77,6.39h-.55c-1.24,0-2.26,1.01-2.26,2.24v.46h1.79v-.46c0-.25.21-.46.47-.46h.55c.26,0,.47.21.47.46,0,.23-.09.46-.24.63l-.85.94c-.35.39-.54.89-.54,1.41v.33s0,.46,0,.46h1.77v-.45s0-.33,0-.33c0-.08.03-.16.09-.22l.85-.94c.45-.5.7-1.15.7-1.82,0-1.24-1.01-2.24-2.26-2.24h0Z"/>
    </g>
  </g>
</svg>