<?xml version="1.0" encoding="UTF-8"?>
<svg id="Layer_1" xmlns="http://www.w3.org/2000/svg" version="1.1" viewBox="0 0 21 21">
  <!-- Generator: Adobe Illustrator 30.1.0, SVG Export Plug-In . SVG Version: 2.1.1 Build 136)  -->
  <circle id="Outer" cx="10.5" cy="10.5" r="9.4" fill="none" stroke="#000" stroke-width="2.2"/>
  <g>
    <g>
      <rect x="9.84" y="13.83" width="1.31" height="1.31"/>
      <path d="M10.99,13.99v.99h-.99v-.99h.99M11.32,13.66h-1.64v1.64h1.64v-1.64h0Z"/>
    </g>
    <g>
      <path d="M9.84,12.4v-.54c0-.51.19-1,.53-1.37l.98-1.08c.24-.27.37-.61.37-.97,0-.49-.4-.89-.9-.89h-.63c-.5,0-.9.4-.9.89v.16h-1.32v-.16c0-1.22,1-2.21,2.22-2.21h.63c1.23,0,2.22.99,2.22,2.21,0,.68-.25,1.34-.71,1.85l-.98,1.08c-.13.14-.19.31-.19.49v.54h-1.32Z"/>
      <path d="M10.81,6.4c1.14,0,2.06.92,2.06,2.04,0,.64-.24,1.26-.67,1.74l-.98,1.08c-.15.17-.24.38-.24.6v.37h-.99v-.37c0-.47.17-.91.49-1.26l.98-1.08c.27-.3.41-.68.41-1.08,0-.58-.48-1.06-1.06-1.06h-.63c-.59,0-1.06.47-1.06,1.06h-.99c0-1.13.92-2.04,2.06-2.04h.63M10.81,6.07h-.63c-1.32,0-2.39,1.06-2.39,2.37v.33h1.65v-.33c0-.4.33-.73.74-.73h.63c.41,0,.74.33.74.73,0,.32-.12.62-.33.86l-.98,1.08c-.37.41-.57.93-.57,1.48v.38s0,.33,0,.33h1.64v-.32s0-.37,0-.37c0-.14.05-.28.15-.38l.98-1.08c.49-.54.75-1.23.75-1.96,0-1.31-1.07-2.37-2.39-2.37h0Z"/>
    </g>
  </g>
</svg>