<?xml version="1.0" encoding="UTF-8"?>
<svg id="Layer_1" xmlns="http://www.w3.org/2000/svg" version="1.1" viewBox="0 0 21 21">
  <!-- Generator: Adobe Illustrator 30.1.0, SVG Export Plug-In . SVG Version: 2.1.1 Build 136)  -->
  <circle id="Outer" cx="10.5" cy="10.5" r="8.66" fill="none" stroke="#000" stroke-width="3.68"/>
  <g>
    <g>
      <rect x="9.83" y="13.26" width="1.33" height="1.33"/>
      <path d="M10.86,13.56v.74h-.74v-.74h.74M11.46,12.97h-1.92v1.92h1.92v-1.92h0Z"/>
    </g>
    <g>
      <path d="M9.83,11.96v-.57c0-.43.15-.83.44-1.15l.73-.81c.15-.17.24-.38.24-.61,0-.27-.23-.5-.5-.5h-.47c-.28,0-.5.22-.5.5v.3h-1.34v-.3c0-1.01.83-1.83,1.84-1.83h.47c1.01,0,1.84.82,1.84,1.83,0,.55-.21,1.09-.58,1.5l-.73.81c-.07.07-.1.16-.1.25v.57h-1.33Z"/>
      <path d="M10.74,7.29c.85,0,1.54.69,1.54,1.53,0,.48-.18.94-.5,1.3l-.73.81c-.11.13-.18.28-.18.45v.28h-.74v-.28c0-.35.13-.68.36-.95l.73-.81c.2-.22.31-.51.31-.81,0-.44-.36-.79-.8-.79h-.47c-.44,0-.8.36-.8.79h-.75c0-.85.69-1.53,1.54-1.53h.47M10.74,6.7h-.47c-1.18,0-2.14.95-2.14,2.12v.59h1.93v-.59c0-.11.09-.2.21-.2h.47c.11,0,.21.09.21.2,0,.15-.06.3-.16.41l-.73.81c-.33.37-.52.84-.52,1.34v.29s0,.59,0,.59h1.91v-.58s0-.28,0-.28c0-.02,0-.04.02-.06l.73-.81c.42-.47.65-1.07.65-1.7,0-1.17-.96-2.12-2.14-2.12h0Z"/>
    </g>
  </g>
</svg>