<?xml version="1.0" encoding="UTF-8"?>
<svg id="Layer_1" xmlns="http://www.w3.org/2000/svg" version="1.1" viewBox="0 0 11 11">
  <!-- Generator: Adobe Illustrator 30.1.0, SVG Export Plug-In . SVG Version: 2.1.1 Build 136)  -->
  <circle id="Outer" cx="5.5" cy="5.5" r="4.92" fill="none" stroke="#000" stroke-width="1.15"/>
  <g>
    <g>
      <rect x="5.15" y="7.24" width=".69" height=".69"/>
      <path d="M5.76,7.33v.52h-.52v-.52h.52M5.93,7.16h-.86v.86h.86v-.86h0Z"/>
    </g>
    <g>
      <path d="M5.15,6.49v-.28c0-.27.1-.52.28-.72l.51-.57c.13-.14.19-.32.19-.51,0-.26-.21-.47-.47-.47h-.33c-.26,0-.47.21-.47.47v.09h-.69v-.09c0-.64.52-1.16,1.16-1.16h.33c.64,0,1.16.52,1.16,1.16,0,.36-.13.7-.37.97l-.51.57c-.07.07-.1.16-.1.26v.28h-.69Z"/>
      <path d="M5.66,3.35c.59,0,1.08.48,1.08,1.07,0,.34-.12.66-.35.91l-.51.57c-.08.09-.12.2-.12.31v.2h-.52v-.2c0-.24.09-.48.25-.66l.51-.57c.14-.16.22-.36.22-.56,0-.31-.25-.55-.56-.55h-.33c-.31,0-.56.25-.56.55h-.52c0-.59.48-1.07,1.08-1.07h.33M5.66,3.18h-.33c-.69,0-1.25.56-1.25,1.24v.17h.86v-.17c0-.21.17-.38.39-.38h.33c.21,0,.39.17.39.38,0,.17-.06.32-.17.45l-.51.57c-.19.21-.3.49-.3.77v.2s0,.17,0,.17h.86v-.17s0-.2,0-.2c0-.07.03-.14.08-.2l.51-.57c.25-.28.39-.65.39-1.02,0-.69-.56-1.24-1.25-1.24h0Z"/>
    </g>
  </g>
</svg>