<?xml version="1.0" encoding="UTF-8"?>
<svg id="Layer_1" xmlns="http://www.w3.org/2000/svg" version="1.1" viewBox="0 0 98 98">
  <!-- Generator: Adobe Illustrator 30.1.0, SVG Export Plug-In . SVG Version: 2.1.1 Build 136)  -->
  <path d="M49,10.26c1.26,0,2.52.65,3.18,1.96l8.1,16.09c1.39,2.76,3.99,4.71,7.02,5.28l17.53,3.29c2.74.51,3.85,3.85,1.97,5.91l-12.78,14.02c-1.97,2.16-2.89,5.09-2.5,7.99l2.49,18.9c.3,2.26-1.5,4.04-3.53,4.04-.54,0-1.09-.13-1.63-.4l-15.34-7.9c-1.42-.73-2.98-1.1-4.53-1.1-1.55,0-3.11.37-4.53,1.1l-15.34,7.9c-.54.28-1.09.4-1.63.4-2.03,0-3.82-1.79-3.53-4.04l2.49-18.91c.38-2.9-.53-5.82-2.5-7.98l-12.78-14.02c-1.88-2.07-.77-5.4,1.97-5.91l17.53-3.29c3.03-.57,5.62-2.52,7.01-5.28l8.11-16.09c.66-1.31,1.92-1.96,3.18-1.96M49,0C43.75,0,39.02,2.91,36.66,7.6l-8.03,15.94-17.35,3.25c-4.92.92-8.97,4.45-10.56,9.2-1.59,4.75-.48,10.01,2.89,13.71l12.67,13.9-2.47,18.76c-.52,3.95.68,7.93,3.3,10.92,2.63,3,6.42,4.73,10.4,4.73,2.18,0,4.37-.53,6.32-1.54l15.17-7.81,15.17,7.81c1.96,1.01,4.14,1.54,6.32,1.54,3.98,0,7.77-1.72,10.4-4.73,2.62-2.99,3.82-6.96,3.3-10.92l-2.47-18.76,12.67-13.91c3.38-3.7,4.48-8.96,2.89-13.71-1.59-4.75-5.64-8.27-10.56-9.19l-17.36-3.25-8.03-15.94C58.98,2.91,54.25,0,49,0h0Z"/>
</svg>