<?xml version="1.0" encoding="UTF-8"?>
<svg id="Layer_1" xmlns="http://www.w3.org/2000/svg" version="1.1" viewBox="0 0 98 98">
  <!-- Generator: Adobe Illustrator 30.1.0, SVG Export Plug-In . SVG Version: 2.1.1 Build 136)  -->
  <path d="M49,17.18c1.03,0,2.07.54,2.61,1.61l6.66,13.21c1.14,2.27,3.27,3.87,5.76,4.34l14.4,2.7c2.25.42,3.17,3.16,1.62,4.85l-10.49,11.51c-1.62,1.78-2.37,4.18-2.06,6.56l2.05,15.52c.24,1.85-1.23,3.32-2.9,3.32-.44,0-.9-.1-1.34-.33l-12.6-6.49c-1.17-.6-2.44-.9-3.72-.9-1.28,0-2.55.3-3.72.9l-12.6,6.49c-.44.23-.89.33-1.34.33-1.67,0-3.14-1.47-2.9-3.32l2.05-15.53c.31-2.38-.44-4.78-2.05-6.56l-10.49-11.51c-1.55-1.7-.63-4.43,1.62-4.86l14.4-2.7c2.49-.47,4.62-2.07,5.76-4.34l6.66-13.22c.54-1.07,1.58-1.61,2.61-1.61M49,0C41.36,0,34.48,4.24,31.05,11.06l-4.65,9.22-10,1.87c-7.16,1.34-13.05,6.47-15.36,13.38-2.32,6.91-.7,14.55,4.21,19.94l7.67,8.41-1.5,11.37c-.76,5.74.99,11.53,4.81,15.88,3.82,4.36,9.34,6.86,15.12,6.86,3.18,0,6.36-.77,9.2-2.24l8.45-4.35,8.45,4.35c2.84,1.46,6.02,2.24,9.2,2.24,5.79,0,11.3-2.5,15.12-6.86,3.81-4.35,5.56-10.14,4.81-15.88l-1.5-11.37,7.67-8.41c4.91-5.39,6.52-13.03,4.2-19.94-2.31-6.91-8.2-12.03-15.36-13.38l-10-1.87-4.65-9.22C63.52,4.24,56.64,0,49,0h0Z"/>
</svg>