<?xml version="1.0" encoding="UTF-8"?>
<svg id="Layer_1" xmlns="http://www.w3.org/2000/svg" version="1.1" viewBox="0 0 63 63">
  <!-- Generator: Adobe Illustrator 30.1.0, SVG Export Plug-In . SVG Version: 2.1.1 Build 136)  -->
  <g>
    <g>
      <rect x="29.23" y="17.56" width="4.54" height="4.54"/>
      <path d="M33.08,18.25v3.16h-3.16v-3.16h3.16M34.46,16.87h-5.91v5.91h5.91v-5.91h0Z"/>
    </g>
    <g>
      <polygon points="26.07 45.08 26.07 40.54 29.23 40.54 29.23 32.06 26.07 32.06 26.07 27.52 33.77 27.52 33.77 40.54 36.93 40.54 36.93 45.08 26.07 45.08"/>
      <path d="M33.08,28.21v13.02h3.16v3.16h-9.47v-3.16h3.16v-9.86h-3.16v-3.16h6.32M34.46,26.84h-9.07v5.91h3.16v7.1h-3.16v5.91h12.23v-5.91h-3.16v-13.02h0Z"/>
    </g>
  </g>
  <circle id="Outer" cx="31.5" cy="31.5" r="27.09" fill="none" stroke="#000" stroke-width="8.82"/>
</svg>