<?xml version="1.0" encoding="UTF-8"?>
<svg id="Layer_1" xmlns="http://www.w3.org/2000/svg" version="1.1" viewBox="0 0 123 123">
  <!-- Generator: Adobe Illustrator 30.1.0, SVG Export Plug-In . SVG Version: 2.1.1 Build 136)  -->
  <path d="M61.5,12.88c1.58,0,3.16.82,3.99,2.46l10.17,20.19c1.75,3.46,5,5.92,8.81,6.63l22.01,4.13c3.44.64,4.84,4.83,2.48,7.42l-16.03,17.6c-2.47,2.71-3.62,6.39-3.14,10.03l3.13,23.72c.37,2.83-1.88,5.07-4.43,5.07-.67,0-1.37-.16-2.04-.5l-19.25-9.91c-1.78-.92-3.74-1.38-5.69-1.38s-3.9.46-5.69,1.38l-19.25,9.91c-.67.35-1.37.5-2.04.5-2.54,0-4.8-2.24-4.43-5.07l3.13-23.73c.48-3.64-.67-7.31-3.14-10.02l-16.04-17.6c-2.36-2.59-.97-6.78,2.48-7.42l22-4.12c3.8-.71,7.06-3.16,8.8-6.63l10.17-20.2c.83-1.64,2.41-2.46,3.99-2.46M61.5,0c-6.59,0-12.52,3.66-15.49,9.54l-10.08,20-21.78,4.08c-6.18,1.16-11.25,5.58-13.25,11.54-2,5.97-.61,12.56,3.63,17.21l15.9,17.45-3.1,23.54c-.65,4.96.86,9.95,4.14,13.7,3.3,3.77,8.06,5.93,13.05,5.93,2.74,0,5.48-.67,7.94-1.93l19.04-9.81,19.04,9.81c2.45,1.26,5.2,1.93,7.94,1.93,4.99,0,9.75-2.16,13.05-5.93,3.29-3.75,4.8-8.74,4.14-13.7l-3.1-23.54,15.91-17.45c4.24-4.65,5.63-11.24,3.63-17.21-2-5.96-7.07-10.38-13.25-11.54l-21.79-4.08-10.08-20c-2.97-5.89-8.9-9.54-15.49-9.54h0Z"/>
</svg>