<?xml version="1.0" encoding="UTF-8"?>
<svg id="Layer_1" xmlns="http://www.w3.org/2000/svg" version="1.1" viewBox="0 0 123 123">
  <!-- Generator: Adobe Illustrator 30.1.0, SVG Export Plug-In . SVG Version: 2.1.1 Build 136)  -->
  <path d="M61.5,21.56c1.3,0,2.6.67,3.28,2.02l8.36,16.59c1.43,2.85,4.11,4.86,7.24,5.45l18.08,3.39c2.83.53,3.97,3.96,2.03,6.09l-13.17,14.45c-2.03,2.23-2.98,5.25-2.58,8.24l2.57,19.49c.31,2.32-1.55,4.17-3.64,4.17-.55,0-1.12-.13-1.68-.41l-15.81-8.14c-1.47-.75-3.07-1.13-4.67-1.13-1.6,0-3.2.38-4.67,1.13l-15.81,8.14c-.55.28-1.12.41-1.68.41-2.09,0-3.94-1.84-3.64-4.17l2.57-19.49c.39-2.99-.55-6-2.58-8.23l-13.17-14.45c-1.94-2.13-.79-5.57,2.03-6.1l18.07-3.39c3.12-.59,5.8-2.6,7.23-5.44l8.36-16.59c.68-1.35,1.98-2.02,3.28-2.02M61.5,0c-9.59,0-18.22,5.32-22.53,13.88l-5.83,11.57-12.55,2.35c-8.99,1.68-16.37,8.12-19.28,16.79-2.91,8.68-.88,18.26,5.28,25.03l9.62,10.56-1.88,14.27c-.95,7.21,1.25,14.48,6.03,19.93,4.8,5.48,11.72,8.62,18.98,8.62,3.99,0,7.98-.97,11.55-2.81l10.61-5.46,10.61,5.46c3.57,1.84,7.56,2.81,11.55,2.81,7.26,0,14.18-3.14,18.98-8.62,4.78-5.46,6.98-12.72,6.03-19.93l-1.88-14.27,9.62-10.56c6.16-6.76,8.18-16.35,5.28-25.02-2.9-8.67-10.29-15.1-19.28-16.79l-12.55-2.35-5.83-11.57C79.72,5.32,71.08,0,61.5,0h0Z"/>
</svg>