<?xml version="1.0" encoding="UTF-8"?>
<svg id="Layer_1" xmlns="http://www.w3.org/2000/svg" version="1.1" viewBox="0 0 94 94">
  <!-- Generator: Adobe Illustrator 30.1.0, SVG Export Plug-In . SVG Version: 2.1.1 Build 136)  -->
  <circle id="Outer" cx="47" cy="47" r="42.08" fill="none" stroke="#000" stroke-width="9.84"/>
  <g>
    <g>
      <rect x="44.03" y="61.89" width="5.88" height="5.88"/>
      <path d="M49.18,62.63v4.41h-4.41v-4.41h4.41M50.65,61.16h-7.35v7.35h7.35v-7.35h0Z"/>
    </g>
    <g>
      <path d="M44.04,55.49l-.02-2.4c0-2.28.85-4.46,2.38-6.14l4.37-4.84c1.08-1.19,1.67-2.73,1.67-4.32,0-2.2-1.81-4-4.03-4h-2.81c-2.22,0-4.03,1.79-4.03,4v.73h-5.92v-.73c0-5.45,4.46-9.89,9.95-9.89h2.81c5.49,0,9.95,4.44,9.95,9.89,0,3.05-1.13,5.99-3.18,8.26l-4.37,4.85c-.56.62-.86,1.38-.87,2.2l-.02,2.4h-5.87Z"/>
      <path d="M48.4,28.63c5.08,0,9.22,4.11,9.22,9.15,0,2.87-1.06,5.63-2.99,7.77l-4.37,4.85c-.68.75-1.05,1.68-1.06,2.69l-.02,1.67h-4.41v-1.67c0-2.09.76-4.09,2.17-5.64l4.37-4.84c1.2-1.33,1.86-3.04,1.86-4.82,0-2.61-2.14-4.73-4.76-4.73h-2.81c-2.63,0-4.76,2.12-4.76,4.73h-4.45c0-5.05,4.14-9.15,9.22-9.15h2.81M48.4,27.16h-2.81c-5.89,0-10.69,4.77-10.69,10.62v1.47h7.39v-1.47c0-1.8,1.48-3.26,3.3-3.26h2.81c1.82,0,3.3,1.46,3.3,3.26,0,1.42-.52,2.78-1.48,3.83l-4.37,4.84c-1.64,1.82-2.56,4.17-2.57,6.62v1.69s.03,1.46.03,1.46h7.32v-1.45s.03-1.67.03-1.67c0-.64.24-1.23.68-1.72l4.37-4.85c2.17-2.41,3.37-5.52,3.37-8.75,0-5.86-4.79-10.62-10.69-10.62h0Z"/>
    </g>
  </g>
</svg>