<?xml version="1.0" encoding="UTF-8"?>
<svg id="Layer_1" xmlns="http://www.w3.org/2000/svg" version="1.1" viewBox="0 0 84 84">
  <!-- Generator: Adobe Illustrator 30.1.0, SVG Export Plug-In . SVG Version: 2.1.1 Build 136)  -->
  <path d="M42,11.76c.98,0,1.97.51,2.48,1.53l6.33,12.56c1.09,2.15,3.11,3.68,5.48,4.12l13.69,2.57c2.14.4,3.01,3,1.54,4.61l-9.97,10.94c-1.54,1.69-2.25,3.97-1.96,6.24l1.95,14.75c.23,1.76-1.17,3.15-2.75,3.15-.42,0-.85-.1-1.27-.31l-11.97-6.17c-1.11-.57-2.32-.86-3.54-.86-1.21,0-2.43.29-3.54.86l-11.97,6.17c-.42.22-.85.31-1.27.31-1.58,0-2.99-1.39-2.75-3.15l1.95-14.76c.3-2.26-.42-4.54-1.95-6.23l-9.97-10.94c-1.47-1.61-.6-4.21,1.54-4.62l13.69-2.57c2.37-.44,4.39-1.97,5.48-4.12l6.33-12.56c.51-1.02,1.5-1.53,2.48-1.53M42,0C36.48,0,31.5,3.06,29.02,8l-5.43,10.78-11.72,2.2c-5.18.97-9.43,4.68-11.11,9.67-1.67,5-.51,10.53,3.04,14.42l8.71,9.56-1.7,12.91c-.55,4.16.72,8.34,3.47,11.48,2.77,3.16,6.75,4.97,10.94,4.97,2.3,0,4.6-.56,6.65-1.62l10.12-5.21,10.12,5.21c2.06,1.06,4.36,1.62,6.65,1.62,4.18,0,8.17-1.81,10.94-4.97,2.76-3.14,4.02-7.33,3.47-11.48l-1.7-12.91,8.72-9.57c3.55-3.9,4.72-9.42,3.04-14.42-1.67-5-5.93-8.7-11.11-9.67l-11.72-2.2-5.43-10.78C52.5,3.06,47.52,0,42,0h0Z"/>
</svg>