<?xml version="1.0" encoding="UTF-8"?>
<svg id="Layer_1" xmlns="http://www.w3.org/2000/svg" version="1.1" viewBox="0 0 84 84">
  <!-- Generator: Adobe Illustrator 30.1.0, SVG Export Plug-In . SVG Version: 2.1.1 Build 136)  -->
  <path d="M42,8.79c1.08,0,2.16.56,2.72,1.68l6.95,13.79c1.19,2.37,3.42,4.04,6.02,4.53l15.03,2.82c2.35.44,3.3,3.3,1.69,5.07l-10.95,12.02c-1.69,1.85-2.48,4.36-2.15,6.85l2.14,16.2c.25,1.93-1.29,3.46-3.02,3.46-.46,0-.94-.11-1.39-.34l-13.15-6.77c-1.22-.63-2.55-.94-3.88-.94s-2.66.31-3.88.94l-13.15,6.77c-.46.24-.93.34-1.39.34-1.74,0-3.28-1.53-3.02-3.46l2.14-16.21c.33-2.49-.46-4.99-2.14-6.84l-10.95-12.02c-1.61-1.77-.66-4.63,1.69-5.07l15.03-2.82c2.6-.49,4.82-2.16,6.01-4.53l6.95-13.79c.56-1.12,1.64-1.68,2.72-1.68M42,0c-4.5,0-8.55,2.5-10.58,6.52l-6.88,13.66-14.87,2.79c-4.22.79-7.69,3.81-9.05,7.88-1.36,4.07-.42,8.58,2.48,11.75l10.86,11.92-2.12,16.08c-.45,3.39.58,6.8,2.83,9.36,2.26,2.57,5.51,4.05,8.91,4.05,1.87,0,3.74-.46,5.42-1.32l13-6.7,13,6.7c1.68.86,3.55,1.32,5.42,1.32,3.41,0,6.66-1.48,8.91-4.05,2.24-2.56,3.27-5.97,2.83-9.36l-2.12-16.08,10.86-11.92c2.89-3.17,3.84-7.68,2.48-11.75-1.36-4.07-4.83-7.09-9.05-7.88l-14.88-2.79-6.88-13.66c-2.03-4.02-6.08-6.52-10.58-6.52h0Z"/>
</svg>