<?xml version="1.0" encoding="UTF-8"?>
<svg id="Layer_1" xmlns="http://www.w3.org/2000/svg" version="1.1" viewBox="0 0 95 95">
  <!-- Generator: Adobe Illustrator 30.1.0, SVG Export Plug-In . SVG Version: 2.1.1 Build 136)  -->
  <g>
    <g>
      <rect x="44.08" y="26.47" width="6.84" height="6.84"/>
      <path d="M49.88,27.51v4.76h-4.76v-4.76h4.76M51.96,25.43h-8.92v8.92h8.92v-8.92h0Z"/>
    </g>
    <g>
      <polygon points="39.32 67.97 39.32 61.13 44.08 61.13 44.08 48.34 39.32 48.34 39.32 41.5 50.92 41.5 50.92 61.13 55.68 61.13 55.68 67.97 39.32 67.97"/>
      <path d="M49.88,42.54v19.63h4.76v4.76h-14.29v-4.76h4.76v-14.87h-4.76v-4.76h9.52M51.96,40.47h-13.68v8.92h4.76v10.71h-4.76v8.92h18.44v-8.92h-4.76v-19.63h0Z"/>
    </g>
  </g>
  <circle id="Outer" cx="47.5" cy="47.5" r="40.85" fill="none" stroke="#000" stroke-width="13.3"/>
</svg>