<?xml version="1.0" encoding="UTF-8"?>
<svg id="Layer_1" xmlns="http://www.w3.org/2000/svg" version="1.1" viewBox="0 0 90 90">
  <!-- Generator: Adobe Illustrator 30.1.0, SVG Export Plug-In . SVG Version: 2.1.1 Build 136)  -->
  <path d="M45,12.6c1.05,0,2.11.55,2.66,1.64l6.78,13.46c1.16,2.31,3.33,3.94,5.87,4.42l14.66,2.75c2.29.43,3.22,3.22,1.65,4.94l-10.68,11.72c-1.65,1.81-2.42,4.26-2.09,6.68l2.08,15.81c.25,1.89-1.25,3.38-2.95,3.38-.45,0-.91-.1-1.36-.34l-12.83-6.61c-1.19-.61-2.49-.92-3.79-.92s-2.6.31-3.79.92l-12.83,6.61c-.45.23-.91.34-1.36.34-1.7,0-3.2-1.49-2.95-3.38l2.09-15.81c.32-2.43-.45-4.87-2.09-6.68l-10.68-11.72c-1.57-1.73-.64-4.52,1.65-4.95l14.66-2.75c2.54-.48,4.7-2.11,5.87-4.42l6.78-13.46c.55-1.09,1.6-1.64,2.66-1.64M45,0C39.08,0,33.75,3.28,31.09,8.57l-5.82,11.55-12.56,2.35c-5.55,1.04-10.11,5.01-11.9,10.37-1.79,5.36-.55,11.28,3.26,15.45l9.34,10.25-1.82,13.83c-.59,4.45.77,8.94,3.72,12.31,2.97,3.38,7.24,5.32,11.72,5.32,2.46,0,4.93-.6,7.13-1.73l10.85-5.59,10.85,5.59c2.2,1.13,4.67,1.73,7.13,1.73,4.48,0,8.75-1.94,11.72-5.32,2.95-3.37,4.31-7.85,3.72-12.31l-1.82-13.83,9.34-10.25c3.8-4.17,5.05-10.09,3.26-15.45-1.79-5.35-6.35-9.32-11.9-10.36l-12.56-2.35-5.82-11.55C56.25,3.28,50.92,0,45,0h0Z"/>
</svg>