<?xml version="1.0" encoding="UTF-8"?>
<svg id="Layer_1" xmlns="http://www.w3.org/2000/svg" version="1.1" viewBox="0 0 90 90">
  <!-- Generator: Adobe Illustrator 30.1.0, SVG Export Plug-In . SVG Version: 2.1.1 Build 136)  -->
  <path d="M45,15.78c.95,0,1.9.49,2.4,1.48l6.11,12.14c1.05,2.08,3.01,3.56,5.29,3.98l13.23,2.48c2.07.39,2.91,2.9,1.49,4.46l-9.64,10.57c-1.49,1.63-2.18,3.84-1.89,6.03l1.88,14.26c.22,1.7-1.13,3.05-2.66,3.05-.41,0-.82-.09-1.23-.3l-11.57-5.96c-1.07-.55-2.24-.83-3.42-.83s-2.34.28-3.42.83l-11.57,5.96c-.4.21-.82.3-1.23.3-1.53,0-2.88-1.35-2.66-3.05l1.88-14.26c.29-2.19-.4-4.39-1.89-6.02l-9.64-10.57c-1.42-1.56-.58-4.07,1.49-4.46l13.22-2.48c2.29-.43,4.24-1.9,5.29-3.98l6.11-12.14c.5-.99,1.45-1.48,2.4-1.48M45,0C37.99,0,31.67,3.89,28.51,10.16l-4.27,8.47-9.18,1.72c-6.58,1.23-11.98,5.94-14.11,12.29-2.13,6.35-.65,13.36,3.86,18.31l7.04,7.72-1.38,10.44c-.7,5.28.91,10.59,4.41,14.59,3.51,4.01,8.57,6.3,13.89,6.3,2.92,0,5.84-.71,8.45-2.05l7.76-4,7.76,4c2.61,1.34,5.53,2.05,8.45,2.05,5.31,0,10.38-2.3,13.89-6.3,3.5-3.99,5.11-9.31,4.41-14.59l-1.38-10.44,7.04-7.73c4.51-4.95,5.99-11.96,3.86-18.31-2.13-6.34-7.53-11.05-14.1-12.28l-9.18-1.72-4.27-8.47C58.33,3.89,52.01,0,45,0h0Z"/>
</svg>