<?xml version="1.0" encoding="UTF-8"?>
<svg id="Layer_1" xmlns="http://www.w3.org/2000/svg" version="1.1" viewBox="0 0 97 97">
  <!-- Generator: Adobe Illustrator 30.1.0, SVG Export Plug-In . SVG Version: 2.1.1 Build 136)  -->
  <g>
    <g>
      <rect x="45.01" y="27.03" width="6.98" height="6.98"/>
      <path d="M50.93,28.09v4.86h-4.86v-4.86h4.86M53.05,25.97h-9.11v9.11h9.11v-9.11h0Z"/>
    </g>
    <g>
      <polygon points="40.15 69.4 40.15 62.42 45.01 62.42 45.01 49.36 40.15 49.36 40.15 42.38 51.99 42.38 51.99 62.42 56.85 62.42 56.85 69.4 40.15 69.4"/>
      <path d="M50.93,43.44v20.04h4.86v4.86h-14.59v-4.86h4.86v-15.18h-4.86v-4.86h9.72M53.05,41.32h-13.97v9.11h4.86v10.94h-4.86v9.11h18.83v-9.11h-4.86v-20.04h0Z"/>
    </g>
  </g>
  <circle id="Outer" cx="48.5" cy="48.5" r="41.71" fill="none" stroke="#000" stroke-width="13.58"/>
</svg>