<?xml version="1.0" encoding="UTF-8"?>
<svg id="Layer_1" xmlns="http://www.w3.org/2000/svg" version="1.1" viewBox="0 0 43 43">
  <!-- Generator: Adobe Illustrator 30.1.0, SVG Export Plug-In . SVG Version: 2.1.1 Build 136)  -->
  <g>
    <g>
      <rect x="19.93" y="12.53" width="3.15" height="3.15"/>
      <path d="M22.47,13.13v1.94h-1.94v-1.94h1.94M23.68,11.92h-4.36v4.36h4.36v-4.36h0Z"/>
    </g>
    <g>
      <polygon points="17.99 30.11 17.99 26.96 19.93 26.96 19.93 22.12 17.99 22.12 17.99 18.98 23.07 18.98 23.07 26.96 25.01 26.96 25.01 30.11 17.99 30.11"/>
      <path d="M22.47,19.58v7.99h1.94v1.94h-5.81v-1.94h1.94v-6.05h-1.94v-1.94h3.87M23.68,18.37h-6.29v4.36h1.94v3.63h-1.94v4.36h8.23v-4.36h-1.94v-7.99h0Z"/>
    </g>
  </g>
  <circle id="Outer" cx="21.5" cy="21.5" r="17.73" fill="none" stroke="#000" stroke-width="7.54"/>
</svg>