<?xml version="1.0" encoding="UTF-8"?>
<svg id="Layer_1" xmlns="http://www.w3.org/2000/svg" version="1.1" viewBox="0 0 25 25">
  <!-- Generator: Adobe Illustrator 30.1.0, SVG Export Plug-In . SVG Version: 2.1.1 Build 136)  -->
  <path d="M12.5,3.5c.29,0,.59.15.74.46l1.88,3.74c.32.64.93,1.1,1.63,1.23l4.07.76c.64.12.9.89.46,1.37l-2.97,3.26c-.46.5-.67,1.18-.58,1.86l.58,4.39c.07.52-.35.94-.82.94-.12,0-.25-.03-.38-.09l-3.56-1.83c-.33-.17-.69-.26-1.05-.26s-.72.09-1.05.26l-3.56,1.83c-.12.06-.25.09-.38.09-.47,0-.89-.41-.82-.94l.58-4.39c.09-.67-.12-1.35-.58-1.85l-2.97-3.26c-.44-.48-.18-1.25.46-1.37l4.07-.76c.7-.13,1.31-.59,1.63-1.23l1.88-3.74c.15-.3.45-.46.74-.46M12.5,0C10.86,0,9.38.91,8.64,2.38l-1.62,3.21-3.49.65c-1.54.29-2.81,1.39-3.31,2.88-.5,1.49-.15,3.13.91,4.29l2.59,2.85-.51,3.84c-.16,1.24.21,2.48,1.03,3.42.82.94,2.01,1.48,3.26,1.48.68,0,1.37-.17,1.98-.48l3.01-1.55,3.01,1.55c.61.32,1.3.48,1.98.48,1.25,0,2.43-.54,3.26-1.48.82-.94,1.2-2.18,1.03-3.42l-.51-3.84,2.59-2.85c1.06-1.16,1.4-2.8.91-4.29-.5-1.49-1.76-2.59-3.31-2.88l-3.49-.65-1.62-3.21C15.62.91,14.14,0,12.5,0h0Z"/>
</svg>