<?xml version="1.0" encoding="UTF-8"?>
<svg id="Layer_1" xmlns="http://www.w3.org/2000/svg" version="1.1" viewBox="0 0 95 95">
  <!-- Generator: Adobe Illustrator 30.1.0, SVG Export Plug-In . SVG Version: 2.1.1 Build 136)  -->
  <path d="M47.5,9.95c1.22,0,2.44.63,3.08,1.9l7.86,15.6c1.35,2.68,3.86,4.57,6.8,5.12l17,3.19c2.66.5,3.74,3.73,1.91,5.73l-12.38,13.59c-1.91,2.1-2.8,4.93-2.43,7.75l2.42,18.32c.29,2.19-1.45,3.92-3.42,3.92-.52,0-1.06-.12-1.58-.39l-14.87-7.66c-1.38-.71-2.88-1.06-4.39-1.06s-3.01.35-4.39,1.06l-14.87,7.66c-.52.27-1.06.39-1.58.39-1.97,0-3.71-1.73-3.42-3.92l2.42-18.33c.37-2.81-.52-5.64-2.43-7.74l-12.38-13.59c-1.82-2-.75-5.23,1.91-5.73l17-3.19c2.94-.55,5.45-2.44,6.8-5.12l7.86-15.6c.64-1.27,1.86-1.9,3.08-1.9M47.5,0c-5.09,0-9.67,2.82-11.96,7.37l-7.78,15.45-16.82,3.15c-4.77.89-8.69,4.31-10.23,8.91-1.54,4.61-.47,9.7,2.8,13.29l12.28,13.48-2.4,18.18c-.51,3.83.66,7.69,3.2,10.58,2.55,2.91,6.23,4.58,10.08,4.58,2.11,0,4.23-.52,6.13-1.49l14.71-7.57,14.71,7.57c1.9.98,4.02,1.49,6.13,1.49,3.85,0,7.53-1.67,10.08-4.58,2.54-2.89,3.7-6.75,3.2-10.58l-2.4-18.18,12.28-13.48c3.27-3.59,4.35-8.68,2.8-13.29-1.54-4.6-5.46-8.02-10.23-8.91l-16.83-3.15-7.78-15.45c-2.29-4.55-6.87-7.37-11.96-7.37h0Z"/>
</svg>