<?xml version="1.0" encoding="UTF-8"?>
<svg id="Layer_1" xmlns="http://www.w3.org/2000/svg" version="1.1" viewBox="0 0 95 95">
  <!-- Generator: Adobe Illustrator 30.1.0, SVG Export Plug-In . SVG Version: 2.1.1 Build 136)  -->
  <path d="M47.5,13.3c1.11,0,2.22.58,2.8,1.73l7.16,14.2c1.23,2.44,3.52,4.16,6.2,4.66l15.48,2.9c2.42.45,3.4,3.4,1.74,5.22l-11.28,12.38c-1.74,1.91-2.55,4.49-2.21,7.06l2.2,16.69c.26,1.99-1.32,3.57-3.11,3.57-.47,0-.96-.11-1.44-.35l-13.54-6.97c-1.26-.65-2.63-.97-4-.97s-2.74.32-4,.97l-13.54,6.97c-.47.24-.96.35-1.44.35-1.79,0-3.38-1.58-3.11-3.57l2.2-16.69c.34-2.56-.47-5.14-2.21-7.05l-11.28-12.38c-1.66-1.82-.68-4.77,1.74-5.22l15.48-2.9c2.68-.5,4.97-2.22,6.19-4.66l7.16-14.2c.58-1.15,1.69-1.73,2.8-1.73M47.5,0c-6.25,0-11.87,3.47-14.68,9.05l-6.14,12.19-13.26,2.48c-5.86,1.1-10.67,5.29-12.56,10.94-1.89,5.65-.58,11.9,3.44,16.31l9.86,10.82-1.93,14.6c-.62,4.7.81,9.43,3.93,12.99,3.13,3.57,7.64,5.62,12.37,5.62,2.6,0,5.2-.63,7.53-1.83l11.45-5.9,11.45,5.9c2.32,1.2,4.93,1.83,7.53,1.83,4.73,0,9.24-2.05,12.37-5.62,3.12-3.55,4.55-8.29,3.93-12.99l-1.93-14.6,9.86-10.82c4.02-4.41,5.33-10.65,3.44-16.31-1.89-5.65-6.71-9.84-12.56-10.94l-13.26-2.49-6.14-12.19C59.37,3.47,53.74,0,47.5,0h0Z"/>
</svg>