<?xml version="1.0" encoding="UTF-8"?>
<svg id="Layer_1" xmlns="http://www.w3.org/2000/svg" version="1.1" viewBox="0 0 31 31">
  <!-- Generator: Adobe Illustrator 30.1.0, SVG Export Plug-In . SVG Version: 2.1.1 Build 136)  -->
  <path d="M15.5,4.34c.36,0,.73.19.92.56l2.33,4.63c.4.8,1.15,1.36,2.02,1.52l5.05.95c.79.15,1.11,1.11.57,1.7l-3.68,4.04c-.57.62-.83,1.47-.72,2.3l.72,5.45c.09.65-.43,1.16-1.02,1.16-.15,0-.31-.04-.47-.12l-4.42-2.28c-.41-.21-.86-.32-1.31-.32s-.9.11-1.31.32l-4.42,2.28c-.15.08-.31.12-.47.12-.58,0-1.1-.51-1.02-1.16l.72-5.45c.11-.84-.15-1.68-.72-2.3l-3.68-4.04c-.54-.59-.22-1.56.57-1.7l5.05-.95c.87-.16,1.62-.73,2.02-1.52l2.34-4.64c.19-.38.55-.56.92-.56M15.5,0C13.46,0,11.63,1.13,10.71,2.95l-2,3.98-4.33.81c-1.91.36-3.48,1.73-4.1,3.57-.62,1.84-.19,3.88,1.12,5.32l3.22,3.53-.63,4.76c-.2,1.53.27,3.08,1.28,4.24,1.02,1.16,2.49,1.83,4.04,1.83.85,0,1.7-.21,2.46-.6l3.74-1.92,3.74,1.92c.76.39,1.61.6,2.46.6,1.54,0,3.02-.67,4.04-1.83,1.02-1.16,1.48-2.7,1.28-4.24l-.63-4.76,3.22-3.53c1.31-1.44,1.74-3.48,1.12-5.32-.62-1.84-2.19-3.21-4.1-3.57l-4.33-.81-2-3.98C19.37,1.13,17.54,0,15.5,0h0Z"/>
</svg>