<?xml version="1.0" encoding="UTF-8"?>
<svg id="Layer_1" xmlns="http://www.w3.org/2000/svg" version="1.1" viewBox="0 0 44 44">
  <!-- Generator: Adobe Illustrator 30.1.0, SVG Export Plug-In . SVG Version: 2.1.1 Build 136)  -->
  <g>
    <g>
      <rect x="20.42" y="12.26" width="3.17" height="3.17"/>
      <path d="M23.1,12.74v2.21h-2.21v-2.21h2.21M24.07,11.78h-4.13v4.13h4.13v-4.13h0Z"/>
    </g>
    <g>
      <polygon points="18.21 31.48 18.21 28.31 20.42 28.31 20.42 22.39 18.21 22.39 18.21 19.22 23.58 19.22 23.58 28.31 25.79 28.31 25.79 31.48 18.21 31.48"/>
      <path d="M23.1,19.7v9.09h2.21v2.21h-6.62v-2.21h2.21v-6.89h-2.21v-2.21h4.41M24.07,18.74h-6.34v4.13h2.21v4.96h-2.21v4.13h8.54v-4.13h-2.21v-9.09h0Z"/>
    </g>
  </g>
  <circle id="Outer" cx="22" cy="22" r="18.92" fill="none" stroke="#000" stroke-width="6.16"/>
</svg>