<?xml version="1.0" encoding="UTF-8"?>
<svg id="Layer_1" xmlns="http://www.w3.org/2000/svg" version="1.1" viewBox="0 0 44 44">
  <!-- Generator: Adobe Illustrator 30.1.0, SVG Export Plug-In . SVG Version: 2.1.1 Build 136)  -->
  <g>
    <g>
      <rect x="20.39" y="12.82" width="3.22" height="3.22"/>
      <path d="M22.99,13.44v1.98h-1.98v-1.98h1.98M24.23,12.2h-4.46v4.46h4.46v-4.46h0Z"/>
    </g>
    <g>
      <polygon points="18.41 30.81 18.41 27.59 20.39 27.59 20.39 22.64 18.41 22.64 18.41 19.42 23.61 19.42 23.61 27.59 25.59 27.59 25.59 30.81 18.41 30.81"/>
      <path d="M22.99,20.04v8.17h1.98v1.98h-5.95v-1.98h1.98v-6.19h-1.98v-1.98h3.96M24.23,18.8h-6.44v4.46h1.98v3.71h-1.98v4.46h8.42v-4.46h-1.98v-8.17h0Z"/>
    </g>
  </g>
  <circle id="Outer" cx="22" cy="22" r="18.14" fill="none" stroke="#000" stroke-width="7.71"/>
</svg>