<?xml version="1.0" encoding="UTF-8"?>
<svg id="Layer_1" xmlns="http://www.w3.org/2000/svg" version="1.1" viewBox="0 0 101 101">
  <!-- Generator: Adobe Illustrator 30.1.0, SVG Export Plug-In . SVG Version: 2.1.1 Build 136)  -->
  <g>
    <g>
      <rect x="46.92" y="26.86" width="7.16" height="7.16"/>
      <path d="M53.29,27.65v5.58h-5.58v-5.58h5.58M54.87,26.07h-8.74v8.74h8.74v-8.74h0Z"/>
    </g>
    <g>
      <polygon points="41.33 73.84 41.33 66.67 46.92 66.67 46.92 50.82 41.33 50.82 41.33 43.66 54.08 43.66 54.08 66.67 59.67 66.67 59.67 73.84 41.33 73.84"/>
      <path d="M53.29,44.45v23.02h5.58v5.58h-16.75v-5.58h5.58v-17.43h-5.58v-5.58h11.17M54.87,42.87h-14.32v8.74h5.58v14.28h-5.58v8.74h19.91v-8.74h-5.58v-23.02h0Z"/>
    </g>
  </g>
  <circle id="Outer" cx="50.5" cy="50.5" r="45.21" fill="none" stroke="#000" stroke-width="10.57"/>
</svg>