<?xml version="1.0" encoding="UTF-8"?>
<svg id="Layer_1" xmlns="http://www.w3.org/2000/svg" version="1.1" viewBox="0 0 115 115">
  <!-- Generator: Adobe Illustrator 30.1.0, SVG Export Plug-In . SVG Version: 2.1.1 Build 136)  -->
  <circle id="Outer" cx="57.5" cy="57.5" r="49.45" fill="none" stroke="#000" stroke-width="16.1"/>
  <g>
    <g>
      <rect x="53.86" y="74.18" width="7.23" height="7.23"/>
      <path d="M59.82,75.44v4.71h-4.71v-4.71h4.71M62.34,72.92h-9.74v9.74h9.74v-9.74h0Z"/>
    </g>
    <g>
      <path d="M53.87,66.66l-.03-3.03c0-2.55.95-4.99,2.66-6.87l4.66-5.17c1.07-1.18,1.66-2.71,1.66-4.29,0-2.09-1.72-3.79-3.83-3.79h-3c-2.11,0-3.83,1.7-3.83,3.79v1.26h-7.27v-1.26c0-6.08,4.98-11.02,11.09-11.02h3c6.12,0,11.09,4.94,11.09,11.02,0,3.38-1.25,6.62-3.52,9.13l-4.67,5.17c-.52.58-.8,1.28-.8,2.03l-.03,3.03h-7.2Z"/>
      <path d="M59,37.53c5.42,0,9.83,4.38,9.83,9.77,0,3.06-1.13,6.01-3.19,8.29l-4.67,5.17c-.72.8-1.12,1.79-1.13,2.87l-.02,1.78h-4.71l-.02-1.78c0-2.23.83-4.36,2.33-6.02l4.66-5.17c1.28-1.41,1.98-3.24,1.98-5.14,0-2.78-2.28-5.05-5.08-5.05h-3c-2.8,0-5.08,2.26-5.08,5.05h-4.75c0-5.38,4.41-9.77,9.83-9.77h3M59,35.01h-3c-6.81,0-12.35,5.51-12.35,12.28v2.52h9.78v-2.52c0-1.4,1.15-2.53,2.57-2.53h3c1.42,0,2.57,1.14,2.57,2.53,0,1.27-.47,2.5-1.33,3.45l-4.66,5.17c-1.91,2.11-2.97,4.85-2.98,7.7l.02,1.81.02,2.49h2.49s4.71,0,4.71,0h2.49l.03-2.49.02-1.78c0-.46.16-.86.48-1.21l4.67-5.17c2.48-2.74,3.84-6.29,3.84-9.97,0-6.77-5.54-12.28-12.35-12.28h0Z"/>
    </g>
  </g>
</svg>