<?xml version="1.0" encoding="UTF-8"?>
<svg id="Layer_1" xmlns="http://www.w3.org/2000/svg" version="1.1" viewBox="0 0 115 115">
  <!-- Generator: Adobe Illustrator 30.1.0, SVG Export Plug-In . SVG Version: 2.1.1 Build 136)  -->
  <circle id="Outer" cx="57.5" cy="57.5" r="47.42" fill="none" stroke="#000" stroke-width="20.16"/>
  <g>
    <g>
      <rect x="53.83" y="72.62" width="7.29" height="7.29"/>
      <path d="M59.5,74.24v4.05h-4.05v-4.05h4.05M62.73,71.01h-10.52v10.52h10.52v-10.52h0Z"/>
    </g>
    <g>
      <path d="M53.85,65.52l-.03-3.13c0-2.34.87-4.56,2.42-6.28l4.01-4.44c.83-.92,1.29-2.1,1.29-3.34,0-1.5-1.24-2.72-2.75-2.72h-2.58c-1.52,0-2.76,1.22-2.76,2.72v1.62h-7.32v-1.62c0-5.52,4.52-10.02,10.08-10.02h2.58c5.56,0,10.08,4.49,10.08,10.02,0,3.04-1.12,5.95-3.16,8.21l-4.01,4.45c-.37.4-.55.87-.55,1.39l-.03,3.14h-7.25Z"/>
      <path d="M58.79,39.93c4.66,0,8.46,3.77,8.46,8.4,0,2.64-.98,5.17-2.75,7.13l-4.01,4.45c-.62.69-.97,1.54-.97,2.47l-.02,1.53h-4.05v-1.53c0-1.92.7-3.75,1.99-5.18l4.01-4.44c1.1-1.22,1.7-2.79,1.7-4.42,0-2.39-1.96-4.34-4.37-4.34h-2.58c-2.41,0-4.37,1.95-4.37,4.34h-4.09c0-4.63,3.79-8.4,8.46-8.4h2.58M58.79,36.7h-2.58c-6.45,0-11.69,5.22-11.69,11.63v3.23h10.56v-3.23c0-.61.51-1.11,1.14-1.11h2.58c.63,0,1.14.5,1.14,1.11,0,.83-.31,1.63-.87,2.25l-4.01,4.44c-1.82,2.01-2.83,4.62-2.84,7.33v1.57s.04,3.21.04,3.21h10.46l.03-3.2.02-1.53c0-.11.02-.2.13-.33l4.01-4.45c2.31-2.56,3.58-5.86,3.58-9.29,0-6.42-5.25-11.63-11.69-11.63h0Z"/>
    </g>
  </g>
</svg>