<?xml version="1.0" encoding="UTF-8"?>
<svg id="Layer_1" xmlns="http://www.w3.org/2000/svg" version="1.1" viewBox="0 0 8 8">
  <!-- Generator: Adobe Illustrator 30.1.0, SVG Export Plug-In . SVG Version: 2.1.1 Build 136)  -->
  <path d="M4,1.12c.09,0,.19.05.24.15l.6,1.2c.1.21.3.35.52.39l1.3.24c.2.04.29.29.15.44l-.95,1.04c-.15.16-.21.38-.19.59l.19,1.41c.02.17-.11.3-.26.3-.04,0-.08,0-.12-.03l-1.14-.59c-.11-.05-.22-.08-.34-.08s-.23.03-.34.08l-1.14.59s-.08.03-.12.03c-.15,0-.28-.13-.26-.3l.19-1.41c.03-.22-.04-.43-.19-.59l-.95-1.04c-.14-.15-.06-.4.15-.44l1.3-.24c.23-.04.42-.19.52-.39l.6-1.2c.05-.1.14-.15.24-.15M4,0C3.47,0,3,.29,2.76.76l-.52,1.03-1.12.21c-.49.09-.9.45-1.06.92-.16.48-.05,1,.29,1.37l.83.91-.16,1.23c-.05.4.07.79.33,1.09.26.3.64.47,1.04.47.22,0,.44-.05.63-.15l.96-.5.96.5c.2.1.41.15.63.15.4,0,.78-.17,1.04-.47.26-.3.38-.7.33-1.09l-.16-1.23.83-.91c.34-.37.45-.9.29-1.37-.16-.48-.56-.83-1.06-.92l-1.12-.21-.52-1.03C5,.29,4.53,0,4,0h0Z"/>
</svg>