<?xml version="1.0" encoding="UTF-8"?>
<svg id="Layer_1" xmlns="http://www.w3.org/2000/svg" version="1.1" viewBox="0 0 72 72">
  <!-- Generator: Adobe Illustrator 30.1.0, SVG Export Plug-In . SVG Version: 2.1.1 Build 136)  -->
  <path d="M36,12.62c.76,0,1.52.39,1.92,1.18l4.89,9.71c.84,1.67,2.41,2.84,4.24,3.19l10.58,1.98c1.65.31,2.33,2.32,1.19,3.57l-7.71,8.46c-1.19,1.31-1.74,3.07-1.51,4.82l1.5,11.41c.18,1.36-.9,2.44-2.13,2.44-.32,0-.66-.08-.98-.24l-9.25-4.77c-.86-.44-1.8-.66-2.73-.66s-1.88.22-2.73.66l-9.25,4.77c-.32.17-.66.24-.98.24-1.22,0-2.31-1.08-2.13-2.44l1.5-11.41c.23-1.75-.32-3.51-1.51-4.82l-7.71-8.46c-1.14-1.25-.46-3.26,1.19-3.57l10.58-1.98c1.83-.34,3.39-1.52,4.23-3.19l4.89-9.71c.4-.79,1.16-1.18,1.92-1.18M36,0C30.39,0,25.33,3.11,22.81,8.13l-3.41,6.77-7.34,1.38c-5.26.99-9.58,4.75-11.28,9.83-1.7,5.08-.52,10.69,3.09,14.65l5.63,6.18-1.1,8.35c-.56,4.22.73,8.47,3.53,11.67,2.81,3.21,6.86,5.04,11.11,5.04,2.34,0,4.67-.57,6.76-1.64l6.21-3.2,6.21,3.2c2.09,1.07,4.42,1.64,6.76,1.64,4.25,0,8.3-1.84,11.11-5.04,2.8-3.19,4.09-7.45,3.53-11.67l-1.1-8.35,5.63-6.18c3.61-3.96,4.79-9.57,3.09-14.65-1.7-5.08-6.02-8.84-11.28-9.83l-7.35-1.38-3.41-6.77C46.66,3.11,41.61,0,36,0h0Z"/>
</svg>