<?xml version="1.0" encoding="UTF-8"?>
<svg id="Layer_1" xmlns="http://www.w3.org/2000/svg" version="1.1" viewBox="0 0 72 72">
  <!-- Generator: Adobe Illustrator 30.1.0, SVG Export Plug-In . SVG Version: 2.1.1 Build 136)  -->
  <path d="M36,7.54c.93,0,1.85.48,2.33,1.44l5.95,11.82c1.02,2.03,2.93,3.46,5.16,3.88l12.88,2.41c2.01.38,2.83,2.83,1.45,4.34l-9.39,10.3c-1.45,1.59-2.12,3.74-1.84,5.87l1.83,13.89c.22,1.66-1.1,2.97-2.59,2.97-.39,0-.8-.09-1.19-.29l-11.27-5.8c-1.04-.54-2.19-.81-3.33-.81-1.14,0-2.28.27-3.33.81l-11.27,5.8c-.39.2-.8.29-1.19.29-1.49,0-2.81-1.31-2.59-2.97l1.83-13.89c.28-2.13-.39-4.28-1.84-5.86l-9.39-10.3c-1.38-1.52-.57-3.97,1.45-4.34l12.88-2.41c2.23-.42,4.13-1.85,5.15-3.88l5.96-11.82c.48-.96,1.41-1.44,2.33-1.44M36,0C32.14,0,28.67,2.14,26.93,5.59l-5.9,11.71-12.75,2.39c-3.62.68-6.59,3.27-7.76,6.76-1.17,3.49-.36,7.35,2.12,10.07l9.31,10.21-1.82,13.78c-.38,2.9.5,5.83,2.42,8.02,1.93,2.21,4.72,3.47,7.64,3.47,1.6,0,3.21-.39,4.65-1.13l11.14-5.74,11.15,5.74c1.44.74,3.04,1.13,4.65,1.13,2.92,0,5.71-1.27,7.64-3.47,1.92-2.19,2.81-5.12,2.42-8.02l-1.82-13.78,9.31-10.22c2.48-2.72,3.29-6.58,2.12-10.07-1.17-3.49-4.14-6.08-7.76-6.76l-12.75-2.39-5.9-11.71C43.33,2.14,39.86,0,36,0h0Z"/>
</svg>