<?xml version="1.0" encoding="UTF-8"?>
<svg id="Layer_1" xmlns="http://www.w3.org/2000/svg" version="1.1" viewBox="0 0 13 13">
  <!-- Generator: Adobe Illustrator 30.1.0, SVG Export Plug-In . SVG Version: 2.1.1 Build 136)  -->
  <circle id="Outer" cx="6.5" cy="6.5" r="5.59" fill="none" stroke="#000" stroke-width="1.82"/>
  <g>
    <g>
      <rect x="6.09" y="8.38" width=".82" height=".82"/>
      <path d="M6.76,8.53v.53h-.53v-.53h.53M7.05,8.24h-1.1v1.1h1.1v-1.1h0Z"/>
    </g>
    <g>
      <path d="M6.09,7.54v-.34c0-.29.1-.56.3-.78l.53-.58c.12-.13.19-.31.19-.49,0-.24-.19-.43-.43-.43h-.34c-.24,0-.43.19-.43.43v.14h-.82v-.14c0-.69.56-1.25,1.25-1.25h.34c.69,0,1.25.56,1.25,1.25,0,.38-.14.75-.4,1.03l-.53.58c-.06.07-.09.15-.09.23v.34h-.82Z"/>
      <path d="M6.67,4.24c.61,0,1.11.5,1.11,1.1,0,.35-.13.68-.36.94l-.53.58c-.08.09-.13.2-.13.32v.2h-.53v-.2c0-.25.09-.49.26-.68l.53-.58c.14-.16.22-.37.22-.58,0-.31-.26-.57-.57-.57h-.34c-.32,0-.57.26-.57.57h-.54c0-.61.5-1.1,1.11-1.1h.34M6.67,3.96h-.34c-.77,0-1.4.62-1.4,1.39v.28h1.11v-.28c0-.16.13-.29.29-.29h.34c.16,0,.29.13.29.29,0,.14-.05.28-.15.39l-.53.58c-.22.24-.34.55-.34.87v.2s0,.28,0,.28h1.1v-.28s0-.2,0-.2c0-.05.02-.1.05-.14l.53-.58c.28-.31.43-.71.43-1.13,0-.77-.63-1.39-1.4-1.39h0Z"/>
    </g>
  </g>
</svg>