<?xml version="1.0" encoding="UTF-8"?>
<svg id="Layer_1" xmlns="http://www.w3.org/2000/svg" version="1.1" viewBox="0 0 13 13">
  <!-- Generator: Adobe Illustrator 30.1.0, SVG Export Plug-In . SVG Version: 2.1.1 Build 136)  -->
  <circle id="Outer" cx="6.5" cy="6.5" r="5.36" fill="none" stroke="#000" stroke-width="2.28"/>
  <g>
    <g>
      <rect x="6.08" y="8.21" width=".82" height=".82"/>
      <path d="M6.73,8.39v.46h-.46v-.46h.46M7.09,8.03h-1.19v1.19h1.19v-1.19h0Z"/>
    </g>
    <g>
      <path d="M6.09,7.41v-.35c0-.26.09-.52.27-.71l.45-.5c.09-.1.15-.24.15-.38,0-.17-.14-.31-.31-.31h-.29c-.17,0-.31.14-.31.31v.18h-.83v-.18c0-.62.51-1.13,1.14-1.13h.29c.63,0,1.14.51,1.14,1.13,0,.34-.13.67-.36.93l-.45.5s-.06.1-.06.16v.35h-.82Z"/>
      <path d="M6.65,4.51c.53,0,.96.43.96.95,0,.3-.11.58-.31.81l-.45.5c-.07.08-.11.17-.11.28v.17h-.46v-.17c0-.22.08-.42.23-.59l.45-.5c.12-.14.19-.31.19-.5,0-.27-.22-.49-.49-.49h-.29c-.27,0-.49.22-.49.49h-.46c0-.52.43-.95.96-.95h.29M6.65,4.15h-.29c-.73,0-1.32.59-1.32,1.32v.37h1.19v-.37c0-.07.06-.13.13-.13h.29c.07,0,.13.06.13.13,0,.09-.03.18-.1.25l-.45.5c-.21.23-.32.52-.32.83v.18s0,.36,0,.36h1.18v-.36s0-.17,0-.17l.47-.54c.26-.29.4-.66.4-1.05,0-.73-.59-1.32-1.32-1.32h0Z"/>
    </g>
  </g>
</svg>