<?xml version="1.0" encoding="UTF-8"?>
<svg id="Layer_1" xmlns="http://www.w3.org/2000/svg" version="1.1" viewBox="0 0 13 13">
  <!-- Generator: Adobe Illustrator 30.1.0, SVG Export Plug-In . SVG Version: 2.1.1 Build 136)  -->
  <circle id="Outer" cx="6.5" cy="6.5" r="5.82" fill="none" stroke="#000" stroke-width="1.36"/>
  <g>
    <g>
      <rect x="6.09" y="8.56" width=".81" height=".81"/>
      <path d="M6.8,8.66v.61h-.61v-.61h.61M7,8.46h-1.02v1.02h1.02v-1.02h0Z"/>
    </g>
    <g>
      <path d="M6.09,7.67v-.33c0-.32.11-.62.33-.85l.6-.67c.15-.17.23-.38.23-.6,0-.3-.25-.55-.56-.55h-.39c-.31,0-.56.25-.56.55v.1h-.82v-.1c0-.75.62-1.37,1.38-1.37h.39c.76,0,1.38.61,1.38,1.37,0,.42-.16.83-.44,1.14l-.6.67c-.08.09-.12.19-.12.3v.33h-.81Z"/>
      <path d="M6.69,3.96c.7,0,1.27.57,1.27,1.27,0,.4-.15.78-.41,1.07l-.6.67c-.09.1-.15.23-.15.37v.23h-.61v-.23c0-.29.11-.57.3-.78l.6-.67c.17-.18.26-.42.26-.67,0-.36-.3-.65-.66-.65h-.39c-.36,0-.66.29-.66.65h-.62c0-.7.57-1.27,1.27-1.27h.39M6.69,3.76h-.39c-.81,0-1.48.66-1.48,1.47v.2h1.02v-.2c0-.25.2-.45.46-.45h.39c.25,0,.46.2.46.45,0,.2-.07.38-.2.53l-.6.67c-.23.25-.35.58-.35.92v.23s0,.2,0,.2h1.01v-.2s0-.23,0-.23c0-.09.03-.17.09-.24l.6-.67c.3-.33.47-.76.47-1.21,0-.81-.66-1.47-1.48-1.47h0Z"/>
    </g>
  </g>
</svg>