<?xml version="1.0" encoding="UTF-8"?>
<svg id="Layer_1" xmlns="http://www.w3.org/2000/svg" version="1.1" viewBox="0 0 48 48">
  <!-- Generator: Adobe Illustrator 30.1.0, SVG Export Plug-In . SVG Version: 2.1.1 Build 136)  -->
  <path d="M24,8.41c.51,0,1.01.26,1.28.79l3.26,6.47c.56,1.11,1.6,1.9,2.82,2.13l7.05,1.32c1.1.21,1.55,1.55.79,2.38l-5.14,5.64c-.79.87-1.16,2.05-1.01,3.22l1,7.6c.12.91-.6,1.63-1.42,1.63-.22,0-.44-.05-.65-.16l-6.17-3.18c-.57-.29-1.2-.44-1.82-.44s-1.25.15-1.82.44l-6.17,3.18c-.22.11-.44.16-.65.16-.82,0-1.54-.72-1.42-1.63l1-7.61c.15-1.17-.21-2.34-1.01-3.21l-5.14-5.64c-.76-.83-.31-2.17.79-2.38l7.05-1.32c1.22-.23,2.26-1.01,2.82-2.12l3.26-6.47c.26-.53.77-.79,1.28-.79M24,0C20.26,0,16.89,2.08,15.21,5.42l-2.28,4.52-4.9.92c-3.51.66-6.39,3.17-7.52,6.55-1.13,3.39-.34,7.13,2.06,9.77l3.75,4.12-.73,5.57c-.37,2.81.49,5.65,2.35,7.78,1.87,2.14,4.57,3.36,7.41,3.36,1.56,0,3.12-.38,4.51-1.1l4.14-2.13,4.14,2.13c1.39.72,2.95,1.1,4.51,1.1,2.83,0,5.53-1.23,7.41-3.36,1.87-2.13,2.73-4.97,2.35-7.78l-.73-5.57,3.76-4.12c2.4-2.64,3.19-6.38,2.06-9.77-1.13-3.38-4.02-5.89-7.52-6.55l-4.9-.92-2.28-4.52C31.11,2.08,27.74,0,24,0h0Z"/>
</svg>