<?xml version="1.0" encoding="UTF-8"?>
<svg id="Layer_1" xmlns="http://www.w3.org/2000/svg" version="1.1" viewBox="0 0 48 48">
  <!-- Generator: Adobe Illustrator 30.1.0, SVG Export Plug-In . SVG Version: 2.1.1 Build 136)  -->
  <path d="M24,5.03c.62,0,1.23.32,1.56.96l3.97,7.88c.68,1.35,1.95,2.31,3.44,2.59l8.59,1.61c1.34.25,1.89,1.88.97,2.89l-6.26,6.87c-.97,1.06-1.41,2.49-1.23,3.91l1.22,9.26c.15,1.1-.73,1.98-1.73,1.98-.26,0-.53-.06-.8-.2l-7.51-3.87c-.7-.36-1.46-.54-2.22-.54-.76,0-1.52.18-2.22.54l-7.51,3.87c-.26.13-.53.2-.8.2-.99,0-1.87-.87-1.73-1.98l1.22-9.26c.19-1.42-.26-2.85-1.23-3.91l-6.26-6.87c-.92-1.01-.38-2.64.97-2.9l8.59-1.61c1.48-.28,2.76-1.23,3.44-2.59l3.97-7.88c.32-.64.94-.96,1.56-.96M24,0C21.43,0,19.11,1.43,17.96,3.72l-3.93,7.81-8.5,1.59c-2.41.45-4.39,2.18-5.17,4.5-.78,2.33-.24,4.9,1.42,6.72l6.21,6.81-1.21,9.19c-.26,1.94.33,3.88,1.62,5.35,1.29,1.47,3.15,2.31,5.09,2.31,1.07,0,2.14-.26,3.1-.75l7.43-3.83,7.43,3.83c.96.49,2.03.75,3.1.75,1.95,0,3.8-.84,5.09-2.31,1.28-1.46,1.87-3.41,1.62-5.35l-1.21-9.19,6.21-6.81c1.65-1.81,2.2-4.39,1.42-6.71-.78-2.33-2.76-4.05-5.17-4.5l-8.5-1.59-3.93-7.81C28.89,1.43,26.57,0,24,0h0Z"/>
</svg>