<?xml version="1.0" encoding="UTF-8"?>
<svg id="Layer_1" xmlns="http://www.w3.org/2000/svg" version="1.1" viewBox="0 0 103 103">
  <!-- Generator: Adobe Illustrator 30.1.0, SVG Export Plug-In . SVG Version: 2.1.1 Build 136)  -->
  <circle id="Outer" cx="51.5" cy="51.5" r="44.29" fill="none" stroke="#000" stroke-width="14.42"/>
  <g>
    <g>
      <rect x="48.24" y="66.44" width="6.47" height="6.47"/>
      <path d="M53.58,67.57v4.22h-4.22v-4.22h4.22M55.83,65.31h-8.72v8.72h8.72v-8.72h0Z"/>
    </g>
    <g>
      <path d="M48.25,59.7l-.02-2.71c0-2.29.85-4.47,2.38-6.16l4.18-4.63c.96-1.06,1.48-2.43,1.48-3.85,0-1.87-1.54-3.39-3.43-3.39h-2.68c-1.89,0-3.43,1.52-3.43,3.39v1.13h-6.51v-1.13c0-5.44,4.46-9.87,9.93-9.87h2.68c5.48,0,9.93,4.43,9.93,9.87,0,3.02-1.12,5.93-3.15,8.18l-4.18,4.63c-.47.52-.72,1.15-.72,1.82l-.03,2.72h-6.45Z"/>
      <path d="M52.84,33.61c4.86,0,8.81,3.92,8.81,8.75,0,2.74-1.02,5.38-2.86,7.42l-4.18,4.63c-.65.72-1.01,1.61-1.01,2.57l-.02,1.6h-4.22v-1.6c0-2,.73-3.9,2.08-5.39l4.18-4.63c1.14-1.27,1.77-2.9,1.77-4.6,0-2.49-2.04-4.52-4.55-4.52h-2.68c-2.51,0-4.55,2.03-4.55,4.52h-4.26c0-4.82,3.95-8.75,8.81-8.75h2.68M52.84,31.36h-2.68c-6.1,0-11.06,4.93-11.06,11v2.25h8.76v-2.25c0-1.25,1.03-2.27,2.3-2.27h2.68c1.27,0,2.3,1.02,2.3,2.27,0,1.14-.42,2.24-1.19,3.09l-4.18,4.63c-1.71,1.89-2.66,4.34-2.67,6.89v1.62s.03,2.23.03,2.23h8.68l.02-2.23.02-1.6c0-.41.15-.77.43-1.08l4.18-4.63c2.22-2.46,3.44-5.63,3.44-8.93,0-6.06-4.96-11-11.06-11h0Z"/>
    </g>
  </g>
</svg>