<?xml version="1.0" encoding="UTF-8"?>
<svg id="Layer_1" xmlns="http://www.w3.org/2000/svg" version="1.1" viewBox="0 0 103 103">
  <!-- Generator: Adobe Illustrator 30.1.0, SVG Export Plug-In . SVG Version: 2.1.1 Build 136)  -->
  <circle id="Outer" cx="51.5" cy="51.5" r="46.11" fill="none" stroke="#000" stroke-width="10.78"/>
  <g>
    <g>
      <rect x="48.25" y="67.82" width="6.45" height="6.45"/>
      <path d="M53.89,68.62v4.84h-4.84v-4.84h4.84M55.5,67.01h-8.06v8.06h8.06v-8.06h0Z"/>
    </g>
    <g>
      <path d="M48.26,60.81l-.02-2.63c0-2.5.93-4.88,2.6-6.73l4.79-5.31c1.18-1.31,1.83-2.99,1.83-4.74,0-2.42-1.98-4.38-4.42-4.38h-3.08c-2.44,0-4.42,1.96-4.42,4.38v.8h-6.49v-.8c0-5.97,4.89-10.83,10.91-10.83h3.08c6.01,0,10.91,4.86,10.91,10.83,0,3.35-1.24,6.56-3.49,9.05l-4.79,5.31c-.62.68-.95,1.52-.95,2.41l-.03,2.63h-6.43Z"/>
      <path d="M53.04,31.38c5.57,0,10.1,4.5,10.1,10.03,0,3.15-1.17,6.17-3.28,8.51l-4.79,5.31c-.74.82-1.15,1.84-1.16,2.95l-.02,1.83h-4.84l-.02-1.83c0-2.29.85-4.48,2.4-6.18l4.79-5.31c1.31-1.45,2.03-3.33,2.03-5.28,0-2.86-2.34-5.18-5.22-5.18h-3.08c-2.88,0-5.22,2.33-5.22,5.18h-4.88c0-5.53,4.53-10.03,10.1-10.03h3.08M53.04,29.77h-3.08c-6.46,0-11.71,5.22-11.71,11.64v1.61h8.1v-1.61c0-1.97,1.62-3.57,3.61-3.57h3.08c1.99,0,3.61,1.6,3.61,3.57,0,1.55-.57,3.04-1.62,4.2l-4.79,5.31c-1.8,1.99-2.8,4.57-2.81,7.26l.02,1.85v1.6s1.61,0,1.61,0h6.43l.02-1.59.02-1.83c0-.7.26-1.35.74-1.88l4.79-5.31c2.38-2.64,3.69-6.04,3.69-9.59,0-6.42-5.25-11.64-11.71-11.64h0Z"/>
    </g>
  </g>
</svg>