<?xml version="1.0" encoding="UTF-8"?>
<svg id="Layer_1" xmlns="http://www.w3.org/2000/svg" version="1.1" viewBox="0 0 103 103">
  <!-- Generator: Adobe Illustrator 30.1.0, SVG Export Plug-In . SVG Version: 2.1.1 Build 136)  -->
  <circle id="Outer" cx="51.5" cy="51.5" r="42.47" fill="none" stroke="#000" stroke-width="18.06"/>
  <g>
    <g>
      <rect x="48.21" y="65.05" width="6.52" height="6.52"/>
      <path d="M53.29,66.49v3.63h-3.63v-3.63h3.63M56.18,63.6h-9.42v9.42h9.42v-9.42h0Z"/>
    </g>
    <g>
      <path d="M48.23,58.69l-.02-2.81c0-2.09.78-4.08,2.17-5.62l3.59-3.98c.74-.82,1.15-1.88,1.15-2.99,0-1.35-1.11-2.44-2.47-2.44h-2.31c-1.36,0-2.47,1.09-2.47,2.44v1.45h-6.56v-1.45c0-4.95,4.05-8.97,9.02-8.97h2.31c4.98,0,9.02,4.02,9.02,8.97,0,2.72-1.01,5.33-2.83,7.35l-3.59,3.98c-.33.36-.49.78-.49,1.24l-.03,2.82h-6.5Z"/>
      <path d="M52.65,35.76c4.18,0,7.58,3.38,7.58,7.52,0,2.36-.87,4.63-2.46,6.38l-3.59,3.98c-.56.62-.87,1.38-.87,2.21v1.37h-3.64v-1.37c0-1.72.63-3.36,1.79-4.64l3.59-3.98c.98-1.09,1.53-2.5,1.53-3.96,0-2.14-1.76-3.89-3.92-3.89h-2.31c-2.16,0-3.92,1.74-3.92,3.89h-3.66c0-4.15,3.4-7.52,7.58-7.52h2.31M52.65,32.87h-2.31c-5.78,0-10.47,4.67-10.47,10.42v2.9h9.45v-2.9c0-.55.46-.99,1.02-.99h2.31c.56,0,1.02.44,1.02.99,0,.74-.28,1.46-.78,2.02l-3.59,3.98c-1.63,1.8-2.53,4.14-2.54,6.57v1.41s.04,2.87.04,2.87h9.37l.03-2.87v-1.37c.01-.1.03-.18.13-.3l3.6-3.98c2.07-2.29,3.21-5.25,3.21-8.32,0-5.75-4.7-10.42-10.47-10.42h0Z"/>
    </g>
  </g>
</svg>