<?xml version="1.0" encoding="UTF-8"?>
<svg id="Layer_1" xmlns="http://www.w3.org/2000/svg" version="1.1" viewBox="0 0 76 76">
  <!-- Generator: Adobe Illustrator 30.1.0, SVG Export Plug-In . SVG Version: 2.1.1 Build 136)  -->
  <path d="M38,10.64c.89,0,1.78.46,2.24,1.38l5.72,11.36c.98,1.95,2.81,3.33,4.96,3.73l12.38,2.32c1.94.36,2.72,2.72,1.39,4.17l-9.02,9.9c-1.39,1.53-2.04,3.59-1.77,5.64l1.76,13.35c.21,1.59-1.06,2.85-2.49,2.85-.38,0-.77-.09-1.15-.28l-10.83-5.58c-1-.52-2.1-.78-3.2-.78-1.1,0-2.2.26-3.2.78l-10.83,5.58c-.38.19-.77.28-1.15.28-1.43,0-2.7-1.26-2.49-2.85l1.76-13.35c.27-2.05-.38-4.11-1.77-5.64l-9.02-9.9c-1.33-1.46-.54-3.81,1.39-4.18l12.38-2.32c2.14-.4,3.97-1.78,4.95-3.73l5.72-11.36c.46-.92,1.35-1.38,2.24-1.38M38,0C33,0,28.5,2.77,26.25,7.24l-4.91,9.75-10.6,1.99c-4.68.88-8.54,4.23-10.05,8.75-1.52,4.52-.46,9.52,2.75,13.05l7.88,8.65-1.54,11.68c-.5,3.76.65,7.55,3.14,10.39,2.5,2.86,6.11,4.49,9.9,4.49,2.08,0,4.16-.51,6.02-1.46l9.16-4.72,9.16,4.72c1.86.96,3.94,1.46,6.02,1.46,3.79,0,7.39-1.64,9.9-4.49,2.49-2.84,3.64-6.63,3.14-10.39l-1.54-11.68,7.89-8.65c3.21-3.52,4.27-8.52,2.75-13.05-1.51-4.52-5.36-7.87-10.05-8.75l-10.61-1.99-4.91-9.75C47.5,2.77,43,0,38,0h0Z"/>
</svg>