<?xml version="1.0" encoding="UTF-8"?>
<svg id="Layer_1" xmlns="http://www.w3.org/2000/svg" version="1.1" viewBox="0 0 76 76">
  <!-- Generator: Adobe Illustrator 30.1.0, SVG Export Plug-In . SVG Version: 2.1.1 Build 136)  -->
  <path d="M38,7.96c.98,0,1.95.51,2.46,1.52l6.29,12.48c1.08,2.14,3.09,3.66,5.44,4.1l13.6,2.55c2.13.4,2.99,2.98,1.53,4.58l-9.91,10.87c-1.53,1.68-2.24,3.95-1.94,6.2l1.93,14.66c.23,1.75-1.16,3.13-2.74,3.13-.42,0-.85-.1-1.26-.31l-11.89-6.13c-1.1-.57-2.31-.85-3.51-.85s-2.41.28-3.51.85l-11.89,6.13c-.41.21-.84.31-1.26.31-1.57,0-2.97-1.38-2.74-3.13l1.93-14.66c.3-2.25-.41-4.52-1.94-6.19l-9.91-10.87c-1.46-1.6-.6-4.19,1.53-4.59l13.6-2.55c2.35-.44,4.36-1.95,5.44-4.09l6.29-12.48c.51-1.01,1.49-1.52,2.46-1.52M38,0c-4.07,0-7.74,2.26-9.57,5.9l-6.23,12.36-13.46,2.52c-3.82.72-6.95,3.45-8.19,7.13-1.23,3.69-.38,7.76,2.24,10.63l9.83,10.78-1.92,14.55c-.4,3.06.53,6.15,2.56,8.47,2.04,2.33,4.98,3.66,8.06,3.66,1.69,0,3.39-.41,4.9-1.19l11.76-6.06,11.76,6.06c1.52.78,3.21,1.19,4.9,1.19,3.08,0,6.02-1.34,8.06-3.66,2.03-2.32,2.96-5.4,2.56-8.47l-1.92-14.55,9.83-10.78c2.62-2.87,3.48-6.95,2.24-10.63-1.23-3.68-4.37-6.42-8.19-7.13l-13.46-2.52-6.23-12.36c-1.83-3.64-5.5-5.9-9.57-5.9h0Z"/>
</svg>