<?xml version="1.0" encoding="UTF-8"?>
<svg id="Layer_1" xmlns="http://www.w3.org/2000/svg" version="1.1" viewBox="0 0 22 22">
  <!-- Generator: Adobe Illustrator 30.1.0, SVG Export Plug-In . SVG Version: 2.1.1 Build 136)  -->
  <path d="M11,3.08c.26,0,.52.13.65.4l1.66,3.29c.28.56.81.96,1.43,1.08l3.58.67c.56.11.79.79.4,1.21l-2.61,2.87c-.4.44-.59,1.04-.51,1.63l.51,3.86c.06.46-.31.83-.72.83-.11,0-.22-.03-.33-.08l-3.14-1.61c-.29-.15-.61-.22-.93-.22-.32,0-.64.07-.93.22l-3.14,1.61c-.11.06-.22.08-.33.08-.41,0-.78-.37-.72-.83l.51-3.87c.08-.59-.11-1.19-.51-1.63l-2.61-2.87c-.38-.42-.16-1.1.4-1.21l3.58-.67c.62-.12,1.15-.52,1.43-1.08l1.66-3.29c.13-.27.39-.4.65-.4M11,0c-1.45,0-2.75.8-3.4,2.09l-1.42,2.82-3.07.58c-1.36.25-2.47,1.23-2.91,2.53-.44,1.31-.13,2.76.8,3.78l2.28,2.5-.45,3.38c-.14,1.09.19,2.18.91,3.01.72.83,1.77,1.3,2.86,1.3.6,0,1.2-.15,1.74-.42l2.65-1.37,2.65,1.37c.54.28,1.14.42,1.74.42,1.1,0,2.14-.47,2.86-1.3.72-.82,1.05-1.92.91-3.01l-.45-3.38,2.28-2.51c.93-1.02,1.24-2.47.8-3.78-.44-1.31-1.55-2.28-2.91-2.53l-3.07-.58-1.42-2.82c-.65-1.29-1.95-2.09-3.4-2.09h0Z"/>
</svg>