<?xml version="1.0" encoding="UTF-8"?>
<svg id="Layer_1" xmlns="http://www.w3.org/2000/svg" version="1.1" viewBox="0 0 22 22">
  <!-- Generator: Adobe Illustrator 30.1.0, SVG Export Plug-In . SVG Version: 2.1.1 Build 136)  -->
  <path d="M11,3.86c.23,0,.46.12.59.36l1.49,2.97c.26.51.73.87,1.29.97l3.23.61c.51.09.71.71.36,1.09l-2.36,2.58c-.36.4-.53.94-.46,1.47l.46,3.49c.05.42-.28.75-.65.75-.1,0-.2-.02-.3-.07l-2.83-1.46c-.26-.14-.55-.2-.84-.2s-.57.07-.84.2l-2.83,1.46c-.1.05-.2.07-.3.07-.37,0-.71-.33-.65-.75l.46-3.49c.07-.53-.1-1.07-.46-1.47l-2.36-2.58c-.35-.38-.14-1,.36-1.09l3.23-.61c.56-.1,1.04-.46,1.29-.97l1.49-2.97c.12-.24.35-.36.59-.36M11,0C9.29,0,7.74.95,6.97,2.48l-1.04,2.07-2.24.42c-1.61.3-2.93,1.45-3.45,3-.52,1.55-.16,3.27.94,4.48l1.72,1.89-.34,2.55c-.17,1.29.22,2.59,1.08,3.57.86.98,2.1,1.54,3.4,1.54.71,0,1.43-.17,2.07-.5l1.9-.98,1.9.98c.64.33,1.35.5,2.07.5,1.3,0,2.54-.56,3.4-1.54.86-.98,1.25-2.28,1.08-3.57l-.34-2.55,1.72-1.89c1.1-1.21,1.46-2.92.94-4.48-.52-1.55-1.84-2.7-3.45-3l-2.24-.42-1.04-2.07C14.26.95,12.71,0,11,0h0Z"/>
</svg>