<?xml version="1.0" encoding="UTF-8"?>
<svg id="Layer_1" xmlns="http://www.w3.org/2000/svg" version="1.1" viewBox="0 0 77 77">
  <!-- Generator: Adobe Illustrator 30.1.0, SVG Export Plug-In . SVG Version: 2.1.1 Build 136)  -->
  <path d="M38.5,13.5c.81,0,1.63.42,2.05,1.26l5.23,10.38c.9,1.78,2.57,3.04,4.53,3.41l11.32,2.12c1.77.33,2.49,2.48,1.27,3.81l-8.24,9.05c-1.27,1.4-1.86,3.28-1.62,5.16l1.61,12.2c.19,1.46-.97,2.61-2.28,2.61-.35,0-.7-.08-1.05-.26l-9.9-5.1c-.92-.47-1.92-.71-2.92-.71s-2.01.24-2.92.71l-9.9,5.1c-.35.18-.7.26-1.05.26-1.31,0-2.47-1.15-2.28-2.61l1.61-12.2c.25-1.87-.34-3.76-1.61-5.15l-8.24-9.05c-1.21-1.33-.5-3.48,1.27-3.82l11.31-2.12c1.96-.37,3.63-1.63,4.53-3.41l5.23-10.38c.42-.84,1.24-1.26,2.05-1.26M38.5,0c-6,0-11.41,3.33-14.11,8.69l-3.65,7.24-7.85,1.47c-5.63,1.05-10.25,5.08-12.07,10.51-1.82,5.43-.55,11.43,3.3,15.67l6.02,6.61-1.18,8.93c-.6,4.51.78,9.06,3.78,12.48,3.01,3.43,7.34,5.39,11.88,5.39,2.5,0,5-.61,7.23-1.76l6.64-3.42,6.64,3.42c2.23,1.15,4.73,1.76,7.23,1.76,4.55,0,8.88-1.97,11.88-5.39,3-3.42,4.37-7.96,3.78-12.48l-1.18-8.93,6.02-6.61c3.86-4.23,5.12-10.23,3.3-15.66-1.82-5.43-6.44-9.46-12.07-10.51l-7.86-1.47-3.65-7.25C49.91,3.33,44.5,0,38.5,0h0Z"/>
</svg>