<?xml version="1.0" encoding="UTF-8"?>
<svg id="Layer_1" xmlns="http://www.w3.org/2000/svg" version="1.1" viewBox="0 0 26 26">
  <!-- Generator: Adobe Illustrator 30.1.0, SVG Export Plug-In . SVG Version: 2.1.1 Build 136)  -->
  <circle id="Outer" cx="13" cy="13" r="10.72" fill="none" stroke="#000" stroke-width="4.56"/>
  <g>
    <g>
      <rect x="12.17" y="16.42" width="1.65" height="1.65"/>
      <path d="M13.45,16.78v.92h-.92v-.92h.92M14.18,16.05h-2.38v2.38h2.38v-2.38h0Z"/>
    </g>
    <g>
      <path d="M12.17,14.81v-.71c0-.53.19-1.03.54-1.42l.91-1c.19-.21.29-.48.29-.75,0-.34-.28-.62-.62-.62h-.58c-.34,0-.62.28-.62.62v.37h-1.66v-.37c0-1.25,1.02-2.27,2.28-2.27h.58c1.26,0,2.28,1.02,2.28,2.27,0,.69-.25,1.35-.71,1.86l-.91,1.01c-.08.09-.12.2-.12.31v.71h-1.65Z"/>
      <path d="M13.29,9.03c1.05,0,1.91.85,1.91,1.9,0,.6-.22,1.17-.62,1.61l-.91,1.01c-.14.16-.22.35-.22.56v.35h-.92v-.35c0-.43.16-.85.45-1.17l.91-1c.25-.28.39-.63.39-1,0-.54-.44-.98-.99-.98h-.58c-.55,0-.99.44-.99.98h-.92c0-1.05.86-1.9,1.91-1.9h.58M13.29,8.3h-.58c-1.46,0-2.64,1.18-2.64,2.63v.73h2.39v-.73c0-.14.12-.25.26-.25h.58c.14,0,.26.11.26.25,0,.19-.07.37-.2.51l-.91,1c-.41.46-.64,1.04-.64,1.66v.36s0,.72,0,.72h2.36v-.72s.01-.35.01-.35c0-.02,0-.05.03-.07l.91-1.01c.52-.58.81-1.32.81-2.1,0-1.45-1.19-2.63-2.64-2.63h0Z"/>
    </g>
  </g>
</svg>