<?xml version="1.0" encoding="UTF-8"?>
<svg id="Layer_1" xmlns="http://www.w3.org/2000/svg" version="1.1" viewBox="0 0 45 45">
  <!-- Generator: Adobe Illustrator 30.1.0, SVG Export Plug-In . SVG Version: 2.1.1 Build 136)  -->
  <g>
    <g>
      <rect x="20.85" y="13.11" width="3.29" height="3.29"/>
      <path d="M23.51,13.74v2.03h-2.03v-2.03h2.03M24.78,12.48h-4.56v4.56h4.56v-4.56h0Z"/>
    </g>
    <g>
      <polygon points="18.83 31.51 18.83 28.22 20.85 28.22 20.85 23.15 18.83 23.15 18.83 19.86 24.15 19.86 24.15 28.22 26.17 28.22 26.17 31.51 18.83 31.51"/>
      <path d="M23.51,20.49v8.36h2.03v2.03h-6.08v-2.03h2.03v-6.33h-2.03v-2.03h4.06M24.78,19.23h-6.59v4.56h2.03v3.8h-2.03v4.56h8.61v-4.56h-2.03v-8.36h0Z"/>
    </g>
  </g>
  <circle id="Outer" cx="22.5" cy="22.5" r="18.56" fill="none" stroke="#000" stroke-width="7.89"/>
</svg>