<?xml version="1.0" encoding="UTF-8"?>
<svg id="Layer_1" xmlns="http://www.w3.org/2000/svg" version="1.1" viewBox="0 0 45 45">
  <!-- Generator: Adobe Illustrator 30.1.0, SVG Export Plug-In . SVG Version: 2.1.1 Build 136)  -->
  <g>
    <g>
      <rect x="20.9" y="11.97" width="3.19" height="3.19"/>
      <path d="M23.74,12.32v2.49h-2.49v-2.49h2.49M24.45,11.62h-3.89v3.89h3.89v-3.89h0Z"/>
    </g>
    <g>
      <polygon points="18.42 32.9 18.42 29.71 20.9 29.71 20.9 22.64 18.42 22.64 18.42 19.45 24.1 19.45 24.1 29.71 26.58 29.71 26.58 32.9 18.42 32.9"/>
      <path d="M23.74,19.8v10.25h2.49v2.49h-7.46v-2.49h2.49v-7.77h-2.49v-2.49h4.98M24.45,19.1h-6.38v3.89h2.49v6.36h-2.49v3.89h8.87v-3.89h-2.49v-10.25h0Z"/>
    </g>
  </g>
  <circle id="Outer" cx="22.5" cy="22.5" r="20.14" fill="none" stroke="#000" stroke-width="4.71"/>
</svg>