<?xml version="1.0" encoding="UTF-8"?>
<svg id="Layer_1" xmlns="http://www.w3.org/2000/svg" version="1.1" viewBox="0 0 48 48">
  <!-- Generator: Adobe Illustrator 30.1.0, SVG Export Plug-In . SVG Version: 2.1.1 Build 136)  -->
  <circle id="Outer" cx="24" cy="24" r="21.49" fill="none" stroke="#000" stroke-width="5.03"/>
  <g>
    <g>
      <rect x="22.48" y="31.6" width="3" height="3"/>
      <path d="M25.11,31.98v2.25h-2.25v-2.25h2.25M25.86,31.23h-3.75v3.75h3.75v-3.75h0Z"/>
    </g>
    <g>
      <path d="M22.49,28.34v-1.22c0-1.17.42-2.28,1.2-3.14l2.23-2.47c.55-.61.85-1.39.85-2.21,0-1.12-.92-2.04-2.06-2.04h-1.43c-1.13,0-2.06.92-2.06,2.04v.38h-3.02v-.38c0-2.78,2.28-5.05,5.08-5.05h1.43c2.8,0,5.08,2.27,5.08,5.05,0,1.56-.58,3.06-1.62,4.22l-2.23,2.47c-.29.32-.44.71-.44,1.12v1.23h-3.01Z"/>
      <path d="M24.72,14.62c2.6,0,4.71,2.1,4.71,4.67,0,1.47-.54,2.87-1.53,3.97l-2.23,2.47c-.35.38-.54.86-.54,1.37v.85h-2.26v-.85c0-1.07.39-2.09,1.11-2.88l2.23-2.47c.61-.68.95-1.55.95-2.46,0-1.33-1.09-2.42-2.43-2.42h-1.43c-1.34,0-2.43,1.08-2.43,2.42h-2.27c0-2.58,2.11-4.67,4.71-4.67h1.43M24.72,13.87h-1.43c-3.01,0-5.46,2.43-5.46,5.42v.75h3.77v-.75c0-.92.75-1.67,1.68-1.67h1.43c.93,0,1.68.75,1.68,1.67,0,.72-.27,1.42-.75,1.96l-2.23,2.47c-.84.93-1.31,2.13-1.31,3.38v.86s.01.74.01.74h3.74v-.74s.02-.85.02-.85c0-.33.12-.63.35-.88l2.23-2.47c1.11-1.23,1.72-2.82,1.72-4.47,0-2.99-2.45-5.42-5.46-5.42h0Z"/>
    </g>
  </g>
</svg>