<?xml version="1.0" encoding="UTF-8"?>
<svg id="Layer_1" xmlns="http://www.w3.org/2000/svg" version="1.1" viewBox="0 0 48 48">
  <!-- Generator: Adobe Illustrator 30.1.0, SVG Export Plug-In . SVG Version: 2.1.1 Build 136)  -->
  <circle id="Outer" cx="24" cy="24" r="19.79" fill="none" stroke="#000" stroke-width="8.41"/>
  <g>
    <g>
      <rect x="22.47" y="30.31" width="3.04" height="3.04"/>
      <path d="M24.83,30.99v1.69h-1.69v-1.69h1.69M26.18,29.64h-4.39v4.39h4.39v-4.39h0Z"/>
    </g>
    <g>
      <path d="M22.48,27.35v-1.31c0-.97.35-1.9,1-2.62l1.67-1.85c.35-.38.54-.88.54-1.39,0-.63-.52-1.14-1.15-1.14h-1.08c-.63,0-1.15.51-1.15,1.14v.67h-3.06v-.67c0-2.31,1.89-4.18,4.21-4.18h1.08c2.32,0,4.21,1.88,4.21,4.18,0,1.27-.47,2.48-1.32,3.43l-1.67,1.86c-.15.17-.23.36-.23.58v1.31h-3.04Z"/>
      <path d="M24.54,16.67c1.95,0,3.53,1.57,3.53,3.51,0,1.1-.41,2.16-1.15,2.98l-1.68,1.86c-.26.29-.4.64-.4,1.03v.64h-1.7v-.64c0-.8.29-1.57.83-2.16l1.67-1.86c.46-.51.71-1.16.71-1.84,0-1-.82-1.81-1.82-1.81h-1.08c-1.01,0-1.82.81-1.82,1.81h-1.71c0-1.93,1.58-3.51,3.53-3.51h1.08M24.54,15.32h-1.08c-2.69,0-4.88,2.18-4.88,4.86v1.35h4.41v-1.35c0-.25.21-.46.47-.46h1.08c.26,0,.47.21.47.46,0,.35-.13.68-.36.94l-1.67,1.86c-.76.84-1.18,1.93-1.19,3.06v.66s.02,1.34.02,1.34h4.37v-1.34s.02-.64.02-.64c0-.04,0-.08.06-.14l1.68-1.86c.96-1.07,1.49-2.45,1.49-3.88,0-2.68-2.19-4.86-4.88-4.86h0Z"/>
    </g>
  </g>
</svg>