<?xml version="1.0" encoding="UTF-8"?>
<svg id="Layer_1" xmlns="http://www.w3.org/2000/svg" version="1.1" viewBox="0 0 123 123">
  <!-- Generator: Adobe Illustrator 30.1.0, SVG Export Plug-In . SVG Version: 2.1.1 Build 136)  -->
  <path d="M61.5,17.22c1.44,0,2.88.75,3.63,2.24l9.26,18.39c1.59,3.16,4.56,5.39,8.02,6.04l20.04,3.76c3.13.59,4.4,4.4,2.25,6.76l-14.6,16.02c-2.25,2.47-3.3,5.82-2.86,9.14l2.85,21.6c.34,2.58-1.71,4.62-4.03,4.62-.61,0-1.25-.14-1.86-.46l-17.53-9.03c-1.62-.84-3.4-1.26-5.18-1.26-1.78,0-3.55.42-5.18,1.26l-17.53,9.03c-.61.31-1.24.46-1.86.46-2.32,0-4.37-2.04-4.03-4.62l2.85-21.61c.44-3.32-.61-6.66-2.86-9.12l-14.6-16.02c-2.15-2.36-.88-6.17,2.26-6.76l20.04-3.76c3.46-.65,6.43-2.88,8.02-6.03l9.27-18.39c.75-1.49,2.19-2.24,3.63-2.24M61.5,0c-8.09,0-15.37,4.49-19.01,11.71l-7.95,15.79-17.16,3.22c-7.58,1.42-13.81,6.85-16.26,14.17-2.45,7.32-.75,15.41,4.45,21.12l12.76,14-2.49,18.91c-.8,6.08,1.05,12.21,5.09,16.82,4.05,4.62,9.89,7.27,16.02,7.27,3.36,0,6.73-.82,9.74-2.37l14.82-7.63,14.82,7.63c3.01,1.55,6.38,2.37,9.74,2.37,6.13,0,11.96-2.65,16.02-7.27,4.04-4.6,5.89-10.73,5.09-16.82l-2.49-18.91,12.76-14.01c5.2-5.7,6.9-13.8,4.45-21.11-2.45-7.32-8.68-12.74-16.26-14.16l-17.17-3.22-7.95-15.79c-3.64-7.22-10.92-11.71-19.01-11.71h0Z"/>
</svg>