<?xml version="1.0" encoding="UTF-8"?>
<svg id="Layer_1" xmlns="http://www.w3.org/2000/svg" version="1.1" viewBox="0 0 83 83">
  <!-- Generator: Adobe Illustrator 30.1.0, SVG Export Plug-In . SVG Version: 2.1.1 Build 136)  -->
  <path d="M41.5,11.62c.97,0,1.94.5,2.45,1.51l6.25,12.41c1.07,2.13,3.07,3.64,5.41,4.07l13.52,2.53c2.11.4,2.97,2.97,1.52,4.56l-9.85,10.81c-1.52,1.67-2.23,3.92-1.93,6.16l1.92,14.58c.23,1.74-1.16,3.12-2.72,3.12-.41,0-.84-.1-1.25-.31l-11.83-6.09c-1.1-.56-2.3-.85-3.49-.85-1.2,0-2.4.28-3.49.85l-11.83,6.09c-.41.21-.84.31-1.25.31-1.56,0-2.95-1.38-2.72-3.12l1.92-14.58c.3-2.24-.41-4.49-1.93-6.16l-9.85-10.81c-1.45-1.59-.59-4.16,1.52-4.56l13.52-2.53c2.34-.44,4.34-1.94,5.41-4.07l6.25-12.41c.51-1.01,1.48-1.51,2.45-1.51M41.5,0C36.04,0,31.13,3.03,28.67,7.9l-5.37,10.65-11.58,2.17c-5.12.96-9.32,4.62-10.98,9.56-1.65,4.94-.5,10.4,3.01,14.25l8.61,9.45-1.68,12.76c-.54,4.11.71,8.24,3.43,11.35,2.73,3.12,6.67,4.91,10.81,4.91,2.27,0,4.54-.55,6.57-1.6l10-5.15,10,5.15c2.03,1.05,4.3,1.6,6.57,1.6,4.13,0,8.07-1.79,10.81-4.91,2.72-3.11,3.97-7.24,3.43-11.35l-1.68-12.76,8.61-9.45c3.51-3.85,4.66-9.31,3-14.25-1.65-4.94-5.86-8.6-10.97-9.56l-11.58-2.17-5.37-10.65C51.87,3.03,46.96,0,41.5,0h0Z"/>
</svg>