<?xml version="1.0" encoding="UTF-8"?>
<svg id="Layer_1" xmlns="http://www.w3.org/2000/svg" version="1.1" viewBox="0 0 66 66">
  <!-- Generator: Adobe Illustrator 30.1.0, SVG Export Plug-In . SVG Version: 2.1.1 Build 136)  -->
  <circle id="Outer" cx="33" cy="33" r="28.38" fill="none" stroke="#000" stroke-width="9.24"/>
  <g>
    <g>
      <rect x="30.91" y="42.57" width="4.15" height="4.15"/>
      <path d="M34.33,43.29v2.7h-2.7v-2.7h2.7M35.78,41.85h-5.59v5.59h5.59v-5.59h0Z"/>
    </g>
    <g>
      <path d="M30.92,38.26v-1.74c0-1.46.53-2.86,1.51-3.95l2.68-2.96c.61-.68.95-1.55.95-2.46,0-1.2-.99-2.17-2.2-2.17h-1.72c-1.21,0-2.2.98-2.2,2.17v.72h-4.17v-.72c0-3.49,2.86-6.33,6.37-6.33h1.72c3.51,0,6.37,2.84,6.37,6.33,0,1.94-.72,3.8-2.02,5.24l-2.68,2.97c-.3.33-.46.74-.46,1.17l-.02,1.74h-4.13Z"/>
      <path d="M33.86,21.54c3.11,0,5.64,2.51,5.64,5.6,0,1.76-.65,3.45-1.83,4.76l-2.68,2.97c-.41.46-.64,1.03-.65,1.65v1.02h-2.71v-1.02c0-1.28.47-2.5,1.33-3.45l2.68-2.97c.73-.81,1.14-1.86,1.14-2.95,0-1.6-1.31-2.9-2.92-2.9h-1.72c-1.61,0-2.92,1.3-2.92,2.9h-2.73c0-3.09,2.53-5.6,5.64-5.6h1.72M33.86,20.1h-1.72c-3.91,0-7.09,3.16-7.09,7.05v1.44h5.61v-1.44c0-.8.66-1.45,1.47-1.45h1.72c.81,0,1.47.65,1.47,1.45,0,.73-.27,1.43-.76,1.98l-2.68,2.97c-1.1,1.21-1.7,2.78-1.71,4.42v1.04s.02,1.43.02,1.43h5.56v-1.43s.02-1.02.02-1.02c0-.26.09-.49.27-.69l2.68-2.97c1.42-1.57,2.2-3.61,2.2-5.72,0-3.89-3.18-7.05-7.09-7.05h0Z"/>
    </g>
  </g>
</svg>