<?xml version="1.0" encoding="UTF-8"?>
<svg id="Layer_1" xmlns="http://www.w3.org/2000/svg" version="1.1" viewBox="0 0 67 67">
  <!-- Generator: Adobe Illustrator 30.1.0, SVG Export Plug-In . SVG Version: 2.1.1 Build 136)  -->
  <path d="M33.5,11.75c.71,0,1.41.37,1.78,1.1l4.55,9.03c.78,1.55,2.24,2.65,3.94,2.97l9.85,1.85c1.54.29,2.16,2.16,1.11,3.32l-7.17,7.87c-1.11,1.21-1.62,2.86-1.41,4.49l1.4,10.61c.17,1.27-.84,2.27-1.98,2.27-.3,0-.61-.07-.91-.23l-8.61-4.44c-.8-.41-1.67-.62-2.54-.62s-1.75.21-2.54.62l-8.61,4.44c-.3.15-.61.23-.91.23-1.14,0-2.15-1-1.98-2.27l1.4-10.62c.21-1.63-.3-3.27-1.4-4.48l-7.17-7.87c-1.06-1.16-.43-3.03,1.11-3.32l9.84-1.85c1.7-.32,3.16-1.42,3.94-2.96l4.55-9.04c.37-.73,1.08-1.1,1.78-1.1M33.5,0C28.28,0,23.57,2.9,21.23,7.56l-3.18,6.3-6.83,1.28c-4.9.92-8.92,4.42-10.5,9.15-1.58,4.73-.48,9.95,2.88,13.63l5.24,5.75-1.03,7.77c-.52,3.93.68,7.89,3.29,10.86,2.61,2.98,6.38,4.69,10.34,4.69,2.17,0,4.35-.53,6.29-1.53l5.78-2.98,5.78,2.98c1.94,1,4.12,1.53,6.29,1.53,3.96,0,7.72-1.71,10.34-4.69,2.61-2.97,3.8-6.93,3.29-10.86l-1.03-7.77,5.24-5.75c3.36-3.68,4.46-8.91,2.87-13.63-1.58-4.72-5.61-8.23-10.5-9.14l-6.84-1.28-3.18-6.3C43.42,2.9,38.72,0,33.5,0h0Z"/>
</svg>