<?xml version="1.0" encoding="UTF-8"?>
<svg id="Layer_1" xmlns="http://www.w3.org/2000/svg" version="1.1" viewBox="0 0 38 38">
  <!-- Generator: Adobe Illustrator 30.1.0, SVG Export Plug-In . SVG Version: 2.1.1 Build 136)  -->
  <circle id="Outer" cx="19" cy="19" r="17.01" fill="none" stroke="#000" stroke-width="3.98"/>
  <g>
    <g>
      <rect x="17.8" y="25.02" width="2.38" height="2.38"/>
      <path d="M19.88,25.32v1.78h-1.78v-1.78h1.78M20.47,24.72h-2.97v2.97h2.97v-2.97h0Z"/>
    </g>
    <g>
      <path d="M17.8,22.43v-.97c0-.92.34-1.8.95-2.48l1.77-1.96c.44-.48.67-1.1.67-1.75,0-.89-.73-1.62-1.63-1.62h-1.14c-.9,0-1.63.72-1.63,1.62v.3h-2.39v-.3c0-2.2,1.8-4,4.02-4h1.14c2.22,0,4.02,1.79,4.02,4,0,1.23-.46,2.42-1.29,3.34l-1.77,1.96c-.23.25-.35.56-.35.89v.97h-2.38Z"/>
      <path d="M19.57,11.58c2.05,0,3.73,1.66,3.73,3.7,0,1.16-.43,2.28-1.21,3.14l-1.77,1.96c-.27.3-.43.68-.43,1.09v.67h-1.79v-.67c0-.85.31-1.65.88-2.28l1.77-1.96c.48-.54.75-1.23.75-1.95,0-1.05-.86-1.91-1.93-1.91h-1.14c-1.06,0-1.93.86-1.93,1.91h-1.8c0-2.04,1.67-3.7,3.73-3.7h1.14M19.57,10.98h-1.14c-2.38,0-4.32,1.93-4.32,4.29v.59h2.99v-.59c0-.73.6-1.32,1.33-1.32h1.14c.73,0,1.33.59,1.33,1.32,0,.57-.21,1.12-.6,1.55l-1.77,1.96c-.66.74-1.03,1.69-1.04,2.68v.68s.01.59.01.59h2.96v-.59s.01-.67.01-.67c0-.26.1-.5.27-.69l1.77-1.96c.88-.97,1.36-2.23,1.36-3.54,0-2.37-1.94-4.29-4.32-4.29h0Z"/>
    </g>
  </g>
</svg>