<?xml version="1.0" encoding="UTF-8"?>
<svg id="Layer_1" xmlns="http://www.w3.org/2000/svg" version="1.1" viewBox="0 0 41 41">
  <!-- Generator: Adobe Illustrator 30.1.0, SVG Export Plug-In . SVG Version: 2.1.1 Build 136)  -->
  <circle id="Outer" cx="20.5" cy="20.5" r="16.91" fill="none" stroke="#000" stroke-width="7.19"/>
  <g>
    <g>
      <rect x="19.19" y="25.89" width="2.6" height="2.6"/>
      <path d="M21.21,26.47v1.44h-1.44v-1.44h1.44M22.36,25.32h-3.75v3.75h3.75v-3.75h0Z"/>
    </g>
    <g>
      <path d="M19.2,23.36v-1.12c0-.83.3-1.62.85-2.24l1.43-1.58c.3-.33.46-.75.46-1.19,0-.54-.44-.97-.98-.97h-.92c-.54,0-.98.44-.98.97v.58h-2.61v-.58c0-1.97,1.61-3.57,3.59-3.57h.92c1.98,0,3.59,1.6,3.59,3.57,0,1.08-.4,2.12-1.13,2.93l-1.43,1.59c-.13.14-.2.31-.2.5v1.12h-2.6Z"/>
      <path d="M20.96,14.24c1.66,0,3.02,1.34,3.02,2.99,0,.94-.35,1.84-.98,2.54l-1.43,1.59c-.22.25-.34.55-.35.88v.55h-1.45v-.55c0-.68.25-1.34.71-1.85l1.43-1.58c.39-.43.61-.99.61-1.58,0-.85-.7-1.55-1.56-1.55h-.92c-.86,0-1.56.69-1.56,1.55h-1.46c0-1.65,1.35-2.99,3.02-2.99h.92M20.96,13.08h-.92c-2.3,0-4.17,1.86-4.17,4.15v1.15h3.76v-1.15c0-.22.18-.39.41-.39h.92c.22,0,.41.18.41.39,0,.3-.11.58-.31.8l-1.43,1.58c-.65.72-1.01,1.65-1.01,2.61v.56s.01,1.14.01,1.14h3.73v-1.14s.02-.55.02-.55c0-.04,0-.07.05-.12l1.43-1.59c.82-.91,1.28-2.09,1.28-3.31,0-2.29-1.87-4.15-4.17-4.15h0Z"/>
    </g>
  </g>
</svg>