<?xml version="1.0" encoding="UTF-8"?>
<svg id="Layer_1" xmlns="http://www.w3.org/2000/svg" version="1.1" viewBox="0 0 41 41">
  <!-- Generator: Adobe Illustrator 30.1.0, SVG Export Plug-In . SVG Version: 2.1.1 Build 136)  -->
  <circle id="Outer" cx="20.5" cy="20.5" r="17.63" fill="none" stroke="#000" stroke-width="5.74"/>
  <g>
    <g>
      <rect x="19.2" y="26.45" width="2.58" height="2.58"/>
      <path d="M21.33,26.89v1.68h-1.68v-1.68h1.68M22.23,26h-3.47v3.47h3.47v-3.47h0Z"/>
    </g>
    <g>
      <path d="M19.21,23.76v-1.08c0-.91.33-1.78.94-2.45l1.66-1.84c.38-.42.59-.97.59-1.53,0-.75-.61-1.35-1.36-1.35h-1.07c-.75,0-1.36.61-1.36,1.35v.45h-2.59v-.45c0-2.17,1.77-3.93,3.95-3.93h1.07c2.18,0,3.95,1.76,3.95,3.93,0,1.2-.45,2.36-1.25,3.25l-1.66,1.84c-.19.21-.29.46-.29.72v1.08h-2.58Z"/>
      <path d="M21.03,13.38c1.93,0,3.51,1.56,3.51,3.48,0,1.09-.4,2.14-1.14,2.95l-1.66,1.84c-.26.28-.4.64-.4,1.02v.63h-1.69v-.63c0-.8.29-1.55.83-2.15l1.66-1.84c.46-.5.71-1.15.71-1.83,0-.99-.81-1.8-1.81-1.8h-1.07c-1,0-1.81.81-1.81,1.8h-1.69c0-1.92,1.57-3.48,3.51-3.48h1.07M21.03,12.48h-1.07c-2.43,0-4.4,1.96-4.4,4.38v.9h3.49v-.9c0-.5.41-.9.92-.9h1.07c.5,0,.92.4.92.9,0,.45-.17.89-.47,1.23l-1.66,1.84c-.68.75-1.06,1.73-1.06,2.74v.65s.01.89.01.89h3.46v-.89s.02-.63.02-.63c0-.16.06-.31.17-.43l1.66-1.84c.88-.98,1.37-2.24,1.37-3.56,0-2.41-1.98-4.38-4.4-4.38h0Z"/>
    </g>
  </g>
</svg>