<?xml version="1.0" encoding="UTF-8"?>
<svg id="Layer_1" xmlns="http://www.w3.org/2000/svg" version="1.1" viewBox="0 0 126 126">
  <!-- Generator: Adobe Illustrator 30.1.0, SVG Export Plug-In . SVG Version: 2.1.1 Build 136)  -->
  <circle id="Outer" cx="63" cy="63" r="54.18" fill="none" stroke="#000" stroke-width="17.64"/>
  <g>
    <g>
      <rect x="59.01" y="81.27" width="7.92" height="7.92"/>
      <path d="M65.55,82.65v5.16h-5.16v-5.16h5.16M68.3,79.9h-10.67v10.67h10.67v-10.67h0Z"/>
    </g>
    <g>
      <path d="M59.03,73.03l-.03-3.32c0-2.8,1.04-5.47,2.91-7.53l5.11-5.66c1.17-1.3,1.82-2.97,1.82-4.71,0-2.29-1.88-4.15-4.19-4.15h-3.28c-2.31,0-4.19,1.86-4.19,4.15v1.38h-7.96v-1.38c0-6.66,5.45-12.08,12.15-12.08h3.28c6.7,0,12.15,5.42,12.15,12.08,0,3.7-1.37,7.25-3.85,10l-5.11,5.66c-.57.63-.88,1.4-.88,2.22l-.03,3.32h-7.89Z"/>
      <path d="M64.64,41.12c5.94,0,10.77,4.8,10.77,10.7,0,3.36-1.24,6.58-3.5,9.08l-5.11,5.66c-.79.88-1.23,1.96-1.23,3.14l-.02,1.95h-5.16l-.02-1.95c0-2.45.91-4.78,2.56-6.6l5.11-5.66c1.4-1.55,2.17-3.55,2.17-5.63,0-3.05-2.5-5.53-5.57-5.53h-3.28c-3.07,0-5.57,2.48-5.57,5.53h-5.21c0-5.9,4.83-10.7,10.77-10.7h3.28M64.64,38.36h-3.28c-7.46,0-13.53,6.04-13.53,13.46v2.76h10.72v-2.76c0-1.53,1.26-2.77,2.81-2.77h3.28c1.55,0,2.81,1.24,2.81,2.77,0,1.4-.52,2.74-1.46,3.78l-5.11,5.66c-2.09,2.32-3.25,5.31-3.27,8.43l.02,1.99.02,2.73h10.62l.03-2.73.02-1.95c0-.5.18-.94.52-1.32l5.11-5.67c2.71-3.01,4.21-6.89,4.21-10.93,0-7.42-6.07-13.46-13.53-13.46h0Z"/>
    </g>
  </g>
</svg>