<?xml version="1.0" encoding="UTF-8"?>
<svg id="Layer_1" xmlns="http://www.w3.org/2000/svg" version="1.1" viewBox="0 0 126 126">
  <!-- Generator: Adobe Illustrator 30.1.0, SVG Export Plug-In . SVG Version: 2.1.1 Build 136)  -->
  <circle id="Outer" cx="63" cy="63" r="56.4" fill="none" stroke="#000" stroke-width="13.19"/>
  <g>
    <g>
      <rect x="59.02" y="82.96" width="7.89" height="7.89"/>
      <path d="M65.92,83.95v5.92h-5.92v-5.92h5.92M67.89,81.98h-9.85v9.85h9.85v-9.85h0Z"/>
    </g>
    <g>
      <path d="M59.03,74.38l-.03-3.21c.01-3.05,1.14-5.97,3.19-8.23l5.86-6.49c1.44-1.6,2.23-3.65,2.23-5.79,0-2.95-2.42-5.36-5.4-5.36h-3.76c-2.98,0-5.4,2.4-5.4,5.36v.98h-7.94v-.98c0-7.31,5.98-13.25,13.34-13.25h3.76c7.36,0,13.34,5.95,13.34,13.25,0,4.09-1.51,8.02-4.27,11.07l-5.86,6.49c-.76.84-1.16,1.86-1.16,2.95l-.03,3.22h-7.87Z"/>
      <path d="M64.88,38.38c6.81,0,12.36,5.51,12.36,12.27,0,3.85-1.43,7.55-4.01,10.41l-5.86,6.5c-.91,1-1.41,2.25-1.42,3.6l-.02,2.24h-5.92l-.02-2.24c.01-2.8,1.04-5.48,2.93-7.56l5.86-6.49c1.6-1.78,2.49-4.07,2.49-6.45,0-3.5-2.87-6.34-6.39-6.34h-3.76c-3.52,0-6.39,2.85-6.39,6.34h-5.97c0-6.76,5.54-12.27,12.36-12.27h3.76M64.88,36.41h-3.76c-7.9,0-14.33,6.39-14.33,14.24v1.97h9.91v-1.97c0-2.41,1.98-4.37,4.42-4.37h3.76c2.44,0,4.42,1.96,4.42,4.37,0,1.9-.7,3.72-1.98,5.14l-5.86,6.49c-2.2,2.44-3.43,5.59-3.44,8.88l.02,2.26.02,1.95h9.82l.02-1.95.02-2.24c0-.86.32-1.65.91-2.3l5.86-6.5c2.91-3.23,4.52-7.39,4.52-11.73,0-7.85-6.43-14.24-14.33-14.24h0Z"/>
    </g>
  </g>
</svg>