<?xml version="1.0" encoding="UTF-8"?>
<svg id="Layer_1" xmlns="http://www.w3.org/2000/svg" version="1.1" viewBox="0 0 95 95">
  <!-- Generator: Adobe Illustrator 30.1.0, SVG Export Plug-In . SVG Version: 2.1.1 Build 136)  -->
  <circle id="Outer" cx="47.5" cy="47.5" r="39.17" fill="none" stroke="#000" stroke-width="16.65"/>
  <g>
    <g>
      <rect x="44.47" y="59.99" width="6.02" height="6.02"/>
      <path d="M49.15,61.33v3.35h-3.35v-3.35h3.35M51.82,58.66h-8.69v8.69h8.69v-8.69h0Z"/>
    </g>
    <g>
      <path d="M44.48,54.13l-.02-2.59c0-1.93.72-3.76,2-5.19l3.31-3.67c.68-.76,1.06-1.74,1.06-2.76,0-1.24-1.02-2.25-2.28-2.25h-2.13c-1.25,0-2.28,1.01-2.28,2.25v1.34h-6.05v-1.34c0-4.56,3.73-8.27,8.32-8.27h2.13c4.59,0,8.32,3.71,8.32,8.27,0,2.51-.93,4.92-2.61,6.78l-3.31,3.67c-.3.33-.46.72-.46,1.15l-.03,2.6h-5.99Z"/>
      <path d="M48.56,32.99c3.85,0,6.99,3.11,6.99,6.94,0,2.18-.81,4.27-2.27,5.89l-3.32,3.67c-.51.57-.8,1.27-.8,2.04v1.27h-3.36v-1.27c0-1.59.58-3.1,1.65-4.28l3.31-3.67c.91-1.01,1.41-2.3,1.41-3.65,0-1.98-1.62-3.59-3.61-3.59h-2.13c-1.99,0-3.61,1.61-3.61,3.59h-3.38c0-3.83,3.13-6.94,6.99-6.94h2.13M48.56,30.32h-2.13c-5.33,0-9.66,4.31-9.66,9.61v2.67h8.72v-2.67c0-.5.42-.91.94-.91h2.13c.52,0,.94.41.94.91,0,.69-.26,1.35-.72,1.86l-3.31,3.67c-1.5,1.66-2.34,3.82-2.35,6.06v1.3s.03,2.65.03,2.65h8.64l.03-2.64v-1.27c.01-.09.03-.17.12-.27l3.32-3.68c1.91-2.11,2.96-4.84,2.96-7.68,0-5.3-4.33-9.61-9.66-9.61h0Z"/>
    </g>
  </g>
</svg>