<?xml version="1.0" encoding="UTF-8"?>
<svg id="Layer_1" xmlns="http://www.w3.org/2000/svg" version="1.1" viewBox="0 0 67 67">
  <!-- Generator: Adobe Illustrator 30.1.0, SVG Export Plug-In . SVG Version: 2.1.1 Build 136)  -->
  <g>
    <g>
      <rect x="31.05" y="19.52" width="4.9" height="4.9"/>
      <path d="M35.01,20.46v3.02h-3.02v-3.02h3.02M36.89,18.58h-6.79v6.79h6.79v-6.79h0Z"/>
    </g>
    <g>
      <polygon points="28.03 46.91 28.03 42.01 31.05 42.01 31.05 34.47 28.03 34.47 28.03 29.57 35.95 29.57 35.95 42.01 38.97 42.01 38.97 46.91 28.03 46.91"/>
      <path d="M35.01,30.51v12.44h3.02v3.02h-9.06v-3.02h3.02v-9.42h-3.02v-3.02h6.04M36.89,28.62h-9.81v6.79h3.02v5.66h-3.02v6.79h12.83v-6.79h-3.02v-12.44h0Z"/>
    </g>
  </g>
  <circle id="Outer" cx="33.5" cy="33.5" r="27.63" fill="none" stroke="#000" stroke-width="11.75"/>
</svg>