<?xml version="1.0" encoding="UTF-8"?>
<svg id="Layer_1" xmlns="http://www.w3.org/2000/svg" version="1.1" viewBox="0 0 17 17">
  <!-- Generator: Adobe Illustrator 30.1.0, SVG Export Plug-In . SVG Version: 2.1.1 Build 136)  -->
  <path d="M8.5,2.38c.2,0,.4.1.5.31l1.28,2.54c.22.44.63.74,1.11.83l2.77.52c.43.08.61.61.31.93l-2.02,2.21c-.31.34-.46.8-.4,1.26l.39,2.99c.05.36-.24.64-.56.64-.08,0-.17-.02-.26-.06l-2.42-1.25c-.22-.12-.47-.17-.72-.17s-.49.06-.72.17l-2.42,1.25c-.08.04-.17.06-.26.06-.32,0-.6-.28-.56-.64l.39-2.99c.06-.46-.08-.92-.4-1.26l-2.02-2.21c-.3-.33-.12-.85.31-.93l2.77-.52c.48-.09.89-.4,1.11-.83l1.28-2.54c.1-.21.3-.31.5-.31M8.5,0C7.38,0,6.38.62,5.87,1.62l-1.1,2.18-2.37.44c-1.05.2-1.91.95-2.25,1.96-.34,1.01-.1,2.13.62,2.92l1.76,1.94-.34,2.61c-.11.84.15,1.69.7,2.32.56.64,1.37,1.01,2.21,1.01.46,0,.93-.11,1.35-.33l2.05-1.06,2.05,1.06c.42.21.88.33,1.35.33.85,0,1.65-.37,2.21-1.01.56-.64.81-1.48.7-2.32l-.34-2.61,1.76-1.94c.72-.79.95-1.91.62-2.92-.34-1.01-1.2-1.76-2.25-1.96l-2.37-.44-1.1-2.18C10.62.62,9.62,0,8.5,0h0Z"/>
</svg>