<?xml version="1.0" encoding="UTF-8"?>
<svg id="Layer_1" xmlns="http://www.w3.org/2000/svg" version="1.1" viewBox="0 0 17 17">
  <!-- Generator: Adobe Illustrator 30.1.0, SVG Export Plug-In . SVG Version: 2.1.1 Build 136)  -->
  <path d="M8.5,2.98c.18,0,.36.09.45.28l1.15,2.29c.2.39.57.67,1,.75l2.5.47c.39.07.55.55.28.84l-1.82,2c-.28.31-.41.72-.36,1.14l.36,2.69c.04.32-.21.58-.5.58-.08,0-.16-.02-.23-.06l-2.19-1.13c-.2-.1-.42-.16-.65-.16s-.44.05-.65.16l-2.19,1.13c-.08.04-.16.06-.23.06-.29,0-.54-.25-.5-.58l.36-2.69c.05-.41-.08-.83-.36-1.14l-1.82-2c-.27-.29-.11-.77.28-.84l2.5-.47c.43-.08.8-.36,1-.75l1.15-2.29c.09-.19.27-.28.45-.28M8.5,0c-1.32,0-2.52.74-3.11,1.92l-.81,1.6-1.73.33c-1.24.23-2.26,1.12-2.66,2.32-.4,1.2-.12,2.52.73,3.46l1.33,1.46-.26,1.97c-.13,1,.17,2,.83,2.75.66.76,1.62,1.19,2.62,1.19.55,0,1.1-.13,1.6-.39l1.47-.76,1.47.76c.49.25,1.04.39,1.6.39,1,0,1.96-.43,2.62-1.19.66-.75.97-1.76.83-2.76l-.26-1.97,1.33-1.46c.85-.93,1.13-2.26.73-3.46-.4-1.2-1.42-2.09-2.66-2.32l-1.73-.33-.81-1.6c-.6-1.18-1.79-1.92-3.11-1.92h0Z"/>
</svg>