<?xml version="1.0" encoding="UTF-8"?>
<svg id="Layer_1" xmlns="http://www.w3.org/2000/svg" version="1.1" viewBox="0 0 17 17">
  <!-- Generator: Adobe Illustrator 30.1.0, SVG Export Plug-In . SVG Version: 2.1.1 Build 136)  -->
  <path d="M8.5,1.78c.22,0,.44.11.55.34l1.41,2.79c.24.48.69.82,1.22.92l3.04.57c.48.09.67.67.34,1.03l-2.22,2.43c-.34.38-.5.88-.43,1.39l.43,3.28c.05.39-.26.7-.61.7-.09,0-.19-.02-.28-.07l-2.66-1.37c-.25-.13-.52-.19-.79-.19s-.54.06-.79.19l-2.66,1.37c-.09.05-.19.07-.28.07-.35,0-.66-.31-.61-.7l.43-3.28c.07-.5-.09-1.01-.43-1.38l-2.22-2.43c-.33-.36-.13-.94.34-1.03l3.04-.57c.53-.1.98-.44,1.22-.92l1.41-2.79c.11-.23.33-.34.55-.34M8.5,0C7.59,0,6.77.51,6.36,1.32l-1.39,2.76-3.01.56c-.85.16-1.56.77-1.83,1.6-.28.82-.08,1.74.5,2.38l2.22,2.43-.45,3.23c-.09.69.12,1.38.57,1.89.46.52,1.11.82,1.8.82.38,0,.76-.09,1.1-.27l2.63-1.36,2.63,1.36c.34.17.72.27,1.1.27.69,0,1.35-.3,1.8-.82.45-.52.66-1.21.57-1.89l-.43-3.28,2.2-2.39c.59-.64.78-1.55.5-2.38-.28-.82-.98-1.44-1.83-1.6l-3.01-.56-1.39-2.76C10.23.51,9.41,0,8.5,0h0Z"/>
</svg>