<?xml version="1.0" encoding="UTF-8"?>
<svg id="Layer_1" xmlns="http://www.w3.org/2000/svg" version="1.1" viewBox="0 0 120 120">
  <!-- Generator: Adobe Illustrator 30.1.0, SVG Export Plug-In . SVG Version: 2.1.1 Build 136)  -->
  <path d="M60,21.04c1.27,0,2.53.66,3.2,1.97l8.15,16.18c1.4,2.78,4.01,4.74,7.06,5.31l17.63,3.31c2.76.52,3.88,3.87,1.98,5.94l-12.85,14.1c-1.98,2.18-2.9,5.12-2.52,8.04l2.51,19.01c.3,2.27-1.51,4.06-3.55,4.06-.54,0-1.1-.13-1.64-.4l-15.42-7.94c-1.43-.74-2.99-1.1-4.56-1.1s-3.13.37-4.56,1.1l-15.42,7.94c-.54.28-1.1.4-1.64.4-2.04,0-3.85-1.8-3.55-4.06l2.51-19.02c.38-2.92-.54-5.86-2.52-8.03l-12.85-14.1c-1.89-2.08-.77-5.43,1.99-5.95l17.63-3.31c3.05-.57,5.66-2.53,7.06-5.31l8.15-16.18c.66-1.31,1.93-1.97,3.2-1.97M60,0C50.65,0,42.22,5.19,38.02,13.54l-5.69,11.29-12.24,2.29c-8.77,1.64-15.97,7.92-18.81,16.38-2.84,8.46-.86,17.82,5.15,24.42l9.39,10.3-1.84,13.92c-.93,7.03,1.22,14.12,5.89,19.45,4.68,5.34,11.43,8.41,18.52,8.41,3.89,0,7.79-.95,11.27-2.74l10.35-5.33,10.35,5.33c3.48,1.79,7.37,2.74,11.27,2.74,7.09,0,13.84-3.06,18.52-8.41,4.67-5.32,6.81-12.41,5.89-19.45l-1.84-13.92,9.39-10.3c6.01-6.6,7.98-15.95,5.15-24.41-2.83-8.46-10.04-14.74-18.81-16.38l-12.24-2.3-5.69-11.29C77.77,5.19,69.35,0,60,0h0Z"/>
</svg>