<?xml version="1.0" encoding="UTF-8"?>
<svg id="Layer_1" xmlns="http://www.w3.org/2000/svg" version="1.1" viewBox="0 0 16 16">
  <!-- Generator: Adobe Illustrator 30.1.0, SVG Export Plug-In . SVG Version: 2.1.1 Build 136)  -->
  <circle id="Outer" cx="8" cy="8" r="6.88" fill="none" stroke="#000" stroke-width="2.24"/>
  <g>
    <g>
      <rect x="7.49" y="10.32" width="1" height="1"/>
      <path d="M8.32,10.5v.66h-.66v-.66h.66M8.67,10.15h-1.36v1.36h1.36v-1.36h0Z"/>
    </g>
    <g>
      <path d="M7.5,9.27v-.42c0-.36.13-.69.37-.96l.65-.72c.15-.16.23-.38.23-.6,0-.29-.24-.53-.53-.53h-.42c-.29,0-.53.24-.53.53v.17h-1.01v-.17c0-.85.69-1.53,1.54-1.53h.42c.85,0,1.54.69,1.54,1.53,0,.47-.17.92-.49,1.27l-.65.72c-.07.08-.11.18-.11.28v.42h-1.01Z"/>
      <path d="M8.21,5.22c.75,0,1.37.61,1.37,1.36,0,.43-.16.84-.44,1.15l-.65.72c-.1.11-.16.25-.16.4v.25h-.66v-.25c0-.31.11-.61.32-.84l.65-.72c.18-.2.28-.45.28-.71,0-.39-.32-.7-.71-.7h-.42c-.39,0-.71.32-.71.7h-.66c0-.75.61-1.36,1.37-1.36h.42M8.21,4.87h-.42c-.95,0-1.72.77-1.72,1.71v.35h1.36v-.35c0-.19.16-.35.36-.35h.42c.2,0,.36.16.36.35,0,.18-.07.35-.19.48l-.65.72c-.27.29-.41.67-.41,1.07v.25s0,.35,0,.35h1.35v-.35s0-.25,0-.25c0-.06.02-.12.07-.17l.65-.72c.34-.38.53-.87.53-1.39,0-.94-.77-1.71-1.72-1.71h0Z"/>
    </g>
  </g>
</svg>