<?xml version="1.0" encoding="UTF-8"?>
<svg id="Layer_1" xmlns="http://www.w3.org/2000/svg" version="1.1" viewBox="0 0 39 39">
  <!-- Generator: Adobe Illustrator 30.1.0, SVG Export Plug-In . SVG Version: 2.1.1 Build 136)  -->
  <path d="M19.5,6.84c.41,0,.82.21,1.04.64l2.65,5.26c.45.9,1.3,1.54,2.29,1.73l5.73,1.07c.9.17,1.26,1.26.64,1.93l-4.18,4.58c-.64.71-.94,1.66-.82,2.61l.81,6.18c.1.74-.49,1.32-1.15,1.32-.18,0-.36-.04-.53-.13l-5.01-2.58c-.46-.24-.97-.36-1.48-.36s-1.02.12-1.48.36l-5.01,2.58c-.17.09-.36.13-.53.13-.66,0-1.25-.58-1.15-1.32l.82-6.18c.13-.95-.17-1.9-.82-2.61l-4.18-4.58c-.62-.68-.25-1.76.65-1.93l5.73-1.07c.99-.19,1.84-.82,2.29-1.73l2.65-5.26c.22-.43.63-.64,1.04-.64M19.5,0C16.46,0,13.72,1.69,12.35,4.4l-1.85,3.67-3.98.75c-2.85.53-5.19,2.57-6.11,5.32-.92,2.75-.28,5.79,1.67,7.93l3.05,3.35-.6,4.53c-.3,2.29.4,4.59,1.91,6.32,1.52,1.74,3.72,2.73,6.02,2.73,1.27,0,2.53-.31,3.66-.89l3.36-1.73,3.36,1.73c1.13.58,2.4.89,3.66.89,2.3,0,4.5-1,6.02-2.73,1.52-1.73,2.21-4.03,1.91-6.32l-.6-4.53,3.05-3.35c1.95-2.14,2.59-5.18,1.67-7.93-.92-2.75-3.26-4.79-6.11-5.32l-3.98-.75-1.85-3.67C25.28,1.69,22.54,0,19.5,0h0Z"/>
</svg>