<?xml version="1.0" encoding="UTF-8"?>
<svg id="Layer_1" xmlns="http://www.w3.org/2000/svg" version="1.1" viewBox="0 0 94 94">
  <!-- Generator: Adobe Illustrator 30.1.0, SVG Export Plug-In . SVG Version: 2.1.1 Build 136)  -->
  <g>
    <g>
      <rect x="43.67" y="25" width="6.67" height="6.67"/>
      <path d="M49.6,25.73v5.2h-5.2v-5.2h5.2M51.07,24.27h-8.13v8.13h8.13v-8.13h0Z"/>
    </g>
    <g>
      <polygon points="38.47 68.72 38.47 62.05 43.67 62.05 43.67 47.3 38.47 47.3 38.47 40.63 50.33 40.63 50.33 62.05 55.53 62.05 55.53 68.72 38.47 68.72"/>
      <path d="M49.6,41.37v21.42h5.2v5.2h-15.59v-5.2h5.2v-16.22h-5.2v-5.2h10.39M51.07,39.9h-13.33v8.13h5.2v13.29h-5.2v8.13h18.53v-8.13h-5.2v-21.42h0Z"/>
    </g>
  </g>
  <circle id="Outer" cx="47" cy="47" r="42.08" fill="none" stroke="#000" stroke-width="9.84"/>
</svg>