<?xml version="1.0" encoding="UTF-8"?>
<svg id="Layer_1" xmlns="http://www.w3.org/2000/svg" version="1.1" viewBox="0 0 46 46">
  <!-- Generator: Adobe Illustrator 30.1.0, SVG Export Plug-In . SVG Version: 2.1.1 Build 136)  -->
  <path d="M23,6.44c.54,0,1.08.28,1.36.84l3.46,6.88c.59,1.18,1.7,2.01,3,2.26l7.5,1.4c1.17.22,1.65,1.64.84,2.53l-5.46,5.99c-.84.92-1.23,2.18-1.07,3.42l1.07,8.08c.13.96-.64,1.73-1.51,1.73-.23,0-.47-.05-.7-.17l-6.56-3.38c-.61-.31-1.27-.47-1.94-.47-.66,0-1.33.16-1.94.47l-6.56,3.38c-.23.12-.47.17-.7.17-.87,0-1.63-.76-1.51-1.73l1.07-8.08c.16-1.24-.23-2.49-1.07-3.41l-5.46-5.99c-.8-.88-.33-2.31.84-2.53l7.49-1.4c1.3-.24,2.4-1.08,3-2.26l3.47-6.88c.28-.56.82-.84,1.36-.84M23,0c-3.02,0-5.75,1.68-7.11,4.38l-2.97,5.9-6.42,1.2c-2.84.53-5.17,2.56-6.08,5.3-.92,2.74-.28,5.76,1.67,7.9l4.77,5.24-.93,7.07c-.3,2.28.39,4.57,1.9,6.29,1.52,1.73,3.7,2.72,5.99,2.72,1.26,0,2.52-.31,3.64-.89l5.54-2.86,5.54,2.86c1.13.58,2.39.89,3.64.89,2.29,0,4.47-.99,5.99-2.72,1.51-1.72,2.2-4.01,1.9-6.29l-.93-7.07,4.77-5.24c1.94-2.13,2.58-5.16,1.67-7.9-.92-2.74-3.25-4.77-6.08-5.3l-6.42-1.2-2.97-5.9c-1.36-2.7-4.09-4.38-7.11-4.38h0Z"/>
</svg>