<?xml version="1.0" encoding="UTF-8"?>
<svg id="Layer_1" xmlns="http://www.w3.org/2000/svg" version="1.1" viewBox="0 0 46 46">
  <!-- Generator: Adobe Illustrator 30.1.0, SVG Export Plug-In . SVG Version: 2.1.1 Build 136)  -->
  <path d="M23,8.06c.49,0,.97.25,1.22.76l3.12,6.2c.54,1.06,1.54,1.82,2.71,2.04l6.76,1.27c1.06.2,1.49,1.48.76,2.28l-4.93,5.4c-.76.83-1.11,1.96-.97,3.08l.96,7.29c.11.87-.58,1.56-1.36,1.56-.21,0-.42-.05-.63-.15l-5.91-3.05c-.55-.28-1.15-.42-1.75-.42-.6,0-1.2.14-1.75.42l-5.91,3.05c-.21.11-.42.15-.63.15-.78,0-1.47-.69-1.36-1.56l.96-7.29c.15-1.12-.21-2.24-.96-3.08l-4.93-5.4c-.73-.8-.3-2.08.76-2.28l6.76-1.27c1.17-.22,2.17-.97,2.7-2.04l3.13-6.2c.25-.5.74-.76,1.22-.76M23,0C19.41,0,16.19,1.99,14.57,5.19l-2.18,4.33-4.69.88c-3.36.63-6.12,3.04-7.21,6.28-1.09,3.24-.33,6.83,1.97,9.36l3.6,3.95-.7,5.34c-.36,2.7.47,5.41,2.26,7.45,1.8,2.05,4.38,3.22,7.1,3.22,1.49,0,2.99-.36,4.32-1.05l3.97-2.04,3.97,2.04c1.33.69,2.83,1.05,4.32,1.05,2.72,0,5.3-1.17,7.1-3.22,1.79-2.04,2.61-4.76,2.26-7.45l-.7-5.34,3.6-3.95c2.3-2.53,3.06-6.11,1.97-9.36-1.09-3.24-3.85-5.65-7.21-6.28l-4.69-.88-2.18-4.33C29.81,1.99,26.58,0,23,0h0Z"/>
</svg>