<?xml version="1.0" encoding="UTF-8"?>
<svg id="Layer_1" xmlns="http://www.w3.org/2000/svg" version="1.1" viewBox="0 0 125 125">
  <!-- Generator: Adobe Illustrator 30.1.0, SVG Export Plug-In . SVG Version: 2.1.1 Build 136)  -->
  <circle id="Outer" cx="62.5" cy="62.5" r="51.54" fill="none" stroke="#000" stroke-width="21.91"/>
  <g>
    <g>
      <rect x="58.51" y="78.94" width="7.92" height="7.92"/>
      <path d="M64.67,80.7v4.4h-4.4v-4.4h4.4M68.19,77.18h-11.43v11.43h11.43v-11.43h0Z"/>
    </g>
    <g>
      <path d="M58.53,71.22l-.03-3.41c0-2.54.94-4.95,2.64-6.82l4.36-4.83c.9-1,1.4-2.29,1.4-3.63,0-1.63-1.34-2.96-3-2.96h-2.8c-1.65,0-2.99,1.33-2.99,2.96v1.76h-7.96v-1.76c0-6,4.91-10.89,10.95-10.89h2.8c6.04,0,10.95,4.88,10.95,10.89,0,3.3-1.22,6.47-3.44,8.93l-4.36,4.83c-.4.44-.6.95-.6,1.51l-.03,3.42h-7.89Z"/>
      <path d="M63.9,43.4c5.07,0,9.19,4.1,9.19,9.13,0,2.86-1.06,5.62-2.99,7.75l-4.36,4.83c-.68.75-1.05,1.68-1.05,2.68l-.02,1.67h-4.4v-1.67c0-2.09.76-4.08,2.17-5.63l4.36-4.83c1.19-1.32,1.85-3.03,1.85-4.8,0-2.6-2.13-4.72-4.75-4.72h-2.8c-2.62,0-4.75,2.12-4.75,4.72h-4.44c0-5.03,4.12-9.13,9.19-9.13h2.8M63.9,39.89h-2.8c-7.01,0-12.71,5.67-12.71,12.65v3.52h11.47v-3.52c0-.66.55-1.2,1.24-1.2h2.8c.68,0,1.24.54,1.24,1.2,0,.9-.34,1.77-.95,2.45l-4.36,4.83c-1.98,2.19-3.08,5.02-3.09,7.97v1.71s.05,3.48.05,3.48h11.37l.04-3.48.02-1.67c0-.12.02-.22.15-.36l4.36-4.84c2.51-2.78,3.89-6.37,3.89-10.1,0-6.97-5.7-12.65-12.71-12.65h0Z"/>
    </g>
  </g>
</svg>