<?xml version="1.0" encoding="UTF-8"?>
<svg id="Layer_1" xmlns="http://www.w3.org/2000/svg" version="1.1" viewBox="0 0 125 125">
  <!-- Generator: Adobe Illustrator 30.1.0, SVG Export Plug-In . SVG Version: 2.1.1 Build 136)  -->
  <circle id="Outer" cx="62.5" cy="62.5" r="53.75" fill="none" stroke="#000" stroke-width="17.5"/>
  <g>
    <g>
      <rect x="58.54" y="80.63" width="7.85" height="7.85"/>
      <path d="M65.03,82v5.12h-5.12v-5.12h5.12M67.76,79.26h-10.59v10.59h10.59v-10.59h0Z"/>
    </g>
    <g>
      <path d="M58.56,72.45l-.03-3.29c0-2.78,1.04-5.42,2.89-7.47l5.07-5.62c1.16-1.29,1.8-2.94,1.8-4.67,0-2.27-1.87-4.12-4.16-4.12h-3.26c-2.29,0-4.16,1.85-4.16,4.12v1.37h-7.9v-1.37c0-6.61,5.41-11.98,12.06-11.98h3.26c6.65,0,12.06,5.37,12.06,11.98,0,3.67-1.36,7.19-3.82,9.92l-5.07,5.62c-.57.63-.87,1.39-.87,2.21l-.04,3.3h-7.83Z"/>
      <path d="M64.13,40.79c5.89,0,10.69,4.76,10.69,10.61,0,3.33-1.23,6.53-3.47,9.01l-5.07,5.62c-.79.87-1.22,1.95-1.22,3.12l-.02,1.94h-5.12l-.02-1.94c0-2.43.9-4.74,2.54-6.54l5.07-5.62c1.39-1.54,2.15-3.52,2.15-5.58,0-3.02-2.48-5.49-5.52-5.49h-3.26c-3.05,0-5.52,2.46-5.52,5.49h-5.16c0-5.85,4.79-10.61,10.69-10.61h3.26M64.13,38.06h-3.26c-7.4,0-13.42,5.99-13.42,13.35v2.73h10.63v-2.73c0-1.52,1.25-2.75,2.79-2.75h3.26c1.54,0,2.79,1.23,2.79,2.75,0,1.39-.51,2.72-1.45,3.75l-5.07,5.62c-2.08,2.3-3.23,5.27-3.24,8.37l.02,1.97.02,2.71h10.54l.03-2.71.02-1.94c0-.5.18-.93.52-1.31l5.07-5.62c2.69-2.98,4.18-6.83,4.18-10.84,0-7.36-6.02-13.35-13.42-13.35h0Z"/>
    </g>
  </g>
</svg>