<?xml version="1.0" encoding="UTF-8"?>
<svg id="Layer_1" xmlns="http://www.w3.org/2000/svg" version="1.1" viewBox="0 0 127 127">
  <!-- Generator: Adobe Illustrator 30.1.0, SVG Export Plug-In . SVG Version: 2.1.1 Build 136)  -->
  <circle id="Outer" cx="63.5" cy="63.5" r="52.37" fill="none" stroke="#000" stroke-width="22.26"/>
  <g>
    <g>
      <rect x="59.44" y="80.2" width="8.05" height="8.05"/>
      <path d="M65.7,81.99v4.47h-4.47v-4.47h4.47M69.28,78.42h-11.62v11.62h11.62v-11.62h0Z"/>
    </g>
    <g>
      <path d="M59.47,72.36l-.03-3.46c0-2.58.96-5.03,2.68-6.93l4.43-4.91c.92-1.01,1.42-2.32,1.42-3.68,0-1.66-1.37-3.01-3.04-3.01h-2.85c-1.68,0-3.04,1.35-3.04,3.01v1.79h-8.09v-1.79c0-6.1,4.99-11.06,11.13-11.06h2.85c6.14,0,11.13,4.96,11.13,11.06,0,3.35-1.24,6.57-3.5,9.07l-4.43,4.91c-.4.45-.61.96-.61,1.54l-.03,3.47h-8.01Z"/>
      <path d="M64.92,44.1c5.15,0,9.34,4.16,9.34,9.28,0,2.91-1.08,5.71-3.03,7.87l-4.43,4.91c-.69.76-1.07,1.7-1.07,2.72l-.02,1.69h-4.47v-1.69c0-2.12.77-4.14,2.2-5.72l4.43-4.91c1.21-1.34,1.88-3.08,1.88-4.88,0-2.64-2.17-4.79-4.83-4.79h-2.85c-2.66,0-4.83,2.15-4.83,4.79h-4.51c0-5.11,4.19-9.28,9.34-9.28h2.85M64.92,40.53h-2.85c-7.12,0-12.91,5.76-12.91,12.85v3.57h11.66v-3.57c0-.67.56-1.22,1.26-1.22h2.85c.69,0,1.26.55,1.26,1.22,0,.92-.34,1.8-.96,2.49l-4.43,4.91c-2.01,2.22-3.13,5.1-3.14,8.1l.02,1.74.03,3.54h11.55l.04-3.54.02-1.69c0-.12.02-.22.15-.37l4.43-4.91c2.55-2.82,3.95-6.47,3.95-10.26,0-7.08-5.79-12.85-12.91-12.85h0Z"/>
    </g>
  </g>
</svg>