<?xml version="1.0" encoding="UTF-8"?>
<svg id="Layer_1" xmlns="http://www.w3.org/2000/svg" version="1.1" viewBox="0 0 59 59">
  <!-- Generator: Adobe Illustrator 30.1.0, SVG Export Plug-In . SVG Version: 2.1.1 Build 136)  -->
  <g>
    <g>
      <rect x="27.34" y="17.19" width="4.32" height="4.32"/>
      <path d="M30.83,18.02v2.66h-2.66v-2.66h2.66M32.49,16.36h-5.98v5.98h5.98v-5.98h0Z"/>
    </g>
    <g>
      <polygon points="24.68 41.31 24.68 36.99 27.34 36.99 27.34 30.35 24.68 30.35 24.68 26.04 31.66 26.04 31.66 36.99 34.32 36.99 34.32 41.31 24.68 41.31"/>
      <path d="M30.83,26.87v10.96h2.66v2.66h-7.97v-2.66h2.66v-8.3h-2.66v-2.66h5.32M32.49,25.21h-8.64v5.98h2.66v4.98h-2.66v5.98h11.29v-5.98h-2.66v-10.96h0Z"/>
    </g>
  </g>
  <circle id="Outer" cx="29.5" cy="29.5" r="24.33" fill="none" stroke="#000" stroke-width="10.34"/>
</svg>