<?xml version="1.0" encoding="UTF-8"?>
<svg id="Layer_1" xmlns="http://www.w3.org/2000/svg" version="1.1" viewBox="0 0 59 59">
  <!-- Generator: Adobe Illustrator 30.1.0, SVG Export Plug-In . SVG Version: 2.1.1 Build 136)  -->
  <g>
    <g>
      <rect x="27.38" y="16.44" width="4.25" height="4.25"/>
      <path d="M30.98,17.09v2.96h-2.96v-2.96h2.96M32.27,15.8h-5.54v5.54h5.54v-5.54h0Z"/>
    </g>
    <g>
      <polygon points="24.42 42.21 24.42 37.97 27.38 37.97 27.38 30.02 24.42 30.02 24.42 25.78 31.62 25.78 31.62 37.97 34.58 37.97 34.58 42.21 24.42 42.21"/>
      <path d="M30.98,26.42v12.19h2.96v2.96h-8.87v-2.96h2.96v-9.23h-2.96v-2.96h5.91M32.27,25.13h-8.5v5.54h2.96v6.65h-2.96v5.54h11.45v-5.54h-2.96v-12.19h0Z"/>
    </g>
  </g>
  <circle id="Outer" cx="29.5" cy="29.5" r="25.37" fill="none" stroke="#000" stroke-width="8.26"/>
</svg>