<?xml version="1.0" encoding="UTF-8"?>
<svg id="Layer_1" xmlns="http://www.w3.org/2000/svg" version="1.1" viewBox="0 0 27 27">
  <!-- Generator: Adobe Illustrator 30.1.0, SVG Export Plug-In . SVG Version: 2.1.1 Build 136)  -->
  <g>
    <g>
      <rect x="12.54" y="7.18" width="1.91" height="1.91"/>
      <path d="M14.25,7.39v1.49h-1.49v-1.49h1.49M14.67,6.97h-2.34v2.34h2.34v-2.34h0Z"/>
    </g>
    <g>
      <polygon points="11.05 19.74 11.05 17.82 12.54 17.82 12.54 13.59 11.05 13.59 11.05 11.67 14.46 11.67 14.46 17.82 15.95 17.82 15.95 19.74 11.05 19.74"/>
      <path d="M14.25,11.88v6.15h1.49v1.49h-4.48v-1.49h1.49v-4.66h-1.49v-1.49h2.99M14.67,11.46h-3.83v2.34h1.49v3.82h-1.49v2.34h5.32v-2.34h-1.49v-6.15h0Z"/>
    </g>
  </g>
  <circle id="Outer" cx="13.5" cy="13.5" r="12.09" fill="none" stroke="#000" stroke-width="2.83"/>
</svg>