<?xml version="1.0" encoding="UTF-8"?>
<svg id="Layer_1" xmlns="http://www.w3.org/2000/svg" version="1.1" viewBox="0 0 27 27">
  <!-- Generator: Adobe Illustrator 30.1.0, SVG Export Plug-In . SVG Version: 2.1.1 Build 136)  -->
  <g>
    <g>
      <rect x="12.53" y="7.52" width="1.94" height="1.94"/>
      <path d="M14.18,7.82v1.35h-1.35v-1.35h1.35M14.77,7.23h-2.53v2.53h2.53v-2.53h0Z"/>
    </g>
    <g>
      <polygon points="11.17 19.32 11.17 17.38 12.53 17.38 12.53 13.74 11.17 13.74 11.17 11.8 14.47 11.8 14.47 17.38 15.83 17.38 15.83 19.32 11.17 19.32"/>
      <path d="M14.18,12.09v5.58h1.35v1.35h-4.06v-1.35h1.35v-4.23h-1.35v-1.35h2.71M14.77,11.5h-3.89v2.53h1.35v3.04h-1.35v2.53h5.24v-2.53h-1.35v-5.58h0Z"/>
    </g>
  </g>
  <circle id="Outer" cx="13.5" cy="13.5" r="11.61" fill="none" stroke="#000" stroke-width="3.78"/>
</svg>