<?xml version="1.0" encoding="UTF-8"?>
<svg id="Layer_1" xmlns="http://www.w3.org/2000/svg" version="1.1" viewBox="0 0 51 51">
  <!-- Generator: Adobe Illustrator 30.1.0, SVG Export Plug-In . SVG Version: 2.1.1 Build 136)  -->
  <g>
    <g>
      <rect x="23.66" y="14.21" width="3.67" height="3.67"/>
      <path d="M26.78,14.77v2.56h-2.56v-2.56h2.56M27.89,13.65h-4.79v4.79h4.79v-4.79h0Z"/>
    </g>
    <g>
      <polygon points="21.11 36.49 21.11 32.82 23.66 32.82 23.66 25.95 21.11 25.95 21.11 22.28 27.34 22.28 27.34 32.82 29.89 32.82 29.89 36.49 21.11 36.49"/>
      <path d="M26.78,22.84v10.54h2.56v2.56h-7.67v-2.56h2.56v-7.98h-2.56v-2.56h5.11M27.89,21.72h-7.34v4.79h2.56v5.75h-2.56v4.79h9.9v-4.79h-2.56v-10.54h0Z"/>
    </g>
  </g>
  <circle id="Outer" cx="25.5" cy="25.5" r="21.93" fill="none" stroke="#000" stroke-width="7.14"/>
</svg>