<?xml version="1.0" encoding="UTF-8"?>
<svg id="Layer_1" xmlns="http://www.w3.org/2000/svg" version="1.1" viewBox="0 0 87 87">
  <!-- Generator: Adobe Illustrator 30.1.0, SVG Export Plug-In . SVG Version: 2.1.1 Build 136)  -->
  <path d="M43.5,12.18c1.02,0,2.04.53,2.57,1.58l6.55,13.01c1.12,2.23,3.22,3.81,5.67,4.27l14.18,2.66c2.22.42,3.12,3.11,1.59,4.78l-10.33,11.33c-1.59,1.75-2.33,4.11-2.03,6.46l2.02,15.28c.24,1.82-1.21,3.27-2.85,3.27-.43,0-.88-.1-1.31-.32l-12.4-6.39c-1.15-.59-2.41-.89-3.66-.89s-2.51.3-3.66.89l-12.4,6.39c-.43.22-.88.32-1.31.32-1.64,0-3.09-1.44-2.85-3.27l2.02-15.29c.31-2.35-.43-4.71-2.02-6.45l-10.33-11.33c-1.52-1.67-.62-4.37,1.6-4.78l14.17-2.66c2.45-.46,4.55-2.04,5.67-4.27l6.55-13.01c.53-1.06,1.55-1.58,2.57-1.58M43.5,0C37.78,0,32.63,3.17,30.05,8.28l-5.63,11.17-12.14,2.28c-5.36,1.01-9.77,4.84-11.5,10.02-1.73,5.18-.53,10.9,3.15,14.94l9.03,9.9-1.76,13.37c-.57,4.3.74,8.64,3.6,11.9,2.87,3.27,7,5.14,11.33,5.14,2.38,0,4.76-.58,6.89-1.68l10.48-5.4,10.48,5.4c2.13,1.1,4.51,1.68,6.89,1.68,4.33,0,8.46-1.88,11.33-5.14,2.85-3.26,4.17-7.59,3.6-11.9l-1.76-13.37,9.03-9.91c3.68-4.03,4.88-9.76,3.15-14.93-1.73-5.17-6.14-9.01-11.5-10.02l-12.14-2.28-5.63-11.17C54.37,3.17,49.22,0,43.5,0h0Z"/>
</svg>