<?xml version="1.0" encoding="UTF-8"?>
<svg id="Layer_1" xmlns="http://www.w3.org/2000/svg" version="1.1" viewBox="0 0 87 87">
  <!-- Generator: Adobe Illustrator 30.1.0, SVG Export Plug-In . SVG Version: 2.1.1 Build 136)  -->
  <path d="M43.5,9.11c1.12,0,2.24.58,2.82,1.74l7.2,14.28c1.23,2.45,3.54,4.18,6.23,4.69l15.57,2.92c2.43.46,3.42,3.41,1.75,5.25l-11.34,12.45c-1.75,1.92-2.56,4.52-2.22,7.1l2.21,16.78c.26,2-1.33,3.59-3.13,3.59-.48,0-.97-.11-1.44-.36l-13.62-7.01c-1.26-.65-2.64-.98-4.02-.98s-2.76.33-4.02.98l-13.62,7.01c-.48.24-.97.36-1.44.36-1.8,0-3.4-1.59-3.13-3.59l2.21-16.79c.34-2.58-.47-5.17-2.22-7.09l-11.34-12.45c-1.67-1.83-.68-4.79,1.75-5.25l15.56-2.92c2.69-.5,4.99-2.24,6.23-4.69l7.2-14.28c.58-1.16,1.7-1.74,2.82-1.74M43.5,0C38.84,0,34.64,2.59,32.54,6.75l-7.13,14.15-15.41,2.89c-4.37.82-7.96,3.95-9.37,8.16-1.41,4.22-.43,8.88,2.57,12.17l11.25,12.34-2.2,16.65c-.46,3.51.6,7.04,2.93,9.69,2.34,2.67,5.7,4.2,9.23,4.2,1.94,0,3.88-.47,5.61-1.37l13.47-6.94,13.47,6.94c1.74.89,3.68,1.37,5.61,1.37,3.53,0,6.89-1.53,9.23-4.2,2.32-2.65,3.39-6.18,2.93-9.69l-2.2-16.65,11.25-12.35c3-3.29,3.98-7.95,2.57-12.17-1.41-4.22-5-7.34-9.37-8.16l-15.41-2.89-7.13-14.15C52.36,2.59,48.16,0,43.5,0h0Z"/>
</svg>