<?xml version="1.0" encoding="UTF-8"?>
<svg id="Layer_1" xmlns="http://www.w3.org/2000/svg" version="1.1" viewBox="0 0 87 87">
  <!-- Generator: Adobe Illustrator 30.1.0, SVG Export Plug-In . SVG Version: 2.1.1 Build 136)  -->
  <path d="M43.5,15.25c.92,0,1.84.48,2.32,1.43l5.91,11.73c1.01,2.01,2.91,3.44,5.12,3.85l12.78,2.4c2,.37,2.81,2.8,1.44,4.31l-9.32,10.22c-1.44,1.58-2.11,3.71-1.83,5.83l1.82,13.78c.22,1.64-1.09,2.95-2.57,2.95-.39,0-.8-.09-1.19-.29l-11.18-5.76c-1.04-.53-2.17-.8-3.3-.8-1.13,0-2.27.27-3.3.8l-11.18,5.76c-.39.2-.79.29-1.19.29-1.48,0-2.79-1.3-2.57-2.95l1.82-13.79c.28-2.12-.39-4.25-1.82-5.82l-9.32-10.22c-1.37-1.51-.56-3.94,1.44-4.31l12.78-2.4c2.21-.41,4.1-1.84,5.11-3.85l5.91-11.73c.48-.95,1.4-1.43,2.32-1.43M43.5,0C36.72,0,30.61,3.76,27.56,9.82l-4.12,8.19-8.87,1.66c-6.36,1.19-11.58,5.74-13.64,11.88-2.06,6.14-.63,12.92,3.73,17.7l6.81,7.47-1.33,10.09c-.67,5.1.88,10.24,4.27,14.1,3.4,3.87,8.29,6.09,13.43,6.09,2.82,0,5.65-.69,8.17-1.98l7.5-3.86,7.5,3.86c2.52,1.3,5.35,1.99,8.17,1.99,5.14,0,10.03-2.22,13.43-6.09,3.38-3.86,4.94-9,4.27-14.1l-1.33-10.09,6.81-7.47c4.36-4.78,5.79-11.56,3.73-17.7-2.05-6.13-7.28-10.68-13.63-11.87l-8.88-1.66-4.12-8.19C56.39,3.76,50.28,0,43.5,0h0Z"/>
</svg>