<?xml version="1.0" encoding="UTF-8"?>
<svg id="Layer_1" xmlns="http://www.w3.org/2000/svg" version="1.1" viewBox="0 0 28 28">
  <!-- Generator: Adobe Illustrator 30.1.0, SVG Export Plug-In . SVG Version: 2.1.1 Build 136)  -->
  <g>
    <g>
      <rect x="13.01" y="7.45" width="1.99" height="1.99"/>
      <path d="M14.77,7.67v1.55h-1.55v-1.55h1.55M15.21,7.23h-2.42v2.42h2.42v-2.42h0Z"/>
    </g>
    <g>
      <polygon points="11.46 20.47 11.46 18.48 13.01 18.48 13.01 14.09 11.46 14.09 11.46 12.1 14.99 12.1 14.99 18.48 16.54 18.48 16.54 20.47 11.46 20.47"/>
      <path d="M14.77,12.32v6.38h1.55v1.55h-4.64v-1.55h1.55v-4.83h-1.55v-1.55h3.1M15.21,11.88h-3.97v2.42h1.55v3.96h-1.55v2.42h5.52v-2.42h-1.55v-6.38h0Z"/>
    </g>
  </g>
  <circle id="Outer" cx="14" cy="14" r="12.53" fill="none" stroke="#000" stroke-width="2.93"/>
</svg>