<?xml version="1.0" encoding="UTF-8"?>
<svg id="Layer_1" xmlns="http://www.w3.org/2000/svg" version="1.1" viewBox="0 0 94 94">
  <!-- Generator: Adobe Illustrator 30.1.0, SVG Export Plug-In . SVG Version: 2.1.1 Build 136)  -->
  <path d="M47,9.84c1.21,0,2.42.63,3.05,1.88l7.77,15.43c1.33,2.65,3.82,4.52,6.73,5.07l16.82,3.15c2.63.49,3.7,3.69,1.89,5.67l-12.25,13.45c-1.89,2.07-2.77,4.88-2.4,7.67l2.39,18.13c.29,2.16-1.44,3.88-3.38,3.88-.52,0-1.05-.12-1.56-.38l-14.71-7.58c-1.36-.7-2.85-1.05-4.35-1.05-1.49,0-2.98.35-4.35,1.05l-14.71,7.58c-.51.26-1.04.38-1.56.38-1.94,0-3.67-1.71-3.38-3.88l2.39-18.14c.37-2.78-.51-5.58-2.4-7.66l-12.25-13.45c-1.81-1.98-.74-5.18,1.89-5.67l16.82-3.15c2.91-.54,5.4-2.42,6.73-5.06l7.78-15.43c.63-1.25,1.84-1.88,3.05-1.88M47,0C41.96,0,37.43,2.79,35.16,7.29l-7.7,15.29-16.64,3.12c-4.72.88-8.6,4.26-10.13,8.82-1.53,4.56-.46,9.6,2.77,13.15l12.15,13.34-2.37,17.99c-.5,3.79.65,7.61,3.16,10.47,2.53,2.88,6.16,4.53,9.97,4.53,2.09,0,4.19-.51,6.07-1.48l14.55-7.49,14.55,7.49c1.88.97,3.97,1.48,6.07,1.48,3.81,0,7.45-1.65,9.97-4.53,2.51-2.86,3.66-6.68,3.16-10.47l-2.37-17.99,12.16-13.34c3.24-3.55,4.3-8.59,2.77-13.15-1.53-4.56-5.41-7.93-10.13-8.82l-16.65-3.12-7.7-15.29C56.57,2.79,52.03,0,47,0h0Z"/>
</svg>