<?xml version="1.0" encoding="UTF-8"?>
<svg id="Layer_1" xmlns="http://www.w3.org/2000/svg" version="1.1" viewBox="0 0 94 94">
  <!-- Generator: Adobe Illustrator 30.1.0, SVG Export Plug-In . SVG Version: 2.1.1 Build 136)  -->
  <path d="M47,13.16c1.1,0,2.2.57,2.78,1.71l7.08,14.05c1.21,2.41,3.48,4.12,6.13,4.61l15.32,2.87c2.39.45,3.37,3.36,1.72,5.16l-11.16,12.25c-1.72,1.89-2.52,4.44-2.19,6.98l2.18,16.51c.26,1.97-1.31,3.53-3.08,3.53-.47,0-.95-.11-1.42-.35l-13.4-6.9c-1.24-.64-2.6-.96-3.96-.96s-2.72.32-3.96.96l-13.4,6.9c-.47.24-.95.35-1.42.35-1.77,0-3.34-1.56-3.08-3.53l2.18-16.52c.33-2.53-.47-5.09-2.19-6.97l-11.16-12.25c-1.64-1.8-.67-4.72,1.72-5.17l15.31-2.87c2.65-.5,4.91-2.2,6.13-4.61l7.08-14.06c.57-1.14,1.68-1.71,2.78-1.71M47,0c-6.18,0-11.75,3.43-14.53,8.95l-6.08,12.06-13.12,2.46c-5.79,1.09-10.56,5.23-12.43,10.83-1.87,5.59-.57,11.78,3.4,16.14l9.75,10.7-1.91,14.45c-.61,4.65.8,9.33,3.89,12.85,3.1,3.53,7.56,5.56,12.24,5.56,2.57,0,5.15-.63,7.45-1.81l11.33-5.83,11.33,5.83c2.3,1.18,4.88,1.81,7.45,1.81,4.68,0,9.14-2.03,12.24-5.56,3.08-3.52,4.5-8.2,3.89-12.85l-1.91-14.45,9.76-10.7c3.97-4.36,5.28-10.54,3.4-16.14-1.87-5.59-6.64-9.74-12.43-10.82l-13.12-2.46-6.08-12.06C58.75,3.43,53.18,0,47,0h0Z"/>
</svg>