<?xml version="1.0" encoding="UTF-8"?>
<svg id="Layer_1" xmlns="http://www.w3.org/2000/svg" version="1.1" viewBox="0 0 44 44">
  <!-- Generator: Adobe Illustrator 30.1.0, SVG Export Plug-In . SVG Version: 2.1.1 Build 136)  -->
  <circle id="Outer" cx="22" cy="22" r="18.92" fill="none" stroke="#000" stroke-width="6.16"/>
  <g>
    <g>
      <rect x="20.61" y="28.38" width="2.76" height="2.77"/>
      <path d="M22.89,28.86v1.8h-1.8v-1.8h1.8M23.85,27.9h-3.73v3.73h3.73v-3.73h0Z"/>
    </g>
    <g>
      <path d="M20.61,25.5v-1.16c0-.98.35-1.91,1.01-2.63l1.78-1.98c.41-.45.63-1.04.63-1.64,0-.8-.66-1.45-1.46-1.45h-1.15c-.81,0-1.46.65-1.46,1.45v.48h-2.78v-.48c0-2.33,1.9-4.22,4.24-4.22h1.15c2.34,0,4.24,1.89,4.24,4.22,0,1.29-.48,2.53-1.35,3.49l-1.79,1.98c-.2.22-.31.49-.31.78v1.16h-2.77Z"/>
      <path d="M22.57,14.36c2.07,0,3.76,1.68,3.76,3.74,0,1.17-.43,2.3-1.22,3.17l-1.78,1.98c-.28.31-.43.69-.43,1.1v.68h-1.81v-.68c0-.85.31-1.67.89-2.3l1.78-1.98c.49-.54.76-1.24.76-1.97,0-1.06-.87-1.93-1.94-1.93h-1.15c-1.07,0-1.94.87-1.94,1.93h-1.82c0-2.06,1.69-3.74,3.76-3.74h1.15M22.57,13.4h-1.15c-2.61,0-4.73,2.11-4.73,4.7v.96h3.74v-.96c0-.53.44-.97.98-.97h1.15c.54,0,.98.43.98.97,0,.49-.18.96-.51,1.32l-1.78,1.98c-.73.81-1.14,1.85-1.14,2.94v.69s.01.95.01.95h3.71v-.95s.02-.68.02-.68c0-.18.06-.33.18-.46l1.79-1.98c.95-1.05,1.47-2.4,1.47-3.82,0-2.59-2.12-4.7-4.73-4.7h0Z"/>
    </g>
  </g>
</svg>