<?xml version="1.0" encoding="UTF-8"?>
<svg id="Layer_1" xmlns="http://www.w3.org/2000/svg" version="1.1" viewBox="0 0 44 44">
  <!-- Generator: Adobe Illustrator 30.1.0, SVG Export Plug-In . SVG Version: 2.1.1 Build 136)  -->
  <circle id="Outer" cx="22" cy="22" r="19.7" fill="none" stroke="#000" stroke-width="4.61"/>
  <g>
    <g>
      <rect x="20.61" y="28.97" width="2.75" height="2.75"/>
      <path d="M23.02,29.31v2.07h-2.07v-2.07h2.07M23.71,28.63h-3.44v3.44h3.44v-3.44h0Z"/>
    </g>
    <g>
      <path d="M20.61,25.98v-1.12c0-1.07.39-2.09,1.1-2.87l2.05-2.27c.5-.56.78-1.28.78-2.02,0-1.03-.85-1.87-1.89-1.87h-1.31c-1.04,0-1.89.84-1.89,1.87v.34h-2.77v-.34c0-2.55,2.09-4.63,4.66-4.63h1.31c2.57,0,4.66,2.08,4.66,4.63,0,1.43-.53,2.8-1.49,3.87l-2.05,2.27c-.26.29-.4.65-.41,1.03v1.12h-2.76Z"/>
      <path d="M22.66,13.4c2.38,0,4.31,1.92,4.31,4.28,0,1.34-.5,2.64-1.4,3.64l-2.05,2.27c-.32.35-.49.79-.49,1.26v.78h-2.07v-.78c0-.98.36-1.91,1.02-2.64l2.05-2.27c.56-.62.87-1.42.87-2.25,0-1.22-1-2.21-2.23-2.21h-1.31c-1.23,0-2.23.99-2.23,2.21h-2.08c0-2.36,1.94-4.28,4.31-4.28h1.31M22.66,12.72h-1.31c-2.76,0-5,2.23-5,4.97v.69h3.46v-.69c0-.84.69-1.53,1.54-1.53h1.31c.85,0,1.54.69,1.54,1.53,0,.66-.25,1.3-.69,1.79l-2.05,2.27c-.77.85-1.2,1.95-1.2,3.1v.79s.01.68.01.68h3.43v-.68s.01-.78.01-.78c0-.3.11-.58.32-.8l2.05-2.27c1.02-1.13,1.58-2.58,1.58-4.1,0-2.74-2.24-4.97-5-4.97h0Z"/>
    </g>
  </g>
</svg>