<?xml version="1.0" encoding="UTF-8"?>
<svg id="Layer_1" xmlns="http://www.w3.org/2000/svg" version="1.1" viewBox="0 0 44 44">
  <!-- Generator: Adobe Illustrator 30.1.0, SVG Export Plug-In . SVG Version: 2.1.1 Build 136)  -->
  <circle id="Outer" cx="22" cy="22" r="18.14" fill="none" stroke="#000" stroke-width="7.71"/>
  <g>
    <g>
      <rect x="20.6" y="27.79" width="2.79" height="2.79"/>
      <path d="M22.76,28.41v1.55h-1.55v-1.55h1.55M24,27.17h-4.02v4.02h4.02v-4.02h0Z"/>
    </g>
    <g>
      <path d="M20.6,25.07v-1.2c0-.89.32-1.74.92-2.4l1.54-1.7c.32-.35.49-.8.49-1.28,0-.57-.47-1.04-1.05-1.04h-.99c-.58,0-1.05.47-1.05,1.04v.62h-2.8v-.62c0-2.11,1.73-3.83,3.85-3.83h.99c2.13,0,3.86,1.72,3.86,3.83,0,1.16-.43,2.28-1.21,3.14l-1.54,1.7c-.14.15-.21.34-.21.53v1.2h-2.79Z"/>
      <path d="M22.49,15.28c1.78,0,3.24,1.44,3.24,3.21,0,1.01-.37,1.98-1.05,2.73l-1.54,1.7c-.24.26-.37.59-.37.94v.59h-1.56v-.59c0-.73.27-1.43.76-1.98l1.54-1.7c.42-.47.65-1.07.65-1.69,0-.92-.75-1.66-1.67-1.66h-.99c-.92,0-1.67.75-1.67,1.66h-1.56c0-1.77,1.45-3.21,3.24-3.21h.99M22.49,14.04h-.99c-2.47,0-4.47,2-4.47,4.45v1.24h4.04v-1.24c0-.23.2-.42.44-.42h.99c.24,0,.44.19.44.42,0,.32-.12.62-.33.86l-1.54,1.7c-.7.77-1.08,1.77-1.09,2.81v.6s.02,1.23.02,1.23h4v-1.22s.02-.59.02-.59c0-.04,0-.08.05-.13l1.54-1.7c.88-.98,1.37-2.24,1.37-3.56,0-2.45-2.01-4.45-4.47-4.45h0Z"/>
    </g>
  </g>
</svg>