<?xml version="1.0" encoding="UTF-8"?>
<svg id="Layer_1" xmlns="http://www.w3.org/2000/svg" version="1.1" viewBox="0 0 115 115">
  <!-- Generator: Adobe Illustrator 30.1.0, SVG Export Plug-In . SVG Version: 2.1.1 Build 136)  -->
  <path d="M57.5,12.04c1.48,0,2.96.77,3.73,2.3l9.51,18.88c1.63,3.24,4.68,5.53,8.24,6.2l20.58,3.86c3.22.6,4.52,4.51,2.31,6.94l-14.99,16.45c-2.31,2.54-3.39,5.97-2.94,9.38l2.93,22.18c.35,2.65-1.76,4.74-4.14,4.74-.63,0-1.28-.15-1.91-.47l-18-9.27c-1.67-.86-3.49-1.29-5.32-1.29s-3.65.43-5.32,1.29l-18,9.27c-.63.32-1.28.47-1.91.47-2.38,0-4.49-2.1-4.14-4.74l2.93-22.19c.45-3.4-.63-6.83-2.94-9.37l-14.99-16.45c-2.21-2.42-.9-6.34,2.32-6.94l20.57-3.86c3.56-.67,6.6-2.96,8.23-6.2l9.51-18.88c.77-1.53,2.25-2.3,3.73-2.3M57.5,0C51.34,0,45.79,3.42,43.02,8.92l-9.42,18.7-20.36,3.82c-5.77,1.08-10.52,5.22-12.39,10.79-1.87,5.58-.57,11.74,3.39,16.09l14.87,16.31-2.9,22.01c-.61,4.64.8,9.31,3.87,12.81,3.09,3.52,7.54,5.55,12.2,5.55,2.56,0,5.13-.62,7.42-1.81l17.8-9.17,17.8,9.17c2.3,1.18,4.86,1.81,7.42,1.81,4.67,0,9.11-2.02,12.2-5.55,3.07-3.5,4.48-8.17,3.87-12.81l-2.9-22.01,14.87-16.32c3.96-4.35,5.26-10.51,3.39-16.09-1.87-5.57-6.61-9.71-12.39-10.79l-20.37-3.82-9.42-18.7C69.21,3.42,63.66,0,57.5,0h0Z"/>
</svg>