<?xml version="1.0" encoding="UTF-8"?>
<svg id="Layer_1" xmlns="http://www.w3.org/2000/svg" version="1.1" viewBox="0 0 115 115">
  <!-- Generator: Adobe Illustrator 30.1.0, SVG Export Plug-In . SVG Version: 2.1.1 Build 136)  -->
  <path d="M57.5,16.1c1.35,0,2.69.7,3.4,2.09l8.66,17.19c1.49,2.95,4.26,5.04,7.5,5.64l18.74,3.51c2.93.55,4.12,4.11,2.11,6.32l-13.65,14.98c-2.11,2.31-3.09,5.44-2.68,8.54l2.66,20.2c.32,2.41-1.6,4.32-3.77,4.32-.57,0-1.17-.13-1.74-.43l-16.39-8.44c-1.52-.78-3.18-1.17-4.84-1.17s-3.32.39-4.84,1.17l-16.39,8.44c-.57.29-1.16.43-1.74.43-2.17,0-4.09-1.91-3.77-4.32l2.66-20.21c.41-3.1-.57-6.22-2.67-8.53l-13.65-14.98c-2.01-2.21-.82-5.77,2.11-6.32l18.74-3.51c3.24-.61,6.01-2.69,7.5-5.64l8.66-17.2c.7-1.4,2.05-2.09,3.4-2.09M57.5,0C49.94,0,43.13,4.2,39.72,10.95l-7.44,14.76-16.05,3.01c-7.09,1.33-12.92,6.4-15.21,13.24-2.29,6.84-.7,14.41,4.16,19.74l11.93,13.09-2.33,17.68c-.75,5.69.98,11.42,4.76,15.72,3.79,4.32,9.25,6.8,14.97,6.8,3.15,0,6.3-.77,9.11-2.22l13.86-7.14,13.86,7.14c2.81,1.45,5.96,2.22,9.11,2.22,5.73,0,11.19-2.48,14.97-6.8,3.77-4.3,5.51-10.03,4.76-15.72l-2.33-17.68,11.93-13.1c4.86-5.33,6.46-12.9,4.16-19.74-2.29-6.84-8.12-11.91-15.21-13.24l-16.05-3.01-7.44-14.76C71.87,4.2,65.06,0,57.5,0h0Z"/>
</svg>