<?xml version="1.0" encoding="UTF-8"?>
<svg id="Layer_1" xmlns="http://www.w3.org/2000/svg" version="1.1" viewBox="0 0 93 93">
  <!-- Generator: Adobe Illustrator 30.1.0, SVG Export Plug-In . SVG Version: 2.1.1 Build 136)  -->
  <path d="M46.5,13.02c1.09,0,2.18.56,2.75,1.69l7,13.9c1.2,2.39,3.44,4.07,6.07,4.56l15.15,2.84c2.37.44,3.33,3.32,1.7,5.11l-11.04,12.12c-1.7,1.87-2.5,4.4-2.16,6.91l2.15,16.34c.26,1.95-1.3,3.49-3.05,3.49-.46,0-.94-.11-1.41-.35l-13.25-6.83c-1.23-.63-2.57-.95-3.92-.95-1.34,0-2.69.32-3.92.95l-13.25,6.83c-.46.24-.94.35-1.41.35-1.75,0-3.31-1.54-3.05-3.49l2.16-16.34c.33-2.51-.46-5.03-2.16-6.9l-11.04-12.12c-1.63-1.78-.66-4.67,1.71-5.11l15.15-2.84c2.62-.49,4.86-2.18,6.06-4.56l7.01-13.91c.57-1.13,1.66-1.69,2.75-1.69M46.5,0C40.38,0,34.88,3.39,32.13,8.86l-6.01,11.94-12.98,2.43c-5.73,1.07-10.44,5.18-12.3,10.71-1.85,5.53-.56,11.65,3.37,15.97l9.65,10.59-1.89,14.3c-.61,4.6.8,9.24,3.85,12.72,3.06,3.49,7.48,5.5,12.11,5.5,2.54,0,5.09-.62,7.37-1.79l11.21-5.77,11.21,5.77c2.28,1.17,4.82,1.79,7.37,1.79,4.63,0,9.05-2,12.11-5.5,3.05-3.48,4.45-8.11,3.85-12.72l-1.89-14.29,9.65-10.59c3.93-4.31,5.22-10.43,3.37-15.96-1.85-5.53-6.56-9.64-12.3-10.71l-12.98-2.43-6.01-11.94C58.12,3.39,52.61,0,46.5,0h0Z"/>
</svg>