<?xml version="1.0" encoding="UTF-8"?>
<svg id="Layer_1" xmlns="http://www.w3.org/2000/svg" version="1.1" viewBox="0 0 56 56">
  <!-- Generator: Adobe Illustrator 30.1.0, SVG Export Plug-In . SVG Version: 2.1.1 Build 136)  -->
  <circle id="Outer" cx="28" cy="28" r="24.08" fill="none" stroke="#000" stroke-width="7.84"/>
  <g>
    <g>
      <rect x="26.23" y="36.12" width="3.52" height="3.52"/>
      <path d="M29.13,36.73v2.29h-2.29v-2.29h2.29M30.36,35.51h-4.74v4.74h4.74v-4.74h0Z"/>
    </g>
    <g>
      <path d="M26.23,32.46v-1.47c0-1.24.45-2.43,1.28-3.35l2.27-2.52c.52-.58.81-1.32.81-2.09,0-1.02-.84-1.85-1.86-1.85h-1.46c-1.03,0-1.86.83-1.86,1.85v.61h-3.54v-.61c0-2.96,2.42-5.37,5.4-5.37h1.46c2.98,0,5.4,2.41,5.4,5.37,0,1.64-.61,3.22-1.71,4.45l-2.27,2.52c-.25.28-.39.62-.39.99v1.48h-3.52Z"/>
      <path d="M28.73,18.28c2.64,0,4.79,2.13,4.79,4.76,0,1.49-.55,2.92-1.56,4.03l-2.27,2.52c-.35.39-.55.87-.55,1.4v.87h-2.3v-.87c0-1.09.4-2.12,1.13-2.93l2.27-2.52c.62-.69.96-1.58.96-2.5,0-1.36-1.11-2.46-2.48-2.46h-1.46c-1.36,0-2.48,1.1-2.48,2.46h-2.31c0-2.62,2.15-4.76,4.79-4.76h1.46M28.73,17.05h-1.46c-3.32,0-6.01,2.68-6.01,5.98v1.23h4.76v-1.23c0-.68.56-1.23,1.25-1.23h1.46c.69,0,1.25.55,1.25,1.23,0,.62-.23,1.22-.65,1.68l-2.27,2.52c-.93,1.03-1.45,2.36-1.45,3.75v.88s.02,1.21.02,1.21h4.72v-1.21s.02-.87.02-.87c0-.22.08-.42.23-.59l2.27-2.52c1.21-1.34,1.87-3.06,1.87-4.86,0-3.3-2.7-5.98-6.01-5.98h0Z"/>
    </g>
  </g>
</svg>