<?xml version="1.0" encoding="UTF-8"?>
<svg id="Layer_1" xmlns="http://www.w3.org/2000/svg" version="1.1" viewBox="0 0 79 79">
  <!-- Generator: Adobe Illustrator 30.1.0, SVG Export Plug-In . SVG Version: 2.1.1 Build 136)  -->
  <path d="M39.5,8.27c1.02,0,2.03.53,2.56,1.58l6.53,12.97c1.12,2.23,3.21,3.8,5.66,4.26l14.13,2.65c2.21.41,3.11,3.1,1.59,4.76l-10.3,11.3c-1.59,1.74-2.33,4.1-2.02,6.44l2.01,15.24c.24,1.82-1.21,3.26-2.84,3.26-.43,0-.88-.1-1.31-.32l-12.36-6.37c-1.15-.59-2.4-.89-3.65-.89s-2.51.3-3.65.89l-12.36,6.37c-.43.22-.88.32-1.31.32-1.63,0-3.08-1.44-2.84-3.26l2.01-15.24c.31-2.34-.43-4.69-2.02-6.44l-10.3-11.3c-1.52-1.66-.62-4.35,1.59-4.77l14.13-2.65c2.44-.46,4.53-2.03,5.65-4.26l6.53-12.97c.53-1.05,1.55-1.58,2.56-1.58M39.5,0C35.27,0,31.46,2.35,29.55,6.13l-6.47,12.85-13.99,2.62c-3.97.74-7.23,3.58-8.51,7.41-1.28,3.83-.39,8.07,2.33,11.05l10.21,11.21-1.99,15.12c-.42,3.19.55,6.39,2.66,8.8,2.12,2.42,5.18,3.81,8.38,3.81,1.76,0,3.52-.43,5.1-1.24l12.23-6.3,12.23,6.3c1.58.81,3.34,1.24,5.1,1.24,3.2,0,6.26-1.39,8.38-3.81,2.11-2.41,3.08-5.61,2.66-8.8l-1.99-15.12,10.22-11.21c2.72-2.99,3.61-7.22,2.33-11.05-1.28-3.83-4.54-6.67-8.51-7.41l-13.99-2.62-6.47-12.85C47.54,2.35,43.73,0,39.5,0h0Z"/>
</svg>