<?xml version="1.0" encoding="UTF-8"?>
<svg id="Layer_1" xmlns="http://www.w3.org/2000/svg" version="1.1" viewBox="0 0 106 106">
  <!-- Generator: Adobe Illustrator 30.1.0, SVG Export Plug-In . SVG Version: 2.1.1 Build 136)  -->
  <path d="M53,14.84c1.24,0,2.48.64,3.13,1.93l7.98,15.85c1.37,2.72,3.93,4.64,6.91,5.2l17.27,3.24c2.7.51,3.8,3.79,1.94,5.82l-12.58,13.81c-1.94,2.13-2.84,5.01-2.47,7.87l2.46,18.62c.29,2.22-1.48,3.98-3.47,3.98-.53,0-1.07-.12-1.6-.4l-15.11-7.78c-1.4-.72-2.93-1.08-4.46-1.08-1.53,0-3.06.36-4.46,1.08l-15.11,7.78c-.53.27-1.07.4-1.6.4-2,0-3.77-1.76-3.47-3.98l2.46-18.62c.38-2.86-.53-5.74-2.46-7.86l-12.58-13.81c-1.85-2.03-.76-5.32,1.94-5.83l17.27-3.24c2.99-.56,5.54-2.48,6.91-5.2l7.98-15.85c.65-1.29,1.89-1.93,3.13-1.93M53,0c-6.97,0-13.25,3.87-16.38,10.09l-6.85,13.61-14.79,2.77c-6.53,1.22-11.9,5.9-14.02,12.21-2.11,6.31-.64,13.28,3.84,18.2l11,12.07-2.15,16.29c-.69,5.24.91,10.53,4.38,14.49,3.49,3.98,8.52,6.27,13.8,6.27,2.9,0,5.8-.71,8.4-2.04l12.77-6.58,12.77,6.58c2.59,1.34,5.5,2.04,8.4,2.04,5.28,0,10.31-2.28,13.8-6.27,3.48-3.97,5.08-9.25,4.38-14.49l-2.15-16.29,11-12.07c4.48-4.92,5.95-11.89,3.84-18.2-2.11-6.3-7.48-10.98-14.02-12.21l-14.8-2.77-6.85-13.61C66.25,3.87,59.97,0,53,0h0Z"/>
</svg>