<?xml version="1.0" encoding="UTF-8"?>
<svg id="Layer_1" xmlns="http://www.w3.org/2000/svg" version="1.1" viewBox="0 0 74 74">
  <!-- Generator: Adobe Illustrator 30.1.0, SVG Export Plug-In . SVG Version: 2.1.1 Build 136)  -->
  <path d="M37,10.36c.87,0,1.73.45,2.18,1.35l5.57,11.06c.96,1.9,2.74,3.24,4.83,3.63l12.06,2.26c1.89.35,2.65,2.64,1.36,4.06l-8.78,9.64c-1.36,1.49-1.99,3.5-1.72,5.5l1.71,13c.2,1.55-1.03,2.78-2.43,2.78-.37,0-.75-.09-1.12-.28l-10.55-5.43c-.98-.5-2.05-.76-3.12-.76-1.07,0-2.14.25-3.12.76l-10.55,5.43c-.37.19-.75.28-1.12.28-1.39,0-2.63-1.23-2.43-2.78l1.71-13c.26-1.99-.37-4-1.72-5.49l-8.79-9.64c-1.29-1.42-.53-3.71,1.36-4.07l12.06-2.26c2.08-.39,3.87-1.73,4.82-3.63l5.57-11.06c.45-.9,1.32-1.35,2.18-1.35M37,0C32.13,0,27.75,2.7,25.56,7.05l-4.78,9.5-10.33,1.94c-4.56.85-8.31,4.12-9.79,8.52-1.48,4.4-.45,9.27,2.68,12.7l7.68,8.42-1.5,11.37c-.48,3.66.63,7.35,3.06,10.12,2.44,2.78,5.95,4.38,9.64,4.38,2.02,0,4.05-.49,5.86-1.43l8.92-4.59,8.92,4.59c1.81.93,3.84,1.43,5.86,1.43,3.69,0,7.2-1.59,9.64-4.38,2.43-2.77,3.54-6.46,3.06-10.12l-1.5-11.37,7.68-8.43c3.13-3.43,4.15-8.3,2.68-12.7-1.47-4.4-5.22-7.67-9.78-8.52l-10.33-1.94-4.78-9.5C46.25,2.7,41.86,0,37,0h0Z"/>
</svg>