<?xml version="1.0" encoding="UTF-8"?>
<svg id="Layer_1" xmlns="http://www.w3.org/2000/svg" version="1.1" viewBox="0 0 74 74">
  <!-- Generator: Adobe Illustrator 30.1.0, SVG Export Plug-In . SVG Version: 2.1.1 Build 136)  -->
  <path d="M37,7.75c.95,0,1.9.49,2.4,1.48l6.12,12.15c1.05,2.08,3.01,3.56,5.3,3.99l13.24,2.48c2.07.39,2.91,2.9,1.49,4.46l-9.65,10.59c-1.49,1.63-2.18,3.84-1.89,6.04l1.88,14.27c.22,1.7-1.13,3.05-2.66,3.05-.41,0-.82-.09-1.23-.3l-11.58-5.96c-1.07-.55-2.25-.83-3.42-.83-1.17,0-2.35.28-3.42.83l-11.58,5.96c-.4.21-.82.3-1.23.3-1.53,0-2.89-1.35-2.66-3.05l1.88-14.28c.29-2.19-.4-4.4-1.89-6.03l-9.65-10.59c-1.42-1.56-.58-4.08,1.49-4.47l13.24-2.48c2.29-.43,4.25-1.9,5.3-3.99l6.12-12.15c.5-.99,1.45-1.48,2.4-1.48M37,0C33.04,0,29.47,2.2,27.68,5.74l-6.06,12.03-13.1,2.46c-3.72.7-6.77,3.36-7.97,6.94-1.2,3.59-.37,7.56,2.18,10.35l9.57,10.5-1.87,14.16c-.39,2.98.51,5.99,2.49,8.24,1.99,2.27,4.85,3.57,7.85,3.57,1.65,0,3.3-.4,4.78-1.16l11.45-5.9,11.45,5.9c1.48.76,3.13,1.16,4.78,1.16,3,0,5.86-1.3,7.85-3.57,1.98-2.25,2.88-5.26,2.49-8.24l-1.87-14.16,9.57-10.5c2.55-2.8,3.39-6.76,2.18-10.35-1.2-3.59-4.26-6.25-7.97-6.94l-13.11-2.46-6.06-12.03C44.53,2.2,40.96,0,37,0h0Z"/>
</svg>