<?xml version="1.0" encoding="UTF-8"?>
<svg id="Layer_1" xmlns="http://www.w3.org/2000/svg" version="1.1" viewBox="0 0 74 74">
  <!-- Generator: Adobe Illustrator 30.1.0, SVG Export Plug-In . SVG Version: 2.1.1 Build 136)  -->
  <path d="M37,12.97c.78,0,1.56.41,1.97,1.22l5.03,9.98c.86,1.71,2.47,2.92,4.35,3.28l10.87,2.04c1.7.32,2.39,2.39,1.22,3.67l-7.92,8.69c-1.22,1.34-1.79,3.16-1.55,4.96l1.55,11.72c.18,1.4-.93,2.51-2.19,2.51-.33,0-.68-.08-1.01-.25l-9.51-4.9c-.88-.45-1.85-.68-2.81-.68-.96,0-1.93.23-2.81.68l-9.51,4.9c-.33.17-.68.25-1.01.25-1.26,0-2.37-1.11-2.19-2.51l1.55-11.73c.24-1.8-.33-3.61-1.55-4.95l-7.92-8.69c-1.17-1.28-.48-3.35,1.22-3.67l10.87-2.04c1.88-.35,3.49-1.56,4.35-3.27l5.03-9.98c.41-.81,1.19-1.22,1.97-1.22M37,0c-5.77,0-10.96,3.2-13.56,8.35l-3.51,6.96-7.55,1.41c-5.41,1.01-9.85,4.88-11.6,10.1-1.75,5.22-.53,10.99,3.18,15.06l5.79,6.35-1.13,8.59c-.57,4.34.75,8.71,3.63,11.99,2.89,3.29,7.05,5.18,11.42,5.18,2.4,0,4.8-.58,6.95-1.69l6.38-3.29,6.38,3.29c2.14,1.1,4.55,1.69,6.95,1.69,4.37,0,8.53-1.89,11.42-5.18,2.88-3.28,4.2-7.65,3.63-11.99l-1.13-8.59,5.79-6.35c3.71-4.07,4.92-9.84,3.18-15.05-1.75-5.22-6.19-9.09-11.6-10.1l-7.55-1.42-3.51-6.96c-2.6-5.15-7.79-8.35-13.56-8.35h0Z"/>
</svg>