<?xml version="1.0" encoding="UTF-8"?>
<svg id="Layer_1" xmlns="http://www.w3.org/2000/svg" version="1.1" viewBox="0 0 71 71">
  <!-- Generator: Adobe Illustrator 30.1.0, SVG Export Plug-In . SVG Version: 2.1.1 Build 136)  -->
  <circle id="Outer" cx="35.5" cy="35.5" r="30.53" fill="none" stroke="#000" stroke-width="9.94"/>
  <g>
    <g>
      <rect x="33.25" y="45.8" width="4.46" height="4.46"/>
      <path d="M36.93,46.57v2.91h-2.91v-2.91h2.91M38.49,45.02h-6.01v6.01h6.01v-6.01h0Z"/>
    </g>
    <g>
      <path d="M33.26,41.15l-.02-1.87c0-1.58.59-3.08,1.64-4.24l2.88-3.19c.66-.73,1.02-1.67,1.02-2.65,0-1.29-1.06-2.34-2.36-2.34h-1.85c-1.3,0-2.36,1.05-2.36,2.34v.78h-4.49v-.78c0-3.75,3.07-6.81,6.85-6.81h1.85c3.78,0,6.85,3.05,6.85,6.81,0,2.08-.77,4.09-2.17,5.64l-2.88,3.19c-.32.36-.49.79-.5,1.25l-.02,1.87h-4.45Z"/>
      <path d="M36.42,23.17c3.35,0,6.07,2.71,6.07,6.03,0,1.89-.7,3.71-1.97,5.12l-2.88,3.19c-.45.49-.69,1.11-.7,1.77v1.1h-2.92v-1.1c0-1.38.5-2.69,1.43-3.72l2.88-3.19c.79-.87,1.22-2,1.22-3.17,0-1.72-1.41-3.12-3.14-3.12h-1.85c-1.73,0-3.14,1.4-3.14,3.12h-2.93c0-3.32,2.72-6.03,6.07-6.03h1.85M36.42,21.62h-1.85c-4.2,0-7.62,3.4-7.62,7.58v1.55h6.04v-1.55c0-.86.71-1.56,1.59-1.56h1.85c.87,0,1.59.7,1.59,1.56,0,.79-.29,1.54-.82,2.13l-2.88,3.19c-1.18,1.3-1.83,2.99-1.84,4.75v1.12s.02,1.54.02,1.54h5.98l.02-1.54v-1.1c.01-.28.11-.53.31-.75l2.88-3.19c1.53-1.69,2.37-3.88,2.37-6.16,0-4.18-3.42-7.58-7.62-7.58h0Z"/>
    </g>
  </g>
</svg>