<?xml version="1.0" encoding="UTF-8"?>
<svg id="Layer_1" xmlns="http://www.w3.org/2000/svg" version="1.1" viewBox="0 0 71 71">
  <!-- Generator: Adobe Illustrator 30.1.0, SVG Export Plug-In . SVG Version: 2.1.1 Build 136)  -->
  <circle id="Outer" cx="35.5" cy="35.5" r="31.78" fill="none" stroke="#000" stroke-width="7.43"/>
  <g>
    <g>
      <rect x="33.26" y="46.75" width="4.44" height="4.44"/>
      <path d="M37.15,47.3v3.33h-3.33v-3.33h3.33M38.26,46.19h-5.55v5.55h5.55v-5.55h0Z"/>
    </g>
    <g>
      <path d="M33.27,41.92l-.02-1.81c0-1.72.64-3.37,1.79-4.64l3.3-3.66c.81-.9,1.26-2.06,1.26-3.27,0-1.66-1.37-3.02-3.04-3.02h-2.12c-1.68,0-3.04,1.35-3.04,3.02v.55h-4.47v-.55c0-4.12,3.37-7.47,7.52-7.47h2.12c4.15,0,7.52,3.35,7.52,7.47,0,2.31-.85,4.52-2.4,6.24l-3.3,3.66c-.43.47-.65,1.04-.65,1.66l-.02,1.82h-4.43Z"/>
      <path d="M36.56,21.63c3.84,0,6.96,3.1,6.96,6.91,0,2.17-.8,4.25-2.26,5.87l-3.3,3.66c-.51.57-.79,1.27-.8,2.03v1.26h-3.35v-1.26c0-1.58.58-3.09,1.64-4.26l3.3-3.66c.9-1,1.4-2.29,1.4-3.64,0-1.97-1.61-3.57-3.6-3.57h-2.12c-1.98,0-3.6,1.6-3.6,3.57h-3.36c0-3.81,3.12-6.91,6.96-6.91h2.12M36.56,20.52h-2.12c-4.45,0-8.07,3.6-8.07,8.02v1.11h5.58v-1.11c0-1.36,1.12-2.46,2.49-2.46h2.12c1.37,0,2.49,1.11,2.49,2.46,0,1.07-.4,2.1-1.12,2.89l-3.3,3.66c-1.24,1.37-1.93,3.15-1.94,5v1.27s.02,1.1.02,1.1h5.53v-1.1s.02-1.26.02-1.26c0-.48.18-.93.51-1.3l3.3-3.66c1.64-1.82,2.55-4.17,2.55-6.61,0-4.42-3.62-8.02-8.07-8.02h0Z"/>
    </g>
  </g>
</svg>