<?xml version="1.0" encoding="UTF-8"?>
<svg id="Layer_1" xmlns="http://www.w3.org/2000/svg" version="1.1" viewBox="0 0 13 13">
  <!-- Generator: Adobe Illustrator 30.1.0, SVG Export Plug-In . SVG Version: 2.1.1 Build 136)  -->
  <g>
    <g>
      <rect x="6.02" y="3.79" width=".95" height=".95"/>
      <path d="M6.79,3.97v.59h-.59v-.59h.59M7.16,3.6h-1.32v1.32h1.32v-1.32h0Z"/>
    </g>
    <g>
      <polygon points="5.44 9.1 5.44 8.15 6.02 8.15 6.02 6.69 5.44 6.69 5.44 5.74 6.98 5.74 6.98 8.15 7.56 8.15 7.56 9.1 5.44 9.1"/>
      <path d="M6.79,5.92v2.41h.59v.59h-1.76v-.59h.59v-1.83h-.59v-.59h1.17M7.16,5.55h-1.9v1.32h.59v1.1h-.59v1.32h2.49v-1.32h-.59v-2.41h0Z"/>
    </g>
  </g>
  <circle id="Outer" cx="6.5" cy="6.5" r="5.36" fill="none" stroke="#000" stroke-width="2.28"/>
</svg>