<?xml version="1.0" encoding="UTF-8"?>
<svg id="Layer_1" xmlns="http://www.w3.org/2000/svg" version="1.1" viewBox="0 0 111 111">
  <!-- Generator: Adobe Illustrator 30.1.0, SVG Export Plug-In . SVG Version: 2.1.1 Build 136)  -->
  <circle id="Outer" cx="55.5" cy="55.5" r="45.77" fill="none" stroke="#000" stroke-width="19.46"/>
  <g>
    <g>
      <rect x="51.96" y="70.1" width="7.03" height="7.03"/>
      <path d="M57.43,71.66v3.91h-3.91v-3.91h3.91M60.55,68.54h-10.15v10.15h10.15v-10.15h0Z"/>
    </g>
    <g>
      <path d="M51.98,63.24l-.03-3.03c0-2.25.84-4.4,2.34-6.06l3.87-4.29c.8-.89,1.24-2.03,1.24-3.22,0-1.45-1.19-2.63-2.66-2.63h-2.49c-1.47,0-2.66,1.18-2.66,2.63v1.56h-7.07v-1.56c0-5.33,4.36-9.67,9.73-9.67h2.49c5.36,0,9.73,4.34,9.73,9.67,0,2.93-1.08,5.74-3.05,7.93l-3.87,4.29c-.35.39-.53.84-.53,1.34l-.03,3.03h-7Z"/>
      <path d="M56.74,38.54c4.5,0,8.17,3.64,8.17,8.11,0,2.54-.94,4.99-2.65,6.88l-3.87,4.29c-.6.66-.93,1.49-.94,2.38v1.48h-3.93v-1.48c0-1.85.68-3.62,1.92-5l3.87-4.29c1.06-1.17,1.64-2.69,1.64-4.27,0-2.31-1.89-4.19-4.22-4.19h-2.49c-2.33,0-4.22,1.88-4.22,4.19h-3.94c0-4.47,3.66-8.11,8.17-8.11h2.49M56.74,35.42h-2.49c-6.22,0-11.29,5.04-11.29,11.23v3.12h10.19v-3.12c0-.59.49-1.07,1.1-1.07h2.49c.61,0,1.1.48,1.1,1.07,0,.8-.3,1.57-.84,2.17l-3.87,4.29c-1.76,1.94-2.73,4.46-2.74,7.08v1.52s.04,3.09.04,3.09h10.09l.03-3.09v-1.48c.02-.1.03-.19.14-.32l3.88-4.29c2.23-2.47,3.46-5.65,3.46-8.97,0-6.19-5.06-11.23-11.29-11.23h0Z"/>
    </g>
  </g>
</svg>