<?xml version="1.0" encoding="UTF-8"?>
<svg id="Layer_1" xmlns="http://www.w3.org/2000/svg" version="1.1" viewBox="0 0 111 111">
  <!-- Generator: Adobe Illustrator 30.1.0, SVG Export Plug-In . SVG Version: 2.1.1 Build 136)  -->
  <circle id="Outer" cx="55.5" cy="55.5" r="49.69" fill="none" stroke="#000" stroke-width="11.62"/>
  <g>
    <g>
      <rect x="51.99" y="73.08" width="6.95" height="6.95"/>
      <path d="M58.07,73.95v5.21h-5.21v-5.21h5.21M59.81,72.22h-8.68v8.68h8.68v-8.68h0Z"/>
    </g>
    <g>
      <path d="M52.01,65.53l-.03-2.83c.01-2.69,1.01-5.26,2.81-7.25l5.16-5.72c1.27-1.4,1.97-3.22,1.97-5.1,0-2.6-2.13-4.72-4.76-4.72h-3.32c-2.62,0-4.76,2.12-4.76,4.72v.87h-6.99v-.87c0-6.44,5.27-11.68,11.75-11.68h3.32c6.48,0,11.75,5.24,11.75,11.68,0,3.6-1.33,7.07-3.76,9.75l-5.16,5.72c-.67.74-1.02,1.64-1.02,2.6l-.03,2.83h-6.93Z"/>
      <path d="M57.16,33.81c6,0,10.89,4.85,10.89,10.81,0,3.39-1.26,6.65-3.53,9.17l-5.16,5.72c-.8.88-1.24,1.98-1.25,3.18l-.02,1.97h-5.21l-.02-1.97c0-2.47.92-4.82,2.58-6.66l5.16-5.72c1.41-1.57,2.19-3.59,2.19-5.69,0-3.08-2.52-5.59-5.63-5.59h-3.32c-3.1,0-5.63,2.51-5.63,5.59h-5.26c0-5.96,4.88-10.81,10.89-10.81h3.32M57.16,32.08h-3.32c-6.96,0-12.62,5.63-12.62,12.54v1.73h8.73v-1.73c0-2.12,1.75-3.85,3.89-3.85h3.32c2.15,0,3.89,1.73,3.89,3.85,0,1.67-.62,3.28-1.74,4.52l-5.16,5.72c-1.94,2.15-3.02,4.93-3.03,7.82l.02,1.99.02,1.72h8.65l.02-1.72.02-1.97c0-.76.28-1.45.8-2.03l5.17-5.72c2.57-2.84,3.98-6.51,3.98-10.33,0-6.92-5.66-12.54-12.62-12.54h0Z"/>
    </g>
  </g>
</svg>