<?xml version="1.0" encoding="UTF-8"?>
<svg id="Layer_1" xmlns="http://www.w3.org/2000/svg" version="1.1" viewBox="0 0 97 97">
  <!-- Generator: Adobe Illustrator 30.1.0, SVG Export Plug-In . SVG Version: 2.1.1 Build 136)  -->
  <path d="M48.5,10.15c1.25,0,2.49.65,3.14,1.94l8.02,15.92c1.38,2.73,3.95,4.67,6.95,5.23l17.36,3.25c2.71.51,3.81,3.81,1.95,5.85l-12.64,13.88c-1.95,2.14-2.86,5.04-2.48,7.91l2.47,18.71c.29,2.23-1.48,4-3.49,4-.53,0-1.08-.12-1.61-.4l-15.18-7.82c-1.41-.72-2.95-1.09-4.48-1.09s-3.08.36-4.48,1.09l-15.18,7.82c-.53.27-1.08.4-1.61.4-2.01,0-3.79-1.77-3.49-4l2.47-18.72c.38-2.87-.53-5.76-2.48-7.9l-12.65-13.88c-1.86-2.04-.76-5.34,1.95-5.85l17.35-3.25c3-.56,5.57-2.49,6.94-5.23l8.02-15.93c.65-1.29,1.9-1.94,3.14-1.94M48.5,0c-5.2,0-9.88,2.88-12.21,7.53l-7.95,15.77-17.18,3.22c-4.87.91-8.88,4.4-10.45,9.1-1.58,4.7-.48,9.91,2.86,13.57l12.54,13.76-2.45,18.56c-.52,3.91.67,7.85,3.27,10.8,2.61,2.97,6.36,4.68,10.29,4.68,2.16,0,4.32-.53,6.26-1.52l15.01-7.73,15.01,7.73c1.94,1,4.1,1.52,6.26,1.52,3.93,0,7.69-1.7,10.29-4.68,2.59-2.96,3.78-6.89,3.27-10.8l-2.45-18.56,12.54-13.76c3.34-3.67,4.44-8.87,2.86-13.57-1.57-4.7-5.58-8.19-10.45-9.1l-17.18-3.22-7.95-15.77c-2.34-4.64-7.02-7.53-12.21-7.53h0Z"/>
</svg>