<?xml version="1.0" encoding="UTF-8"?>
<svg id="Layer_1" xmlns="http://www.w3.org/2000/svg" version="1.1" viewBox="0 0 92 92">
  <!-- Generator: Adobe Illustrator 30.1.0, SVG Export Plug-In . SVG Version: 2.1.1 Build 136)  -->
  <circle id="Outer" cx="46" cy="46" r="39.56" fill="none" stroke="#000" stroke-width="12.88"/>
  <g>
    <g>
      <rect x="43.08" y="59.34" width="5.78" height="5.78"/>
      <path d="M47.86,60.35v3.77h-3.77v-3.77h3.77M49.87,58.34h-7.79v7.79h7.79v-7.79h0Z"/>
    </g>
    <g>
      <path d="M43.1,53.33l-.02-2.42c0-2.04.76-3.99,2.13-5.5l3.73-4.13c.85-.95,1.33-2.17,1.33-3.44,0-1.67-1.37-3.03-3.06-3.03h-2.4c-1.69,0-3.06,1.36-3.06,3.03v1.01h-5.81v-1.01c0-4.86,3.98-8.82,8.87-8.82h2.4c4.89,0,8.87,3.96,8.87,8.82,0,2.7-1,5.29-2.81,7.3l-3.73,4.14c-.42.46-.64,1.02-.64,1.62l-.02,2.43h-5.76Z"/>
      <path d="M47.2,30.02c4.34,0,7.87,3.51,7.87,7.81,0,2.45-.91,4.8-2.55,6.63l-3.73,4.14c-.58.64-.9,1.43-.9,2.29v1.42h-3.78v-1.42c0-1.79.65-3.49,1.85-4.82l3.73-4.13c1.02-1.13,1.58-2.59,1.58-4.11,0-2.23-1.82-4.04-4.07-4.04h-2.4c-2.24,0-4.07,1.81-4.07,4.04h-3.8c0-4.31,3.53-7.81,7.87-7.81h2.4M47.2,28.01h-2.4c-5.45,0-9.88,4.41-9.88,9.82v2.01h7.83v-2.01c0-1.12.92-2.03,2.05-2.03h2.4c1.13,0,2.05.91,2.05,2.03,0,1.02-.38,2-1.07,2.76l-3.73,4.13c-1.53,1.69-2.38,3.88-2.38,6.16v1.45s.03,1.99.03,1.99h7.75l.02-1.99v-1.42c.02-.37.14-.69.4-.97l3.73-4.14c1.98-2.2,3.07-5.03,3.07-7.98,0-5.42-4.43-9.82-9.88-9.82h0Z"/>
    </g>
  </g>
</svg>