<?xml version="1.0" encoding="UTF-8"?>
<svg id="Layer_1" xmlns="http://www.w3.org/2000/svg" version="1.1" viewBox="0 0 92 92">
  <!-- Generator: Adobe Illustrator 30.1.0, SVG Export Plug-In . SVG Version: 2.1.1 Build 136)  -->
  <circle id="Outer" cx="46" cy="46" r="41.18" fill="none" stroke="#000" stroke-width="9.63"/>
  <g>
    <g>
      <rect x="43.09" y="60.57" width="5.76" height="5.76"/>
      <path d="M48.13,61.29v4.32h-4.32v-4.32h4.32M49.57,59.86h-7.2v7.2h7.2v-7.2h0Z"/>
    </g>
    <g>
      <path d="M43.1,54.31l-.02-2.35c0-2.23.83-4.36,2.33-6.01l4.28-4.74c1.05-1.17,1.63-2.67,1.63-4.23,0-2.16-1.77-3.91-3.95-3.91h-2.75c-2.17,0-3.94,1.75-3.94,3.91v.72h-5.8v-.72c0-5.34,4.37-9.68,9.74-9.68h2.75c5.37,0,9.74,4.34,9.74,9.68,0,2.99-1.11,5.86-3.12,8.08l-4.28,4.74c-.55.61-.85,1.36-.85,2.15l-.02,2.35h-5.74Z"/>
      <path d="M47.37,28.02c4.98,0,9.02,4.02,9.02,8.96,0,2.81-1.04,5.51-2.93,7.6l-4.28,4.74c-.66.73-1.03,1.64-1.03,2.63l-.02,1.63h-4.32v-1.63c0-2.05.75-4,2.13-5.52l4.28-4.74c1.17-1.3,1.82-2.97,1.82-4.71,0-2.55-2.09-4.63-4.66-4.63h-2.75c-2.57,0-4.66,2.08-4.66,4.63h-4.36c0-4.94,4.05-8.96,9.02-8.96h2.75M47.37,26.59h-2.75c-5.77,0-10.46,4.66-10.46,10.4v1.44h7.23v-1.44c0-1.76,1.45-3.19,3.23-3.19h2.75c1.78,0,3.23,1.43,3.23,3.19,0,1.39-.51,2.72-1.45,3.75l-4.28,4.74c-1.61,1.78-2.5,4.08-2.51,6.48v1.65s.03,1.42.03,1.42h7.17v-1.42s.03-1.63.03-1.63c0-.63.23-1.21.66-1.68l4.28-4.74c2.13-2.36,3.3-5.4,3.3-8.57,0-5.73-4.69-10.4-10.46-10.4h0Z"/>
    </g>
  </g>
</svg>