<?xml version="1.0" encoding="UTF-8"?>
<svg id="Layer_1" xmlns="http://www.w3.org/2000/svg" version="1.1" viewBox="0 0 19 19">
  <!-- Generator: Adobe Illustrator 30.1.0, SVG Export Plug-In . SVG Version: 2.1.1 Build 136)  -->
  <g>
    <g>
      <rect x="8.83" y="5.05" width="1.35" height="1.35"/>
      <path d="M10.03,5.2v1.05h-1.05v-1.05h1.05M10.32,4.9h-1.64v1.64h1.64v-1.64h0Z"/>
    </g>
    <g>
      <polygon points="7.78 13.89 7.78 12.54 8.83 12.54 8.83 9.56 7.78 9.56 7.78 8.21 10.17 8.21 10.17 12.54 11.22 12.54 11.22 13.89 7.78 13.89"/>
      <path d="M10.03,8.36v4.33h1.05v1.05h-3.15v-1.05h1.05v-3.28h-1.05v-1.05h2.1M10.32,8.06h-2.69v1.64h1.05v2.69h-1.05v1.64h3.75v-1.64h-1.05v-4.33h0Z"/>
    </g>
  </g>
  <circle id="Outer" cx="9.5" cy="9.5" r="8.51" fill="none" stroke="#000" stroke-width="1.99"/>
</svg>