<?xml version="1.0" encoding="UTF-8"?>
<svg id="Layer_1" xmlns="http://www.w3.org/2000/svg" version="1.1" viewBox="0 0 20 20">
  <!-- Generator: Adobe Illustrator 30.1.0, SVG Export Plug-In . SVG Version: 2.1.1 Build 136)  -->
  <g>
    <g>
      <rect x="9.29" y="5.32" width="1.42" height="1.42"/>
      <path d="M10.55,5.48v1.11h-1.11v-1.11h1.11M10.87,5.16h-1.73v1.73h1.73v-1.73h0Z"/>
    </g>
    <g>
      <polygon points="8.19 14.62 8.19 13.2 9.29 13.2 9.29 10.06 8.19 10.06 8.19 8.65 10.71 8.65 10.71 13.2 11.81 13.2 11.81 14.62 8.19 14.62"/>
      <path d="M10.55,8.8v4.56h1.11v1.11h-3.32v-1.11h1.11v-3.45h-1.11v-1.11h2.21M10.87,8.49h-2.84v1.73h1.11v2.83h-1.11v1.73h3.94v-1.73h-1.11v-4.56h0Z"/>
    </g>
  </g>
  <circle id="Outer" cx="10" cy="10" r="8.95" fill="none" stroke="#000" stroke-width="2.09"/>
</svg>