<?xml version="1.0" encoding="UTF-8"?>
<svg id="Layer_1" xmlns="http://www.w3.org/2000/svg" version="1.1" viewBox="0 0 20 20">
  <!-- Generator: Adobe Illustrator 30.1.0, SVG Export Plug-In . SVG Version: 2.1.1 Build 136)  -->
  <g>
    <g>
      <rect x="9.28" y="5.57" width="1.44" height="1.44"/>
      <path d="M10.5,5.79v1h-1v-1h1M10.94,5.35h-1.88v1.88h1.88v-1.88h0Z"/>
    </g>
    <g>
      <polygon points="8.28 14.31 8.28 12.87 9.28 12.87 9.28 10.18 8.28 10.18 8.28 8.74 10.72 8.74 10.72 12.87 11.72 12.87 11.72 14.31 8.28 14.31"/>
      <path d="M10.5,8.96v4.13h1v1h-3.01v-1h1v-3.13h-1v-1h2M10.94,8.52h-2.88v1.88h1v2.25h-1v1.88h3.88v-1.88h-1v-4.13h0Z"/>
    </g>
  </g>
  <circle id="Outer" cx="10" cy="10" r="8.6" fill="none" stroke="#000" stroke-width="2.8"/>
</svg>