<?xml version="1.0" encoding="UTF-8"?>
<svg id="Layer_1" xmlns="http://www.w3.org/2000/svg" version="1.1" viewBox="0 0 40 40">
  <!-- Generator: Adobe Illustrator 30.1.0, SVG Export Plug-In . SVG Version: 2.1.1 Build 136)  -->
  <circle id="Outer" cx="20" cy="20" r="17.2" fill="none" stroke="#000" stroke-width="5.6"/>
  <g>
    <g>
      <rect x="18.73" y="25.8" width="2.51" height="2.51"/>
      <path d="M20.81,26.24v1.64h-1.64v-1.64h1.64M21.68,25.36h-3.39v3.39h3.39v-3.39h0Z"/>
    </g>
    <g>
      <path d="M18.74,23.19v-1.05c0-.89.32-1.73.92-2.39l1.62-1.8c.37-.41.58-.94.58-1.49,0-.73-.6-1.32-1.33-1.32h-1.04c-.73,0-1.33.59-1.33,1.32v.44h-2.53v-.44c0-2.11,1.73-3.83,3.86-3.83h1.04c2.13,0,3.86,1.72,3.86,3.83,0,1.17-.43,2.3-1.22,3.18l-1.62,1.8c-.18.2-.28.45-.28.71v1.06h-2.52Z"/>
      <path d="M20.52,13.05c1.89,0,3.42,1.52,3.42,3.4,0,1.07-.39,2.09-1.11,2.88l-1.62,1.8c-.25.28-.39.62-.39,1v.62h-1.64v-.62c0-.78.28-1.52.81-2.09l1.62-1.8c.44-.49.69-1.13.69-1.79,0-.97-.79-1.76-1.77-1.76h-1.04c-.97,0-1.77.79-1.77,1.76h-1.65c0-1.87,1.53-3.4,3.42-3.4h1.04M20.52,12.18h-1.04c-2.37,0-4.3,1.92-4.3,4.27v.88h3.4v-.88c0-.49.4-.88.89-.88h1.04c.49,0,.89.4.89.88,0,.44-.16.87-.46,1.2l-1.62,1.8c-.66.74-1.03,1.69-1.04,2.68v.63s.01.87.01.87h3.37v-.87s.02-.62.02-.62c0-.16.06-.3.17-.42l1.62-1.8c.86-.95,1.34-2.19,1.34-3.47,0-2.36-1.93-4.27-4.3-4.27h0Z"/>
    </g>
  </g>
</svg>