<?xml version="1.0" encoding="UTF-8"?>
<svg id="Layer_1" xmlns="http://www.w3.org/2000/svg" version="1.1" viewBox="0 0 40 40">
  <!-- Generator: Adobe Illustrator 30.1.0, SVG Export Plug-In . SVG Version: 2.1.1 Build 136)  -->
  <circle id="Outer" cx="20" cy="20" r="17.91" fill="none" stroke="#000" stroke-width="4.19"/>
  <g>
    <g>
      <rect x="18.74" y="26.34" width="2.5" height="2.5"/>
      <path d="M20.93,26.65v1.88h-1.88v-1.88h1.88M21.55,26.02h-3.13v3.13h3.13v-3.13h0Z"/>
    </g>
    <g>
      <path d="M18.74,23.61v-1.02c0-.97.35-1.9,1-2.61l1.86-2.06c.46-.51.71-1.16.71-1.84,0-.94-.77-1.7-1.71-1.7h-1.2c-.95,0-1.71.76-1.71,1.7v.31h-2.52v-.31c0-2.32,1.9-4.21,4.23-4.21h1.2c2.33,0,4.24,1.89,4.24,4.21,0,1.3-.48,2.55-1.35,3.51l-1.86,2.06c-.24.27-.37.59-.37.94v1.02h-2.51Z"/>
      <path d="M20.6,12.18c2.16,0,3.92,1.75,3.92,3.9,0,1.22-.45,2.4-1.27,3.31l-1.86,2.06c-.29.32-.45.72-.45,1.14v.71h-1.89v-.71c0-.89.33-1.74.92-2.4l1.86-2.06c.51-.56.79-1.29.79-2.05,0-1.11-.91-2.01-2.03-2.01h-1.2c-1.12,0-2.03.9-2.03,2.01h-1.9c0-2.15,1.76-3.9,3.92-3.9h1.2M20.6,11.56h-1.2c-2.51,0-4.55,2.03-4.55,4.52v.62h3.15v-.62c0-.77.63-1.39,1.4-1.39h1.2c.77,0,1.4.62,1.4,1.39,0,.6-.22,1.18-.63,1.63l-1.86,2.06c-.7.77-1.09,1.77-1.09,2.82v.72s.01.62.01.62h3.12v-.62s.01-.71.01-.71c0-.27.1-.52.29-.73l1.86-2.06c.93-1.02,1.43-2.35,1.43-3.72,0-2.49-2.04-4.52-4.55-4.52h0Z"/>
    </g>
  </g>
</svg>