<?xml version="1.0" encoding="UTF-8"?>
<svg id="Layer_1" xmlns="http://www.w3.org/2000/svg" version="1.1" viewBox="0 0 40 40">
  <!-- Generator: Adobe Illustrator 30.1.0, SVG Export Plug-In . SVG Version: 2.1.1 Build 136)  -->
  <circle id="Outer" cx="20" cy="20" r="16.49" fill="none" stroke="#000" stroke-width="7.01"/>
  <g>
    <g>
      <rect x="18.72" y="25.26" width="2.53" height="2.53"/>
      <path d="M20.69,25.82v1.41h-1.41v-1.41h1.41M21.82,24.7h-3.66v3.66h3.66v-3.66h0Z"/>
    </g>
    <g>
      <path d="M18.73,22.79v-1.09c0-.81.29-1.58.83-2.18l1.4-1.55c.29-.32.45-.73.45-1.16,0-.52-.43-.95-.96-.95h-.9c-.53,0-.96.43-.96.95v.56h-2.55v-.56c0-1.92,1.57-3.48,3.5-3.48h.9c1.93,0,3.5,1.56,3.5,3.48,0,1.06-.39,2.07-1.1,2.86l-1.4,1.55c-.13.14-.19.3-.19.48v1.09h-2.54Z"/>
      <path d="M20.45,13.89c1.62,0,2.94,1.31,2.94,2.92,0,.92-.34,1.8-.96,2.48l-1.4,1.55c-.22.24-.34.54-.34.86v.53h-1.41v-.53c0-.67.24-1.3.69-1.8l1.4-1.55c.38-.42.59-.97.59-1.54,0-.83-.68-1.51-1.52-1.51h-.9c-.84,0-1.52.68-1.52,1.51h-1.42c0-1.61,1.32-2.92,2.94-2.92h.9M20.45,12.76h-.9c-2.24,0-4.07,1.82-4.07,4.05v1.12h3.67v-1.12c0-.21.18-.39.4-.39h.9c.22,0,.4.17.4.39,0,.29-.11.57-.3.78l-1.4,1.55c-.63.7-.98,1.61-.99,2.55v.55s.01,1.12.01,1.12h3.64v-1.11s.02-.53.02-.53c0-.04,0-.07.05-.12l1.4-1.55c.8-.89,1.25-2.04,1.25-3.23,0-2.23-1.82-4.05-4.07-4.05h0Z"/>
    </g>
  </g>
</svg>