<?xml version="1.0" encoding="UTF-8"?>
<svg id="Layer_1" xmlns="http://www.w3.org/2000/svg" version="1.1" viewBox="0 0 94 94">
  <!-- Generator: Adobe Illustrator 30.1.0, SVG Export Plug-In . SVG Version: 2.1.1 Build 136)  -->
  <path d="M47,16.48c.99,0,1.98.51,2.5,1.54l6.39,12.67c1.1,2.17,3.14,3.71,5.53,4.16l13.81,2.59c2.16.4,3.04,3.03,1.55,4.66l-10.06,11.04c-1.55,1.7-2.28,4.01-1.97,6.3l1.96,14.89c.23,1.78-1.18,3.18-2.78,3.18-.42,0-.86-.1-1.28-.32l-12.08-6.22c-1.12-.58-2.34-.87-3.57-.87s-2.45.29-3.57.87l-12.08,6.22c-.42.22-.86.32-1.28.32-1.6,0-3.01-1.41-2.78-3.18l1.96-14.9c.3-2.29-.42-4.59-1.97-6.29l-10.07-11.04c-1.48-1.63-.61-4.25,1.56-4.66l13.81-2.59c2.39-.45,4.43-1.99,5.53-4.16l6.39-12.68c.52-1.03,1.51-1.54,2.5-1.54M47,0c-7.33,0-13.92,4.07-17.22,10.61l-4.46,8.84-9.59,1.8c-6.87,1.29-12.51,6.2-14.73,12.83-2.22,6.63-.68,13.96,4.03,19.13l7.35,8.07-1.44,10.91c-.73,5.51.95,11.06,4.61,15.23,3.67,4.18,8.96,6.58,14.51,6.58,3.05,0,6.1-.74,8.83-2.14l8.11-4.18,8.11,4.17c2.72,1.4,5.78,2.14,8.83,2.14,5.55,0,10.84-2.4,14.51-6.58,3.66-4.17,5.34-9.72,4.61-15.23l-1.44-10.91,7.35-8.07c4.71-5.17,6.25-12.49,4.03-19.12-2.22-6.63-7.86-11.54-14.73-12.83l-9.59-1.8-4.46-8.84C60.92,4.07,54.32,0,47,0h0Z"/>
</svg>