<?xml version="1.0" encoding="UTF-8"?>
<svg id="Layer_1" xmlns="http://www.w3.org/2000/svg" version="1.1" viewBox="0 0 120 120">
  <!-- Generator: Adobe Illustrator 30.1.0, SVG Export Plug-In . SVG Version: 2.1.1 Build 136)  -->
  <circle id="Outer" cx="60" cy="60" r="51.6" fill="none" stroke="#000" stroke-width="16.8"/>
  <g>
    <g>
      <rect x="56.2" y="77.4" width="7.54" height="7.54"/>
      <path d="M62.42,78.72v4.91h-4.91v-4.91h4.91M65.05,76.09h-10.16v10.16h10.16v-10.16h0Z"/>
    </g>
    <g>
      <path d="M56.21,69.56l-.03-3.16c0-2.67.99-5.21,2.77-7.17l4.87-5.39c1.12-1.23,1.73-2.83,1.73-4.48,0-2.18-1.79-3.95-3.99-3.95h-3.13c-2.2,0-3.99,1.77-3.99,3.95v1.31h-7.58v-1.31c0-6.34,5.19-11.5,11.57-11.5h3.13c6.38,0,11.57,5.16,11.57,11.5,0,3.52-1.3,6.9-3.67,9.53l-4.87,5.39c-.55.6-.83,1.33-.84,2.12l-.03,3.17h-7.52Z"/>
      <path d="M61.56,39.16c5.66,0,10.26,4.57,10.26,10.19,0,3.2-1.18,6.27-3.33,8.65l-4.87,5.39c-.75.83-1.17,1.87-1.18,2.99l-.02,1.86h-4.91l-.02-1.86c0-2.33.87-4.55,2.43-6.28l4.87-5.39c1.33-1.48,2.07-3.38,2.07-5.36,0-2.9-2.38-5.27-5.3-5.27h-3.13c-2.92,0-5.3,2.36-5.3,5.27h-4.96c0-5.62,4.6-10.19,10.26-10.19h3.13M61.56,36.54h-3.13c-7.11,0-12.89,5.75-12.89,12.81v2.62h10.21v-2.62c0-1.46,1.2-2.64,2.68-2.64h3.13c1.48,0,2.68,1.19,2.68,2.64,0,1.33-.49,2.61-1.39,3.6l-4.87,5.39c-1.99,2.21-3.1,5.06-3.11,8.03l.02,1.89.02,2.6h10.11l.03-2.6.02-1.86c0-.48.17-.9.5-1.26l4.87-5.4c2.58-2.86,4.01-6.56,4.01-10.41,0-7.07-5.78-12.81-12.89-12.81h0Z"/>
    </g>
  </g>
</svg>