<?xml version="1.0" encoding="UTF-8"?>
<svg id="Layer_1" xmlns="http://www.w3.org/2000/svg" version="1.1" viewBox="0 0 120 120">
  <!-- Generator: Adobe Illustrator 30.1.0, SVG Export Plug-In . SVG Version: 2.1.1 Build 136)  -->
  <circle id="Outer" cx="60" cy="60" r="53.72" fill="none" stroke="#000" stroke-width="12.56"/>
  <g>
    <g>
      <rect x="56.21" y="79.01" width="7.51" height="7.51"/>
      <path d="M62.78,79.95v5.64h-5.64v-5.64h5.64M64.66,78.07h-9.39v9.39h9.39v-9.39h0Z"/>
    </g>
    <g>
      <path d="M56.22,70.84l-.03-3.06c.01-2.91,1.09-5.69,3.03-7.84l5.58-6.18c1.37-1.52,2.13-3.48,2.13-5.52,0-2.81-2.31-5.1-5.14-5.1h-3.59c-2.84,0-5.15,2.29-5.15,5.1v.94h-7.56v-.94c0-6.96,5.7-12.62,12.71-12.62h3.59c7.01,0,12.71,5.66,12.71,12.62,0,3.9-1.44,7.64-4.06,10.54l-5.58,6.19c-.72.8-1.1,1.77-1.11,2.81l-.03,3.07h-7.49Z"/>
      <path d="M61.79,36.55c6.49,0,11.77,5.24,11.77,11.69,0,3.67-1.36,7.19-3.82,9.92l-5.58,6.19c-.86.96-1.34,2.15-1.35,3.43l-.02,2.13h-5.64l-.02-2.13c0-2.67.99-5.22,2.79-7.2l5.58-6.18c1.53-1.69,2.37-3.88,2.37-6.15,0-3.33-2.73-6.04-6.08-6.04h-3.59c-3.35,0-6.08,2.71-6.08,6.04h-5.69c0-6.44,5.28-11.69,11.77-11.69h3.59M61.79,34.68h-3.59c-7.52,0-13.64,6.08-13.64,13.56v1.88h9.44v-1.88c0-2.3,1.89-4.16,4.21-4.16h3.59c2.32,0,4.21,1.87,4.21,4.16,0,1.81-.67,3.54-1.89,4.89l-5.58,6.18c-2.1,2.32-3.26,5.32-3.27,8.45l.02,2.15.02,1.86h9.35l.02-1.86.02-2.13c0-.82.3-1.57.86-2.19l5.58-6.19c2.78-3.07,4.3-7.04,4.3-11.17,0-7.48-6.12-13.56-13.64-13.56h0Z"/>
    </g>
  </g>
</svg>