<?xml version="1.0" encoding="UTF-8"?>
<svg id="Layer_1" xmlns="http://www.w3.org/2000/svg" version="1.1" viewBox="0 0 120 120">
  <!-- Generator: Adobe Illustrator 30.1.0, SVG Export Plug-In . SVG Version: 2.1.1 Build 136)  -->
  <circle id="Outer" cx="60" cy="60" r="49.48" fill="none" stroke="#000" stroke-width="21.04"/>
  <g>
    <g>
      <rect x="56.17" y="75.78" width="7.6" height="7.6"/>
      <path d="M62.08,77.47v4.23h-4.23v-4.23h4.23M65.46,74.09h-10.98v10.98h10.98v-10.98h0Z"/>
    </g>
    <g>
      <path d="M56.19,68.37l-.03-3.27c0-2.44.91-4.76,2.53-6.55l4.19-4.64c.87-.96,1.34-2.19,1.34-3.48,0-1.57-1.29-2.84-2.88-2.84h-2.69c-1.59,0-2.88,1.28-2.88,2.84v1.69h-7.64v-1.69c0-5.76,4.72-10.45,10.51-10.45h2.69c5.8,0,10.51,4.69,10.51,10.45,0,3.17-1.17,6.21-3.3,8.57l-4.19,4.64c-.38.42-.58.91-.58,1.45l-.03,3.28h-7.57Z"/>
      <path d="M61.34,41.67c4.87,0,8.83,3.93,8.83,8.77,0,2.75-1.02,5.39-2.87,7.44l-4.19,4.64c-.65.72-1.01,1.61-1.01,2.57l-.02,1.6h-4.23v-1.6c0-2,.73-3.91,2.08-5.4l4.19-4.64c1.15-1.27,1.78-2.91,1.78-4.61,0-2.5-2.05-4.53-4.56-4.53h-2.69c-2.52,0-4.56,2.03-4.56,4.53h-4.26c0-4.83,3.96-8.77,8.83-8.77h2.69M61.34,38.29h-2.69c-6.73,0-12.2,5.45-12.2,12.14v3.38h11.01v-3.38c0-.64.53-1.16,1.19-1.16h2.69c.65,0,1.19.52,1.19,1.16,0,.87-.32,1.7-.91,2.35l-4.19,4.64c-1.9,2.1-2.95,4.82-2.96,7.65v1.64s.04,3.35.04,3.35h10.91l.03-3.34.02-1.6c0-.11.02-.21.14-.35l4.19-4.64c2.41-2.67,3.74-6.11,3.74-9.7,0-6.69-5.47-12.14-12.2-12.14h0Z"/>
    </g>
  </g>
</svg>