<?xml version="1.0" encoding="UTF-8"?>
<svg id="Layer_1" xmlns="http://www.w3.org/2000/svg" version="1.1" viewBox="0 0 97 97">
  <!-- Generator: Adobe Illustrator 30.1.0, SVG Export Plug-In . SVG Version: 2.1.1 Build 136)  -->
  <path d="M48.5,13.58c1.14,0,2.27.59,2.86,1.77l7.31,14.5c1.25,2.49,3.59,4.25,6.33,4.76l15.8,2.96c2.47.46,3.47,3.47,1.78,5.33l-11.52,12.64c-1.78,1.95-2.6,4.59-2.26,7.2l2.25,17.04c.27,2.03-1.35,3.64-3.18,3.64-.48,0-.98-.11-1.47-.36l-13.82-7.12c-1.28-.66-2.68-.99-4.08-.99s-2.8.33-4.08.99l-13.82,7.12c-.48.25-.98.36-1.47.36-1.83,0-3.45-1.61-3.18-3.64l2.25-17.04c.34-2.61-.48-5.25-2.26-7.2l-11.52-12.64c-1.7-1.86-.69-4.87,1.78-5.33l15.8-2.96c2.73-.51,5.07-2.27,6.32-4.76l7.31-14.5c.59-1.18,1.73-1.77,2.86-1.77M48.5,0C42.12,0,36.38,3.54,33.51,9.24l-6.27,12.45-13.54,2.54c-5.98,1.12-10.89,5.4-12.83,11.17-1.93,5.77-.59,12.15,3.51,16.65l10.06,11.04-1.97,14.91c-.63,4.8.83,9.63,4.01,13.26,3.2,3.65,7.8,5.74,12.63,5.74,2.65,0,5.31-.65,7.68-1.87l11.69-6.02,11.69,6.02c2.37,1.22,5.03,1.87,7.68,1.87,4.83,0,9.43-2.09,12.63-5.74,3.18-3.63,4.64-8.46,4.01-13.26l-1.97-14.91,10.07-11.05c4.1-4.5,5.45-10.88,3.51-16.65-1.93-5.77-6.85-10.05-12.83-11.17l-13.54-2.54-6.27-12.45C60.62,3.54,54.88,0,48.5,0h0Z"/>
</svg>