<?xml version="1.0" encoding="UTF-8"?>
<svg id="Layer_1" xmlns="http://www.w3.org/2000/svg" version="1.1" viewBox="0 0 97 97">
  <!-- Generator: Adobe Illustrator 30.1.0, SVG Export Plug-In . SVG Version: 2.1.1 Build 136)  -->
  <path d="M48.5,17.01c1.02,0,2.05.53,2.58,1.59l6.59,13.08c1.13,2.24,3.24,3.83,5.71,4.29l14.25,2.67c2.23.42,3.13,3.13,1.6,4.8l-10.39,11.4c-1.6,1.76-2.35,4.14-2.04,6.5l2.03,15.37c.24,1.83-1.22,3.29-2.87,3.29-.44,0-.89-.1-1.32-.33l-12.47-6.42c-1.16-.6-2.42-.89-3.68-.89-1.26,0-2.53.3-3.68.89l-12.47,6.42c-.44.22-.89.33-1.32.33-1.65,0-3.11-1.45-2.87-3.29l2.03-15.37c.31-2.36-.43-4.73-2.03-6.49l-10.39-11.4c-1.53-1.68-.63-4.39,1.6-4.81l14.25-2.67c2.46-.46,4.57-2.05,5.7-4.29l6.59-13.08c.54-1.06,1.56-1.59,2.58-1.59M48.5,0c-7.56,0-14.37,4.19-17.77,10.95l-4.6,9.13-9.89,1.85c-7.09,1.33-12.91,6.4-15.2,13.24-2.29,6.84-.7,14.4,4.16,19.74l7.59,8.33-1.48,11.26c-.75,5.69.98,11.42,4.76,15.72,3.79,4.32,9.24,6.79,14.97,6.79,3.15,0,6.3-.77,9.11-2.21l8.36-4.31,8.37,4.31c2.81,1.45,5.96,2.21,9.11,2.21,5.73,0,11.18-2.48,14.97-6.79,3.77-4.3,5.51-10.03,4.76-15.72l-1.48-11.25,7.59-8.33c4.86-5.33,6.45-12.89,4.16-19.73-2.29-6.84-8.12-11.91-15.2-13.24l-9.9-1.86-4.6-9.13C62.87,4.19,56.06,0,48.5,0h0Z"/>
</svg>