<?xml version="1.0" encoding="UTF-8"?>
<svg id="Layer_1" xmlns="http://www.w3.org/2000/svg" version="1.1" viewBox="0 0 25 25">
  <!-- Generator: Adobe Illustrator 30.1.0, SVG Export Plug-In . SVG Version: 2.1.1 Build 136)  -->
  <g>
    <g>
      <rect x="11.61" y="6.65" width="1.77" height="1.77"/>
      <path d="M13.19,6.84v1.38h-1.38v-1.38h1.38M13.58,6.45h-2.16v2.16h2.16v-2.16h0Z"/>
    </g>
    <g>
      <polygon points="10.23 18.28 10.23 16.5 11.61 16.5 11.61 12.58 10.23 12.58 10.23 10.81 13.39 10.81 13.39 16.5 14.77 16.5 14.77 18.28 10.23 18.28"/>
      <path d="M13.19,11v5.7h1.38v1.38h-4.15v-1.38h1.38v-4.31h-1.38v-1.38h2.76M13.58,10.61h-3.55v2.16h1.38v3.53h-1.38v2.16h4.93v-2.16h-1.38v-5.7h0Z"/>
    </g>
  </g>
  <circle id="Outer" cx="12.5" cy="12.5" r="11.19" fill="none" stroke="#000" stroke-width="2.62"/>
</svg>