<?xml version="1.0" encoding="UTF-8"?>
<svg id="Layer_1" xmlns="http://www.w3.org/2000/svg" version="1.1" viewBox="0 0 25 25">
  <!-- Generator: Adobe Illustrator 30.1.0, SVG Export Plug-In . SVG Version: 2.1.1 Build 136)  -->
  <g>
    <g>
      <rect x="11.59" y="7.28" width="1.83" height="1.83"/>
      <path d="M13.06,7.64v1.13h-1.13v-1.13h1.13M13.77,6.93h-2.53v2.53h2.53v-2.53h0Z"/>
    </g>
    <g>
      <polygon points="10.46 17.5 10.46 15.68 11.59 15.68 11.59 12.86 10.46 12.86 10.46 11.03 13.42 11.03 13.42 15.68 14.54 15.68 14.54 17.5 10.46 17.5"/>
      <path d="M13.06,11.38v4.64h1.13v1.13h-3.38v-1.13h1.13v-3.52h-1.13v-1.13h2.25M13.77,10.68h-3.66v2.53h1.13v2.11h-1.13v2.53h4.79v-2.53h-1.13v-4.64h0Z"/>
    </g>
  </g>
  <circle id="Outer" cx="12.5" cy="12.5" r="10.31" fill="none" stroke="#000" stroke-width="4.38"/>
</svg>