<?xml version="1.0" encoding="UTF-8"?>
<svg id="Layer_1" xmlns="http://www.w3.org/2000/svg" version="1.1" viewBox="0 0 19 19">
  <!-- Generator: Adobe Illustrator 30.1.0, SVG Export Plug-In . SVG Version: 2.1.1 Build 136)  -->
  <g>
    <g>
      <rect x="8.8" y="5.54" width="1.39" height="1.39"/>
      <path d="M9.93,5.8v.86h-.86v-.86h.86M10.46,5.27h-1.92v1.92h1.92v-1.92h0Z"/>
    </g>
    <g>
      <polygon points="7.95 13.3 7.95 11.91 8.8 11.91 8.8 9.77 7.95 9.77 7.95 8.38 10.2 8.38 10.2 11.91 11.05 11.91 11.05 13.3 7.95 13.3"/>
      <path d="M9.93,8.65v3.53h.86v.86h-2.57v-.86h.86v-2.67h-.86v-.86h1.71M10.46,8.12h-2.78v1.92h.86v1.6h-.86v1.92h3.64v-1.92h-.86v-3.53h0Z"/>
    </g>
  </g>
  <circle id="Outer" cx="9.5" cy="9.5" r="7.83" fill="none" stroke="#000" stroke-width="3.33"/>
</svg>