<?xml version="1.0" encoding="UTF-8"?>
<svg id="Layer_1" xmlns="http://www.w3.org/2000/svg" version="1.1" viewBox="0 0 19 19">
  <!-- Generator: Adobe Illustrator 30.1.0, SVG Export Plug-In . SVG Version: 2.1.1 Build 136)  -->
  <g>
    <g>
      <rect x="8.82" y="5.29" width="1.37" height="1.37"/>
      <path d="M9.98,5.5v.95h-.95v-.95h.95M10.39,5.09h-1.78v1.78h1.78v-1.78h0Z"/>
    </g>
    <g>
      <polygon points="7.86 13.59 7.86 12.23 8.82 12.23 8.82 9.67 7.86 9.67 7.86 8.3 10.18 8.3 10.18 12.23 11.14 12.23 11.14 13.59 7.86 13.59"/>
      <path d="M9.98,8.51v3.93h.95v.95h-2.86v-.95h.95v-2.97h-.95v-.95h1.9M10.39,8.09h-2.74v1.78h.95v2.14h-.95v1.78h3.69v-1.78h-.95v-3.93h0Z"/>
    </g>
  </g>
  <circle id="Outer" cx="9.5" cy="9.5" r="8.17" fill="none" stroke="#000" stroke-width="2.66"/>
</svg>