<?xml version="1.0" encoding="UTF-8"?>
<svg id="Layer_1" xmlns="http://www.w3.org/2000/svg" version="1.1" viewBox="0 0 65 65">
  <!-- Generator: Adobe Illustrator 30.1.0, SVG Export Plug-In . SVG Version: 2.1.1 Build 136)  -->
  <circle id="Outer" cx="32.5" cy="32.5" r="29.1" fill="none" stroke="#000" stroke-width="6.8"/>
  <g>
    <g>
      <rect x="30.45" y="42.8" width="4.07" height="4.07"/>
      <path d="M34.01,43.31v3.05h-3.05v-3.05h3.05M35.02,42.29h-5.08v5.08h5.08v-5.08h0Z"/>
    </g>
    <g>
      <path d="M30.45,38.37v-1.66c0-1.58.57-3.08,1.63-4.25l3.02-3.35c.74-.82,1.15-1.88,1.15-2.99,0-1.52-1.25-2.76-2.79-2.76h-1.94c-1.54,0-2.79,1.24-2.79,2.76v.51h-4.1v-.51c0-3.77,3.09-6.84,6.88-6.84h1.94c3.79,0,6.88,3.07,6.88,6.84,0,2.11-.78,4.14-2.2,5.71l-3.02,3.35c-.39.43-.6.96-.6,1.52l-.02,1.66h-4.06Z"/>
      <path d="M33.47,19.8c3.51,0,6.37,2.84,6.37,6.33,0,1.99-.74,3.89-2.07,5.37l-3.02,3.35c-.47.52-.73,1.16-.73,1.86v1.15h-3.06v-1.15c0-1.45.53-2.83,1.5-3.9l3.02-3.35c.83-.92,1.28-2.1,1.28-3.33,0-1.8-1.48-3.27-3.29-3.27h-1.94c-1.82,0-3.29,1.47-3.29,3.27h-3.08c0-3.49,2.86-6.33,6.37-6.33h1.94M33.47,18.78h-1.94c-4.07,0-7.39,3.3-7.39,7.35v1.02h5.11v-1.02c0-1.24,1.02-2.26,2.28-2.26h1.94c1.26,0,2.28,1.01,2.28,2.26,0,.98-.36,1.92-1.02,2.65l-3.02,3.35c-1.14,1.26-1.77,2.88-1.77,4.58v1.17s.02,1.01.02,1.01h5.06v-1.01s.02-1.15.02-1.15c0-.44.16-.85.47-1.19l3.02-3.35c1.5-1.67,2.33-3.81,2.33-6.05,0-4.05-3.32-7.35-7.39-7.35h0Z"/>
    </g>
  </g>
</svg>