<?xml version="1.0" encoding="UTF-8"?>
<svg id="Layer_1" xmlns="http://www.w3.org/2000/svg" version="1.1" viewBox="0 0 65 65">
  <!-- Generator: Adobe Illustrator 30.1.0, SVG Export Plug-In . SVG Version: 2.1.1 Build 136)  -->
  <circle id="Outer" cx="32.5" cy="32.5" r="27.95" fill="none" stroke="#000" stroke-width="9.1"/>
  <g>
    <g>
      <rect x="30.44" y="41.93" width="4.08" height="4.08"/>
      <path d="M33.81,42.64v2.66h-2.66v-2.66h2.66M35.24,41.22h-5.51v5.51h5.51v-5.51h0Z"/>
    </g>
    <g>
      <path d="M30.45,37.68l-.02-1.71c0-1.44.54-2.82,1.5-3.89l2.64-2.92c.6-.67.94-1.53.94-2.43,0-1.18-.97-2.14-2.16-2.14h-1.69c-1.19,0-2.16.96-2.16,2.14v.71h-4.11v-.71c0-3.44,2.81-6.23,6.27-6.23h1.69c3.46,0,6.27,2.79,6.27,6.23,0,1.91-.71,3.74-1.99,5.16l-2.64,2.92c-.29.33-.45.72-.45,1.15l-.02,1.72h-4.07Z"/>
      <path d="M33.35,21.21c3.07,0,5.56,2.48,5.56,5.52,0,1.73-.64,3.39-1.8,4.68l-2.64,2.92c-.41.45-.63,1.01-.64,1.62v1.01h-2.67v-1.01c0-1.26.46-2.46,1.31-3.4l2.64-2.92c.72-.8,1.12-1.83,1.12-2.9,0-1.57-1.29-2.85-2.87-2.85h-1.69c-1.58,0-2.87,1.28-2.87,2.85h-2.69c0-3.04,2.49-5.52,5.56-5.52h1.69M33.35,19.79h-1.69c-3.85,0-6.98,3.11-6.98,6.94v1.42h5.53v-1.42c0-.79.65-1.43,1.45-1.43h1.69c.8,0,1.45.64,1.45,1.43,0,.72-.27,1.41-.75,1.95l-2.64,2.92c-1.08,1.19-1.68,2.74-1.68,4.35v1.02s.02,1.41.02,1.41h5.48v-1.41s.02-1.01.02-1.01c0-.26.09-.49.27-.68l2.64-2.92c1.4-1.55,2.17-3.55,2.17-5.64,0-3.83-3.13-6.94-6.98-6.94h0Z"/>
    </g>
  </g>
</svg>