<?xml version="1.0" encoding="UTF-8"?>
<svg id="Layer_1" xmlns="http://www.w3.org/2000/svg" version="1.1" viewBox="0 0 114 114">
  <!-- Generator: Adobe Illustrator 30.1.0, SVG Export Plug-In . SVG Version: 2.1.1 Build 136)  -->
  <g>
    <g>
      <rect x="52.83" y="33.21" width="8.34" height="8.34"/>
      <path d="M59.57,34.82v5.14h-5.14v-5.14h5.14M62.77,31.61h-11.55v11.55h11.55v-11.55h0Z"/>
    </g>
    <g>
      <polygon points="47.69 79.82 47.69 71.48 52.83 71.48 52.83 58.65 47.69 58.65 47.69 50.31 61.17 50.31 61.17 71.48 66.31 71.48 66.31 79.82 47.69 79.82"/>
      <path d="M59.57,51.91v21.17h5.14v5.14h-15.41v-5.14h5.14v-16.04h-5.14v-5.14h10.27M62.77,48.7h-16.69v11.55h5.14v9.62h-5.14v11.55h21.82v-11.55h-5.14v-21.17h0Z"/>
    </g>
  </g>
  <circle id="Outer" cx="57" cy="57" r="47.01" fill="none" stroke="#000" stroke-width="19.99"/>
</svg>