<?xml version="1.0" encoding="UTF-8"?>
<svg id="Layer_1" xmlns="http://www.w3.org/2000/svg" version="1.1" viewBox="0 0 116 116">
  <!-- Generator: Adobe Illustrator 30.1.0, SVG Export Plug-In . SVG Version: 2.1.1 Build 136)  -->
  <path d="M58,16.24c1.36,0,2.72.7,3.42,2.11l8.74,17.34c1.5,2.98,4.3,5.08,7.57,5.69l18.9,3.54c2.96.55,4.15,4.15,2.13,6.37l-13.77,15.11c-2.12,2.33-3.11,5.48-2.7,8.62l2.69,20.38c.32,2.43-1.62,4.36-3.8,4.36-.58,0-1.18-.14-1.75-.43l-16.53-8.51c-1.53-.79-3.21-1.18-4.88-1.18-1.68,0-3.35.39-4.88,1.18l-16.53,8.51c-.58.3-1.17.43-1.75.43-2.19,0-4.12-1.92-3.8-4.36l2.69-20.38c.41-3.13-.57-6.28-2.7-8.6l-13.77-15.11c-2.03-2.23-.83-5.82,2.13-6.37l18.9-3.54c3.27-.61,6.06-2.72,7.56-5.69l8.74-17.34c.71-1.41,2.07-2.11,3.42-2.11M58,0c-7.63,0-14.5,4.23-17.93,11.05l-7.5,14.89-16.19,3.03c-7.15,1.34-13.03,6.46-15.34,13.36-2.31,6.9-.7,14.54,4.2,19.92l12.03,13.21-2.35,17.83c-.76,5.74.99,11.52,4.8,15.86,3.82,4.36,9.33,6.86,15.11,6.86,3.17,0,6.35-.77,9.19-2.23l13.98-7.2,13.98,7.2c2.84,1.46,6.02,2.23,9.19,2.23,5.78,0,11.28-2.5,15.11-6.86,3.81-4.34,5.55-10.12,4.8-15.86l-2.35-17.83,12.04-13.21c4.9-5.38,6.51-13.01,4.2-19.91-2.31-6.9-8.19-12.02-15.34-13.36l-16.19-3.03-7.5-14.89c-3.43-6.81-10.3-11.05-17.93-11.05h0Z"/>
</svg>