<?xml version="1.0" encoding="UTF-8"?>
<svg id="Layer_1" xmlns="http://www.w3.org/2000/svg" version="1.1" viewBox="0 0 88 88">
  <!-- Generator: Adobe Illustrator 30.1.0, SVG Export Plug-In . SVG Version: 2.1.1 Build 136)  -->
  <circle id="Outer" cx="44" cy="44" r="36.29" fill="none" stroke="#000" stroke-width="15.43"/>
  <g>
    <g>
      <rect x="41.19" y="55.57" width="5.57" height="5.57"/>
      <path d="M45.53,56.81v3.1h-3.1v-3.1h3.1M48,54.34h-8.05v8.05h8.05v-8.05h0Z"/>
    </g>
    <g>
      <path d="M41.21,50.14l-.02-2.4c0-1.79.67-3.49,1.85-4.8l3.07-3.4c.64-.7.99-1.61.99-2.55,0-1.15-.95-2.08-2.11-2.08h-1.97c-1.16,0-2.11.94-2.11,2.08v1.24h-5.6v-1.24c0-4.23,3.46-7.67,7.71-7.67h1.97c4.25,0,7.71,3.44,7.71,7.67,0,2.32-.86,4.55-2.42,6.28l-3.07,3.4c-.28.31-.42.67-.42,1.06l-.02,2.41h-5.55Z"/>
      <path d="M44.99,30.56c3.57,0,6.47,2.88,6.47,6.43,0,2.02-.75,3.95-2.1,5.45l-3.07,3.4c-.48.53-.74,1.18-.74,1.89v1.17h-3.11v-1.17c0-1.47.54-2.87,1.53-3.96l3.07-3.4c.84-.93,1.3-2.13,1.3-3.38,0-1.83-1.5-3.32-3.35-3.32h-1.97c-1.84,0-3.35,1.49-3.35,3.32h-3.13c0-3.54,2.9-6.43,6.47-6.43h1.97M44.99,28.08h-1.97c-4.93,0-8.95,3.99-8.95,8.9v2.48h8.08v-2.48c0-.47.39-.85.87-.85h1.97c.48,0,.87.38.87.85,0,.64-.24,1.25-.67,1.72l-3.07,3.4c-1.39,1.54-2.17,3.53-2.17,5.61v1.2s.03,2.45.03,2.45h8l.02-2.45v-1.17c.01-.08.02-.15.11-.25l3.07-3.4c1.77-1.96,2.74-4.48,2.74-7.11,0-4.91-4.01-8.9-8.95-8.9h0Z"/>
    </g>
  </g>
</svg>