<?xml version="1.0" encoding="UTF-8"?>
<svg id="Layer_1" xmlns="http://www.w3.org/2000/svg" version="1.1" viewBox="0 0 12 12">
  <!-- Generator: Adobe Illustrator 30.1.0, SVG Export Plug-In . SVG Version: 2.1.1 Build 136)  -->
  <path d="M6,1.68c.14,0,.28.07.35.22l.9,1.79c.16.31.44.53.78.59l1.96.37c.31.06.43.43.22.66l-1.42,1.56c-.22.24-.32.57-.28.89l.28,2.11c.03.25-.17.45-.39.45-.06,0-.12-.01-.18-.04l-1.71-.88c-.16-.08-.33-.12-.51-.12s-.35.04-.51.12l-1.71.88c-.06.03-.12.04-.18.04-.23,0-.43-.2-.39-.45l.28-2.11c.04-.32-.06-.65-.28-.89l-1.42-1.56c-.21-.23-.09-.6.22-.66l1.96-.37c.34-.06.63-.28.78-.59l.9-1.79c.07-.15.21-.22.35-.22M6,0C5.21,0,4.5.44,4.15,1.14l-.78,1.54-1.67.31c-.74.14-1.35.67-1.59,1.38-.24.71-.07,1.5.43,2.06l1.24,1.37-.24,1.84c-.08.59.1,1.19.5,1.64.4.45.96.71,1.56.71.33,0,.66-.08.95-.23l1.45-.74,1.45.74c.29.15.62.23.95.23.6,0,1.17-.26,1.56-.71.39-.45.57-1.05.5-1.64l-.24-1.84,1.25-1.37c.51-.56.67-1.35.43-2.06-.24-.71-.85-1.24-1.59-1.38l-1.67-.31-.78-1.54C7.5.44,6.79,0,6,0h0Z"/>
</svg>