<?xml version="1.0" encoding="UTF-8"?>
<svg id="Layer_1" xmlns="http://www.w3.org/2000/svg" version="1.1" viewBox="0 0 78 78">
  <!-- Generator: Adobe Illustrator 30.1.0, SVG Export Plug-In . SVG Version: 2.1.1 Build 136)  -->
  <circle id="Outer" cx="39" cy="39" r="33.54" fill="none" stroke="#000" stroke-width="10.92"/>
  <g>
    <g>
      <rect x="36.53" y="50.31" width="4.9" height="4.9"/>
      <path d="M40.58,51.17v3.19h-3.19v-3.19h3.19M42.28,49.46h-6.61v6.61h6.61v-6.61h0Z"/>
    </g>
    <g>
      <path d="M36.54,45.21l-.02-2.05c0-1.73.65-3.38,1.8-4.66l3.16-3.5c.72-.8,1.12-1.84,1.12-2.91,0-1.42-1.16-2.57-2.59-2.57h-2.03c-1.43,0-2.59,1.15-2.59,2.57v.85h-4.93v-.85c0-4.12,3.37-7.48,7.52-7.48h2.03c4.15,0,7.52,3.35,7.52,7.48,0,2.29-.85,4.49-2.39,6.19l-3.17,3.51c-.35.39-.54.87-.54,1.38l-.02,2.06h-4.88Z"/>
      <path d="M40.02,25.45c3.68,0,6.67,2.97,6.67,6.62,0,2.08-.77,4.07-2.17,5.62l-3.16,3.51c-.49.54-.76,1.22-.76,1.95v1.21h-3.21v-1.21c0-1.51.55-2.96,1.57-4.08l3.16-3.5c.87-.96,1.34-2.2,1.34-3.48,0-1.89-1.55-3.42-3.45-3.42h-2.03c-1.9,0-3.45,1.54-3.45,3.42h-3.22c0-3.65,2.99-6.62,6.67-6.62h2.03M40.02,23.75h-2.03c-4.62,0-8.38,3.74-8.38,8.33v1.71h6.64v-1.71c0-.95.78-1.72,1.74-1.72h2.03c.96,0,1.74.77,1.74,1.72,0,.86-.32,1.7-.9,2.34l-3.16,3.5c-1.3,1.43-2.01,3.29-2.02,5.22v1.23s.03,1.69.03,1.69h6.57l.02-1.69v-1.21c.01-.31.12-.58.34-.82l3.17-3.51c1.68-1.86,2.61-4.26,2.61-6.76,0-4.59-3.76-8.33-8.38-8.33h0Z"/>
    </g>
  </g>
</svg>