<?xml version="1.0" encoding="UTF-8"?>
<svg id="Layer_1" xmlns="http://www.w3.org/2000/svg" version="1.1" viewBox="0 0 117 117">
  <!-- Generator: Adobe Illustrator 30.1.0, SVG Export Plug-In . SVG Version: 2.1.1 Build 136)  -->
  <g>
    <g>
      <rect x="54.35" y="31.12" width="8.3" height="8.3"/>
      <path d="M61.73,32.03v6.47h-6.47v-6.47h6.47M63.56,30.2h-10.12v10.12h10.12v-10.12h0Z"/>
    </g>
    <g>
      <polygon points="47.88 85.53 47.88 77.24 54.35 77.24 54.35 58.87 47.88 58.87 47.88 50.57 62.65 50.57 62.65 77.24 69.12 77.24 69.12 85.53 47.88 85.53"/>
      <path d="M61.73,51.49v26.66h6.47v6.47h-19.41v-6.47h6.47v-20.19h-6.47v-6.47h12.94M63.56,49.66h-16.59v10.12h6.47v16.54h-6.47v10.12h23.06v-10.12h-6.47v-26.66h0Z"/>
    </g>
  </g>
  <circle id="Outer" cx="58.5" cy="58.5" r="52.38" fill="none" stroke="#000" stroke-width="12.25"/>
</svg>