<?xml version="1.0" encoding="UTF-8"?>
<svg id="Layer_1" xmlns="http://www.w3.org/2000/svg" version="1.1" viewBox="0 0 43 43">
  <!-- Generator: Adobe Illustrator 30.1.0, SVG Export Plug-In . SVG Version: 2.1.1 Build 136)  -->
  <circle id="Outer" cx="21.5" cy="21.5" r="18.49" fill="none" stroke="#000" stroke-width="6.02"/>
  <g>
    <g>
      <rect x="20.14" y="27.74" width="2.7" height="2.7"/>
      <path d="M22.37,28.21v1.76h-1.76v-1.76h1.76M23.31,27.27h-3.64v3.64h3.64v-3.64h0Z"/>
    </g>
    <g>
      <path d="M20.14,24.92v-1.13c0-.96.35-1.87.98-2.57l1.74-1.93c.4-.44.62-1.01.62-1.61,0-.78-.64-1.42-1.43-1.42h-1.12c-.79,0-1.43.64-1.43,1.42v.47h-2.72v-.47c0-2.27,1.86-4.12,4.15-4.12h1.12c2.29,0,4.15,1.85,4.15,4.12,0,1.26-.47,2.47-1.32,3.41l-1.74,1.93c-.2.22-.3.48-.3.76v1.14h-2.71Z"/>
      <path d="M22.06,14.03c2.03,0,3.68,1.64,3.68,3.65,0,1.15-.42,2.25-1.19,3.1l-1.74,1.93c-.27.3-.42.67-.42,1.07v.67h-1.77v-.67c0-.83.3-1.63.87-2.25l1.74-1.93c.48-.53.74-1.21.74-1.92,0-1.04-.85-1.89-1.9-1.89h-1.12c-1.05,0-1.9.85-1.9,1.89h-1.78c0-2.01,1.65-3.65,3.68-3.65h1.12M22.06,13.09h-1.12c-2.55,0-4.62,2.06-4.62,4.59v.94h3.66v-.94c0-.52.43-.95.96-.95h1.12c.53,0,.96.42.96.95,0,.48-.18.93-.5,1.29l-1.74,1.93c-.71.79-1.11,1.81-1.11,2.88v.68s.01.93.01.93h3.62v-.93s.02-.67.02-.67c0-.17.06-.32.18-.45l1.74-1.93c.93-1.03,1.44-2.35,1.44-3.73,0-2.53-2.07-4.59-4.62-4.59h0Z"/>
    </g>
  </g>
</svg>