<?xml version="1.0" encoding="UTF-8"?>
<svg id="Layer_1" xmlns="http://www.w3.org/2000/svg" version="1.1" viewBox="0 0 43 43">
  <!-- Generator: Adobe Illustrator 30.1.0, SVG Export Plug-In . SVG Version: 2.1.1 Build 136)  -->
  <circle id="Outer" cx="21.5" cy="21.5" r="17.73" fill="none" stroke="#000" stroke-width="7.54"/>
  <g>
    <g>
      <rect x="20.13" y="27.16" width="2.72" height="2.72"/>
      <path d="M22.25,27.76v1.51h-1.51v-1.51h1.51M23.46,26.55h-3.93v3.93h3.93v-3.93h0Z"/>
    </g>
    <g>
      <path d="M20.13,24.5v-1.17c0-.87.31-1.7.9-2.35l1.5-1.66c.31-.34.48-.79.48-1.25,0-.56-.46-1.02-1.03-1.02h-.96c-.57,0-1.03.46-1.03,1.02v.6h-2.74v-.6c0-2.06,1.69-3.75,3.77-3.75h.96c2.08,0,3.77,1.68,3.77,3.75,0,1.14-.42,2.23-1.18,3.07l-1.5,1.66c-.13.15-.21.33-.21.52v1.18h-2.72Z"/>
      <path d="M21.98,14.93c1.74,0,3.16,1.41,3.16,3.14,0,.99-.36,1.93-1.03,2.67l-1.5,1.66c-.23.26-.36.58-.36.92v.57h-1.52v-.57c0-.72.26-1.4.75-1.94l1.5-1.66c.41-.45.64-1.04.64-1.65,0-.9-.73-1.62-1.63-1.62h-.96c-.9,0-1.63.73-1.63,1.62h-1.53c0-1.73,1.42-3.14,3.16-3.14h.96M21.98,13.72h-.96c-2.41,0-4.37,1.95-4.37,4.35v1.21h1.21s1.53,0,1.53,0h1.21v-1.21c0-.23.19-.41.43-.41h.96c.23,0,.43.19.43.41,0,.31-.12.61-.33.84l-1.5,1.66c-.68.75-1.06,1.73-1.06,2.74v.59s.02,1.2.02,1.2h3.91v-1.2s.02-.57.02-.57c0-.04,0-.08.05-.12l1.5-1.66c.86-.96,1.34-2.19,1.34-3.48,0-2.4-1.96-4.35-4.37-4.35h0Z"/>
    </g>
  </g>
</svg>