<?xml version="1.0" encoding="UTF-8"?>
<svg id="Layer_1" xmlns="http://www.w3.org/2000/svg" version="1.1" viewBox="0 0 115 115">
  <!-- Generator: Adobe Illustrator 30.1.0, SVG Export Plug-In . SVG Version: 2.1.1 Build 136)  -->
  <circle id="Outer" cx="57.5" cy="57.5" r="51.48" fill="none" stroke="#000" stroke-width="12.04"/>
  <g>
    <g>
      <rect x="53.87" y="75.72" width="7.2" height="7.2"/>
      <path d="M60.17,76.62v5.4h-5.4v-5.4h5.4M61.96,74.82h-8.99v8.99h8.99v-8.99h0Z"/>
    </g>
    <g>
      <path d="M53.88,67.89l-.03-2.93c.01-2.79,1.04-5.45,2.91-7.51l5.35-5.93c1.32-1.46,2.04-3.33,2.04-5.29,0-2.7-2.21-4.89-4.93-4.89h-3.44c-2.72,0-4.93,2.19-4.93,4.89v.9h-7.25v-.9c0-6.67,5.46-12.1,12.18-12.1h3.44c6.71,0,12.18,5.43,12.18,12.1,0,3.73-1.38,7.32-3.89,10.1l-5.35,5.93c-.69.76-1.06,1.69-1.06,2.69l-.03,2.94h-7.18Z"/>
      <path d="M59.22,35.03c6.22,0,11.28,5.02,11.28,11.2,0,3.51-1.3,6.89-3.66,9.5l-5.35,5.93c-.83.92-1.29,2.06-1.29,3.29l-.02,2.04h-5.4l-.02-2.04c0-2.56.95-5,2.68-6.9l5.35-5.93c1.46-1.62,2.27-3.71,2.27-5.89,0-3.19-2.62-5.79-5.83-5.79h-3.44c-3.21,0-5.83,2.6-5.83,5.79h-5.45c0-6.17,5.06-11.2,11.28-11.2h3.44M59.22,33.23h-3.44c-7.21,0-13.07,5.83-13.07,13v1.8h9.04v-1.8c0-2.2,1.81-3.99,4.03-3.99h3.44c2.22,0,4.03,1.79,4.03,3.99,0,1.73-.64,3.4-1.81,4.69l-5.35,5.93c-2.01,2.23-3.13,5.1-3.14,8.1l.02,2.06.02,1.78h8.96l.02-1.78.02-2.04c0-.78.29-1.51.83-2.1l5.35-5.93c2.66-2.95,4.13-6.75,4.13-10.71,0-7.17-5.87-13-13.07-13h0Z"/>
    </g>
  </g>
</svg>