<?xml version="1.0" encoding="UTF-8"?>
<svg id="Layer_1" xmlns="http://www.w3.org/2000/svg" version="1.1" viewBox="0 0 112 112">
  <!-- Generator: Adobe Illustrator 30.1.0, SVG Export Plug-In . SVG Version: 2.1.1 Build 136)  -->
  <g>
    <g>
      <rect x="51.9" y="32.63" width="8.2" height="8.2"/>
      <path d="M58.52,34.21v5.05h-5.05v-5.05h5.05M61.67,31.06h-11.35v11.35h11.35v-11.35h0Z"/>
    </g>
    <g>
      <polygon points="46.86 78.42 46.86 70.23 51.9 70.23 51.9 57.62 46.86 57.62 46.86 49.42 60.1 49.42 60.1 70.23 65.14 70.23 65.14 78.42 46.86 78.42"/>
      <path d="M58.52,51v20.8h5.05v5.05h-15.14v-5.05h5.05v-15.75h-5.05v-5.05h10.09M61.67,47.85h-16.39v11.35h5.05v9.45h-5.05v11.35h21.44v-11.35h-5.05v-20.8h0Z"/>
    </g>
  </g>
  <circle id="Outer" cx="56" cy="56" r="46.18" fill="none" stroke="#000" stroke-width="19.64"/>
</svg>