<?xml version="1.0" encoding="UTF-8"?>
<svg id="Layer_1" xmlns="http://www.w3.org/2000/svg" version="1.1" viewBox="0 0 94 94">
  <!-- Generator: Adobe Illustrator 30.1.0, SVG Export Plug-In . SVG Version: 2.1.1 Build 136)  -->
  <g>
    <g>
      <rect x="43.62" y="26.19" width="6.77" height="6.77"/>
      <path d="M49.36,27.22v4.71h-4.71v-4.71h4.71M51.41,25.17h-8.82v8.82h8.82v-8.82h0Z"/>
    </g>
    <g>
      <polygon points="38.9 67.26 38.9 60.49 43.62 60.49 43.62 47.84 38.9 47.84 38.9 41.07 50.38 41.07 50.38 60.49 55.1 60.49 55.1 67.26 38.9 67.26"/>
      <path d="M49.36,42.1v19.42h4.71v4.71h-14.14v-4.71h4.71v-14.71h-4.71v-4.71h9.42M51.41,40.04h-13.54v8.82h4.71v10.6h-4.71v8.82h18.25v-8.82h-4.71v-19.42h0Z"/>
    </g>
  </g>
  <circle id="Outer" cx="47" cy="47" r="40.42" fill="none" stroke="#000" stroke-width="13.16"/>
</svg>