<?xml version="1.0" encoding="UTF-8"?>
<svg id="Layer_1" xmlns="http://www.w3.org/2000/svg" version="1.1" viewBox="0 0 123 123">
  <!-- Generator: Adobe Illustrator 30.1.0, SVG Export Plug-In . SVG Version: 2.1.1 Build 136)  -->
  <circle id="Outer" cx="61.5" cy="61.5" r="55.06" fill="none" stroke="#000" stroke-width="12.88"/>
  <g>
    <g>
      <rect x="57.61" y="80.99" width="7.7" height="7.7"/>
      <path d="M64.35,81.95v5.78h-5.78v-5.78h5.78M66.27,80.02h-9.62v9.62h9.62v-9.62h0Z"/>
    </g>
    <g>
      <path d="M57.63,72.61l-.03-3.14c.01-2.98,1.12-5.83,3.11-8.04l5.72-6.34c1.41-1.56,2.18-3.57,2.18-5.66,0-2.88-2.37-5.23-5.27-5.23h-3.68c-2.91,0-5.27,2.35-5.27,5.23v.96h-7.75v-.96c0-7.13,5.84-12.94,13.02-12.94h3.68c7.18,0,13.02,5.8,13.02,12.94,0,3.99-1.48,7.83-4.17,10.81l-5.72,6.34c-.74.82-1.13,1.81-1.13,2.88l-.03,3.14h-7.68Z"/>
      <path d="M63.34,37.47c6.65,0,12.06,5.37,12.06,11.98,0,3.76-1.39,7.37-3.92,10.16l-5.72,6.34c-.89.98-1.38,2.2-1.38,3.52l-.02,2.18h-5.78l-.02-2.18c0-2.74,1.02-5.35,2.86-7.38l5.72-6.34c1.57-1.73,2.43-3.97,2.43-6.3,0-3.41-2.8-6.19-6.23-6.19h-3.67c-3.44,0-6.23,2.78-6.23,6.19h-5.83c0-6.6,5.41-11.98,12.06-11.98h3.67M63.34,35.55h-3.67c-7.71,0-13.98,6.24-13.98,13.9v1.92h9.67v-1.92c0-2.35,1.93-4.27,4.31-4.27h3.67c2.38,0,4.31,1.92,4.31,4.27,0,1.85-.69,3.63-1.93,5.01l-5.72,6.34c-2.15,2.38-3.34,5.46-3.36,8.66l.02,2.21.02,1.9h9.58l.02-1.9.02-2.18c0-.84.31-1.61.89-2.25l5.72-6.34c2.85-3.15,4.41-7.22,4.41-11.45,0-7.66-6.27-13.9-13.98-13.9h0Z"/>
    </g>
  </g>
</svg>