<?xml version="1.0" encoding="UTF-8"?>
<svg id="Layer_1" xmlns="http://www.w3.org/2000/svg" version="1.1" viewBox="0 0 32 32">
  <!-- Generator: Adobe Illustrator 30.1.0, SVG Export Plug-In . SVG Version: 2.1.1 Build 136)  -->
  <path d="M16,5.61c.34,0,.68.18.85.53l2.17,4.31c.37.74,1.07,1.26,1.88,1.42l4.7.88c.74.14,1.03,1.03.53,1.59l-3.43,3.76c-.53.58-.77,1.36-.67,2.14l.67,5.07c.08.6-.4,1.08-.95,1.08-.14,0-.29-.03-.44-.11l-4.11-2.12c-.38-.2-.8-.29-1.21-.29s-.83.1-1.21.29l-4.11,2.12c-.14.07-.29.11-.44.11-.54,0-1.03-.48-.95-1.08l.67-5.07c.1-.78-.14-1.56-.67-2.14l-3.43-3.76c-.5-.55-.21-1.45.53-1.59l4.7-.88c.81-.15,1.51-.68,1.88-1.42l2.17-4.32c.18-.35.51-.53.85-.53M16,0C13.51,0,11.26,1.38,10.14,3.61l-1.52,3.01-3.26.61c-2.34.44-4.26,2.11-5.02,4.37-.76,2.26-.23,4.75,1.37,6.51l2.5,2.75-.49,3.71c-.25,1.88.32,3.77,1.57,5.19,1.25,1.42,3.05,2.24,4.94,2.24,1.04,0,2.08-.25,3-.73l2.76-1.42,2.76,1.42c.93.48,1.97.73,3,.73,1.89,0,3.69-.82,4.94-2.24,1.24-1.42,1.82-3.31,1.57-5.19l-.49-3.71,2.5-2.75c1.6-1.76,2.13-4.25,1.37-6.51-.76-2.26-2.68-3.93-5.01-4.37l-3.27-.61-1.52-3.01C20.74,1.38,18.49,0,16,0h0Z"/>
</svg>