<?xml version="1.0" encoding="UTF-8"?>
<svg id="Layer_1" xmlns="http://www.w3.org/2000/svg" version="1.1" viewBox="0 0 108 108">
  <!-- Generator: Adobe Illustrator 30.1.0, SVG Export Plug-In . SVG Version: 2.1.1 Build 136)  -->
  <g>
    <g>
      <rect x="50.05" y="31.47" width="7.9" height="7.9"/>
      <path d="M56.43,32.98v4.87h-4.87v-4.87h4.87M59.47,29.95h-10.94v10.94h10.94v-10.94h0Z"/>
    </g>
    <g>
      <polygon points="45.18 75.62 45.18 67.72 50.05 67.72 50.05 55.56 45.18 55.56 45.18 47.66 57.95 47.66 57.95 67.72 62.82 67.72 62.82 75.62 45.18 75.62"/>
      <path d="M56.43,49.18v20.06h4.87v4.87h-14.6v-4.87h4.87v-15.19h-4.87v-4.87h9.73M59.47,46.14h-15.81v10.94h4.87v9.12h-4.87v10.94h20.67v-10.94h-4.87v-20.06h0Z"/>
    </g>
  </g>
  <circle id="Outer" cx="54" cy="54" r="44.53" fill="none" stroke="#000" stroke-width="18.93"/>
</svg>