<?xml version="1.0" encoding="UTF-8"?>
<svg id="Layer_1" xmlns="http://www.w3.org/2000/svg" version="1.1" viewBox="0 0 108 108">
  <!-- Generator: Adobe Illustrator 30.1.0, SVG Export Plug-In . SVG Version: 2.1.1 Build 136)  -->
  <g>
    <g>
      <rect x="50.17" y="28.72" width="7.66" height="7.66"/>
      <path d="M56.99,29.57v5.97h-5.97v-5.97h5.97M58.67,27.88h-9.35v9.35h9.35v-9.35h0Z"/>
    </g>
    <g>
      <polygon points="44.2 78.95 44.2 71.29 50.17 71.29 50.17 54.34 44.2 54.34 44.2 46.68 57.83 46.68 57.83 71.29 63.8 71.29 63.8 78.95 44.2 78.95"/>
      <path d="M56.99,47.53v24.61h5.97v5.97h-17.91v-5.97h5.97v-18.64h-5.97v-5.97h11.94M58.67,45.84h-15.32v9.35h5.97v15.27h-5.97v9.35h21.29v-9.35h-5.97v-24.61h0Z"/>
    </g>
  </g>
  <circle id="Outer" cx="54" cy="54" r="48.35" fill="none" stroke="#000" stroke-width="11.31"/>
</svg>