<?xml version="1.0" encoding="UTF-8"?>
<svg id="Layer_1" xmlns="http://www.w3.org/2000/svg" version="1.1" viewBox="0 0 62 62">
  <!-- Generator: Adobe Illustrator 30.1.0, SVG Export Plug-In . SVG Version: 2.1.1 Build 136)  -->
  <circle id="Outer" cx="31" cy="31" r="25.57" fill="none" stroke="#000" stroke-width="10.87"/>
  <g>
    <g>
      <rect x="29.02" y="39.15" width="3.93" height="3.93"/>
      <path d="M32.08,40.03v2.18h-2.18v-2.18h2.18M33.82,38.28h-5.67v5.67h5.67v-5.67h0Z"/>
    </g>
    <g>
      <path d="M29.03,35.33l-.02-1.69c0-1.26.47-2.46,1.31-3.38l2.16-2.4c.45-.5.69-1.13.69-1.8,0-.81-.67-1.47-1.48-1.47h-1.39c-.82,0-1.49.66-1.49,1.47v.87h-3.95v-.87c0-2.98,2.44-5.4,5.43-5.4h1.39c3,0,5.43,2.42,5.43,5.4,0,1.64-.61,3.21-1.71,4.43l-2.16,2.4c-.2.22-.3.47-.3.75l-.02,1.7h-3.91Z"/>
      <path d="M31.69,21.53c2.51,0,4.56,2.03,4.56,4.53,0,1.42-.53,2.79-1.48,3.84l-2.16,2.4c-.34.37-.52.83-.52,1.33v.83h-2.19v-.83c0-1.04.38-2.02,1.07-2.79l2.16-2.4c.59-.66.92-1.5.92-2.38,0-1.29-1.06-2.34-2.36-2.34h-1.39c-1.3,0-2.36,1.05-2.36,2.34h-2.2c0-2.5,2.05-4.53,4.56-4.53h1.39M31.69,19.78h-1.39c-3.48,0-6.3,2.81-6.3,6.27v1.74h5.69v-1.74c0-.33.28-.6.61-.6h1.39c.34,0,.61.27.61.6,0,.45-.17.88-.47,1.21l-2.16,2.4c-.98,1.09-1.53,2.49-1.53,3.95v.85s.02,1.73.02,1.73h5.64l.02-1.73v-.83c0-.06.02-.11.08-.18l2.16-2.4c1.24-1.38,1.93-3.16,1.93-5.01,0-3.46-2.83-6.27-6.3-6.27h0Z"/>
    </g>
  </g>
</svg>