<?xml version="1.0" encoding="UTF-8"?>
<svg id="Layer_1" xmlns="http://www.w3.org/2000/svg" version="1.1" viewBox="0 0 62 62">
  <!-- Generator: Adobe Illustrator 30.1.0, SVG Export Plug-In . SVG Version: 2.1.1 Build 136)  -->
  <circle id="Outer" cx="31" cy="31" r="27.75" fill="none" stroke="#000" stroke-width="6.49"/>
  <g>
    <g>
      <rect x="29.04" y="40.82" width="3.88" height="3.88"/>
      <path d="M32.44,41.31v2.91h-2.91v-2.91h2.91M33.41,40.34h-4.85v4.85h4.85v-4.85h0Z"/>
    </g>
    <g>
      <path d="M29.05,36.6v-1.58c0-1.5.55-2.94,1.55-4.05l2.88-3.19c.71-.79,1.1-1.8,1.1-2.85,0-1.45-1.19-2.64-2.66-2.64h-1.85c-1.47,0-2.66,1.18-2.66,2.64v.48h-3.91v-.48c0-3.6,2.94-6.52,6.56-6.52h1.85c3.62,0,6.56,2.93,6.56,6.52,0,2.01-.75,3.95-2.1,5.45l-2.88,3.2c-.37.41-.57.91-.57,1.45l-.02,1.58h-3.87Z"/>
      <path d="M31.93,18.89c3.35,0,6.08,2.71,6.08,6.04,0,1.89-.7,3.71-1.97,5.12l-2.88,3.2c-.45.49-.69,1.11-.7,1.77v1.1h-2.92v-1.1c0-1.38.5-2.69,1.43-3.72l2.88-3.19c.79-.87,1.22-2,1.22-3.18,0-1.72-1.41-3.12-3.14-3.12h-1.85c-1.73,0-3.14,1.4-3.14,3.12h-2.94c0-3.33,2.73-6.04,6.08-6.04h1.85M31.93,17.92h-1.85c-3.89,0-7.05,3.14-7.05,7.01v.97h4.88v-.97c0-1.19.98-2.15,2.17-2.15h1.85c1.2,0,2.17.97,2.17,2.15,0,.93-.35,1.83-.97,2.53l-2.88,3.19c-1.08,1.2-1.69,2.75-1.69,4.37v1.11s.02.96.02.96h4.83v-.96s.02-1.1.02-1.1c0-.42.16-.81.45-1.13l2.88-3.2c1.43-1.59,2.22-3.64,2.22-5.77,0-3.86-3.16-7.01-7.05-7.01h0Z"/>
    </g>
  </g>
</svg>