<?xml version="1.0" encoding="UTF-8"?>
<svg id="Layer_1" xmlns="http://www.w3.org/2000/svg" version="1.1" viewBox="0 0 62 62">
  <!-- Generator: Adobe Illustrator 30.1.0, SVG Export Plug-In . SVG Version: 2.1.1 Build 136)  -->
  <circle id="Outer" cx="31" cy="31" r="26.66" fill="none" stroke="#000" stroke-width="8.68"/>
  <g>
    <g>
      <rect x="29.04" y="39.99" width="3.9" height="3.89"/>
      <path d="M32.25,40.67v2.54h-2.54v-2.54h2.54M33.61,39.31h-5.25v5.25h5.25v-5.25h0Z"/>
    </g>
    <g>
      <path d="M29.04,35.94l-.02-1.63c0-1.38.51-2.69,1.43-3.71l2.51-2.79c.58-.64.89-1.46.89-2.31,0-1.13-.93-2.04-2.06-2.04h-1.62c-1.14,0-2.06.92-2.06,2.04v.68h-3.92v-.68c0-3.28,2.68-5.94,5.98-5.94h1.62c3.3,0,5.98,2.67,5.98,5.94,0,1.82-.67,3.57-1.9,4.92l-2.51,2.79c-.28.31-.43.69-.43,1.09l-.02,1.64h-3.88Z"/>
      <path d="M31.81,20.23c2.92,0,5.3,2.36,5.3,5.26,0,1.65-.61,3.24-1.72,4.47l-2.52,2.79c-.39.43-.61.97-.61,1.55v.96h-2.55v-.96c0-1.2.44-2.35,1.25-3.25l2.51-2.79c.69-.76,1.07-1.75,1.07-2.77,0-1.5-1.23-2.72-2.74-2.72h-1.62c-1.51,0-2.74,1.22-2.74,2.72h-2.56c0-2.9,2.38-5.26,5.3-5.26h1.62M31.81,18.88h-1.62c-3.67,0-6.66,2.97-6.66,6.62v1.36h5.27v-1.36c0-.75.62-1.36,1.38-1.36h1.62c.76,0,1.38.61,1.38,1.36,0,.69-.25,1.35-.72,1.86l-2.51,2.79c-1.03,1.14-1.6,2.61-1.61,4.15v.98s.02,1.34.02,1.34h5.23v-1.34s.02-.96.02-.96c0-.25.09-.46.26-.65l2.52-2.79c1.34-1.48,2.07-3.39,2.07-5.38,0-3.65-2.99-6.62-6.66-6.62h0Z"/>
    </g>
  </g>
</svg>