<?xml version="1.0" encoding="UTF-8"?>
<svg id="Layer_1" xmlns="http://www.w3.org/2000/svg" version="1.1" viewBox="0 0 100 100">
  <!-- Generator: Adobe Illustrator 30.1.0, SVG Export Plug-In . SVG Version: 2.1.1 Build 136)  -->
  <circle id="Outer" cx="50" cy="50" r="43" fill="none" stroke="#000" stroke-width="14"/>
  <g>
    <g>
      <rect x="46.83" y="64.5" width="6.28" height="6.28"/>
      <path d="M52.02,65.6v4.1h-4.1v-4.1h4.1M54.21,63.41h-8.47v8.47h8.47v-8.47h0Z"/>
    </g>
    <g>
      <path d="M46.85,57.96l-.02-2.63c0-2.22.83-4.34,2.31-5.98l4.06-4.49c.93-1.03,1.44-2.35,1.44-3.73,0-1.82-1.49-3.3-3.33-3.3h-2.61c-1.83,0-3.33,1.48-3.33,3.3v1.09h-6.32v-1.09c0-5.29,4.33-9.58,9.65-9.58h2.61c5.32,0,9.65,4.3,9.65,9.58,0,2.93-1.09,5.75-3.06,7.94l-4.06,4.49c-.45.5-.7,1.11-.7,1.77l-.03,2.64h-6.26Z"/>
      <path d="M51.3,32.63c4.72,0,8.55,3.81,8.55,8.49,0,2.66-.99,5.22-2.78,7.21l-4.06,4.5c-.63.7-.98,1.56-.98,2.49l-.02,1.55h-4.1v-1.55c0-1.94.71-3.79,2.01-5.23l4.06-4.49c1.11-1.23,1.72-2.82,1.72-4.47,0-2.42-1.98-4.39-4.42-4.39h-2.61c-2.44,0-4.42,1.97-4.42,4.39h-4.13c0-4.68,3.84-8.49,8.55-8.49h2.61M51.3,30.45h-2.61c-5.92,0-10.74,4.79-10.74,10.68v2.19h8.51v-2.19c0-1.21,1-2.2,2.23-2.2h2.61c1.23,0,2.23.99,2.23,2.2,0,1.11-.41,2.17-1.16,3l-4.06,4.49c-1.66,1.84-2.58,4.22-2.59,6.69v1.58s.03,2.17.03,2.17h8.43l.02-2.17.02-1.55c0-.4.14-.75.41-1.05l4.06-4.5c2.15-2.39,3.34-5.47,3.34-8.67,0-5.89-4.82-10.68-10.74-10.68h0Z"/>
    </g>
  </g>
</svg>