<?xml version="1.0" encoding="UTF-8"?>
<svg id="Layer_1" xmlns="http://www.w3.org/2000/svg" version="1.1" viewBox="0 0 100 100">
  <!-- Generator: Adobe Illustrator 30.1.0, SVG Export Plug-In . SVG Version: 2.1.1 Build 136)  -->
  <circle id="Outer" cx="50" cy="50" r="41.23" fill="none" stroke="#000" stroke-width="17.53"/>
  <g>
    <g>
      <rect x="46.81" y="63.15" width="6.34" height="6.34"/>
      <path d="M51.74,64.56v3.52h-3.52v-3.52h3.52M54.55,61.74h-9.15v9.15h9.15v-9.15h0Z"/>
    </g>
    <g>
      <path d="M46.83,56.98l-.02-2.73c0-2.03.76-3.96,2.11-5.46l3.49-3.86c.72-.8,1.12-1.83,1.12-2.9,0-1.31-1.08-2.37-2.4-2.37h-2.24c-1.32,0-2.4,1.06-2.4,2.37v1.41h-6.37v-1.41c0-4.8,3.93-8.71,8.76-8.71h2.24c4.83,0,8.76,3.91,8.76,8.71,0,2.64-.98,5.18-2.75,7.14l-3.49,3.87c-.32.35-.48.76-.48,1.21l-.03,2.74h-6.31Z"/>
      <path d="M51.12,34.72c4.06,0,7.36,3.28,7.36,7.3,0,2.29-.85,4.49-2.39,6.2l-3.49,3.87c-.54.6-.84,1.34-.84,2.15v1.33h-3.54v-1.33c0-1.67.61-3.26,1.73-4.5l3.49-3.86c.96-1.06,1.48-2.42,1.48-3.84,0-2.08-1.71-3.78-3.8-3.78h-2.24c-2.1,0-3.8,1.69-3.8,3.78h-3.55c0-4.03,3.3-7.3,7.36-7.3h2.24M51.12,31.91h-2.24c-5.61,0-10.17,4.54-10.17,10.12v2.81h9.18v-2.81c0-.53.44-.96.99-.96h2.24c.55,0,.99.43.99.96,0,.72-.27,1.42-.76,1.96l-3.49,3.87c-1.58,1.75-2.46,4.02-2.47,6.38v1.37s.04,2.79.04,2.79h9.09l.03-2.78v-1.33c.01-.09.03-.18.13-.29l3.49-3.87c2.01-2.22,3.11-5.09,3.11-8.08,0-5.58-4.56-10.12-10.17-10.12h0Z"/>
    </g>
  </g>
</svg>