<?xml version="1.0" encoding="UTF-8"?>
<svg id="Layer_1" xmlns="http://www.w3.org/2000/svg" version="1.1" viewBox="0 0 16 16">
  <!-- Generator: Adobe Illustrator 30.1.0, SVG Export Plug-In . SVG Version: 2.1.1 Build 136)  -->
  <circle id="Outer" cx="8" cy="8" r="7.16" fill="none" stroke="#000" stroke-width="1.67"/>
  <g>
    <g>
      <rect x="7.49" y="10.54" width="1" height="1"/>
      <path d="M8.37,10.66v.75h-.75v-.75h.75M8.62,10.41h-1.25v1.25h1.25v-1.25h0Z"/>
    </g>
    <g>
      <path d="M7.5,9.45v-.41c0-.39.14-.76.4-1.05l.74-.82c.18-.2.28-.46.28-.74,0-.38-.31-.68-.69-.68h-.48c-.38,0-.69.31-.69.68v.12h-1.01v-.12c0-.93.76-1.68,1.69-1.68h.48c.93,0,1.69.75,1.69,1.68,0,.52-.19,1.02-.54,1.41l-.74.83c-.1.11-.15.24-.15.37v.41h-1Z"/>
      <path d="M8.24,4.87c.87,0,1.57.7,1.57,1.56,0,.49-.18.96-.51,1.32l-.74.82c-.12.13-.18.29-.18.46v.28h-.75v-.28c0-.36.13-.7.37-.96l.74-.82c.2-.23.32-.52.32-.82,0-.44-.36-.81-.81-.81h-.48c-.45,0-.81.36-.81.81h-.76c0-.86.7-1.56,1.57-1.56h.48M8.24,4.62h-.48c-1,0-1.82.81-1.82,1.81v.25h1.26v-.25c0-.31.25-.56.56-.56h.48c.31,0,.56.25.56.56,0,.24-.09.47-.25.65l-.74.82c-.28.31-.44.71-.44,1.13v.29s0,.25,0,.25h1.25v-.25s0-.28,0-.28c0-.11.04-.21.12-.29l.74-.82c.37-.41.57-.94.57-1.49,0-1-.82-1.81-1.82-1.81h0Z"/>
    </g>
  </g>
</svg>