<?xml version="1.0" encoding="UTF-8"?>
<svg id="Layer_1" xmlns="http://www.w3.org/2000/svg" version="1.1" viewBox="0 0 16 16">
  <!-- Generator: Adobe Illustrator 30.1.0, SVG Export Plug-In . SVG Version: 2.1.1 Build 136)  -->
  <circle id="Outer" cx="8" cy="8" r="6.6" fill="none" stroke="#000" stroke-width="2.81"/>
  <g>
    <g>
      <rect x="7.49" y="10.1" width="1.01" height="1.01"/>
      <path d="M8.28,10.33v.56h-.56v-.56h.56M8.73,9.88h-1.46v1.46h1.46v-1.46h0Z"/>
    </g>
    <g>
      <path d="M7.49,9.12v-.44c0-.33.12-.63.33-.87l.56-.62c.12-.13.18-.29.18-.46,0-.21-.17-.38-.38-.38h-.36c-.21,0-.38.17-.38.38v.23h-1.02v-.23c0-.77.63-1.39,1.4-1.39h.36c.77,0,1.4.63,1.4,1.39,0,.42-.16.83-.44,1.14l-.56.62c-.05.06-.08.12-.08.19v.44h-1.01Z"/>
      <path d="M8.18,5.56c.65,0,1.18.52,1.18,1.17,0,.37-.14.72-.38.99l-.56.62c-.09.1-.13.21-.13.34v.21h-.57v-.21c0-.27.1-.52.28-.72l.56-.62c.15-.17.24-.39.24-.61,0-.33-.27-.6-.61-.6h-.36c-.34,0-.61.27-.61.6h-.57c0-.64.53-1.17,1.18-1.17h.36M8.18,5.11h-.36c-.9,0-1.63.73-1.63,1.62v.45h1.47v-.45c0-.08.07-.15.16-.15h.36c.09,0,.16.07.16.15,0,.12-.04.23-.12.31l-.56.62c-.25.28-.39.64-.4,1.02v.22s0,.45,0,.45h1.46v-.45s0-.21,0-.21l.02-.05.56-.62c.32-.36.5-.82.5-1.29,0-.89-.73-1.62-1.63-1.62h0Z"/>
    </g>
  </g>
</svg>