<?xml version="1.0" encoding="UTF-8"?>
<svg id="Layer_1" xmlns="http://www.w3.org/2000/svg" version="1.1" viewBox="0 0 96 96">
  <!-- Generator: Adobe Illustrator 30.1.0, SVG Export Plug-In . SVG Version: 2.1.1 Build 136)  -->
  <g>
    <g>
      <rect x="44.6" y="25.53" width="6.81" height="6.81"/>
      <path d="M50.65,26.28v5.31h-5.31v-5.31h5.31M52.15,24.78h-8.31v8.31h8.31v-8.31h0Z"/>
    </g>
    <g>
      <polygon points="39.29 70.18 39.29 63.37 44.6 63.37 44.6 48.3 39.29 48.3 39.29 41.5 51.4 41.5 51.4 63.37 56.71 63.37 56.71 70.18 39.29 70.18"/>
      <path d="M50.65,42.25v21.88h5.31v5.31h-15.92v-5.31h5.31v-16.57h-5.31v-5.31h10.61M52.15,40.75h-13.61v8.31h5.31v13.57h-5.31v8.31h18.92v-8.31h-5.31v-21.88h0Z"/>
    </g>
  </g>
  <circle id="Outer" cx="48" cy="48" r="42.98" fill="none" stroke="#000" stroke-width="10.05"/>
</svg>