<?xml version="1.0" encoding="UTF-8"?>
<svg id="Layer_1" xmlns="http://www.w3.org/2000/svg" version="1.1" viewBox="0 0 96 96">
  <!-- Generator: Adobe Illustrator 30.1.0, SVG Export Plug-In . SVG Version: 2.1.1 Build 136)  -->
  <g>
    <g>
      <rect x="44.54" y="26.75" width="6.91" height="6.91"/>
      <path d="M50.41,27.8v4.81h-4.81v-4.81h4.81M52.51,25.7h-9.01v9.01h9.01v-9.01h0Z"/>
    </g>
    <g>
      <polygon points="39.73 68.69 39.73 61.78 44.54 61.78 44.54 48.85 39.73 48.85 39.73 41.94 51.46 41.94 51.46 61.78 56.27 61.78 56.27 68.69 39.73 68.69"/>
      <path d="M50.41,42.99v19.83h4.81v4.81h-14.44v-4.81h4.81v-15.02h-4.81v-4.81h9.62M52.51,40.89h-13.82v9.01h4.81v10.82h-4.81v9.01h18.64v-9.01h-4.81v-19.83h0Z"/>
    </g>
  </g>
  <circle id="Outer" cx="48" cy="48" r="41.28" fill="none" stroke="#000" stroke-width="13.44"/>
</svg>