<?xml version="1.0" encoding="UTF-8"?>
<svg id="Layer_1" xmlns="http://www.w3.org/2000/svg" version="1.1" viewBox="0 0 110 110">
  <!-- Generator: Adobe Illustrator 30.1.0, SVG Export Plug-In . SVG Version: 2.1.1 Build 136)  -->
  <path d="M55,15.4c1.29,0,2.58.67,3.25,2l8.28,16.45c1.42,2.82,4.07,4.82,7.17,5.4l17.92,3.36c2.8.53,3.94,3.93,2.02,6.04l-13.06,14.33c-2.01,2.21-2.95,5.2-2.56,8.17l2.55,19.32c.3,2.31-1.53,4.13-3.61,4.13-.55,0-1.12-.13-1.66-.41l-15.68-8.07c-1.45-.75-3.04-1.12-4.63-1.12s-3.18.37-4.63,1.12l-15.68,8.07c-.55.28-1.11.41-1.66.41-2.07,0-3.91-1.83-3.61-4.13l2.55-19.33c.39-2.97-.54-5.95-2.56-8.16l-13.06-14.33c-1.92-2.11-.79-5.52,2.02-6.05l17.92-3.36c3.1-.58,5.75-2.58,7.17-5.4l8.29-16.45c.67-1.34,1.96-2,3.25-2M55,0C47.77,0,41.25,4.01,38,10.47l-7.11,14.12-15.35,2.88c-6.78,1.27-12.35,6.13-14.55,12.67-2.19,6.55-.67,13.78,3.98,18.89l11.41,12.52-2.23,16.91c-.72,5.44.94,10.92,4.55,15.04,3.62,4.13,8.85,6.5,14.32,6.5,3.01,0,6.02-.73,8.71-2.12l13.26-6.83,13.26,6.83c2.69,1.39,5.7,2.12,8.71,2.12,5.48,0,10.7-2.37,14.32-6.5,3.61-4.12,5.27-9.6,4.55-15.04l-2.23-16.91,11.42-12.53c4.65-5.1,6.18-12.34,3.98-18.88-2.19-6.54-7.76-11.4-14.54-12.67l-15.35-2.88-7.11-14.12C68.75,4.01,62.23,0,55,0h0Z"/>
</svg>