<?xml version="1.0" encoding="UTF-8"?>
<svg id="Layer_1" xmlns="http://www.w3.org/2000/svg" version="1.1" viewBox="0 0 76 76">
  <!-- Generator: Adobe Illustrator 30.1.0, SVG Export Plug-In . SVG Version: 2.1.1 Build 136)  -->
  <circle id="Outer" cx="38" cy="38" r="31.34" fill="none" stroke="#000" stroke-width="13.32"/>
  <g>
    <g>
      <rect x="35.57" y="48" width="4.81" height="4.81"/>
      <path d="M39.32,49.06v2.68h-2.68v-2.68h2.68M41.46,46.93h-6.95v6.95h6.95v-6.95h0Z"/>
    </g>
    <g>
      <path d="M35.59,43.3l-.02-2.07c0-1.54.57-3.01,1.6-4.15l2.65-2.94c.55-.61.85-1.39.85-2.2,0-.99-.82-1.8-1.82-1.8h-1.7c-1,0-1.82.81-1.82,1.8v1.07h-4.84v-1.07c0-3.65,2.99-6.62,6.66-6.62h1.7c3.67,0,6.66,2.97,6.66,6.62,0,2.01-.74,3.93-2.09,5.43l-2.65,2.94c-.24.26-.36.58-.37.92l-.02,2.08h-4.79Z"/>
      <path d="M38.85,26.39c3.08,0,5.59,2.49,5.59,5.55,0,1.74-.64,3.41-1.82,4.71l-2.65,2.94c-.41.45-.64,1.02-.64,1.63v1.01h-2.69v-1.01c0-1.27.46-2.48,1.32-3.42l2.65-2.94c.73-.8,1.13-1.84,1.13-2.92,0-1.58-1.3-2.87-2.89-2.87h-1.7c-1.59,0-2.89,1.29-2.89,2.87h-2.7c0-3.06,2.51-5.55,5.59-5.55h1.7M38.85,24.25h-1.7c-4.26,0-7.73,3.45-7.73,7.69v2.14h6.98v-2.14c0-.4.34-.73.75-.73h1.7c.41,0,.75.33.75.73,0,.55-.2,1.08-.57,1.49l-2.65,2.94c-1.2,1.33-1.87,3.05-1.88,4.85v1.04s.03,2.12.03,2.12h6.91l.02-2.12v-1.01c.01-.07.02-.13.1-.22l2.65-2.94c1.53-1.69,2.37-3.87,2.37-6.14,0-4.24-3.47-7.69-7.73-7.69h0Z"/>
    </g>
  </g>
</svg>