<?xml version="1.0" encoding="UTF-8"?>
<svg id="Layer_1" xmlns="http://www.w3.org/2000/svg" version="1.1" viewBox="0 0 47 47">
  <!-- Generator: Adobe Illustrator 30.1.0, SVG Export Plug-In . SVG Version: 2.1.1 Build 136)  -->
  <g>
    <g>
      <rect x="21.83" y="12.5" width="3.33" height="3.33"/>
      <path d="M24.8,12.87v2.6h-2.6v-2.6h2.6M25.53,12.13h-4.07v4.07h4.07v-4.07h0Z"/>
    </g>
    <g>
      <polygon points="19.24 34.36 19.24 31.03 21.83 31.03 21.83 23.65 19.24 23.65 19.24 20.32 25.17 20.32 25.17 31.03 27.76 31.03 27.76 34.36 19.24 34.36"/>
      <path d="M24.8,20.68v10.71h2.6v2.6h-7.8v-2.6h2.6v-8.11h-2.6v-2.6h5.2M25.53,19.95h-6.67v4.07h2.6v6.64h-2.6v4.07h9.26v-4.07h-2.6v-10.71h0Z"/>
    </g>
  </g>
  <circle id="Outer" cx="23.5" cy="23.5" r="21.04" fill="none" stroke="#000" stroke-width="4.92"/>
</svg>