<?xml version="1.0" encoding="UTF-8"?>
<svg id="Layer_1" xmlns="http://www.w3.org/2000/svg" version="1.1" viewBox="0 0 98 98">
  <!-- Generator: Adobe Illustrator 30.1.0, SVG Export Plug-In . SVG Version: 2.1.1 Build 136)  -->
  <path d="M49,13.72c1.15,0,2.29.59,2.89,1.78l7.38,14.65c1.27,2.51,3.63,4.29,6.39,4.81l15.97,2.99c2.5.47,3.51,3.5,1.8,5.38l-11.63,12.77c-1.79,1.97-2.63,4.63-2.28,7.28l2.27,17.21c.27,2.05-1.37,3.68-3.21,3.68-.49,0-.99-.11-1.48-.37l-13.97-7.19c-1.29-.67-2.71-1-4.13-1s-2.83.33-4.13,1l-13.97,7.19c-.49.25-.99.37-1.48.37-1.85,0-3.48-1.63-3.21-3.68l2.27-17.22c.35-2.64-.49-5.3-2.28-7.27l-11.63-12.77c-1.71-1.88-.7-4.92,1.8-5.39l15.97-2.99c2.76-.52,5.12-2.3,6.39-4.81l7.38-14.65c.6-1.19,1.75-1.78,2.89-1.78M49,0C42.56,0,36.75,3.58,33.85,9.33l-6.34,12.58-13.67,2.56c-6.04,1.13-11.01,5.46-12.96,11.29-1.95,5.83-.59,12.28,3.55,16.83l10.17,11.16-1.99,15.06c-.64,4.85.84,9.73,4.05,13.4,3.23,3.68,7.88,5.8,12.76,5.8,2.68,0,5.36-.65,7.76-1.89l11.81-6.08,11.81,6.08c2.4,1.24,5.08,1.89,7.76,1.89,4.88,0,9.53-2.11,12.76-5.8,3.22-3.67,4.69-8.55,4.05-13.4l-1.99-15.06,10.17-11.16c4.14-4.55,5.5-10.99,3.55-16.82-1.95-5.83-6.92-10.15-12.96-11.29l-13.68-2.56-6.34-12.58C61.25,3.58,55.44,0,49,0h0Z"/>
</svg>